<svg xmlns="http://www.w3.org/2000/svg" width="466.297" height="274.747" viewBox="0 0 466.297 274.747">
  <g id="Grupo_1072680" data-name="Grupo 1072680" transform="translate(12288.127 3657.691)">
    <g id="Grupo_1070896" data-name="Grupo 1070896" transform="translate(-12287.127 -3622.869)">
      <g id="Grupo_1070895" data-name="Grupo 1070895" transform="translate(0 0)">
        <g id="Grupo_1070894" data-name="Grupo 1070894" transform="translate(23.182 8.957)">
          <path id="Trazado_815773" data-name="Trazado 815773" d="M-13621-3632.268h321.213" transform="translate(13621 3685.98)" fill="none" stroke="#707070" stroke-width="1" stroke-dasharray="3"/>
          <path id="Trazado_815779" data-name="Trazado 815779" d="M-13621-3632.268h321.213" transform="translate(13621 3659.385)" fill="none" stroke="#707070" stroke-width="1" stroke-dasharray="3"/>
          <path id="Trazado_815780" data-name="Trazado 815780" d="M-13621-3632.268h321.213" transform="translate(13621 3632.268)" fill="none" stroke="#707070" stroke-width="1" stroke-dasharray="3"/>
          <path id="Trazado_815774" data-name="Trazado 815774" d="M-13621-3632.268h321.213" transform="translate(13621 3713.097)" fill="none" stroke="#707070" stroke-width="1" stroke-dasharray="3"/>
          <path id="Trazado_815775" data-name="Trazado 815775" d="M-13621-3632.268h321.213" transform="translate(13621 3739.693)" fill="none" stroke="#707070" stroke-width="1" stroke-dasharray="3"/>
          <path id="Trazado_815776" data-name="Trazado 815776" d="M-13621-3632.268h321.213" transform="translate(13621 3766.81)" fill="none" stroke="#707070" stroke-width="1" stroke-dasharray="3"/>
          <path id="Trazado_815777" data-name="Trazado 815777" d="M-13621-3632.268h321.213" transform="translate(13621 3793.406)" fill="none" stroke="#707070" stroke-width="1" stroke-dasharray="3"/>
          <path id="Trazado_815778" data-name="Trazado 815778" d="M-13621-3632.268h321.213" transform="translate(13621 3820.523)" fill="none" stroke="#707070" stroke-width="1" stroke-dasharray="3"/>
        </g>
        <text id="_0" data-name="0" transform="translate(6.567 200.634)" fill="#12263f" font-size="12" font-family="Roboto-Bold, Roboto" font-weight="700"><tspan x="-3.442" y="0">0</tspan></text>
        <text id="Ciencias_económicas" data-name="Ciencias
económicas" transform="translate(64.766 222.925)" fill="#12263f" font-size="12" font-family="Roboto-Bold, Roboto" font-weight="700"><tspan x="-23.142" y="0">Ciencias</tspan><tspan x="-32.733" y="14">económicas</tspan></text>
        <text id="Humanidades" transform="translate(182.895 222.925)" fill="#12263f" font-size="12" font-family="Roboto-Bold, Roboto" font-weight="700"><tspan x="-37.266" y="0">Humanidades</tspan></text>
        <text id="Ciencias_de_la_salud" data-name="Ciencias de
la salud" transform="translate(300.831 222.925)" fill="#12263f" font-size="12" font-family="Roboto-Bold, Roboto" font-weight="700"><tspan x="-31.26" y="0">Ciencias de</tspan><tspan x="-20.933" y="14">la salud</tspan></text>
        <text id="_5" data-name="5" transform="translate(6.567 172.708)" fill="#12263f" font-size="12" font-family="Roboto-Bold, Roboto" font-weight="700"><tspan x="-3.442" y="0">5</tspan></text>
        <text id="_10" data-name="10" transform="translate(7 147.054)" fill="#12263f" font-size="13" font-family="Roboto-Bold, Roboto" font-weight="700"><tspan x="-7.458" y="0">10</tspan></text>
        <text id="_15" data-name="15" transform="translate(7 120.399)" fill="#12263f" font-size="13" font-family="Roboto-Bold, Roboto" font-weight="700"><tspan x="-7.458" y="0">15</tspan></text>
        <text id="_20" data-name="20" transform="translate(7 93.745)" fill="#12263f" font-size="13" font-family="Roboto-Bold, Roboto" font-weight="700"><tspan x="-7.458" y="0">20</tspan></text>
        <text id="_25" data-name="25" transform="translate(7 67.092)" fill="#12263f" font-size="13" font-family="Roboto-Bold, Roboto" font-weight="700"><tspan x="-7.458" y="0">25</tspan></text>
        <text id="_30" data-name="30" transform="translate(7 40.437)" fill="#12263f" font-size="13" font-family="Roboto-Bold, Roboto" font-weight="700"><tspan x="-7.458" y="0">30</tspan></text>
        <text id="_35" data-name="35" transform="translate(7 12)" fill="#12263f" font-size="13" font-family="Roboto-Bold, Roboto" font-weight="700"><tspan x="-7.458" y="0">35</tspan></text>
      </g>
      <g id="Rectángulo_376054" data-name="Rectángulo 376054" transform="translate(33.103 88.576)" fill="#6bab2b" stroke="#707070" stroke-width="1">
        <rect width="15.158" height="109.67" stroke="none"/>
        <rect x="0.5" y="0.5" width="14.158" height="108.67" fill="none"/>
      </g>
      <g id="Rectángulo_376059" data-name="Rectángulo 376059" transform="translate(148.124 116.216)" fill="#3b5620" stroke="#707070" stroke-width="1">
        <rect width="15.158" height="82.03" stroke="none"/>
        <rect x="0.5" y="0.5" width="14.158" height="81.03" fill="none"/>
      </g>
      <g id="Rectángulo_376062" data-name="Rectángulo 376062" transform="translate(266.71 35.078)" fill="#a4ff4a" stroke="#707070" stroke-width="1">
        <rect width="15.158" height="163.168" stroke="none"/>
        <rect x="0.5" y="0.5" width="14.158" height="162.168" fill="none"/>
      </g>
      <g id="Rectángulo_376055" data-name="Rectángulo 376055" transform="translate(60.744 154.556)" fill="#a9ec66" stroke="#707070" stroke-width="1">
        <rect width="15.158" height="43.69" stroke="none"/>
        <rect x="0.5" y="0.5" width="14.158" height="42.69" fill="none"/>
      </g>
      <g id="Rectángulo_376058" data-name="Rectángulo 376058" transform="translate(175.764 142.965)" fill="#98c867" stroke="#707070" stroke-width="1">
        <rect width="15.158" height="55.281" stroke="none"/>
        <rect x="0.5" y="0.5" width="14.158" height="54.281" fill="none"/>
      </g>
      <g id="Rectángulo_376061" data-name="Rectángulo 376061" transform="translate(294.351 76.093)" fill="#aad281" stroke="#707070" stroke-width="1">
        <rect width="15.158" height="122.153" stroke="none"/>
        <rect x="0.5" y="0.5" width="14.158" height="121.153" fill="none"/>
      </g>
      <g id="Rectángulo_376056" data-name="Rectángulo 376056" transform="translate(87.493 35.078)" fill="#dbf9bd" stroke="#707070" stroke-width="1">
        <rect width="15.158" height="163.168" stroke="none"/>
        <rect x="0.5" y="0.5" width="14.158" height="162.168" fill="none"/>
      </g>
      <g id="Rectángulo_376057" data-name="Rectángulo 376057" transform="translate(202.513 88.576)" fill="#beec90" stroke="#707070" stroke-width="1">
        <rect width="15.158" height="109.67" stroke="none"/>
        <rect x="0.5" y="0.5" width="14.158" height="108.67" fill="none"/>
      </g>
      <g id="Rectángulo_376060" data-name="Rectángulo 376060" transform="translate(321.1 116.216)" fill="#dbf9bd" stroke="#707070" stroke-width="1">
        <rect width="15.158" height="82.03" stroke="none"/>
        <rect x="0.5" y="0.5" width="14.158" height="81.03" fill="none"/>
      </g>
      <text id="contaduría" transform="translate(414.297 11)" fill="#12263f" font-size="12" font-family="Roboto-Regular, Roboto"><tspan x="-28.564" y="0">contaduría</tspan></text>
      <text id="economía" transform="translate(410.406 29.42)" fill="#12263f" font-size="12" font-family="Roboto-Regular, Roboto"><tspan x="-26.479" y="0">economía</tspan></text>
      <text id="administración" transform="translate(425.297 47.84)" fill="#12263f" font-size="12" font-family="Roboto-Regular, Roboto"><tspan x="-39.688" y="0">administración</tspan></text>
      <text id="filosofía" transform="translate(407.297 66.26)" fill="#12263f" font-size="12" font-family="Roboto-Regular, Roboto"><tspan x="-21.545" y="0">filosofía</tspan></text>
      <text id="literatura" transform="translate(409.297 84.68)" fill="#12263f" font-size="12" font-family="Roboto-Regular, Roboto"><tspan x="-23.672" y="0">literatura</tspan></text>
      <text id="sociología" transform="translate(413.297 103.1)" fill="#12263f" font-size="12" font-family="Roboto-Regular, Roboto"><tspan x="-27.524" y="0">sociología</tspan></text>
      <text id="psicología" transform="translate(411.406 121.519)" fill="#12263f" font-size="12" font-family="Roboto-Regular, Roboto"><tspan x="-27.469" y="0">psicología</tspan></text>
      <text id="odontología" transform="translate(416.406 139.939)" fill="#12263f" font-size="12" font-family="Roboto-Regular, Roboto"><tspan x="-31.852" y="0">odontología</tspan></text>
      <text id="medicina" transform="translate(408.406 158.359)" fill="#12263f" font-size="12" font-family="Roboto-Regular, Roboto"><tspan x="-24.448" y="0">medicina</tspan></text>
      <g id="Rectángulo_376063" data-name="Rectángulo 376063" transform="translate(370.14 2.088)" fill="#6bab2b" stroke="#707070" stroke-width="1">
        <rect width="9.808" height="9.808" stroke="none"/>
        <rect x="0.5" y="0.5" width="8.808" height="8.808" fill="none"/>
      </g>
      <g id="Rectángulo_376064" data-name="Rectángulo 376064" transform="translate(370.14 20.812)" fill="#a9ec66" stroke="#707070" stroke-width="1">
        <rect width="9.808" height="9.808" stroke="none"/>
        <rect x="0.5" y="0.5" width="8.808" height="8.808" fill="none"/>
      </g>
      <g id="Rectángulo_376065" data-name="Rectángulo 376065" transform="translate(370.14 39.536)" fill="#dbf9bd" stroke="#707070" stroke-width="1">
        <rect width="9.808" height="9.808" stroke="none"/>
        <rect x="0.5" y="0.5" width="8.808" height="8.808" fill="none"/>
      </g>
      <g id="Rectángulo_376066" data-name="Rectángulo 376066" transform="translate(370.14 58.26)" fill="#3b5620" stroke="#707070" stroke-width="1">
        <rect width="9.808" height="9.808" stroke="none"/>
        <rect x="0.5" y="0.5" width="8.808" height="8.808" fill="none"/>
      </g>
      <g id="Rectángulo_376067" data-name="Rectángulo 376067" transform="translate(370.14 76.093)" fill="#98c867" stroke="#707070" stroke-width="1">
        <rect width="9.808" height="9.808" stroke="none"/>
        <rect x="0.5" y="0.5" width="8.808" height="8.808" fill="none"/>
      </g>
      <g id="Rectángulo_376068" data-name="Rectángulo 376068" transform="translate(370.14 94.817)" fill="#beec90" stroke="#707070" stroke-width="1">
        <rect width="9.808" height="9.808" stroke="none"/>
        <rect x="0.5" y="0.5" width="8.808" height="8.808" fill="none"/>
      </g>
      <g id="Rectángulo_376069" data-name="Rectángulo 376069" transform="translate(370.14 114.433)" fill="#a4ff4a" stroke="#707070" stroke-width="1">
        <rect width="9.808" height="9.808" stroke="none"/>
        <rect x="0.5" y="0.5" width="8.808" height="8.808" fill="none"/>
      </g>
      <g id="Rectángulo_376070" data-name="Rectángulo 376070" transform="translate(370.14 131.374)" fill="#aad281" stroke="#707070" stroke-width="1">
        <rect width="9.808" height="9.808" stroke="none"/>
        <rect x="0.5" y="0.5" width="8.808" height="8.808" fill="none"/>
      </g>
      <g id="Rectángulo_376071" data-name="Rectángulo 376071" transform="translate(370.14 150.098)" fill="#dbf9bd" stroke="#707070" stroke-width="1">
        <rect width="9.808" height="9.808" stroke="none"/>
        <rect x="0.5" y="0.5" width="8.808" height="8.808" fill="none"/>
      </g>
    </g>
    <path id="Trazado_819716" data-name="Trazado 819716" d="M6.781,8.4H2.468v3.527H7.479V13H1.155V3.047H7.41V4.12H2.468V7.326H6.781Zm6.439,2.639a.931.931,0,0,0-.386-.8,3.718,3.718,0,0,0-1.347-.489,6.367,6.367,0,0,1-1.524-.492,2.169,2.169,0,0,1-.834-.684,1.635,1.635,0,0,1-.27-.943A1.919,1.919,0,0,1,9.628,6.1a3,3,0,0,1,1.965-.629,3.091,3.091,0,0,1,2.041.649,2.063,2.063,0,0,1,.783,1.661H13.146a1.142,1.142,0,0,0-.441-.9,1.652,1.652,0,0,0-1.111-.376,1.729,1.729,0,0,0-1.08.3.947.947,0,0,0-.39.786.767.767,0,0,0,.362.69,4.458,4.458,0,0,0,1.309.444,6.821,6.821,0,0,1,1.535.506,2.239,2.239,0,0,1,.872.708,1.74,1.74,0,0,1,.284,1.008,1.893,1.893,0,0,1-.793,1.589,3.326,3.326,0,0,1-2.058.6,3.725,3.725,0,0,1-1.572-.314,2.557,2.557,0,0,1-1.07-.878,2.117,2.117,0,0,1-.386-1.22H9.871a1.309,1.309,0,0,0,.509,1.008,1.976,1.976,0,0,0,1.254.373,2.039,2.039,0,0,0,1.152-.291A.893.893,0,0,0,13.221,11.038Zm4.628-7.226V5.6h1.381v.978H17.849v4.593a1.027,1.027,0,0,0,.185.667.777.777,0,0,0,.629.222,3.062,3.062,0,0,0,.6-.082V13a3.688,3.688,0,0,1-.971.136,1.575,1.575,0,0,1-1.278-.513,2.2,2.2,0,0,1-.431-1.456V6.581H15.237V5.6h1.347V3.813Zm7.424,8.456a2.686,2.686,0,0,1-2.167.868,2.3,2.3,0,0,1-1.8-.687,2.974,2.974,0,0,1-.625-2.034V5.6h1.265v4.778q0,1.682,1.367,1.682a1.893,1.893,0,0,0,1.928-1.08V5.6H26.5V13H25.3ZM28.116,9.24A4.333,4.333,0,0,1,28.923,6.5a2.745,2.745,0,0,1,4.17-.147V2.5h1.265V13H33.2l-.062-.793a2.575,2.575,0,0,1-2.112.93,2.526,2.526,0,0,1-2.1-1.053,4.382,4.382,0,0,1-.81-2.748Zm1.265.144a3.281,3.281,0,0,0,.52,1.969,1.68,1.68,0,0,0,1.436.711,1.845,1.845,0,0,0,1.757-1.08v-3.4A1.859,1.859,0,0,0,31.35,6.54a1.687,1.687,0,0,0-1.449.718A3.612,3.612,0,0,0,29.381,9.384ZM37.693,13H36.429V5.6h1.265ZM36.326,3.642a.755.755,0,0,1,.188-.52.706.706,0,0,1,.557-.212.717.717,0,0,1,.561.212.747.747,0,0,1,.191.52.722.722,0,0,1-.191.513.73.73,0,0,1-.561.205.718.718,0,0,1-.557-.205A.73.73,0,0,1,36.326,3.642ZM44.283,13a2.657,2.657,0,0,1-.178-.779A2.822,2.822,0,0,1,42,13.137a2.611,2.611,0,0,1-1.794-.619,2,2,0,0,1-.7-1.569,2.091,2.091,0,0,1,.878-1.794,4.142,4.142,0,0,1,2.471-.639h1.23V7.935a1.42,1.42,0,0,0-.4-1.056,1.593,1.593,0,0,0-1.169-.393,1.844,1.844,0,0,0-1.135.342,1.007,1.007,0,0,0-.458.827H39.655a1.745,1.745,0,0,1,.393-1.07,2.683,2.683,0,0,1,1.066-.817,3.588,3.588,0,0,1,1.48-.3,2.924,2.924,0,0,1,2,.639,2.306,2.306,0,0,1,.752,1.76v3.4a4.162,4.162,0,0,0,.26,1.62V13Zm-2.1-.964a2.223,2.223,0,0,0,1.128-.308,1.861,1.861,0,0,0,.772-.8V9.411h-.991q-2.324,0-2.324,1.36a1.151,1.151,0,0,0,.4.93A1.524,1.524,0,0,0,42.185,12.036ZM48.528,5.6l.041.93a2.7,2.7,0,0,1,2.215-1.066q2.345,0,2.365,2.646V13H51.885V8.105a1.7,1.7,0,0,0-.366-1.183A1.466,1.466,0,0,0,50.4,6.54a1.825,1.825,0,0,0-1.08.328,2.228,2.228,0,0,0-.725.861V13H47.332V5.6Zm8.244-1.791V5.6h1.381v.978H56.772v4.593a1.027,1.027,0,0,0,.185.667.777.777,0,0,0,.629.222,3.062,3.062,0,0,0,.6-.082V13a3.688,3.688,0,0,1-.971.136,1.575,1.575,0,0,1-1.278-.513,2.2,2.2,0,0,1-.431-1.456V6.581H54.161V5.6h1.347V3.813ZM62.7,13.137a3.232,3.232,0,0,1-2.447-.988,3.666,3.666,0,0,1-.943-2.642V9.274a4.438,4.438,0,0,1,.42-1.965A3.28,3.28,0,0,1,60.9,5.956a2.956,2.956,0,0,1,1.637-.489,2.77,2.77,0,0,1,2.242.95,4.114,4.114,0,0,1,.8,2.721v.526H60.573a2.629,2.629,0,0,0,.639,1.767,2.009,2.009,0,0,0,1.555.673,2.2,2.2,0,0,0,1.135-.273,2.851,2.851,0,0,0,.813-.725l.772.6A3.106,3.106,0,0,1,62.7,13.137Zm-.157-6.631a1.687,1.687,0,0,0-1.285.557,2.708,2.708,0,0,0-.643,1.562h3.705v-.1a2.409,2.409,0,0,0-.52-1.494A1.588,1.588,0,0,0,62.542,6.506Zm8.812,4.532a.931.931,0,0,0-.386-.8,3.718,3.718,0,0,0-1.347-.489A6.367,6.367,0,0,1,68.1,9.261a2.169,2.169,0,0,1-.834-.684,1.635,1.635,0,0,1-.27-.943A1.919,1.919,0,0,1,67.761,6.1a3,3,0,0,1,1.965-.629,3.091,3.091,0,0,1,2.041.649,2.063,2.063,0,0,1,.783,1.661H71.278a1.142,1.142,0,0,0-.441-.9,1.652,1.652,0,0,0-1.111-.376,1.729,1.729,0,0,0-1.08.3.947.947,0,0,0-.39.786.767.767,0,0,0,.362.69,4.458,4.458,0,0,0,1.309.444,6.821,6.821,0,0,1,1.535.506,2.239,2.239,0,0,1,.872.708,1.74,1.74,0,0,1,.284,1.008,1.893,1.893,0,0,1-.793,1.589,3.326,3.326,0,0,1-2.058.6,3.725,3.725,0,0,1-1.572-.314,2.557,2.557,0,0,1-1.07-.878,2.117,2.117,0,0,1-.386-1.22H68a1.309,1.309,0,0,0,.509,1.008,1.976,1.976,0,0,0,1.254.373,2.039,2.039,0,0,0,1.152-.291A.893.893,0,0,0,71.354,11.038ZM83.979,9.384a4.429,4.429,0,0,1-.772,2.721,2.476,2.476,0,0,1-2.092,1.032A2.713,2.713,0,0,1,79,12.282v3.562H77.731V5.6h1.155l.062.82a2.605,2.605,0,0,1,2.146-.957,2.522,2.522,0,0,1,2.109,1,4.477,4.477,0,0,1,.776,2.8ZM82.715,9.24a3.268,3.268,0,0,0-.533-1.976,1.718,1.718,0,0,0-1.463-.725A1.859,1.859,0,0,0,79,7.559v3.534A1.863,1.863,0,0,0,80.732,12.1a1.71,1.71,0,0,0,1.446-.721A3.567,3.567,0,0,0,82.715,9.24Zm2.536-.007a4.369,4.369,0,0,1,.427-1.955,3.187,3.187,0,0,1,1.189-1.34,3.238,3.238,0,0,1,1.74-.472,3.119,3.119,0,0,1,2.444,1.046,4.024,4.024,0,0,1,.933,2.782v.089a4.407,4.407,0,0,1-.414,1.938,3.14,3.14,0,0,1-1.183,1.336,3.275,3.275,0,0,1-1.767.479,3.111,3.111,0,0,1-2.437-1.046,4,4,0,0,1-.933-2.769Zm1.271.15a3.164,3.164,0,0,0,.571,1.976,1.934,1.934,0,0,0,3.059-.01,3.46,3.46,0,0,0,.567-2.116,3.159,3.159,0,0,0-.578-1.972,1.836,1.836,0,0,0-1.535-.755,1.816,1.816,0,0,0-1.511.745A3.435,3.435,0,0,0,86.522,9.384ZM97.146,6.738a3.79,3.79,0,0,0-.622-.048,1.667,1.667,0,0,0-1.688,1.06V13H93.57V5.6H94.8l.021.854a1.969,1.969,0,0,1,1.764-.991,1.292,1.292,0,0,1,.561.1ZM104.74,12.1a1.822,1.822,0,0,0,1.183-.41,1.443,1.443,0,0,0,.561-1.025h1.2a2.293,2.293,0,0,1-.437,1.21,2.882,2.882,0,0,1-1.077.916,3.107,3.107,0,0,1-1.425.342,3.047,3.047,0,0,1-2.4-1.008,4.016,4.016,0,0,1-.892-2.758V9.158a4.453,4.453,0,0,1,.4-1.921,3.02,3.02,0,0,1,1.138-1.306,3.233,3.233,0,0,1,1.753-.465,2.966,2.966,0,0,1,2.068.745,2.663,2.663,0,0,1,.878,1.935h-1.2a1.743,1.743,0,0,0-.543-1.179,1.691,1.691,0,0,0-1.207-.461,1.77,1.77,0,0,0-1.494.694,3.259,3.259,0,0,0-.53,2.006v.239a3.194,3.194,0,0,0,.526,1.969A1.779,1.779,0,0,0,104.74,12.1Zm8.928.9a2.657,2.657,0,0,1-.178-.779,2.822,2.822,0,0,1-2.105.916,2.611,2.611,0,0,1-1.794-.619,2,2,0,0,1-.7-1.569,2.091,2.091,0,0,1,.878-1.794,4.141,4.141,0,0,1,2.471-.639h1.23V7.935a1.42,1.42,0,0,0-.4-1.056,1.593,1.593,0,0,0-1.169-.393,1.844,1.844,0,0,0-1.135.342,1.007,1.007,0,0,0-.458.827H109.04a1.745,1.745,0,0,1,.393-1.07,2.683,2.683,0,0,1,1.066-.817,3.588,3.588,0,0,1,1.48-.3,2.924,2.924,0,0,1,2,.639,2.306,2.306,0,0,1,.752,1.76v3.4a4.162,4.162,0,0,0,.26,1.62V13Zm-2.1-.964a2.223,2.223,0,0,0,1.128-.308,1.861,1.861,0,0,0,.772-.8V9.411h-.991q-2.324,0-2.324,1.36a1.151,1.151,0,0,0,.4.93A1.524,1.524,0,0,0,111.569,12.036Zm8.723-5.3a3.79,3.79,0,0,0-.622-.048,1.667,1.667,0,0,0-1.688,1.06V13h-1.265V5.6h1.23l.021.854a1.969,1.969,0,0,1,1.764-.991,1.292,1.292,0,0,1,.561.1Zm4.737,0a3.79,3.79,0,0,0-.622-.048,1.667,1.667,0,0,0-1.688,1.06V13h-1.265V5.6h1.23l.021.854a1.969,1.969,0,0,1,1.764-.991,1.292,1.292,0,0,1,.561.1Zm4.1,6.4a3.232,3.232,0,0,1-2.447-.988,3.666,3.666,0,0,1-.943-2.642V9.274a4.438,4.438,0,0,1,.42-1.965,3.28,3.28,0,0,1,1.176-1.354,2.956,2.956,0,0,1,1.637-.489,2.77,2.77,0,0,1,2.242.95,4.114,4.114,0,0,1,.8,2.721v.526H127a2.629,2.629,0,0,0,.639,1.767,2.009,2.009,0,0,0,1.555.673,2.2,2.2,0,0,0,1.135-.273,2.851,2.851,0,0,0,.813-.725l.772.6A3.106,3.106,0,0,1,129.131,13.137Zm-.157-6.631a1.687,1.687,0,0,0-1.285.557,2.708,2.708,0,0,0-.643,1.562h3.705v-.1a2.409,2.409,0,0,0-.52-1.494A1.588,1.588,0,0,0,128.974,6.506Zm8.08.232a3.79,3.79,0,0,0-.622-.048,1.667,1.667,0,0,0-1.688,1.06V13h-1.265V5.6h1.23l.021.854a1.969,1.969,0,0,1,1.764-.991,1.292,1.292,0,0,1,.561.1ZM142.509,13a2.657,2.657,0,0,1-.178-.779,2.822,2.822,0,0,1-2.105.916,2.611,2.611,0,0,1-1.794-.619,2,2,0,0,1-.7-1.569,2.091,2.091,0,0,1,.878-1.794,4.142,4.142,0,0,1,2.471-.639h1.23V7.935a1.42,1.42,0,0,0-.4-1.056,1.593,1.593,0,0,0-1.169-.393,1.844,1.844,0,0,0-1.135.342,1.007,1.007,0,0,0-.458.827h-1.271a1.745,1.745,0,0,1,.393-1.07,2.683,2.683,0,0,1,1.066-.817,3.588,3.588,0,0,1,1.48-.3,2.924,2.924,0,0,1,2,.639,2.306,2.306,0,0,1,.752,1.76v3.4a4.162,4.162,0,0,0,.26,1.62V13Zm-2.1-.964a2.223,2.223,0,0,0,1.128-.308,1.861,1.861,0,0,0,.772-.8V9.411h-.991q-2.324,0-2.324,1.36a1.151,1.151,0,0,0,.4.93A1.524,1.524,0,0,0,140.41,12.036ZM153.59,13a2.657,2.657,0,0,1-.178-.779,2.822,2.822,0,0,1-2.105.916,2.611,2.611,0,0,1-1.794-.619,2,2,0,0,1-.7-1.569,2.091,2.091,0,0,1,.878-1.794,4.142,4.142,0,0,1,2.471-.639h1.23V7.935a1.42,1.42,0,0,0-.4-1.056,1.593,1.593,0,0,0-1.169-.393,1.844,1.844,0,0,0-1.135.342,1.007,1.007,0,0,0-.458.827h-1.271a1.745,1.745,0,0,1,.393-1.07,2.683,2.683,0,0,1,1.066-.817,3.588,3.588,0,0,1,1.48-.3,2.924,2.924,0,0,1,2,.639,2.306,2.306,0,0,1,.752,1.76v3.4a4.162,4.162,0,0,0,.26,1.62V13Zm-2.1-.964a2.223,2.223,0,0,0,1.128-.308,1.861,1.861,0,0,0,.772-.8V9.411H152.4q-2.324,0-2.324,1.36a1.151,1.151,0,0,0,.4.93A1.524,1.524,0,0,0,151.491,12.036Zm4.847-2.8a4.347,4.347,0,0,1,.8-2.751,2.757,2.757,0,0,1,4.231-.065l.062-.82h1.155v7.219a3.009,3.009,0,0,1-.851,2.263,3.141,3.141,0,0,1-2.287.827,3.8,3.8,0,0,1-1.565-.342,2.7,2.7,0,0,1-1.169-.937l.656-.759a2.473,2.473,0,0,0,1.989,1,1.938,1.938,0,0,0,1.439-.52,1.986,1.986,0,0,0,.516-1.463v-.636a2.6,2.6,0,0,1-2.071.875,2.526,2.526,0,0,1-2.1-1.046A4.571,4.571,0,0,1,156.338,9.24Zm1.271.144a3.316,3.316,0,0,0,.513,1.965,1.666,1.666,0,0,0,1.436.714,1.852,1.852,0,0,0,1.757-1.087V7.6a1.874,1.874,0,0,0-1.743-1.06,1.681,1.681,0,0,0-1.442.718A3.612,3.612,0,0,0,157.609,9.384Zm10.459-2.646a3.79,3.79,0,0,0-.622-.048,1.667,1.667,0,0,0-1.688,1.06V13h-1.265V5.6h1.23l.021.854a1.969,1.969,0,0,1,1.764-.991,1.292,1.292,0,0,1,.561.1Zm5.729,5.53a2.686,2.686,0,0,1-2.167.868,2.3,2.3,0,0,1-1.8-.687,2.974,2.974,0,0,1-.625-2.034V5.6h1.265v4.778q0,1.682,1.367,1.682a1.893,1.893,0,0,0,1.928-1.08V5.6h1.265V13h-1.2Zm9.4-2.885a4.429,4.429,0,0,1-.772,2.721,2.476,2.476,0,0,1-2.092,1.032,2.713,2.713,0,0,1-2.119-.854v3.562h-1.265V5.6H178.1l.062.82a2.605,2.605,0,0,1,2.146-.957,2.522,2.522,0,0,1,2.109,1,4.477,4.477,0,0,1,.776,2.8Zm-1.265-.144a3.268,3.268,0,0,0-.533-1.976,1.718,1.718,0,0,0-1.463-.725,1.859,1.859,0,0,0-1.723,1.019v3.534a1.863,1.863,0,0,0,1.736,1.012,1.71,1.71,0,0,0,1.446-.721A3.567,3.567,0,0,0,181.932,9.24ZM189.369,13a2.657,2.657,0,0,1-.178-.779,2.822,2.822,0,0,1-2.105.916,2.611,2.611,0,0,1-1.794-.619,2,2,0,0,1-.7-1.569,2.091,2.091,0,0,1,.878-1.794,4.142,4.142,0,0,1,2.471-.639h1.23V7.935a1.42,1.42,0,0,0-.4-1.056,1.593,1.593,0,0,0-1.169-.393,1.844,1.844,0,0,0-1.135.342,1.007,1.007,0,0,0-.458.827h-1.271a1.745,1.745,0,0,1,.393-1.07,2.683,2.683,0,0,1,1.066-.817,3.588,3.588,0,0,1,1.48-.3,2.924,2.924,0,0,1,2,.639,2.306,2.306,0,0,1,.752,1.76v3.4a4.162,4.162,0,0,0,.26,1.62V13Zm-2.1-.964a2.223,2.223,0,0,0,1.128-.308,1.861,1.861,0,0,0,.772-.8V9.411h-.991q-2.324,0-2.324,1.36a1.151,1.151,0,0,0,.4.93A1.524,1.524,0,0,0,187.271,12.036Zm4.84-2.8a4.333,4.333,0,0,1,.807-2.738,2.745,2.745,0,0,1,4.17-.147V2.5h1.265V13h-1.162l-.062-.793a2.575,2.575,0,0,1-2.112.93,2.526,2.526,0,0,1-2.1-1.053,4.382,4.382,0,0,1-.81-2.748Zm1.265.144a3.281,3.281,0,0,0,.52,1.969,1.68,1.68,0,0,0,1.436.711,1.845,1.845,0,0,0,1.757-1.08v-3.4a1.859,1.859,0,0,0-1.743-1.046,1.687,1.687,0,0,0-1.449.718A3.612,3.612,0,0,0,193.375,9.384Zm6.6-.15a4.369,4.369,0,0,1,.427-1.955,3.187,3.187,0,0,1,1.189-1.34,3.238,3.238,0,0,1,1.74-.472,3.119,3.119,0,0,1,2.444,1.046,4.024,4.024,0,0,1,.933,2.782v.089a4.407,4.407,0,0,1-.414,1.938,3.14,3.14,0,0,1-1.183,1.336,3.275,3.275,0,0,1-1.767.479,3.111,3.111,0,0,1-2.437-1.046,4,4,0,0,1-.933-2.769Zm1.271.15a3.164,3.164,0,0,0,.571,1.976,1.934,1.934,0,0,0,3.059-.01,3.46,3.46,0,0,0,.567-2.116,3.159,3.159,0,0,0-.578-1.972,1.836,1.836,0,0,0-1.535-.755,1.816,1.816,0,0,0-1.511.745A3.435,3.435,0,0,0,201.25,9.384ZM212.6,11.038a.931.931,0,0,0-.386-.8,3.718,3.718,0,0,0-1.347-.489,6.367,6.367,0,0,1-1.524-.492,2.169,2.169,0,0,1-.834-.684,1.635,1.635,0,0,1-.27-.943,1.919,1.919,0,0,1,.769-1.538,3,3,0,0,1,1.965-.629,3.091,3.091,0,0,1,2.041.649,2.063,2.063,0,0,1,.783,1.661h-1.271a1.142,1.142,0,0,0-.441-.9,1.652,1.652,0,0,0-1.111-.376,1.729,1.729,0,0,0-1.08.3.947.947,0,0,0-.39.786.767.767,0,0,0,.362.69,4.458,4.458,0,0,0,1.309.444,6.821,6.821,0,0,1,1.535.506,2.239,2.239,0,0,1,.872.708,1.74,1.74,0,0,1,.284,1.008,1.893,1.893,0,0,1-.793,1.589,3.326,3.326,0,0,1-2.058.6,3.725,3.725,0,0,1-1.572-.314,2.557,2.557,0,0,1-1.07-.878,2.117,2.117,0,0,1-.386-1.22h1.265a1.309,1.309,0,0,0,.509,1.008,1.976,1.976,0,0,0,1.254.373,2.039,2.039,0,0,0,1.152-.291A.893.893,0,0,0,212.6,11.038ZM225.23,9.384a4.429,4.429,0,0,1-.772,2.721,2.476,2.476,0,0,1-2.092,1.032,2.713,2.713,0,0,1-2.119-.854v3.562h-1.265V5.6h1.155l.062.82a2.605,2.605,0,0,1,2.146-.957,2.522,2.522,0,0,1,2.109,1,4.477,4.477,0,0,1,.776,2.8Zm-1.265-.144a3.268,3.268,0,0,0-.533-1.976,1.718,1.718,0,0,0-1.463-.725,1.859,1.859,0,0,0-1.723,1.019v3.534a1.863,1.863,0,0,0,1.736,1.012,1.71,1.71,0,0,0,1.446-.721A3.567,3.567,0,0,0,223.966,9.24Zm2.536-.007a4.369,4.369,0,0,1,.427-1.955,3.187,3.187,0,0,1,1.189-1.34,3.238,3.238,0,0,1,1.74-.472A3.119,3.119,0,0,1,232.3,6.513a4.024,4.024,0,0,1,.933,2.782v.089a4.407,4.407,0,0,1-.414,1.938,3.14,3.14,0,0,1-1.183,1.336,3.275,3.275,0,0,1-1.767.479,3.111,3.111,0,0,1-2.437-1.046,4,4,0,0,1-.933-2.769Zm1.271.15a3.164,3.164,0,0,0,.571,1.976,1.934,1.934,0,0,0,3.059-.01,3.46,3.46,0,0,0,.567-2.116,3.159,3.159,0,0,0-.578-1.972,1.836,1.836,0,0,0-1.535-.755,1.816,1.816,0,0,0-1.511.745A3.435,3.435,0,0,0,227.773,9.384ZM238.4,6.738a3.79,3.79,0,0,0-.622-.048,1.667,1.667,0,0,0-1.688,1.06V13h-1.265V5.6h1.23l.021.854a1.969,1.969,0,0,1,1.764-.991,1.292,1.292,0,0,1,.561.1ZM243.646,13V6.581h-1.169V5.6h1.169V4.845a2.519,2.519,0,0,1,.636-1.839,2.4,2.4,0,0,1,1.8-.649,3.339,3.339,0,0,1,.868.115l-.068,1.019a3.632,3.632,0,0,0-.684-.062,1.234,1.234,0,0,0-.95.36,1.46,1.46,0,0,0-.335,1.032V5.6h1.579v.978h-1.579V13Zm8.8,0a2.657,2.657,0,0,1-.178-.779,2.822,2.822,0,0,1-2.105.916,2.611,2.611,0,0,1-1.794-.619,2,2,0,0,1-.7-1.569,2.091,2.091,0,0,1,.878-1.794,4.142,4.142,0,0,1,2.471-.639h1.23V7.935a1.42,1.42,0,0,0-.4-1.056,1.593,1.593,0,0,0-1.169-.393,1.844,1.844,0,0,0-1.135.342,1.007,1.007,0,0,0-.458.827h-1.271a1.745,1.745,0,0,1,.393-1.07,2.683,2.683,0,0,1,1.066-.817,3.588,3.588,0,0,1,1.48-.3,2.924,2.924,0,0,1,2,.639,2.306,2.306,0,0,1,.752,1.76v3.4a4.162,4.162,0,0,0,.26,1.62V13Zm-2.1-.964a2.223,2.223,0,0,0,1.128-.308,1.861,1.861,0,0,0,.772-.8V9.411h-.991q-2.324,0-2.324,1.36a1.151,1.151,0,0,0,.4.93A1.524,1.524,0,0,0,250.353,12.036Zm8.114.068a1.822,1.822,0,0,0,1.183-.41,1.443,1.443,0,0,0,.561-1.025h1.2a2.293,2.293,0,0,1-.437,1.21,2.882,2.882,0,0,1-1.077.916,3.107,3.107,0,0,1-1.425.342,3.047,3.047,0,0,1-2.4-1.008,4.016,4.016,0,0,1-.892-2.758V9.158a4.453,4.453,0,0,1,.4-1.921,3.02,3.02,0,0,1,1.138-1.306,3.233,3.233,0,0,1,1.753-.465,2.966,2.966,0,0,1,2.068.745,2.663,2.663,0,0,1,.878,1.935h-1.2a1.743,1.743,0,0,0-.543-1.179,1.691,1.691,0,0,0-1.207-.461,1.77,1.77,0,0,0-1.494.694,3.259,3.259,0,0,0-.53,2.006v.239a3.194,3.194,0,0,0,.526,1.969A1.779,1.779,0,0,0,258.467,12.1Zm8.928.164a2.686,2.686,0,0,1-2.167.868,2.3,2.3,0,0,1-1.8-.687,2.974,2.974,0,0,1-.625-2.034V5.6h1.265v4.778q0,1.682,1.367,1.682a1.893,1.893,0,0,0,1.928-1.08V5.6h1.265V13h-1.2ZM271.92,13h-1.265V2.5h1.265Zm3.739-9.187V5.6h1.381v.978h-1.381v4.593a1.027,1.027,0,0,0,.185.667.777.777,0,0,0,.629.222,3.062,3.062,0,0,0,.6-.082V13a3.688,3.688,0,0,1-.971.136,1.575,1.575,0,0,1-1.278-.513,2.2,2.2,0,0,1-.431-1.456V6.581h-1.347V5.6h1.347V3.813ZM283.083,13a2.657,2.657,0,0,1-.178-.779,2.822,2.822,0,0,1-2.105.916,2.611,2.611,0,0,1-1.794-.619,2,2,0,0,1-.7-1.569,2.091,2.091,0,0,1,.878-1.794,4.141,4.141,0,0,1,2.471-.639h1.23V7.935a1.42,1.42,0,0,0-.4-1.056,1.593,1.593,0,0,0-1.169-.393,1.844,1.844,0,0,0-1.135.342,1.007,1.007,0,0,0-.458.827h-1.271a1.745,1.745,0,0,1,.393-1.07,2.683,2.683,0,0,1,1.066-.817,3.588,3.588,0,0,1,1.48-.3,2.924,2.924,0,0,1,2,.639,2.306,2.306,0,0,1,.752,1.76v3.4a4.162,4.162,0,0,0,.26,1.62V13Zm-2.1-.964a2.223,2.223,0,0,0,1.128-.308,1.861,1.861,0,0,0,.772-.8V9.411h-.991q-2.324,0-2.324,1.36a1.151,1.151,0,0,0,.4.93A1.524,1.524,0,0,0,280.984,12.036Zm4.84-2.8a4.333,4.333,0,0,1,.807-2.738,2.745,2.745,0,0,1,4.17-.147V2.5h1.265V13H290.9l-.062-.793a2.575,2.575,0,0,1-2.112.93,2.526,2.526,0,0,1-2.1-1.053,4.382,4.382,0,0,1-.81-2.748Zm1.265.144a3.281,3.281,0,0,0,.52,1.969,1.68,1.68,0,0,0,1.436.711,1.845,1.845,0,0,0,1.757-1.08v-3.4a1.859,1.859,0,0,0-1.743-1.046,1.687,1.687,0,0,0-1.449.718A3.612,3.612,0,0,0,287.089,9.384Z" transform="translate(-12238.23 -3660.048)" fill="#12263f"/>
  </g>
</svg>
