<svg xmlns="http://www.w3.org/2000/svg" width="505" height="303" viewBox="0 0 505 303">
  <g id="Grupo_1072681" data-name="Grupo 1072681" transform="translate(11744 3660.496)">
    <g id="Grupo_1070900" data-name="Grupo 1070900" transform="translate(-11694.563 -3642.866)">
      <g id="Grupo_1070897" data-name="Grupo 1070897" transform="translate(43 11.923)">
        <path id="Trazado_815773" data-name="Trazado 815773" d="M-13621-3632.268h381.563" transform="translate(13621 3632.268)" fill="none" stroke="#707070" stroke-width="1" stroke-dasharray="3"/>
        <path id="Trazado_815774" data-name="Trazado 815774" d="M-13621-3632.268h381.563" transform="translate(13621 3676.41)" fill="none" stroke="#707070" stroke-width="1" stroke-dasharray="3"/>
        <path id="Trazado_815775" data-name="Trazado 815775" d="M-13621-3632.268h381.563" transform="translate(13621 3719.703)" fill="none" stroke="#707070" stroke-width="1" stroke-dasharray="3"/>
        <path id="Trazado_815776" data-name="Trazado 815776" d="M-13621-3632.268h381.563" transform="translate(13621 3763.845)" fill="none" stroke="#707070" stroke-width="1" stroke-dasharray="3"/>
        <path id="Trazado_815777" data-name="Trazado 815777" d="M-13621-3632.268h381.563" transform="translate(13621 3807.139)" fill="none" stroke="#707070" stroke-width="1" stroke-dasharray="3"/>
        <path id="Trazado_815778" data-name="Trazado 815778" d="M-13621-3632.268h381.563" transform="translate(13621 3851.281)" fill="none" stroke="#707070" stroke-width="1" stroke-dasharray="3"/>
      </g>
      <text id="_0_" data-name="0%" transform="translate(25 238.523)" fill="#12263f" font-size="13" font-family="Roboto-Bold, Roboto" font-weight="700"><tspan x="-8.528" y="0">0%</tspan></text>
      <text id="Psicología" transform="translate(78 249.31)" fill="#12263f" font-size="13" font-family="Roboto-Bold, Roboto" font-weight="700"><tspan x="-30.697" y="0">Psicología</tspan></text>
      <text id="Medicina" transform="translate(171.298 249.31)" fill="#12263f" font-size="13" font-family="Roboto-Bold, Roboto" font-weight="700"><tspan x="-26.832" y="0">Medicina</tspan></text>
      <text id="Economía" transform="translate(261.517 249.31)" fill="#12263f" font-size="13" font-family="Roboto-Bold, Roboto" font-weight="700"><tspan x="-28.869" y="0">Economía</tspan></text>
      <text id="Finanzas" transform="translate(354.31 249.31)" fill="#12263f" font-size="13" font-family="Roboto-Bold, Roboto" font-weight="700"><tspan x="-26.184" y="0">Finanzas</tspan></text>
      <text id="_20_" data-name="20%" transform="translate(20 188.512)" fill="#12263f" font-size="13" font-family="Roboto-Bold, Roboto" font-weight="700"><tspan x="-12.257" y="0">20%</tspan></text>
      <text id="_60_" data-name="60%" transform="translate(20 98.295)" fill="#12263f" font-size="13" font-family="Roboto-Bold, Roboto" font-weight="700"><tspan x="-12.257" y="0">60%</tspan></text>
      <text id="_40_" data-name="40%" transform="translate(20 143.403)" fill="#12263f" font-size="13" font-family="Roboto-Bold, Roboto" font-weight="700"><tspan x="-12.257" y="0">40%</tspan></text>
      <text id="_80_" data-name="80%" transform="translate(20 55.147)" fill="#12263f" font-size="13" font-family="Roboto-Bold, Roboto" font-weight="700"><tspan x="-12.257" y="0">80%</tspan></text>
      <text id="_100_" data-name="100%" transform="translate(16 12)" fill="#12263f" font-size="13" font-family="Roboto-Bold, Roboto" font-weight="700"><tspan x="-15.987" y="0">100%</tspan></text>
      <g id="Rectángulo_376072" data-name="Rectángulo 376072" transform="translate(344.31 11.767)" fill="#448502" stroke="#707070" stroke-width="1">
        <rect width="24" height="219.659" stroke="none"/>
        <rect x="0.5" y="0.5" width="23" height="218.659" fill="none"/>
      </g>
      <g id="Rectángulo_376073" data-name="Rectángulo 376073" transform="translate(251.373 11.767)" fill="#448502" stroke="#707070" stroke-width="1">
        <rect width="24" height="219.659" stroke="none"/>
        <rect x="0.5" y="0.5" width="23" height="218.659" fill="none"/>
      </g>
      <g id="Rectángulo_376074" data-name="Rectángulo 376074" transform="translate(161.597 11.767)" fill="#448502" stroke="#707070" stroke-width="1">
        <rect width="24" height="219.659" stroke="none"/>
        <rect x="0.5" y="0.5" width="23" height="218.659" fill="none"/>
      </g>
      <g id="Rectángulo_376075" data-name="Rectángulo 376075" transform="translate(71.821 11.767)" fill="#448502" stroke="#707070" stroke-width="1">
        <rect width="24" height="219.659" stroke="none"/>
        <rect x="0.5" y="0.5" width="23" height="218.659" fill="none"/>
      </g>
      <g id="Rectángulo_376076" data-name="Rectángulo 376076" transform="translate(344.31 154.938)" fill="#dbf9bd" stroke="#707070" stroke-width="1">
        <rect width="24" height="76.488" stroke="none"/>
        <rect x="0.5" y="0.5" width="23" height="75.488" fill="none"/>
      </g>
      <g id="Rectángulo_376077" data-name="Rectángulo 376077" transform="translate(251.373 148.074)" fill="#dbf9bd" stroke="#707070" stroke-width="1">
        <rect width="24" height="83.353" stroke="none"/>
        <rect x="0.5" y="0.5" width="23" height="82.353" fill="none"/>
      </g>
      <g id="Rectángulo_376078" data-name="Rectángulo 376078" transform="translate(161.597 59.818)" fill="#dbf9bd" stroke="#707070" stroke-width="1">
        <rect width="24" height="171.609" stroke="none"/>
        <rect x="0.5" y="0.5" width="23" height="170.609" fill="none"/>
      </g>
      <g id="Rectángulo_376079" data-name="Rectángulo 376079" transform="translate(71.821 131.403)" fill="#dbf9bd" stroke="#707070" stroke-width="1">
        <rect width="24" height="100.023" stroke="none"/>
        <rect x="0.5" y="0.5" width="23" height="99.023" fill="none"/>
      </g>
      <g id="Grupo_1070898" data-name="Grupo 1070898" transform="translate(132.533 259.865)">
        <text id="Hombres" transform="translate(46 12)" fill="#12263f" font-size="13" font-family="Roboto-Regular, Roboto"><tspan x="-26.619" y="0">Hombres</tspan></text>
        <g id="Rectángulo_376080" data-name="Rectángulo 376080" transform="translate(0 3.3)" fill="#dbf9bd" stroke="#707070" stroke-width="1">
          <rect width="11" height="10.787" stroke="none"/>
          <rect x="0.5" y="0.5" width="10" height="9.787" fill="none"/>
        </g>
      </g>
      <g id="Grupo_1070899" data-name="Grupo 1070899" transform="translate(234.432 259.865)">
        <text id="Mujeres" transform="translate(43 12)" fill="#12263f" font-size="13" font-family="Roboto-Regular, Roboto"><tspan x="-23.188" y="0">Mujeres</tspan></text>
        <g id="Rectángulo_376080-2" data-name="Rectángulo 376080" transform="translate(0 3.3)" fill="#3b5620" stroke="#707070" stroke-width="1">
          <rect width="11" height="10.787" stroke="none"/>
          <rect x="0.5" y="0.5" width="10" height="9.787" fill="none"/>
        </g>
      </g>
    </g>
    <path id="Trazado_819717" data-name="Trazado 819717" d="M6.781,8.4H2.468v3.527H7.479V13H1.155V3.047H7.41V4.12H2.468V7.326H6.781Zm6.439,2.639a.931.931,0,0,0-.386-.8,3.718,3.718,0,0,0-1.347-.489,6.367,6.367,0,0,1-1.524-.492,2.169,2.169,0,0,1-.834-.684,1.635,1.635,0,0,1-.27-.943A1.919,1.919,0,0,1,9.628,6.1a3,3,0,0,1,1.965-.629,3.091,3.091,0,0,1,2.041.649,2.063,2.063,0,0,1,.783,1.661H13.146a1.142,1.142,0,0,0-.441-.9,1.652,1.652,0,0,0-1.111-.376,1.729,1.729,0,0,0-1.08.3.947.947,0,0,0-.39.786.767.767,0,0,0,.362.69,4.458,4.458,0,0,0,1.309.444,6.821,6.821,0,0,1,1.535.506,2.239,2.239,0,0,1,.872.708,1.74,1.74,0,0,1,.284,1.008,1.893,1.893,0,0,1-.793,1.589,3.326,3.326,0,0,1-2.058.6,3.725,3.725,0,0,1-1.572-.314,2.557,2.557,0,0,1-1.07-.878,2.117,2.117,0,0,1-.386-1.22H9.871a1.309,1.309,0,0,0,.509,1.008,1.976,1.976,0,0,0,1.254.373,2.039,2.039,0,0,0,1.152-.291A.893.893,0,0,0,13.221,11.038Zm4.628-7.226V5.6h1.381v.978H17.849v4.593a1.027,1.027,0,0,0,.185.667.777.777,0,0,0,.629.222,3.062,3.062,0,0,0,.6-.082V13a3.688,3.688,0,0,1-.971.136,1.575,1.575,0,0,1-1.278-.513,2.2,2.2,0,0,1-.431-1.456V6.581H15.237V5.6h1.347V3.813Zm7.424,8.456a2.686,2.686,0,0,1-2.167.868,2.3,2.3,0,0,1-1.8-.687,2.974,2.974,0,0,1-.625-2.034V5.6h1.265v4.778q0,1.682,1.367,1.682a1.893,1.893,0,0,0,1.928-1.08V5.6H26.5V13H25.3ZM28.116,9.24A4.333,4.333,0,0,1,28.923,6.5a2.745,2.745,0,0,1,4.17-.147V2.5h1.265V13H33.2l-.062-.793a2.575,2.575,0,0,1-2.112.93,2.526,2.526,0,0,1-2.1-1.053,4.382,4.382,0,0,1-.81-2.748Zm1.265.144a3.281,3.281,0,0,0,.52,1.969,1.68,1.68,0,0,0,1.436.711,1.845,1.845,0,0,0,1.757-1.08v-3.4A1.859,1.859,0,0,0,31.35,6.54a1.687,1.687,0,0,0-1.449.718A3.612,3.612,0,0,0,29.381,9.384ZM37.693,13H36.429V5.6h1.265ZM36.326,3.642a.755.755,0,0,1,.188-.52.706.706,0,0,1,.557-.212.717.717,0,0,1,.561.212.747.747,0,0,1,.191.52.722.722,0,0,1-.191.513.73.73,0,0,1-.561.205.718.718,0,0,1-.557-.205A.73.73,0,0,1,36.326,3.642ZM44.283,13a2.657,2.657,0,0,1-.178-.779A2.822,2.822,0,0,1,42,13.137a2.611,2.611,0,0,1-1.794-.619,2,2,0,0,1-.7-1.569,2.091,2.091,0,0,1,.878-1.794,4.142,4.142,0,0,1,2.471-.639h1.23V7.935a1.42,1.42,0,0,0-.4-1.056,1.593,1.593,0,0,0-1.169-.393,1.844,1.844,0,0,0-1.135.342,1.007,1.007,0,0,0-.458.827H39.655a1.745,1.745,0,0,1,.393-1.07,2.683,2.683,0,0,1,1.066-.817,3.588,3.588,0,0,1,1.48-.3,2.924,2.924,0,0,1,2,.639,2.306,2.306,0,0,1,.752,1.76v3.4a4.162,4.162,0,0,0,.26,1.62V13Zm-2.1-.964a2.223,2.223,0,0,0,1.128-.308,1.861,1.861,0,0,0,.772-.8V9.411h-.991q-2.324,0-2.324,1.36a1.151,1.151,0,0,0,.4.93A1.524,1.524,0,0,0,42.185,12.036ZM48.528,5.6l.041.93a2.7,2.7,0,0,1,2.215-1.066q2.345,0,2.365,2.646V13H51.885V8.105a1.7,1.7,0,0,0-.366-1.183A1.466,1.466,0,0,0,50.4,6.54a1.825,1.825,0,0,0-1.08.328,2.228,2.228,0,0,0-.725.861V13H47.332V5.6Zm8.244-1.791V5.6h1.381v.978H56.772v4.593a1.027,1.027,0,0,0,.185.667.777.777,0,0,0,.629.222,3.062,3.062,0,0,0,.6-.082V13a3.688,3.688,0,0,1-.971.136,1.575,1.575,0,0,1-1.278-.513,2.2,2.2,0,0,1-.431-1.456V6.581H54.161V5.6h1.347V3.813ZM62.7,13.137a3.232,3.232,0,0,1-2.447-.988,3.666,3.666,0,0,1-.943-2.642V9.274a4.438,4.438,0,0,1,.42-1.965A3.28,3.28,0,0,1,60.9,5.956a2.956,2.956,0,0,1,1.637-.489,2.77,2.77,0,0,1,2.242.95,4.114,4.114,0,0,1,.8,2.721v.526H60.573a2.629,2.629,0,0,0,.639,1.767,2.009,2.009,0,0,0,1.555.673,2.2,2.2,0,0,0,1.135-.273,2.851,2.851,0,0,0,.813-.725l.772.6A3.106,3.106,0,0,1,62.7,13.137Zm-.157-6.631a1.687,1.687,0,0,0-1.285.557,2.708,2.708,0,0,0-.643,1.562h3.705v-.1a2.409,2.409,0,0,0-.52-1.494A1.588,1.588,0,0,0,62.542,6.506Zm8.812,4.532a.931.931,0,0,0-.386-.8,3.718,3.718,0,0,0-1.347-.489A6.367,6.367,0,0,1,68.1,9.261a2.169,2.169,0,0,1-.834-.684,1.635,1.635,0,0,1-.27-.943A1.919,1.919,0,0,1,67.761,6.1a3,3,0,0,1,1.965-.629,3.091,3.091,0,0,1,2.041.649,2.063,2.063,0,0,1,.783,1.661H71.278a1.142,1.142,0,0,0-.441-.9,1.652,1.652,0,0,0-1.111-.376,1.729,1.729,0,0,0-1.08.3.947.947,0,0,0-.39.786.767.767,0,0,0,.362.69,4.458,4.458,0,0,0,1.309.444,6.821,6.821,0,0,1,1.535.506,2.239,2.239,0,0,1,.872.708,1.74,1.74,0,0,1,.284,1.008,1.893,1.893,0,0,1-.793,1.589,3.326,3.326,0,0,1-2.058.6,3.725,3.725,0,0,1-1.572-.314,2.557,2.557,0,0,1-1.07-.878,2.117,2.117,0,0,1-.386-1.22H68a1.309,1.309,0,0,0,.509,1.008,1.976,1.976,0,0,0,1.254.373,2.039,2.039,0,0,0,1.152-.291A.893.893,0,0,0,71.354,11.038ZM83.979,9.384a4.429,4.429,0,0,1-.772,2.721,2.476,2.476,0,0,1-2.092,1.032A2.713,2.713,0,0,1,79,12.282v3.562H77.731V5.6h1.155l.062.82a2.605,2.605,0,0,1,2.146-.957,2.522,2.522,0,0,1,2.109,1,4.477,4.477,0,0,1,.776,2.8ZM82.715,9.24a3.268,3.268,0,0,0-.533-1.976,1.718,1.718,0,0,0-1.463-.725A1.859,1.859,0,0,0,79,7.559v3.534A1.863,1.863,0,0,0,80.732,12.1a1.71,1.71,0,0,0,1.446-.721A3.567,3.567,0,0,0,82.715,9.24Zm2.536-.007a4.369,4.369,0,0,1,.427-1.955,3.187,3.187,0,0,1,1.189-1.34,3.238,3.238,0,0,1,1.74-.472,3.119,3.119,0,0,1,2.444,1.046,4.024,4.024,0,0,1,.933,2.782v.089a4.407,4.407,0,0,1-.414,1.938,3.14,3.14,0,0,1-1.183,1.336,3.275,3.275,0,0,1-1.767.479,3.111,3.111,0,0,1-2.437-1.046,4,4,0,0,1-.933-2.769Zm1.271.15a3.164,3.164,0,0,0,.571,1.976,1.934,1.934,0,0,0,3.059-.01,3.46,3.46,0,0,0,.567-2.116,3.159,3.159,0,0,0-.578-1.972,1.836,1.836,0,0,0-1.535-.755,1.816,1.816,0,0,0-1.511.745A3.435,3.435,0,0,0,86.522,9.384ZM97.146,6.738a3.79,3.79,0,0,0-.622-.048,1.667,1.667,0,0,0-1.688,1.06V13H93.57V5.6H94.8l.021.854a1.969,1.969,0,0,1,1.764-.991,1.292,1.292,0,0,1,.561.1Zm4.327,2.5a4.347,4.347,0,0,1,.8-2.751,2.757,2.757,0,0,1,4.231-.065l.062-.82h1.155v7.219a3.009,3.009,0,0,1-.851,2.263,3.141,3.141,0,0,1-2.287.827,3.8,3.8,0,0,1-1.565-.342,2.7,2.7,0,0,1-1.169-.937l.656-.759a2.473,2.473,0,0,0,1.989,1,1.938,1.938,0,0,0,1.439-.52,1.986,1.986,0,0,0,.516-1.463v-.636a2.6,2.6,0,0,1-2.071.875,2.527,2.527,0,0,1-2.1-1.046A4.571,4.571,0,0,1,101.473,9.24Zm1.271.144a3.316,3.316,0,0,0,.513,1.965,1.666,1.666,0,0,0,1.436.714,1.852,1.852,0,0,0,1.757-1.087V7.6a1.874,1.874,0,0,0-1.743-1.06,1.681,1.681,0,0,0-1.442.718A3.612,3.612,0,0,0,102.744,9.384Zm9.953,3.753a3.232,3.232,0,0,1-2.447-.988,3.666,3.666,0,0,1-.943-2.642V9.274a4.438,4.438,0,0,1,.42-1.965A3.28,3.28,0,0,1,110.9,5.956a2.956,2.956,0,0,1,1.637-.489,2.77,2.77,0,0,1,2.242.95,4.114,4.114,0,0,1,.8,2.721v.526h-5.011a2.629,2.629,0,0,0,.639,1.767,2.009,2.009,0,0,0,1.555.673,2.2,2.2,0,0,0,1.135-.273,2.851,2.851,0,0,0,.813-.725l.772.6A3.106,3.106,0,0,1,112.7,13.137Zm-.157-6.631a1.687,1.687,0,0,0-1.285.557,2.708,2.708,0,0,0-.643,1.562h3.705v-.1a2.409,2.409,0,0,0-.52-1.494A1.588,1.588,0,0,0,112.54,6.506Zm.615-4.006h1.531l-1.832,2.01-1.019,0Zm5.086,3.1.041.93A2.7,2.7,0,0,1,120.5,5.467q2.345,0,2.365,2.646V13H121.6V8.105a1.7,1.7,0,0,0-.366-1.183,1.466,1.466,0,0,0-1.118-.383,1.825,1.825,0,0,0-1.08.328,2.228,2.228,0,0,0-.725.861V13h-1.265V5.6Zm9.6,7.533a3.232,3.232,0,0,1-2.447-.988,3.666,3.666,0,0,1-.943-2.642V9.274a4.438,4.438,0,0,1,.42-1.965,3.28,3.28,0,0,1,1.176-1.354,2.956,2.956,0,0,1,1.637-.489,2.77,2.77,0,0,1,2.242.95,4.114,4.114,0,0,1,.8,2.721v.526h-5.011a2.629,2.629,0,0,0,.639,1.767,2.009,2.009,0,0,0,1.555.673,2.2,2.2,0,0,0,1.135-.273,2.851,2.851,0,0,0,.813-.725l.772.6A3.106,3.106,0,0,1,127.839,13.137Zm-.157-6.631a1.687,1.687,0,0,0-1.285.557,2.708,2.708,0,0,0-.643,1.562h3.705v-.1a2.409,2.409,0,0,0-.52-1.494A1.588,1.588,0,0,0,127.682,6.506Zm8.08.232a3.79,3.79,0,0,0-.622-.048,1.667,1.667,0,0,0-1.688,1.06V13h-1.265V5.6h1.23l.021.854a1.969,1.969,0,0,1,1.764-.991,1.292,1.292,0,0,1,.561.1Zm.69,2.5a4.369,4.369,0,0,1,.427-1.955,3.187,3.187,0,0,1,1.189-1.34,3.238,3.238,0,0,1,1.74-.472,3.119,3.119,0,0,1,2.444,1.046,4.024,4.024,0,0,1,.933,2.782v.089a4.407,4.407,0,0,1-.414,1.938,3.14,3.14,0,0,1-1.183,1.336,3.275,3.275,0,0,1-1.767.479,3.111,3.111,0,0,1-2.437-1.046,4,4,0,0,1-.933-2.769Zm1.271.15a3.164,3.164,0,0,0,.571,1.976,1.934,1.934,0,0,0,3.059-.01,3.46,3.46,0,0,0,.567-2.116,3.159,3.159,0,0,0-.578-1.972,1.836,1.836,0,0,0-1.535-.755,1.816,1.816,0,0,0-1.511.745A3.435,3.435,0,0,0,137.724,9.384Zm13.583,3.753a3.232,3.232,0,0,1-2.447-.988,3.666,3.666,0,0,1-.943-2.642V9.274a4.438,4.438,0,0,1,.42-1.965,3.279,3.279,0,0,1,1.176-1.354,2.956,2.956,0,0,1,1.637-.489,2.77,2.77,0,0,1,2.242.95,4.114,4.114,0,0,1,.8,2.721v.526h-5.011a2.629,2.629,0,0,0,.639,1.767,2.009,2.009,0,0,0,1.555.673,2.2,2.2,0,0,0,1.135-.273,2.851,2.851,0,0,0,.813-.725l.772.6A3.106,3.106,0,0,1,151.307,13.137Zm-.157-6.631a1.687,1.687,0,0,0-1.285.557,2.708,2.708,0,0,0-.643,1.562h3.705v-.1a2.409,2.409,0,0,0-.52-1.494A1.588,1.588,0,0,0,151.149,6.506Zm5.7-.9.041.93a2.7,2.7,0,0,1,2.215-1.066q2.345,0,2.365,2.646V13h-1.265V8.105a1.7,1.7,0,0,0-.366-1.183,1.466,1.466,0,0,0-1.118-.383,1.825,1.825,0,0,0-1.08.328,2.228,2.228,0,0,0-.725.861V13h-1.265V5.6Zm12.961,6.5a1.822,1.822,0,0,0,1.183-.41,1.443,1.443,0,0,0,.561-1.025h1.2a2.293,2.293,0,0,1-.437,1.21,2.881,2.881,0,0,1-1.077.916,3.107,3.107,0,0,1-1.425.342,3.047,3.047,0,0,1-2.4-1.008,4.016,4.016,0,0,1-.892-2.758V9.158a4.453,4.453,0,0,1,.4-1.921,3.02,3.02,0,0,1,1.138-1.306,3.233,3.233,0,0,1,1.753-.465,2.966,2.966,0,0,1,2.068.745,2.663,2.663,0,0,1,.878,1.935h-1.2a1.743,1.743,0,0,0-.543-1.179,1.691,1.691,0,0,0-1.207-.461,1.77,1.77,0,0,0-1.494.694,3.259,3.259,0,0,0-.53,2.006v.239a3.194,3.194,0,0,0,.526,1.969A1.779,1.779,0,0,0,169.812,12.1Zm8.928.9a2.657,2.657,0,0,1-.178-.779,2.822,2.822,0,0,1-2.105.916,2.611,2.611,0,0,1-1.794-.619,2,2,0,0,1-.7-1.569,2.091,2.091,0,0,1,.878-1.794,4.142,4.142,0,0,1,2.471-.639h1.23V7.935a1.42,1.42,0,0,0-.4-1.056,1.593,1.593,0,0,0-1.169-.393,1.844,1.844,0,0,0-1.135.342,1.007,1.007,0,0,0-.458.827h-1.271a1.745,1.745,0,0,1,.393-1.07,2.683,2.683,0,0,1,1.066-.817,3.588,3.588,0,0,1,1.48-.3,2.924,2.924,0,0,1,2,.639,2.306,2.306,0,0,1,.752,1.76v3.4a4.162,4.162,0,0,0,.26,1.62V13Zm-2.1-.964a2.223,2.223,0,0,0,1.128-.308,1.861,1.861,0,0,0,.772-.8V9.411h-.991q-2.324,0-2.324,1.36a1.151,1.151,0,0,0,.4.93A1.524,1.524,0,0,0,176.641,12.036Zm4.84-2.8a4.333,4.333,0,0,1,.807-2.738,2.745,2.745,0,0,1,4.17-.147V2.5h1.265V13H186.56l-.062-.793a2.575,2.575,0,0,1-2.112.93,2.526,2.526,0,0,1-2.1-1.053,4.382,4.382,0,0,1-.81-2.748Zm1.265.144a3.281,3.281,0,0,0,.52,1.969,1.68,1.68,0,0,0,1.436.711,1.845,1.845,0,0,0,1.757-1.08v-3.4a1.859,1.859,0,0,0-1.743-1.046,1.687,1.687,0,0,0-1.449.718A3.612,3.612,0,0,0,182.745,9.384ZM194.25,13a2.657,2.657,0,0,1-.178-.779,2.822,2.822,0,0,1-2.105.916,2.611,2.611,0,0,1-1.794-.619,2,2,0,0,1-.7-1.569,2.091,2.091,0,0,1,.878-1.794,4.142,4.142,0,0,1,2.471-.639h1.23V7.935a1.42,1.42,0,0,0-.4-1.056,1.593,1.593,0,0,0-1.169-.393,1.844,1.844,0,0,0-1.135.342,1.007,1.007,0,0,0-.458.827h-1.271a1.745,1.745,0,0,1,.393-1.07,2.683,2.683,0,0,1,1.066-.817,3.588,3.588,0,0,1,1.48-.3,2.924,2.924,0,0,1,2,.639,2.306,2.306,0,0,1,.752,1.76v3.4a4.162,4.162,0,0,0,.26,1.62V13Zm-2.1-.964a2.223,2.223,0,0,0,1.128-.308,1.861,1.861,0,0,0,.772-.8V9.411h-.991q-2.324,0-2.324,1.36a1.151,1.151,0,0,0,.4.93A1.524,1.524,0,0,0,192.151,12.036Zm11.58.068a1.822,1.822,0,0,0,1.183-.41,1.443,1.443,0,0,0,.561-1.025h1.2a2.293,2.293,0,0,1-.437,1.21,2.881,2.881,0,0,1-1.077.916,3.107,3.107,0,0,1-1.425.342,3.047,3.047,0,0,1-2.4-1.008,4.016,4.016,0,0,1-.892-2.758V9.158a4.453,4.453,0,0,1,.4-1.921,3.02,3.02,0,0,1,1.138-1.306,3.233,3.233,0,0,1,1.753-.465,2.966,2.966,0,0,1,2.068.745,2.663,2.663,0,0,1,.878,1.935h-1.2a1.743,1.743,0,0,0-.543-1.179,1.691,1.691,0,0,0-1.207-.461,1.77,1.77,0,0,0-1.494.694,3.259,3.259,0,0,0-.53,2.006v.239a3.194,3.194,0,0,0,.526,1.969A1.779,1.779,0,0,0,203.731,12.1Zm8.928.9a2.657,2.657,0,0,1-.178-.779,2.822,2.822,0,0,1-2.105.916,2.611,2.611,0,0,1-1.794-.619,2,2,0,0,1-.7-1.569,2.091,2.091,0,0,1,.878-1.794,4.142,4.142,0,0,1,2.471-.639h1.23V7.935a1.42,1.42,0,0,0-.4-1.056,1.593,1.593,0,0,0-1.169-.393,1.844,1.844,0,0,0-1.135.342,1.007,1.007,0,0,0-.458.827h-1.271a1.745,1.745,0,0,1,.393-1.07,2.683,2.683,0,0,1,1.066-.817,3.588,3.588,0,0,1,1.48-.3,2.924,2.924,0,0,1,2,.639,2.306,2.306,0,0,1,.752,1.76v3.4a4.162,4.162,0,0,0,.26,1.62V13Zm-2.1-.964a2.223,2.223,0,0,0,1.128-.308,1.861,1.861,0,0,0,.772-.8V9.411h-.991q-2.324,0-2.324,1.36a1.151,1.151,0,0,0,.4.93A1.524,1.524,0,0,0,210.561,12.036Zm8.723-5.3a3.79,3.79,0,0,0-.622-.048,1.667,1.667,0,0,0-1.688,1.06V13h-1.265V5.6h1.23l.021.854a1.969,1.969,0,0,1,1.764-.991,1.292,1.292,0,0,1,.561.1Zm4.737,0a3.79,3.79,0,0,0-.622-.048,1.667,1.667,0,0,0-1.688,1.06V13h-1.265V5.6h1.23l.021.854a1.969,1.969,0,0,1,1.764-.991,1.292,1.292,0,0,1,.561.1Zm4.1,6.4a3.232,3.232,0,0,1-2.447-.988,3.666,3.666,0,0,1-.943-2.642V9.274a4.438,4.438,0,0,1,.42-1.965,3.279,3.279,0,0,1,1.176-1.354,2.956,2.956,0,0,1,1.637-.489,2.77,2.77,0,0,1,2.242.95,4.114,4.114,0,0,1,.8,2.721v.526H226a2.629,2.629,0,0,0,.639,1.767,2.009,2.009,0,0,0,1.555.673,2.2,2.2,0,0,0,1.135-.273,2.851,2.851,0,0,0,.813-.725l.772.6A3.106,3.106,0,0,1,228.122,13.137Zm-.157-6.631a1.687,1.687,0,0,0-1.285.557,2.708,2.708,0,0,0-.643,1.562h3.705v-.1a2.409,2.409,0,0,0-.52-1.494A1.588,1.588,0,0,0,227.965,6.506Zm8.08.232a3.79,3.79,0,0,0-.622-.048,1.667,1.667,0,0,0-1.688,1.06V13H232.47V5.6h1.23l.021.854a1.969,1.969,0,0,1,1.764-.991,1.292,1.292,0,0,1,.561.1ZM241.5,13a2.657,2.657,0,0,1-.178-.779,2.822,2.822,0,0,1-2.105.916,2.611,2.611,0,0,1-1.794-.619,2,2,0,0,1-.7-1.569,2.091,2.091,0,0,1,.878-1.794,4.142,4.142,0,0,1,2.471-.639h1.23V7.935a1.42,1.42,0,0,0-.4-1.056,1.593,1.593,0,0,0-1.169-.393,1.844,1.844,0,0,0-1.135.342,1.007,1.007,0,0,0-.458.827h-1.271a1.745,1.745,0,0,1,.393-1.07,2.683,2.683,0,0,1,1.066-.817,3.588,3.588,0,0,1,1.48-.3,2.924,2.924,0,0,1,2,.639,2.306,2.306,0,0,1,.752,1.76v3.4a4.162,4.162,0,0,0,.26,1.62V13Zm-2.1-.964a2.223,2.223,0,0,0,1.128-.308,1.861,1.861,0,0,0,.772-.8V9.411h-.991q-2.324,0-2.324,1.36a1.151,1.151,0,0,0,.4.93A1.524,1.524,0,0,0,239.4,12.036Z" transform="translate(-11596.344 -3652.672)" fill="#12263f"/>
    <path id="Trazado_819718" data-name="Trazado 819718" d="M0,0H505V303H0Z" transform="translate(-11744 -3660.496)" fill="none"/>
  </g>
</svg>
