<svg xmlns="http://www.w3.org/2000/svg" width="505" height="323" viewBox="0 0 505 323">
  <g id="Grupo_1072682" data-name="Grupo 1072682" transform="translate(10606 3724.496)">
    <g id="Grupo_1070894" data-name="Grupo 1070894" transform="translate(-10554.859 -3676.665)">
      <path id="Trazado_815773" data-name="Trazado 815773" d="M-13621-3632.268h445.461" transform="translate(13620.999 3687.598)" fill="none" stroke="#707070" stroke-width="1" stroke-dasharray="3"/>
      <path id="Trazado_815779" data-name="Trazado 815779" d="M-13621-3632.268h445.461" transform="translate(13620.999 3660.201)" fill="none" stroke="#707070" stroke-width="1" stroke-dasharray="3"/>
      <path id="Trazado_815780" data-name="Trazado 815780" d="M-13621-3632.268h445.461" transform="translate(13620.999 3632.268)" fill="none" stroke="#707070" stroke-width="1" stroke-dasharray="3"/>
      <path id="Trazado_815774" data-name="Trazado 815774" d="M-13621-3632.268h445.461" transform="translate(13620.999 3715.531)" fill="none" stroke="#707070" stroke-width="1" stroke-dasharray="3"/>
      <path id="Trazado_815775" data-name="Trazado 815775" d="M-13621-3632.268h445.461" transform="translate(13620.999 3742.928)" fill="none" stroke="#707070" stroke-width="1" stroke-dasharray="3"/>
      <path id="Trazado_815776" data-name="Trazado 815776" d="M-13621-3632.268h445.461" transform="translate(13620.999 3770.861)" fill="none" stroke="#707070" stroke-width="1" stroke-dasharray="3"/>
      <path id="Trazado_815777" data-name="Trazado 815777" d="M-13621-3632.268h445.461" transform="translate(13620.999 3798.258)" fill="none" stroke="#707070" stroke-width="1" stroke-dasharray="3"/>
      <path id="Trazado_815778" data-name="Trazado 815778" d="M-13621-3632.268h445.461" transform="translate(13620.999 3826.191)" fill="none" stroke="#707070" stroke-width="1" stroke-dasharray="3"/>
    </g>
    <path id="Trazado_819720" data-name="Trazado 819720" d="M-6.457-3.527A4.322,4.322,0,0,1-7.189-.82,2.557,2.557,0,0,1-9.334.117,2.574,2.574,0,0,1-11.467-.8a4.2,4.2,0,0,1-.756-2.637V-5.01a4.265,4.265,0,0,1,.741-2.713,2.576,2.576,0,0,1,2.136-.926,2.578,2.578,0,0,1,2.133.917A4.182,4.182,0,0,1-6.457-5.1ZM-8.15-5.254A3.124,3.124,0,0,0-8.44-6.8a.98.98,0,0,0-.905-.484.963.963,0,0,0-.882.46,2.924,2.924,0,0,0-.3,1.44v2.076a3.279,3.279,0,0,0,.284,1.551.967.967,0,0,0,.911.507.951.951,0,0,0,.9-.487,3.2,3.2,0,0,0,.287-1.49ZM-4.8,2.139l-.885-.463.211-.381a3.044,3.044,0,0,0,.4-1.424V-1.441h1.43L-3.65-.27a3.044,3.044,0,0,1-.328,1.313A3.365,3.365,0,0,1-4.8,2.139ZM3.357-3.527A4.322,4.322,0,0,1,2.625-.82,2.557,2.557,0,0,1,.48.117,2.574,2.574,0,0,1-1.652-.8a4.2,4.2,0,0,1-.756-2.637V-5.01a4.265,4.265,0,0,1,.741-2.713A2.576,2.576,0,0,1,.469-8.648,2.578,2.578,0,0,1,2.6-7.731,4.182,4.182,0,0,1,3.357-5.1ZM1.664-5.254A3.124,3.124,0,0,0,1.374-6.8a.98.98,0,0,0-.905-.484.963.963,0,0,0-.882.46,2.924,2.924,0,0,0-.3,1.44v2.076A3.279,3.279,0,0,0-.431-1.755a.967.967,0,0,0,.911.507.951.951,0,0,0,.9-.487,3.2,3.2,0,0,0,.287-1.49ZM4.477-6.891a1.687,1.687,0,0,1,.51-1.274,1.849,1.849,0,0,1,1.336-.489,1.878,1.878,0,0,1,1.348.483,1.719,1.719,0,0,1,.51,1.31v.422a1.665,1.665,0,0,1-.51,1.271,1.868,1.868,0,0,1-1.336.48,1.88,1.88,0,0,1-1.345-.483,1.706,1.706,0,0,1-.513-1.3ZM5.6-6.439a.789.789,0,0,0,.2.565.7.7,0,0,0,.53.214.664.664,0,0,0,.521-.217.839.839,0,0,0,.193-.58v-.434a.822.822,0,0,0-.193-.568.678.678,0,0,0-.533-.217.68.68,0,0,0-.521.214.839.839,0,0,0-.2.595ZM8.555-2.092A1.665,1.665,0,0,1,9.07-3.366a1.875,1.875,0,0,1,1.336-.483,1.894,1.894,0,0,1,1.345.478,1.71,1.71,0,0,1,.513,1.315v.422a1.678,1.678,0,0,1-.5,1.269,1.857,1.857,0,0,1-1.342.483A1.879,1.879,0,0,1,9.064-.369a1.7,1.7,0,0,1-.51-1.289Zm1.125.457a.783.783,0,0,0,.211.551.688.688,0,0,0,.527.229q.715,0,.715-.791v-.445a.8.8,0,0,0-.2-.565.687.687,0,0,0-.527-.214.687.687,0,0,0-.527.214.822.822,0,0,0-.2.583Zm-3.012,1-.826-.445,4.166-6.668.826.445Z" transform="translate(-10578.6 -3479.548)" fill="#12263f"/>
    <path id="Trazado_819721" data-name="Trazado 819721" d="M-8.086,0H-9.779V-6.527L-11.8-5.9V-7.277l3.533-1.266h.182ZM-4.8,2.139l-.885-.463.211-.381a3.044,3.044,0,0,0,.4-1.424V-1.441h1.43L-3.65-.27a3.044,3.044,0,0,1-.328,1.313A3.365,3.365,0,0,1-4.8,2.139ZM3.357-3.527A4.322,4.322,0,0,1,2.625-.82,2.557,2.557,0,0,1,.48.117,2.574,2.574,0,0,1-1.652-.8a4.2,4.2,0,0,1-.756-2.637V-5.01a4.265,4.265,0,0,1,.741-2.713A2.576,2.576,0,0,1,.469-8.648,2.578,2.578,0,0,1,2.6-7.731,4.182,4.182,0,0,1,3.357-5.1ZM1.664-5.254A3.124,3.124,0,0,0,1.374-6.8a.98.98,0,0,0-.905-.484.963.963,0,0,0-.882.46,2.924,2.924,0,0,0-.3,1.44v2.076A3.279,3.279,0,0,0-.431-1.755a.967.967,0,0,0,.911.507.951.951,0,0,0,.9-.487,3.2,3.2,0,0,0,.287-1.49ZM4.477-6.891a1.687,1.687,0,0,1,.51-1.274,1.849,1.849,0,0,1,1.336-.489,1.878,1.878,0,0,1,1.348.483,1.719,1.719,0,0,1,.51,1.31v.422a1.665,1.665,0,0,1-.51,1.271,1.868,1.868,0,0,1-1.336.48,1.88,1.88,0,0,1-1.345-.483,1.706,1.706,0,0,1-.513-1.3ZM5.6-6.439a.789.789,0,0,0,.2.565.7.7,0,0,0,.53.214.664.664,0,0,0,.521-.217.839.839,0,0,0,.193-.58v-.434a.822.822,0,0,0-.193-.568.678.678,0,0,0-.533-.217.68.68,0,0,0-.521.214.839.839,0,0,0-.2.595ZM8.555-2.092A1.665,1.665,0,0,1,9.07-3.366a1.875,1.875,0,0,1,1.336-.483,1.894,1.894,0,0,1,1.345.478,1.71,1.71,0,0,1,.513,1.315v.422a1.678,1.678,0,0,1-.5,1.269,1.857,1.857,0,0,1-1.342.483A1.879,1.879,0,0,1,9.064-.369a1.7,1.7,0,0,1-.51-1.289Zm1.125.457a.783.783,0,0,0,.211.551.688.688,0,0,0,.527.229q.715,0,.715-.791v-.445a.8.8,0,0,0-.2-.565.687.687,0,0,0-.527-.214.687.687,0,0,0-.527.214.822.822,0,0,0-.2.583Zm-3.012,1-.826-.445,4.166-6.668.826.445Z" transform="translate(-10578.6 -3511.695)" fill="#12263f"/>
    <path id="Trazado_819722" data-name="Trazado 819722" d="M-6.352,0H-12.2V-1.16L-9.439-4.1A6.808,6.808,0,0,0-8.6-5.186a1.742,1.742,0,0,0,.272-.879,1.3,1.3,0,0,0-.287-.894,1.036,1.036,0,0,0-.82-.325,1.118,1.118,0,0,0-.905.4,1.567,1.567,0,0,0-.331,1.04h-1.7A2.8,2.8,0,0,1-12-7.271a2.622,2.622,0,0,1,1.052-1.011A3.2,3.2,0,0,1-9.4-8.648a3.027,3.027,0,0,1,2.048.633,2.239,2.239,0,0,1,.729,1.787,2.868,2.868,0,0,1-.328,1.289A7.164,7.164,0,0,1-8.08-3.41L-10.02-1.365h3.668ZM-4.8,2.139l-.885-.463.211-.381a3.044,3.044,0,0,0,.4-1.424V-1.441h1.43L-3.65-.27a3.044,3.044,0,0,1-.328,1.313A3.365,3.365,0,0,1-4.8,2.139ZM3.357-3.527A4.322,4.322,0,0,1,2.625-.82,2.557,2.557,0,0,1,.48.117,2.574,2.574,0,0,1-1.652-.8a4.2,4.2,0,0,1-.756-2.637V-5.01a4.265,4.265,0,0,1,.741-2.713A2.576,2.576,0,0,1,.469-8.648,2.578,2.578,0,0,1,2.6-7.731,4.182,4.182,0,0,1,3.357-5.1ZM1.664-5.254A3.124,3.124,0,0,0,1.374-6.8a.98.98,0,0,0-.905-.484.963.963,0,0,0-.882.46,2.924,2.924,0,0,0-.3,1.44v2.076A3.279,3.279,0,0,0-.431-1.755a.967.967,0,0,0,.911.507.951.951,0,0,0,.9-.487,3.2,3.2,0,0,0,.287-1.49ZM4.477-6.891a1.687,1.687,0,0,1,.51-1.274,1.849,1.849,0,0,1,1.336-.489,1.878,1.878,0,0,1,1.348.483,1.719,1.719,0,0,1,.51,1.31v.422a1.665,1.665,0,0,1-.51,1.271,1.868,1.868,0,0,1-1.336.48,1.88,1.88,0,0,1-1.345-.483,1.706,1.706,0,0,1-.513-1.3ZM5.6-6.439a.789.789,0,0,0,.2.565.7.7,0,0,0,.53.214.664.664,0,0,0,.521-.217.839.839,0,0,0,.193-.58v-.434a.822.822,0,0,0-.193-.568.678.678,0,0,0-.533-.217.68.68,0,0,0-.521.214.839.839,0,0,0-.2.595ZM8.555-2.092A1.665,1.665,0,0,1,9.07-3.366a1.875,1.875,0,0,1,1.336-.483,1.894,1.894,0,0,1,1.345.478,1.71,1.71,0,0,1,.513,1.315v.422a1.678,1.678,0,0,1-.5,1.269,1.857,1.857,0,0,1-1.342.483A1.879,1.879,0,0,1,9.064-.369a1.7,1.7,0,0,1-.51-1.289Zm1.125.457a.783.783,0,0,0,.211.551.688.688,0,0,0,.527.229q.715,0,.715-.791v-.445a.8.8,0,0,0-.2-.565.687.687,0,0,0-.527-.214.687.687,0,0,0-.527.214.822.822,0,0,0-.2.583Zm-3.012,1-.826-.445,4.166-6.668.826.445Z" transform="translate(-10578.6 -3540.168)" fill="#12263f"/>
    <path id="Trazado_819723" data-name="Trazado 819723" d="M-10.477-5.016h.9a1.271,1.271,0,0,0,.955-.322,1.181,1.181,0,0,0,.311-.855A1.044,1.044,0,0,0-8.616-7a1.192,1.192,0,0,0-.847-.287,1.25,1.25,0,0,0-.814.267.852.852,0,0,0-.328.694H-12.3a2.083,2.083,0,0,1,.36-1.2,2.4,2.4,0,0,1,1.008-.829,3.364,3.364,0,0,1,1.427-.3A3.19,3.19,0,0,1-7.383-8a2.209,2.209,0,0,1,.768,1.784,1.8,1.8,0,0,1-.357,1.078,2.322,2.322,0,0,1-.937.756,2.12,2.12,0,0,1,1.075.773A2.1,2.1,0,0,1-6.48-2.391,2.246,2.246,0,0,1-7.31-.568,3.334,3.334,0,0,1-9.5.117a3.161,3.161,0,0,1-2.089-.674A2.2,2.2,0,0,1-12.4-2.338h1.693a.981.981,0,0,0,.36.785,1.328,1.328,0,0,0,.888.3,1.334,1.334,0,0,0,.946-.319,1.1,1.1,0,0,0,.343-.847q0-1.277-1.406-1.277h-.9ZM-4.8,2.139l-.885-.463.211-.381a3.044,3.044,0,0,0,.4-1.424V-1.441h1.43L-3.65-.27a3.044,3.044,0,0,1-.328,1.313A3.365,3.365,0,0,1-4.8,2.139ZM3.357-3.527A4.322,4.322,0,0,1,2.625-.82,2.557,2.557,0,0,1,.48.117,2.574,2.574,0,0,1-1.652-.8a4.2,4.2,0,0,1-.756-2.637V-5.01a4.265,4.265,0,0,1,.741-2.713A2.576,2.576,0,0,1,.469-8.648,2.578,2.578,0,0,1,2.6-7.731,4.182,4.182,0,0,1,3.357-5.1ZM1.664-5.254A3.124,3.124,0,0,0,1.374-6.8a.98.98,0,0,0-.905-.484.963.963,0,0,0-.882.46,2.924,2.924,0,0,0-.3,1.44v2.076A3.279,3.279,0,0,0-.431-1.755a.967.967,0,0,0,.911.507.951.951,0,0,0,.9-.487,3.2,3.2,0,0,0,.287-1.49ZM4.477-6.891a1.687,1.687,0,0,1,.51-1.274,1.849,1.849,0,0,1,1.336-.489,1.878,1.878,0,0,1,1.348.483,1.719,1.719,0,0,1,.51,1.31v.422a1.665,1.665,0,0,1-.51,1.271,1.868,1.868,0,0,1-1.336.48,1.88,1.88,0,0,1-1.345-.483,1.706,1.706,0,0,1-.513-1.3ZM5.6-6.439a.789.789,0,0,0,.2.565.7.7,0,0,0,.53.214.664.664,0,0,0,.521-.217.839.839,0,0,0,.193-.58v-.434a.822.822,0,0,0-.193-.568.678.678,0,0,0-.533-.217.68.68,0,0,0-.521.214.839.839,0,0,0-.2.595ZM8.555-2.092A1.665,1.665,0,0,1,9.07-3.366a1.875,1.875,0,0,1,1.336-.483,1.894,1.894,0,0,1,1.345.478,1.71,1.71,0,0,1,.513,1.315v.422a1.678,1.678,0,0,1-.5,1.269,1.857,1.857,0,0,1-1.342.483A1.879,1.879,0,0,1,9.064-.369a1.7,1.7,0,0,1-.51-1.289Zm1.125.457a.783.783,0,0,0,.211.551.688.688,0,0,0,.527.229q.715,0,.715-.791v-.445a.8.8,0,0,0-.2-.565.687.687,0,0,0-.527-.214.687.687,0,0,0-.527.214.822.822,0,0,0-.2.583Zm-3.012,1-.826-.445,4.166-6.668.826.445Z" transform="translate(-10578.6 -3568.64)" fill="#12263f"/>
    <path id="Trazado_819724" data-name="Trazado 819724" d="M-7.189-3.211h.967v1.365h-.967V0H-8.883V-1.846h-3.5l-.076-1.066L-8.9-8.531h1.711Zm-3.58,0h1.887V-6.223l-.111.193ZM-4.8,2.139l-.885-.463.211-.381a3.044,3.044,0,0,0,.4-1.424V-1.441h1.43L-3.65-.27a3.044,3.044,0,0,1-.328,1.313A3.365,3.365,0,0,1-4.8,2.139ZM3.357-3.527A4.322,4.322,0,0,1,2.625-.82,2.557,2.557,0,0,1,.48.117,2.574,2.574,0,0,1-1.652-.8a4.2,4.2,0,0,1-.756-2.637V-5.01a4.265,4.265,0,0,1,.741-2.713A2.576,2.576,0,0,1,.469-8.648,2.578,2.578,0,0,1,2.6-7.731,4.182,4.182,0,0,1,3.357-5.1ZM1.664-5.254A3.124,3.124,0,0,0,1.374-6.8a.98.98,0,0,0-.905-.484.963.963,0,0,0-.882.46,2.924,2.924,0,0,0-.3,1.44v2.076A3.279,3.279,0,0,0-.431-1.755a.967.967,0,0,0,.911.507.951.951,0,0,0,.9-.487,3.2,3.2,0,0,0,.287-1.49ZM4.477-6.891a1.687,1.687,0,0,1,.51-1.274,1.849,1.849,0,0,1,1.336-.489,1.878,1.878,0,0,1,1.348.483,1.719,1.719,0,0,1,.51,1.31v.422a1.665,1.665,0,0,1-.51,1.271,1.868,1.868,0,0,1-1.336.48,1.88,1.88,0,0,1-1.345-.483,1.706,1.706,0,0,1-.513-1.3ZM5.6-6.439a.789.789,0,0,0,.2.565.7.7,0,0,0,.53.214.664.664,0,0,0,.521-.217.839.839,0,0,0,.193-.58v-.434a.822.822,0,0,0-.193-.568.678.678,0,0,0-.533-.217.68.68,0,0,0-.521.214.839.839,0,0,0-.2.595ZM8.555-2.092A1.665,1.665,0,0,1,9.07-3.366a1.875,1.875,0,0,1,1.336-.483,1.894,1.894,0,0,1,1.345.478,1.71,1.71,0,0,1,.513,1.315v.422a1.678,1.678,0,0,1-.5,1.269,1.857,1.857,0,0,1-1.342.483A1.879,1.879,0,0,1,9.064-.369a1.7,1.7,0,0,1-.51-1.289Zm1.125.457a.783.783,0,0,0,.211.551.688.688,0,0,0,.527.229q.715,0,.715-.791v-.445a.8.8,0,0,0-.2-.565.687.687,0,0,0-.527-.214.687.687,0,0,0-.527.214.822.822,0,0,0-.2.583Zm-3.012,1-.826-.445,4.166-6.668.826.445Z" transform="translate(-10578.6 -3595.276)" fill="#12263f"/>
    <path id="Trazado_819725" data-name="Trazado 819725" d="M-11.947-4.2l.492-4.336h4.781v1.412h-3.393l-.211,1.834a2.685,2.685,0,0,1,1.283-.322,2.459,2.459,0,0,1,1.91.756,3.019,3.019,0,0,1,.691,2.115,3.093,3.093,0,0,1-.349,1.479,2.461,2.461,0,0,1-1,1.014,3.119,3.119,0,0,1-1.535.36A3.312,3.312,0,0,1-10.711-.2a2.546,2.546,0,0,1-1.046-.882,2.4,2.4,0,0,1-.407-1.295h1.676a1.252,1.252,0,0,0,.372.829,1.18,1.18,0,0,0,.835.3A1.041,1.041,0,0,0-8.4-1.661,1.914,1.914,0,0,0-8.086-2.83a1.582,1.582,0,0,0-.357-1.113A1.312,1.312,0,0,0-9.457-4.33a1.466,1.466,0,0,0-.979.316l-.164.152ZM-4.8,2.139l-.885-.463.211-.381a3.044,3.044,0,0,0,.4-1.424V-1.441h1.43L-3.65-.27a3.044,3.044,0,0,1-.328,1.313A3.365,3.365,0,0,1-4.8,2.139ZM3.357-3.527A4.322,4.322,0,0,1,2.625-.82,2.557,2.557,0,0,1,.48.117,2.574,2.574,0,0,1-1.652-.8a4.2,4.2,0,0,1-.756-2.637V-5.01a4.265,4.265,0,0,1,.741-2.713A2.576,2.576,0,0,1,.469-8.648,2.578,2.578,0,0,1,2.6-7.731,4.182,4.182,0,0,1,3.357-5.1ZM1.664-5.254A3.124,3.124,0,0,0,1.374-6.8a.98.98,0,0,0-.905-.484.963.963,0,0,0-.882.46,2.924,2.924,0,0,0-.3,1.44v2.076A3.279,3.279,0,0,0-.431-1.755a.967.967,0,0,0,.911.507.951.951,0,0,0,.9-.487,3.2,3.2,0,0,0,.287-1.49ZM4.477-6.891a1.687,1.687,0,0,1,.51-1.274,1.849,1.849,0,0,1,1.336-.489,1.878,1.878,0,0,1,1.348.483,1.719,1.719,0,0,1,.51,1.31v.422a1.665,1.665,0,0,1-.51,1.271,1.868,1.868,0,0,1-1.336.48,1.88,1.88,0,0,1-1.345-.483,1.706,1.706,0,0,1-.513-1.3ZM5.6-6.439a.789.789,0,0,0,.2.565.7.7,0,0,0,.53.214.664.664,0,0,0,.521-.217.839.839,0,0,0,.193-.58v-.434a.822.822,0,0,0-.193-.568.678.678,0,0,0-.533-.217.68.68,0,0,0-.521.214.839.839,0,0,0-.2.595ZM8.555-2.092A1.665,1.665,0,0,1,9.07-3.366a1.875,1.875,0,0,1,1.336-.483,1.894,1.894,0,0,1,1.345.478,1.71,1.71,0,0,1,.513,1.315v.422a1.678,1.678,0,0,1-.5,1.269,1.857,1.857,0,0,1-1.342.483A1.879,1.879,0,0,1,9.064-.369a1.7,1.7,0,0,1-.51-1.289Zm1.125.457a.783.783,0,0,0,.211.551.688.688,0,0,0,.527.229q.715,0,.715-.791v-.445a.8.8,0,0,0-.2-.565.687.687,0,0,0-.527-.214.687.687,0,0,0-.527.214.822.822,0,0,0-.2.583Zm-3.012,1-.826-.445,4.166-6.668.826.445Z" transform="translate(-10578.6 -3621.912)" fill="#12263f"/>
    <path id="Trazado_819726" data-name="Trazado 819726" d="M-7.605-8.619v1.395H-7.77a2.877,2.877,0,0,0-1.849.6,2.428,2.428,0,0,0-.841,1.611,2.306,2.306,0,0,1,1.717-.691,2.173,2.173,0,0,1,1.77.8,3.194,3.194,0,0,1,.656,2.1,3.142,3.142,0,0,1-.36,1.506A2.584,2.584,0,0,1-7.7-.258,2.962,2.962,0,0,1-9.187.117,2.766,2.766,0,0,1-11.364-.82a3.639,3.639,0,0,1-.829-2.5v-.609a5.477,5.477,0,0,1,.524-2.452A3.845,3.845,0,0,1-10.163-8.03a4.413,4.413,0,0,1,2.276-.589ZM-9.258-4.342A1.353,1.353,0,0,0-10-4.128a1.286,1.286,0,0,0-.492.564v.515a2.28,2.28,0,0,0,.334,1.325,1.079,1.079,0,0,0,.938.477,1.067,1.067,0,0,0,.882-.43A1.753,1.753,0,0,0-8-2.792a1.75,1.75,0,0,0-.34-1.123A1.108,1.108,0,0,0-9.258-4.342ZM-4.8,2.139l-.885-.463.211-.381a3.044,3.044,0,0,0,.4-1.424V-1.441h1.43L-3.65-.27a3.044,3.044,0,0,1-.328,1.313A3.365,3.365,0,0,1-4.8,2.139ZM3.357-3.527A4.322,4.322,0,0,1,2.625-.82,2.557,2.557,0,0,1,.48.117,2.574,2.574,0,0,1-1.652-.8a4.2,4.2,0,0,1-.756-2.637V-5.01a4.265,4.265,0,0,1,.741-2.713A2.576,2.576,0,0,1,.469-8.648,2.578,2.578,0,0,1,2.6-7.731,4.182,4.182,0,0,1,3.357-5.1ZM1.664-5.254A3.124,3.124,0,0,0,1.374-6.8a.98.98,0,0,0-.905-.484.963.963,0,0,0-.882.46,2.924,2.924,0,0,0-.3,1.44v2.076A3.279,3.279,0,0,0-.431-1.755a.967.967,0,0,0,.911.507.951.951,0,0,0,.9-.487,3.2,3.2,0,0,0,.287-1.49ZM4.477-6.891a1.687,1.687,0,0,1,.51-1.274,1.849,1.849,0,0,1,1.336-.489,1.878,1.878,0,0,1,1.348.483,1.719,1.719,0,0,1,.51,1.31v.422a1.665,1.665,0,0,1-.51,1.271,1.868,1.868,0,0,1-1.336.48,1.88,1.88,0,0,1-1.345-.483,1.706,1.706,0,0,1-.513-1.3ZM5.6-6.439a.789.789,0,0,0,.2.565.7.7,0,0,0,.53.214.664.664,0,0,0,.521-.217.839.839,0,0,0,.193-.58v-.434a.822.822,0,0,0-.193-.568.678.678,0,0,0-.533-.217.68.68,0,0,0-.521.214.839.839,0,0,0-.2.595ZM8.555-2.092A1.665,1.665,0,0,1,9.07-3.366a1.875,1.875,0,0,1,1.336-.483,1.894,1.894,0,0,1,1.345.478,1.71,1.71,0,0,1,.513,1.315v.422a1.678,1.678,0,0,1-.5,1.269,1.857,1.857,0,0,1-1.342.483A1.879,1.879,0,0,1,9.064-.369a1.7,1.7,0,0,1-.51-1.289Zm1.125.457a.783.783,0,0,0,.211.551.688.688,0,0,0,.527.229q.715,0,.715-.791v-.445a.8.8,0,0,0-.2-.565.687.687,0,0,0-.527-.214.687.687,0,0,0-.527.214.822.822,0,0,0-.2.583Zm-3.012,1-.826-.445,4.166-6.668.826.445Z" transform="translate(-10578.6 -3649.466)" fill="#12263f"/>
    <path id="Trazado_819727" data-name="Trazado 819727" d="M-6.4-7.586-9.7,0h-1.787l3.3-7.166h-4.242V-8.531H-6.4ZM-4.8,2.139l-.885-.463.211-.381a3.044,3.044,0,0,0,.4-1.424V-1.441h1.43L-3.65-.27a3.044,3.044,0,0,1-.328,1.313A3.365,3.365,0,0,1-4.8,2.139ZM3.357-3.527A4.322,4.322,0,0,1,2.625-.82,2.557,2.557,0,0,1,.48.117,2.574,2.574,0,0,1-1.652-.8a4.2,4.2,0,0,1-.756-2.637V-5.01a4.265,4.265,0,0,1,.741-2.713A2.576,2.576,0,0,1,.469-8.648,2.578,2.578,0,0,1,2.6-7.731,4.182,4.182,0,0,1,3.357-5.1ZM1.664-5.254A3.124,3.124,0,0,0,1.374-6.8a.98.98,0,0,0-.905-.484.963.963,0,0,0-.882.46,2.924,2.924,0,0,0-.3,1.44v2.076A3.279,3.279,0,0,0-.431-1.755a.967.967,0,0,0,.911.507.951.951,0,0,0,.9-.487,3.2,3.2,0,0,0,.287-1.49ZM4.477-6.891a1.687,1.687,0,0,1,.51-1.274,1.849,1.849,0,0,1,1.336-.489,1.878,1.878,0,0,1,1.348.483,1.719,1.719,0,0,1,.51,1.31v.422a1.665,1.665,0,0,1-.51,1.271,1.868,1.868,0,0,1-1.336.48,1.88,1.88,0,0,1-1.345-.483,1.706,1.706,0,0,1-.513-1.3ZM5.6-6.439a.789.789,0,0,0,.2.565.7.7,0,0,0,.53.214.664.664,0,0,0,.521-.217.839.839,0,0,0,.193-.58v-.434a.822.822,0,0,0-.193-.568.678.678,0,0,0-.533-.217.68.68,0,0,0-.521.214.839.839,0,0,0-.2.595ZM8.555-2.092A1.665,1.665,0,0,1,9.07-3.366a1.875,1.875,0,0,1,1.336-.483,1.894,1.894,0,0,1,1.345.478,1.71,1.71,0,0,1,.513,1.315v.422a1.678,1.678,0,0,1-.5,1.269,1.857,1.857,0,0,1-1.342.483A1.879,1.879,0,0,1,9.064-.369a1.7,1.7,0,0,1-.51-1.289Zm1.125.457a.783.783,0,0,0,.211.551.688.688,0,0,0,.527.229q.715,0,.715-.791v-.445a.8.8,0,0,0-.2-.565.687.687,0,0,0-.527-.214.687.687,0,0,0-.527.214.822.822,0,0,0-.2.583Zm-3.012,1-.826-.445,4.166-6.668.826.445Z" transform="translate(-10578.6 -3677.02)" fill="#12263f"/>
    <path id="Trazado_819728" data-name="Trazado 819728" d="M-7.342,0h-5.848V-1.16L-10.43-4.1a6.808,6.808,0,0,0,.841-1.084,1.742,1.742,0,0,0,.272-.879A1.3,1.3,0,0,0-9.6-6.958a1.036,1.036,0,0,0-.82-.325,1.118,1.118,0,0,0-.905.4,1.567,1.567,0,0,0-.331,1.04h-1.7a2.8,2.8,0,0,1,.372-1.424,2.622,2.622,0,0,1,1.052-1.011,3.2,3.2,0,0,1,1.541-.366,3.027,3.027,0,0,1,2.048.633,2.239,2.239,0,0,1,.729,1.787,2.868,2.868,0,0,1-.328,1.289A7.164,7.164,0,0,1-9.07-3.41L-11.01-1.365h3.668ZM-.562-3.527A4.322,4.322,0,0,1-1.295-.82,2.557,2.557,0,0,1-3.439.117,2.574,2.574,0,0,1-5.572-.8a4.2,4.2,0,0,1-.756-2.637V-5.01a4.265,4.265,0,0,1,.741-2.713,2.576,2.576,0,0,1,2.136-.926,2.578,2.578,0,0,1,2.133.917A4.182,4.182,0,0,1-.562-5.1ZM-2.256-5.254A3.124,3.124,0,0,0-2.546-6.8a.98.98,0,0,0-.905-.484.963.963,0,0,0-.882.46,2.924,2.924,0,0,0-.3,1.44v2.076a3.279,3.279,0,0,0,.284,1.551.967.967,0,0,0,.911.507.951.951,0,0,0,.9-.487,3.2,3.2,0,0,0,.287-1.49ZM4.693,0H3V-6.527L.979-5.9V-7.277L4.512-8.543h.182Zm8.514-3.527A4.322,4.322,0,0,1,12.475-.82,2.557,2.557,0,0,1,10.33.117,2.574,2.574,0,0,1,8.2-.8a4.2,4.2,0,0,1-.756-2.637V-5.01a4.265,4.265,0,0,1,.741-2.713,2.576,2.576,0,0,1,2.136-.926,2.578,2.578,0,0,1,2.133.917A4.182,4.182,0,0,1,13.207-5.1ZM11.514-5.254a3.124,3.124,0,0,0-.29-1.546.98.98,0,0,0-.905-.484.963.963,0,0,0-.882.46,2.924,2.924,0,0,0-.3,1.44v2.076a3.279,3.279,0,0,0,.284,1.551.967.967,0,0,0,.911.507.951.951,0,0,0,.9-.487,3.2,3.2,0,0,0,.287-1.49Z" transform="translate(-10543.615 -3456.586)" fill="#12263f"/>
    <path id="Trazado_819729" data-name="Trazado 819729" d="M-7.342,0h-5.848V-1.16L-10.43-4.1a6.808,6.808,0,0,0,.841-1.084,1.742,1.742,0,0,0,.272-.879A1.3,1.3,0,0,0-9.6-6.958a1.036,1.036,0,0,0-.82-.325,1.118,1.118,0,0,0-.905.4,1.567,1.567,0,0,0-.331,1.04h-1.7a2.8,2.8,0,0,1,.372-1.424,2.622,2.622,0,0,1,1.052-1.011,3.2,3.2,0,0,1,1.541-.366,3.027,3.027,0,0,1,2.048.633,2.239,2.239,0,0,1,.729,1.787,2.868,2.868,0,0,1-.328,1.289A7.164,7.164,0,0,1-9.07-3.41L-11.01-1.365h3.668ZM-.562-3.527A4.322,4.322,0,0,1-1.295-.82,2.557,2.557,0,0,1-3.439.117,2.574,2.574,0,0,1-5.572-.8a4.2,4.2,0,0,1-.756-2.637V-5.01a4.265,4.265,0,0,1,.741-2.713,2.576,2.576,0,0,1,2.136-.926,2.578,2.578,0,0,1,2.133.917A4.182,4.182,0,0,1-.562-5.1ZM-2.256-5.254A3.124,3.124,0,0,0-2.546-6.8a.98.98,0,0,0-.905-.484.963.963,0,0,0-.882.46,2.924,2.924,0,0,0-.3,1.44v2.076a3.279,3.279,0,0,0,.284,1.551.967.967,0,0,0,.911.507.951.951,0,0,0,.9-.487,3.2,3.2,0,0,0,.287-1.49ZM4.693,0H3V-6.527L.979-5.9V-7.277L4.512-8.543h.182Zm6.885,0H9.885V-6.527L7.863-5.9V-7.277L11.4-8.543h.182Z" transform="translate(-10503.539 -3456.586)" fill="#12263f"/>
    <path id="Trazado_819730" data-name="Trazado 819730" d="M-7.342,0h-5.848V-1.16L-10.43-4.1a6.808,6.808,0,0,0,.841-1.084,1.742,1.742,0,0,0,.272-.879A1.3,1.3,0,0,0-9.6-6.958a1.036,1.036,0,0,0-.82-.325,1.118,1.118,0,0,0-.905.4,1.567,1.567,0,0,0-.331,1.04h-1.7a2.8,2.8,0,0,1,.372-1.424,2.622,2.622,0,0,1,1.052-1.011,3.2,3.2,0,0,1,1.541-.366,3.027,3.027,0,0,1,2.048.633,2.239,2.239,0,0,1,.729,1.787,2.868,2.868,0,0,1-.328,1.289A7.164,7.164,0,0,1-9.07-3.41L-11.01-1.365h3.668ZM-.562-3.527A4.322,4.322,0,0,1-1.295-.82,2.557,2.557,0,0,1-3.439.117,2.574,2.574,0,0,1-5.572-.8a4.2,4.2,0,0,1-.756-2.637V-5.01a4.265,4.265,0,0,1,.741-2.713,2.576,2.576,0,0,1,2.136-.926,2.578,2.578,0,0,1,2.133.917A4.182,4.182,0,0,1-.562-5.1ZM-2.256-5.254A3.124,3.124,0,0,0-2.546-6.8a.98.98,0,0,0-.905-.484.963.963,0,0,0-.882.46,2.924,2.924,0,0,0-.3,1.44v2.076a3.279,3.279,0,0,0,.284,1.551.967.967,0,0,0,.911.507.951.951,0,0,0,.9-.487,3.2,3.2,0,0,0,.287-1.49ZM4.693,0H3V-6.527L.979-5.9V-7.277L4.512-8.543h.182Zm8.619,0H7.465V-1.16L10.225-4.1a6.808,6.808,0,0,0,.841-1.084,1.742,1.742,0,0,0,.272-.879,1.3,1.3,0,0,0-.287-.894,1.036,1.036,0,0,0-.82-.325,1.118,1.118,0,0,0-.905.4,1.567,1.567,0,0,0-.331,1.04h-1.7a2.8,2.8,0,0,1,.372-1.424A2.622,2.622,0,0,1,8.719-8.282a3.2,3.2,0,0,1,1.541-.366,3.027,3.027,0,0,1,2.048.633,2.239,2.239,0,0,1,.729,1.787,2.868,2.868,0,0,1-.328,1.289A7.164,7.164,0,0,1,11.584-3.41L9.645-1.365h3.668Z" transform="translate(-10463.385 -3456.586)" fill="#12263f"/>
    <path id="Trazado_819731" data-name="Trazado 819731" d="M-7.342,0h-5.848V-1.16L-10.43-4.1a6.808,6.808,0,0,0,.841-1.084,1.742,1.742,0,0,0,.272-.879A1.3,1.3,0,0,0-9.6-6.958a1.036,1.036,0,0,0-.82-.325,1.118,1.118,0,0,0-.905.4,1.567,1.567,0,0,0-.331,1.04h-1.7a2.8,2.8,0,0,1,.372-1.424,2.622,2.622,0,0,1,1.052-1.011,3.2,3.2,0,0,1,1.541-.366,3.027,3.027,0,0,1,2.048.633,2.239,2.239,0,0,1,.729,1.787,2.868,2.868,0,0,1-.328,1.289A7.164,7.164,0,0,1-9.07-3.41L-11.01-1.365h3.668ZM-.562-3.527A4.322,4.322,0,0,1-1.295-.82,2.557,2.557,0,0,1-3.439.117,2.574,2.574,0,0,1-5.572-.8a4.2,4.2,0,0,1-.756-2.637V-5.01a4.265,4.265,0,0,1,.741-2.713,2.576,2.576,0,0,1,2.136-.926,2.578,2.578,0,0,1,2.133.917A4.182,4.182,0,0,1-.562-5.1ZM-2.256-5.254A3.124,3.124,0,0,0-2.546-6.8a.98.98,0,0,0-.905-.484.963.963,0,0,0-.882.46,2.924,2.924,0,0,0-.3,1.44v2.076a3.279,3.279,0,0,0,.284,1.551.967.967,0,0,0,.911.507.951.951,0,0,0,.9-.487,3.2,3.2,0,0,0,.287-1.49ZM4.693,0H3V-6.527L.979-5.9V-7.277L4.512-8.543h.182ZM9.188-5.016h.9a1.271,1.271,0,0,0,.955-.322,1.181,1.181,0,0,0,.311-.855,1.044,1.044,0,0,0-.308-.8,1.192,1.192,0,0,0-.847-.287,1.25,1.25,0,0,0-.814.267.852.852,0,0,0-.328.694H7.365a2.083,2.083,0,0,1,.36-1.2A2.4,2.4,0,0,1,8.733-8.35a3.364,3.364,0,0,1,1.427-.3A3.19,3.19,0,0,1,12.281-8a2.209,2.209,0,0,1,.768,1.784,1.8,1.8,0,0,1-.357,1.078,2.322,2.322,0,0,1-.937.756,2.12,2.12,0,0,1,1.075.773,2.1,2.1,0,0,1,.354,1.219,2.246,2.246,0,0,1-.829,1.822A3.334,3.334,0,0,1,10.16.117,3.161,3.161,0,0,1,8.071-.557,2.2,2.2,0,0,1,7.26-2.338H8.953a.981.981,0,0,0,.36.785,1.328,1.328,0,0,0,.888.3,1.334,1.334,0,0,0,.946-.319,1.1,1.1,0,0,0,.343-.847q0-1.277-1.406-1.277h-.9Z" transform="translate(-10422.34 -3456.586)" fill="#12263f"/>
    <path id="Trazado_819732" data-name="Trazado 819732" d="M-7.342,0h-5.848V-1.16L-10.43-4.1a6.808,6.808,0,0,0,.841-1.084,1.742,1.742,0,0,0,.272-.879A1.3,1.3,0,0,0-9.6-6.958a1.036,1.036,0,0,0-.82-.325,1.118,1.118,0,0,0-.905.4,1.567,1.567,0,0,0-.331,1.04h-1.7a2.8,2.8,0,0,1,.372-1.424,2.622,2.622,0,0,1,1.052-1.011,3.2,3.2,0,0,1,1.541-.366,3.027,3.027,0,0,1,2.048.633,2.239,2.239,0,0,1,.729,1.787,2.868,2.868,0,0,1-.328,1.289A7.164,7.164,0,0,1-9.07-3.41L-11.01-1.365h3.668ZM-.562-3.527A4.322,4.322,0,0,1-1.295-.82,2.557,2.557,0,0,1-3.439.117,2.574,2.574,0,0,1-5.572-.8a4.2,4.2,0,0,1-.756-2.637V-5.01a4.265,4.265,0,0,1,.741-2.713,2.576,2.576,0,0,1,2.136-.926,2.578,2.578,0,0,1,2.133.917A4.182,4.182,0,0,1-.562-5.1ZM-2.256-5.254A3.124,3.124,0,0,0-2.546-6.8a.98.98,0,0,0-.905-.484.963.963,0,0,0-.882.46,2.924,2.924,0,0,0-.3,1.44v2.076a3.279,3.279,0,0,0,.284,1.551.967.967,0,0,0,.911.507.951.951,0,0,0,.9-.487,3.2,3.2,0,0,0,.287-1.49ZM4.693,0H3V-6.527L.979-5.9V-7.277L4.512-8.543h.182Zm7.781-3.211h.967v1.365h-.967V0H10.781V-1.846h-3.5L7.207-2.912l3.557-5.619h1.711Zm-3.58,0h1.887V-6.223l-.111.193Z" transform="translate(-10381.295 -3456.586)" fill="#12263f"/>
    <path id="Trazado_819733" data-name="Trazado 819733" d="M-7.342,0h-5.848V-1.16L-10.43-4.1a6.808,6.808,0,0,0,.841-1.084,1.742,1.742,0,0,0,.272-.879A1.3,1.3,0,0,0-9.6-6.958a1.036,1.036,0,0,0-.82-.325,1.118,1.118,0,0,0-.905.4,1.567,1.567,0,0,0-.331,1.04h-1.7a2.8,2.8,0,0,1,.372-1.424,2.622,2.622,0,0,1,1.052-1.011,3.2,3.2,0,0,1,1.541-.366,3.027,3.027,0,0,1,2.048.633,2.239,2.239,0,0,1,.729,1.787,2.868,2.868,0,0,1-.328,1.289A7.164,7.164,0,0,1-9.07-3.41L-11.01-1.365h3.668ZM-.562-3.527A4.322,4.322,0,0,1-1.295-.82,2.557,2.557,0,0,1-3.439.117,2.574,2.574,0,0,1-5.572-.8a4.2,4.2,0,0,1-.756-2.637V-5.01a4.265,4.265,0,0,1,.741-2.713,2.576,2.576,0,0,1,2.136-.926,2.578,2.578,0,0,1,2.133.917A4.182,4.182,0,0,1-.562-5.1ZM-2.256-5.254A3.124,3.124,0,0,0-2.546-6.8a.98.98,0,0,0-.905-.484.963.963,0,0,0-.882.46,2.924,2.924,0,0,0-.3,1.44v2.076a3.279,3.279,0,0,0,.284,1.551.967.967,0,0,0,.911.507.951.951,0,0,0,.9-.487,3.2,3.2,0,0,0,.287-1.49ZM4.693,0H3V-6.527L.979-5.9V-7.277L4.512-8.543h.182ZM7.717-4.2l.492-4.336H12.99v1.412H9.6L9.387-5.285a2.685,2.685,0,0,1,1.283-.322,2.459,2.459,0,0,1,1.91.756,3.019,3.019,0,0,1,.691,2.115,3.093,3.093,0,0,1-.349,1.479,2.461,2.461,0,0,1-1,1.014,3.119,3.119,0,0,1-1.535.36A3.312,3.312,0,0,1,8.953-.2a2.546,2.546,0,0,1-1.046-.882A2.4,2.4,0,0,1,7.5-2.373H9.176a1.252,1.252,0,0,0,.372.829,1.18,1.18,0,0,0,.835.3,1.041,1.041,0,0,0,.885-.413,1.914,1.914,0,0,0,.311-1.169,1.582,1.582,0,0,0-.357-1.113,1.312,1.312,0,0,0-1.014-.387,1.466,1.466,0,0,0-.979.316l-.164.152Z" transform="translate(-10340.248 -3456.586)" fill="#12263f"/>
    <path id="Trazado_819734" data-name="Trazado 819734" d="M-7.342,0h-5.848V-1.16L-10.43-4.1a6.808,6.808,0,0,0,.841-1.084,1.742,1.742,0,0,0,.272-.879A1.3,1.3,0,0,0-9.6-6.958a1.036,1.036,0,0,0-.82-.325,1.118,1.118,0,0,0-.905.4,1.567,1.567,0,0,0-.331,1.04h-1.7a2.8,2.8,0,0,1,.372-1.424,2.622,2.622,0,0,1,1.052-1.011,3.2,3.2,0,0,1,1.541-.366,3.027,3.027,0,0,1,2.048.633,2.239,2.239,0,0,1,.729,1.787,2.868,2.868,0,0,1-.328,1.289A7.164,7.164,0,0,1-9.07-3.41L-11.01-1.365h3.668ZM-.562-3.527A4.322,4.322,0,0,1-1.295-.82,2.557,2.557,0,0,1-3.439.117,2.574,2.574,0,0,1-5.572-.8a4.2,4.2,0,0,1-.756-2.637V-5.01a4.265,4.265,0,0,1,.741-2.713,2.576,2.576,0,0,1,2.136-.926,2.578,2.578,0,0,1,2.133.917A4.182,4.182,0,0,1-.562-5.1ZM-2.256-5.254A3.124,3.124,0,0,0-2.546-6.8a.98.98,0,0,0-.905-.484.963.963,0,0,0-.882.46,2.924,2.924,0,0,0-.3,1.44v2.076a3.279,3.279,0,0,0,.284,1.551.967.967,0,0,0,.911.507.951.951,0,0,0,.9-.487,3.2,3.2,0,0,0,.287-1.49ZM4.693,0H3V-6.527L.979-5.9V-7.277L4.512-8.543h.182Zm7.365-8.619v1.395h-.164a2.877,2.877,0,0,0-1.849.6,2.428,2.428,0,0,0-.841,1.611,2.306,2.306,0,0,1,1.717-.691,2.173,2.173,0,0,1,1.77.8,3.194,3.194,0,0,1,.656,2.1,3.142,3.142,0,0,1-.36,1.506,2.584,2.584,0,0,1-1.02,1.049,2.962,2.962,0,0,1-1.491.375A2.766,2.766,0,0,1,8.3-.82a3.639,3.639,0,0,1-.829-2.5v-.609A5.477,5.477,0,0,1,8-6.384,3.845,3.845,0,0,1,9.5-8.03a4.413,4.413,0,0,1,2.276-.589ZM10.406-4.342a1.353,1.353,0,0,0-.744.213,1.286,1.286,0,0,0-.492.564v.515A2.28,2.28,0,0,0,9.5-1.725a1.079,1.079,0,0,0,.938.477,1.067,1.067,0,0,0,.882-.43,1.753,1.753,0,0,0,.337-1.114,1.75,1.75,0,0,0-.34-1.123A1.108,1.108,0,0,0,10.406-4.342Z" transform="translate(-10300.096 -3456.586)" fill="#12263f"/>
    <path id="Trazado_819735" data-name="Trazado 819735" d="M-7.342,0h-5.848V-1.16L-10.43-4.1a6.808,6.808,0,0,0,.841-1.084,1.742,1.742,0,0,0,.272-.879A1.3,1.3,0,0,0-9.6-6.958a1.036,1.036,0,0,0-.82-.325,1.118,1.118,0,0,0-.905.4,1.567,1.567,0,0,0-.331,1.04h-1.7a2.8,2.8,0,0,1,.372-1.424,2.622,2.622,0,0,1,1.052-1.011,3.2,3.2,0,0,1,1.541-.366,3.027,3.027,0,0,1,2.048.633,2.239,2.239,0,0,1,.729,1.787,2.868,2.868,0,0,1-.328,1.289A7.164,7.164,0,0,1-9.07-3.41L-11.01-1.365h3.668ZM-.562-3.527A4.322,4.322,0,0,1-1.295-.82,2.557,2.557,0,0,1-3.439.117,2.574,2.574,0,0,1-5.572-.8a4.2,4.2,0,0,1-.756-2.637V-5.01a4.265,4.265,0,0,1,.741-2.713,2.576,2.576,0,0,1,2.136-.926,2.578,2.578,0,0,1,2.133.917A4.182,4.182,0,0,1-.562-5.1ZM-2.256-5.254A3.124,3.124,0,0,0-2.546-6.8a.98.98,0,0,0-.905-.484.963.963,0,0,0-.882.46,2.924,2.924,0,0,0-.3,1.44v2.076a3.279,3.279,0,0,0,.284,1.551.967.967,0,0,0,.911.507.951.951,0,0,0,.9-.487,3.2,3.2,0,0,0,.287-1.49ZM4.693,0H3V-6.527L.979-5.9V-7.277L4.512-8.543h.182Zm8.572-7.586L9.967,0H8.18l3.3-7.166H7.242V-8.531h6.023Z" transform="translate(-10259.051 -3456.586)" fill="#12263f"/>
    <path id="Trazado_819736" data-name="Trazado 819736" d="M-7.342,0h-5.848V-1.16L-10.43-4.1a6.808,6.808,0,0,0,.841-1.084,1.742,1.742,0,0,0,.272-.879A1.3,1.3,0,0,0-9.6-6.958a1.036,1.036,0,0,0-.82-.325,1.118,1.118,0,0,0-.905.4,1.567,1.567,0,0,0-.331,1.04h-1.7a2.8,2.8,0,0,1,.372-1.424,2.622,2.622,0,0,1,1.052-1.011,3.2,3.2,0,0,1,1.541-.366,3.027,3.027,0,0,1,2.048.633,2.239,2.239,0,0,1,.729,1.787,2.868,2.868,0,0,1-.328,1.289A7.164,7.164,0,0,1-9.07-3.41L-11.01-1.365h3.668ZM-.562-3.527A4.322,4.322,0,0,1-1.295-.82,2.557,2.557,0,0,1-3.439.117,2.574,2.574,0,0,1-5.572-.8a4.2,4.2,0,0,1-.756-2.637V-5.01a4.265,4.265,0,0,1,.741-2.713,2.576,2.576,0,0,1,2.136-.926,2.578,2.578,0,0,1,2.133.917A4.182,4.182,0,0,1-.562-5.1ZM-2.256-5.254A3.124,3.124,0,0,0-2.546-6.8a.98.98,0,0,0-.905-.484.963.963,0,0,0-.882.46,2.924,2.924,0,0,0-.3,1.44v2.076a3.279,3.279,0,0,0,.284,1.551.967.967,0,0,0,.911.507.951.951,0,0,0,.9-.487,3.2,3.2,0,0,0,.287-1.49ZM4.693,0H3V-6.527L.979-5.9V-7.277L4.512-8.543h.182Zm8.332-6.264a1.984,1.984,0,0,1-.311,1.1,2.235,2.235,0,0,1-.855.768,2.474,2.474,0,0,1,.984.823,2.112,2.112,0,0,1,.363,1.233,2.236,2.236,0,0,1-.773,1.8,3.137,3.137,0,0,1-2.1.659A3.152,3.152,0,0,1,8.221-.545a2.231,2.231,0,0,1-.779-1.793A2.125,2.125,0,0,1,7.8-3.574a2.429,2.429,0,0,1,.979-.82,2.212,2.212,0,0,1-.853-.768,2,2,0,0,1-.308-1.1A2.211,2.211,0,0,1,8.35-8a2.861,2.861,0,0,1,1.975-.647,2.88,2.88,0,0,1,1.972.642A2.2,2.2,0,0,1,13.025-6.264Zm-1.518,3.8a1.228,1.228,0,0,0-.322-.891,1.149,1.149,0,0,0-.867-.334,1.147,1.147,0,0,0-.861.331,1.226,1.226,0,0,0-.322.894,1.225,1.225,0,0,0,.316.879,1.152,1.152,0,0,0,.879.334,1.15,1.15,0,0,0,.864-.322A1.223,1.223,0,0,0,11.508-2.461Zm-.176-3.721a1.172,1.172,0,0,0-.264-.8.936.936,0,0,0-.744-.3.942.942,0,0,0-.738.293,1.165,1.165,0,0,0-.264.809,1.224,1.224,0,0,0,.264.82.923.923,0,0,0,.744.311.914.914,0,0,0,.741-.311A1.233,1.233,0,0,0,11.332-6.182Z" transform="translate(-10218.004 -3456.586)" fill="#12263f"/>
    <path id="Trazado_819737" data-name="Trazado 819737" d="M-7.342,0h-5.848V-1.16L-10.43-4.1a6.808,6.808,0,0,0,.841-1.084,1.742,1.742,0,0,0,.272-.879A1.3,1.3,0,0,0-9.6-6.958a1.036,1.036,0,0,0-.82-.325,1.118,1.118,0,0,0-.905.4,1.567,1.567,0,0,0-.331,1.04h-1.7a2.8,2.8,0,0,1,.372-1.424,2.622,2.622,0,0,1,1.052-1.011,3.2,3.2,0,0,1,1.541-.366,3.027,3.027,0,0,1,2.048.633,2.239,2.239,0,0,1,.729,1.787,2.868,2.868,0,0,1-.328,1.289A7.164,7.164,0,0,1-9.07-3.41L-11.01-1.365h3.668ZM-.562-3.527A4.322,4.322,0,0,1-1.295-.82,2.557,2.557,0,0,1-3.439.117,2.574,2.574,0,0,1-5.572-.8a4.2,4.2,0,0,1-.756-2.637V-5.01a4.265,4.265,0,0,1,.741-2.713,2.576,2.576,0,0,1,2.136-.926,2.578,2.578,0,0,1,2.133.917A4.182,4.182,0,0,1-.562-5.1ZM-2.256-5.254A3.124,3.124,0,0,0-2.546-6.8a.98.98,0,0,0-.905-.484.963.963,0,0,0-.882.46,2.924,2.924,0,0,0-.3,1.44v2.076a3.279,3.279,0,0,0,.284,1.551.967.967,0,0,0,.911.507.951.951,0,0,0,.9-.487,3.2,3.2,0,0,0,.287-1.49ZM4.693,0H3V-6.527L.979-5.9V-7.277L4.512-8.543h.182Zm6.732-3.41a2.138,2.138,0,0,1-1.547.65,2.287,2.287,0,0,1-1.811-.776,3.068,3.068,0,0,1-.68-2.095,3.268,3.268,0,0,1,.366-1.538,2.686,2.686,0,0,1,1.022-1.09,2.837,2.837,0,0,1,1.477-.39,2.713,2.713,0,0,1,1.5.422,2.774,2.774,0,0,1,1.02,1.213A4.355,4.355,0,0,1,13.143-5.2v.627a4.935,4.935,0,0,1-1.061,3.352A4.01,4.01,0,0,1,9.076.076L8.66.082V-1.33l.375-.006A2.165,2.165,0,0,0,11.426-3.41Zm-1.131-.645A1.184,1.184,0,0,0,11-4.266a1.409,1.409,0,0,0,.448-.51v-.7a2.328,2.328,0,0,0-.328-1.336,1.018,1.018,0,0,0-.879-.475.989.989,0,0,0-.838.466,1.981,1.981,0,0,0-.328,1.169A1.927,1.927,0,0,0,9.4-4.5,1.04,1.04,0,0,0,10.295-4.055Z" transform="translate(-10179.406 -3456.586)" fill="#12263f"/>
    <path id="Trazado_819738" data-name="Trazado 819738" d="M-7.342,0h-5.848V-1.16L-10.43-4.1a6.808,6.808,0,0,0,.841-1.084,1.742,1.742,0,0,0,.272-.879A1.3,1.3,0,0,0-9.6-6.958a1.036,1.036,0,0,0-.82-.325,1.118,1.118,0,0,0-.905.4,1.567,1.567,0,0,0-.331,1.04h-1.7a2.8,2.8,0,0,1,.372-1.424,2.622,2.622,0,0,1,1.052-1.011,3.2,3.2,0,0,1,1.541-.366,3.027,3.027,0,0,1,2.048.633,2.239,2.239,0,0,1,.729,1.787,2.868,2.868,0,0,1-.328,1.289A7.164,7.164,0,0,1-9.07-3.41L-11.01-1.365h3.668ZM-.562-3.527A4.322,4.322,0,0,1-1.295-.82,2.557,2.557,0,0,1-3.439.117,2.574,2.574,0,0,1-5.572-.8a4.2,4.2,0,0,1-.756-2.637V-5.01a4.265,4.265,0,0,1,.741-2.713,2.576,2.576,0,0,1,2.136-.926,2.578,2.578,0,0,1,2.133.917A4.182,4.182,0,0,1-.562-5.1ZM-2.256-5.254A3.124,3.124,0,0,0-2.546-6.8a.98.98,0,0,0-.905-.484.963.963,0,0,0-.882.46,2.924,2.924,0,0,0-.3,1.44v2.076a3.279,3.279,0,0,0,.284,1.551.967.967,0,0,0,.911.507.951.951,0,0,0,.9-.487,3.2,3.2,0,0,0,.287-1.49ZM6.428,0H.58V-1.16L3.34-4.1a6.808,6.808,0,0,0,.841-1.084,1.742,1.742,0,0,0,.272-.879,1.3,1.3,0,0,0-.287-.894,1.036,1.036,0,0,0-.82-.325,1.118,1.118,0,0,0-.905.4,1.567,1.567,0,0,0-.331,1.04H.41A2.8,2.8,0,0,1,.782-7.271,2.622,2.622,0,0,1,1.834-8.282a3.2,3.2,0,0,1,1.541-.366,3.027,3.027,0,0,1,2.048.633,2.239,2.239,0,0,1,.729,1.787,2.868,2.868,0,0,1-.328,1.289A7.164,7.164,0,0,1,4.7-3.41L2.76-1.365H6.428Zm6.779-3.527A4.322,4.322,0,0,1,12.475-.82,2.557,2.557,0,0,1,10.33.117,2.574,2.574,0,0,1,8.2-.8a4.2,4.2,0,0,1-.756-2.637V-5.01a4.265,4.265,0,0,1,.741-2.713,2.576,2.576,0,0,1,2.136-.926,2.578,2.578,0,0,1,2.133.917A4.182,4.182,0,0,1,13.207-5.1ZM11.514-5.254a3.124,3.124,0,0,0-.29-1.546.98.98,0,0,0-.905-.484.963.963,0,0,0-.882.46,2.924,2.924,0,0,0-.3,1.44v2.076a3.279,3.279,0,0,0,.284,1.551.967.967,0,0,0,.911.507.951.951,0,0,0,.9-.487,3.2,3.2,0,0,0,.287-1.49Z" transform="translate(-10137.158 -3456.586)" fill="#12263f"/>
    <path id="Trazado_819739" data-name="Trazado 819739" d="M4.806,8.974H2.468V13H1.148V3.047H4.443a3.9,3.9,0,0,1,2.587.766,2.755,2.755,0,0,1,.906,2.229,2.68,2.68,0,0,1-.5,1.62,3,3,0,0,1-1.4,1.032l2.338,4.225V13H6.966ZM2.468,7.9H4.484A2.275,2.275,0,0,0,6.04,7.394a1.714,1.714,0,0,0,.578-1.356,1.8,1.8,0,0,0-.55-1.418,2.33,2.33,0,0,0-1.589-.5H2.468Zm10.179,5.236a3.232,3.232,0,0,1-2.447-.988,3.666,3.666,0,0,1-.943-2.642V9.274a4.438,4.438,0,0,1,.42-1.965,3.28,3.28,0,0,1,1.176-1.354,2.956,2.956,0,0,1,1.637-.489,2.77,2.77,0,0,1,2.242.95,4.114,4.114,0,0,1,.8,2.721v.526H10.521a2.629,2.629,0,0,0,.639,1.767,2.009,2.009,0,0,0,1.555.673,2.2,2.2,0,0,0,1.135-.273,2.851,2.851,0,0,0,.813-.725l.772.6A3.106,3.106,0,0,1,12.646,13.137Zm-.157-6.631a1.687,1.687,0,0,0-1.285.557,2.708,2.708,0,0,0-.643,1.562h3.705v-.1a2.409,2.409,0,0,0-.52-1.494A1.588,1.588,0,0,0,12.489,6.506ZM18.368,13H17.1V2.5h1.265Zm6.59,0a2.657,2.657,0,0,1-.178-.779,2.822,2.822,0,0,1-2.105.916,2.611,2.611,0,0,1-1.794-.619,2,2,0,0,1-.7-1.569,2.091,2.091,0,0,1,.878-1.794,4.142,4.142,0,0,1,2.471-.639h1.23V7.935a1.42,1.42,0,0,0-.4-1.056,1.593,1.593,0,0,0-1.169-.393,1.844,1.844,0,0,0-1.135.342,1.007,1.007,0,0,0-.458.827H20.33a1.745,1.745,0,0,1,.393-1.07,2.683,2.683,0,0,1,1.066-.817,3.588,3.588,0,0,1,1.48-.3,2.924,2.924,0,0,1,2,.639,2.306,2.306,0,0,1,.752,1.76v3.4a4.162,4.162,0,0,0,.26,1.62V13Zm-2.1-.964a2.223,2.223,0,0,0,1.128-.308,1.861,1.861,0,0,0,.772-.8V9.411h-.991q-2.324,0-2.324,1.36a1.151,1.151,0,0,0,.4.93A1.524,1.524,0,0,0,22.859,12.036Zm8.114.068a1.822,1.822,0,0,0,1.183-.41,1.443,1.443,0,0,0,.561-1.025h1.2a2.293,2.293,0,0,1-.437,1.21,2.881,2.881,0,0,1-1.077.916,3.107,3.107,0,0,1-1.425.342,3.047,3.047,0,0,1-2.4-1.008,4.016,4.016,0,0,1-.892-2.758V9.158a4.453,4.453,0,0,1,.4-1.921,3.02,3.02,0,0,1,1.138-1.306,3.233,3.233,0,0,1,1.753-.465,2.966,2.966,0,0,1,2.068.745,2.663,2.663,0,0,1,.878,1.935h-1.2a1.743,1.743,0,0,0-.543-1.179,1.691,1.691,0,0,0-1.207-.461,1.77,1.77,0,0,0-1.494.694,3.259,3.259,0,0,0-.53,2.006v.239a3.194,3.194,0,0,0,.526,1.969A1.779,1.779,0,0,0,30.974,12.1Zm5.735.9H35.444V5.6h1.265ZM35.342,3.642a.755.755,0,0,1,.188-.52.706.706,0,0,1,.557-.212.717.717,0,0,1,.561.212.747.747,0,0,1,.191.52.722.722,0,0,1-.191.513.73.73,0,0,1-.561.205.718.718,0,0,1-.557-.205A.73.73,0,0,1,35.342,3.642ZM38.4,9.233a4.369,4.369,0,0,1,.427-1.955,3.187,3.187,0,0,1,1.189-1.34,3.238,3.238,0,0,1,1.74-.472A3.119,3.119,0,0,1,44.2,6.513a4.024,4.024,0,0,1,.933,2.782v.089a4.407,4.407,0,0,1-.414,1.938,3.14,3.14,0,0,1-1.183,1.336,3.275,3.275,0,0,1-1.767.479,3.111,3.111,0,0,1-2.437-1.046A4,4,0,0,1,38.4,9.322Zm1.271.15a3.164,3.164,0,0,0,.571,1.976,1.934,1.934,0,0,0,3.059-.01,3.46,3.46,0,0,0,.567-2.116,3.159,3.159,0,0,0-.578-1.972,1.836,1.836,0,0,0-1.535-.755,1.816,1.816,0,0,0-1.511.745A3.435,3.435,0,0,0,39.669,9.384ZM42.328,2.5h1.531L42.027,4.51l-1.019,0Zm5.585,3.1.041.93a2.7,2.7,0,0,1,2.215-1.066q2.345,0,2.365,2.646V13H51.27V8.105A1.7,1.7,0,0,0,50.9,6.923a1.466,1.466,0,0,0-1.118-.383,1.825,1.825,0,0,0-1.08.328,2.228,2.228,0,0,0-.725.861V13H46.717V5.6ZM57.6,9.24A4.333,4.333,0,0,1,58.406,6.5a2.745,2.745,0,0,1,4.17-.147V2.5h1.265V13H62.679l-.062-.793a2.575,2.575,0,0,1-2.112.93,2.526,2.526,0,0,1-2.1-1.053,4.382,4.382,0,0,1-.81-2.748Zm1.265.144a3.281,3.281,0,0,0,.52,1.969,1.68,1.68,0,0,0,1.436.711,1.845,1.845,0,0,0,1.757-1.08v-3.4A1.859,1.859,0,0,0,60.833,6.54a1.687,1.687,0,0,0-1.449.718A3.612,3.612,0,0,0,58.864,9.384Zm10.008,3.753a3.232,3.232,0,0,1-2.447-.988,3.666,3.666,0,0,1-.943-2.642V9.274a4.438,4.438,0,0,1,.42-1.965,3.28,3.28,0,0,1,1.176-1.354,2.956,2.956,0,0,1,1.637-.489,2.77,2.77,0,0,1,2.242.95,4.114,4.114,0,0,1,.8,2.721v.526H66.746a2.629,2.629,0,0,0,.639,1.767,2.009,2.009,0,0,0,1.555.673,2.2,2.2,0,0,0,1.135-.273,2.851,2.851,0,0,0,.813-.725l.772.6A3.106,3.106,0,0,1,68.872,13.137Zm-.157-6.631a1.687,1.687,0,0,0-1.285.557,2.708,2.708,0,0,0-.643,1.562h3.705v-.1a2.409,2.409,0,0,0-.52-1.494A1.588,1.588,0,0,0,68.715,6.506ZM78.06,13H76.795V2.5H78.06Zm6.59,0a2.657,2.657,0,0,1-.178-.779,2.822,2.822,0,0,1-2.105.916,2.611,2.611,0,0,1-1.794-.619,2,2,0,0,1-.7-1.569,2.091,2.091,0,0,1,.878-1.794,4.141,4.141,0,0,1,2.471-.639h1.23V7.935a1.42,1.42,0,0,0-.4-1.056,1.593,1.593,0,0,0-1.169-.393,1.844,1.844,0,0,0-1.135.342,1.007,1.007,0,0,0-.458.827H80.021a1.745,1.745,0,0,1,.393-1.07,2.683,2.683,0,0,1,1.066-.817,3.588,3.588,0,0,1,1.48-.3,2.924,2.924,0,0,1,2,.639,2.306,2.306,0,0,1,.752,1.76v3.4a4.162,4.162,0,0,0,.26,1.62V13Zm-2.1-.964a2.223,2.223,0,0,0,1.128-.308,1.861,1.861,0,0,0,.772-.8V9.411H83.46q-2.324,0-2.324,1.36a1.151,1.151,0,0,0,.4.93A1.524,1.524,0,0,0,82.551,12.036ZM92.538,13H91.273V5.6h1.265ZM91.171,3.642a.755.755,0,0,1,.188-.52.706.706,0,0,1,.557-.212.717.717,0,0,1,.561.212.747.747,0,0,1,.191.52.722.722,0,0,1-.191.513.73.73,0,0,1-.561.205.718.718,0,0,1-.557-.205A.73.73,0,0,1,91.171,3.642ZM95.758,5.6l.041.93a2.7,2.7,0,0,1,2.215-1.066q2.345,0,2.365,2.646V13H99.114V8.105a1.7,1.7,0,0,0-.366-1.183,1.466,1.466,0,0,0-1.118-.383,1.825,1.825,0,0,0-1.08.328,2.228,2.228,0,0,0-.725.861V13H94.562V5.6Zm11.149-2.037a9,9,0,0,0-1.367-.137q-1.367,0-1.367,1.44V5.6h1.579v.978h-1.579V13h-1.265V6.581h-1.169V5.6h1.169V4.8a2.413,2.413,0,0,1,.663-1.812,2.59,2.59,0,0,1,1.866-.629,17.227,17.227,0,0,1,2.734.417V13h-1.265ZM114.8,13a2.657,2.657,0,0,1-.178-.779,2.822,2.822,0,0,1-2.105.916,2.611,2.611,0,0,1-1.794-.619,2,2,0,0,1-.7-1.569,2.091,2.091,0,0,1,.878-1.794,4.141,4.141,0,0,1,2.471-.639h1.23V7.935a1.42,1.42,0,0,0-.4-1.056,1.593,1.593,0,0,0-1.169-.393,1.844,1.844,0,0,0-1.135.342,1.007,1.007,0,0,0-.458.827h-1.271a1.745,1.745,0,0,1,.393-1.07,2.683,2.683,0,0,1,1.066-.817,3.588,3.588,0,0,1,1.48-.3,2.924,2.924,0,0,1,2,.639,2.306,2.306,0,0,1,.752,1.76v3.4a4.162,4.162,0,0,0,.26,1.62V13Zm-2.1-.964a2.223,2.223,0,0,0,1.128-.308,1.861,1.861,0,0,0,.772-.8V9.411h-.991q-2.324,0-2.324,1.36a1.151,1.151,0,0,0,.4.93A1.524,1.524,0,0,0,112.7,12.036Zm8.114.068a1.822,1.822,0,0,0,1.183-.41,1.443,1.443,0,0,0,.561-1.025h1.2a2.293,2.293,0,0,1-.437,1.21,2.882,2.882,0,0,1-1.077.916,3.107,3.107,0,0,1-1.425.342,3.047,3.047,0,0,1-2.4-1.008,4.016,4.016,0,0,1-.892-2.758V9.158a4.453,4.453,0,0,1,.4-1.921,3.02,3.02,0,0,1,1.138-1.306,3.233,3.233,0,0,1,1.753-.465,2.966,2.966,0,0,1,2.068.745,2.663,2.663,0,0,1,.878,1.935h-1.2a1.743,1.743,0,0,0-.543-1.179,1.691,1.691,0,0,0-1.207-.461,1.77,1.77,0,0,0-1.494.694,3.259,3.259,0,0,0-.53,2.006v.239a3.194,3.194,0,0,0,.526,1.969A1.779,1.779,0,0,0,120.818,12.1Zm5.735.9h-1.265V5.6h1.265Zm-1.367-9.358a.755.755,0,0,1,.188-.52.706.706,0,0,1,.557-.212.717.717,0,0,1,.561.212.747.747,0,0,1,.191.52.722.722,0,0,1-.191.513.73.73,0,0,1-.561.205.718.718,0,0,1-.557-.205A.73.73,0,0,1,125.187,3.642Zm3.056,5.592a4.369,4.369,0,0,1,.427-1.955,3.187,3.187,0,0,1,1.189-1.34,3.238,3.238,0,0,1,1.74-.472,3.119,3.119,0,0,1,2.444,1.046,4.024,4.024,0,0,1,.933,2.782v.089a4.407,4.407,0,0,1-.414,1.938,3.14,3.14,0,0,1-1.183,1.336,3.275,3.275,0,0,1-1.767.479,3.111,3.111,0,0,1-2.437-1.046,4,4,0,0,1-.933-2.769Zm1.271.15a3.164,3.164,0,0,0,.571,1.976,1.934,1.934,0,0,0,3.059-.01,3.46,3.46,0,0,0,.567-2.116,3.159,3.159,0,0,0-.578-1.972,1.836,1.836,0,0,0-1.535-.755,1.816,1.816,0,0,0-1.511.745A3.435,3.435,0,0,0,129.514,9.384ZM132.173,2.5H133.7l-1.832,2.01-1.019,0Zm5.585,3.1.041.93a2.7,2.7,0,0,1,2.215-1.066q2.345,0,2.365,2.646V13h-1.265V8.105a1.7,1.7,0,0,0-.366-1.183,1.466,1.466,0,0,0-1.118-.383,1.825,1.825,0,0,0-1.08.328,2.228,2.228,0,0,0-.725.861V13h-1.265V5.6Zm12.961,6.5a1.822,1.822,0,0,0,1.183-.41,1.443,1.443,0,0,0,.561-1.025h1.2a2.293,2.293,0,0,1-.437,1.21,2.881,2.881,0,0,1-1.077.916,3.107,3.107,0,0,1-1.425.342,3.047,3.047,0,0,1-2.4-1.008,4.016,4.016,0,0,1-.892-2.758V9.158a4.453,4.453,0,0,1,.4-1.921,3.02,3.02,0,0,1,1.138-1.306,3.233,3.233,0,0,1,1.753-.465,2.966,2.966,0,0,1,2.068.745,2.663,2.663,0,0,1,.878,1.935h-1.2a1.743,1.743,0,0,0-.543-1.179,1.691,1.691,0,0,0-1.207-.461,1.77,1.77,0,0,0-1.494.694,3.259,3.259,0,0,0-.53,2.006v.239a3.194,3.194,0,0,0,.526,1.969A1.779,1.779,0,0,0,150.719,12.1Zm4.026-2.871a4.369,4.369,0,0,1,.427-1.955,3.187,3.187,0,0,1,1.189-1.34,3.238,3.238,0,0,1,1.74-.472,3.119,3.119,0,0,1,2.444,1.046,4.024,4.024,0,0,1,.933,2.782v.089a4.407,4.407,0,0,1-.414,1.938,3.14,3.14,0,0,1-1.183,1.336,3.275,3.275,0,0,1-1.767.479,3.111,3.111,0,0,1-2.437-1.046,4,4,0,0,1-.933-2.769Zm1.271.15a3.164,3.164,0,0,0,.571,1.976,1.934,1.934,0,0,0,3.059-.01,3.46,3.46,0,0,0,.567-2.116,3.159,3.159,0,0,0-.578-1.972,1.836,1.836,0,0,0-1.535-.755,1.816,1.816,0,0,0-1.511.745A3.435,3.435,0,0,0,156.017,9.384Zm8.244-3.78.041.93a2.7,2.7,0,0,1,2.215-1.066q2.345,0,2.365,2.646V13h-1.265V8.105a1.7,1.7,0,0,0-.366-1.183,1.466,1.466,0,0,0-1.118-.383,1.825,1.825,0,0,0-1.08.328,2.228,2.228,0,0,0-.725.861V13h-1.265V5.6Zm13.063,7.533a3.232,3.232,0,0,1-2.447-.988,3.666,3.666,0,0,1-.943-2.642V9.274a4.438,4.438,0,0,1,.42-1.965,3.279,3.279,0,0,1,1.176-1.354,2.956,2.956,0,0,1,1.637-.489,2.77,2.77,0,0,1,2.242.95,4.114,4.114,0,0,1,.8,2.721v.526H175.2a2.629,2.629,0,0,0,.639,1.767,2.009,2.009,0,0,0,1.555.673,2.2,2.2,0,0,0,1.135-.273,2.851,2.851,0,0,0,.813-.725l.772.6A3.106,3.106,0,0,1,177.324,13.137Zm-.157-6.631a1.687,1.687,0,0,0-1.285.557,2.708,2.708,0,0,0-.643,1.562h3.705v-.1a2.409,2.409,0,0,0-.52-1.494A1.588,1.588,0,0,0,177.167,6.506ZM183.046,13h-1.265V2.5h1.265Zm6.863,0h-1.265V5.6h1.265Zm-1.367-9.358a.755.755,0,0,1,.188-.52.706.706,0,0,1,.557-.212.717.717,0,0,1,.561.212.747.747,0,0,1,.191.52.722.722,0,0,1-.191.513.73.73,0,0,1-.561.205.718.718,0,0,1-.557-.205A.73.73,0,0,1,188.542,3.642ZM193.129,5.6l.041.93a2.7,2.7,0,0,1,2.215-1.066q2.345,0,2.365,2.646V13h-1.265V8.105a1.7,1.7,0,0,0-.366-1.183A1.466,1.466,0,0,0,195,6.54a1.825,1.825,0,0,0-1.08.328,2.228,2.228,0,0,0-.725.861V13h-1.265V5.6Zm9.5,6.5a1.822,1.822,0,0,0,1.183-.41,1.443,1.443,0,0,0,.561-1.025h1.2a2.293,2.293,0,0,1-.437,1.21,2.881,2.881,0,0,1-1.077.916,3.107,3.107,0,0,1-1.425.342,3.047,3.047,0,0,1-2.4-1.008,4.016,4.016,0,0,1-.892-2.758V9.158a4.453,4.453,0,0,1,.4-1.921,3.02,3.02,0,0,1,1.138-1.306,3.233,3.233,0,0,1,1.753-.465,2.966,2.966,0,0,1,2.068.745,2.663,2.663,0,0,1,.878,1.935h-1.2a1.743,1.743,0,0,0-.543-1.179,1.691,1.691,0,0,0-1.207-.461,1.77,1.77,0,0,0-1.494.694,3.259,3.259,0,0,0-.53,2.006v.239a3.194,3.194,0,0,0,.526,1.969A1.779,1.779,0,0,0,202.624,12.1Zm7.937-5.366a3.79,3.79,0,0,0-.622-.048,1.667,1.667,0,0,0-1.688,1.06V13h-1.265V5.6h1.23l.021.854A1.969,1.969,0,0,1,210,5.467a1.292,1.292,0,0,1,.561.1Zm4.1,6.4a3.232,3.232,0,0,1-2.447-.988,3.666,3.666,0,0,1-.943-2.642V9.274a4.438,4.438,0,0,1,.42-1.965,3.279,3.279,0,0,1,1.176-1.354,2.956,2.956,0,0,1,1.637-.489,2.77,2.77,0,0,1,2.242.95,4.114,4.114,0,0,1,.8,2.721v.526h-5.011a2.629,2.629,0,0,0,.639,1.767,2.009,2.009,0,0,0,1.555.673,2.2,2.2,0,0,0,1.135-.273,2.851,2.851,0,0,0,.813-.725l.772.6A3.106,3.106,0,0,1,214.662,13.137ZM214.5,6.506a1.687,1.687,0,0,0-1.285.557,2.708,2.708,0,0,0-.643,1.562h3.705v-.1a2.409,2.409,0,0,0-.52-1.494A1.588,1.588,0,0,0,214.5,6.506Zm5.694-.9.034.82a2.732,2.732,0,0,1,2.194-.957,2.115,2.115,0,0,1,2.112,1.189,2.8,2.8,0,0,1,.96-.861,2.837,2.837,0,0,1,1.4-.328q2.434,0,2.475,2.577V13h-1.265V8.119a1.7,1.7,0,0,0-.362-1.186,1.6,1.6,0,0,0-1.217-.393,1.677,1.677,0,0,0-1.169.42,1.706,1.706,0,0,0-.54,1.131V13h-1.271V8.153A1.411,1.411,0,0,0,221.97,6.54a1.692,1.692,0,0,0-1.7,1.06V13H219V5.6Zm14.15,7.533a3.232,3.232,0,0,1-2.447-.988,3.666,3.666,0,0,1-.943-2.642V9.274a4.438,4.438,0,0,1,.42-1.965,3.279,3.279,0,0,1,1.176-1.354,2.956,2.956,0,0,1,1.637-.489,2.77,2.77,0,0,1,2.242.95,4.114,4.114,0,0,1,.8,2.721v.526h-5.011a2.629,2.629,0,0,0,.639,1.767,2.009,2.009,0,0,0,1.555.673,2.2,2.2,0,0,0,1.135-.273,2.851,2.851,0,0,0,.813-.725l.772.6A3.106,3.106,0,0,1,234.35,13.137Zm-.157-6.631a1.687,1.687,0,0,0-1.285.557,2.708,2.708,0,0,0-.643,1.562h3.705v-.1a2.409,2.409,0,0,0-.52-1.494A1.588,1.588,0,0,0,234.192,6.506Zm5.7-.9.041.93a2.7,2.7,0,0,1,2.215-1.066q2.345,0,2.365,2.646V13H243.25V8.105a1.7,1.7,0,0,0-.366-1.183,1.466,1.466,0,0,0-1.118-.383,1.825,1.825,0,0,0-1.08.328,2.228,2.228,0,0,0-.725.861V13H238.7V5.6Zm8.244-1.791V5.6h1.381v.978h-1.381v4.593a1.027,1.027,0,0,0,.185.667.777.777,0,0,0,.629.222,3.062,3.062,0,0,0,.6-.082V13a3.688,3.688,0,0,1-.971.136,1.575,1.575,0,0,1-1.278-.513,2.2,2.2,0,0,1-.431-1.456V6.581h-1.347V5.6h1.347V3.813Zm2.386,5.421a4.369,4.369,0,0,1,.427-1.955,3.187,3.187,0,0,1,1.189-1.34,3.238,3.238,0,0,1,1.74-.472,3.119,3.119,0,0,1,2.444,1.046,4.024,4.024,0,0,1,.933,2.782v.089a4.407,4.407,0,0,1-.414,1.938,3.14,3.14,0,0,1-1.183,1.336,3.275,3.275,0,0,1-1.767.479,3.111,3.111,0,0,1-2.437-1.046,4,4,0,0,1-.933-2.769Zm1.271.15a3.164,3.164,0,0,0,.571,1.976,1.934,1.934,0,0,0,3.059-.01,3.46,3.46,0,0,0,.567-2.116,3.159,3.159,0,0,0-.578-1.972,1.836,1.836,0,0,0-1.535-.755,1.816,1.816,0,0,0-1.511.745A3.435,3.435,0,0,0,251.795,9.384Zm14.82,1.654a.931.931,0,0,0-.386-.8,3.718,3.718,0,0,0-1.347-.489,6.367,6.367,0,0,1-1.524-.492,2.169,2.169,0,0,1-.834-.684,1.635,1.635,0,0,1-.27-.943,1.919,1.919,0,0,1,.769-1.538,3,3,0,0,1,1.965-.629,3.091,3.091,0,0,1,2.041.649,2.063,2.063,0,0,1,.783,1.661H266.54a1.142,1.142,0,0,0-.441-.9,1.652,1.652,0,0,0-1.111-.376,1.729,1.729,0,0,0-1.08.3.947.947,0,0,0-.39.786.767.767,0,0,0,.362.69,4.458,4.458,0,0,0,1.309.444,6.821,6.821,0,0,1,1.535.506,2.238,2.238,0,0,1,.872.708,1.74,1.74,0,0,1,.284,1.008,1.893,1.893,0,0,1-.793,1.589,3.326,3.326,0,0,1-2.058.6,3.725,3.725,0,0,1-1.572-.314,2.557,2.557,0,0,1-1.07-.878,2.117,2.117,0,0,1-.386-1.22h1.265a1.309,1.309,0,0,0,.509,1.008,1.976,1.976,0,0,0,1.254.373,2.039,2.039,0,0,0,1.152-.291A.893.893,0,0,0,266.615,11.038ZM274.094,13a2.657,2.657,0,0,1-.178-.779,2.822,2.822,0,0,1-2.105.916,2.611,2.611,0,0,1-1.794-.619,2,2,0,0,1-.7-1.569,2.091,2.091,0,0,1,.878-1.794,4.141,4.141,0,0,1,2.471-.639h1.23V7.935a1.42,1.42,0,0,0-.4-1.056,1.593,1.593,0,0,0-1.169-.393,1.844,1.844,0,0,0-1.135.342,1.007,1.007,0,0,0-.458.827h-1.271a1.745,1.745,0,0,1,.393-1.07,2.683,2.683,0,0,1,1.066-.817,3.588,3.588,0,0,1,1.48-.3,2.924,2.924,0,0,1,2,.639,2.306,2.306,0,0,1,.752,1.76v3.4a4.162,4.162,0,0,0,.26,1.62V13Zm-2.1-.964a2.223,2.223,0,0,0,1.128-.308,1.861,1.861,0,0,0,.772-.8V9.411H272.9q-2.324,0-2.324,1.36a1.151,1.151,0,0,0,.4.93A1.524,1.524,0,0,0,272,12.036Zm6.521.964h-1.265V2.5h1.265Zm6.59,0a2.657,2.657,0,0,1-.178-.779,2.822,2.822,0,0,1-2.105.916,2.611,2.611,0,0,1-1.794-.619,2,2,0,0,1-.7-1.569,2.091,2.091,0,0,1,.878-1.794,4.141,4.141,0,0,1,2.471-.639h1.23V7.935a1.42,1.42,0,0,0-.4-1.056,1.593,1.593,0,0,0-1.169-.393,1.844,1.844,0,0,0-1.135.342,1.007,1.007,0,0,0-.458.827h-1.271a1.745,1.745,0,0,1,.393-1.07,2.683,2.683,0,0,1,1.066-.817,3.588,3.588,0,0,1,1.48-.3,2.924,2.924,0,0,1,2,.639,2.306,2.306,0,0,1,.752,1.76v3.4a4.162,4.162,0,0,0,.26,1.62V13Zm-2.1-.964a2.223,2.223,0,0,0,1.128-.308,1.861,1.861,0,0,0,.772-.8V9.411h-.991q-2.324,0-2.324,1.36a1.151,1.151,0,0,0,.4.93A1.524,1.524,0,0,0,283.008,12.036Zm8.723-5.3a3.79,3.79,0,0,0-.622-.048,1.667,1.667,0,0,0-1.688,1.06V13h-1.265V5.6h1.23l.021.854a1.969,1.969,0,0,1,1.764-.991,1.292,1.292,0,0,1,.561.1ZM294.267,13H293V5.6h1.265ZM292.9,3.642a.755.755,0,0,1,.188-.52.706.706,0,0,1,.557-.212.717.717,0,0,1,.561.212.747.747,0,0,1,.191.52.722.722,0,0,1-.191.513.73.73,0,0,1-.561.205.718.718,0,0,1-.557-.205A.73.73,0,0,1,292.9,3.642ZM300.856,13a2.657,2.657,0,0,1-.178-.779,2.822,2.822,0,0,1-2.105.916,2.611,2.611,0,0,1-1.794-.619,2,2,0,0,1-.7-1.569,2.091,2.091,0,0,1,.878-1.794,4.141,4.141,0,0,1,2.471-.639h1.23V7.935a1.42,1.42,0,0,0-.4-1.056,1.593,1.593,0,0,0-1.169-.393,1.844,1.844,0,0,0-1.135.342,1.007,1.007,0,0,0-.458.827h-1.271a1.745,1.745,0,0,1,.393-1.07,2.683,2.683,0,0,1,1.066-.817,3.588,3.588,0,0,1,1.48-.3,2.924,2.924,0,0,1,2,.639,2.306,2.306,0,0,1,.752,1.76v3.4a4.162,4.162,0,0,0,.26,1.62V13Zm-2.1-.964a2.223,2.223,0,0,0,1.128-.308,1.861,1.861,0,0,0,.772-.8V9.411h-.991q-2.324,0-2.324,1.36a1.151,1.151,0,0,0,.4.93A1.524,1.524,0,0,0,298.758,12.036Zm6.521.964h-1.265V2.5h1.265Z" transform="translate(-10499.396 -3707.308)" fill="#12263f"/>
    <path id="Trazado_815782" data-name="Trazado 815782" d="M-10494.354-3608.448l80.463,82.588,86.792,4.666,46.108-16.8,39.779-53.186,32.548,26.126,40.684-37.323,42.491,24.26,45.2-46.654" transform="translate(-54.402 2.172)" fill="none" stroke="#1b3f5e" stroke-width="3"/>
    <path id="Trazado_815783" data-name="Trazado 815783" d="M-10494.354-3649l78.649,103.435,47.01,31.725,40.68-56.918,42.489-34.524,51.529,8.4,22.6,21.461,45.2-21.461h37.97l47.009-29.859" transform="translate(-54.402 4.148)" fill="none" stroke="#54a800" stroke-width="3"/>
    <g id="Grupo_1070903" data-name="Grupo 1070903" transform="translate(-10477.715 -3426.255)">
      <text id="IPC" transform="translate(65.108 12)" fill="#12263f" font-size="13" font-family="Roboto-Regular, Roboto"><tspan x="-10.099" y="0">IPC</tspan></text>
      <text id="Incremento_salario" data-name="Incremento salario" transform="translate(219.918 11)" fill="#12263f" font-size="12" font-family="Roboto-Regular, Roboto"><tspan x="-49.778" y="0">Incremento salario</tspan></text>
      <path id="Trazado_815784" data-name="Trazado 815784" d="M-10381-3389.069h47.071" transform="translate(10381 3397.272)" fill="none" stroke="#1b3f5e" stroke-width="3"/>
      <path id="Trazado_815785" data-name="Trazado 815785" d="M-10381-3389.069h47.071" transform="translate(10493.054 3397.272)" fill="none" stroke="#54a800" stroke-width="3"/>
    </g>
    <path id="Trazado_819719" data-name="Trazado 819719" d="M0,0H505V323H0Z" transform="translate(-10606 -3724.496)" fill="none"/>
  </g>
</svg>
