<svg xmlns="http://www.w3.org/2000/svg" xmlns:xlink="http://www.w3.org/1999/xlink" width="505" height="257" viewBox="0 0 505 257">
  <defs>
    <clipPath id="clip-path">
      <rect id="Rectángulo_376081" data-name="Rectángulo 376081" width="233.438" height="239.51" fill="none"/>
    </clipPath>
  </defs>
  <g id="Grupo_1072683" data-name="Grupo 1072683" transform="translate(9344 3651.496)">
    <g id="Grupo_1070909" data-name="Grupo 1070909" transform="translate(-9219.938 -3642.751)">
      <g id="Grupo_1070908" data-name="Grupo 1070908" clip-path="url(#clip-path)">
        <path id="Trazado_815786" data-name="Trazado 815786" d="M96.811,75.266l54.552,94.486c-34.754,20.06-74.345,20.06-109.107,0Z" transform="translate(27.523 49.023)" fill="#f3c398"/>
        <path id="Trazado_815787" data-name="Trazado 815787" d="M75.293,75.266l94.486,54.557a104.149,104.149,0,0,1-39.934,39.929Z" transform="translate(49.041 49.023)" fill="#faa61a"/>
        <path id="Trazado_815788" data-name="Trazado 815788" d="M75.293,118.3V9.194A109.107,109.107,0,0,1,184.4,118.3a104.265,104.265,0,0,1-14.618,54.557Z" transform="translate(49.041 5.988)" fill="#bff588"/>
        <path id="Trazado_815789" data-name="Trazado 815789" d="M124.334,0C78.736,0,39.507,22.658,16.7,62.15A123.588,123.588,0,0,0,0,124.086a125.007,125.007,0,0,0,4.287,32.374A123.473,123.473,0,0,0,62.2,231.924l13.14,7.586,64.173-111.156V0Z" fill="#3b5620"/>
      </g>
    </g>
    <path id="Trazado_819740" data-name="Trazado 819740" d="M-18.836-7.293l.913-7.637H-9.2v2.687h-5.917l-.338,2.966a4.076,4.076,0,0,1,.969-.381,4.421,4.421,0,0,1,1.174-.165A4.38,4.38,0,0,1-9.89-8.506,5.308,5.308,0,0,1-8.7-4.809a5.3,5.3,0,0,1-.641,2.6,4.4,4.4,0,0,1-1.8,1.789,5.681,5.681,0,0,1-2.738.625,6.113,6.113,0,0,1-2.635-.579,4.728,4.728,0,0,1-1.928-1.588,3.859,3.859,0,0,1-.687-2.28h3.466a1.96,1.96,0,0,0,.523,1.3,1.66,1.66,0,0,0,1.241.481q1.743,0,1.743-2.579,0-2.384-2.133-2.384a2.128,2.128,0,0,0-1.8.778ZM3.486-6.1A7.129,7.129,0,0,1,2.128-1.436,4.7,4.7,0,0,1-1.7.205,4.72,4.72,0,0,1-5.558-1.446,7.118,7.118,0,0,1-6.921-6.1V-8.829a7.129,7.129,0,0,1,1.359-4.666,4.707,4.707,0,0,1,3.84-1.641,4.709,4.709,0,0,1,3.845,1.651A7.135,7.135,0,0,1,3.486-8.818ZM.031-9.27a5.325,5.325,0,0,0-.42-2.4,1.405,1.405,0,0,0-1.333-.795,1.372,1.372,0,0,0-1.3.738A5.016,5.016,0,0,0-3.456-9.5v3.814a5.365,5.365,0,0,0,.42,2.446A1.411,1.411,0,0,0-1.7-2.461,1.392,1.392,0,0,0-.4-3.215,5.122,5.122,0,0,0,.031-5.578Zm5.26-2.789a2.93,2.93,0,0,1,.9-2.235,3.383,3.383,0,0,1,2.42-.851,3.388,3.388,0,0,1,2.43.846,3.008,3.008,0,0,1,.892,2.292v.738a2.915,2.915,0,0,1-.892,2.225,3.371,3.371,0,0,1-2.41.841,3.462,3.462,0,0,1-2.425-.836,2.944,2.944,0,0,1-.918-2.292Zm2.225.787a1.239,1.239,0,0,0,.3.861,1.046,1.046,0,0,0,.82.331q1.077,0,1.077-1.365v-.611a1.307,1.307,0,0,0-.287-.871,1,1,0,0,0-.81-.341,1.022,1.022,0,0,0-.8.331,1.3,1.3,0,0,0-.3.9Zm4.871,7.611A2.9,2.9,0,0,1,13.294-5.9a3.412,3.412,0,0,1,2.415-.841,3.448,3.448,0,0,1,2.43.831,2.992,2.992,0,0,1,.9,2.317v.718a2.927,2.927,0,0,1-.892,2.235,3.385,3.385,0,0,1-2.42.841A3.462,3.462,0,0,1,13.3-.631a2.944,2.944,0,0,1-.918-2.292Zm2.215.787a1.212,1.212,0,0,0,.328.841,1.04,1.04,0,0,0,.8.362.943.943,0,0,0,1.077-.937l.01-1.049a1.254,1.254,0,0,0-.3-.871,1.034,1.034,0,0,0-.81-.331,1.042,1.042,0,0,0-.79.311,1.238,1.238,0,0,0-.318.841ZM9.29-1.118l-1.61-.81L14.971-13.6l1.61.81Z" transform="translate(-9143.486 -3535.155)" fill="#fff"/>
    <path id="Trazado_819741" data-name="Trazado 819741" d="M-8.624,0H-19.042V-2.256l4.8-5.045q1.774-2.02,1.774-3.209a2.232,2.232,0,0,0-.42-1.466,1.5,1.5,0,0,0-1.22-.5,1.52,1.52,0,0,0-1.282.672,2.76,2.76,0,0,0-.492,1.677h-3.466a4.9,4.9,0,0,1,.687-2.538,4.818,4.818,0,0,1,1.907-1.82,5.665,5.665,0,0,1,2.728-.656A5.573,5.573,0,0,1-10.3-14.027a3.99,3.99,0,0,1,1.307,3.209A4.661,4.661,0,0,1-9.321-9.1a7.532,7.532,0,0,1-1.02,1.753,25.7,25.7,0,0,1-2.23,2.456L-14.5-2.666h5.875Zm1.948-7.293.913-7.637H2.963v2.687H-2.953l-.338,2.966a4.076,4.076,0,0,1,.969-.381,4.421,4.421,0,0,1,1.174-.165,4.38,4.38,0,0,1,3.42,1.318,5.308,5.308,0,0,1,1.195,3.7,5.3,5.3,0,0,1-.641,2.6A4.4,4.4,0,0,1,1.025-.42,5.681,5.681,0,0,1-1.712.205,6.113,6.113,0,0,1-4.348-.374,4.728,4.728,0,0,1-6.275-1.962a3.859,3.859,0,0,1-.687-2.28H-3.5a1.96,1.96,0,0,0,.523,1.3,1.66,1.66,0,0,0,1.241.481Q.01-2.461.01-5.04q0-2.384-2.133-2.384a2.128,2.128,0,0,0-1.8.778ZM5.291-12.059a2.93,2.93,0,0,1,.9-2.235,3.383,3.383,0,0,1,2.42-.851,3.388,3.388,0,0,1,2.43.846,3.008,3.008,0,0,1,.892,2.292v.738a2.915,2.915,0,0,1-.892,2.225,3.371,3.371,0,0,1-2.41.841,3.462,3.462,0,0,1-2.425-.836,2.944,2.944,0,0,1-.918-2.292Zm2.225.787a1.239,1.239,0,0,0,.3.861,1.046,1.046,0,0,0,.82.331q1.077,0,1.077-1.365v-.611a1.307,1.307,0,0,0-.287-.871,1,1,0,0,0-.81-.341,1.022,1.022,0,0,0-.8.331,1.3,1.3,0,0,0-.3.9Zm4.871,7.611A2.9,2.9,0,0,1,13.294-5.9a3.412,3.412,0,0,1,2.415-.841,3.448,3.448,0,0,1,2.43.831,2.992,2.992,0,0,1,.9,2.317v.718a2.927,2.927,0,0,1-.892,2.235,3.385,3.385,0,0,1-2.42.841A3.462,3.462,0,0,1,13.3-.631a2.944,2.944,0,0,1-.918-2.292Zm2.215.787a1.212,1.212,0,0,0,.328.841,1.04,1.04,0,0,0,.8.362.943.943,0,0,0,1.077-.937l.01-1.049a1.254,1.254,0,0,0-.3-.871,1.034,1.034,0,0,0-.81-.331,1.042,1.042,0,0,0-.79.311,1.238,1.238,0,0,0-.318.841ZM9.29-1.118l-1.61-.81L14.971-13.6l1.61.81Z" transform="translate(-9036.135 -3535.155)" fill="#12263f"/>
    <path id="Trazado_819742" data-name="Trazado 819742" d="M-11.382,0h-3.466V-11.033l-3.4.995v-2.625L-11.7-14.93h.318Zm4.707-7.293.913-7.637H2.963v2.687H-2.953l-.338,2.966a4.076,4.076,0,0,1,.969-.381,4.421,4.421,0,0,1,1.174-.165,4.38,4.38,0,0,1,3.42,1.318,5.308,5.308,0,0,1,1.195,3.7,5.3,5.3,0,0,1-.641,2.6A4.4,4.4,0,0,1,1.025-.42,5.681,5.681,0,0,1-1.712.205,6.113,6.113,0,0,1-4.348-.374,4.728,4.728,0,0,1-6.275-1.962a3.859,3.859,0,0,1-.687-2.28H-3.5a1.96,1.96,0,0,0,.523,1.3,1.66,1.66,0,0,0,1.241.481Q.01-2.461.01-5.04q0-2.384-2.133-2.384a2.128,2.128,0,0,0-1.8.778ZM5.291-12.059a2.93,2.93,0,0,1,.9-2.235,3.383,3.383,0,0,1,2.42-.851,3.388,3.388,0,0,1,2.43.846,3.008,3.008,0,0,1,.892,2.292v.738a2.915,2.915,0,0,1-.892,2.225,3.371,3.371,0,0,1-2.41.841,3.462,3.462,0,0,1-2.425-.836,2.944,2.944,0,0,1-.918-2.292Zm2.225.787a1.239,1.239,0,0,0,.3.861,1.046,1.046,0,0,0,.82.331q1.077,0,1.077-1.365v-.611a1.307,1.307,0,0,0-.287-.871,1,1,0,0,0-.81-.341,1.022,1.022,0,0,0-.8.331,1.3,1.3,0,0,0-.3.9Zm4.871,7.611A2.9,2.9,0,0,1,13.294-5.9a3.412,3.412,0,0,1,2.415-.841,3.448,3.448,0,0,1,2.43.831,2.992,2.992,0,0,1,.9,2.317v.718a2.927,2.927,0,0,1-.892,2.235,3.385,3.385,0,0,1-2.42.841A3.462,3.462,0,0,1,13.3-.631a2.944,2.944,0,0,1-.918-2.292Zm2.215.787a1.212,1.212,0,0,0,.328.841,1.04,1.04,0,0,0,.8.362.943.943,0,0,0,1.077-.937l.01-1.049a1.254,1.254,0,0,0-.3-.871,1.034,1.034,0,0,0-.81-.331,1.042,1.042,0,0,0-.79.311,1.238,1.238,0,0,0-.318.841ZM9.29-1.118l-1.61-.81L14.971-13.6l1.61.81Z" transform="translate(-9090.736 -3437.059)" fill="#12263f"/>
    <path id="Trazado_819743" data-name="Trazado 819743" d="M-8.672,0h-2.641V-8.406l-2.594.758v-2l4.992-1.727h.242ZM2.656-4.648A5.431,5.431,0,0,1,1.621-1.094,3.577,3.577,0,0,1-1.3.156,3.6,3.6,0,0,1-4.234-1.1,5.423,5.423,0,0,1-5.273-4.648V-6.727a5.431,5.431,0,0,1,1.035-3.555,3.586,3.586,0,0,1,2.926-1.25,3.587,3.587,0,0,1,2.93,1.258A5.436,5.436,0,0,1,2.656-6.719ZM.023-7.062A4.057,4.057,0,0,0-.3-8.895,1.071,1.071,0,0,0-1.312-9.5a1.045,1.045,0,0,0-.988.563,3.822,3.822,0,0,0-.332,1.7v2.906a4.088,4.088,0,0,0,.32,1.863,1.075,1.075,0,0,0,1.016.59A1.06,1.06,0,0,0-.3-2.449a3.9,3.9,0,0,0,.328-1.8ZM4.031-9.187a2.233,2.233,0,0,1,.688-1.7,2.578,2.578,0,0,1,1.844-.648,2.581,2.581,0,0,1,1.852.645,2.292,2.292,0,0,1,.68,1.746v.563a2.221,2.221,0,0,1-.68,1.7,2.568,2.568,0,0,1-1.836.641A2.638,2.638,0,0,1,4.73-6.887a2.243,2.243,0,0,1-.7-1.746Zm1.7.6a.944.944,0,0,0,.227.656.8.8,0,0,0,.625.252q.82,0,.82-1.04v-.466a1,1,0,0,0-.219-.664.762.762,0,0,0-.617-.26.778.778,0,0,0-.609.252.991.991,0,0,0-.227.687Zm3.711,5.8a2.211,2.211,0,0,1,.691-1.7,2.6,2.6,0,0,1,1.84-.641A2.627,2.627,0,0,1,13.82-4.5a2.28,2.28,0,0,1,.688,1.766v.547a2.23,2.23,0,0,1-.68,1.7,2.579,2.579,0,0,1-1.844.641A2.638,2.638,0,0,1,10.137-.48a2.243,2.243,0,0,1-.7-1.746Zm1.688.6a.924.924,0,0,0,.25.64.792.792,0,0,0,.609.276.718.718,0,0,0,.82-.714l.008-.8a.956.956,0,0,0-.227-.664.788.788,0,0,0-.617-.252.794.794,0,0,0-.6.237.943.943,0,0,0-.242.64ZM7.078-.852,5.852-1.469l5.555-8.891,1.227.617Z" transform="translate(-9041.135 -3459.642)" fill="#fff"/>
    <path id="Trazado_819744" data-name="Trazado 819744" d="M0,0H505V257H0Z" transform="translate(-9344 -3651.496)" fill="none"/>
  </g>
</svg>
