<svg id="Grupo_1070198" data-name="Grupo 1070198" xmlns="http://www.w3.org/2000/svg" xmlns:xlink="http://www.w3.org/1999/xlink" width="302.19" height="264.153" viewBox="0 0 302.19 264.153">
  <defs>
    <clipPath id="clip-path">
      <rect id="Rectángulo_375489" data-name="Rectángulo 375489" width="302.19" height="264.153" fill="none"/>
    </clipPath>
    <clipPath id="clip-path-3">
      <rect id="Rectángulo_375411" data-name="Rectángulo 375411" width="177.145" height="10.915" fill="none"/>
    </clipPath>
    <clipPath id="clip-path-10">
      <rect id="Rectángulo_375434" data-name="Rectángulo 375434" width="74.745" height="74.937" fill="none"/>
    </clipPath>
    <clipPath id="clip-path-11">
      <rect id="Rectángulo_375435" data-name="Rectángulo 375435" width="74.745" height="136.282" fill="none"/>
    </clipPath>
    <clipPath id="clip-path-12">
      <rect id="Rectángulo_375478" data-name="Rectángulo 375478" width="149.956" height="145.084" fill="#fff"/>
    </clipPath>
    <clipPath id="clip-path-13">
      <rect id="Rectángulo_375436" data-name="Rectángulo 375436" width="16.98" height="28.103" fill="#fff"/>
    </clipPath>
    <clipPath id="clip-path-14">
      <rect id="Rectángulo_375437" data-name="Rectángulo 375437" width="13.541" height="22.411" fill="#fff"/>
    </clipPath>
    <clipPath id="clip-path-15">
      <rect id="Rectángulo_375438" data-name="Rectángulo 375438" width="13.542" height="22.411" fill="#fff"/>
    </clipPath>
    <clipPath id="clip-path-16">
      <rect id="Rectángulo_375439" data-name="Rectángulo 375439" width="10.976" height="18.165" fill="#fff"/>
    </clipPath>
    <clipPath id="clip-path-19">
      <rect id="Rectángulo_375442" data-name="Rectángulo 375442" width="10.975" height="18.165" fill="#fff"/>
    </clipPath>
    <clipPath id="clip-path-30">
      <rect id="Rectángulo_375453" data-name="Rectángulo 375453" width="9.615" height="15.914" fill="#fff"/>
    </clipPath>
    <clipPath id="clip-path-34">
      <rect id="Rectángulo_375457" data-name="Rectángulo 375457" width="9.614" height="15.914" fill="#fff"/>
    </clipPath>
    <clipPath id="clip-path-56">
      <rect id="Rectángulo_375480" data-name="Rectángulo 375480" width="12.489" height="12.808" fill="none"/>
    </clipPath>
    <clipPath id="clip-path-57">
      <rect id="Rectángulo_375481" data-name="Rectángulo 375481" width="7.189" height="8.835" fill="none"/>
    </clipPath>
    <clipPath id="clip-path-58">
      <rect id="Rectángulo_375482" data-name="Rectángulo 375482" width="6.842" height="7.337" fill="none"/>
    </clipPath>
    <clipPath id="clip-path-59">
      <rect id="Rectángulo_375483" data-name="Rectángulo 375483" width="5.77" height="22.138" fill="none"/>
    </clipPath>
    <clipPath id="clip-path-60">
      <rect id="Rectángulo_375484" data-name="Rectángulo 375484" width="5.733" height="6.313" fill="none"/>
    </clipPath>
    <clipPath id="clip-path-61">
      <rect id="Rectángulo_375486" data-name="Rectángulo 375486" width="9.407" height="36.517" fill="none"/>
    </clipPath>
  </defs>
  <g id="Grupo_1070197" data-name="Grupo 1070197" clip-path="url(#clip-path)">
    <rect id="Rectángulo_375405" data-name="Rectángulo 375405" width="176.452" height="131.804" fill="#e6e6e6"/>
    <rect id="Rectángulo_375406" data-name="Rectángulo 375406" width="179.32" height="131.804" transform="translate(2.516)" fill="#f0f0f0"/>
    <rect id="Rectángulo_375407" data-name="Rectángulo 375407" width="176.452" height="7.897" transform="translate(0 131.805)" fill="#e6e6e6"/>
    <rect id="Rectángulo_375408" data-name="Rectángulo 375408" width="179.32" height="7.897" transform="translate(11.143 132.077)" fill="#f0f0f0"/>
    <rect id="Rectángulo_375409" data-name="Rectángulo 375409" width="164.245" height="117.222" transform="translate(10.053 7.292)" fill="#fafafa"/>
    <path id="Trazado_814540" data-name="Trazado 814540" d="M58.8,126.635,79.775,9.413H112.51L91.532,126.635Z" transform="translate(-11.708 -2.12)" fill="#fff"/>
    <g id="Grupo_1070024" data-name="Grupo 1070024">
      <g id="Grupo_1070023" data-name="Grupo 1070023" clip-path="url(#clip-path)">
        <path id="Trazado_814541" data-name="Trazado 814541" d="M16.776,120.6a.53.53,0,0,1-.538-.521V15.383a.538.538,0,0,1,1.076,0v104.7a.53.53,0,0,1-.538.521" transform="translate(-3.233 -3.348)" fill="#f0f0f0"/>
        <path id="Trazado_814542" data-name="Trazado 814542" d="M108.452,126.635,129.43,9.413h12.762L121.214,126.635Z" transform="translate(-21.596 -2.12)" fill="#fff"/>
        <rect id="Rectángulo_375410" data-name="Rectángulo 375410" width="0.957" height="117.222" transform="translate(173.341 7.292)" fill="#e6e6e6"/>
        <g id="Grupo_1070007" data-name="Grupo 1070007" transform="translate(6.473 10.126)" opacity="0.6">
          <g id="Grupo_1070006" data-name="Grupo 1070006">
            <g id="Grupo_1070005" data-name="Grupo 1070005" clip-path="url(#clip-path-3)">
              <path id="Trazado_814543" data-name="Trazado 814543" d="M185.228,23.985H8.776L8.082,13.07H184.534Z" transform="translate(-8.082 -13.07)" fill="#ebebeb"/>
            </g>
          </g>
        </g>
        <g id="Grupo_1070010" data-name="Grupo 1070010" transform="translate(6.473 28.027)" opacity="0.6">
          <g id="Grupo_1070009" data-name="Grupo 1070009">
            <g id="Grupo_1070008" data-name="Grupo 1070008" clip-path="url(#clip-path-3)">
              <path id="Trazado_814544" data-name="Trazado 814544" d="M185.228,47.092H8.776L8.082,36.177H184.534Z" transform="translate(-8.082 -36.177)" fill="#ebebeb"/>
            </g>
          </g>
        </g>
        <g id="Grupo_1070013" data-name="Grupo 1070013" transform="translate(6.473 45.929)" opacity="0.6">
          <g id="Grupo_1070012" data-name="Grupo 1070012">
            <g id="Grupo_1070011" data-name="Grupo 1070011" clip-path="url(#clip-path-3)">
              <path id="Trazado_814545" data-name="Trazado 814545" d="M185.228,70.2H8.776L8.082,59.284H184.534Z" transform="translate(-8.082 -59.284)" fill="#ebebeb"/>
            </g>
          </g>
        </g>
        <g id="Grupo_1070016" data-name="Grupo 1070016" transform="translate(6.473 63.831)" opacity="0.6">
          <g id="Grupo_1070015" data-name="Grupo 1070015">
            <g id="Grupo_1070014" data-name="Grupo 1070014" clip-path="url(#clip-path-3)">
              <path id="Trazado_814546" data-name="Trazado 814546" d="M185.228,93.306H8.776L8.082,82.391H184.534Z" transform="translate(-8.082 -82.391)" fill="#ebebeb"/>
            </g>
          </g>
        </g>
        <g id="Grupo_1070019" data-name="Grupo 1070019" transform="translate(6.473 81.733)" opacity="0.6">
          <g id="Grupo_1070018" data-name="Grupo 1070018">
            <g id="Grupo_1070017" data-name="Grupo 1070017" clip-path="url(#clip-path-3)">
              <path id="Trazado_814547" data-name="Trazado 814547" d="M185.228,116.413H8.776L8.082,105.5H184.534Z" transform="translate(-8.082 -105.498)" fill="#ebebeb"/>
            </g>
          </g>
        </g>
        <g id="Grupo_1070022" data-name="Grupo 1070022" transform="translate(6.473 99.634)" opacity="0.6">
          <g id="Grupo_1070021" data-name="Grupo 1070021">
            <g id="Grupo_1070020" data-name="Grupo 1070020" clip-path="url(#clip-path-3)">
              <path id="Trazado_814548" data-name="Trazado 814548" d="M185.228,139.52H8.776L8.082,128.6H184.534Z" transform="translate(-8.082 -128.605)" fill="#ebebeb"/>
            </g>
          </g>
        </g>
        <path id="Trazado_814549" data-name="Trazado 814549" d="M363.26,64.176H306.689l2.733-24.4c1.3-11.581,11.4-20.356,23.445-20.356h4.217c12.041,0,22.149,8.775,23.446,20.356Z" transform="translate(-61.07 -4.374)" fill="#ebebeb"/>
        <rect id="Rectángulo_375417" data-name="Rectángulo 375417" width="5.657" height="178.135" transform="translate(271.076 59.801)" fill="#f0f0f0"/>
        <path id="Trazado_814550" data-name="Trazado 814550" d="M342.095,122.975h-2.8a3.832,3.832,0,0,1-3.883-3.756V102.16a3.832,3.832,0,0,1,3.883-3.756h2.8a3.832,3.832,0,0,1,3.883,3.756v17.059a3.832,3.832,0,0,1-3.883,3.756" transform="translate(-66.789 -22.167)" fill="#f0f0f0"/>
        <path id="Trazado_814551" data-name="Trazado 814551" d="M342.095,173.788h-2.8a3.832,3.832,0,0,1-3.883-3.756V152.973a3.832,3.832,0,0,1,3.883-3.756h2.8a3.832,3.832,0,0,1,3.883,3.756v17.059a3.832,3.832,0,0,1-3.883,3.756" transform="translate(-66.789 -33.614)" fill="#f0f0f0"/>
        <path id="Trazado_814552" data-name="Trazado 814552" d="M355.825,306.047H319.044a3.757,3.757,0,0,1,3.818-3.693h29.145a3.757,3.757,0,0,1,3.818,3.693" transform="translate(-63.53 -68.111)" fill="#f0f0f0"/>
        <rect id="Rectángulo_375418" data-name="Rectángulo 375418" width="5.657" height="3.345" transform="translate(271.076 59.801)" fill="#e0e0e0"/>
        <rect id="Rectángulo_375419" data-name="Rectángulo 375419" width="22.573" height="81.484" transform="translate(194.078 156.453)" fill="#e6e6e6"/>
        <path id="Trazado_814553" data-name="Trazado 814553" d="M253.02,303.852h11.593V292.6H240.865Z" transform="translate(-47.963 -65.914)" fill="#fafafa"/>
        <rect id="Rectángulo_375420" data-name="Rectángulo 375420" width="22.573" height="81.484" transform="translate(6.964 156.453)" fill="#e6e6e6"/>
        <rect id="Rectángulo_375421" data-name="Rectángulo 375421" width="197.232" height="77.612" transform="translate(19.419 156.454)" fill="#fafafa"/>
        <path id="Trazado_814554" data-name="Trazado 814554" d="M35.84,303.852H24.247V292.6H47.995Z" transform="translate(-4.828 -65.914)" fill="#fafafa"/>
        <rect id="Rectángulo_375422" data-name="Rectángulo 375422" width="179.245" height="19.423" transform="translate(28.412 185.375)" fill="#f0f0f0"/>
        <rect id="Rectángulo_375423" data-name="Rectángulo 375423" width="179.245" height="19.423" transform="translate(28.412 208.948)" fill="#f0f0f0"/>
        <rect id="Rectángulo_375424" data-name="Rectángulo 375424" width="179.245" height="19.423" transform="translate(28.412 161.8)" fill="#f0f0f0"/>
        <rect id="Rectángulo_375425" data-name="Rectángulo 375425" width="0.76" height="19.423" transform="translate(206.897 185.375)" fill="#e0e0e0"/>
        <rect id="Rectángulo_375426" data-name="Rectángulo 375426" width="0.76" height="19.423" transform="translate(206.897 208.948)" fill="#e0e0e0"/>
        <rect id="Rectángulo_375427" data-name="Rectángulo 375427" width="0.76" height="19.423" transform="translate(206.897 161.8)" fill="#e0e0e0"/>
      </g>
    </g>
    <g id="Grupo_1070170" data-name="Grupo 1070170">
      <g id="Grupo_1070169" data-name="Grupo 1070169" clip-path="url(#clip-path)">
        <path id="Trazado_814555" data-name="Trazado 814555" d="M288.979,181.02a86.6,86.6,0,0,1-58.529,22.194A90.244,90.244,0,0,1,196.3,196.53v11.687a90.245,90.245,0,0,0,34.155,6.684,86.611,86.611,0,0,0,58.529-22.193c13.776-12.523,22.143-28.542,24.024-45.742V135.279c-1.88,17.2-10.248,33.219-24.024,45.741" transform="translate(-39.088 -30.474)" fill="#839571"/>
        <path id="Trazado_814557" data-name="Trazado 814557" d="M313,135.279c-1.88,17.2-10.248,33.218-24.024,45.741a86.6,86.6,0,0,1-58.529,22.194A90.244,90.244,0,0,1,196.3,196.53l38.9-61.251Z" transform="translate(-39.088 -30.474)" fill="#afc797"/>
        <rect id="Rectángulo_375430" data-name="Rectángulo 375430" width="64.92" height="11.688" transform="translate(208.986 85.283)" fill="#233313"/>
        <path id="Trazado_814558" data-name="Trazado 814558" d="M302.677,51.733a76.423,76.423,0,0,1,15.836,20.8,70.712,70.712,0,0,1,7.353,24.4h-64.92Z" transform="translate(-51.961 -11.654)" fill="#2f4419" opacity="0.79"/>
        <path id="Trazado_814560" data-name="Trazado 814560" d="M287.757,37.858V49.545L249.206,91.311V79.624Z" transform="translate(-49.624 -8.528)" fill="#233313"/>
        <path id="Trazado_814561" data-name="Trazado 814561" d="M249.206,21.4a90.236,90.236,0,0,1,20.158,4.177,86.484,86.484,0,0,1,18.393,8.576L249.206,75.915Z" transform="translate(-49.623 -4.82)" fill="#3b5620"/>
        <path id="Trazado_814562" data-name="Trazado 814562" d="M169.932,182.3c-21.5-14.06-34.568-36.9-34.568-61.241v11.688c0,24.344,13.069,47.182,34.568,61.241l40.177-63.248V119.053Z" transform="translate(-26.955 -26.819)" fill="#3b5620"/>
        <g id="Grupo_1070036" data-name="Grupo 1070036" transform="translate(108.411 92.234)" opacity="0.3">
          <g id="Grupo_1070035" data-name="Grupo 1070035">
            <g id="Grupo_1070034" data-name="Grupo 1070034" clip-path="url(#clip-path-10)">
              <path id="Trazado_814563" data-name="Trazado 814563" d="M169.932,182.3c-21.5-14.06-34.568-36.9-34.568-61.241v11.688c0,24.344,13.069,47.182,34.568,61.241l40.177-63.248V119.053Z" transform="translate(-135.365 -119.053)" fill="#fff"/>
            </g>
          </g>
        </g>
        <path id="Trazado_814564" data-name="Trazado 814564" d="M210.11,24.783V97.818l-40.177,63.248c-21.5-14.06-34.567-36.9-34.567-61.242,0-19.994,8.673-38.894,24.425-53.2a86.05,86.05,0,0,1,50.32-21.838" transform="translate(-26.955 -5.583)" fill="#3b5620"/>
        <g id="Grupo_1070039" data-name="Grupo 1070039" transform="translate(108.411 19.2)" opacity="0.5">
          <g id="Grupo_1070038" data-name="Grupo 1070038">
            <g id="Grupo_1070037" data-name="Grupo 1070037" clip-path="url(#clip-path-11)">
              <path id="Trazado_814565" data-name="Trazado 814565" d="M210.11,24.783V97.818l-40.177,63.248c-21.5-14.06-34.567-36.9-34.567-61.242,0-19.994,8.673-38.894,24.425-53.2a86.05,86.05,0,0,1,50.32-21.838" transform="translate(-135.365 -24.783)" fill="#fff"/>
            </g>
          </g>
        </g>
        <g id="Grupo_1070168" data-name="Grupo 1070168" transform="translate(114.112 22.421)" opacity="0.37">
          <g id="Grupo_1070167" data-name="Grupo 1070167">
            <g id="Grupo_1070166" data-name="Grupo 1070166" clip-path="url(#clip-path-12)">
              <path id="Trazado_814566" data-name="Trazado 814566" d="M263.264,34.692a2.878,2.878,0,1,0-2.974-2.877,2.926,2.926,0,0,0,2.974,2.877" transform="translate(-165.943 -28.94)" fill="#fff"/>
              <path id="Trazado_814567" data-name="Trazado 814567" d="M269.611,40.833l-6.1-3.342a3.4,3.4,0,0,0-3.244,0l-6.09,3.34a1.469,1.469,0,0,0-.571,2.034,1.573,1.573,0,0,0,2.1.552l2.847-1.577V57.4a1.53,1.53,0,0,0,3.059,0V48.945c.091.008.183.014.276.014s.183-.006.275-.014V57.4a1.531,1.531,0,0,0,3.06,0V41.84l2.851,1.58a1.573,1.573,0,0,0,2.1-.552,1.469,1.469,0,0,0-.57-2.034" transform="translate(-164.572 -30.774)" fill="#fff"/>
              <g id="Grupo_1070042" data-name="Grupo 1070042" transform="translate(88.833)" opacity="0.8">
                <g id="Grupo_1070041" data-name="Grupo 1070041">
                  <g id="Grupo_1070040" data-name="Grupo 1070040" clip-path="url(#clip-path-13)">
                    <path id="Trazado_814568" data-name="Trazado 814568" d="M263.264,34.692a2.878,2.878,0,1,0-2.974-2.877,2.926,2.926,0,0,0,2.974,2.877" transform="translate(-254.776 -28.94)" fill="#fff"/>
                    <path id="Trazado_814569" data-name="Trazado 814569" d="M269.611,40.833l-6.1-3.342a3.4,3.4,0,0,0-3.244,0l-6.09,3.34a1.469,1.469,0,0,0-.571,2.034,1.573,1.573,0,0,0,2.1.552l2.847-1.577V57.4a1.53,1.53,0,0,0,3.059,0V48.945c.091.008.183.014.276.014s.183-.006.275-.014V57.4a1.531,1.531,0,0,0,3.06,0V41.84l2.851,1.58a1.573,1.573,0,0,0,2.1-.552,1.469,1.469,0,0,0-.57-2.034" transform="translate(-253.405 -30.774)" fill="#fff"/>
                  </g>
                </g>
              </g>
              <path id="Trazado_814570" data-name="Trazado 814570" d="M301.774,80.359a2.3,2.3,0,1,0-2.371-2.294,2.334,2.334,0,0,0,2.371,2.294" transform="translate(-173.732 -39.49)" fill="#fff"/>
              <path id="Trazado_814571" data-name="Trazado 814571" d="M306.836,85.256l-4.863-2.665a2.712,2.712,0,0,0-2.588,0l-4.856,2.664a1.171,1.171,0,0,0-.456,1.623,1.256,1.256,0,0,0,1.678.44l2.269-1.258v12.4a1.221,1.221,0,0,0,2.441,0V91.726c.072.005.145.011.219.011s.147-.005.219-.011v6.739a1.221,1.221,0,0,0,2.44,0V86.059l2.274,1.26a1.256,1.256,0,0,0,1.678-.44,1.173,1.173,0,0,0-.456-1.623" transform="translate(-172.638 -40.952)" fill="#fff"/>
              <g id="Grupo_1070045" data-name="Grupo 1070045" transform="translate(121.275 36.281)" opacity="0.8">
                <g id="Grupo_1070044" data-name="Grupo 1070044">
                  <g id="Grupo_1070043" data-name="Grupo 1070043" clip-path="url(#clip-path-14)">
                    <path id="Trazado_814572" data-name="Trazado 814572" d="M301.774,80.359a2.3,2.3,0,1,0-2.371-2.294,2.334,2.334,0,0,0,2.371,2.294" transform="translate(-295.006 -75.771)" fill="#fff"/>
                    <path id="Trazado_814573" data-name="Trazado 814573" d="M306.836,85.256l-4.863-2.665a2.712,2.712,0,0,0-2.588,0l-4.856,2.664a1.171,1.171,0,0,0-.456,1.623,1.256,1.256,0,0,0,1.678.44l2.269-1.258v12.4a1.221,1.221,0,0,0,2.441,0V91.726c.072.005.145.011.219.011s.147-.005.219-.011v6.739a1.221,1.221,0,0,0,2.44,0V86.059l2.274,1.26a1.256,1.256,0,0,0,1.678-.44,1.173,1.173,0,0,0-.456-1.623" transform="translate(-293.913 -77.233)" fill="#fff"/>
                  </g>
                </g>
              </g>
              <path id="Trazado_814574" data-name="Trazado 814574" d="M320.678,80.359a2.3,2.3,0,1,0-2.371-2.294,2.334,2.334,0,0,0,2.371,2.294" transform="translate(-177.496 -39.49)" fill="#fff"/>
              <path id="Trazado_814575" data-name="Trazado 814575" d="M325.741,85.256l-4.863-2.665a2.712,2.712,0,0,0-2.588,0l-4.857,2.664a1.172,1.172,0,0,0-.456,1.623,1.256,1.256,0,0,0,1.678.44l2.269-1.258v12.4a1.221,1.221,0,0,0,2.44,0V91.726c.073.005.146.011.22.011s.147-.005.219-.011v6.739a1.221,1.221,0,0,0,2.44,0V86.059l2.274,1.26a1.256,1.256,0,0,0,1.678-.44,1.173,1.173,0,0,0-.456-1.623" transform="translate(-176.402 -40.952)" fill="#fff"/>
              <g id="Grupo_1070048" data-name="Grupo 1070048" transform="translate(136.414 36.281)" opacity="0.8">
                <g id="Grupo_1070047" data-name="Grupo 1070047">
                  <g id="Grupo_1070046" data-name="Grupo 1070046" clip-path="url(#clip-path-15)">
                    <path id="Trazado_814576" data-name="Trazado 814576" d="M320.678,80.359a2.3,2.3,0,1,0-2.371-2.294,2.334,2.334,0,0,0,2.371,2.294" transform="translate(-313.909 -75.771)" fill="#fff"/>
                    <path id="Trazado_814577" data-name="Trazado 814577" d="M325.741,85.256l-4.863-2.665a2.712,2.712,0,0,0-2.588,0l-4.857,2.664a1.172,1.172,0,0,0-.456,1.623,1.256,1.256,0,0,0,1.678.44l2.269-1.258v12.4a1.221,1.221,0,0,0,2.44,0V91.726c.073.005.146.011.22.011s.147-.005.219-.011v6.739a1.221,1.221,0,0,0,2.44,0V86.059l2.274,1.26a1.256,1.256,0,0,0,1.678-.44,1.173,1.173,0,0,0-.456-1.623" transform="translate(-312.816 -77.233)" fill="#fff"/>
                  </g>
                </g>
              </g>
              <path id="Trazado_814578" data-name="Trazado 814578" d="M299.072,143.665a1.86,1.86,0,1,0-1.922-1.859,1.891,1.891,0,0,0,1.922,1.859" transform="translate(-173.283 -53.946)" fill="#fff"/>
              <path id="Trazado_814579" data-name="Trazado 814579" d="M303.175,147.634l-3.942-2.16a2.2,2.2,0,0,0-2.1,0l-3.936,2.159a.95.95,0,0,0-.369,1.316,1.018,1.018,0,0,0,1.359.357l1.84-1.02V158.34a.99.99,0,0,0,1.978,0v-5.462c.058,0,.118.009.178.009s.119,0,.179-.009v5.462a.989.989,0,0,0,1.977,0V148.284l1.843,1.022a1.018,1.018,0,0,0,1.36-.357.95.95,0,0,0-.369-1.316" transform="translate(-172.397 -55.132)" fill="#fff"/>
              <g id="Grupo_1070051" data-name="Grupo 1070051" transform="translate(120.303 86)" opacity="0.8">
                <g id="Grupo_1070050" data-name="Grupo 1070050">
                  <g id="Grupo_1070049" data-name="Grupo 1070049" clip-path="url(#clip-path-16)">
                    <path id="Trazado_814580" data-name="Trazado 814580" d="M299.072,143.665a1.86,1.86,0,1,0-1.922-1.859,1.891,1.891,0,0,0,1.922,1.859" transform="translate(-293.586 -139.946)" fill="#fff"/>
                    <path id="Trazado_814581" data-name="Trazado 814581" d="M303.175,147.634l-3.942-2.16a2.2,2.2,0,0,0-2.1,0l-3.936,2.159a.95.95,0,0,0-.369,1.316,1.018,1.018,0,0,0,1.359.357l1.84-1.02V158.34a.99.99,0,0,0,1.978,0v-5.462c.058,0,.118.009.178.009s.119,0,.179-.009v5.462a.989.989,0,0,0,1.977,0V148.284l1.843,1.022a1.018,1.018,0,0,0,1.36-.357.95.95,0,0,0-.369-1.316" transform="translate(-292.7 -141.131)" fill="#fff"/>
                  </g>
                </g>
              </g>
              <path id="Trazado_814582" data-name="Trazado 814582" d="M314.873,143.665a1.86,1.86,0,1,0-1.922-1.859,1.891,1.891,0,0,0,1.922,1.859" transform="translate(-176.429 -53.946)" fill="#fff"/>
              <path id="Trazado_814583" data-name="Trazado 814583" d="M318.975,147.634l-3.942-2.16a2.2,2.2,0,0,0-2.1,0L309,147.634a.95.95,0,0,0-.369,1.316,1.018,1.018,0,0,0,1.359.357l1.84-1.02V158.34a.99.99,0,0,0,1.978,0v-5.462c.059,0,.118.009.178.009s.119,0,.179-.009v5.462a.989.989,0,0,0,1.977,0V148.284l1.843,1.022a1.018,1.018,0,0,0,1.36-.357.95.95,0,0,0-.369-1.316" transform="translate(-175.543 -55.132)" fill="#fff"/>
              <g id="Grupo_1070054" data-name="Grupo 1070054" transform="translate(132.957 86)" opacity="0.8">
                <g id="Grupo_1070053" data-name="Grupo 1070053">
                  <g id="Grupo_1070052" data-name="Grupo 1070052" clip-path="url(#clip-path-16)">
                    <path id="Trazado_814584" data-name="Trazado 814584" d="M314.873,143.665a1.86,1.86,0,1,0-1.922-1.859,1.891,1.891,0,0,0,1.922,1.859" transform="translate(-309.386 -139.946)" fill="#fff"/>
                    <path id="Trazado_814585" data-name="Trazado 814585" d="M318.975,147.634l-3.942-2.16a2.2,2.2,0,0,0-2.1,0L309,147.634a.95.95,0,0,0-.369,1.316,1.018,1.018,0,0,0,1.359.357l1.84-1.02V158.34a.99.99,0,0,0,1.978,0v-5.462c.059,0,.118.009.178.009s.119,0,.179-.009v5.462a.989.989,0,0,0,1.977,0V148.284l1.843,1.022a1.018,1.018,0,0,0,1.36-.357.95.95,0,0,0-.369-1.316" transform="translate(-308.5 -141.131)" fill="#fff"/>
                  </g>
                </g>
              </g>
              <path id="Trazado_814586" data-name="Trazado 814586" d="M267.471,143.665a1.86,1.86,0,1,0-1.922-1.859,1.891,1.891,0,0,0,1.922,1.859" transform="translate(-166.99 -53.946)" fill="#fff"/>
              <path id="Trazado_814587" data-name="Trazado 814587" d="M271.574,147.634l-3.942-2.16a2.2,2.2,0,0,0-2.1,0l-3.936,2.159a.95.95,0,0,0-.369,1.316,1.018,1.018,0,0,0,1.36.357l1.839-1.02V158.34a.99.99,0,0,0,1.978,0v-5.462c.058,0,.118.009.178.009s.119,0,.179-.009v5.462a.989.989,0,0,0,1.977,0V148.284l1.843,1.022a1.018,1.018,0,0,0,1.36-.357.95.95,0,0,0-.369-1.316" transform="translate(-166.104 -55.132)" fill="#fff"/>
              <g id="Grupo_1070057" data-name="Grupo 1070057" transform="translate(94.995 86)" opacity="0.8">
                <g id="Grupo_1070056" data-name="Grupo 1070056">
                  <g id="Grupo_1070055" data-name="Grupo 1070055" clip-path="url(#clip-path-16)">
                    <path id="Trazado_814588" data-name="Trazado 814588" d="M267.471,143.665a1.86,1.86,0,1,0-1.922-1.859,1.891,1.891,0,0,0,1.922,1.859" transform="translate(-261.985 -139.946)" fill="#fff"/>
                    <path id="Trazado_814589" data-name="Trazado 814589" d="M271.574,147.634l-3.942-2.16a2.2,2.2,0,0,0-2.1,0l-3.936,2.159a.95.95,0,0,0-.369,1.316,1.018,1.018,0,0,0,1.36.357l1.839-1.02V158.34a.99.99,0,0,0,1.978,0v-5.462c.058,0,.118.009.178.009s.119,0,.179-.009v5.462a.989.989,0,0,0,1.977,0V148.284l1.843,1.022a1.018,1.018,0,0,0,1.36-.357.95.95,0,0,0-.369-1.316" transform="translate(-261.099 -141.131)" fill="#fff"/>
                  </g>
                </g>
              </g>
              <path id="Trazado_814590" data-name="Trazado 814590" d="M251.671,143.665a1.86,1.86,0,1,0-1.922-1.859,1.891,1.891,0,0,0,1.922,1.859" transform="translate(-163.844 -53.946)" fill="#fff"/>
              <path id="Trazado_814591" data-name="Trazado 814591" d="M255.774,147.634l-3.943-2.16a2.2,2.2,0,0,0-2.1,0l-3.936,2.159a.948.948,0,0,0-.369,1.316,1.017,1.017,0,0,0,1.359.357l1.839-1.02V158.34a.99.99,0,0,0,1.978,0v-5.462c.058,0,.119.009.178.009s.12,0,.178-.009v5.462a.99.99,0,0,0,1.978,0V148.284l1.843,1.022a1.019,1.019,0,0,0,1.361-.357.95.95,0,0,0-.369-1.316" transform="translate(-162.958 -55.132)" fill="#fff"/>
              <g id="Grupo_1070060" data-name="Grupo 1070060" transform="translate(82.341 86)" opacity="0.8">
                <g id="Grupo_1070059" data-name="Grupo 1070059">
                  <g id="Grupo_1070058" data-name="Grupo 1070058" clip-path="url(#clip-path-19)">
                    <path id="Trazado_814592" data-name="Trazado 814592" d="M251.671,143.665a1.86,1.86,0,1,0-1.922-1.859,1.891,1.891,0,0,0,1.922,1.859" transform="translate(-246.185 -139.946)" fill="#fff"/>
                    <path id="Trazado_814593" data-name="Trazado 814593" d="M255.774,147.634l-3.943-2.16a2.2,2.2,0,0,0-2.1,0l-3.936,2.159a.948.948,0,0,0-.369,1.316,1.017,1.017,0,0,0,1.359.357l1.839-1.02V158.34a.99.99,0,0,0,1.978,0v-5.462c.058,0,.119.009.178.009s.12,0,.178-.009v5.462a.99.99,0,0,0,1.978,0V148.284l1.843,1.022a1.019,1.019,0,0,0,1.361-.357.95.95,0,0,0-.369-1.316" transform="translate(-245.299 -141.131)" fill="#fff"/>
                  </g>
                </g>
              </g>
              <path id="Trazado_814594" data-name="Trazado 814594" d="M283.272,143.665a1.86,1.86,0,1,0-1.922-1.859,1.891,1.891,0,0,0,1.922,1.859" transform="translate(-170.137 -53.946)" fill="#fff"/>
              <path id="Trazado_814595" data-name="Trazado 814595" d="M287.374,147.634l-3.942-2.16a2.2,2.2,0,0,0-2.1,0l-3.936,2.159a.95.95,0,0,0-.369,1.316,1.018,1.018,0,0,0,1.359.357l1.84-1.02V158.34a.99.99,0,0,0,1.978,0v-5.462c.058,0,.118.009.178.009s.119,0,.179-.009v5.462a.989.989,0,0,0,1.977,0V148.284l1.843,1.022a1.018,1.018,0,0,0,1.36-.357.95.95,0,0,0-.369-1.316" transform="translate(-169.25 -55.132)" fill="#fff"/>
              <g id="Grupo_1070063" data-name="Grupo 1070063" transform="translate(107.649 86)" opacity="0.8">
                <g id="Grupo_1070062" data-name="Grupo 1070062">
                  <g id="Grupo_1070061" data-name="Grupo 1070061" clip-path="url(#clip-path-19)">
                    <path id="Trazado_814596" data-name="Trazado 814596" d="M283.272,143.665a1.86,1.86,0,1,0-1.922-1.859,1.891,1.891,0,0,0,1.922,1.859" transform="translate(-277.786 -139.946)" fill="#fff"/>
                    <path id="Trazado_814597" data-name="Trazado 814597" d="M287.374,147.634l-3.942-2.16a2.2,2.2,0,0,0-2.1,0l-3.936,2.159a.95.95,0,0,0-.369,1.316,1.018,1.018,0,0,0,1.359.357l1.84-1.02V158.34a.99.99,0,0,0,1.978,0v-5.462c.058,0,.118.009.178.009s.119,0,.179-.009v5.462a.989.989,0,0,0,1.977,0V148.284l1.843,1.022a1.018,1.018,0,0,0,1.36-.357.95.95,0,0,0-.369-1.316" transform="translate(-276.9 -141.131)" fill="#fff"/>
                  </g>
                </g>
              </g>
              <path id="Trazado_814598" data-name="Trazado 814598" d="M283.283,170.073a1.86,1.86,0,1,0-1.922-1.859,1.891,1.891,0,0,0,1.922,1.859" transform="translate(-170.139 -59.895)" fill="#fff"/>
              <path id="Trazado_814599" data-name="Trazado 814599" d="M287.387,174.042l-3.942-2.159a2.2,2.2,0,0,0-2.1,0l-3.936,2.158a.951.951,0,0,0-.369,1.316,1.019,1.019,0,0,0,1.36.357l1.839-1.02v10.053a.99.99,0,0,0,1.978,0v-5.461c.059,0,.118.009.178.009s.119,0,.179-.009v5.461a.989.989,0,0,0,1.977,0V174.693l1.843,1.022a1.019,1.019,0,0,0,1.36-.357.951.951,0,0,0-.369-1.316" transform="translate(-169.253 -61.081)" fill="#fff"/>
              <g id="Grupo_1070066" data-name="Grupo 1070066" transform="translate(107.658 106.46)" opacity="0.8">
                <g id="Grupo_1070065" data-name="Grupo 1070065">
                  <g id="Grupo_1070064" data-name="Grupo 1070064" clip-path="url(#clip-path-16)">
                    <path id="Trazado_814600" data-name="Trazado 814600" d="M283.283,170.073a1.86,1.86,0,1,0-1.922-1.859,1.891,1.891,0,0,0,1.922,1.859" transform="translate(-277.797 -166.355)" fill="#fff"/>
                    <path id="Trazado_814601" data-name="Trazado 814601" d="M287.387,174.042l-3.942-2.159a2.2,2.2,0,0,0-2.1,0l-3.936,2.158a.951.951,0,0,0-.369,1.316,1.019,1.019,0,0,0,1.36.357l1.839-1.02v10.053a.99.99,0,0,0,1.978,0v-5.461c.059,0,.118.009.178.009s.119,0,.179-.009v5.461a.989.989,0,0,0,1.977,0V174.693l1.843,1.022a1.019,1.019,0,0,0,1.36-.357.951.951,0,0,0-.369-1.316" transform="translate(-276.911 -167.54)" fill="#fff"/>
                  </g>
                </g>
              </g>
              <path id="Trazado_814602" data-name="Trazado 814602" d="M299.084,170.073a1.86,1.86,0,1,0-1.922-1.859,1.891,1.891,0,0,0,1.922,1.859" transform="translate(-173.285 -59.895)" fill="#fff"/>
              <path id="Trazado_814603" data-name="Trazado 814603" d="M303.188,174.042l-3.942-2.159a2.2,2.2,0,0,0-2.1,0l-3.936,2.158a.951.951,0,0,0-.369,1.316,1.018,1.018,0,0,0,1.359.357l1.84-1.02v10.053a.99.99,0,0,0,1.978,0v-5.461c.059,0,.118.009.178.009s.119,0,.179-.009v5.461a.989.989,0,0,0,1.977,0V174.693l1.843,1.022a1.019,1.019,0,0,0,1.36-.357.951.951,0,0,0-.369-1.316" transform="translate(-172.399 -61.081)" fill="#fff"/>
              <g id="Grupo_1070069" data-name="Grupo 1070069" transform="translate(120.313 106.46)" opacity="0.8">
                <g id="Grupo_1070068" data-name="Grupo 1070068">
                  <g id="Grupo_1070067" data-name="Grupo 1070067" clip-path="url(#clip-path-19)">
                    <path id="Trazado_814604" data-name="Trazado 814604" d="M299.084,170.073a1.86,1.86,0,1,0-1.922-1.859,1.891,1.891,0,0,0,1.922,1.859" transform="translate(-293.598 -166.355)" fill="#fff"/>
                    <path id="Trazado_814605" data-name="Trazado 814605" d="M303.188,174.042l-3.942-2.159a2.2,2.2,0,0,0-2.1,0l-3.936,2.158a.951.951,0,0,0-.369,1.316,1.018,1.018,0,0,0,1.359.357l1.84-1.02v10.053a.99.99,0,0,0,1.978,0v-5.461c.059,0,.118.009.178.009s.119,0,.179-.009v5.461a.989.989,0,0,0,1.977,0V174.693l1.843,1.022a1.019,1.019,0,0,0,1.36-.357.951.951,0,0,0-.369-1.316" transform="translate(-292.712 -167.54)" fill="#fff"/>
                  </g>
                </g>
              </g>
              <path id="Trazado_814606" data-name="Trazado 814606" d="M251.682,170.073a1.86,1.86,0,1,0-1.922-1.859,1.891,1.891,0,0,0,1.922,1.859" transform="translate(-163.846 -59.895)" fill="#fff"/>
              <path id="Trazado_814607" data-name="Trazado 814607" d="M255.786,174.042l-3.942-2.159a2.2,2.2,0,0,0-2.1,0l-3.936,2.158a.951.951,0,0,0-.369,1.316,1.019,1.019,0,0,0,1.36.357l1.839-1.02v10.053a.99.99,0,0,0,1.978,0v-5.461c.059,0,.118.009.178.009s.119,0,.179-.009v5.461a.989.989,0,0,0,1.977,0V174.693l1.843,1.022a1.019,1.019,0,0,0,1.36-.357.951.951,0,0,0-.369-1.316" transform="translate(-162.96 -61.081)" fill="#fff"/>
              <g id="Grupo_1070072" data-name="Grupo 1070072" transform="translate(82.35 106.46)" opacity="0.8">
                <g id="Grupo_1070071" data-name="Grupo 1070071">
                  <g id="Grupo_1070070" data-name="Grupo 1070070" clip-path="url(#clip-path-16)">
                    <path id="Trazado_814608" data-name="Trazado 814608" d="M251.682,170.073a1.86,1.86,0,1,0-1.922-1.859,1.891,1.891,0,0,0,1.922,1.859" transform="translate(-246.196 -166.355)" fill="#fff"/>
                    <path id="Trazado_814609" data-name="Trazado 814609" d="M255.786,174.042l-3.942-2.159a2.2,2.2,0,0,0-2.1,0l-3.936,2.158a.951.951,0,0,0-.369,1.316,1.019,1.019,0,0,0,1.36.357l1.839-1.02v10.053a.99.99,0,0,0,1.978,0v-5.461c.059,0,.118.009.178.009s.119,0,.179-.009v5.461a.989.989,0,0,0,1.977,0V174.693l1.843,1.022a1.019,1.019,0,0,0,1.36-.357.951.951,0,0,0-.369-1.316" transform="translate(-245.31 -167.54)" fill="#fff"/>
                  </g>
                </g>
              </g>
              <path id="Trazado_814610" data-name="Trazado 814610" d="M235.882,170.073a1.86,1.86,0,1,0-1.922-1.859,1.891,1.891,0,0,0,1.922,1.859" transform="translate(-160.7 -59.895)" fill="#fff"/>
              <path id="Trazado_814611" data-name="Trazado 814611" d="M239.985,174.042l-3.942-2.159a2.2,2.2,0,0,0-2.1,0l-3.936,2.158a.951.951,0,0,0-.369,1.316,1.018,1.018,0,0,0,1.359.357l1.84-1.02v10.053a.99.99,0,0,0,1.978,0v-5.461c.058,0,.118.009.178.009s.119,0,.179-.009v5.461a.989.989,0,0,0,1.977,0V174.693l1.843,1.022a1.019,1.019,0,0,0,1.36-.357.951.951,0,0,0-.369-1.316" transform="translate(-159.814 -61.081)" fill="#fff"/>
              <g id="Grupo_1070075" data-name="Grupo 1070075" transform="translate(69.696 106.46)" opacity="0.8">
                <g id="Grupo_1070074" data-name="Grupo 1070074">
                  <g id="Grupo_1070073" data-name="Grupo 1070073" clip-path="url(#clip-path-19)">
                    <path id="Trazado_814612" data-name="Trazado 814612" d="M235.882,170.073a1.86,1.86,0,1,0-1.922-1.859,1.891,1.891,0,0,0,1.922,1.859" transform="translate(-230.396 -166.355)" fill="#fff"/>
                    <path id="Trazado_814613" data-name="Trazado 814613" d="M239.985,174.042l-3.942-2.159a2.2,2.2,0,0,0-2.1,0l-3.936,2.158a.951.951,0,0,0-.369,1.316,1.018,1.018,0,0,0,1.359.357l1.84-1.02v10.053a.99.99,0,0,0,1.978,0v-5.461c.058,0,.118.009.178.009s.119,0,.179-.009v5.461a.989.989,0,0,0,1.977,0V174.693l1.843,1.022a1.019,1.019,0,0,0,1.36-.357.951.951,0,0,0-.369-1.316" transform="translate(-229.51 -167.54)" fill="#fff"/>
                  </g>
                </g>
              </g>
              <path id="Trazado_814614" data-name="Trazado 814614" d="M267.483,170.073a1.86,1.86,0,1,0-1.922-1.859,1.891,1.891,0,0,0,1.922,1.859" transform="translate(-166.993 -59.895)" fill="#fff"/>
              <path id="Trazado_814615" data-name="Trazado 814615" d="M271.586,174.042l-3.942-2.159a2.2,2.2,0,0,0-2.1,0l-3.936,2.158a.951.951,0,0,0-.369,1.316,1.018,1.018,0,0,0,1.359.357l1.84-1.02v10.053a.99.99,0,0,0,1.978,0v-5.461c.058,0,.118.009.178.009s.119,0,.178-.009v5.461a.99.99,0,0,0,1.978,0V174.693l1.843,1.022a1.019,1.019,0,0,0,1.36-.357.951.951,0,0,0-.369-1.316" transform="translate(-166.107 -61.081)" fill="#fff"/>
              <g id="Grupo_1070078" data-name="Grupo 1070078" transform="translate(95.004 106.46)" opacity="0.8">
                <g id="Grupo_1070077" data-name="Grupo 1070077">
                  <g id="Grupo_1070076" data-name="Grupo 1070076" clip-path="url(#clip-path-19)">
                    <path id="Trazado_814616" data-name="Trazado 814616" d="M267.483,170.073a1.86,1.86,0,1,0-1.922-1.859,1.891,1.891,0,0,0,1.922,1.859" transform="translate(-261.997 -166.355)" fill="#fff"/>
                    <path id="Trazado_814617" data-name="Trazado 814617" d="M271.586,174.042l-3.942-2.159a2.2,2.2,0,0,0-2.1,0l-3.936,2.158a.951.951,0,0,0-.369,1.316,1.018,1.018,0,0,0,1.359.357l1.84-1.02v10.053a.99.99,0,0,0,1.978,0v-5.461c.058,0,.118.009.178.009s.119,0,.178-.009v5.461a.99.99,0,0,0,1.978,0V174.693l1.843,1.022a1.019,1.019,0,0,0,1.36-.357.951.951,0,0,0-.369-1.316" transform="translate(-261.111 -167.54)" fill="#fff"/>
                  </g>
                </g>
              </g>
              <path id="Trazado_814618" data-name="Trazado 814618" d="M251.682,196.482a1.86,1.86,0,1,0-1.922-1.859,1.892,1.892,0,0,0,1.922,1.859" transform="translate(-163.846 -65.844)" fill="#fff"/>
              <path id="Trazado_814619" data-name="Trazado 814619" d="M255.786,200.451l-3.942-2.16a2.2,2.2,0,0,0-2.1,0l-3.936,2.159a.95.95,0,0,0-.369,1.315,1.018,1.018,0,0,0,1.36.357l1.839-1.02v10.054a.99.99,0,0,0,1.978,0v-5.462c.059,0,.118.009.178.009s.119,0,.179-.009v5.462a.989.989,0,0,0,1.977,0V201.1l1.843,1.022a1.018,1.018,0,0,0,1.36-.357.95.95,0,0,0-.369-1.315" transform="translate(-162.96 -67.03)" fill="#fff"/>
              <g id="Grupo_1070081" data-name="Grupo 1070081" transform="translate(82.35 126.919)" opacity="0.8">
                <g id="Grupo_1070080" data-name="Grupo 1070080">
                  <g id="Grupo_1070079" data-name="Grupo 1070079" clip-path="url(#clip-path-16)">
                    <path id="Trazado_814620" data-name="Trazado 814620" d="M251.682,196.482a1.86,1.86,0,1,0-1.922-1.859,1.892,1.892,0,0,0,1.922,1.859" transform="translate(-246.196 -192.763)" fill="#fff"/>
                    <path id="Trazado_814621" data-name="Trazado 814621" d="M255.786,200.451l-3.942-2.16a2.2,2.2,0,0,0-2.1,0l-3.936,2.159a.95.95,0,0,0-.369,1.315,1.018,1.018,0,0,0,1.36.357l1.839-1.02v10.054a.99.99,0,0,0,1.978,0v-5.462c.059,0,.118.009.178.009s.119,0,.179-.009v5.462a.989.989,0,0,0,1.977,0V201.1l1.843,1.022a1.018,1.018,0,0,0,1.36-.357.95.95,0,0,0-.369-1.315" transform="translate(-245.31 -193.948)" fill="#fff"/>
                  </g>
                </g>
              </g>
              <path id="Trazado_814622" data-name="Trazado 814622" d="M235.882,196.482a1.86,1.86,0,1,0-1.922-1.859,1.891,1.891,0,0,0,1.922,1.859" transform="translate(-160.7 -65.844)" fill="#fff"/>
              <path id="Trazado_814623" data-name="Trazado 814623" d="M239.985,200.451l-3.942-2.16a2.2,2.2,0,0,0-2.1,0l-3.936,2.159a.95.95,0,0,0-.369,1.315,1.018,1.018,0,0,0,1.359.357l1.84-1.02v10.054a.99.99,0,0,0,1.978,0v-5.462c.058,0,.118.009.178.009s.119,0,.179-.009v5.462a.989.989,0,0,0,1.977,0V201.1l1.843,1.022a1.018,1.018,0,0,0,1.36-.357.95.95,0,0,0-.369-1.315" transform="translate(-159.814 -67.03)" fill="#fff"/>
              <g id="Grupo_1070084" data-name="Grupo 1070084" transform="translate(69.696 126.919)" opacity="0.8">
                <g id="Grupo_1070083" data-name="Grupo 1070083">
                  <g id="Grupo_1070082" data-name="Grupo 1070082" clip-path="url(#clip-path-19)">
                    <path id="Trazado_814624" data-name="Trazado 814624" d="M235.882,196.482a1.86,1.86,0,1,0-1.922-1.859,1.891,1.891,0,0,0,1.922,1.859" transform="translate(-230.396 -192.763)" fill="#fff"/>
                    <path id="Trazado_814625" data-name="Trazado 814625" d="M239.985,200.451l-3.942-2.16a2.2,2.2,0,0,0-2.1,0l-3.936,2.159a.95.95,0,0,0-.369,1.315,1.018,1.018,0,0,0,1.359.357l1.84-1.02v10.054a.99.99,0,0,0,1.978,0v-5.462c.058,0,.118.009.178.009s.119,0,.179-.009v5.462a.989.989,0,0,0,1.977,0V201.1l1.843,1.022a1.018,1.018,0,0,0,1.36-.357.95.95,0,0,0-.369-1.315" transform="translate(-229.51 -193.948)" fill="#fff"/>
                  </g>
                </g>
              </g>
              <path id="Trazado_814626" data-name="Trazado 814626" d="M220.081,196.482a1.86,1.86,0,1,0-1.922-1.859,1.891,1.891,0,0,0,1.922,1.859" transform="translate(-157.554 -65.844)" fill="#fff"/>
              <path id="Trazado_814627" data-name="Trazado 814627" d="M224.184,200.451l-3.942-2.16a2.2,2.2,0,0,0-2.1,0l-3.936,2.159a.95.95,0,0,0-.369,1.315,1.018,1.018,0,0,0,1.359.357l1.84-1.02v10.054a.99.99,0,0,0,1.978,0v-5.462c.059,0,.118.009.178.009s.119,0,.179-.009v5.462a.989.989,0,0,0,1.977,0V201.1l1.843,1.022a1.018,1.018,0,0,0,1.36-.357.95.95,0,0,0-.369-1.315" transform="translate(-156.668 -67.03)" fill="#fff"/>
              <g id="Grupo_1070087" data-name="Grupo 1070087" transform="translate(57.041 126.919)" opacity="0.8">
                <g id="Grupo_1070086" data-name="Grupo 1070086">
                  <g id="Grupo_1070085" data-name="Grupo 1070085" clip-path="url(#clip-path-16)">
                    <path id="Trazado_814628" data-name="Trazado 814628" d="M220.081,196.482a1.86,1.86,0,1,0-1.922-1.859,1.891,1.891,0,0,0,1.922,1.859" transform="translate(-214.595 -192.763)" fill="#fff"/>
                    <path id="Trazado_814629" data-name="Trazado 814629" d="M224.184,200.451l-3.942-2.16a2.2,2.2,0,0,0-2.1,0l-3.936,2.159a.95.95,0,0,0-.369,1.315,1.018,1.018,0,0,0,1.359.357l1.84-1.02v10.054a.99.99,0,0,0,1.978,0v-5.462c.059,0,.118.009.178.009s.119,0,.179-.009v5.462a.989.989,0,0,0,1.977,0V201.1l1.843,1.022a1.018,1.018,0,0,0,1.36-.357.95.95,0,0,0-.369-1.315" transform="translate(-213.709 -193.948)" fill="#fff"/>
                  </g>
                </g>
              </g>
              <path id="Trazado_814630" data-name="Trazado 814630" d="M267.483,196.482a1.86,1.86,0,1,0-1.922-1.859,1.891,1.891,0,0,0,1.922,1.859" transform="translate(-166.993 -65.844)" fill="#fff"/>
              <path id="Trazado_814631" data-name="Trazado 814631" d="M271.586,200.451l-3.942-2.16a2.2,2.2,0,0,0-2.1,0l-3.936,2.159a.95.95,0,0,0-.369,1.315,1.018,1.018,0,0,0,1.359.357l1.84-1.02v10.054a.99.99,0,0,0,1.978,0v-5.462c.058,0,.118.009.178.009s.119,0,.178-.009v5.462a.99.99,0,0,0,1.978,0V201.1l1.843,1.022a1.018,1.018,0,0,0,1.36-.357.95.95,0,0,0-.369-1.315" transform="translate(-166.107 -67.03)" fill="#fff"/>
              <g id="Grupo_1070090" data-name="Grupo 1070090" transform="translate(95.004 126.919)" opacity="0.8">
                <g id="Grupo_1070089" data-name="Grupo 1070089">
                  <g id="Grupo_1070088" data-name="Grupo 1070088" clip-path="url(#clip-path-19)">
                    <path id="Trazado_814632" data-name="Trazado 814632" d="M267.483,196.482a1.86,1.86,0,1,0-1.922-1.859,1.891,1.891,0,0,0,1.922,1.859" transform="translate(-261.997 -192.763)" fill="#fff"/>
                    <path id="Trazado_814633" data-name="Trazado 814633" d="M271.586,200.451l-3.942-2.16a2.2,2.2,0,0,0-2.1,0l-3.936,2.159a.95.95,0,0,0-.369,1.315,1.018,1.018,0,0,0,1.359.357l1.84-1.02v10.054a.99.99,0,0,0,1.978,0v-5.462c.058,0,.118.009.178.009s.119,0,.178-.009v5.462a.99.99,0,0,0,1.978,0V201.1l1.843,1.022a1.018,1.018,0,0,0,1.36-.357.95.95,0,0,0-.369-1.315" transform="translate(-261.111 -193.948)" fill="#fff"/>
                  </g>
                </g>
              </g>
              <path id="Trazado_814634" data-name="Trazado 814634" d="M203.793,101.294a1.63,1.63,0,1,0-1.683-1.628,1.657,1.657,0,0,0,1.683,1.628" transform="translate(-154.358 -44.505)" fill="#fff"/>
              <path id="Trazado_814635" data-name="Trazado 814635" d="M207.388,104.771l-3.453-1.893a1.924,1.924,0,0,0-1.836,0l-3.449,1.891a.832.832,0,0,0-.324,1.152.892.892,0,0,0,1.192.313l1.611-.893v8.808a.867.867,0,0,0,1.733,0v-4.786c.051,0,.1.008.155.008s.1,0,.156-.008v4.786a.867.867,0,0,0,1.733,0v-8.809l1.614.895a.892.892,0,0,0,1.192-.313.832.832,0,0,0-.324-1.152" transform="translate(-153.582 -45.544)" fill="#fff"/>
              <g id="Grupo_1070093" data-name="Grupo 1070093" transform="translate(44.629 53.531)" opacity="0.8">
                <g id="Grupo_1070092" data-name="Grupo 1070092">
                  <g id="Grupo_1070091" data-name="Grupo 1070091" clip-path="url(#clip-path-30)">
                    <path id="Trazado_814636" data-name="Trazado 814636" d="M203.793,101.294a1.63,1.63,0,1,0-1.683-1.628,1.657,1.657,0,0,0,1.683,1.628" transform="translate(-198.987 -98.036)" fill="#fff"/>
                    <path id="Trazado_814637" data-name="Trazado 814637" d="M207.388,104.771l-3.453-1.893a1.924,1.924,0,0,0-1.836,0l-3.449,1.891a.832.832,0,0,0-.324,1.152.892.892,0,0,0,1.192.313l1.611-.893v8.808a.867.867,0,0,0,1.733,0v-4.786c.051,0,.1.008.155.008s.1,0,.156-.008v4.786a.867.867,0,0,0,1.733,0v-8.809l1.614.895a.892.892,0,0,0,1.192-.313.832.832,0,0,0-.324-1.152" transform="translate(-198.211 -99.074)" fill="#fff"/>
                  </g>
                </g>
              </g>
              <path id="Trazado_814638" data-name="Trazado 814638" d="M189.862,101.294a1.63,1.63,0,1,0-1.684-1.628,1.656,1.656,0,0,0,1.684,1.628" transform="translate(-151.584 -44.505)" fill="#fff"/>
              <path id="Trazado_814639" data-name="Trazado 814639" d="M193.456,104.771,190,102.878a1.924,1.924,0,0,0-1.836,0l-3.449,1.891a.832.832,0,0,0-.324,1.152.892.892,0,0,0,1.192.313l1.611-.893v8.808a.867.867,0,0,0,1.733,0v-4.786c.051,0,.1.008.155.008s.1,0,.156-.008v4.786a.867.867,0,0,0,1.733,0v-8.809l1.614.895a.892.892,0,0,0,1.192-.313.832.832,0,0,0-.324-1.152" transform="translate(-150.807 -45.544)" fill="#fff"/>
              <g id="Grupo_1070096" data-name="Grupo 1070096" transform="translate(33.472 53.531)" opacity="0.8">
                <g id="Grupo_1070095" data-name="Grupo 1070095">
                  <g id="Grupo_1070094" data-name="Grupo 1070094" clip-path="url(#clip-path-30)">
                    <path id="Trazado_814640" data-name="Trazado 814640" d="M189.862,101.294a1.63,1.63,0,1,0-1.684-1.628,1.656,1.656,0,0,0,1.684,1.628" transform="translate(-185.055 -98.036)" fill="#fff"/>
                    <path id="Trazado_814641" data-name="Trazado 814641" d="M193.456,104.771,190,102.878a1.924,1.924,0,0,0-1.836,0l-3.449,1.891a.832.832,0,0,0-.324,1.152.892.892,0,0,0,1.192.313l1.611-.893v8.808a.867.867,0,0,0,1.733,0v-4.786c.051,0,.1.008.155.008s.1,0,.156-.008v4.786a.867.867,0,0,0,1.733,0v-8.809l1.614.895a.892.892,0,0,0,1.192-.313.832.832,0,0,0-.324-1.152" transform="translate(-184.279 -99.074)" fill="#fff"/>
                  </g>
                </g>
              </g>
              <path id="Trazado_814642" data-name="Trazado 814642" d="M175.93,101.294a1.63,1.63,0,1,0-1.683-1.628,1.657,1.657,0,0,0,1.683,1.628" transform="translate(-148.81 -44.505)" fill="#fff"/>
              <path id="Trazado_814643" data-name="Trazado 814643" d="M179.525,104.771l-3.453-1.893a1.924,1.924,0,0,0-1.836,0l-3.449,1.891a.831.831,0,0,0-.323,1.152.891.891,0,0,0,1.191.313l1.611-.893v8.808a.867.867,0,0,0,1.733,0v-4.786c.051,0,.1.008.155.008s.1,0,.156-.008v4.786a.867.867,0,0,0,1.733,0v-8.809l1.614.895a.892.892,0,0,0,1.192-.313.832.832,0,0,0-.324-1.152" transform="translate(-148.033 -45.544)" fill="#fff"/>
              <g id="Grupo_1070099" data-name="Grupo 1070099" transform="translate(22.315 53.531)" opacity="0.8">
                <g id="Grupo_1070098" data-name="Grupo 1070098">
                  <g id="Grupo_1070097" data-name="Grupo 1070097" clip-path="url(#clip-path-30)">
                    <path id="Trazado_814644" data-name="Trazado 814644" d="M175.93,101.294a1.63,1.63,0,1,0-1.683-1.628,1.657,1.657,0,0,0,1.683,1.628" transform="translate(-171.124 -98.036)" fill="#fff"/>
                    <path id="Trazado_814645" data-name="Trazado 814645" d="M179.525,104.771l-3.453-1.893a1.924,1.924,0,0,0-1.836,0l-3.449,1.891a.831.831,0,0,0-.323,1.152.891.891,0,0,0,1.191.313l1.611-.893v8.808a.867.867,0,0,0,1.733,0v-4.786c.051,0,.1.008.155.008s.1,0,.156-.008v4.786a.867.867,0,0,0,1.733,0v-8.809l1.614.895a.892.892,0,0,0,1.192-.313.832.832,0,0,0-.324-1.152" transform="translate(-170.348 -99.074)" fill="#fff"/>
                  </g>
                </g>
              </g>
              <path id="Trazado_814646" data-name="Trazado 814646" d="M162,101.294a1.63,1.63,0,1,0-1.683-1.628A1.657,1.657,0,0,0,162,101.294" transform="translate(-146.035 -44.505)" fill="#fff"/>
              <path id="Trazado_814647" data-name="Trazado 814647" d="M165.593,104.771l-3.453-1.893a1.924,1.924,0,0,0-1.836,0l-3.449,1.891a.832.832,0,0,0-.324,1.152.892.892,0,0,0,1.192.313l1.611-.893v8.808a.867.867,0,0,0,1.733,0v-4.786c.051,0,.1.008.155.008s.1,0,.156-.008v4.786a.867.867,0,0,0,1.733,0v-8.809l1.614.895a.892.892,0,0,0,1.192-.313.832.832,0,0,0-.324-1.152" transform="translate(-145.259 -45.544)" fill="#fff"/>
              <g id="Grupo_1070102" data-name="Grupo 1070102" transform="translate(11.157 53.531)" opacity="0.8">
                <g id="Grupo_1070101" data-name="Grupo 1070101">
                  <g id="Grupo_1070100" data-name="Grupo 1070100" clip-path="url(#clip-path-30)">
                    <path id="Trazado_814648" data-name="Trazado 814648" d="M162,101.294a1.63,1.63,0,1,0-1.683-1.628A1.657,1.657,0,0,0,162,101.294" transform="translate(-157.192 -98.036)" fill="#fff"/>
                    <path id="Trazado_814649" data-name="Trazado 814649" d="M165.593,104.771l-3.453-1.893a1.924,1.924,0,0,0-1.836,0l-3.449,1.891a.832.832,0,0,0-.324,1.152.892.892,0,0,0,1.192.313l1.611-.893v8.808a.867.867,0,0,0,1.733,0v-4.786c.051,0,.1.008.155.008s.1,0,.156-.008v4.786a.867.867,0,0,0,1.733,0v-8.809l1.614.895a.892.892,0,0,0,1.192-.313.832.832,0,0,0-.324-1.152" transform="translate(-156.416 -99.074)" fill="#fff"/>
                  </g>
                </g>
              </g>
              <path id="Trazado_814650" data-name="Trazado 814650" d="M148.067,101.294a1.63,1.63,0,1,0-1.683-1.628,1.657,1.657,0,0,0,1.683,1.628" transform="translate(-143.261 -44.505)" fill="#fff"/>
              <path id="Trazado_814651" data-name="Trazado 814651" d="M151.661,104.771l-3.453-1.893a1.924,1.924,0,0,0-1.836,0l-3.449,1.891a.832.832,0,0,0-.324,1.152.892.892,0,0,0,1.192.313l1.611-.893v8.808a.867.867,0,0,0,1.733,0v-4.786c.051,0,.1.008.155.008s.1,0,.156-.008v4.786a.867.867,0,0,0,1.733,0v-8.809l1.614.895a.892.892,0,0,0,1.192-.313.832.832,0,0,0-.324-1.152" transform="translate(-142.485 -45.544)" fill="#fff"/>
              <g id="Grupo_1070105" data-name="Grupo 1070105" transform="translate(0 53.531)" opacity="0.8">
                <g id="Grupo_1070104" data-name="Grupo 1070104">
                  <g id="Grupo_1070103" data-name="Grupo 1070103" clip-path="url(#clip-path-34)">
                    <path id="Trazado_814652" data-name="Trazado 814652" d="M148.067,101.294a1.63,1.63,0,1,0-1.683-1.628,1.657,1.657,0,0,0,1.683,1.628" transform="translate(-143.261 -98.036)" fill="#fff"/>
                    <path id="Trazado_814653" data-name="Trazado 814653" d="M151.661,104.771l-3.453-1.893a1.924,1.924,0,0,0-1.836,0l-3.449,1.891a.832.832,0,0,0-.324,1.152.892.892,0,0,0,1.192.313l1.611-.893v8.808a.867.867,0,0,0,1.733,0v-4.786c.051,0,.1.008.155.008s.1,0,.156-.008v4.786a.867.867,0,0,0,1.733,0v-8.809l1.614.895a.892.892,0,0,0,1.192-.313.832.832,0,0,0-.324-1.152" transform="translate(-142.485 -99.074)" fill="#fff"/>
                  </g>
                </g>
              </g>
              <path id="Trazado_814654" data-name="Trazado 814654" d="M203.793,124.072a1.63,1.63,0,1,0-1.683-1.628,1.657,1.657,0,0,0,1.683,1.628" transform="translate(-154.358 -49.636)" fill="#fff"/>
              <path id="Trazado_814655" data-name="Trazado 814655" d="M207.388,127.548l-3.453-1.893a1.924,1.924,0,0,0-1.836,0l-3.449,1.891a.832.832,0,0,0-.324,1.152.892.892,0,0,0,1.192.313l1.611-.893v8.808a.867.867,0,0,0,1.733,0v-4.786c.051,0,.1.008.155.008s.1,0,.156-.008v4.786a.867.867,0,0,0,1.733,0v-8.809l1.614.895a.892.892,0,0,0,1.192-.313.832.832,0,0,0-.324-1.152" transform="translate(-153.582 -50.675)" fill="#fff"/>
              <g id="Grupo_1070108" data-name="Grupo 1070108" transform="translate(44.629 71.178)" opacity="0.8">
                <g id="Grupo_1070107" data-name="Grupo 1070107">
                  <g id="Grupo_1070106" data-name="Grupo 1070106" clip-path="url(#clip-path-30)">
                    <path id="Trazado_814656" data-name="Trazado 814656" d="M203.793,124.072a1.63,1.63,0,1,0-1.683-1.628,1.657,1.657,0,0,0,1.683,1.628" transform="translate(-198.987 -120.814)" fill="#fff"/>
                    <path id="Trazado_814657" data-name="Trazado 814657" d="M207.388,127.548l-3.453-1.893a1.924,1.924,0,0,0-1.836,0l-3.449,1.891a.832.832,0,0,0-.324,1.152.892.892,0,0,0,1.192.313l1.611-.893v8.808a.867.867,0,0,0,1.733,0v-4.786c.051,0,.1.008.155.008s.1,0,.156-.008v4.786a.867.867,0,0,0,1.733,0v-8.809l1.614.895a.892.892,0,0,0,1.192-.313.832.832,0,0,0-.324-1.152" transform="translate(-198.211 -121.852)" fill="#fff"/>
                  </g>
                </g>
              </g>
              <path id="Trazado_814658" data-name="Trazado 814658" d="M189.862,124.072a1.63,1.63,0,1,0-1.684-1.628,1.656,1.656,0,0,0,1.684,1.628" transform="translate(-151.584 -49.636)" fill="#fff"/>
              <path id="Trazado_814659" data-name="Trazado 814659" d="M193.456,127.548,190,125.655a1.924,1.924,0,0,0-1.836,0l-3.449,1.891a.832.832,0,0,0-.324,1.152.892.892,0,0,0,1.192.313l1.611-.893v8.808a.867.867,0,0,0,1.733,0v-4.786c.051,0,.1.008.155.008s.1,0,.156-.008v4.786a.867.867,0,0,0,1.733,0v-8.809l1.614.895a.892.892,0,0,0,1.192-.313.832.832,0,0,0-.324-1.152" transform="translate(-150.807 -50.675)" fill="#fff"/>
              <g id="Grupo_1070111" data-name="Grupo 1070111" transform="translate(33.472 71.178)" opacity="0.8">
                <g id="Grupo_1070110" data-name="Grupo 1070110">
                  <g id="Grupo_1070109" data-name="Grupo 1070109" clip-path="url(#clip-path-30)">
                    <path id="Trazado_814660" data-name="Trazado 814660" d="M189.862,124.072a1.63,1.63,0,1,0-1.684-1.628,1.656,1.656,0,0,0,1.684,1.628" transform="translate(-185.055 -120.814)" fill="#fff"/>
                    <path id="Trazado_814661" data-name="Trazado 814661" d="M193.456,127.548,190,125.655a1.924,1.924,0,0,0-1.836,0l-3.449,1.891a.832.832,0,0,0-.324,1.152.892.892,0,0,0,1.192.313l1.611-.893v8.808a.867.867,0,0,0,1.733,0v-4.786c.051,0,.1.008.155.008s.1,0,.156-.008v4.786a.867.867,0,0,0,1.733,0v-8.809l1.614.895a.892.892,0,0,0,1.192-.313.832.832,0,0,0-.324-1.152" transform="translate(-184.279 -121.852)" fill="#fff"/>
                  </g>
                </g>
              </g>
              <path id="Trazado_814662" data-name="Trazado 814662" d="M175.93,124.072a1.63,1.63,0,1,0-1.683-1.628,1.657,1.657,0,0,0,1.683,1.628" transform="translate(-148.81 -49.636)" fill="#fff"/>
              <path id="Trazado_814663" data-name="Trazado 814663" d="M179.525,127.548l-3.453-1.893a1.924,1.924,0,0,0-1.836,0l-3.449,1.891a.831.831,0,0,0-.323,1.152.891.891,0,0,0,1.191.313l1.611-.893v8.808a.867.867,0,0,0,1.733,0v-4.786c.051,0,.1.008.155.008s.1,0,.156-.008v4.786a.867.867,0,0,0,1.733,0v-8.809l1.614.895a.892.892,0,0,0,1.192-.313.832.832,0,0,0-.324-1.152" transform="translate(-148.033 -50.675)" fill="#fff"/>
              <g id="Grupo_1070114" data-name="Grupo 1070114" transform="translate(22.315 71.178)" opacity="0.8">
                <g id="Grupo_1070113" data-name="Grupo 1070113">
                  <g id="Grupo_1070112" data-name="Grupo 1070112" clip-path="url(#clip-path-30)">
                    <path id="Trazado_814664" data-name="Trazado 814664" d="M175.93,124.072a1.63,1.63,0,1,0-1.683-1.628,1.657,1.657,0,0,0,1.683,1.628" transform="translate(-171.124 -120.814)" fill="#fff"/>
                    <path id="Trazado_814665" data-name="Trazado 814665" d="M179.525,127.548l-3.453-1.893a1.924,1.924,0,0,0-1.836,0l-3.449,1.891a.831.831,0,0,0-.323,1.152.891.891,0,0,0,1.191.313l1.611-.893v8.808a.867.867,0,0,0,1.733,0v-4.786c.051,0,.1.008.155.008s.1,0,.156-.008v4.786a.867.867,0,0,0,1.733,0v-8.809l1.614.895a.892.892,0,0,0,1.192-.313.832.832,0,0,0-.324-1.152" transform="translate(-170.348 -121.852)" fill="#fff"/>
                  </g>
                </g>
              </g>
              <path id="Trazado_814666" data-name="Trazado 814666" d="M162,124.072a1.63,1.63,0,1,0-1.683-1.628A1.657,1.657,0,0,0,162,124.072" transform="translate(-146.035 -49.636)" fill="#fff"/>
              <path id="Trazado_814667" data-name="Trazado 814667" d="M165.593,127.548l-3.453-1.893a1.924,1.924,0,0,0-1.836,0l-3.449,1.891a.832.832,0,0,0-.324,1.152.892.892,0,0,0,1.192.313l1.611-.893v8.808a.867.867,0,0,0,1.733,0v-4.786c.051,0,.1.008.155.008s.1,0,.156-.008v4.786a.867.867,0,0,0,1.733,0v-8.809l1.614.895a.892.892,0,0,0,1.192-.313.832.832,0,0,0-.324-1.152" transform="translate(-145.259 -50.675)" fill="#fff"/>
              <g id="Grupo_1070117" data-name="Grupo 1070117" transform="translate(11.157 71.178)" opacity="0.8">
                <g id="Grupo_1070116" data-name="Grupo 1070116">
                  <g id="Grupo_1070115" data-name="Grupo 1070115" clip-path="url(#clip-path-30)">
                    <path id="Trazado_814668" data-name="Trazado 814668" d="M162,124.072a1.63,1.63,0,1,0-1.683-1.628A1.657,1.657,0,0,0,162,124.072" transform="translate(-157.192 -120.814)" fill="#fff"/>
                    <path id="Trazado_814669" data-name="Trazado 814669" d="M165.593,127.548l-3.453-1.893a1.924,1.924,0,0,0-1.836,0l-3.449,1.891a.832.832,0,0,0-.324,1.152.892.892,0,0,0,1.192.313l1.611-.893v8.808a.867.867,0,0,0,1.733,0v-4.786c.051,0,.1.008.155.008s.1,0,.156-.008v4.786a.867.867,0,0,0,1.733,0v-8.809l1.614.895a.892.892,0,0,0,1.192-.313.832.832,0,0,0-.324-1.152" transform="translate(-156.416 -121.852)" fill="#fff"/>
                  </g>
                </g>
              </g>
              <path id="Trazado_814670" data-name="Trazado 814670" d="M189.862,146.849a1.629,1.629,0,1,0-1.684-1.628,1.656,1.656,0,0,0,1.684,1.628" transform="translate(-151.584 -54.768)" fill="#fff"/>
              <path id="Trazado_814671" data-name="Trazado 814671" d="M193.456,150.326,190,148.433a1.924,1.924,0,0,0-1.836,0l-3.449,1.891a.832.832,0,0,0-.324,1.152.892.892,0,0,0,1.192.313l1.611-.893v8.808a.867.867,0,0,0,1.733,0V154.92c.051,0,.1.008.155.008s.1,0,.156-.008v4.786a.867.867,0,0,0,1.733,0V150.9l1.614.895a.892.892,0,0,0,1.192-.313.832.832,0,0,0-.324-1.152" transform="translate(-150.807 -55.806)" fill="#fff"/>
              <g id="Grupo_1070120" data-name="Grupo 1070120" transform="translate(33.472 88.824)" opacity="0.8">
                <g id="Grupo_1070119" data-name="Grupo 1070119">
                  <g id="Grupo_1070118" data-name="Grupo 1070118" clip-path="url(#clip-path-30)">
                    <path id="Trazado_814672" data-name="Trazado 814672" d="M189.862,146.849a1.629,1.629,0,1,0-1.684-1.628,1.656,1.656,0,0,0,1.684,1.628" transform="translate(-185.055 -143.592)" fill="#fff"/>
                    <path id="Trazado_814673" data-name="Trazado 814673" d="M193.456,150.326,190,148.433a1.924,1.924,0,0,0-1.836,0l-3.449,1.891a.832.832,0,0,0-.324,1.152.892.892,0,0,0,1.192.313l1.611-.893v8.808a.867.867,0,0,0,1.733,0V154.92c.051,0,.1.008.155.008s.1,0,.156-.008v4.786a.867.867,0,0,0,1.733,0V150.9l1.614.895a.892.892,0,0,0,1.192-.313.832.832,0,0,0-.324-1.152" transform="translate(-184.279 -144.63)" fill="#fff"/>
                  </g>
                </g>
              </g>
              <path id="Trazado_814674" data-name="Trazado 814674" d="M175.93,146.849a1.629,1.629,0,1,0-1.683-1.628,1.656,1.656,0,0,0,1.683,1.628" transform="translate(-148.81 -54.768)" fill="#fff"/>
              <path id="Trazado_814675" data-name="Trazado 814675" d="M179.525,150.326l-3.453-1.893a1.924,1.924,0,0,0-1.836,0l-3.449,1.891a.831.831,0,0,0-.323,1.152.891.891,0,0,0,1.191.313l1.611-.893v8.808a.867.867,0,0,0,1.733,0V154.92c.051,0,.1.008.155.008s.1,0,.156-.008v4.786a.867.867,0,0,0,1.733,0V150.9l1.614.895a.892.892,0,0,0,1.192-.313.832.832,0,0,0-.324-1.152" transform="translate(-148.033 -55.806)" fill="#fff"/>
              <g id="Grupo_1070123" data-name="Grupo 1070123" transform="translate(22.315 88.824)" opacity="0.8">
                <g id="Grupo_1070122" data-name="Grupo 1070122">
                  <g id="Grupo_1070121" data-name="Grupo 1070121" clip-path="url(#clip-path-30)">
                    <path id="Trazado_814676" data-name="Trazado 814676" d="M175.93,146.849a1.629,1.629,0,1,0-1.683-1.628,1.656,1.656,0,0,0,1.683,1.628" transform="translate(-171.124 -143.592)" fill="#fff"/>
                    <path id="Trazado_814677" data-name="Trazado 814677" d="M179.525,150.326l-3.453-1.893a1.924,1.924,0,0,0-1.836,0l-3.449,1.891a.831.831,0,0,0-.323,1.152.891.891,0,0,0,1.191.313l1.611-.893v8.808a.867.867,0,0,0,1.733,0V154.92c.051,0,.1.008.155.008s.1,0,.156-.008v4.786a.867.867,0,0,0,1.733,0V150.9l1.614.895a.892.892,0,0,0,1.192-.313.832.832,0,0,0-.324-1.152" transform="translate(-170.348 -144.63)" fill="#fff"/>
                  </g>
                </g>
              </g>
              <path id="Trazado_814678" data-name="Trazado 814678" d="M175.93,169.627A1.63,1.63,0,1,0,174.247,168a1.657,1.657,0,0,0,1.683,1.628" transform="translate(-148.81 -59.898)" fill="#fff"/>
              <path id="Trazado_814679" data-name="Trazado 814679" d="M179.525,173.1l-3.453-1.893a1.924,1.924,0,0,0-1.836,0l-3.449,1.891a.831.831,0,0,0-.323,1.152.891.891,0,0,0,1.191.313l1.611-.893v8.808a.867.867,0,0,0,1.733,0V177.7c.051,0,.1.008.155.008s.1,0,.156-.008v4.786a.867.867,0,0,0,1.733,0v-8.809l1.614.895a.892.892,0,0,0,1.192-.313.832.832,0,0,0-.324-1.152" transform="translate(-148.033 -60.937)" fill="#fff"/>
              <g id="Grupo_1070126" data-name="Grupo 1070126" transform="translate(22.315 106.471)" opacity="0.8">
                <g id="Grupo_1070125" data-name="Grupo 1070125">
                  <g id="Grupo_1070124" data-name="Grupo 1070124" clip-path="url(#clip-path-30)">
                    <path id="Trazado_814680" data-name="Trazado 814680" d="M175.93,169.627A1.63,1.63,0,1,0,174.247,168a1.657,1.657,0,0,0,1.683,1.628" transform="translate(-171.124 -166.369)" fill="#fff"/>
                    <path id="Trazado_814681" data-name="Trazado 814681" d="M179.525,173.1l-3.453-1.893a1.924,1.924,0,0,0-1.836,0l-3.449,1.891a.831.831,0,0,0-.323,1.152.891.891,0,0,0,1.191.313l1.611-.893v8.808a.867.867,0,0,0,1.733,0V177.7c.051,0,.1.008.155.008s.1,0,.156-.008v4.786a.867.867,0,0,0,1.733,0v-8.809l1.614.895a.892.892,0,0,0,1.192-.313.832.832,0,0,0-.324-1.152" transform="translate(-170.348 -167.407)" fill="#fff"/>
                  </g>
                </g>
              </g>
              <path id="Trazado_814682" data-name="Trazado 814682" d="M162,146.849a1.629,1.629,0,1,0-1.683-1.628A1.657,1.657,0,0,0,162,146.849" transform="translate(-146.035 -54.768)" fill="#fff"/>
              <path id="Trazado_814683" data-name="Trazado 814683" d="M165.593,150.326l-3.453-1.893a1.924,1.924,0,0,0-1.836,0l-3.449,1.891a.832.832,0,0,0-.324,1.152.892.892,0,0,0,1.192.313l1.611-.893v8.808a.867.867,0,0,0,1.733,0V154.92c.051,0,.1.008.155.008s.1,0,.156-.008v4.786a.867.867,0,0,0,1.733,0V150.9l1.614.895a.892.892,0,0,0,1.192-.313.832.832,0,0,0-.324-1.152" transform="translate(-145.259 -55.806)" fill="#fff"/>
              <g id="Grupo_1070129" data-name="Grupo 1070129" transform="translate(11.157 88.824)" opacity="0.8">
                <g id="Grupo_1070128" data-name="Grupo 1070128">
                  <g id="Grupo_1070127" data-name="Grupo 1070127" clip-path="url(#clip-path-30)">
                    <path id="Trazado_814684" data-name="Trazado 814684" d="M162,146.849a1.629,1.629,0,1,0-1.683-1.628A1.657,1.657,0,0,0,162,146.849" transform="translate(-157.192 -143.592)" fill="#fff"/>
                    <path id="Trazado_814685" data-name="Trazado 814685" d="M165.593,150.326l-3.453-1.893a1.924,1.924,0,0,0-1.836,0l-3.449,1.891a.832.832,0,0,0-.324,1.152.892.892,0,0,0,1.192.313l1.611-.893v8.808a.867.867,0,0,0,1.733,0V154.92c.051,0,.1.008.155.008s.1,0,.156-.008v4.786a.867.867,0,0,0,1.733,0V150.9l1.614.895a.892.892,0,0,0,1.192-.313.832.832,0,0,0-.324-1.152" transform="translate(-156.416 -144.63)" fill="#fff"/>
                  </g>
                </g>
              </g>
              <path id="Trazado_814686" data-name="Trazado 814686" d="M148.067,124.072a1.63,1.63,0,1,0-1.683-1.628,1.657,1.657,0,0,0,1.683,1.628" transform="translate(-143.261 -49.636)" fill="#fff"/>
              <path id="Trazado_814687" data-name="Trazado 814687" d="M151.661,127.548l-3.453-1.893a1.924,1.924,0,0,0-1.836,0l-3.449,1.891a.832.832,0,0,0-.324,1.152.892.892,0,0,0,1.192.313l1.611-.893v8.808a.867.867,0,0,0,1.733,0v-4.786c.051,0,.1.008.155.008s.1,0,.156-.008v4.786a.867.867,0,0,0,1.733,0v-8.809l1.614.895a.892.892,0,0,0,1.192-.313.832.832,0,0,0-.324-1.152" transform="translate(-142.485 -50.675)" fill="#fff"/>
              <g id="Grupo_1070132" data-name="Grupo 1070132" transform="translate(0 71.178)" opacity="0.8">
                <g id="Grupo_1070131" data-name="Grupo 1070131">
                  <g id="Grupo_1070130" data-name="Grupo 1070130" clip-path="url(#clip-path-34)">
                    <path id="Trazado_814688" data-name="Trazado 814688" d="M148.067,124.072a1.63,1.63,0,1,0-1.683-1.628,1.657,1.657,0,0,0,1.683,1.628" transform="translate(-143.261 -120.814)" fill="#fff"/>
                    <path id="Trazado_814689" data-name="Trazado 814689" d="M151.661,127.548l-3.453-1.893a1.924,1.924,0,0,0-1.836,0l-3.449,1.891a.832.832,0,0,0-.324,1.152.892.892,0,0,0,1.192.313l1.611-.893v8.808a.867.867,0,0,0,1.733,0v-4.786c.051,0,.1.008.155.008s.1,0,.156-.008v4.786a.867.867,0,0,0,1.733,0v-8.809l1.614.895a.892.892,0,0,0,1.192-.313.832.832,0,0,0-.324-1.152" transform="translate(-142.485 -121.852)" fill="#fff"/>
                  </g>
                </g>
              </g>
              <path id="Trazado_814690" data-name="Trazado 814690" d="M217.725,101.294a1.63,1.63,0,1,0-1.683-1.628,1.657,1.657,0,0,0,1.683,1.628" transform="translate(-157.132 -44.505)" fill="#fff"/>
              <path id="Trazado_814691" data-name="Trazado 814691" d="M221.319,104.771l-3.453-1.893a1.924,1.924,0,0,0-1.836,0l-3.449,1.891a.831.831,0,0,0-.323,1.152.891.891,0,0,0,1.191.313l1.611-.893v8.808a.867.867,0,0,0,1.733,0v-4.786c.051,0,.1.008.155.008s.1,0,.156-.008v4.786a.867.867,0,0,0,1.733,0v-8.809l1.614.895a.892.892,0,0,0,1.192-.313.832.832,0,0,0-.324-1.152" transform="translate(-156.356 -45.544)" fill="#fff"/>
              <g id="Grupo_1070135" data-name="Grupo 1070135" transform="translate(55.787 53.531)" opacity="0.8">
                <g id="Grupo_1070134" data-name="Grupo 1070134">
                  <g id="Grupo_1070133" data-name="Grupo 1070133" clip-path="url(#clip-path-30)">
                    <path id="Trazado_814692" data-name="Trazado 814692" d="M217.725,101.294a1.63,1.63,0,1,0-1.683-1.628,1.657,1.657,0,0,0,1.683,1.628" transform="translate(-212.919 -98.036)" fill="#fff"/>
                    <path id="Trazado_814693" data-name="Trazado 814693" d="M221.319,104.771l-3.453-1.893a1.924,1.924,0,0,0-1.836,0l-3.449,1.891a.831.831,0,0,0-.323,1.152.891.891,0,0,0,1.191.313l1.611-.893v8.808a.867.867,0,0,0,1.733,0v-4.786c.051,0,.1.008.155.008s.1,0,.156-.008v4.786a.867.867,0,0,0,1.733,0v-8.809l1.614.895a.892.892,0,0,0,1.192-.313.832.832,0,0,0-.324-1.152" transform="translate(-212.143 -99.074)" fill="#fff"/>
                  </g>
                </g>
              </g>
              <path id="Trazado_814694" data-name="Trazado 814694" d="M203.793,78.516a1.63,1.63,0,1,0-1.683-1.629,1.657,1.657,0,0,0,1.683,1.629" transform="translate(-154.358 -39.374)" fill="#fff"/>
              <path id="Trazado_814695" data-name="Trazado 814695" d="M207.388,81.993,203.935,80.1a1.924,1.924,0,0,0-1.836,0l-3.449,1.891a.832.832,0,0,0-.324,1.152.892.892,0,0,0,1.192.313l1.611-.893v8.808a.867.867,0,0,0,1.733,0V86.587c.051,0,.1.008.155.008s.1,0,.156-.008v4.786a.867.867,0,0,0,1.733,0V82.563l1.614.895a.892.892,0,0,0,1.192-.313.832.832,0,0,0-.324-1.152" transform="translate(-153.582 -40.412)" fill="#fff"/>
              <g id="Grupo_1070138" data-name="Grupo 1070138" transform="translate(44.629 35.884)" opacity="0.8">
                <g id="Grupo_1070137" data-name="Grupo 1070137">
                  <g id="Grupo_1070136" data-name="Grupo 1070136" clip-path="url(#clip-path-30)">
                    <path id="Trazado_814696" data-name="Trazado 814696" d="M203.793,78.516a1.63,1.63,0,1,0-1.683-1.629,1.657,1.657,0,0,0,1.683,1.629" transform="translate(-198.987 -75.258)" fill="#fff"/>
                    <path id="Trazado_814697" data-name="Trazado 814697" d="M207.388,81.993,203.935,80.1a1.924,1.924,0,0,0-1.836,0l-3.449,1.891a.832.832,0,0,0-.324,1.152.892.892,0,0,0,1.192.313l1.611-.893v8.808a.867.867,0,0,0,1.733,0V86.587c.051,0,.1.008.155.008s.1,0,.156-.008v4.786a.867.867,0,0,0,1.733,0V82.563l1.614.895a.892.892,0,0,0,1.192-.313.832.832,0,0,0-.324-1.152" transform="translate(-198.211 -76.296)" fill="#fff"/>
                  </g>
                </g>
              </g>
              <path id="Trazado_814698" data-name="Trazado 814698" d="M189.862,78.516a1.63,1.63,0,1,0-1.684-1.629,1.657,1.657,0,0,0,1.684,1.629" transform="translate(-151.584 -39.374)" fill="#fff"/>
              <path id="Trazado_814699" data-name="Trazado 814699" d="M193.456,81.993,190,80.1a1.924,1.924,0,0,0-1.836,0l-3.449,1.891a.832.832,0,0,0-.324,1.152.892.892,0,0,0,1.192.313l1.611-.893v8.808a.867.867,0,0,0,1.733,0V86.587c.051,0,.1.008.155.008s.1,0,.156-.008v4.786a.867.867,0,0,0,1.733,0V82.563l1.614.895a.892.892,0,0,0,1.192-.313.832.832,0,0,0-.324-1.152" transform="translate(-150.807 -40.412)" fill="#fff"/>
              <g id="Grupo_1070141" data-name="Grupo 1070141" transform="translate(33.472 35.884)" opacity="0.8">
                <g id="Grupo_1070140" data-name="Grupo 1070140">
                  <g id="Grupo_1070139" data-name="Grupo 1070139" clip-path="url(#clip-path-30)">
                    <path id="Trazado_814700" data-name="Trazado 814700" d="M189.862,78.516a1.63,1.63,0,1,0-1.684-1.629,1.657,1.657,0,0,0,1.684,1.629" transform="translate(-185.055 -75.258)" fill="#fff"/>
                    <path id="Trazado_814701" data-name="Trazado 814701" d="M193.456,81.993,190,80.1a1.924,1.924,0,0,0-1.836,0l-3.449,1.891a.832.832,0,0,0-.324,1.152.892.892,0,0,0,1.192.313l1.611-.893v8.808a.867.867,0,0,0,1.733,0V86.587c.051,0,.1.008.155.008s.1,0,.156-.008v4.786a.867.867,0,0,0,1.733,0V82.563l1.614.895a.892.892,0,0,0,1.192-.313.832.832,0,0,0-.324-1.152" transform="translate(-184.279 -76.296)" fill="#fff"/>
                  </g>
                </g>
              </g>
              <path id="Trazado_814702" data-name="Trazado 814702" d="M175.93,78.516a1.63,1.63,0,1,0-1.683-1.629,1.657,1.657,0,0,0,1.683,1.629" transform="translate(-148.81 -39.374)" fill="#fff"/>
              <path id="Trazado_814703" data-name="Trazado 814703" d="M179.525,81.993,176.072,80.1a1.924,1.924,0,0,0-1.836,0l-3.449,1.891a.831.831,0,0,0-.323,1.152.891.891,0,0,0,1.191.313l1.611-.893v8.808a.867.867,0,0,0,1.733,0V86.587c.051,0,.1.008.155.008s.1,0,.156-.008v4.786a.867.867,0,0,0,1.733,0V82.563l1.614.895a.892.892,0,0,0,1.192-.313.832.832,0,0,0-.324-1.152" transform="translate(-148.033 -40.412)" fill="#fff"/>
              <g id="Grupo_1070144" data-name="Grupo 1070144" transform="translate(22.315 35.884)" opacity="0.8">
                <g id="Grupo_1070143" data-name="Grupo 1070143">
                  <g id="Grupo_1070142" data-name="Grupo 1070142" clip-path="url(#clip-path-30)">
                    <path id="Trazado_814704" data-name="Trazado 814704" d="M175.93,78.516a1.63,1.63,0,1,0-1.683-1.629,1.657,1.657,0,0,0,1.683,1.629" transform="translate(-171.124 -75.258)" fill="#fff"/>
                    <path id="Trazado_814705" data-name="Trazado 814705" d="M179.525,81.993,176.072,80.1a1.924,1.924,0,0,0-1.836,0l-3.449,1.891a.831.831,0,0,0-.323,1.152.891.891,0,0,0,1.191.313l1.611-.893v8.808a.867.867,0,0,0,1.733,0V86.587c.051,0,.1.008.155.008s.1,0,.156-.008v4.786a.867.867,0,0,0,1.733,0V82.563l1.614.895a.892.892,0,0,0,1.192-.313.832.832,0,0,0-.324-1.152" transform="translate(-170.348 -76.296)" fill="#fff"/>
                  </g>
                </g>
              </g>
              <path id="Trazado_814706" data-name="Trazado 814706" d="M162,78.516a1.63,1.63,0,1,0-1.683-1.629A1.657,1.657,0,0,0,162,78.516" transform="translate(-146.035 -39.374)" fill="#fff"/>
              <path id="Trazado_814707" data-name="Trazado 814707" d="M165.593,81.993,162.14,80.1a1.924,1.924,0,0,0-1.836,0l-3.449,1.891a.832.832,0,0,0-.324,1.152.892.892,0,0,0,1.192.313l1.611-.893v8.808a.867.867,0,0,0,1.733,0V86.587c.051,0,.1.008.155.008s.1,0,.156-.008v4.786a.867.867,0,0,0,1.733,0V82.563l1.614.895a.892.892,0,0,0,1.192-.313.832.832,0,0,0-.324-1.152" transform="translate(-145.259 -40.412)" fill="#fff"/>
              <g id="Grupo_1070147" data-name="Grupo 1070147" transform="translate(11.157 35.884)" opacity="0.8">
                <g id="Grupo_1070146" data-name="Grupo 1070146">
                  <g id="Grupo_1070145" data-name="Grupo 1070145" clip-path="url(#clip-path-30)">
                    <path id="Trazado_814708" data-name="Trazado 814708" d="M162,78.516a1.63,1.63,0,1,0-1.683-1.629A1.657,1.657,0,0,0,162,78.516" transform="translate(-157.192 -75.258)" fill="#fff"/>
                    <path id="Trazado_814709" data-name="Trazado 814709" d="M165.593,81.993,162.14,80.1a1.924,1.924,0,0,0-1.836,0l-3.449,1.891a.832.832,0,0,0-.324,1.152.892.892,0,0,0,1.192.313l1.611-.893v8.808a.867.867,0,0,0,1.733,0V86.587c.051,0,.1.008.155.008s.1,0,.156-.008v4.786a.867.867,0,0,0,1.733,0V82.563l1.614.895a.892.892,0,0,0,1.192-.313.832.832,0,0,0-.324-1.152" transform="translate(-156.416 -76.296)" fill="#fff"/>
                  </g>
                </g>
              </g>
              <path id="Trazado_814710" data-name="Trazado 814710" d="M217.725,78.516a1.63,1.63,0,1,0-1.683-1.629,1.657,1.657,0,0,0,1.683,1.629" transform="translate(-157.132 -39.374)" fill="#fff"/>
              <path id="Trazado_814711" data-name="Trazado 814711" d="M221.319,81.993,217.866,80.1a1.924,1.924,0,0,0-1.836,0l-3.449,1.891a.831.831,0,0,0-.323,1.152.891.891,0,0,0,1.191.313l1.611-.893v8.808a.867.867,0,0,0,1.733,0V86.587c.051,0,.1.008.155.008s.1,0,.156-.008v4.786a.867.867,0,0,0,1.733,0V82.563l1.614.895a.892.892,0,0,0,1.192-.313.832.832,0,0,0-.324-1.152" transform="translate(-156.356 -40.412)" fill="#fff"/>
              <g id="Grupo_1070150" data-name="Grupo 1070150" transform="translate(55.787 35.884)" opacity="0.8">
                <g id="Grupo_1070149" data-name="Grupo 1070149">
                  <g id="Grupo_1070148" data-name="Grupo 1070148" clip-path="url(#clip-path-30)">
                    <path id="Trazado_814712" data-name="Trazado 814712" d="M217.725,78.516a1.63,1.63,0,1,0-1.683-1.629,1.657,1.657,0,0,0,1.683,1.629" transform="translate(-212.919 -75.258)" fill="#fff"/>
                    <path id="Trazado_814713" data-name="Trazado 814713" d="M221.319,81.993,217.866,80.1a1.924,1.924,0,0,0-1.836,0l-3.449,1.891a.831.831,0,0,0-.323,1.152.891.891,0,0,0,1.191.313l1.611-.893v8.808a.867.867,0,0,0,1.733,0V86.587c.051,0,.1.008.155.008s.1,0,.156-.008v4.786a.867.867,0,0,0,1.733,0V82.563l1.614.895a.892.892,0,0,0,1.192-.313.832.832,0,0,0-.324-1.152" transform="translate(-212.143 -76.296)" fill="#fff"/>
                  </g>
                </g>
              </g>
              <path id="Trazado_814714" data-name="Trazado 814714" d="M203.793,55.738a1.63,1.63,0,1,0-1.683-1.629,1.657,1.657,0,0,0,1.683,1.629" transform="translate(-154.358 -34.243)" fill="#fff"/>
              <path id="Trazado_814715" data-name="Trazado 814715" d="M207.388,59.215l-3.453-1.893a1.924,1.924,0,0,0-1.836,0l-3.449,1.891a.832.832,0,0,0-.324,1.152.892.892,0,0,0,1.192.313l1.611-.893v8.808a.867.867,0,0,0,1.733,0V63.809c.051,0,.1.008.155.008s.1,0,.156-.008v4.786a.867.867,0,0,0,1.733,0V59.785l1.614.895a.892.892,0,0,0,1.192-.313.832.832,0,0,0-.324-1.152" transform="translate(-153.582 -35.281)" fill="#fff"/>
              <g id="Grupo_1070153" data-name="Grupo 1070153" transform="translate(44.629 18.238)" opacity="0.8">
                <g id="Grupo_1070152" data-name="Grupo 1070152">
                  <g id="Grupo_1070151" data-name="Grupo 1070151" clip-path="url(#clip-path-30)">
                    <path id="Trazado_814716" data-name="Trazado 814716" d="M203.793,55.738a1.63,1.63,0,1,0-1.683-1.629,1.657,1.657,0,0,0,1.683,1.629" transform="translate(-198.987 -52.481)" fill="#fff"/>
                    <path id="Trazado_814717" data-name="Trazado 814717" d="M207.388,59.215l-3.453-1.893a1.924,1.924,0,0,0-1.836,0l-3.449,1.891a.832.832,0,0,0-.324,1.152.892.892,0,0,0,1.192.313l1.611-.893v8.808a.867.867,0,0,0,1.733,0V63.809c.051,0,.1.008.155.008s.1,0,.156-.008v4.786a.867.867,0,0,0,1.733,0V59.785l1.614.895a.892.892,0,0,0,1.192-.313.832.832,0,0,0-.324-1.152" transform="translate(-198.211 -53.519)" fill="#fff"/>
                  </g>
                </g>
              </g>
              <path id="Trazado_814718" data-name="Trazado 814718" d="M189.862,55.738a1.63,1.63,0,1,0-1.684-1.629,1.657,1.657,0,0,0,1.684,1.629" transform="translate(-151.584 -34.243)" fill="#fff"/>
              <path id="Trazado_814719" data-name="Trazado 814719" d="M193.456,59.215,190,57.322a1.924,1.924,0,0,0-1.836,0l-3.449,1.891a.832.832,0,0,0-.324,1.152.892.892,0,0,0,1.192.313l1.611-.893v8.808a.867.867,0,0,0,1.733,0V63.809c.051,0,.1.008.155.008s.1,0,.156-.008v4.786a.867.867,0,0,0,1.733,0V59.785l1.614.895a.892.892,0,0,0,1.192-.313.832.832,0,0,0-.324-1.152" transform="translate(-150.807 -35.281)" fill="#fff"/>
              <g id="Grupo_1070156" data-name="Grupo 1070156" transform="translate(33.472 18.238)" opacity="0.8">
                <g id="Grupo_1070155" data-name="Grupo 1070155">
                  <g id="Grupo_1070154" data-name="Grupo 1070154" clip-path="url(#clip-path-30)">
                    <path id="Trazado_814720" data-name="Trazado 814720" d="M189.862,55.738a1.63,1.63,0,1,0-1.684-1.629,1.657,1.657,0,0,0,1.684,1.629" transform="translate(-185.055 -52.481)" fill="#fff"/>
                    <path id="Trazado_814721" data-name="Trazado 814721" d="M193.456,59.215,190,57.322a1.924,1.924,0,0,0-1.836,0l-3.449,1.891a.832.832,0,0,0-.324,1.152.892.892,0,0,0,1.192.313l1.611-.893v8.808a.867.867,0,0,0,1.733,0V63.809c.051,0,.1.008.155.008s.1,0,.156-.008v4.786a.867.867,0,0,0,1.733,0V59.785l1.614.895a.892.892,0,0,0,1.192-.313.832.832,0,0,0-.324-1.152" transform="translate(-184.279 -53.519)" fill="#fff"/>
                  </g>
                </g>
              </g>
              <path id="Trazado_814722" data-name="Trazado 814722" d="M175.93,55.738a1.63,1.63,0,1,0-1.683-1.629,1.657,1.657,0,0,0,1.683,1.629" transform="translate(-148.81 -34.243)" fill="#fff"/>
              <path id="Trazado_814723" data-name="Trazado 814723" d="M179.525,59.215l-3.453-1.893a1.924,1.924,0,0,0-1.836,0l-3.449,1.891a.831.831,0,0,0-.323,1.152.891.891,0,0,0,1.191.313l1.611-.893v8.808a.867.867,0,0,0,1.733,0V63.809c.051,0,.1.008.155.008s.1,0,.156-.008v4.786a.867.867,0,0,0,1.733,0V59.785l1.614.895a.892.892,0,0,0,1.192-.313.832.832,0,0,0-.324-1.152" transform="translate(-148.033 -35.281)" fill="#fff"/>
              <g id="Grupo_1070159" data-name="Grupo 1070159" transform="translate(22.315 18.238)" opacity="0.8">
                <g id="Grupo_1070158" data-name="Grupo 1070158">
                  <g id="Grupo_1070157" data-name="Grupo 1070157" clip-path="url(#clip-path-30)">
                    <path id="Trazado_814724" data-name="Trazado 814724" d="M175.93,55.738a1.63,1.63,0,1,0-1.683-1.629,1.657,1.657,0,0,0,1.683,1.629" transform="translate(-171.124 -52.481)" fill="#fff"/>
                    <path id="Trazado_814725" data-name="Trazado 814725" d="M179.525,59.215l-3.453-1.893a1.924,1.924,0,0,0-1.836,0l-3.449,1.891a.831.831,0,0,0-.323,1.152.891.891,0,0,0,1.191.313l1.611-.893v8.808a.867.867,0,0,0,1.733,0V63.809c.051,0,.1.008.155.008s.1,0,.156-.008v4.786a.867.867,0,0,0,1.733,0V59.785l1.614.895a.892.892,0,0,0,1.192-.313.832.832,0,0,0-.324-1.152" transform="translate(-170.348 -53.519)" fill="#fff"/>
                  </g>
                </g>
              </g>
              <path id="Trazado_814726" data-name="Trazado 814726" d="M217.725,55.738a1.63,1.63,0,1,0-1.683-1.629,1.657,1.657,0,0,0,1.683,1.629" transform="translate(-157.132 -34.243)" fill="#fff"/>
              <path id="Trazado_814727" data-name="Trazado 814727" d="M221.319,59.215l-3.453-1.893a1.924,1.924,0,0,0-1.836,0l-3.449,1.891a.831.831,0,0,0-.323,1.152.891.891,0,0,0,1.191.313l1.611-.893v8.808a.867.867,0,0,0,1.733,0V63.809c.051,0,.1.008.155.008s.1,0,.156-.008v4.786a.867.867,0,0,0,1.733,0V59.785l1.614.895a.892.892,0,0,0,1.192-.313.832.832,0,0,0-.324-1.152" transform="translate(-156.356 -35.281)" fill="#fff"/>
              <g id="Grupo_1070162" data-name="Grupo 1070162" transform="translate(55.787 18.238)" opacity="0.8">
                <g id="Grupo_1070161" data-name="Grupo 1070161">
                  <g id="Grupo_1070160" data-name="Grupo 1070160" clip-path="url(#clip-path-30)">
                    <path id="Trazado_814728" data-name="Trazado 814728" d="M217.725,55.738a1.63,1.63,0,1,0-1.683-1.629,1.657,1.657,0,0,0,1.683,1.629" transform="translate(-212.919 -52.481)" fill="#fff"/>
                    <path id="Trazado_814729" data-name="Trazado 814729" d="M221.319,59.215l-3.453-1.893a1.924,1.924,0,0,0-1.836,0l-3.449,1.891a.831.831,0,0,0-.323,1.152.891.891,0,0,0,1.191.313l1.611-.893v8.808a.867.867,0,0,0,1.733,0V63.809c.051,0,.1.008.155.008s.1,0,.156-.008v4.786a.867.867,0,0,0,1.733,0V59.785l1.614.895a.892.892,0,0,0,1.192-.313.832.832,0,0,0-.324-1.152" transform="translate(-212.143 -53.519)" fill="#fff"/>
                  </g>
                </g>
              </g>
              <path id="Trazado_814730" data-name="Trazado 814730" d="M217.725,32.961a1.63,1.63,0,1,0-1.683-1.629,1.657,1.657,0,0,0,1.683,1.629" transform="translate(-157.132 -29.112)" fill="#fff"/>
              <path id="Trazado_814731" data-name="Trazado 814731" d="M221.319,36.437l-3.453-1.893a1.924,1.924,0,0,0-1.836,0l-3.449,1.891a.831.831,0,0,0-.323,1.152.891.891,0,0,0,1.191.313l1.611-.893v8.808a.867.867,0,0,0,1.733,0V41.031c.051,0,.1.008.155.008s.1,0,.156-.008v4.786a.867.867,0,0,0,1.733,0V37.007l1.614.895a.892.892,0,0,0,1.192-.313.832.832,0,0,0-.324-1.152" transform="translate(-156.356 -30.15)" fill="#fff"/>
              <g id="Grupo_1070165" data-name="Grupo 1070165" transform="translate(55.787 0.591)" opacity="0.8">
                <g id="Grupo_1070164" data-name="Grupo 1070164">
                  <g id="Grupo_1070163" data-name="Grupo 1070163" clip-path="url(#clip-path-30)">
                    <path id="Trazado_814732" data-name="Trazado 814732" d="M217.725,32.961a1.63,1.63,0,1,0-1.683-1.629,1.657,1.657,0,0,0,1.683,1.629" transform="translate(-212.919 -29.703)" fill="#fff"/>
                    <path id="Trazado_814733" data-name="Trazado 814733" d="M221.319,36.437l-3.453-1.893a1.924,1.924,0,0,0-1.836,0l-3.449,1.891a.831.831,0,0,0-.323,1.152.891.891,0,0,0,1.191.313l1.611-.893v8.808a.867.867,0,0,0,1.733,0V41.031c.051,0,.1.008.155.008s.1,0,.156-.008v4.786a.867.867,0,0,0,1.733,0V37.007l1.614.895a.892.892,0,0,0,1.192-.313.832.832,0,0,0-.324-1.152" transform="translate(-212.143 -30.741)" fill="#fff"/>
                  </g>
                </g>
              </g>
            </g>
          </g>
        </g>
      </g>
    </g>
    <path id="Trazado_814734" data-name="Trazado 814734" d="M106.125,321.935l6.157-1.517-1.993-14.2-6.157,1.517Z" transform="translate(-20.735 -68.982)" fill="#ff8b7b"/>
    <path id="Trazado_814735" data-name="Trazado 814735" d="M50.734,328.721h6.354l.936-14.234H51.67Z" transform="translate(-10.102 -70.844)" fill="#ff8b7b"/>
    <g id="Grupo_1070196" data-name="Grupo 1070196">
      <g id="Grupo_1070195" data-name="Grupo 1070195" clip-path="url(#clip-path)">
        <path id="Trazado_814736" data-name="Trazado 814736" d="M57.535,331.942H49.789a.442.442,0,0,0-.465.42l-.271,5.463a1.126,1.126,0,0,0,1.128,1.093c2.484-.042,4.277-.183,7.417-.183,1.931,0,6.9.194,9.566.194,2.608,0,2.556-2.55,1.422-2.782-5.082-1.036-8.138-2.464-9.95-3.827a1.851,1.851,0,0,0-1.1-.378" transform="translate(-9.767 -74.776)" fill="#12263f"/>
        <path id="Trazado_814737" data-name="Trazado 814737" d="M112.252,323.649l-6.724,1.656a.54.54,0,0,0-.417.536l.178,5.594a.92.92,0,0,0,1.165.841c2.415-.638,5.883-1.639,8.932-2.39,3.565-.879,5.065-1.139,9.245-2.168,2.528-.623,2.578-3.268,1.462-3.231-5.086.167-7.419.717-12.235-.74a3.04,3.04,0,0,0-1.606-.1" transform="translate(-20.93 -72.893)" fill="#12263f"/>
        <path id="Trazado_814738" data-name="Trazado 814738" d="M88.2,87.8c2.484,3.54,4.836,7.115,7.112,10.766,1.145,1.818,2.258,3.658,3.358,5.509.552.923,1.1,1.849,1.635,2.787l.8,1.406c.235.421.637,1.1.6,1.072.034.1-.033-.07-.6-.291a2.226,2.226,0,0,0-1.009-.144,1.6,1.6,0,0,0-.645.163c-.206.125-.037.088.152-.055a5.389,5.389,0,0,0,.733-.669,28.265,28.265,0,0,0,3.251-4.571c2.054-3.458,3.983-7.246,5.8-10.972l4.545,1.4a71.812,71.812,0,0,1-3.866,12.616c-.431,1.045-.922,2.08-1.465,3.131a22.786,22.786,0,0,1-1.967,3.2,13.681,13.681,0,0,1-1.47,1.679,8.407,8.407,0,0,1-2.545,1.721,6.733,6.733,0,0,1-2.236.518,6.425,6.425,0,0,1-2.609-.433,7.463,7.463,0,0,1-3.049-2.347c-.669-.9-.8-1.14-1.14-1.618l-.9-1.306-1.806-2.619L87.268,103.5c-2.41-3.5-4.793-7.038-7.109-10.577Z" transform="translate(-15.962 -19.778)" fill="#ff8b7b"/>
        <path id="Trazado_814739" data-name="Trazado 814739" d="M76.311,87.41c-1.56,5.68,10.911,20.74,10.911,20.74l11.952-7.874a74.592,74.592,0,0,0-8.8-13.605c-5.146-6.012-12.353-5.493-14.066.74" transform="translate(-15.169 -18.57)" fill="#3b1335"/>
        <g id="Grupo_1070173" data-name="Grupo 1070173" transform="translate(63.99 76.773)" opacity="0.2">
          <g id="Grupo_1070172" data-name="Grupo 1070172">
            <g id="Grupo_1070171" data-name="Grupo 1070171" clip-path="url(#clip-path-56)">
              <path id="Trazado_814740" data-name="Trazado 814740" d="M85.856,100.058c2.971-.847,4.938,4.507,6.534,8.929L87.962,111.9A94.361,94.361,0,0,1,79.9,100.369c1.7-3.192,2.21.757,5.956-.311" transform="translate(-79.9 -99.096)"/>
            </g>
          </g>
        </g>
        <g id="Grupo_1070176" data-name="Grupo 1070176" transform="translate(83.393 237.243)" opacity="0.2">
          <g id="Grupo_1070175" data-name="Grupo 1070175">
            <g id="Grupo_1070174" data-name="Grupo 1070174" clip-path="url(#clip-path-57)">
              <path id="Trazado_814741" data-name="Trazado 814741" d="M110.287,306.226l1.029,7.317-6.16,1.518-1.028-7.317Z" transform="translate(-104.127 -306.226)"/>
            </g>
          </g>
        </g>
        <g id="Grupo_1070179" data-name="Grupo 1070179" transform="translate(41.08 243.647)" opacity="0.2">
          <g id="Grupo_1070178" data-name="Grupo 1070178">
            <g id="Grupo_1070177" data-name="Grupo 1070177" clip-path="url(#clip-path-58)">
              <path id="Trazado_814742" data-name="Trazado 814742" d="M51.78,314.493h6.357l-.485,7.337H51.295Z" transform="translate(-51.294 -314.493)"/>
            </g>
          </g>
        </g>
        <path id="Trazado_814743" data-name="Trazado 814743" d="M40.906,85.433a134.341,134.341,0,0,1,4.678,20.089c.752,4.743,1.257,9.275,1.612,13.389.835,9.641.85,17.01,1.225,19.5,4.956-.48,23.631-2.3,33.813-3.291,3.5-35.084-5.881-52.827-5.881-52.827a68.6,68.6,0,0,0-8.142-.729c-.575-.019-1.16-.02-1.753-.015a129.281,129.281,0,0,0-14.376,1.4c-.9.131-1.816.287-2.7.452-4.515.849-8.473,2.038-8.473,2.038" transform="translate(-8.145 -18.369)" fill="#3b1335"/>
        <g id="Grupo_1070182" data-name="Grupo 1070182" transform="translate(34.48 72.955)" opacity="0.2">
          <g id="Grupo_1070181" data-name="Grupo 1070181">
            <g id="Grupo_1070180" data-name="Grupo 1070180" clip-path="url(#clip-path-59)">
              <path id="Trazado_814744" data-name="Trazado 814744" d="M48.729,98.222l-5.675-4.054a141.1,141.1,0,0,1,2.955,14.2c.432,2.73.787,5.387,1.069,7.939,2.339-7.8,1.651-18.084,1.651-18.084" transform="translate(-43.054 -94.168)"/>
            </g>
          </g>
        </g>
        <path id="Trazado_814745" data-name="Trazado 814745" d="M54.606,62.962c1.373,4.386,3.131,12.495.207,15.8a14.774,14.774,0,0,0,11.526,3.185c3.97-.471,3.89-3.181,2.848-4.585-5.282-.69-5.534-4.4-5-7.967Z" transform="translate(-10.873 -14.183)" fill="#ff8b7b"/>
        <path id="Trazado_814746" data-name="Trazado 814746" d="M54.269,81.434l-2.233,1.252a.536.536,0,0,0-.263.61A13.611,13.611,0,0,0,61.633,93a8.834,8.834,0,0,1,2.262-6.79c-2.493-.38-7.45-2.551-8.874-4.6a.574.574,0,0,0-.752-.175" transform="translate(-10.306 -18.328)" fill="#c8b1c5"/>
        <path id="Trazado_814747" data-name="Trazado 814747" d="M72.5,80.988l2.236.136a.57.57,0,0,1,.395.191c1.042,1.185,6.611,8.009-1.008,10.541.449-4.094-3.389-6.089-3.389-6.089a3.487,3.487,0,0,0,1.189-4.089.548.548,0,0,1,.577-.689" transform="translate(-14.085 -18.244)" fill="#c8b1c5"/>
        <g id="Grupo_1070185" data-name="Grupo 1070185" transform="translate(47.578 51.402)" opacity="0.2">
          <g id="Grupo_1070184" data-name="Grupo 1070184">
            <g id="Grupo_1070183" data-name="Grupo 1070183" clip-path="url(#clip-path-60)">
              <path id="Trazado_814748" data-name="Trazado 814748" d="M59.469,66.348l5.672,3.8a13.917,13.917,0,0,0-.187,2.511c-2-.084-4.923-1.911-5.34-3.887a6.517,6.517,0,0,1-.145-2.426" transform="translate(-59.407 -66.348)"/>
            </g>
          </g>
        </g>
        <path id="Trazado_814749" data-name="Trazado 814749" d="M71.328,43.7a6.222,6.222,0,0,1,.579,10.918c-4.375,2.6-6.327-13.521-.579-10.918" transform="translate(-13.493 -9.779)" fill="#263238"/>
        <path id="Trazado_814750" data-name="Trazado 814750" d="M53.014,51.5c1.016,6.02,1.293,9.594,4.78,12.395,5.245,4.214,12.686.686,13.55-5.507.778-5.574-1.013-14.483-7.394-16.3A8.5,8.5,0,0,0,53.014,51.5" transform="translate(-10.533 -9.402)" fill="#ff8b7b"/>
        <path id="Trazado_814751" data-name="Trazado 814751" d="M52.22,55.449c2.011-1.319,3.307-4.528,1.77-9.287,2.385.71,14.373,2.243,14.471-3.824.094-5.814-8.742-2.959-12.959-5.638-.926,1.018.28,2.17.28,2.17s-6.033,2.626-9.61,1.453a3.34,3.34,0,0,0,1.294,2.2s-3.722.439-3.449,5.853c.26,5.147,7.046,7.828,8.2,7.069" transform="translate(-8.762 -8.267)" fill="#263238"/>
        <path id="Trazado_814752" data-name="Trazado 814752" d="M50.218,62.063A6.048,6.048,0,0,0,54.2,64.249c2.088.235,2.805-1.648,1.952-3.389-.768-1.567-2.78-3.577-4.744-3.007a2.571,2.571,0,0,0-1.19,4.21" transform="translate(-9.87 -13.01)" fill="#ff8b7b"/>
        <path id="Trazado_814753" data-name="Trazado 814753" d="M105.422,276.563,95,279.127s-8.315-36.8-10.78-55.808a195.033,195.033,0,0,0-4.861-22.391c-2.862-10.813-6.391-22.491-9.268-31.633-3.035-9.628-5.328-16.438-5.328-16.438l22.229-2.165s13.553,48.98,14.807,67.7c1.305,19.464,3.627,58.17,3.627,58.17" transform="translate(-12.895 -33.946)" fill="#c8b1c5"/>
        <g id="Grupo_1070191" data-name="Grupo 1070191" transform="translate(57.192 130.465)" opacity="0.2">
          <g id="Grupo_1070190" data-name="Grupo 1070190">
            <g id="Grupo_1070189" data-name="Grupo 1070189" clip-path="url(#clip-path-61)">
              <path id="Trazado_814755" data-name="Trazado 814755" d="M80.68,204.917c-2.862-10.812-6.392-22.49-9.269-31.633L73.57,168.4c5.727,6.188,7.839,25.8,7.109,36.517" transform="translate(-71.412 -168.4)"/>
            </g>
          </g>
        </g>
        <path id="Trazado_814756" data-name="Trazado 814756" d="M71.674,152.2s-.732,52.669-2.846,70.562c-2.316,19.594-9.106,61.088-9.106,61.088H48.084s.38-38.649,3.423-57.652c3.465-21.646-1.651-71.871-1.651-71.871Z" transform="translate(-9.575 -34.286)" fill="#c8b1c5"/>
        <path id="Trazado_814758" data-name="Trazado 814758" d="M60.825,321.217h-13.7l-.713-3.96L61.681,317Z" transform="translate(-9.241 -71.41)" fill="#632059"/>
        <path id="Trazado_814759" data-name="Trazado 814759" d="M113.9,311.755l-12.425,3.061-1.022-3.883,13.834-3.627Z" transform="translate(-20.003 -69.227)" fill="#632059"/>
        <path id="Trazado_814760" data-name="Trazado 814760" d="M65.122,55.055c.051.494.363.867.7.834s.561-.459.51-.952-.363-.867-.7-.834-.561.459-.51.952" transform="translate(-12.966 -12.187)" fill="#263238"/>
        <path id="Trazado_814761" data-name="Trazado 814761" d="M72.319,54.329c.051.494.364.867.7.834s.561-.459.51-.952-.363-.867-.7-.834-.561.459-.51.952" transform="translate(-14.399 -12.024)" fill="#263238"/>
        <path id="Trazado_814762" data-name="Trazado 814762" d="M70.065,55.154a17.743,17.743,0,0,0,2.875,3.981,3.027,3.027,0,0,1-2.39.679Z" transform="translate(-13.952 -12.424)" fill="#ff5652"/>
        <path id="Trazado_814763" data-name="Trazado 814763" d="M67.392,62.686a5.045,5.045,0,0,0,.668-.022.146.146,0,0,0,.135-.159.148.148,0,0,0-.164-.13,4.124,4.124,0,0,1-3.453-1.207.155.155,0,0,0-.211-.022.142.142,0,0,0-.023.2,4.268,4.268,0,0,0,3.049,1.336" transform="translate(-12.806 -13.767)" fill="#263238"/>
        <path id="Trazado_814764" data-name="Trazado 814764" d="M62.6,52.686a.3.3,0,0,0,.267-.139,2.414,2.414,0,0,1,1.817-1.154.291.291,0,1,0-.018-.582,3.007,3.007,0,0,0-2.314,1.433.285.285,0,0,0,.1.4.307.307,0,0,0,.147.043" transform="translate(-12.407 -11.446)" fill="#263238"/>
        <path id="Trazado_814765" data-name="Trazado 814765" d="M74.584,51.276a.307.307,0,0,0,.168-.043.286.286,0,0,0,.1-.4,3.027,3.027,0,0,0-2.322-1.421.291.291,0,1,0-.017.582,2.361,2.361,0,0,1,1.826,1.145.3.3,0,0,0,.247.138" transform="translate(-14.381 -11.131)" fill="#263238"/>
        <path id="Trazado_814766" data-name="Trazado 814766" d="M62.051,332.874a1.728,1.728,0,0,0,1.167-.313.747.747,0,0,0,.173-.769.586.586,0,0,0-.332-.412c-.765-.35-2.6.869-2.8,1.009a.122.122,0,0,0-.042.146.188.188,0,0,0,.135.119,8.331,8.331,0,0,0,1.7.22m.715-1.272a.5.5,0,0,1,.2.036.224.224,0,0,1,.126.171.508.508,0,0,1-.11.528c-.3.282-1.12.321-2.235.111a5.164,5.164,0,0,1,2.017-.847" transform="translate(-11.989 -74.635)" fill="#407bff"/>
        <path id="Trazado_814767" data-name="Trazado 814767" d="M60.379,332.239a.139.139,0,0,0,.069-.017c.6-.346,1.623-1.693,1.366-2.378a.611.611,0,0,0-.548-.382.738.738,0,0,0-.607.187c-.633.583-.466,2.358-.459,2.433a.183.183,0,0,0,.179.156m.834-2.492c.022,0,.046,0,.069,0,.2.023.232.11.247.147.152.4-.475,1.422-1.042,1.9-.019-.518,0-1.551.4-1.925a.458.458,0,0,1,.323-.128" transform="translate(-11.983 -74.216)" fill="#407bff"/>
        <path id="Trazado_814768" data-name="Trazado 814768" d="M115.021,323.931h.021c1.042-.053,2.869-.253,3.392-1a.8.8,0,0,0,.092-.754.47.47,0,0,0-.34-.316c-.858-.225-3.01,1.605-3.252,1.814a.144.144,0,0,0-.039.164.147.147,0,0,0,.127.089m3.03-1.8a.349.349,0,0,1,.058.009.18.18,0,0,1,.132.128.525.525,0,0,1-.056.5c-.295.418-1.293.724-2.71.841a6.285,6.285,0,0,1,2.576-1.475" transform="translate(-22.876 -72.502)" fill="#407bff"/>
        <path id="Trazado_814769" data-name="Trazado 814769" d="M115.007,323.635a.153.153,0,0,0,.106-.031c.658-.506,1.792-2.156,1.5-2.8-.069-.152-.235-.318-.647-.26a1.106,1.106,0,0,0-.745.441,4.029,4.029,0,0,0-.352,2.53.146.146,0,0,0,.094.113.136.136,0,0,0,.042.009m1.161-2.813c.131.011.159.072.17.1.174.387-.56,1.646-1.2,2.274a3.318,3.318,0,0,1,.329-2.037.8.8,0,0,1,.547-.325.717.717,0,0,1,.156-.008" transform="translate(-22.861 -72.205)" fill="#407bff"/>
        <path id="Trazado_814770" data-name="Trazado 814770" d="M44.877,95.6c-.54,1.959-1.144,4.069-1.651,6.124-.533,2.067-1.026,4.139-1.5,6.207q-.692,3.105-1.242,6.195c-.167,1.027-.331,2.057-.464,3.073-.075.511-.144,1.021-.189,1.523l-.078.758-.039.38-.018.163a.491.491,0,0,0-.007-.108c-.042-.3-.15-.427-.147-.366a1.668,1.668,0,0,0,.329.483,9.826,9.826,0,0,0,1.868,1.526,39.9,39.9,0,0,0,5.387,2.889c3.891,1.763,8.1,3.365,12.237,4.834l-1.046,4.5A79.488,79.488,0,0,1,44.5,130.96a41.154,41.154,0,0,1-6.914-2.735,18.312,18.312,0,0,1-3.585-2.4,9.9,9.9,0,0,1-1.812-2.067,7.287,7.287,0,0,1-1.176-3.47l-.015-.52,0-.249.008-.443.018-.887c0-.6.034-1.179.069-1.761.046-1.173.171-2.322.28-3.475.248-2.293.572-4.562.986-6.8s.887-4.459,1.428-6.66c.572-2.211,1.12-4.351,1.867-6.6Z" transform="translate(-6.173 -20.926)" fill="#ff8b7b"/>
        <path id="Trazado_814771" data-name="Trazado 814771" d="M35.68,87.182c-5.425,2.644-8.888,19.647-8.888,19.647l15.091,3.977A83.008,83.008,0,0,0,46.1,95.893c1.364-8.167-3.852-11.915-10.424-8.712" transform="translate(-5.335 -19.382)" fill="#3b1335"/>
        <path id="Trazado_814772" data-name="Trazado 814772" d="M55.971,142.2,134,111.594l.306.716L56.7,143.908Z" transform="translate(-11.145 -25.139)" fill="#1b3f5e"/>
        <path id="Trazado_814773" data-name="Trazado 814773" d="M64.084,139.754l6.449.083-3.482,7.091s-5.475-1.25-5.114-4.129Z" transform="translate(-12.33 -31.482)" fill="#ff8b7b"/>
        <path id="Trazado_814774" data-name="Trazado 814774" d="M75.967,143.053,72.8,148.784l-4.478-1.831,3.483-7.091Z" transform="translate(-13.606 -31.506)" fill="#ff8b7b"/>
        <path id="Trazado_814775" data-name="Trazado 814775" d="M119.009,96.456l6.367-1L121.909,89.5s-6.451,1.47-5.571,4.906Z" transform="translate(-23.15 -20.162)" fill="#ff8b7b"/>
        <path id="Trazado_814776" data-name="Trazado 814776" d="M130.407,91.283l-1.575-3.654-5.517,1.451,3.466,5.953Z" transform="translate(-24.555 -19.74)" fill="#ff8b7b"/>
        <path id="Trazado_814777" data-name="Trazado 814777" d="M123.342,52.671a2.878,2.878,0,1,0-2.974-2.877,2.926,2.926,0,0,0,2.974,2.877" transform="translate(-23.968 -10.569)" fill="#3b5620"/>
        <path id="Trazado_814778" data-name="Trazado 814778" d="M129.69,58.812l-6.1-3.342a3.4,3.4,0,0,0-3.244,0l-6.09,3.34a1.469,1.469,0,0,0-.571,2.034,1.574,1.574,0,0,0,2.1.553l2.846-1.578V75.375a1.53,1.53,0,0,0,3.059,0V66.924c.091.008.183.014.275.014s.184-.006.276-.014v8.451a1.531,1.531,0,0,0,3.06,0V59.819l2.851,1.58a1.574,1.574,0,0,0,2.1-.553,1.469,1.469,0,0,0-.571-2.034" transform="translate(-22.598 -12.403)" fill="#3b5620"/>
      </g>
    </g>
  </g>
</svg>
