<svg xmlns="http://www.w3.org/2000/svg" xmlns:xlink="http://www.w3.org/1999/xlink" width="302" height="264" viewBox="0 0 302 264">
  <defs>
    <clipPath id="clip-path">
      <rect id="Rectángulo_377194" data-name="Rectángulo 377194" width="302" height="264" transform="translate(-10.5 -21.488)" fill="#fff" stroke="#707070" stroke-width="1"/>
    </clipPath>
    <clipPath id="clip-path-2">
      <rect id="Rectángulo_375637" data-name="Rectángulo 375637" width="302" height="262.555" fill="none"/>
    </clipPath>
    <clipPath id="clip-path-6">
      <rect id="Rectángulo_375623" data-name="Rectángulo 375623" width="3.927" height="13.856" fill="none"/>
    </clipPath>
    <clipPath id="clip-path-7">
      <rect id="Rectángulo_375624" data-name="Rectángulo 375624" width="6.365" height="7.72" fill="none"/>
    </clipPath>
    <clipPath id="clip-path-8">
      <rect id="Rectángulo_375625" data-name="Rectángulo 375625" width="10.224" height="9.377" fill="none"/>
    </clipPath>
    <clipPath id="clip-path-9">
      <rect id="Rectángulo_375627" data-name="Rectángulo 375627" width="4.251" height="5.814" fill="none"/>
    </clipPath>
    <clipPath id="clip-path-10">
      <rect id="Rectángulo_375628" data-name="Rectángulo 375628" width="8.367" height="48.543" fill="none"/>
    </clipPath>
    <clipPath id="clip-path-11">
      <rect id="Rectángulo_375631" data-name="Rectángulo 375631" width="125.092" height="131.498" fill="#3b5620"/>
    </clipPath>
    <clipPath id="clip-path-12">
      <rect id="Rectángulo_375632" data-name="Rectángulo 375632" width="63.518" height="118.185" fill="none"/>
    </clipPath>
    <clipPath id="clip-path-13">
      <rect id="Rectángulo_375633" data-name="Rectángulo 375633" width="73.729" height="126.946" fill="none"/>
    </clipPath>
    <clipPath id="clip-path-15">
      <rect id="Rectángulo_375635" data-name="Rectángulo 375635" width="205.809" height="131.568" fill="none"/>
    </clipPath>
  </defs>
  <g id="Grupo_1070394" data-name="Grupo 1070394" transform="translate(10.5 21.488)">
    <g id="Enmascarar_grupo_91" data-name="Enmascarar grupo 91" clip-path="url(#clip-path)">
      <g id="Grupo_1070393" data-name="Grupo 1070393" transform="translate(-10.5 -21.488)" clip-path="url(#clip-path-2)">
        <rect id="Rectángulo_375602" data-name="Rectángulo 375602" width="92.323" height="84.091" transform="translate(13.418 10.857)" fill="#e6e6e6"/>
        <rect id="Rectángulo_375603" data-name="Rectángulo 375603" width="92.323" height="84.091" transform="translate(11.367 10.857)" fill="#f5f5f5"/>
        <rect id="Rectángulo_375604" data-name="Rectángulo 375604" width="84.957" height="78.08" transform="translate(15.049 13.862)" fill="#fafafa"/>
        <path id="Trazado_815060" data-name="Trazado 815060" d="M81.78,97.462l15.392-78.08H64.97L49.578,97.462Z" transform="translate(-15.848 -5.519)" fill="#fff"/>
        <rect id="Rectángulo_375605" data-name="Rectángulo 375605" width="1.551" height="78.08" transform="translate(15.049 13.862)" fill="#e6e6e6"/>
        <rect id="Rectángulo_375606" data-name="Rectángulo 375606" width="89.276" height="4.035" transform="translate(12.89 73.907)" fill="#f5f5f5"/>
        <rect id="Rectángulo_375607" data-name="Rectángulo 375607" width="14.742" height="67.212" transform="translate(101.464 158.782)" fill="#f0f0f0"/>
        <rect id="Rectángulo_375608" data-name="Rectángulo 375608" width="108.197" height="4.258" transform="translate(5.179 225.994)" fill="#f0f0f0"/>
        <rect id="Rectángulo_375609" data-name="Rectángulo 375609" width="99.116" height="67.212" transform="translate(2.348 158.782)" fill="#f5f5f5"/>
        <rect id="Rectángulo_375610" data-name="Rectángulo 375610" width="87.524" height="22.043" transform="translate(8.144 167.054)" fill="#f0f0f0"/>
        <rect id="Rectángulo_375611" data-name="Rectángulo 375611" width="87.524" height="22.043" transform="translate(8.144 195.677)" fill="#f0f0f0"/>
        <g id="Grupo_1070347" data-name="Grupo 1070347">
          <g id="Grupo_1070346" data-name="Grupo 1070346" clip-path="url(#clip-path-2)">
            <path id="Trazado_815061" data-name="Trazado 815061" d="M40.946,249.886H88.124a1.514,1.514,0,0,0,0-3.023H40.946a1.514,1.514,0,0,0,0,3.023" transform="translate(-12.629 -70.299)" fill="#f5f5f5"/>
            <path id="Trazado_815062" data-name="Trazado 815062" d="M40.946,289.905H88.124a1.514,1.514,0,0,0,0-3.023H40.946a1.514,1.514,0,0,0,0,3.023" transform="translate(-12.629 -81.695)" fill="#f5f5f5"/>
            <path id="Trazado_815063" data-name="Trazado 815063" d="M370.838,66.685c8.4-2.433,11.267-18.445-9.95-24.982,4.68,16.1-4.688,29.222,9.95,24.982" transform="translate(-115.358 -11.876)" fill="#ebebeb"/>
            <path id="Trazado_815064" data-name="Trazado 815064" d="M367.21,78.7c6.616-7.52.358-24.523-23.48-17.577,13.487,12.406,11.946,30.688,23.48,17.577" transform="translate(-109.873 -16.942)" fill="#e0e0e0"/>
            <path id="Trazado_815065" data-name="Trazado 815065" d="M367.822,81.5c-5.54-5.765,2.395-25.826,20.683-16.529-10.363,10.416-11.024,26.58-20.683,16.529" transform="translate(-117.019 -17.812)" fill="#fafafa"/>
            <path id="Trazado_815066" data-name="Trazado 815066" d="M359.951,100.187h16.117l1.216-11.464h-18.55Z" transform="translate(-114.669 -25.265)" fill="#e6e6e6"/>
            <path id="Trazado_815067" data-name="Trazado 815067" d="M357.9,90.58h18.912a1.266,1.266,0,0,0,0-2.529H357.9a1.266,1.266,0,0,0,0,2.529" transform="translate(-114.019 -25.074)" fill="#e6e6e6"/>
            <path id="Trazado_815068" data-name="Trazado 815068" d="M153.969,240.666h0V221.249h15.386V201.833h15.387V182.417h15.386V163h15.386V143.584H230.9V124.167h15.386V104.751H346.3V260.082H138.582V240.666Z" transform="translate(-44.298 -29.83)" fill="#fafafa"/>
            <path id="Trazado_815069" data-name="Trazado 815069" d="M278.353,240.666h0V221.249h15.386V201.833h15.387V182.417h15.386V163H339.9V143.584h15.387V124.167h15.386V104.751h15.386V260.082H262.967V240.666Z" transform="translate(-84.057 -29.83)" fill="#e0e0e0"/>
            <rect id="Rectángulo_375612" data-name="Rectángulo 375612" width="85.532" height="5.825" transform="translate(93.377 210.836)" fill="#ebebeb"/>
            <rect id="Rectángulo_375613" data-name="Rectángulo 375613" width="85.532" height="5.825" transform="translate(108.764 191.42)" fill="#ebebeb"/>
            <rect id="Rectángulo_375614" data-name="Rectángulo 375614" width="85.532" height="5.825" transform="translate(124.15 172.003)" fill="#ebebeb"/>
            <rect id="Rectángulo_375615" data-name="Rectángulo 375615" width="85.532" height="5.825" transform="translate(139.536 152.587)" fill="#ebebeb"/>
            <rect id="Rectángulo_375616" data-name="Rectángulo 375616" width="85.532" height="5.825" transform="translate(154.923 133.17)" fill="#ebebeb"/>
            <rect id="Rectángulo_375617" data-name="Rectángulo 375617" width="85.532" height="5.825" transform="translate(170.309 113.754)" fill="#ebebeb"/>
            <rect id="Rectángulo_375618" data-name="Rectángulo 375618" width="85.532" height="5.825" transform="translate(185.696 94.338)" fill="#ebebeb"/>
            <rect id="Rectángulo_375619" data-name="Rectángulo 375619" width="85.532" height="5.825" transform="translate(201.082 74.921)" fill="#ebebeb"/>
          </g>
        </g>
        <g id="Grupo_1070349" data-name="Grupo 1070349">
          <g id="Grupo_1070348" data-name="Grupo 1070348" clip-path="url(#clip-path-2)">
            <path id="Trazado_815070" data-name="Trazado 815070" d="M263.825,352.543c0,4.473-59.059,8.1-131.912,8.1S0,357.016,0,352.543s59.059-8.1,131.912-8.1,131.912,3.626,131.912,8.1" transform="translate(0 -98.087)" fill="#f5f5f5"/>
          </g>
        </g>
        <g id="Grupo_1070387" data-name="Grupo 1070387">
          <g id="Grupo_1070386" data-name="Grupo 1070386" clip-path="url(#clip-path-2)">
            <path id="Trazado_815071" data-name="Trazado 815071" d="M266.642,98c-.117,2.144-.356,4.114-.622,6.154-.267,2.023-.627,4.031-1.038,6.034a69.692,69.692,0,0,1-3.435,11.854l-.614,1.443-.154.36-.077.18c-.025.058-.046.109-.1.229a5.722,5.722,0,0,1-.785,1.241,4.626,4.626,0,0,1-1.3,1.081,4.359,4.359,0,0,1-1.554.514,5.6,5.6,0,0,1-2.47-.27,11.848,11.848,0,0,1-3.156-1.712,27.2,27.2,0,0,1-2.418-2.038,58.383,58.383,0,0,1-7.688-9.252l2.258-2.006c1.325,1.322,2.708,2.656,4.09,3.924a54.566,54.566,0,0,0,4.234,3.574,21.96,21.96,0,0,0,2.148,1.462,7.116,7.116,0,0,0,1.919.861c.236.052.4.022.324,0-.067-.032-.37.117-.434.2-.039.037-.041.034-.03-.01l.218-.6.476-1.3a79.837,79.837,0,0,0,2.757-10.983c.357-1.877.611-3.782.88-5.68s.465-3.851.621-5.659Z" transform="translate(-77.107 -27.795)" fill="#ffc3bd"/>
            <path id="Trazado_815072" data-name="Trazado 815072" d="M270.5,86.974c-2.536.679-4.309,11.648-4.309,11.648l6.987,5s6.7-11.066,4.749-14c-2.031-3.052-3.727-3.637-7.427-2.646" transform="translate(-85.089 -24.641)" fill="#407bff"/>
            <path id="Trazado_815073" data-name="Trazado 815073" d="M270.5,86.974c-2.536.679-4.309,11.648-4.309,11.648l6.987,5s6.7-11.066,4.749-14c-2.031-3.052-3.727-3.637-7.427-2.646" transform="translate(-85.089 -24.641)" fill="#632059"/>
            <g id="Grupo_1070355" data-name="Grupo 1070355" transform="translate(183.695 64.782)" opacity="0.3">
              <g id="Grupo_1070354" data-name="Grupo 1070354">
                <g id="Grupo_1070353" data-name="Grupo 1070353" clip-path="url(#clip-path-6)">
                  <path id="Trazado_815075" data-name="Trazado 815075" d="M271.948,90.575,270,101.631l3.927,2.8Z" transform="translate(-270 -90.575)"/>
                </g>
              </g>
            </g>
            <path id="Trazado_815076" data-name="Trazado 815076" d="M242.288,114.617l-3.324-5.519-1.885,6.271s2.726,3.006,5.191,2.289Z" transform="translate(-75.782 -31.068)" fill="#ffc3bd"/>
            <path id="Trazado_815077" data-name="Trazado 815077" d="M232.074,106.546l-1.308,5.34,4.3,2.757,1.885-6.271Z" transform="translate(-73.764 -30.341)" fill="#ffc3bd"/>
            <path id="Trazado_815078" data-name="Trazado 815078" d="M289.607,339.321h-6.152l-.411-14.977H289.2Z" transform="translate(-90.475 -92.363)" fill="#ffc3bd"/>
            <path id="Trazado_815079" data-name="Trazado 815079" d="M365.238,299.273l-4.689,4.187-10.73-10.068,4.689-4.188Z" transform="translate(-111.819 -82.356)" fill="#ffc3bd"/>
            <path id="Trazado_815080" data-name="Trazado 815080" d="M362.605,306.183l4.547-5.471a.471.471,0,0,1,.64-.1l4.636,3.159a1.073,1.073,0,0,1,.175,1.538c-1.616,1.879-2.487,2.7-4.487,5.107-1.23,1.48-2.881,3.777-4.58,5.821-1.661,2-3.713.388-3.179-.624,2.391-4.534,1.815-6.126,1.857-8.355a1.739,1.739,0,0,1,.392-1.076" transform="translate(-115.16 -85.581)" fill="#263238"/>
            <path id="Trazado_815081" data-name="Trazado 815081" d="M278.645,344.237h6.912a.5.5,0,0,1,.491.442l.788,5.748a1.021,1.021,0,0,1-.986,1.15c-2.41-.044-3.57-.192-6.61-.192-1.87,0-5.737.2-8.32.2-2.525,0-2.719-2.684-1.644-2.927,4.822-1.09,6.718-2.593,8.343-4.027a1.557,1.557,0,0,1,1.028-.4" transform="translate(-85.876 -98.028)" fill="#263238"/>
            <g id="Grupo_1070358" data-name="Grupo 1070358" transform="translate(192.57 231.985)" opacity="0.2">
              <g id="Grupo_1070357" data-name="Grupo 1070357">
                <g id="Grupo_1070356" data-name="Grupo 1070356" clip-path="url(#clip-path-7)">
                  <path id="Trazado_815082" data-name="Trazado 815082" d="M283.046,324.349l.211,7.72h6.154l-.211-7.72Z" transform="translate(-283.046 -324.349)"/>
                </g>
              </g>
            </g>
            <g id="Grupo_1070361" data-name="Grupo 1070361" transform="translate(238.002 206.85)" opacity="0.2">
              <g id="Grupo_1070360" data-name="Grupo 1070360">
                <g id="Grupo_1070359" data-name="Grupo 1070359" clip-path="url(#clip-path-8)">
                  <path id="Trazado_815083" data-name="Trazado 815083" d="M354.512,289.207l-4.691,4.189,5.534,5.188,4.69-4.189Z" transform="translate(-349.822 -289.207)"/>
                </g>
              </g>
            </g>
            <path id="Trazado_815084" data-name="Trazado 815084" d="M272.183,86.4s-2.931,1.085,2.94,39.034h24.986c-.419-10.69-.431-17.282,4.429-39.221a70.38,70.38,0,0,0-10.61-1.47,75.575,75.575,0,0,0-11.346,0c-4.873.467-10.4,1.656-10.4,1.656" transform="translate(-86.769 -24.072)" fill="#632059"/>
            <path id="Trazado_815086" data-name="Trazado 815086" d="M298.042,84.744a75.954,75.954,0,0,0-11.348.007c-.612.057-1.238.129-1.857.207a3.318,3.318,0,0,0-.34,2.789c.8,2.081,3.667,2.324,5.763,2.324,7.736,0,9.042-4.749,9.1-4.949l.075-.286c-.463-.036-.925-.072-1.388-.093" transform="translate(-90.883 -24.072)" fill="#fff"/>
            <path id="Trazado_815087" data-name="Trazado 815087" d="M297.556,66.056c-.716,3.838-1.43,10.869,1.124,13.43,0,0-1,3.893-7.781,3.893-7.458,0-3.564-3.892-3.564-3.892,4.071-1.022,3.966-4.2,3.257-7.179Z" transform="translate(-91.522 -18.811)" fill="#ffc3bd"/>
            <g id="Grupo_1070367" data-name="Grupo 1070367" transform="translate(199.073 49.797)" opacity="0.2">
              <g id="Grupo_1070366" data-name="Grupo 1070366">
                <g id="Grupo_1070365" data-name="Grupo 1070365" clip-path="url(#clip-path-9)">
                  <path id="Trazado_815088" data-name="Trazado 815088" d="M296.725,69.623l-4.122,3.7a12.834,12.834,0,0,1,.35,2.118c1.555-.237,3.692-2.031,3.857-3.743a6.028,6.028,0,0,0-.084-2.072" transform="translate(-292.603 -69.623)"/>
                </g>
              </g>
            </g>
            <path id="Trazado_815089" data-name="Trazado 815089" d="M296.391,28.592c-.633-2.247-1.179-5.8,2.643-7.369-1.487-1.916-1.851-5.522-.024-7.664a4.71,4.71,0,0,1,4.625-1.35s.816-5.228,6.863-4.314,3.354,5.125,3.354,5.125,8.254-1.719,8.805,6.456-4.188,7.165-4.188,7.165,3.682,3.245,1.644,6.815-6.757,2.34-6.757,2.34-2.217,6.305-7.441,2.717-9.525-9.921-9.525-9.921" transform="translate(-94.597 -2.218)" fill="#263238"/>
            <path id="Trazado_815090" data-name="Trazado 815090" d="M278.036,41.837c-2.046,2.77-1.142,5.914.661,7.126,4.389,2.947,10.735-9.406,9.085-10.887s-7.7.991-9.747,3.761" transform="translate(-88.5 -10.716)" fill="#263238"/>
            <path id="Trazado_815091" data-name="Trazado 815091" d="M302.371,34.1c-2.887-1.223-5.809.055-6.723,1.9-2.225,4.5,7.878,12.6,10.8,6.979,1.738-3.339-1.106-7.621-4.081-8.882" transform="translate(-94.402 -9.573)" fill="#fffad0"/>
            <path id="Trazado_815092" data-name="Trazado 815092" d="M295.806,50.086c.209,6.415.428,9.126-2.338,12.708-4.16,5.389-11.7,4.255-13.728-1.965-1.825-5.6-1.861-15.149,3.846-18.285,5.622-3.091,12.011,1.127,12.22,7.542" transform="translate(-89.07 -11.82)" fill="#ffc3bd"/>
            <path id="Trazado_815093" data-name="Trazado 815093" d="M295.235,51.638a5.2,5.2,0,0,1-2.96-5.69c-1.35-.06-4.339-.571-5.457-2.347-2.122,1.4-6.606,2.856-7.094.483s6.285-8.508,11.4-8.978c6.08-.558,12.085,5.729,10.535,11.739s-6.423,4.793-6.423,4.793" transform="translate(-89.405 -9.987)" fill="#263238"/>
            <path id="Trazado_815094" data-name="Trazado 815094" d="M274.746,141.725s-4.852,49.819-4.449,69.542c.42,20.514,7.57,67.3,7.57,67.3h8.319s-1.316-45.588-.581-65.736c.8-21.963,7.438-71.108,7.438-71.108Z" transform="translate(-86.393 -40.359)" fill="#263238"/>
            <path id="Trazado_815095" data-name="Trazado 815095" d="M289.8,332.028h-9.76l-.716-3.273,10.931-.4Z" transform="translate(-89.285 -93.505)" fill="#407bff"/>
            <g id="Grupo_1070370" data-name="Grupo 1070370" transform="translate(196.154 110.681)" opacity="0.2">
              <g id="Grupo_1070369" data-name="Grupo 1070369">
                <g id="Grupo_1070368" data-name="Grupo 1070368" clip-path="url(#clip-path-10)">
                  <path id="Trazado_815096" data-name="Trazado 815096" d="M291.29,157.829c-6.137,12.978-1.232,36.653.938,45.462,1.113-13.229,2.989-29.4,4.452-41.275-.93-6.719-2.559-10.171-5.39-4.187" transform="translate(-288.313 -154.748)"/>
                </g>
              </g>
            </g>
            <path id="Trazado_815097" data-name="Trazado 815097" d="M286.547,141.725s5.66,51.794,9.933,68.422c5.075,19.741,36.6,46.31,36.6,46.31l6.394-5.71s-22.847-28.861-26.727-39.261c-8.28-22.2-1.193-55.276-7.81-69.761Z" transform="translate(-91.595 -40.359)" fill="#263238"/>
            <path id="Trazado_815098" data-name="Trazado 815098" d="M360.717,292.309l-7.932,7.083-2.963-1.867,8.973-8.775Z" transform="translate(-111.82 -82.227)" fill="#3b5620"/>
            <path id="Trazado_815099" data-name="Trazado 815099" d="M290.029,56.938c.048.519-.176.967-.5,1s-.623-.362-.671-.881.176-.967.5-1,.622.362.67.881" transform="translate(-92.332 -15.963)" fill="#263238"/>
            <path id="Trazado_815100" data-name="Trazado 815100" d="M281.823,57.725c.048.519-.176.967-.5,1s-.623-.362-.671-.881.176-.967.5-1,.623.362.67.881" transform="translate(-89.709 -16.187)" fill="#263238"/>
            <path id="Trazado_815101" data-name="Trazado 815101" d="M281.03,56.77l-1.219-.24s.7.913,1.219.24" transform="translate(-89.441 -16.098)" fill="#263238"/>
            <path id="Trazado_815102" data-name="Trazado 815102" d="M283.979,59.116a14.319,14.319,0,0,1-1.459,3.492,2.04,2.04,0,0,0,1.793.169Z" transform="translate(-90.307 -16.834)" fill="#ed847e"/>
            <path id="Trazado_815103" data-name="Trazado 815103" d="M288.73,65.77a4.557,4.557,0,0,1-.821.159.148.148,0,0,1-.159-.139.151.151,0,0,1,.131-.167,3.932,3.932,0,0,0,3.043-1.929.142.142,0,0,1,.2-.065.157.157,0,0,1,.062.207,4.125,4.125,0,0,1-2.453,1.934" transform="translate(-91.979 -18.114)" fill="#263238"/>
            <path id="Trazado_815104" data-name="Trazado 815104" d="M303.971,58.738a4.75,4.75,0,0,1-1.686,3.114c-1.242,1-2.442-.021-2.583-1.573-.126-1.4.369-3.6,1.849-3.991a2.052,2.052,0,0,1,2.419,2.45" transform="translate(-95.794 -16.01)" fill="#ffc3bd"/>
            <path id="Trazado_815105" data-name="Trazado 815105" d="M290.171,51.736a.283.283,0,0,1-.229-.032,2.218,2.218,0,0,0-2.094-.217.289.289,0,0,1-.391-.142.313.313,0,0,1,.135-.41,2.766,2.766,0,0,1,2.649.242.316.316,0,0,1,.1.421.3.3,0,0,1-.171.137" transform="translate(-91.876 -14.44)" fill="#263238"/>
            <path id="Trazado_815106" data-name="Trazado 815106" d="M278.187,53.812a.277.277,0,0,1-.216-.025.315.315,0,0,1-.119-.415,2.882,2.882,0,0,1,2.157-1.636.3.3,0,0,1,.316.279.3.3,0,0,1-.265.332,2.3,2.3,0,0,0-1.694,1.315.294.294,0,0,1-.179.15" transform="translate(-88.804 -14.732)" fill="#263238"/>
            <path id="Trazado_815107" data-name="Trazado 815107" d="M319.83,96.643a106.183,106.183,0,0,1,3.583,10.915,71.158,71.158,0,0,1,2.257,11.472c.116.987.149,2.021.2,3.04l0,.1v.159l-.009.33c-.014.207-.032.418-.062.606a7.968,7.968,0,0,1-.23,1.061,10.846,10.846,0,0,1-.669,1.722,25.146,25.146,0,0,1-3.448,5.072,59.727,59.727,0,0,1-8.143,7.813l-1.993-2.3c2.268-2.779,4.557-5.636,6.491-8.556a23.936,23.936,0,0,0,2.384-4.321,6.44,6.44,0,0,0,.269-.907,1.807,1.807,0,0,0,.038-.315.629.629,0,0,0,0-.094c0-.011-.006-.014-.007-.021l-.01-.1c-.088-.848-.152-1.687-.3-2.553a82.089,82.089,0,0,0-2.44-10.437c-1.041-3.459-2.2-6.976-3.428-10.318Z" transform="translate(-99.512 -27.521)" fill="#ffc3bd"/>
            <path id="Trazado_815108" data-name="Trazado 815108" d="M316.847,86.83c2.5.8,5.509,9.862,5.509,9.862l-9.711,7.3s-3.542-7.564-2.49-10.966c1.1-3.543,3.835-7.109,6.692-6.2" transform="translate(-99.079 -24.685)" fill="#632059"/>
            <path id="Trazado_815110" data-name="Trazado 815110" d="M360.861,311.854a.837.837,0,0,1-.65-.35.543.543,0,0,1-.118-.513c.227-.79,2.365-1.435,2.608-1.506a.142.142,0,0,1,.152.052.158.158,0,0,1,.015.167c-.382.761-1.139,2.051-1.915,2.145a.8.8,0,0,1-.092.005m1.579-1.968c-.848.284-1.949.778-2.068,1.194a.225.225,0,0,0,.059.224.541.541,0,0,0,.488.24c.419-.05.976-.662,1.52-1.658" transform="translate(-115.097 -88.13)" fill="#407bff"/>
            <path id="Trazado_815111" data-name="Trazado 815111" d="M361.675,309.465a2.44,2.44,0,0,1-1.78-.523.557.557,0,0,1,.016-.67.75.75,0,0,1,.552-.353c.883-.119,2.226,1.1,2.282,1.15a.158.158,0,0,1,.048.145.155.155,0,0,1-.1.116,3.277,3.277,0,0,1-1.023.135m-1.08-1.249a.666.666,0,0,0-.093.006.471.471,0,0,0-.348.222c-.105.163-.069.252-.027.31a3,3,0,0,0,2.209.357,3.6,3.6,0,0,0-1.74-.9" transform="translate(-115.007 -87.683)" fill="#407bff"/>
            <path id="Trazado_815112" data-name="Trazado 815112" d="M279.116,345.164a2.224,2.224,0,0,1-1.492-.4.873.873,0,0,1-.263-.745.5.5,0,0,1,.248-.408c.754-.435,3.206.883,3.482,1.034a.157.157,0,0,1,.078.157.151.151,0,0,1-.117.129,10.011,10.011,0,0,1-1.936.231m-1.1-1.338a.552.552,0,0,0-.273.056.192.192,0,0,0-.1.166.567.567,0,0,0,.168.491c.374.353,1.387.415,2.749.176a7.655,7.655,0,0,0-2.548-.888" transform="translate(-88.657 -97.825)" fill="#407bff"/>
            <path id="Trazado_815113" data-name="Trazado 815113" d="M281.743,344.333a.134.134,0,0,1-.06-.014c-.733-.348-2.184-1.743-2.07-2.475.027-.174.144-.389.548-.432a1.027,1.027,0,0,1,.807.264,4.458,4.458,0,0,1,.92,2.492.157.157,0,0,1-.061.137.141.141,0,0,1-.084.028m-1.466-2.621a.715.715,0,0,0-.088.005c-.266.028-.284.14-.289.177-.069.44.916,1.537,1.663,2.013a3.648,3.648,0,0,0-.784-1.995.741.741,0,0,0-.5-.2" transform="translate(-89.376 -97.222)" fill="#407bff"/>
            <path id="Trazado_815114" data-name="Trazado 815114" d="M301.844,139.491l.639,2.351c.088.182-.118.368-.407.368H276.361c-.225,0-.412-.116-.426-.265l-.225-2.351c-.016-.163.18-.3.426-.3h25.3a.447.447,0,0,1,.407.2" transform="translate(-88.13 -39.666)" fill="#fffad0"/>
            <path id="Trazado_815116" data-name="Trazado 815116" d="M308.855,142.383h.678c.135,0,.238-.073.229-.162l-.318-3.055c-.009-.089-.127-.162-.263-.162H308.5c-.135,0-.237.073-.229.162l.318,3.055c.009.089.127.162.262.162" transform="translate(-98.54 -39.584)" fill="#263238"/>
            <path id="Trazado_815117" data-name="Trazado 815117" d="M279.193,142.383h.678c.135,0,.238-.073.229-.162l-.318-3.055c-.009-.089-.127-.162-.263-.162h-.678c-.135,0-.237.073-.229.162l.318,3.055c.009.089.127.162.262.162" transform="translate(-89.058 -39.584)" fill="#263238"/>
            <path id="Trazado_815118" data-name="Trazado 815118" d="M294.024,142.383h.678c.135,0,.237-.073.229-.162l-.318-3.055c-.009-.089-.127-.162-.263-.162h-.678c-.135,0-.237.073-.229.162l.318,3.055c.009.089.127.162.262.162" transform="translate(-93.799 -39.584)" fill="#263238"/>
            <path id="Trazado_815119" data-name="Trazado 815119" d="M289.237,55.982l-1.219-.24s.7.913,1.219.24" transform="translate(-92.065 -15.874)" fill="#263238"/>
            <g id="Grupo_1070379" data-name="Grupo 1070379" transform="translate(88.904 4.173)" opacity="0.2">
              <g id="Grupo_1070378" data-name="Grupo 1070378">
                <g id="Grupo_1070377" data-name="Grupo 1070377" clip-path="url(#clip-path-11)">
                  <path id="Trazado_815120" data-name="Trazado 815120" d="M216.682,132.852C184.5,146,148.264,129.235,135.754,95.395s3.447-71.929,35.63-85.077,68.426,3.613,80.935,37.454-3.447,71.929-35.637,85.08" transform="translate(-131.49 -5.835)" fill="#3b5620"/>
                </g>
              </g>
            </g>
            <g id="Grupo_1070382" data-name="Grupo 1070382" transform="translate(140.95 4.178)" opacity="0.1">
              <g id="Grupo_1070381" data-name="Grupo 1070381">
                <g id="Grupo_1070380" data-name="Grupo 1070380" clip-path="url(#clip-path-12)">
                  <path id="Trazado_815121" data-name="Trazado 815121" d="M210.232,6.938,161.195,124.028c-.759-.6-1.5-1.224-2.236-1.858a63.868,63.868,0,0,1-12.243-14.363l0-.006L189.068,6.667a59.058,59.058,0,0,1,21.164.271" transform="translate(-146.714 -5.842)" fill="#fff"/>
                </g>
              </g>
            </g>
            <g id="Grupo_1070385" data-name="Grupo 1070385" transform="translate(127.668 8.724)" opacity="0.1">
              <g id="Grupo_1070384" data-name="Grupo 1070384">
                <g id="Grupo_1070383" data-name="Grupo 1070383" clip-path="url(#clip-path-13)">
                  <path id="Trazado_815122" data-name="Trazado 815122" d="M256.676,29.065,210.57,139.143a59.968,59.968,0,0,1-27.623-6.736L233.291,12.2a62.549,62.549,0,0,1,23.385,16.867" transform="translate(-182.947 -12.197)" fill="#fff"/>
                </g>
              </g>
            </g>
            <path id="Trazado_815123" data-name="Trazado 815123" d="M140.7,25.639C163.967-4.243,205.871-8.643,234.3,15.811s32.611,68.508,9.349,98.39-65.171,34.288-93.6,9.833-32.611-68.508-9.345-98.4m98.733,84.942c21.359-27.437,17.521-67.888-8.584-90.347s-64.582-18.413-85.941,9.024-17.526,67.894,8.58,90.353,64.582,18.413,85.945-9.031" transform="translate(-40.168 0)" fill="#3b5620"/>
            <path id="Trazado_815124" data-name="Trazado 815124" d="M298.715,154.035c6.551,4.113,12.783,8.635,18.907,13.3s12.091,9.525,17.966,14.506,11.631,10.114,17.19,15.5q4.178,4.03,8.183,8.281c2.666,2.84,5.291,5.731,7.758,8.826a4.171,4.171,0,0,1-.476,5.674,3.694,3.694,0,0,1-4.292.451c-3.374-1.93-6.589-4.064-9.764-6.249s-6.284-4.455-9.34-6.794c-6.123-4.663-12.05-9.578-17.854-14.648s-11.52-10.258-17.079-15.644-11.007-10.917-16.137-16.854a4.3,4.3,0,0,1,.267-5.854,3.8,3.8,0,0,1,4.672-.491" transform="translate(-93.578 -43.698)" fill="#3b5620"/>
            <path id="Trazado_815125" data-name="Trazado 815125" d="M309.189,151.546l-6.571,1.051,4.705,4.334s3.713-1.417,4.079-4.078Z" transform="translate(-96.732 -43.155)" fill="#ffc3bd"/>
            <path id="Trazado_815126" data-name="Trazado 815126" d="M297.4,156.971l4.126,3.4,5.041-3.46-5.62-3.9Z" transform="translate(-95.065 -43.574)" fill="#ffc3bd"/>
          </g>
        </g>
        <g id="Grupo_1070392" data-name="Grupo 1070392">
          <g id="Grupo_1070391" data-name="Grupo 1070391" clip-path="url(#clip-path-2)">
            <path id="Trazado_815127" data-name="Trazado 815127" d="M189.3,166.706h0a8.681,8.681,0,0,1,7.966-5.955h54.461a6.638,6.638,0,0,1,6.612,7.677L244.278,292.555a8.717,8.717,0,0,1-8.352,7.677H63.1a6.638,6.638,0,0,1-6.612-7.677L68.3,188.292a8.718,8.718,0,0,1,8.352-7.677H170.7c8.142,0,15.858-5.768,18.606-13.91" transform="translate(-18.041 -45.777)" fill="#839571"/>
            <path id="Trazado_815128" data-name="Trazado 815128" d="M61.124,296.922H241.691L251.979,169.2H71.413Z" transform="translate(-19.538 -48.181)" fill="#f0f0f0"/>
            <path id="Trazado_815129" data-name="Trazado 815129" d="M61.124,296.922H241.691L249.136,169.2H71.413Z" transform="translate(-19.538 -48.181)" fill="#e0e0e0"/>
            <path id="Trazado_815130" data-name="Trazado 815130" d="M61.124,295.309H241.691l6.207-131.78H67.331Z" transform="translate(-19.538 -46.568)" fill="#f0f0f0"/>
            <path id="Trazado_815131" data-name="Trazado 815131" d="M61.124,295.309H241.691l2.456-131.78H67.331Z" transform="translate(-19.538 -46.568)" fill="#e0e0e0"/>
            <path id="Trazado_815132" data-name="Trazado 815132" d="M61.124,293.885H241.691l1.076-135.356H62.2Z" transform="translate(-19.538 -45.144)" fill="#f0f0f0"/>
            <path id="Trazado_815133" data-name="Trazado 815133" d="M59.929,294.905H240.5L236.79,162.112H57.386Z" transform="translate(-18.343 -46.164)" fill="#e0e0e0"/>
            <path id="Trazado_815134" data-name="Trazado 815134" d="M58.606,295.309H239.173l-5.359-131.78H53.247Z" transform="translate(-17.02 -46.568)" fill="#f0f0f0"/>
            <path id="Trazado_815135" data-name="Trazado 815135" d="M57.114,296.1H237.681l-8.534-129.793H48.58Z" transform="translate(-15.529 -47.359)" fill="#e0e0e0"/>
            <path id="Trazado_815136" data-name="Trazado 815136" d="M56.475,296.543H237.042l-9.9-128.681H46.58Z" transform="translate(-14.889 -47.802)" fill="#f0f0f0"/>
            <path id="Trazado_815137" data-name="Trazado 815137" d="M140.192,177.917h0a6.024,6.024,0,0,1,6.157-6.1H200.81c4.132,0,8.136,3.522,8.943,7.865l21.515,115.837c.807,4.344-1.889,7.866-6.02,7.866H52.424c-4.132,0-8.136-3.522-8.943-7.866L25.746,200.034c-.807-4.344,1.889-7.865,6.021-7.865h94.042c8.141,0,14.106-5.911,14.383-14.252" transform="translate(-8.184 -48.927)" fill="#839571"/>
            <g id="Grupo_1070390" data-name="Grupo 1070390" transform="translate(17.419 122.888)" opacity="0.2">
              <g id="Grupo_1070389" data-name="Grupo 1070389">
                <g id="Grupo_1070388" data-name="Grupo 1070388" clip-path="url(#clip-path-15)">
                  <path id="Trazado_815138" data-name="Trazado 815138" d="M140.192,177.917h0a6.024,6.024,0,0,1,6.157-6.1H200.81c4.132,0,8.136,3.522,8.943,7.865l21.515,115.837c.807,4.344-1.889,7.866-6.02,7.866H52.424c-4.132,0-8.136-3.522-8.943-7.866L25.746,200.034c-.807-4.344,1.889-7.865,6.021-7.865h94.042c8.141,0,14.106-5.911,14.383-14.252" transform="translate(-25.603 -171.815)"/>
                </g>
              </g>
            </g>
          </g>
        </g>
      </g>
    </g>
  </g>
</svg>
