<svg xmlns="http://www.w3.org/2000/svg" xmlns:xlink="http://www.w3.org/1999/xlink" width="610" height="307.815" viewBox="0 0 610 307.815">
  <defs>
    <clipPath id="clip-path">
      <rect id="Rectángulo_377201" data-name="Rectángulo 377201" width="610" height="307.815" transform="translate(475 496)" fill="#fff" stroke="#707070" stroke-width="1"/>
    </clipPath>
    <clipPath id="clip-path-2">
      <rect id="Rectángulo_376603" data-name="Rectángulo 376603" width="610" height="376.618" fill="none"/>
    </clipPath>
    <clipPath id="clip-path-6">
      <rect id="Rectángulo_376565" data-name="Rectángulo 376565" width="28.823" height="18.404" fill="none"/>
    </clipPath>
    <clipPath id="clip-path-8">
      <rect id="Rectángulo_376583" data-name="Rectángulo 376583" width="132.948" height="151.094" fill="none"/>
    </clipPath>
    <clipPath id="clip-path-9">
      <rect id="Rectángulo_376596" data-name="Rectángulo 376596" width="149.832" height="171.8" fill="none"/>
    </clipPath>
    <clipPath id="clip-path-11">
      <rect id="Rectángulo_376600" data-name="Rectángulo 376600" width="208.255" height="166.594" fill="none"/>
    </clipPath>
  </defs>
  <g id="Enmascarar_grupo_98" data-name="Enmascarar grupo 98" transform="translate(-475 -496)" clip-path="url(#clip-path)">
    <g id="Grupo_1072250" data-name="Grupo 1072250" transform="translate(475 513.547)">
      <g id="Grupo_1071772" data-name="Grupo 1071772" clip-path="url(#clip-path-2)">
        <rect id="Rectángulo_376535" data-name="Rectángulo 376535" width="90.798" height="168.871" transform="translate(9.698 123.578)" fill="#ebebeb"/>
        <rect id="Rectángulo_376536" data-name="Rectángulo 376536" width="99.596" height="4.662" transform="translate(5.3 118.915)" fill="#dbdbdb"/>
        <rect id="Rectángulo_376537" data-name="Rectángulo 376537" width="31.323" height="4.662" transform="translate(104.896 118.915)" fill="#ebebeb"/>
        <rect id="Rectángulo_376538" data-name="Rectángulo 376538" width="30.762" height="168.871" transform="translate(100.497 123.578)" fill="#dbdbdb"/>
        <rect id="Rectángulo_376539" data-name="Rectángulo 376539" width="71.02" height="40.041" transform="translate(19.587 141.578)" fill="none" stroke="#c7c7c7" stroke-miterlimit="10" stroke-width="0.25"/>
        <rect id="Rectángulo_376540" data-name="Rectángulo 376540" width="13.87" height="7.972" transform="translate(45.154 153.235)" fill="#c7c7c7"/>
        <rect id="Rectángulo_376541" data-name="Rectángulo 376541" width="13.87" height="6.77" transform="translate(49.255 153.836)" fill="none" stroke="#c7c7c7" stroke-miterlimit="10" stroke-width="0.25"/>
        <rect id="Rectángulo_376542" data-name="Rectángulo 376542" width="71.02" height="40.041" transform="translate(19.587 192.166)" fill="none" stroke="#c7c7c7" stroke-miterlimit="10" stroke-width="0.25"/>
        <rect id="Rectángulo_376543" data-name="Rectángulo 376543" width="13.87" height="7.972" transform="translate(45.154 203.821)" fill="#c7c7c7"/>
        <rect id="Rectángulo_376544" data-name="Rectángulo 376544" width="13.87" height="6.77" transform="translate(49.255 204.423)" fill="none" stroke="#c7c7c7" stroke-miterlimit="10" stroke-width="0.25"/>
        <rect id="Rectángulo_376545" data-name="Rectángulo 376545" width="71.02" height="40.041" transform="translate(19.587 242.752)" fill="none" stroke="#c7c7c7" stroke-miterlimit="10" stroke-width="0.25"/>
        <rect id="Rectángulo_376546" data-name="Rectángulo 376546" width="13.87" height="7.972" transform="translate(45.154 254.409)" fill="#c7c7c7"/>
        <rect id="Rectángulo_376547" data-name="Rectángulo 376547" width="13.87" height="6.77" transform="translate(49.255 255.009)" fill="none" stroke="#c7c7c7" stroke-miterlimit="10" stroke-width="0.25"/>
        <rect id="Rectángulo_376548" data-name="Rectángulo 376548" width="90.798" height="119.659" transform="translate(473.517 172.79)" fill="#ebebeb"/>
        <rect id="Rectángulo_376549" data-name="Rectángulo 376549" width="99.597" height="4.662" transform="translate(469.118 168.127)" fill="#dbdbdb"/>
        <rect id="Rectángulo_376550" data-name="Rectángulo 376550" width="31.323" height="4.662" transform="translate(568.714 168.127)" fill="#ebebeb"/>
        <rect id="Rectángulo_376551" data-name="Rectángulo 376551" width="30.763" height="119.659" transform="translate(564.315 172.79)" fill="#dbdbdb"/>
        <rect id="Rectángulo_376552" data-name="Rectángulo 376552" width="71.02" height="40.041" transform="translate(483.406 190.79)" fill="#a6a6a6"/>
        <rect id="Rectángulo_376553" data-name="Rectángulo 376553" width="54.065" height="39.19" transform="translate(493.445 180.537)" fill="#c7c7c7"/>
        <path id="Trazado_817496" data-name="Trazado 817496" d="M550.529,190.063h-19.1v4.059h20.2Z" transform="translate(-37.982 -13.584)" fill="#c7c7c7"/>
        <path id="Trazado_817497" data-name="Trazado 817497" d="M585.017,233.874H530.953l-4.17-35.939h54.065Z" transform="translate(-37.65 -14.147)" fill="#a6a6a6"/>
        <path id="Trazado_817498" data-name="Trazado 817498" d="M545.42,193.927h-19.1l.432,3.722h20.2Z" transform="translate(-37.616 -13.86)" fill="#a6a6a6"/>
        <rect id="Rectángulo_376554" data-name="Rectángulo 376554" width="71.02" height="40.041" transform="translate(449.192 190.79)" fill="#ebebeb"/>
        <rect id="Rectángulo_376555" data-name="Rectángulo 376555" width="71.02" height="40.041" transform="translate(449.192 190.79)" fill="none" stroke="#c7c7c7" stroke-miterlimit="10" stroke-width="0.25"/>
        <rect id="Rectángulo_376556" data-name="Rectángulo 376556" width="13.87" height="7.972" transform="translate(474.759 202.447)" fill="#c7c7c7"/>
        <rect id="Rectángulo_376557" data-name="Rectángulo 376557" width="13.87" height="6.77" transform="translate(478.858 203.048)" fill="none" stroke="#c7c7c7" stroke-miterlimit="10" stroke-width="0.25"/>
        <rect id="Rectángulo_376558" data-name="Rectángulo 376558" width="34.041" height="34.041" transform="translate(520.386 196.791)" fill="#dbdbdb"/>
        <rect id="Rectángulo_376559" data-name="Rectángulo 376559" width="71.02" height="40.041" transform="translate(483.406 241.378)" fill="none" stroke="#c7c7c7" stroke-miterlimit="10" stroke-width="0.25"/>
        <rect id="Rectángulo_376560" data-name="Rectángulo 376560" width="13.87" height="7.972" transform="translate(508.973 253.033)" fill="#c7c7c7"/>
        <rect id="Rectángulo_376561" data-name="Rectángulo 376561" width="13.87" height="6.77" transform="translate(513.073 253.635)" fill="none" stroke="#c7c7c7" stroke-miterlimit="10" stroke-width="0.25"/>
        <path id="Trazado_817499" data-name="Trazado 817499" d="M151.334,314.615l-75.667.082L0,314.922l75.668.227,75.667.082,151.335.156L454,315.232l75.667-.082,75.667-.228L529.67,314.7,454,314.614l-151.334-.154Z" transform="translate(0 -22.475)" fill="#263238"/>
        <g id="Grupo_1071751" data-name="Grupo 1071751">
          <g id="Grupo_1071750" data-name="Grupo 1071750" clip-path="url(#clip-path-2)">
            <path id="Trazado_817501" data-name="Trazado 817501" d="M623.055,238.215a53.372,53.372,0,0,0-1.717,9.712c.087.163.071.764-.027.6-.019.534-.831.436-.831-.09.008-.343.017-.686.033-1.019-1.9-2.358-4.654-3.85-6.88-5.9a12.878,12.878,0,0,1-3.771-6c-1.848-6.366-.116-13.114-2.338-19.464-1.915-5.475-5.351-10.235-8.258-15.2-3.068-5.245-5.333-10.759-5.559-16.9-.181-4.7.381-10.974,3.964-14.5,3.8-3.74,8.506-.937,11.417,2.4,8.433,9.678,12.335,21.909,13.912,34.416.87,6.92,1.773,13.884,1.565,20.871a56.213,56.213,0,0,1-1.51,11.074" transform="translate(-42.431 -11.984)" fill="#839571"/>
            <path id="Trazado_817502" data-name="Trazado 817502" d="M622.061,251.776a119.281,119.281,0,0,0-.231-19.609c.011-.024.032-.039.033-.072.106-5.3.527-10.58.319-15.886a94.479,94.479,0,0,0-2.334-17.039c-.015-.065-.115-.05-.1.017a111.089,111.089,0,0,1,1.844,16.663q.162,4.492-.072,8.984c-.051.974-.141,1.955-.206,2.936v-.008a104.88,104.88,0,0,0-15.77-41.732c-.111-.172-.416.012-.307.188a109.017,109.017,0,0,1,12.835,30.942c-4.055-7.513-10.18-13.691-14.725-20.91-.024-.04-.09,0-.069.042,4.082,8.037,10.827,14.375,15.126,22.294.746,3.228,1.357,6.485,1.811,9.763a109.273,109.273,0,0,1,.978,13.562c-2.469-4.617-5.034-9.034-7.054-13.917-.054-.13-.24-.041-.2.088,1.719,5.073,4.03,10.537,7.265,14.863.018,3.21-.078,6.422-.266,9.629-.505,8.561-1.967,17.007-2.643,25.54a.2.2,0,0,0,.391.043,196.158,196.158,0,0,0,3.377-26.381" transform="translate(-43.116 -13.291)" fill="#263238"/>
            <path id="Trazado_817503" data-name="Trazado 817503" d="M613.708,185.738c-.026-.061-.118-.02-.095.043,1.564,4.324,2.447,8.7,3.577,13.137a.163.163,0,0,0,.322-.052,47.175,47.175,0,0,0-3.8-13.128" transform="translate(-43.855 -13.273)" fill="#263238"/>
            <path id="Trazado_817504" data-name="Trazado 817504" d="M654.1,204.883a65.263,65.263,0,0,1-3.6,7.388c-2.815,5.113-5.752,9.8-6.284,15.752a36.635,36.635,0,0,1-1.132,7.891,23.687,23.687,0,0,1-3.145,6.177c-3.052,4.446-6.866,8.276-9.694,12.889a54.279,54.279,0,0,0-6.441,15.531c-.07.3-.541.219-.472-.08a.255.255,0,0,0,.019-.068.1.1,0,0,1-.029-.063c-.448-12.766.571-25.633,4.465-37.863a130.994,130.994,0,0,1,6.186-15.749,37.241,37.241,0,0,1,8.348-12.011c2.375-2.139,7.529-6.2,10.911-4.049,1.624,1.033,1.5,2.662.864,4.255" transform="translate(-44.543 -14.295)" fill="#839571"/>
            <path id="Trazado_817505" data-name="Trazado 817505" d="M641.024,234.663a104.51,104.51,0,0,1-7.419,10.664c-1.236,1.614-2.489,3.215-3.723,4.83-.583.763-1.236,1.524-1.772,2.344.338-1.343.667-2.687,1.008-4.028a157.873,157.873,0,0,1,5.684-19.159,129.236,129.236,0,0,1,8.864-17.376c.086-.148-.152-.254-.24-.111-2.7,4.436-5.436,8.867-7.7,13.544a71.242,71.242,0,0,0-3.269,8.035,123.932,123.932,0,0,1,4.352-17.17c.018-.05-.055-.086-.076-.035a58.706,58.706,0,0,0-4.517,17.86.058.058,0,0,0,.008.029q-.829,2.486-1.537,5.019c-2.01,7.141-3.776,14.359-5.413,21.6a77.362,77.362,0,0,1,1.231-14.2c.021-.108-.141-.133-.167-.028a45.018,45.018,0,0,0-1.232,14.965q-.929,4.131-1.81,8.269c-1.255,5.884-2.8,11.874-3.53,17.849a.12.12,0,0,0,.236.04c.876-3.221,1.4-6.56,2.121-9.821s1.458-6.537,2.219-9.8c1.109-4.749,2.27-9.487,3.453-14.219a25.458,25.458,0,0,1,3.465-4.731c1.256-1.6,2.513-3.194,3.736-4.816a71.747,71.747,0,0,0,6.143-9.506c.038-.071-.073-.121-.113-.053" transform="translate(-44.295 -15.135)" fill="#263238"/>
            <path id="Trazado_817506" data-name="Trazado 817506" d="M642.688,230.544a66.474,66.474,0,0,0-7.259,11.536c-.026.052.055.107.087.056,2.443-3.829,4.846-7.687,7.284-11.52.041-.064-.066-.131-.112-.071" transform="translate(-45.414 -16.476)" fill="#263238"/>
            <path id="Trazado_817507" data-name="Trazado 817507" d="M584.435,217.187c1.655,2.85,3.542,6.271,2.832,9.693-.45,2.165-2.035,3.923-2.321,6.132-.641,4.877,4.218,8.1,7.736,10.4,8.765,5.751,20.788,10.879,22.381,22.625.061.416.78.312.728-.1a.236.236,0,0,0-.018-.078c.018-.026.044-.034.044-.069a45.008,45.008,0,0,0-.164-17.939,57.117,57.117,0,0,0-7.068-16.812c-5.275-9-10.862-18.216-18.84-25.111-2.208-1.905-6.73-5.335-8.489-1.031-1.706,4.184,1.152,8.809,3.179,12.283" transform="translate(-41.506 -14.496)" fill="#839571"/>
            <path id="Trazado_817508" data-name="Trazado 817508" d="M593.352,237.883c5.812,6.292,15.051,9.819,20.054,16.867A70.572,70.572,0,0,0,597.994,225.8a.227.227,0,0,1,.32-.32,57.073,57.073,0,0,1,12.595,18.242,81.535,81.535,0,0,0-5.424-13.87c-.083-.171.16-.318.257-.15a52.886,52.886,0,0,1,5.846,15.592c6.592,15.958,7.2,34.674,5.822,51.494-.02.24-.386.247-.38,0,.379-13.256.164-26.743-3.012-39.688-.066-.27-.14-.537-.208-.805-5.443-7.587-14.643-11.1-20.559-18.308-.058-.07.037-.169.1-.1" transform="translate(-42.399 -16.11)" fill="#263238"/>
            <path id="Trazado_817509" data-name="Trazado 817509" d="M591.894,233.02c3.051,2.8,6.054,5.662,9.111,8.459.031.028-.01.083-.045.059a44.627,44.627,0,0,1-9.247-8.335.129.129,0,0,1,.182-.182" transform="translate(-42.288 -16.651)" fill="#263238"/>
            <path id="Trazado_817510" data-name="Trazado 817510" d="M591.378,219.958a95.772,95.772,0,0,0,9.127,12.556.054.054,0,0,1-.077.076,44.231,44.231,0,0,1-9.215-12.537.1.1,0,0,1,.164-.1" transform="translate(-42.254 -15.717)" fill="#263238"/>
            <path id="Trazado_817511" data-name="Trazado 817511" d="M606.184,312.286h26.724l-3.6-35.955H610.3Z" transform="translate(-43.325 -19.75)" fill="#0f4b6c"/>
            <path id="Trazado_817512" data-name="Trazado 817512" d="M609.895,282.175h20.266l-.587-5.844H610.563Z" transform="translate(-43.59 -19.75)" fill="#263238"/>
            <rect id="Rectángulo_376563" data-name="Rectángulo 376563" width="25.051" height="5.741" transform="translate(563.696 252.597)" fill="#0f4b6c"/>
          </g>
        </g>
        <g id="Grupo_1071756" data-name="Grupo 1071756">
          <g id="Grupo_1071755" data-name="Grupo 1071755" clip-path="url(#clip-path-2)">
            <path id="Trazado_817513" data-name="Trazado 817513" d="M167.4,379.414c-2.163.7-63.8-.1-66.122-1.624-.894-.563-1.3-9.551-1.48-20.424l0-.341c-.042-2.24-.072-4.549-.074-6.887,0-.322,0-.644-.012-.965-.086-15.693.162-31.975.162-31.975l41.229.412-1.24,31.675-.047,1.254-.249,6.556-.024.675s23.455,10.857,25.837,12.8c2.363,1.936,4.185,8.153,2.023,8.841" transform="translate(-7.125 -22.67)" fill="#dd6a57"/>
            <path id="Trazado_817514" data-name="Trazado 817514" d="M152.647,365.423c-.161-.047-.245-.095-.254-.141,0,0,.094.046.254.141" transform="translate(-10.892 -26.107)" fill="#ffc727"/>
            <path id="Trazado_817515" data-name="Trazado 817515" d="M167.412,382.775c-2.159.7-63.793-.095-66.122-1.621-.792-.5-1.206-7.657-1.414-16.878,11.3,2.358,55.063,11.211,56.26,7.468.472-1.471-3.271-4.017-5.638-5.451,6.468,3.084,13.634,6.609,14.9,7.646,2.358,1.933,4.187,8.147,2.018,8.835" transform="translate(-7.138 -26.035)" fill="#632059"/>
            <g id="Grupo_1071754" data-name="Grupo 1071754" transform="translate(92.737 338.242)" opacity="0.1">
              <g id="Grupo_1071753" data-name="Grupo 1071753">
                <g id="Grupo_1071752" data-name="Grupo 1071752" clip-path="url(#clip-path-6)">
                  <path id="Trazado_817516" data-name="Trazado 817516" d="M128.7,382.681c-13.869-.33-26.381-.858-27.408-1.527-.792-.5-1.207-7.656-1.414-16.877,1.6.33,3.865.8,6.562,1.339Z" transform="translate(-99.875 -364.277)"/>
                </g>
              </g>
            </g>
            <path id="Trazado_817517" data-name="Trazado 817517" d="M86.262,125.99s9.254,104.148,10.763,112.1c.348,1.81.565,11.653.707,24.306.321,27.607.13,77.4.13,77.4h43.447s-1.29-86.272-3.213-102.15S123.877,125.99,123.877,125.99Z" transform="translate(-6.165 -9.005)" fill="#37474f"/>
            <path id="Trazado_817518" data-name="Trazado 817518" d="M140.36,348.072c-6.779-.141-4.832-.2-11.612-.262-3.318-.032-25.121-.222-28.222.292a.073.073,0,0,0,0,.138c3.1.513,24.9.323,28.222.292,6.78-.066,4.833-.121,11.612-.262a.1.1,0,0,0,0-.2" transform="translate(-7.181 -24.854)" fill="#263238"/>
            <path id="Trazado_817519" data-name="Trazado 817519" d="M106.539,283.279q-.072-9.451-.141-18.9c-.044-6.1-.035-12.213-.326-18.311-.588-12.347-3.093-24.485-4.874-36.693s-3.268-24.47-4.614-36.739c-1.51-13.765-2.844-27.549-4.258-41.323-.01-.094-.156-.092-.148,0,2.047,24.594,4.332,49.182,7.736,73.631q1.27,9.121,2.776,18.207c1.014,6.132,2.022,12.266,2.505,18.468.474,6.069.551,12.159.613,18.244q.1,9.446.188,18.892c.136,13.988.271,35.52.407,49.508a.21.21,0,0,0,.42-.01c-.1-12.477-.19-32.5-.285-44.973" transform="translate(-6.588 -9.38)" fill="#263238"/>
            <path id="Trazado_817520" data-name="Trazado 817520" d="M76.4,125.99s18.414,104.148,19.923,112.1c.349,1.81.565,11.653.707,24.306l.01.038,20.7-136.44Z" transform="translate(-5.46 -9.005)" fill="#263238"/>
            <path id="Trazado_817521" data-name="Trazado 817521" d="M113.166,383.014c-2.206.543-63.629-4.62-65.841-6.3-.851-.625-.621-9.62-.031-20.479l.022-.34c.117-2.238.251-4.541.413-6.875.022-.321.045-.643.057-.963,1.025-15.66,2.426-31.884,2.426-31.884l41.1,3.333-3.481,31.508-.136,1.247-.713,6.523-.072.671s22.627,12.492,24.866,14.6c2.22,2.1,3.6,8.429,1.391,8.962" transform="translate(-3.342 -22.597)" fill="#dd6a57"/>
            <path id="Trazado_817522" data-name="Trazado 817522" d="M113.163,386.454c-2.206.547-63.624-4.62-65.839-6.308-.726-.528-.669-7.176-.264-15.859,9.513,2.433,55.364,13.964,56.768,10.174.292-.8-.679-1.99-2-3.15,4.751,2.753,9.032,5.318,9.946,6.176,2.216,2.1,3.592,8.429,1.386,8.967" transform="translate(-3.342 -26.036)" fill="#632059"/>
            <path id="Trazado_817523" data-name="Trazado 817523" d="M88.643,342.137,45.237,340.3s11.848-95.25,12.067-101.1c.326-8.7,4.5-44.625,8-73.709,0,0-6.645-15.746,5.791-39.532h49.882s-3.344,22.634-9.066,36.986A66.6,66.6,0,0,0,100.826,168s-4.966,64.846-5.151,72.934c-.368,15.988-7.033,101.2-7.033,101.2" transform="translate(-3.233 -9.002)" fill="#37474f"/>
            <path id="Trazado_817524" data-name="Trazado 817524" d="M87.672,350.075c-6.767-.428-4.819-.4-11.59-.753-3.315-.173-25.091-1.286-28.21-.9a.072.072,0,0,0-.006.138c3.076.644,24.868,1.378,28.184,1.487,6.777.222,4.834.085,11.613.23a.1.1,0,0,0,.008-.2" transform="translate(-3.418 -24.896)" fill="#263238"/>
            <path id="Trazado_817525" data-name="Trazado 817525" d="M74.957,128.23c-2.572,5.578-4.973,11.426-5.873,17.537a47.056,47.056,0,0,0,2.146,19.424s-.363,5.134-.747,8.416-.773,6.592-1.152,9.888l-2.3,19.98q-2.293,19.882-4.561,39.768t-4.507,39.781c-1.474,13.222-3.053,26.438-4.362,39.678q-.244,2.471-.485,4.943c-.017.165.27.2.292.033,1.762-13.214,3.271-26.46,4.845-39.7q2.35-19.768,4.641-39.544,2.33-19.875,4.6-39.758c1.5-13.066,3.19-26.128,4.481-39.217a29.463,29.463,0,0,0,.113-4.553s-2.773-9.3-2.445-15.309c.343-6.281,1.841-11.055,4.094-16.844.563-1.448,1.142-2.889,1.7-4.336.107-.275-.358-.457-.482-.189" transform="translate(-3.796 -9.155)" fill="#263238"/>
            <path id="Trazado_817526" data-name="Trazado 817526" d="M118.081,164.725a82.364,82.364,0,0,0-12.984,6.047.147.147,0,0,0,.121.267c4.374-1.878,8.834-3.675,13.1-5.792a.286.286,0,0,0-.236-.522" transform="translate(-7.506 -11.772)" fill="#263238"/>
            <path id="Trazado_817527" data-name="Trazado 817527" d="M112.394,155.181c.434-2.606.782-5.221,1.006-7.854a71.447,71.447,0,0,0-.159-14.729.126.126,0,0,0-.252.015,135.051,135.051,0,0,1-1.19,20.332c-.488,3.238-2.119,8.113,1.267,8.612,3.45.508,5.682-7.659,6.1-9.893a74.579,74.579,0,0,0,.729-19.271c-.012-.151-.278-.185-.276-.022a145.973,145.973,0,0,1-.734,14.614c-.2,2.253-2.016,14.7-5.922,13.8-.655-.151-.988-.8-1.091-1.782a15.7,15.7,0,0,1,.519-3.818" transform="translate(-7.932 -9.453)" fill="#263238"/>
            <path id="Trazado_817528" data-name="Trazado 817528" d="M113.134,163.316a21.015,21.015,0,0,0-.878,2.581,5.841,5.841,0,0,0-.365,2.122c.015.137.2.15.27.058a7.477,7.477,0,0,0,.907-2.064c.3-.8.612-1.592.886-2.4a.437.437,0,0,0-.82-.3" transform="translate(-7.996 -11.653)" fill="#263238"/>
            <path id="Trazado_817529" data-name="Trazado 817529" d="M95.93,28.322c-8.083,6.93-5.833,17.036-9.209,22.517-2.064,3.353-8.788,6.892-10.125,10.755-2.2,6.347,3.185,8.626,1.981,12.076-1.7,4.887-8.249,4.507-9.427,12.5s7.619,16.5,28.5,18.8,32.347-5.34,33.1-12.123-6.2-9.04-6.67-14.106c-.3-3.237,3.987-5.49,4.2-11.449s-5.589-7.894-6.42-12.953c-.836-5.083,1.846-17.353-5.588-23.63S99.918,24.9,95.93,28.322" transform="translate(-4.935 -1.847)" fill="#263238"/>
            <path id="Trazado_817530" data-name="Trazado 817530" d="M96.738,28.708A17.226,17.226,0,0,0,91.371,34.9a37.69,37.69,0,0,0-2.983,8.206,22.76,22.76,0,0,1-1.622,4.914,12.579,12.579,0,0,1-2.8,3.459c-2.258,2.043-4.954,3.6-6.982,5.89-1.921,2.175-3.416,5.082-2.649,8.045.417,1.611,1.48,2.926,2.139,4.43.625,1.424.877,3.2-.345,4.379-1.044,1.011-2.557,1.475-3.743,2.3a13.18,13.18,0,0,0-3.046,2.955,10.213,10.213,0,0,0-1.922,8.029C68.643,94,74.737,97.7,80.362,100.022c.785.325,1.573.64,2.361.955.122.048.226-.127.1-.183-5.645-2.527-12.2-5.492-14.366-11.8a9.528,9.528,0,0,1,.973-8.38,12.056,12.056,0,0,1,2.983-3.139c1.135-.838,2.446-1.353,3.6-2.15a3.837,3.837,0,0,0,1.775-3.43,9.429,9.429,0,0,0-1.554-4.151A7.72,7.72,0,0,1,74.9,63.367,8.417,8.417,0,0,1,76.576,59.2c1.756-2.489,4.359-4.122,6.691-6.006a14.1,14.1,0,0,0,5.081-7.028c.433-1.488.7-3.021,1.075-4.525a39.655,39.655,0,0,1,1.245-4.126,19.7,19.7,0,0,1,4.413-7.276,11.317,11.317,0,0,1,1.725-1.416c.07-.045,0-.159-.069-.11" transform="translate(-4.806 -2.051)" fill="#263238"/>
            <path id="Trazado_817531" data-name="Trazado 817531" d="M135.444,88.487A7.8,7.8,0,0,0,134,85.449c-.726-.92-1.6-1.7-2.409-2.546a5.932,5.932,0,0,1-1.707-2.819,5.647,5.647,0,0,1,.919-3.762,28.428,28.428,0,0,0,1.869-3.638,13.255,13.255,0,0,0,.795-3.891,13.42,13.42,0,0,0-2.1-7.764c-.712-1.165-1.514-2.274-2.234-3.434a16.737,16.737,0,0,1-1.851-4.056c-.94-3.144-1.142-6.46-1.911-9.646a49.844,49.844,0,0,0-3.391-9.468c-.035-.076-.147-.007-.11.068a43.4,43.4,0,0,1,2.965,8.555c.663,2.793.918,5.64,1.412,8.463a21.338,21.338,0,0,0,1.059,4.069,21.9,21.9,0,0,0,1.812,3.49c1.41,2.3,2.868,4.57,3.257,7.3a12.759,12.759,0,0,1-1.346,7.814c-1.1,2.076-2.634,4.364-1.675,6.794.812,2.058,2.774,3.291,4.077,5a8.249,8.249,0,0,1,1.412,6.6c-1.124,5.846-6.982,8.746-12.467,9.035a.134.134,0,0,0,.006.267c4.769-.057,9.957-2.153,12.193-6.617a10.1,10.1,0,0,0,.87-6.767" transform="translate(-8.71 -2.458)" fill="#263238"/>
            <path id="Trazado_817532" data-name="Trazado 817532" d="M110.85,81.63c2.972,7.834,16.9,36.413,27.356,38.65,11.685,2.5,34.313-6.464,48.933-12.777,5.235-2.261-7.54-20.329-13.295-22.443-3.456-1.269-27.5,11.119-32.816,11.119-3,0-9.763-11.039-23.133-21.464-7.33-5.715-11.044-3.625-7.046,6.915" transform="translate(-7.806 -5.118)" fill="#dd6a57"/>
            <path id="Trazado_817533" data-name="Trazado 817533" d="M188.432,108.409c3.131-.909,20.793-6.018,24.345-8.4s13.278-9.977,11.73-12.882-4.573-.91-4.573-.91,3.6-3.858,1.774-6.641-6.428.477-6.428.477,3.407-4.231,1.388-6.877-6.1,1.408-6.1,1.408,3.3-3.723.715-5.2c-3.1-1.78-8.4,5.771-12.523,8.106-.935.531-19.724,9.4-19.724,9.4Z" transform="translate(-12.796 -4.939)" fill="#dd6a57"/>
            <path id="Trazado_817534" data-name="Trazado 817534" d="M212.393,74.627c-3.911,5.543-6.581,7.293-12.75,9.852-.12.05-.072.241.058.2,6.269-1.956,9.934-3.667,12.971-9.876.149-.3-.092-.439-.279-.175" transform="translate(-14.264 -5.324)" fill="#263238"/>
            <path id="Trazado_817535" data-name="Trazado 817535" d="M217.337,80.406c-4.565,5.4-7.444,7.325-13.708,10.482-.088.045-.022.2.071.161,6.4-2.582,10.021-4.372,13.873-10.37.175-.27-.028-.52-.237-.273" transform="translate(-14.551 -5.739)" fill="#263238"/>
            <path id="Trazado_817536" data-name="Trazado 817536" d="M221.623,87.681c-4.8,4.912-7.863,7.155-14.337,9.438a.127.127,0,0,0,.071.243c6.827-1.687,10.674-4.458,14.4-9.52.254-.345.168-.471-.134-.162" transform="translate(-14.809 -6.254)" fill="#263238"/>
            <path id="Trazado_817537" data-name="Trazado 817537" d="M173.145,86.569s5.127-7.717,8.1-10.118,17.362-7.266,18.589-4.219c1.584,3.935-6.167,8.379-10.248,10.06,0,0,3.674,9.1-1.2,13.492s-15.246-9.214-15.246-9.214" transform="translate(-12.375 -5.093)" fill="#dd6a57"/>
            <path id="Trazado_817538" data-name="Trazado 817538" d="M201.112,73.624c-1.144,4.631-6.643,6.49-10.479,8.417a.392.392,0,0,0-.121.634c1.285,3.916,1.957,9.815-.659,13.29A.1.1,0,0,0,190,96.1c3.313-3.345,3.125-9.2,1.443-13.394,3.966-1.914,9.4-4.022,9.713-9.071a.023.023,0,0,0-.045-.008" transform="translate(-13.567 -5.261)" fill="#263238"/>
            <path id="Trazado_817539" data-name="Trazado 817539" d="M132.275,122.174l6.308-28.531A255.986,255.986,0,0,0,118.369,73.62c-10.261-8.867-15.146-7.919-9,7.87s15.183,34.085,22.91,40.684" transform="translate(-7.623 -4.861)" fill="#ffc727"/>
            <path id="Trazado_817540" data-name="Trazado 817540" d="M132.275,122.174l6.308-28.531A255.986,255.986,0,0,0,118.369,73.62c-10.261-8.867-15.146-7.919-9,7.87s15.183,34.085,22.91,40.684" transform="translate(-7.623 -4.861)" fill="#c8b1c5"/>
            <path id="Trazado_817541" data-name="Trazado 817541" d="M136.823,94.953c-1.088,3.9-2.032,7.812-2.843,11.777q-.611,2.986-1.144,5.986c-.36,2.04-.586,4.1-.9,6.145-.016.1.138.113.156.015.737-4,1.624-7.981,2.435-11.967s1.622-7.948,2.428-11.923c.016-.077-.115-.11-.136-.032" transform="translate(-9.43 -6.783)" fill="#263238"/>
            <path id="Trazado_817542" data-name="Trazado 817542" d="M111.592,86.207a7.584,7.584,0,0,1,.542,1.966c.01.113.031.226.031.338-.2-.512-.42-1.014-.634-1.526a4.057,4.057,0,0,1,.061-.778m16.971-1.753a7.211,7.211,0,0,0,.023,2.031,7.111,7.111,0,0,0,.544,1.957,7.082,7.082,0,0,0-.023-2.032,7.214,7.214,0,0,0-.544-1.956m-5.74,20.427a7.183,7.183,0,0,0,.023,2.032,7.073,7.073,0,0,0,.544,1.956,7.109,7.109,0,0,0-.024-2.031,7.217,7.217,0,0,0-.543-1.957m5.364-6.345a7.184,7.184,0,0,0,2.032-.023,7.073,7.073,0,0,0,1.956-.544,7.109,7.109,0,0,0-2.031.024,7.184,7.184,0,0,0-1.957.543m-20.858-26.7a7.184,7.184,0,0,0,2.032-.023,7.105,7.105,0,0,0,1.956-.544,7.075,7.075,0,0,0-2.031.024,7.184,7.184,0,0,0-1.957.543m9.293,26.486c0,.02.009.031.031.051a.626.626,0,0,0,.051-.123.264.264,0,0,0-.082.072m17.28,10.121a7.2,7.2,0,0,0-1.42,1.453,7.067,7.067,0,0,0-1,1.768,7.1,7.1,0,0,0,1.419-1.453,7.173,7.173,0,0,0,1-1.768m-10.548-15a7.171,7.171,0,0,0-1.453-1.419,7.07,7.07,0,0,0-1.768-1,7.1,7.1,0,0,0,1.453,1.419,7.191,7.191,0,0,0,1.768,1M119.5,78.387a7.173,7.173,0,0,0-1.423,1.449,7.053,7.053,0,0,0-1,1.765,7.1,7.1,0,0,0,1.423-1.449,7.173,7.173,0,0,0,1-1.765" transform="translate(-7.671 -5.089)" fill="#fff"/>
            <path id="Trazado_817543" data-name="Trazado 817543" d="M109.367,81.562c6.147,15.784,15.182,34.084,22.9,40.68l2.6-11.748L107.157,68.961c-1.05,1.663-.47,5.721,2.21,12.6" transform="translate(-7.623 -4.929)" fill="#263238"/>
            <path id="Trazado_817544" data-name="Trazado 817544" d="M124.291,129.064s-19.716,4.671-57.073,1.445c0,0,14.607-46.626,26.371-59.2,5.353-5.72,10.585-4.846,15.02-1.166,1.106.919,14.822,18.328,15.984,24.4,1.027,5.362-3.331,11.313-3.331,11.313Z" transform="translate(-4.804 -4.803)" fill="#c8b1c5"/>
            <path id="Trazado_817545" data-name="Trazado 817545" d="M109.438,88.168a7.076,7.076,0,0,1,.023,2.031,7.071,7.071,0,0,1-.543-1.956,7.183,7.183,0,0,1-.024-2.032,7.219,7.219,0,0,1,.544,1.957m.352,31.494a7.177,7.177,0,0,0,.024,2.031,7.078,7.078,0,0,0,.543,1.957,7.083,7.083,0,0,0-.023-2.032,7.171,7.171,0,0,0-.544-1.956m9.676,6.037a7.218,7.218,0,0,0,.023,2.032,7.106,7.106,0,0,0,.544,1.956,7.109,7.109,0,0,0-.023-2.031,7.219,7.219,0,0,0-.544-1.957M88.1,98.079a7.211,7.211,0,0,0,.023,2.031,7.079,7.079,0,0,0,.544,1.957,7.075,7.075,0,0,0-.024-2.031,7.184,7.184,0,0,0-.543-1.957m32.024,6.8a7.184,7.184,0,0,0,.023,2.032,7.106,7.106,0,0,0,.544,1.956,7.109,7.109,0,0,0-.023-2.031,7.219,7.219,0,0,0-.544-1.957m-23.1-12.309a7.87,7.87,0,0,0,3.988-.567,7.081,7.081,0,0,0-2.032.023,7.18,7.18,0,0,0-1.956.544M85.406,112.308a7.177,7.177,0,0,0,2.031-.024,7.074,7.074,0,0,0,1.956-.544,7.851,7.851,0,0,0-3.987.568m19.359-1.623a7.839,7.839,0,0,0,3.988-.567,7.075,7.075,0,0,0-2.031.024,7.184,7.184,0,0,0-1.957.543M69.643,128.819a7.843,7.843,0,0,0,3.988-.567,7.082,7.082,0,0,0-2.032.024,7.17,7.17,0,0,0-1.956.543m34.992-56.983a7.177,7.177,0,0,0,2.031-.023,7.073,7.073,0,0,0,1.956-.544,7.076,7.076,0,0,0-2.031.024,7.169,7.169,0,0,0-1.956.543m-6.576,3.575a7.853,7.853,0,0,0-2.419,3.221,7.08,7.08,0,0,0,1.42-1.453,7.191,7.191,0,0,0,1-1.768M80.452,100.6a7.171,7.171,0,0,0-1.419,1.453,7.1,7.1,0,0,0-1,1.768,7.075,7.075,0,0,0,1.419-1.453,7.191,7.191,0,0,0,1-1.768m33.556-2.349a7.2,7.2,0,0,0-1.419,1.453,7.087,7.087,0,0,0-1,1.769,7.857,7.857,0,0,0,2.418-3.222M97.234,117.03a7.2,7.2,0,0,0-1.42,1.453,7.1,7.1,0,0,0-1,1.768,7.08,7.08,0,0,0,1.42-1.453,7.191,7.191,0,0,0,1-1.768m18.547-37.694c-.14.161-.271.322-.4.493a6.969,6.969,0,0,0-1.007,1.772,6.921,6.921,0,0,0,1.419-1.46c.091-.131.181-.262.282-.393-.1-.14-.2-.281-.292-.412m4.878,14.11a7.2,7.2,0,0,0-1.453-1.419,7.088,7.088,0,0,0-1.769-1,7.856,7.856,0,0,0,3.222,2.418m-42.687,23.4a7.836,7.836,0,0,0-3.221-2.419,7.1,7.1,0,0,0,1.453,1.42,7.191,7.191,0,0,0,1.768,1m43.616.736a7.225,7.225,0,0,0-1.453-1.42,7.1,7.1,0,0,0-1.768-1,7.076,7.076,0,0,0,1.452,1.42,7.2,7.2,0,0,0,1.769,1M91.463,88.442a7.837,7.837,0,0,0-3.221-2.419,7.1,7.1,0,0,0,1.453,1.42,7.19,7.19,0,0,0,1.768,1m12.388,41.787a7.2,7.2,0,0,0-1.453-1.419,7.1,7.1,0,0,0-1.768-1,7.075,7.075,0,0,0,1.452,1.42,7.179,7.179,0,0,0,1.769,1m-3.682-25.691a7.874,7.874,0,0,0-3.221-2.419,7.056,7.056,0,0,0,1.453,1.42,7.174,7.174,0,0,0,1.768,1M86.159,125.171a7.2,7.2,0,0,0-1.453-1.42,7.127,7.127,0,0,0-1.768-1,7.079,7.079,0,0,0,1.453,1.42,7.174,7.174,0,0,0,1.768,1" transform="translate(-4.977 -5.089)" fill="#fff"/>
            <path id="Trazado_817546" data-name="Trazado 817546" d="M121.3,82.822a58.474,58.474,0,0,1,3.331,5.025c-.421-.976-.816-1.962-1.163-2.973a.038.038,0,0,1,.071-.028c.359.715.726,1.428,1.027,2.171.269.666.533,1.332.781,2.007.006.012.015.023.021.035a26.651,26.651,0,0,1,3.1,6.394,12.451,12.451,0,0,1-.131,6.28,15.506,15.506,0,0,1-1.221,3.046,9.463,9.463,0,0,1-1.605,2.4c.378,2.15.626,4.333.907,6.5a51.844,51.844,0,0,1,.662,6.365.117.117,0,0,1-.229.026q-.064-.228-.139-.454a.068.068,0,0,1,.021-.072c-.461-1.951-.663-3.994-.931-5.972-.279-2.055-.8-6.345-.8-6.369-.008-.1.98-1.8,1.367-2.615a18.506,18.506,0,0,0,1.132-3.1,11.659,11.659,0,0,0,.125-6.163,29.345,29.345,0,0,0-2.9-6.193c-1.162-2.08-2.358-4.144-3.558-6.2-.048-.082.078-.179.136-.1" transform="translate(-8.659 -5.917)" fill="#263238"/>
            <path id="Trazado_817547" data-name="Trazado 817547" d="M90.466,74.784c-9.754,13.2-28.375,44.433-22.125,51.312,10.275,11.311,34.99,20.879,42.684,22.977,3.321.905,14.442-23.4,11.285-25.287-3.789-2.27-30.258-10.369-30.185-12.622.042-1.276,2.795-11.987,5.066-25.734,2.634-15.945-2.077-16.938-6.726-10.647" transform="translate(-4.795 -5.087)" fill="#dd6a57"/>
            <path id="Trazado_817548" data-name="Trazado 817548" d="M115.649,124.885s5.965-1.936,12.21-4.764c3.484-1.578,9.7-3.751,12.788-3.74,4.621.018,23.939,3.039,23.307,7.739-.572,4.254-16.839-.45-16.839-.45s16.834,3.3,15.2,8.291-19.3-2.762-19.3-2.762,17.221,3.774,14.725,8.659c-1.887,3.692-18.289-2.434-18.289-2.434s14.779,3.346,13,7.227c-1.963,4.289-17.458-.416-17.458-.416-6.176,9.1-15.731,12.648-22.471,9.557-1.088-.5,3.125-26.907,3.125-26.907" transform="translate(-8.029 -8.318)" fill="#dd6a57"/>
            <path id="Trazado_817549" data-name="Trazado 817549" d="M143.6,122.6c1.99.316,4.008.621,5.965,1.113s3.9,1.051,5.8,1.722a34.5,34.5,0,0,1,7.152,3.317c-4.172-2.149-11.149-4.016-13.106-4.508s-3.88-1.079-5.833-1.571c-.049-.012-.026-.081.022-.073" transform="translate(-10.259 -8.762)" fill="#263238"/>
            <path id="Trazado_817550" data-name="Trazado 817550" d="M141.547,130.175c2.526.513,5.051.929,7.555,1.554s4.8,1.429,7.243,2.221c.188.061.094.142-.1.088-2.472-.694-4.81-1.144-7.29-1.808s-4.934-1.425-7.426-2c-.039-.009-.021-.067.017-.059" transform="translate(-10.114 -9.304)" fill="#263238"/>
            <path id="Trazado_817551" data-name="Trazado 817551" d="M138.617,136.36a57.579,57.579,0,0,1,11.37,3.26c.184.069.05.16-.142.1-3.759-1.155-6.7-2.088-11.248-3.226-.072-.018-.062-.148.02-.136" transform="translate(-9.902 -9.746)" fill="#263238"/>
            <path id="Trazado_817552" data-name="Trazado 817552" d="M133.034,118.5a19.239,19.239,0,0,1,3.116-1.5,22.252,22.252,0,0,1,3.075-1.027,16.855,16.855,0,0,1,6.945-.281,65.172,65.172,0,0,1,16.053,4.807c.088.035.053.2-.042.172-4.351-1.171-9.093-3.028-15.729-4.027a18.817,18.817,0,0,0-6.863.061,35.493,35.493,0,0,0-3.439.985c-1.007.327-2,.775-3.038,1a.11.11,0,0,1-.079-.192" transform="translate(-9.505 -8.252)" fill="#263238"/>
            <path id="Trazado_817553" data-name="Trazado 817553" d="M65.835,121.579l27.068-11a255.859,255.859,0,0,0,5.006-28.009c1.475-13.482-2.079-16.965-11.59-2.943s-19.44,31.851-20.484,41.957" transform="translate(-4.705 -5.049)" fill="#c8b1c5"/>
            <path id="Trazado_817554" data-name="Trazado 817554" d="M88.335,79.408a5.423,5.423,0,0,1-.322-.905c.121-.172.241-.343.362-.5a5.57,5.57,0,0,1-.04,1.41M88.5,98.4a7.176,7.176,0,0,0,.024,2.031,7.07,7.07,0,0,0,.544,1.957,7.109,7.109,0,0,0-.024-2.031A7.187,7.187,0,0,0,88.5,98.4m-2.7,14.229a7.183,7.183,0,0,0,2.032-.024,7.1,7.1,0,0,0,1.956-.543,7.075,7.075,0,0,0-2.031.023,7.186,7.186,0,0,0-1.957.544M79.97,90.954c-.111.181-.221.372-.331.553l.3-.03a6.845,6.845,0,0,0,1.953-.544,6.474,6.474,0,0,0-1.923.02M98.452,75.735a7.17,7.17,0,0,0-1.419,1.453,7.1,7.1,0,0,0-1,1.768A7.076,7.076,0,0,0,97.453,77.5a7.191,7.191,0,0,0,1-1.768m-17.606,25.19a7.224,7.224,0,0,0-1.42,1.453,7.127,7.127,0,0,0-1,1.768,7.057,7.057,0,0,0,1.42-1.453,7.174,7.174,0,0,0,1-1.768m-2.48,16.249a7.2,7.2,0,0,0-1.453-1.42,7.1,7.1,0,0,0-1.768-1,7.075,7.075,0,0,0,1.452,1.42,7.2,7.2,0,0,0,1.769,1M91.858,88.766a7.176,7.176,0,0,0-1.453-1.42,7.1,7.1,0,0,0-1.768-1,7.08,7.08,0,0,0,1.453,1.42,7.174,7.174,0,0,0,1.768,1" transform="translate(-5.371 -5.413)" fill="#fff"/>
            <path id="Trazado_817555" data-name="Trazado 817555" d="M99.658,92.364a14.527,14.527,0,0,0-.98,2.433c-.1.28-.188.563-.279.844q.35-2.345.672-4.7c.014-.1-.14-.147-.16-.04-.686,3.54-3.835,20.138-3.978,21-.075.009-.915.487-.967.484s.021.174.06.133,1.084-.487,1.087-.495c.344-.757,2.828-13.424,3.066-14.962a2.191,2.191,0,0,0,.1-.208l.245-.657c.152-.406.289-.817.431-1.227a17.923,17.923,0,0,0,.789-2.57.047.047,0,0,0-.086-.034" transform="translate(-6.715 -6.492)" fill="#263238"/>
            <path id="Trazado_817556" data-name="Trazado 817556" d="M92.588,110.365a27.486,27.486,0,0,0-3.169.943c-1.052.328-2.109.638-3.156.982-2.018.662-4.015,1.376-6.006,2.116a126.2,126.2,0,0,0-11.8,4.923c-.08.04-.019.172.064.143,4.082-1.423,8.093-3.04,12.142-4.554,1.99-.745,3.984-1.477,5.975-2.219,1-.37,1.984-.765,2.983-1.131a31.677,31.677,0,0,0,3-1.111c.057-.028.01-.1-.042-.093" transform="translate(-4.89 -7.888)" fill="#263238"/>
            <path id="Trazado_817557" data-name="Trazado 817557" d="M100.829,68.693c.224,1.008,4.951,7.59,9.549,7.425,1.5-.056,1.557-8.244,1.557-8.244l.143-.6,1.989-8.45-9.878-6.5-1.428-.861s-.392,2.347-.851,5.275c-.022.136-.045.271-.066.417-.03.165-.06.32-.082.475-.074.436-.148.882-.212,1.329-.051.339-.1.669-.141,1.026s-.089.707-.138,1.065a55.892,55.892,0,0,0-.443,7.64" transform="translate(-7.204 -3.678)" fill="#dd6a57"/>
            <path id="Trazado_817558" data-name="Trazado 817558" d="M102,56.741a17.413,17.413,0,0,0,10.167,10.53l1.989-8.45-9.878-6.5-1.428-.861s-.392,2.347-.851,5.275" transform="translate(-7.29 -3.678)" fill="#263238"/>
            <path id="Trazado_817559" data-name="Trazado 817559" d="M126.1,43.68c1.959,15.107-6.868,17.986-10.126,18.4-2.958.381-13.077,1.3-16.586-13.524s2.9-20.51,9.614-21.738,15.14,1.75,17.1,16.857" transform="translate(-7.032 -1.899)" fill="#dd6a57"/>
            <path id="Trazado_817560" data-name="Trazado 817560" d="M125.4,42.368a9.839,9.839,0,0,1-1.046-.106,1.706,1.706,0,0,1-1.047-.312.542.542,0,0,1-.07-.657,1.344,1.344,0,0,1,1.284-.454,1.981,1.981,0,0,1,1.306.562.579.579,0,0,1-.427.968" transform="translate(-8.802 -2.918)" fill="#263238"/>
            <path id="Trazado_817561" data-name="Trazado 817561" d="M114.327,43.513a10.134,10.134,0,0,0,1-.326,1.7,1.7,0,0,0,.957-.526.54.54,0,0,0-.071-.656,1.34,1.34,0,0,0-1.35-.172,1.978,1.978,0,0,0-1.158.825.578.578,0,0,0,.622.855" transform="translate(-8.12 -2.983)" fill="#263238"/>
            <path id="Trazado_817562" data-name="Trazado 817562" d="M117.337,47.376c-.013-.038-.074.059-.067.1.167,1.024.187,2.225-.7,2.688-.028.015-.018.066.016.057,1.114-.308,1.072-1.9.75-2.846" transform="translate(-8.33 -3.385)" fill="#263238"/>
            <path id="Trazado_817563" data-name="Trazado 817563" d="M116.17,46.35c-1.67.091-1.366,3.425.182,3.341,1.524-.083,1.218-3.417-.182-3.341" transform="translate(-8.223 -3.313)" fill="#263238"/>
            <path id="Trazado_817564" data-name="Trazado 817564" d="M115.417,46.6c-.274.215-.529.575-.877.642-.4.077-.742-.244-1.038-.555-.031-.033-.057,0-.053.044.048.64.355,1.272,1.048,1.306.632.03,1.03-.578,1.13-1.234.019-.122-.1-.288-.211-.2" transform="translate(-8.108 -3.329)" fill="#263238"/>
            <path id="Trazado_817565" data-name="Trazado 817565" d="M123.557,46.576c0-.04.084.042.086.084.054,1.036.291,2.215,1.254,2.479.031.008.031.06,0,.058-1.154-.065-1.451-1.631-1.336-2.622" transform="translate(-8.829 -3.328)" fill="#263238"/>
            <path id="Trazado_817566" data-name="Trazado 817566" d="M124.39,45.33c1.652-.266,2.061,3.058.531,3.3-1.506.241-1.916-3.081-.531-3.3" transform="translate(-8.83 -3.239)" fill="#263238"/>
            <path id="Trazado_817567" data-name="Trazado 817567" d="M125.219,45.445c.284.144.583.432.9.414.366-.021.591-.414.781-.787.02-.038.049-.014.056.03.1.633-.032,1.321-.628,1.518-.543.18-1.02-.315-1.248-.929-.043-.113.025-.3.139-.245" transform="translate(-8.939 -3.22)" fill="#263238"/>
            <path id="Trazado_817568" data-name="Trazado 817568" d="M118.1,56.519c.259.231.522.554.9.568a2.73,2.73,0,0,0,1.1-.312.037.037,0,0,1,.047.051,1.4,1.4,0,0,1-1.29.623,1.1,1.1,0,0,1-.857-.878c-.019-.059.059-.085.1-.052" transform="translate(-8.433 -4.038)" fill="#263238"/>
            <path id="Trazado_817569" data-name="Trazado 817569" d="M122.066,51.253s.371,1.519.447,2.246c.007.068-.166.118-.411.158-.011.006-.018.011-.028,0a3.471,3.471,0,0,1-3.488-.943c-.058-.066.027-.15.1-.111a5.238,5.238,0,0,0,3.249.578c.031-.207-.723-2.579-.609-2.6a6.357,6.357,0,0,1,1.689.2c-.683-3.187-1.872-6.237-2.506-9.42a.1.1,0,0,1,.186-.067,52.9,52.9,0,0,1,3.13,10.032c.1.407-1.451.016-1.754-.078" transform="translate(-8.474 -2.948)" fill="#263238"/>
            <path id="Trazado_817570" data-name="Trazado 817570" d="M100.733,48.888c2.452-.086,2.436-5.246,2.436-5.246s4.942-.542,5.771-7.829a11.016,11.016,0,0,1-1.525,6.12s8.607-1.905,11.452-9.607c0,0-1.045,3.878-2.267,5.353a10.272,10.272,0,0,0,4.985-4.6s2,4.035,3.3,5.065c0,0-2.078-15.2-16.014-11.987,0,0-8.775,1.583-11.161,8.939s3.019,13.792,3.019,13.792" transform="translate(-6.94 -1.838)" fill="#263238"/>
            <path id="Trazado_817571" data-name="Trazado 817571" d="M114.658,52.977a4.73,4.73,0,1,1,4.535-5.936h0a4.734,4.734,0,0,1-4.535,5.935m-.073-8.828a4.1,4.1,0,1,0,4,3.054,4.078,4.078,0,0,0-4-3.054" transform="translate(-7.854 -3.11)" fill="#ffc727"/>
            <path id="Trazado_817572" data-name="Trazado 817572" d="M126.321,51.459c-1.81.015-3.467-1.825-3.775-4.274a5.648,5.648,0,0,1,.578-3.406,2.946,2.946,0,0,1,5-.63,5.644,5.644,0,0,1,1.4,3.156c.325,2.587-.977,4.89-2.9,5.132a2.661,2.661,0,0,1-.309.021m-.553-8.8a2.077,2.077,0,0,0-.24.016,2.524,2.524,0,0,0-1.851,1.4,5.032,5.032,0,0,0-.505,3.022c.282,2.241,1.793,3.905,3.379,3.7s2.636-2.184,2.355-4.425a5.019,5.019,0,0,0-1.239-2.8,2.6,2.6,0,0,0-1.9-.917" transform="translate(-8.755 -3.004)" fill="#ffc727"/>
            <path id="Trazado_817573" data-name="Trazado 817573" d="M119.777,47.8l-.464-.43c.637-.687,2.182-1.7,3.482-.616l-.4.486c-1.163-.971-2.554.5-2.613.56" transform="translate(-8.527 -3.308)" fill="#ffc727"/>
            <path id="Trazado_817574" data-name="Trazado 817574" d="M98.433,51.8l-.594-.218c.1-.277,1.033-2.716,2.4-3.12,1.283-.373,8.844-.7,9.205-.709l.019.631a83.23,83.23,0,0,0-9.046.685c-.906.266-1.744,2.061-1.99,2.731" transform="translate(-6.993 -3.413)" fill="#ffc727"/>
            <path id="Trazado_817575" data-name="Trazado 817575" d="M99.9,55.553a3.186,3.186,0,0,0,.713.152,2.357,2.357,0,0,0,.718-.012,2.1,2.1,0,0,0,.865-.321,2.512,2.512,0,0,0,.556-.468,2.944,2.944,0,0,0,.54-.878l-1.014-4.031s-3.527-4.608-5.628-3.332.677,8.058,3.249,8.89" transform="translate(-6.855 -3.319)" fill="#dd6a57"/>
            <path id="Trazado_817576" data-name="Trazado 817576" d="M97.617,48.749a.035.035,0,0,0-.01.068c1.8.643,2.809,2.25,3.535,3.928a1.422,1.422,0,0,0-2.142-.3c-.045.035,0,.106.052.093a1.584,1.584,0,0,1,1.766.479,7.664,7.664,0,0,1,.894,1.373c.089.155.372.058.3-.122L102,54.229c-.051-2.264-1.943-5.356-4.383-5.48" transform="translate(-6.974 -3.484)" fill="#263238"/>
            <path id="Trazado_817577" data-name="Trazado 817577" d="M100.407,55.488a.706.706,0,1,0,.516-.854.705.705,0,0,0-.516.854" transform="translate(-7.175 -3.903)" fill="#fff"/>
            <path id="Trazado_817578" data-name="Trazado 817578" d="M98.8,54.427a.5.5,0,1,0,.366-.6.5.5,0,0,0-.366.6" transform="translate(-7.06 -3.846)" fill="#fff"/>
            <path id="Trazado_817579" data-name="Trazado 817579" d="M111.785,69.756l-2.273,6.912-8.92-7.986L98.4,71.57s9.061,13.018,9.074,12.4l2.4-5.986,4.268,3.783-.978-10.123Z" transform="translate(-7.032 -4.909)" fill="#ebebeb"/>
            <path id="Trazado_817580" data-name="Trazado 817580" d="M113.969,76.968c-.217-1.666-.39-3.35-.684-5-.01-.059-.1-.079-.115-.008-.231,1.637.634,8,.726,9.537l-.019-.016c-.179-.164-3.944-3.317-3.976-3.261-.543.961-2.309,5.321-2.423,5.715-1.434-2.068-6.9-9.569-8.565-11.505a.058.058,0,0,0-.1.064c1.291,2.2,8.537,12.309,8.635,12.272a65.577,65.577,0,0,0,2.51-6.327,44.271,44.271,0,0,0,4.47,4.033,52.68,52.68,0,0,0-.462-5.5" transform="translate(-7.062 -5.14)" fill="#263238"/>
          </g>
        </g>
        <rect id="Rectángulo_376567" data-name="Rectángulo 376567" width="107.396" height="137.864" transform="translate(172.795 80.068)" fill="#f6f6f6"/>
        <path id="Trazado_817581" data-name="Trazado 817581" d="M293.456,224.06l-53.62.189-53.777.1h-.292v-.293L185.6,86.2v-.456h.456l107.4.1h.35v.35l-.118,69.027Zm0,0-.232-69.028L293.106,86.2l.35.349-107.4.1.455-.454-.163,137.863-.292-.292,53.62.1Z" transform="translate(-13.265 -6.128)" fill="#dbdbdb"/>
        <path id="Trazado_817582" data-name="Trazado 817582" d="M198.747,117.956l41.95.106,41.951-.106L240.7,117.85Z" transform="translate(-14.205 -8.423)" fill="#c7c7c7"/>
        <path id="Trazado_817583" data-name="Trazado 817583" d="M198.747,121.641l41.95.106,41.951-.106-41.951-.106Z" transform="translate(-14.205 -8.686)" fill="#c7c7c7"/>
        <path id="Trazado_817584" data-name="Trazado 817584" d="M198.747,125.325l41.95.106,41.951-.106L240.7,125.22Z" transform="translate(-14.205 -8.95)" fill="#c7c7c7"/>
        <path id="Trazado_817585" data-name="Trazado 817585" d="M198.747,129.01l41.95.106,41.951-.106L240.7,128.9Z" transform="translate(-14.205 -9.213)" fill="#c7c7c7"/>
        <path id="Trazado_817586" data-name="Trazado 817586" d="M198.747,132.695l41.95.106,41.951-.106-41.951-.1Z" transform="translate(-14.205 -9.476)" fill="#c7c7c7"/>
        <path id="Trazado_817587" data-name="Trazado 817587" d="M198.747,136.38l41.95.1,41.951-.1-41.951-.106Z" transform="translate(-14.205 -9.74)" fill="#c7c7c7"/>
        <path id="Trazado_817588" data-name="Trazado 817588" d="M198.747,140.065l41.95.1,41.951-.1-41.951-.106Z" transform="translate(-14.205 -10.003)" fill="#c7c7c7"/>
        <path id="Trazado_817589" data-name="Trazado 817589" d="M198.747,143.749l41.95.106,41.951-.106-41.951-.106Z" transform="translate(-14.205 -10.266)" fill="#c7c7c7"/>
        <path id="Trazado_817590" data-name="Trazado 817590" d="M198.747,147.434l41.95.106,41.951-.106-41.951-.106Z" transform="translate(-14.205 -10.53)" fill="#c7c7c7"/>
        <path id="Trazado_817591" data-name="Trazado 817591" d="M198.747,151.118l41.95.106,41.951-.106-41.951-.106Z" transform="translate(-14.205 -10.793)" fill="#c7c7c7"/>
        <path id="Trazado_817592" data-name="Trazado 817592" d="M198.747,154.8l41.95.106,41.951-.106L240.7,154.7Z" transform="translate(-14.205 -11.056)" fill="#c7c7c7"/>
        <path id="Trazado_817593" data-name="Trazado 817593" d="M198.747,158.488l41.95.106,41.951-.106-41.951-.106Z" transform="translate(-14.205 -11.32)" fill="#c7c7c7"/>
        <path id="Trazado_817594" data-name="Trazado 817594" d="M198.747,162.172l41.95.106,41.951-.106-41.951-.106Z" transform="translate(-14.205 -11.583)" fill="#c7c7c7"/>
        <path id="Trazado_817595" data-name="Trazado 817595" d="M198.747,165.857l41.95.106,41.951-.106-41.951-.106Z" transform="translate(-14.205 -11.846)" fill="#c7c7c7"/>
        <path id="Trazado_817596" data-name="Trazado 817596" d="M198.747,169.542l41.95.106,41.951-.106-41.951-.1Z" transform="translate(-14.205 -12.11)" fill="#c7c7c7"/>
        <rect id="Rectángulo_376568" data-name="Rectángulo 376568" width="6.362" height="14.359" transform="translate(193.414 147.062)" fill="#ffc727"/>
        <rect id="Rectángulo_376569" data-name="Rectángulo 376569" width="6.362" height="22.018" transform="translate(205.217 139.403)" fill="#ffc727"/>
        <rect id="Rectángulo_376570" data-name="Rectángulo 376570" width="6.362" height="30.59" transform="translate(217.02 130.83)" fill="#632059"/>
        <rect id="Rectángulo_376571" data-name="Rectángulo 376571" width="6.362" height="34.274" transform="translate(228.823 127.146)" fill="#632059"/>
        <rect id="Rectángulo_376572" data-name="Rectángulo 376572" width="6.362" height="40.837" transform="translate(240.626 120.583)" fill="#632059"/>
        <rect id="Rectángulo_376573" data-name="Rectángulo 376573" width="6.362" height="47.322" transform="translate(252.429 114.1)" fill="#632059"/>
        <g id="Grupo_1071764" data-name="Grupo 1071764">
          <g id="Grupo_1071763" data-name="Grupo 1071763" clip-path="url(#clip-path-2)">
            <path id="Trazado_817597" data-name="Trazado 817597" d="M201.169,115.379l.165,13.572.113,13.571q.117,13.573.115,27.145l-.394-.394,20.406-.017,20.406.046,20.406.13,20.406.234-20.406.233-20.406.131-20.406.046-20.406-.017h-.395v-.394c.014-9.049.037-18.1.115-27.145L201,128.951Z" transform="translate(-14.35 -8.246)" fill="#c7c7c7"/>
            <rect id="Rectángulo_376574" data-name="Rectángulo 376574" width="6.362" height="0.575" transform="translate(193.414 164.289)" fill="#c7c7c7"/>
            <rect id="Rectángulo_376575" data-name="Rectángulo 376575" width="6.362" height="0.575" transform="translate(205.217 164.289)" fill="#c7c7c7"/>
            <rect id="Rectángulo_376576" data-name="Rectángulo 376576" width="6.362" height="0.575" transform="translate(217.02 164.289)" fill="#c7c7c7"/>
            <rect id="Rectángulo_376577" data-name="Rectángulo 376577" width="6.362" height="0.575" transform="translate(228.823 164.289)" fill="#c7c7c7"/>
            <rect id="Rectángulo_376578" data-name="Rectángulo 376578" width="6.362" height="0.575" transform="translate(240.626 164.289)" fill="#c7c7c7"/>
            <rect id="Rectángulo_376579" data-name="Rectángulo 376579" width="6.362" height="0.575" transform="translate(252.429 164.289)" fill="#c7c7c7"/>
            <path id="Trazado_817598" data-name="Trazado 817598" d="M209.074,157.759a77.117,77.117,0,0,0,9.293-.706,90.3,90.3,0,0,0,9.156-1.65A79.2,79.2,0,0,0,245,149.246a62.269,62.269,0,0,0,15.275-10.4l.86-.78.814-.825,1.622-1.661c1-1.177,2.079-2.3,2.991-3.554a63.793,63.793,0,0,0,5.21-7.713l.05.027A55.736,55.736,0,0,1,253.5,145.3a61.929,61.929,0,0,1-8.1,4.756,75.838,75.838,0,0,1-17.729,6.02,76.651,76.651,0,0,1-18.6,1.683" transform="translate(-14.943 -8.885)" fill="#263238"/>
            <path id="Trazado_817599" data-name="Trazado 817599" d="M278.041,128.673l-.881.221-1.082-4.343-4.253,1.4-.282-.864,5.179-1.7Z" transform="translate(-19.407 -8.818)" fill="#263238"/>
            <rect id="Rectángulo_376580" data-name="Rectángulo 376580" width="87.488" height="3.54" transform="translate(182.749 182.766)" fill="#dbdbdb"/>
            <rect id="Rectángulo_376581" data-name="Rectángulo 376581" width="49.256" height="3.54" transform="translate(182.749 191.701)" fill="#dbdbdb"/>
            <rect id="Rectángulo_376582" data-name="Rectángulo 376582" width="49.256" height="3.54" transform="translate(201.865 95.302)" fill="#dbdbdb"/>
            <path id="Trazado_817600" data-name="Trazado 817600" d="M269.659,260.943l-105.2,21.617L136.71,147.517l78.111-16.051L247.2,151.632Z" transform="translate(-9.771 -9.396)" fill="#3b5620"/>
            <g id="Grupo_1071759" data-name="Grupo 1071759" transform="translate(126.94 122.425)" opacity="0.8">
              <g id="Grupo_1071758" data-name="Grupo 1071758" opacity="0.87">
                <g id="Grupo_1071757" data-name="Grupo 1071757" clip-path="url(#clip-path-8)">
                  <path id="Trazado_817601" data-name="Trazado 817601" d="M269.659,260.943l-105.2,21.617L136.71,147.517l78.111-16.051L247.2,151.632Z" transform="translate(-136.711 -131.466)" fill="#fff"/>
                </g>
              </g>
            </g>
            <path id="Trazado_817602" data-name="Trazado 817602" d="M220.833,131.466l32.377,20.165L226.121,157.2Z" transform="translate(-15.784 -9.041)" fill="#3b5620"/>
            <rect id="Rectángulo_376584" data-name="Rectángulo 376584" width="59.712" height="3.541" transform="translate(141.859 158.671) rotate(-11.612)" fill="#fff"/>
            <rect id="Rectángulo_376585" data-name="Rectángulo 376585" width="59.711" height="3.541" transform="matrix(0.98, -0.201, 0.201, 0.98, 143.658, 167.423)" fill="#fff"/>
            <rect id="Rectángulo_376586" data-name="Rectángulo 376586" width="59.712" height="3.541" transform="matrix(0.98, -0.201, 0.201, 0.98, 145.456, 176.176)" fill="#fff"/>
            <rect id="Rectángulo_376587" data-name="Rectángulo 376587" width="87.488" height="3.541" transform="translate(147.254 184.928) rotate(-11.612)" fill="#fff"/>
            <rect id="Rectángulo_376588" data-name="Rectángulo 376588" width="87.488" height="3.541" transform="matrix(0.98, -0.201, 0.201, 0.98, 149.053, 193.681)" fill="#fff"/>
            <rect id="Rectángulo_376589" data-name="Rectángulo 376589" width="87.488" height="3.541" transform="matrix(0.98, -0.201, 0.201, 0.98, 150.852, 202.433)" fill="#fff"/>
            <rect id="Rectángulo_376590" data-name="Rectángulo 376590" width="87.488" height="3.541" transform="matrix(0.98, -0.201, 0.201, 0.98, 152.65, 211.186)" fill="#fff"/>
            <rect id="Rectángulo_376591" data-name="Rectángulo 376591" width="87.488" height="3.541" transform="translate(154.449 219.939) rotate(-11.612)" fill="#fff"/>
            <rect id="Rectángulo_376592" data-name="Rectángulo 376592" width="87.488" height="3.541" transform="matrix(0.98, -0.201, 0.201, 0.98, 156.248, 228.691)" fill="#fff"/>
            <rect id="Rectángulo_376593" data-name="Rectángulo 376593" width="87.488" height="3.541" transform="matrix(0.98, -0.201, 0.201, 0.98, 158.046, 237.444)" fill="#fff"/>
            <rect id="Rectángulo_376594" data-name="Rectángulo 376594" width="87.487" height="3.541" transform="matrix(0.98, -0.201, 0.201, 0.98, 159.845, 246.196)" fill="#fff"/>
            <rect id="Rectángulo_376595" data-name="Rectángulo 376595" width="87.488" height="3.541" transform="matrix(0.98, -0.201, 0.201, 0.98, 161.643, 254.949)" fill="#fff"/>
            <path id="Trazado_817603" data-name="Trazado 817603" d="M502.41,153.422Q443.371,157.71,384.575,162c-13.421-51.015.956-102.03-9.5-153.045Q434.116,4.666,492.912.378c13.406,51.014-.972,102.03,9.5,153.044" transform="translate(-26.807 -0.027)" fill="#f6f6f6"/>
            <path id="Trazado_817604" data-name="Trazado 817604" d="M502.367,153.395q-59.01,4.432-117.759,8.866l-.283.021c-.026-.1-.052-.192-.077-.289-13.486-51.011.83-102.021-9.673-153.032-.033-.154-.064-.308-.1-.462l.459-.032Q433.979,4.245,492.783.023L493.107,0c.029.109.057.218.085.327C506.5,51.35,492,102.372,502.367,153.395m0,0c-10.578-51.007,3.684-102.014-9.82-153.021l.409.3Q434.17,5.034,375.126,9.39l.363-.495c10.411,51.019-4.03,102.038,9.326,153.056l-.358-.266q58.837-4.145,117.91-8.29" transform="translate(-26.764)" fill="#dbdbdb"/>
            <path id="Trazado_817605" data-name="Trazado 817605" d="M390.392,32.794q33.108-2.384,66.162-4.769.214,1.965.393,3.93-33.1,2.386-66.247,4.77-.138-1.965-.308-3.93" transform="translate(-27.902 -2.003)" fill="#dbdbdb"/>
            <path id="Trazado_817606" data-name="Trazado 817606" d="M391.1,43.477q33.2-2.384,66.362-4.769.128,1.965.227,3.93l-66.43,4.769q-.066-1.964-.159-3.93" transform="translate(-27.952 -2.766)" fill="#dbdbdb"/>
            <path id="Trazado_817607" data-name="Trazado 817607" d="M391.433,54.159l66.52-4.769q.059,1.965.095,3.93l-66.571,4.769q-.012-1.965-.044-3.93" transform="translate(-27.976 -3.53)" fill="#dbdbdb"/>
            <path id="Trazado_817608" data-name="Trazado 817608" d="M391.477,64.671q48.833-3.493,97.616-6.987.018,1.964.017,3.93Q440.3,65.108,391.44,68.6q.025-1.964.037-3.93" transform="translate(-27.977 -4.123)" fill="#dbdbdb"/>
            <path id="Trazado_817609" data-name="Trazado 817609" d="M391.329,75.354l97.733-6.987q-.021,1.964-.054,3.93l-97.763,6.988q.045-1.965.084-3.93" transform="translate(-27.963 -4.886)" fill="#dbdbdb"/>
            <path id="Trazado_817610" data-name="Trazado 817610" d="M391.083,86.037l97.79-6.987q-.045,1.964-.091,3.93l-97.8,6.987q.047-1.964.1-3.93" transform="translate(-27.944 -5.65)" fill="#dbdbdb"/>
            <path id="Trazado_817611" data-name="Trazado 817611" d="M390.832,96.719l97.785-6.987q-.049,1.964-.094,3.93l-97.767,6.988q.033-1.965.075-3.93" transform="translate(-27.928 -6.413)" fill="#dbdbdb"/>
            <path id="Trazado_817612" data-name="Trazado 817612" d="M390.67,107.4q48.842-3.493,97.719-6.987-.035,1.964-.063,3.93l-97.677,6.987q0-1.964.02-3.93" transform="translate(-27.92 -7.177)" fill="#dbdbdb"/>
            <path id="Trazado_817613" data-name="Trazado 817613" d="M390.683,118.085q48.769-3.495,97.595-6.987-.007,1.964,0,3.93-48.8,3.495-97.529,6.988-.045-1.965-.069-3.93" transform="translate(-27.922 -7.94)" fill="#dbdbdb"/>
            <path id="Trazado_817614" data-name="Trazado 817614" d="M390.966,128.768q48.666-3.494,97.408-6.987.04,1.964.1,3.93-48.7,3.495-97.318,6.987-.11-1.964-.192-3.93" transform="translate(-27.943 -8.704)" fill="#dbdbdb"/>
            <path id="Trazado_817615" data-name="Trazado 817615" d="M391.612,139.45q48.531-3.493,97.162-6.986.1,1.964.235,3.929-48.575,3.494-97.047,6.988-.192-1.964-.35-3.93" transform="translate(-27.989 -9.467)" fill="#dbdbdb"/>
            <path id="Trazado_817616" data-name="Trazado 817616" d="M392.714,150.133q48.366-3.492,96.855-6.986.184,1.964.4,3.93-48.421,3.493-96.717,6.987-.291-1.965-.541-3.93" transform="translate(-28.068 -10.231)" fill="#dbdbdb"/>
            <path id="Trazado_817617" data-name="Trazado 817617" d="M484.892,210.784q-60.947-10.336-120.512-20.673c5.141-50.375,30.627-100.751,29.32-151.127Q454.647,49.32,514.212,59.657c-5.141,50.375-30.628,100.752-29.32,151.127" transform="translate(-26.043 -2.786)" fill="#dbf9bd"/>
            <g id="Grupo_1071762" data-name="Grupo 1071762" transform="translate(338.962 36.198)" opacity="0.63">
              <g id="Grupo_1071761" data-name="Grupo 1071761" transform="translate(0 0)">
                <g id="Grupo_1071760" data-name="Grupo 1071760" clip-path="url(#clip-path-9)">
                  <path id="Trazado_817618" data-name="Trazado 817618" d="M484.892,210.784q-60.947-10.336-120.512-20.673c5.141-50.375,30.627-100.751,29.32-151.127Q454.647,49.32,514.212,59.657c-5.141,50.375-30.628,100.752-29.32,151.127" transform="translate(-364.38 -38.984)" fill="#fff"/>
                </g>
              </g>
            </g>
            <path id="Trazado_817619" data-name="Trazado 817619" d="M406.685,65.143q33.043,5.747,65.772,11.493-.336,1.94-.7,3.881Q439.1,74.771,406.179,69.024q.272-1.942.506-3.881" transform="translate(-29.03 -4.656)" fill="#fff"/>
            <path id="Trazado_817620" data-name="Trazado 817620" d="M405.151,75.692q32.781,5.747,65.3,11.493-.407,1.94-.839,3.881-32.462-5.747-65.141-11.493.354-1.942.677-3.881" transform="translate(-28.908 -5.41)" fill="#fff"/>
            <path id="Trazado_817621" data-name="Trazado 817621" d="M403.179,86.241q32.565,5.747,64.923,11.493-.462,1.942-.942,3.881-32.316-5.747-64.8-11.493.421-1.942.817-3.881" transform="translate(-28.757 -6.164)" fill="#fff"/>
            <path id="Trazado_817622" data-name="Trazado 817622" d="M400.855,96.79q47.462,8.419,94.615,16.84-.518,1.942-1.044,3.881-47.15-8.421-94.5-16.84.472-1.942.927-3.881" transform="translate(-28.583 -6.918)" fill="#fff"/>
            <path id="Trazado_817623" data-name="Trazado 817623" d="M398.26,107.339q47.277,8.419,94.359,16.84-.533,1.942-1.07,3.881-47.1-8.419-94.295-16.84.508-1.942,1.006-3.881" transform="translate(-28.392 -7.672)" fill="#fff"/>
            <path id="Trazado_817624" data-name="Trazado 817624" d="M395.477,117.888q47.159,8.419,94.236,16.84-.535,1.942-1.067,3.881-47.127-8.419-94.223-16.84.529-1.942,1.054-3.881" transform="translate(-28.19 -8.426)" fill="#fff"/>
            <path id="Trazado_817625" data-name="Trazado 817625" d="M392.59,128.437q47.107,8.421,94.246,16.84-.521,1.942-1.033,3.881-47.214-8.419-94.286-16.84l1.072-3.881" transform="translate(-27.982 -9.18)" fill="#fff"/>
            <path id="Trazado_817626" data-name="Trazado 817626" d="M389.68,138.986q47.121,8.421,94.387,16.84-.49,1.942-.967,3.881-47.369-8.421-94.48-16.84.526-1.942,1.059-3.881" transform="translate(-27.775 -9.933)" fill="#fff"/>
            <path id="Trazado_817627" data-name="Trazado 817627" d="M386.833,149.535q47.2,8.419,94.661,16.84-.446,1.942-.871,3.881-47.589-8.419-94.807-16.84.5-1.942,1.017-3.881" transform="translate(-27.575 -10.687)" fill="#fff"/>
            <path id="Trazado_817628" data-name="Trazado 817628" d="M384.128,160.084q47.347,8.419,95.067,16.84-.387,1.942-.746,3.881-47.874-8.421-95.265-16.84.462-1.942.943-3.881" transform="translate(-27.387 -11.441)" fill="#fff"/>
            <path id="Trazado_817629" data-name="Trazado 817629" d="M381.652,170.633q47.56,8.421,95.606,16.841-.311,1.94-.589,3.88-48.228-8.419-95.857-16.84.408-1.942.839-3.881" transform="translate(-27.217 -12.195)" fill="#fff"/>
            <path id="Trazado_817630" data-name="Trazado 817630" d="M379.486,181.182q47.838,8.421,96.277,16.84-.221,1.942-.4,3.881-48.646-8.421-96.58-16.84.337-1.942.7-3.881" transform="translate(-27.072 -12.949)" fill="#fff"/>
          </g>
        </g>
        <rect id="Rectángulo_376598" data-name="Rectángulo 376598" width="208.256" height="150.96" transform="translate(201.43 187.347)" fill="#fdc129"/>
        <path id="Trazado_817631" data-name="Trazado 817631" d="M290.519,184.93H216.936v15.634h77.811Z" transform="translate(-15.505 -13.217)" fill="#fdc129"/>
        <g id="Grupo_1071769" data-name="Grupo 1071769">
          <g id="Grupo_1071768" data-name="Grupo 1071768" clip-path="url(#clip-path-2)">
            <g id="Grupo_1071767" data-name="Grupo 1071767" transform="translate(200.885 171.713)" opacity="0.1">
              <g id="Grupo_1071766" data-name="Grupo 1071766">
                <g id="Grupo_1071765" data-name="Grupo 1071765" clip-path="url(#clip-path-11)">
                  <rect id="Rectángulo_376599" data-name="Rectángulo 376599" width="208.256" height="150.96" transform="translate(-0.001 15.634)"/>
                  <path id="Trazado_817632" data-name="Trazado 817632" d="M290.519,184.93H216.936v15.634h77.811Z" transform="translate(-216.936 -184.93)"/>
                </g>
              </g>
            </g>
            <path id="Trazado_817633" data-name="Trazado 817633" d="M430.5,290.249c-40.662-11.632-80.418-23.131-119.554-34.519,9.844-46,37.417-91.073,39.3-137.766,40.626,10.957,80.351,21.936,119.462,32.948-9.976,46.754-37.519,92.272-39.2,139.337" transform="translate(-22.223 -8.431)" fill="#f6f6f6"/>
            <path id="Trazado_817634" data-name="Trazado 817634" d="M430.472,290.207c-40.665-11.543-80.442-22.956-119.608-34.259l-.283-.082c.019-.086.037-.174.055-.26,9.8-46.018,37.325-91.1,39.106-137.811.006-.141.01-.282.016-.423l.473.127c40.654,11,80.394,22.017,119.509,33.071l.323.092-.064.3c-10.1,46.724-37.73,92.212-39.526,139.246m0,0c1.573-47.1,29.03-92.643,38.881-139.428l.258.392c-39.105-10.972-78.816-21.91-119.415-32.825l.489-.3c-1.974,46.676-29.6,91.731-39.483,137.721l-.228-.341c39.1,11.473,78.838,23.057,119.5,34.777" transform="translate(-22.197 -8.389)" fill="#dbdbdb"/>
            <path id="Trazado_817635" data-name="Trazado 817635" d="M427.879,208.4c-6.045,16.143-24.363,25.142-41.457,20.093-17.182-5.041-26.056-22.105-20.153-38.165,5.847-16.083,23.523-25.19,40.836-20.235,17.379,4.972,26.9,22.149,20.774,38.307" transform="translate(-26.047 -12.06)" fill="#632059"/>
            <path id="Trazado_817636" data-name="Trazado 817636" d="M397.1,199.341c-7.012,8-14.1,15.993-21.02,23.98a28.537,28.537,0,0,1-9.805-33c5.811-15.975,23.641-25.158,40.836-20.235,17.267,4.939,26.859,22.257,20.775,38.307q-15.39-4.535-30.785-9.057" transform="translate(-26.049 -12.061)" fill="#dbdbdb"/>
            <path id="Trazado_817637" data-name="Trazado 817637" d="M397.1,199.341c6.111,8.217,12.154,16.439,18.331,24.678a34.647,34.647,0,0,1-29,4.472c-17.067-5.008-26.016-22.213-20.153-38.165,5.811-15.975,23.641-25.158,40.836-20.235,17.267,4.939,26.859,22.257,20.775,38.307q-15.39-4.535-30.785-9.057" transform="translate(-26.049 -12.061)" fill="#dbdbdb"/>
            <path id="Trazado_817638" data-name="Trazado 817638" d="M397.1,199.341q-16.148,2.7-32.306,5.385a29.379,29.379,0,0,1,1.481-14.4c5.811-15.975,23.641-25.158,40.836-20.235,17.267,4.939,26.859,22.257,20.775,38.307q-15.39-4.535-30.785-9.057" transform="translate(-26.049 -12.061)" fill="#c8b1c5"/>
            <path id="Trazado_817639" data-name="Trazado 817639" d="M363.118,139.776q24.751,6.878,49.162,13.773-.426,1.788-.882,3.576-24.328-6.9-48.953-13.778.355-1.784.673-3.571" transform="translate(-25.904 -9.99)" fill="#dbdbdb"/>
            <path id="Trazado_817640" data-name="Trazado 817640" d="M359.065,238.841q32.619,9.615,65.6,19.316-.5,1.783-.963,3.567-33.119-9.723-65.79-19.351.57-1.767,1.157-3.533" transform="translate(-25.58 -17.07)" fill="#dbdbdb"/>
            <path id="Trazado_817641" data-name="Trazado 817641" d="M356.012,248.447q32.834,9.655,66.121,19.406-.421,1.787-.808,3.576-33.454-9.773-66.361-19.444.511-1.769,1.048-3.538" transform="translate(-25.37 -17.757)" fill="#dbdbdb"/>
            <path id="Trazado_817642" data-name="Trazado 817642" d="M353.281,258.069q33.105,9.7,66.762,19.506-.332,1.793-.625,3.587-33.845-9.829-67.049-19.547.442-1.773.912-3.545" transform="translate(-25.184 -18.444)" fill="#dbdbdb"/>
            <path id="Trazado_817643" data-name="Trazado 817643" d="M344.7,238.492l-7.914-2.325q.592-1.762,1.2-3.524l7.9,2.322q-.6,1.762-1.184,3.527" transform="translate(-24.07 -16.627)" fill="#ffc727"/>
            <path id="Trazado_817644" data-name="Trazado 817644" d="M341.664,248.086l-7.966-2.335q.542-1.765,1.106-3.527l7.944,2.332q-.553,1.765-1.084,3.531" transform="translate(-23.85 -17.312)" fill="#455a64"/>
            <path id="Trazado_817645" data-name="Trazado 817645" d="M338.953,257.7l-8.032-2.346q.478-1.767.982-3.534l8,2.343q-.49,1.767-.955,3.538" transform="translate(-23.651 -17.997)" fill="#dbdbdb"/>
            <path id="Trazado_817646" data-name="Trazado 817646" d="M423.367,353.691H215.111L199.049,215.256H407.3Z" transform="translate(-14.226 -15.385)" fill="#fdc129"/>
            <path id="Trazado_817647" data-name="Trazado 817647" d="M270.84,199.816H197.257l1.664,14.336h77.811Z" transform="translate(-14.098 -14.281)" fill="#fdc129"/>
            <path id="Trazado_817648" data-name="Trazado 817648" d="M352.388,100.565a15.049,15.049,0,0,1,0-7.418,15.047,15.047,0,0,1,0,7.418" transform="translate(-25.152 -6.657)" fill="#263238"/>
            <path id="Trazado_817649" data-name="Trazado 817649" d="M344,102.995a13.467,13.467,0,0,1-2.256-2.98,13.306,13.306,0,0,1-1.452-3.444,13.321,13.321,0,0,1,2.256,2.98A13.461,13.461,0,0,1,344,102.995" transform="translate(-24.321 -6.902)" fill="#263238"/>
            <path id="Trazado_817650" data-name="Trazado 817650" d="M337.928,109.308a13.461,13.461,0,0,1-3.444-1.452,13.319,13.319,0,0,1-2.98-2.256,13.3,13.3,0,0,1,3.444,1.452,13.467,13.467,0,0,1,2.98,2.256" transform="translate(-23.693 -7.547)" fill="#263238"/>
            <path id="Trazado_817651" data-name="Trazado 817651" d="M335.821,117.777a13.47,13.47,0,0,1-3.709.464,13.325,13.325,0,0,1-3.709-.464,13.29,13.29,0,0,1,3.709-.464,13.469,13.469,0,0,1,3.709.464" transform="translate(-23.471 -8.384)" fill="#263238"/>
            <path id="Trazado_817652" data-name="Trazado 817652" d="M338.25,125.947a13.474,13.474,0,0,1-2.98,2.256,13.3,13.3,0,0,1-3.444,1.452,13.3,13.3,0,0,1,2.98-2.256,13.466,13.466,0,0,1,3.445-1.452" transform="translate(-23.716 -9.002)" fill="#263238"/>
            <path id="Trazado_817653" data-name="Trazado 817653" d="M344.564,131.815a13.462,13.462,0,0,1-1.453,3.444,13.3,13.3,0,0,1-2.256,2.98,13.336,13.336,0,0,1,1.452-3.444,13.472,13.472,0,0,1,2.257-2.98" transform="translate(-24.361 -9.421)" fill="#263238"/>
            <path id="Trazado_817654" data-name="Trazado 817654" d="M353.033,133.844a13.472,13.472,0,0,1,.464,3.709,13.336,13.336,0,0,1-.464,3.709,13.334,13.334,0,0,1-.464-3.709,13.471,13.471,0,0,1,.464-3.709" transform="translate(-25.198 -9.566)" fill="#263238"/>
            <path id="Trazado_817655" data-name="Trazado 817655" d="M361.2,131.492a15.046,15.046,0,0,1,3.709,6.424,13.291,13.291,0,0,1-2.256-2.98,13.428,13.428,0,0,1-1.452-3.444" transform="translate(-25.815 -9.398)" fill="#263238"/>
            <path id="Trazado_817656" data-name="Trazado 817656" d="M367.07,125.388a13.461,13.461,0,0,1,3.444,1.452,13.3,13.3,0,0,1,2.98,2.256,13.3,13.3,0,0,1-3.444-1.452,13.466,13.466,0,0,1-2.98-2.256" transform="translate(-26.235 -8.962)" fill="#263238"/>
            <path id="Trazado_817657" data-name="Trazado 817657" d="M369.1,117.132a15.048,15.048,0,0,1,7.418,0,15.048,15.048,0,0,1-7.418,0" transform="translate(-26.38 -8.338)" fill="#263238"/>
            <path id="Trazado_817658" data-name="Trazado 817658" d="M366.748,108.749a13.466,13.466,0,0,1,2.98-2.256,13.3,13.3,0,0,1,3.444-1.452,13.3,13.3,0,0,1-2.98,2.256,13.447,13.447,0,0,1-3.444,1.452" transform="translate(-26.212 -7.507)" fill="#263238"/>
            <path id="Trazado_817659" data-name="Trazado 817659" d="M360.644,102.672a13.448,13.448,0,0,1,1.452-3.444,13.3,13.3,0,0,1,2.256-2.98,13.3,13.3,0,0,1-1.452,3.444,13.466,13.466,0,0,1-2.256,2.98" transform="translate(-25.776 -6.879)" fill="#263238"/>
          </g>
        </g>
        <g id="Grupo_1071771" data-name="Grupo 1071771">
          <g id="Grupo_1071770" data-name="Grupo 1071770" clip-path="url(#clip-path-2)">
            <path id="Trazado_817660" data-name="Trazado 817660" d="M356.508,279.465h47.715a25.474,25.474,0,0,0,2.364-9.5V231.751H358.873v38.713c0,3.87-2.365,9-2.365,9" transform="translate(-25.48 -16.563)" fill="#0f4b6c"/>
            <path id="Trazado_817661" data-name="Trazado 817661" d="M365.346,243.849c5.611-.461,11.222-.567,16.833-.591,5.611.021,11.222.127,16.833.591-5.611.463-11.222.57-16.833.591-5.611-.023-11.222-.131-16.833-.591" transform="translate(-26.112 -17.386)" fill="#fff"/>
            <path id="Trazado_817662" data-name="Trazado 817662" d="M365.346,250.624c5.047-.461,10.094-.567,15.141-.591,5.047.02,10.094.127,15.141.591-5.047.463-10.094.57-15.141.591-5.047-.023-10.094-.13-15.141-.591" transform="translate(-26.112 -17.87)" fill="#fff"/>
            <path id="Trazado_817663" data-name="Trazado 817663" d="M365.346,257.4c4.414-.461,8.828-.567,13.244-.591a132.484,132.484,0,0,1,13.244.591c-4.415.463-8.829.569-13.244.591-4.415-.023-8.829-.13-13.244-.591" transform="translate(-26.112 -18.354)" fill="#fff"/>
            <path id="Trazado_817664" data-name="Trazado 817664" d="M365.346,264.174c5.611-.461,11.222-.567,16.833-.591,5.611.02,11.222.127,16.833.591-5.611.463-11.222.569-16.833.591-5.611-.023-11.222-.13-16.833-.591" transform="translate(-26.112 -18.839)" fill="#fff"/>
          </g>
        </g>
      </g>
    </g>
  </g>
</svg>
