<svg xmlns="http://www.w3.org/2000/svg" xmlns:xlink="http://www.w3.org/1999/xlink" width="505" height="388.519" viewBox="0 0 505 388.519">
  <defs>
    <clipPath id="clip-path">
      <rect id="Rectángulo_377065" data-name="Rectángulo 377065" width="505" height="388.519" fill="none"/>
    </clipPath>
    <clipPath id="clip-path-5">
      <rect id="Rectángulo_377038" data-name="Rectángulo 377038" width="92.725" height="45.44" fill="none"/>
    </clipPath>
    <clipPath id="clip-path-6">
      <rect id="Rectángulo_377039" data-name="Rectángulo 377039" width="14.602" height="15.181" fill="none"/>
    </clipPath>
    <clipPath id="clip-path-8">
      <rect id="Rectángulo_377043" data-name="Rectángulo 377043" width="50.044" height="24.524" fill="none"/>
    </clipPath>
    <clipPath id="clip-path-9">
      <rect id="Rectángulo_377044" data-name="Rectángulo 377044" width="7.881" height="8.193" fill="none"/>
    </clipPath>
  </defs>
  <g id="Grupo_1072514" data-name="Grupo 1072514" transform="translate(-915 -10574.239)">
    <g id="Grupo_1072246" data-name="Grupo 1072246" transform="translate(915 10574.239)">
      <g id="Grupo_1072245" data-name="Grupo 1072245" clip-path="url(#clip-path)">
        <g id="Grupo_1072196" data-name="Grupo 1072196">
          <g id="Grupo_1072195" data-name="Grupo 1072195" clip-path="url(#clip-path)">
            <path id="Trazado_818800" data-name="Trazado 818800" d="M599.221,218.313s-6.561-.491-5.957,14.809,2.106,23.45,2.106,23.45-.193,3.393-2.721,2.727-7.282-3.967-9.63-1.5c-2.435,2.56-1.569,6.486,1.661,11.11s9.95,15.026,10.554,15.968c.593.926.831,2.661-.96,2.494s-13.884-4.428-15.486,1.658,9.434,17.432,10.617,18.7,1.247,2.063.767,2.827-4.415-1.065-7.9-2.13-7.71-1.666-8.351,1.926,4.22,14.1,22.422,25.152l8.757,4.546,8.288-5.5c17.048-12.886,20.873-23.85,19.889-27.358s-5.127-2.471-8.494-1.048-7.106,3.653-7.657,2.941-.565-1.511.491-2.893,10.944-13.817,8.765-19.706-13.8-.392-15.568-.04-1.7-1.4-1.2-2.381c.51-1,6.2-12.049,8.965-16.986s3.253-8.933.584-11.227c-2.574-2.211-6.987,1.568-9.438,2.494s-2.968-2.43-2.968-2.43a184.331,184.331,0,0,0-.161-23.551c-.872-15.287-7.509-14.052-7.509-14.052" transform="translate(-128.418 -42.138)" fill="#dbf9bd"/>
            <path id="Trazado_818801" data-name="Trazado 818801" d="M607.2,235.3s.018.108.035.32.04.538.07.939c.055.842.134,2.057.236,3.614.2,3.137.459,7.681.757,13.3.6,11.229,1.3,26.748,2.022,43.889s1.385,32.668,1.924,43.9c.275,5.6.5,10.144.651,13.3.075,1.558.133,2.773.172,3.617.016.4.028.714.036.941s0,.321,0,.321-.018-.107-.036-.319c-.016-.227-.04-.538-.069-.939-.055-.842-.134-2.056-.236-3.613-.2-3.137-.459-7.68-.758-13.295-.6-11.229-1.3-26.749-2.022-43.9s-1.384-32.66-1.924-43.892c-.274-5.6-.5-10.144-.65-13.3-.075-1.558-.133-2.774-.173-3.617-.016-.4-.027-.715-.036-.942s0-.321,0-.321" transform="translate(-135.876 -45.421)" fill="#e0e0e0"/>
            <path id="Trazado_818802" data-name="Trazado 818802" d="M594,273.32a2.922,2.922,0,0,1,.545.471c.337.318.81.794,1.389,1.388,1.156,1.19,2.71,2.877,4.391,4.772l4.283,4.872,1.3,1.469a3.014,3.014,0,0,1,.456.563,2.936,2.936,0,0,1-.549-.467c-.336-.32-.81-.8-1.383-1.4-1.145-1.2-2.677-2.91-4.358-4.8l-4.315-4.838-1.311-1.463a3.016,3.016,0,0,1-.452-.567" transform="translate(-132.923 -52.76)" fill="#e0e0e0"/>
            <path id="Trazado_818803" data-name="Trazado 818803" d="M611.049,286.054c-.066-.068,3.137-3.554,7.152-7.786s7.325-7.61,7.391-7.542-3.136,3.553-7.153,7.787-7.324,7.609-7.39,7.541" transform="translate(-136.738 -52.259)" fill="#e0e0e0"/>
            <path id="Trazado_818804" data-name="Trazado 818804" d="M611,320.03a3.011,3.011,0,0,1,.61-.4l1.713-1c1.445-.844,3.437-2.017,5.59-3.393s4.069-2.682,5.446-3.64L626,310.46a2.969,2.969,0,0,1,.623-.383,3.053,3.053,0,0,1-.547.493c-.365.3-.9.721-1.574,1.225-1.346,1.013-3.242,2.36-5.406,3.736s-4.177,2.523-5.654,3.313c-.74.392-1.342.7-1.765.9a2.94,2.94,0,0,1-.67.283" transform="translate(-136.728 -59.855)" fill="#e0e0e0"/>
            <path id="Trazado_818805" data-name="Trazado 818805" d="M592.313,310.97a2.522,2.522,0,0,1,.606.3c.379.21.921.524,1.587.917,1.333.788,3.163,1.9,5.173,3.138s3.821,2.385,5.124,3.227c.651.421,1.174.767,1.533,1.013a2.62,2.62,0,0,1,.539.412,2.481,2.481,0,0,1-.605-.3c-.379-.21-.921-.523-1.587-.917-1.334-.788-3.163-1.9-5.174-3.139s-3.82-2.385-5.123-3.227c-.651-.42-1.174-.767-1.533-1.012a2.642,2.642,0,0,1-.539-.412" transform="translate(-132.546 -60.028)" fill="#e0e0e0"/>
            <path id="Trazado_818806" data-name="Trazado 818806" d="M588.606,339.826a4.056,4.056,0,0,1,.77.387l2.038,1.168c1.713,1,4.069,2.4,6.66,3.969s4.929,3,6.612,4.059l1.984,1.264a4.2,4.2,0,0,1,.7.505,4.124,4.124,0,0,1-.77-.387l-2.038-1.169c-1.713-1-4.069-2.4-6.661-3.97s-4.927-3-6.611-4.058l-1.984-1.264a4.185,4.185,0,0,1-.7-.5" transform="translate(-131.716 -65.598)" fill="#e0e0e0"/>
            <path id="Trazado_818807" data-name="Trazado 818807" d="M612.3,350.24a4.746,4.746,0,0,1,.761-.53l2.129-1.348c1.8-1.138,4.272-2.718,6.959-4.54s5.085-3.531,6.811-4.781l2.047-1.477a4.716,4.716,0,0,1,.774-.51,4.919,4.919,0,0,1-.7.619c-.461.38-1.138.919-1.986,1.569-1.692,1.3-4.07,3.05-6.766,4.873s-5.193,3.375-7.022,4.461c-.916.54-1.662.968-2.184,1.252a4.66,4.66,0,0,1-.826.412" transform="translate(-137.019 -65.063)" fill="#e0e0e0"/>
            <path id="Trazado_818808" data-name="Trazado 818808" d="M622.273,372.864H598.048l7.907,62.223h8.412Z" transform="translate(-133.829 -71.976)" fill="#e0e0e0"/>
            <path id="Trazado_818809" data-name="Trazado 818809" d="M599.667,381.728c-.009.006.026.088.13.222a1.538,1.538,0,0,0,.584.434,2.835,2.835,0,0,0,2.558-.327c.978-.561,1.831-1.662,3.141-2.149a6.625,6.625,0,0,1,4.455.092,18.728,18.728,0,0,1,4.148,2.089,28.512,28.512,0,0,0,3.373,1.882,9.051,9.051,0,0,0,2.488.747,4.307,4.307,0,0,0,.7.049c.161,0,.245-.006.246-.021a12.275,12.275,0,0,1-3.323-1.041,33.013,33.013,0,0,1-3.3-1.941,18.127,18.127,0,0,0-4.219-2.158,6.86,6.86,0,0,0-4.7-.053,6.161,6.161,0,0,0-1.771,1.138,13.748,13.748,0,0,1-1.386,1.117,2.754,2.754,0,0,1-2.359.426,2.413,2.413,0,0,1-.768-.507" transform="translate(-134.191 -73.192)" fill="#f5f5f5"/>
            <path id="Trazado_818810" data-name="Trazado 818810" d="M600.805,395.452c.033.021.192-.257.571-.667a5.373,5.373,0,0,1,1.935-1.276,8.325,8.325,0,0,1,3.369-.528,34.247,34.247,0,0,1,4.216.6,13.95,13.95,0,0,0,4.316.186,11.515,11.515,0,0,0,3.4-1.008,10.7,10.7,0,0,0,2.042-1.262,2.944,2.944,0,0,0,.647-.605,21.371,21.371,0,0,1-2.8,1.6,12.037,12.037,0,0,1-3.328.9,14.327,14.327,0,0,1-4.21-.216,30.548,30.548,0,0,0-4.267-.57,8.244,8.244,0,0,0-3.484.637,5.106,5.106,0,0,0-1.944,1.438,3.648,3.648,0,0,0-.366.558c-.071.136-.1.21-.09.217" transform="translate(-134.446 -75.454)" fill="#f5f5f5"/>
            <path id="Trazado_818811" data-name="Trazado 818811" d="M620.542,403.731a2.038,2.038,0,0,0-.668-.361,6.919,6.919,0,0,0-2.007-.447,12.342,12.342,0,0,0-3.036.18c-1.129.19-2.34.515-3.613.8a14.718,14.718,0,0,1-3.608.424,7.621,7.621,0,0,1-2.864-.644A6.663,6.663,0,0,1,602.575,402a1.938,1.938,0,0,0,.41.658,5.138,5.138,0,0,0,1.645,1.287,7.5,7.5,0,0,0,2.966.759,14.056,14.056,0,0,0,3.7-.4c1.285-.284,2.488-.617,3.593-.824a13.4,13.4,0,0,1,2.957-.264,10.739,10.739,0,0,1,2.691.518" transform="translate(-134.842 -77.599)" fill="#f5f5f5"/>
            <path id="Trazado_818812" data-name="Trazado 818812" d="M603.564,414.491a3.8,3.8,0,0,1,2.352-.247,11.156,11.156,0,0,1,2.461.954,9.066,9.066,0,0,0,3.194.915,9.3,9.3,0,0,0,5.8-1.4,8.273,8.273,0,0,0,1.442-1.153c.3-.326.446-.514.427-.533a21.087,21.087,0,0,1-2.009,1.436,9.62,9.62,0,0,1-5.62,1.238c-2.294-.136-4.054-1.558-5.644-1.746a3.484,3.484,0,0,0-1.828.165,1.2,1.2,0,0,0-.571.369" transform="translate(-135.063 -79.729)" fill="#f5f5f5"/>
            <path id="Trazado_818813" data-name="Trazado 818813" d="M605.3,428.808a4.5,4.5,0,0,0,2.02-.417c1.218-.423,2.725-1.394,4.485-2.121a7.072,7.072,0,0,1,2.575-.561,4.6,4.6,0,0,1,2.069.491,4.658,4.658,0,0,1,1.5,1.342,1.166,1.166,0,0,0-.23-.53,3.379,3.379,0,0,0-1.135-1.068,4.614,4.614,0,0,0-2.2-.613,6.988,6.988,0,0,0-2.721.555c-1.824.756-3.283,1.755-4.446,2.234-1.149.515-1.927.621-1.918.688" transform="translate(-135.453 -82.103)" fill="#f5f5f5"/>
            <path id="Trazado_818814" data-name="Trazado 818814" d="M606.833,436.522a5.475,5.475,0,0,0,1.533.518,27.182,27.182,0,0,0,7.721.788,5.5,5.5,0,0,0,1.6-.2c-.008-.124-2.456-.015-5.451-.329-2.994-.3-5.377-.9-5.406-.78" transform="translate(-135.795 -84.261)" fill="#f5f5f5"/>
            <rect id="Rectángulo_377030" data-name="Rectángulo 377030" width="74.799" height="51.126" transform="translate(399.896 75.243)" fill="#e0e0e0"/>
            <rect id="Rectángulo_377031" data-name="Rectángulo 377031" width="69.557" height="46.749" transform="translate(402.497 77.334)" fill="#fafafa"/>
            <rect id="Rectángulo_377032" data-name="Rectángulo 377032" width="22.691" height="12.864" transform="translate(425.93 94.375)" fill="#e0e0e0"/>
          </g>
        </g>
        <g id="Grupo_1072198" data-name="Grupo 1072198">
          <g id="Grupo_1072197" data-name="Grupo 1072197" clip-path="url(#clip-path)">
            <path id="Trazado_818815" data-name="Trazado 818815" d="M495.713,450.943c0,.116-110.978.21-247.845.21C110.954,451.153,0,451.059,0,450.943s110.954-.21,247.868-.21c136.867,0,247.845.094,247.845.21" transform="translate(0 -87.007)" fill="#263238"/>
          </g>
        </g>
        <g id="Grupo_1072206" data-name="Grupo 1072206">
          <g id="Grupo_1072205" data-name="Grupo 1072205" clip-path="url(#clip-path)">
            <path id="Trazado_818816" data-name="Trazado 818816" d="M396.093,191.618H231.37V0H410.145V177.009c0,8.068-6.291,14.608-14.052,14.608" transform="translate(-51.775)" fill="#e1ecd7"/>
            <path id="Trazado_818817" data-name="Trazado 818817" d="M401.056,70.5c0,.389-32.312.7-72.162.7s-72.169-.315-72.169-.7,32.306-.7,72.169-.7,72.162.316,72.162.7" transform="translate(-57.449 -13.474)" fill="#455a64"/>
            <path id="Trazado_818818" data-name="Trazado 818818" d="M330.243,86.589c0,.389-15.964.7-35.652.7s-35.656-.315-35.656-.7,15.961-.7,35.656-.7,35.652.316,35.652.7" transform="translate(-57.944 -16.579)" fill="#455a64"/>
            <path id="Trazado_818819" data-name="Trazado 818819" d="M382.1,85.1c0,.389-4.228.7-9.443.7s-9.444-.315-9.444-.7,4.227-.7,9.444-.7,9.443.316,9.443.7" transform="translate(-81.279 -16.291)" fill="#455a64"/>
            <path id="Trazado_818820" data-name="Trazado 818820" d="M436.852,84.106c0,.389-8.371.7-18.693.7s-18.7-.315-18.7-.7,8.368-.7,18.7-.7,18.693.316,18.693.7" transform="translate(-89.391 -16.1)" fill="#455a64"/>
            <path id="Trazado_818821" data-name="Trazado 818821" d="M323.793,101.982c0,.389-15.015.7-33.532.7s-33.536-.315-33.536-.7,15.011-.7,33.536-.7,33.532.316,33.532.7" transform="translate(-57.449 -19.55)" fill="#455a64"/>
            <path id="Trazado_818822" data-name="Trazado 818822" d="M426.518,101.539c0,.389-16.4.7-36.616.7s-36.619-.315-36.619-.7,16.392-.7,36.619-.7,36.616.316,36.616.7" transform="translate(-79.057 -19.465)" fill="#455a64"/>
            <path id="Trazado_818823" data-name="Trazado 818823" d="M438.231,117.029c0,.389-7.3.7-16.3.7s-16.3-.315-16.3-.7,7.3-.7,16.3-.7,16.3.316,16.3.7" transform="translate(-90.769 -22.455)" fill="#455a64"/>
            <path id="Trazado_818824" data-name="Trazado 818824" d="M337.949,53.261c0,.389-17.689.7-39.506.7s-39.509-.315-39.509-.7,17.685-.7,39.509-.7,39.506.316,39.506.7" transform="translate(-57.943 -10.145)" fill="#632059"/>
            <path id="Trazado_818825" data-name="Trazado 818825" d="M398.9,388.309H52.772a12.877,12.877,0,0,1-12.621-13.12V146.122A12.877,12.877,0,0,1,52.772,133H398.9a12.877,12.877,0,0,1,12.62,13.12V375.19a12.877,12.877,0,0,1-12.62,13.12" transform="translate(-8.985 -25.674)" fill="#263238"/>
            <path id="Trazado_818826" data-name="Trazado 818826" d="M407.742,448.322H36.232c-8.515,0-15.419-7.176-15.419-16.03v-6.31H423.161v6.31c0,8.853-6.9,16.03-15.419,16.03" transform="translate(-4.657 -82.23)" fill="#263238"/>
            <rect id="Rectángulo_377035" data-name="Rectángulo 377035" width="350.392" height="215.603" transform="translate(41.654 117.472)" fill="#455a64"/>
            <path id="Trazado_818827" data-name="Trazado 818827" d="M232.871,425.923c-.007,0,.124-.008.387-.012l1.178-.012,4.576-.027,16.978-.072,56.766-.126.419,0-.212.377-2.253,4.013-2.383,4.243-.07.124h-.137l-70.255-.137H237.8l-.032-.052-3.678-6.22-.925-1.576c-.2-.35-.3-.52-.3-.52s.126.19.349.546l.983,1.579c.862,1.394,2.121,3.429,3.753,6.071l-.092-.053,70.255-.136-.207.123c.769-1.371,1.573-2.8,2.382-4.243l2.253-4.013.207.375-56.534-.126-17.058-.072-4.646-.027-1.217-.012c-.276,0-.428-.012-.428-.012" transform="translate(-52.111 -82.17)" fill="#455a64"/>
            <line id="Línea_2573" data-name="Línea 2573" x2="371.367" transform="translate(31.166 343.753)" fill="#263238"/>
            <path id="Trazado_818828" data-name="Trazado 818828" d="M411.518,425.927c0,.13-83.14.235-185.675.235-102.57,0-185.692-.1-185.692-.235s83.122-.235,185.692-.235c102.535,0,185.675.106,185.675.235" transform="translate(-8.985 -82.174)" fill="#455a64"/>
            <path id="Trazado_818829" data-name="Trazado 818829" d="M390.527,92.214h0A10.585,10.585,0,0,1,400.9,103v22.13H369.881V104.712a12.267,12.267,0,0,1,12.022-12.5Z" transform="translate(-82.771 -17.801)" fill="#263238"/>
            <path id="Trazado_818830" data-name="Trazado 818830" d="M358.79,92.142c0,.13-29.268.208-65.363.175s-65.37-.165-65.37-.295,29.261-.207,65.37-.175,65.363.165,65.363.295" transform="translate(-51.034 -17.728)" fill="#263238"/>
            <path id="Trazado_818831" data-name="Trazado 818831" d="M341.066,92.159l-12.936-.093-18.792.119H171.3c-11.722,0-21.224,9.879-21.224,22.065V351.364H328.846V104.283c.524-12.1,12.22-12.124,12.22-12.124" transform="translate(-33.583 -17.772)" fill="#fafafa"/>
            <path id="Trazado_818832" data-name="Trazado 818832" d="M340.942,92.123l-107.794.245-53.9.043-6.737,0c-1.129-.023-2.235.046-3.342.108A20.895,20.895,0,0,0,154.9,100.5a22.179,22.179,0,0,0-3.292,5.972c-.175.546-.415,1.071-.536,1.635l-.413,1.674a24.586,24.586,0,0,0-.387,3.429c-.1,4.64-.021,9.331-.04,13.994l.145,224.129-.431-.448L328.722,351l-.314.327.086-133.3.1-66.648.063-33.323.016-8.331.008-4.165a14.121,14.121,0,0,1,.084-2.08,11.6,11.6,0,0,1,.314-2.058,11.059,11.059,0,0,1,4.33-6.786,12.355,12.355,0,0,1,3.595-1.805,14.625,14.625,0,0,1,3.936-.711m0,0a14.633,14.633,0,0,0-3.932.726,12.336,12.336,0,0,0-3.581,1.816,11.015,11.015,0,0,0-4.286,6.774,11.507,11.507,0,0,0-.305,2.049,14.135,14.135,0,0,0-.076,2.076l.008,4.166.016,8.331.063,33.325.1,66.649.086,133.293v.328h-.315l-178.774.12h-.432v-.449l.144-224.129c.026-4.675-.043-9.327.059-14.02a25.4,25.4,0,0,1,.4-3.518l.426-1.717c.126-.578.372-1.117.552-1.677a22.789,22.789,0,0,1,3.385-6.122,21.411,21.411,0,0,1,14.637-8.154c1.136-.063,2.273-.129,3.391-.1l6.737,0,53.9.042Z" transform="translate(-33.458 -17.736)" fill="#263238"/>
            <path id="Trazado_818833" data-name="Trazado 818833" d="M184.751,145.082h31.2l.05,10.863h-1.492q-.735-5.831-4.2-7.888a12.538,12.538,0,0,0-5.819-1.24v28.378q0,2.975,1,3.949t4.161.974v1.368H191.178v-1.368q3.035,0,4.036-.987t1-3.936V146.817a12.856,12.856,0,0,0-5.819,1.24q-3.72,2.111-4.2,7.888H184.7Z" transform="translate(-41.332 -28.006)" fill="#632059"/>
            <path id="Trazado_818834" data-name="Trazado 818834" d="M326.622,147.949c0,.389-17.209.7-38.432.7s-38.436-.315-38.436-.7,17.2-.7,38.436-.7,38.432.316,38.432.7" transform="translate(-55.889 -28.423)" fill="#632059"/>
            <path id="Trazado_818835" data-name="Trazado 818835" d="M281.461,163.77c0,.389-6.654.7-14.86.7s-14.861-.315-14.861-.7,6.652-.7,14.861-.7,14.86.316,14.86.7" transform="translate(-56.334 -31.477)" fill="#455a64"/>
            <path id="Trazado_818836" data-name="Trazado 818836" d="M225.5,212.034c0,.389-12.636.7-28.22.7s-28.223-.315-28.223-.7,12.633-.7,28.223-.7,28.22.316,28.22.7" transform="translate(-37.83 -40.794)" fill="#455a64"/>
            <path id="Trazado_818837" data-name="Trazado 818837" d="M307.84,212.034c0,.389-12.636.7-28.22.7s-28.223-.315-28.223-.7,12.633-.7,28.223-.7,28.22.316,28.22.7" transform="translate(-56.257 -40.794)" fill="#632059"/>
            <path id="Trazado_818838" data-name="Trazado 818838" d="M225.5,224.923c0,.389-12.636.7-28.22.7s-28.223-.315-28.223-.7,12.633-.7,28.223-.7,28.22.316,28.22.7" transform="translate(-37.83 -43.282)" fill="#455a64"/>
            <path id="Trazado_818839" data-name="Trazado 818839" d="M225.5,237.812c0,.39-12.636.7-28.22.7s-28.223-.315-28.223-.7,12.633-.7,28.223-.7,28.22.316,28.22.7" transform="translate(-37.83 -45.77)" fill="#632059"/>
            <path id="Trazado_818840" data-name="Trazado 818840" d="M281.461,190.025c0,.389-6.654.7-14.86.7s-14.861-.315-14.861-.7,6.652-.7,14.861-.7,14.86.316,14.86.7" transform="translate(-56.334 -36.546)" fill="#455a64"/>
            <path id="Trazado_818841" data-name="Trazado 818841" d="M350.722,212.034c0,.389-4.436.7-9.906.7s-9.908-.315-9.908-.7,4.435-.7,9.908-.7,9.906.316,9.906.7" transform="translate(-74.049 -40.794)" fill="#455a64"/>
            <path id="Trazado_818842" data-name="Trazado 818842" d="M348.561,163.77c0,.389-11.417.7-25.5.7s-25.5-.315-25.5-.7,11.414-.7,25.5-.7,25.5.316,25.5.7" transform="translate(-66.588 -31.477)" fill="#455a64"/>
            <path id="Trazado_818843" data-name="Trazado 818843" d="M336.005,176.339c0,.389-18.865.7-42.13.7s-42.135-.315-42.135-.7,18.861-.7,42.135-.7,42.13.316,42.13.7" transform="translate(-56.334 -33.904)" fill="#455a64"/>
            <path id="Trazado_818844" data-name="Trazado 818844" d="M332.929,224.923c0,.389-18.253.7-40.764.7s-40.769-.315-40.769-.7,18.25-.7,40.769-.7,40.764.316,40.764.7" transform="translate(-56.257 -43.282)" fill="#455a64"/>
            <path id="Trazado_818845" data-name="Trazado 818845" d="M334.378,262.238c0,.389-17.128.7-38.251.7s-38.255-.315-38.255-.7,17.124-.7,38.255-.7,38.251.316,38.251.7" transform="translate(-57.706 -50.485)" fill="#632059"/>
            <path id="Trazado_818846" data-name="Trazado 818846" d="M334.378,274.782c0,.389-17.128.7-38.251.7s-38.255-.315-38.255-.7,17.124-.7,38.255-.7,38.251.316,38.251.7" transform="translate(-57.706 -52.907)" fill="#455a64"/>
            <path id="Trazado_818847" data-name="Trazado 818847" d="M334.378,287.327c0,.389-17.128.7-38.251.7s-38.255-.315-38.255-.7,17.124-.7,38.255-.7,38.251.316,38.251.7" transform="translate(-57.706 -55.328)" fill="#455a64"/>
            <path id="Trazado_818848" data-name="Trazado 818848" d="M334.378,299.871c0,.389-17.128.7-38.251.7s-38.255-.315-38.255-.7,17.124-.7,38.255-.7,38.251.316,38.251.7" transform="translate(-57.706 -57.75)" fill="#455a64"/>
            <path id="Trazado_818849" data-name="Trazado 818849" d="M301.915,312.416c0,.194-2.465.37-6.45.5s-9.49.206-15.57.206-11.588-.079-15.573-.206-6.45-.3-6.45-.5,2.464-.37,6.45-.5,9.491-.207,15.573-.207,11.585.079,15.57.207,6.45.3,6.45.5" transform="translate(-57.706 -60.171)" fill="#455a64"/>
            <path id="Trazado_818850" data-name="Trazado 818850" d="M319.578,238.487c0,.389-14.753.7-32.948.7s-32.951-.315-32.951-.7,14.75-.7,32.951-.7,32.948.316,32.948.7" transform="translate(-56.768 -45.901)" fill="#455a64"/>
            <path id="Trazado_818851" data-name="Trazado 818851" d="M220.016,263.664l4.06,78.138-73.491,9.57L150.527,263Z" transform="translate(-33.684 -50.769)" fill="#e0e0e0"/>
            <rect id="Rectángulo_377036" data-name="Rectángulo 377036" width="82.867" height="99.714" transform="translate(90.659 290.367) rotate(-89.632)" fill="#f5f5f5"/>
            <path id="Trazado_818916" data-name="Trazado 818916" d="M0,0,72.456-.018,72.432,92.71l-72.456.018Z" transform="translate(94.13 285.172) rotate(-89.632)" fill="#c8b1c5"/>
            <g id="Grupo_1072201" data-name="Grupo 1072201" transform="translate(94.129 240.351)" opacity="0.2">
              <g id="Grupo_1072200" data-name="Grupo 1072200">
                <g id="Grupo_1072199" data-name="Grupo 1072199" clip-path="url(#clip-path-5)">
                  <path id="Trazado_818852" data-name="Trazado 818852" d="M121.266,342.667l32.665-44.82,19.888,28.311,13.7-14.972,26.472,32.1Z" transform="translate(-121.266 -297.846)"/>
                </g>
              </g>
            </g>
            <g id="Grupo_1072204" data-name="Grupo 1072204" transform="translate(140.805 227.387)" opacity="0.2">
              <g id="Grupo_1072203" data-name="Grupo 1072203">
                <g id="Grupo_1072202" data-name="Grupo 1072202" clip-path="url(#clip-path-6)">
                  <path id="Trazado_818853" data-name="Trazado 818853" d="M196,289.419a7.307,7.307,0,1,1-7.254-7.639A7.444,7.444,0,0,1,196,289.419" transform="translate(-181.397 -281.78)"/>
                </g>
              </g>
            </g>
            <path id="Trazado_818854" data-name="Trazado 818854" d="M256.764,384.506a1.543,1.543,0,1,1-1.542-1.6,1.573,1.573,0,0,1,1.542,1.6" transform="translate(-56.768 -73.914)" fill="#263238"/>
            <path id="Trazado_818855" data-name="Trazado 818855" d="M268.554,384.506a1.543,1.543,0,1,1-1.542-1.6,1.573,1.573,0,0,1,1.542,1.6" transform="translate(-59.406 -73.914)" fill="#263238"/>
            <path id="Trazado_818856" data-name="Trazado 818856" d="M280.344,384.506a1.543,1.543,0,1,1-1.542-1.6,1.573,1.573,0,0,1,1.542,1.6" transform="translate(-62.044 -73.914)" fill="#263238"/>
            <path id="Trazado_818857" data-name="Trazado 818857" d="M308.393,338.555c0,.39-12.636.7-28.22.7s-28.223-.315-28.223-.7,12.633-.7,28.223-.7,28.22.316,28.22.7" transform="translate(-56.381 -65.217)" fill="#632059"/>
            <path id="Trazado_818858" data-name="Trazado 818858" d="M333.482,351.445c0,.389-18.253.7-40.764.7s-40.769-.315-40.769-.7,18.25-.7,40.769-.7,40.764.315,40.764.7" transform="translate(-56.38 -67.705)" fill="#455a64"/>
          </g>
        </g>
        <rect id="Rectángulo_377041" data-name="Rectángulo 377041" width="44.724" height="53.816" transform="translate(410.4 352.568) rotate(-89.632)" fill="#f5f5f5"/>
        <rect id="Rectángulo_377042" data-name="Rectángulo 377042" width="39.092" height="50.036" transform="translate(412.273 349.764) rotate(-89.632)" fill="#c8b1c5"/>
        <g id="Grupo_1072214" data-name="Grupo 1072214">
          <g id="Grupo_1072213" data-name="Grupo 1072213" clip-path="url(#clip-path)">
            <g id="Grupo_1072209" data-name="Grupo 1072209" transform="translate(412.273 325.574)" opacity="0.2">
              <g id="Grupo_1072208" data-name="Grupo 1072208">
                <g id="Grupo_1072207" data-name="Grupo 1072207" clip-path="url(#clip-path-8)">
                  <path id="Trazado_818859" data-name="Trazado 818859" d="M531.127,427.645l17.63-24.19,10.734,15.279,7.393-8.08,14.287,17.325Z" transform="translate(-531.127 -403.456)"/>
                </g>
              </g>
            </g>
            <g id="Grupo_1072212" data-name="Grupo 1072212" transform="translate(437.464 318.577)" opacity="0.2">
              <g id="Grupo_1072211" data-name="Grupo 1072211">
                <g id="Grupo_1072210" data-name="Grupo 1072210" clip-path="url(#clip-path-9)">
                  <path id="Trazado_818860" data-name="Trazado 818860" d="M571.46,398.907a3.944,3.944,0,1,1-3.915-4.123,4.018,4.018,0,0,1,3.915,4.123" transform="translate(-563.58 -394.784)"/>
                </g>
              </g>
            </g>
          </g>
        </g>
        <rect id="Rectángulo_377046" data-name="Rectángulo 377046" width="44.724" height="53.816" transform="translate(402.507 347.897) rotate(-89.632)" fill="#f5f5f5"/>
        <rect id="Rectángulo_377047" data-name="Rectángulo 377047" width="39.092" height="50.036" transform="translate(404.38 345.093) rotate(-89.632)" fill="#c8b1c5"/>
        <g id="Grupo_1072222" data-name="Grupo 1072222">
          <g id="Grupo_1072221" data-name="Grupo 1072221" clip-path="url(#clip-path)">
            <g id="Grupo_1072217" data-name="Grupo 1072217" transform="translate(404.38 320.903)" opacity="0.2">
              <g id="Grupo_1072216" data-name="Grupo 1072216">
                <g id="Grupo_1072215" data-name="Grupo 1072215" clip-path="url(#clip-path-8)">
                  <path id="Trazado_818861" data-name="Trazado 818861" d="M520.958,421.856l17.63-24.19,10.734,15.279,7.393-8.08L571,422.19Z" transform="translate(-520.958 -397.666)"/>
                </g>
              </g>
            </g>
            <g id="Grupo_1072220" data-name="Grupo 1072220" transform="translate(429.57 313.905)" opacity="0.2">
              <g id="Grupo_1072219" data-name="Grupo 1072219">
                <g id="Grupo_1072218" data-name="Grupo 1072218" clip-path="url(#clip-path-9)">
                  <path id="Trazado_818862" data-name="Trazado 818862" d="M561.291,393.118a3.944,3.944,0,1,1-3.915-4.123,4.018,4.018,0,0,1,3.915,4.123" transform="translate(-553.411 -388.995)"/>
                </g>
              </g>
            </g>
          </g>
        </g>
        <rect id="Rectángulo_377051" data-name="Rectángulo 377051" width="44.724" height="53.816" transform="translate(395.477 344.036) rotate(-89.632)" fill="#f5f5f5"/>
        <rect id="Rectángulo_377052" data-name="Rectángulo 377052" width="39.092" height="50.036" transform="translate(397.35 341.232) rotate(-89.632)" fill="#c8b1c5"/>
        <g id="Grupo_1072230" data-name="Grupo 1072230">
          <g id="Grupo_1072229" data-name="Grupo 1072229" clip-path="url(#clip-path)">
            <g id="Grupo_1072225" data-name="Grupo 1072225" transform="translate(397.35 317.042)" opacity="0.2">
              <g id="Grupo_1072224" data-name="Grupo 1072224">
                <g id="Grupo_1072223" data-name="Grupo 1072223" clip-path="url(#clip-path-8)">
                  <path id="Trazado_818863" data-name="Trazado 818863" d="M511.9,417.072l17.63-24.19,10.733,15.279,7.394-8.08,14.287,17.325Z" transform="translate(-511.902 -392.882)"/>
                </g>
              </g>
            </g>
            <g id="Grupo_1072228" data-name="Grupo 1072228" transform="translate(422.54 310.045)" opacity="0.2">
              <g id="Grupo_1072227" data-name="Grupo 1072227">
                <g id="Grupo_1072226" data-name="Grupo 1072226" clip-path="url(#clip-path-9)">
                  <path id="Trazado_818864" data-name="Trazado 818864" d="M552.235,388.334a3.944,3.944,0,1,1-3.915-4.123,4.018,4.018,0,0,1,3.915,4.123" transform="translate(-544.354 -384.211)"/>
                </g>
              </g>
            </g>
          </g>
        </g>
        <rect id="Rectángulo_377056" data-name="Rectángulo 377056" width="44.724" height="53.816" transform="translate(387.584 348.842) rotate(-89.632)" fill="#f5f5f5"/>
        <rect id="Rectángulo_377057" data-name="Rectángulo 377057" width="39.092" height="50.036" transform="translate(389.456 346.037) rotate(-89.632)" fill="#455a64"/>
        <g id="Grupo_1072238" data-name="Grupo 1072238">
          <g id="Grupo_1072237" data-name="Grupo 1072237" clip-path="url(#clip-path)">
            <g id="Grupo_1072233" data-name="Grupo 1072233" transform="translate(389.457 321.847)" opacity="0.2">
              <g id="Grupo_1072232" data-name="Grupo 1072232">
                <g id="Grupo_1072231" data-name="Grupo 1072231" clip-path="url(#clip-path-8)">
                  <path id="Trazado_818865" data-name="Trazado 818865" d="M501.733,423.027l17.63-24.19L530.1,414.117l7.393-8.08,14.288,17.325Z" transform="translate(-501.733 -398.837)"/>
                </g>
              </g>
            </g>
            <g id="Grupo_1072236" data-name="Grupo 1072236" transform="translate(414.647 314.85)" opacity="0.2">
              <g id="Grupo_1072235" data-name="Grupo 1072235">
                <g id="Grupo_1072234" data-name="Grupo 1072234" clip-path="url(#clip-path-9)">
                  <path id="Trazado_818866" data-name="Trazado 818866" d="M542.066,394.289a3.944,3.944,0,1,1-3.915-4.123,4.018,4.018,0,0,1,3.915,4.123" transform="translate(-534.185 -390.166)"/>
                </g>
              </g>
            </g>
          </g>
        </g>
        <rect id="Rectángulo_377061" data-name="Rectángulo 377061" width="31.076" height="43.195" transform="translate(441.686 320.74)" fill="#3b5620"/>
        <g id="Grupo_1072240" data-name="Grupo 1072240">
          <g id="Grupo_1072239" data-name="Grupo 1072239" clip-path="url(#clip-path)">
            <path id="Trazado_818867" data-name="Trazado 818867" d="M492.345,440.66H554.5v-43.2H492.345Zm37.683-32.973H516.815a2.975,2.975,0,0,1,0-5.946h13.214a2.975,2.975,0,0,1,0,5.946" transform="translate(-110.175 -76.725)" fill="#dbf9bd"/>
          </g>
        </g>
        <g id="Grupo_1072242" data-name="Grupo 1072242">
          <g id="Grupo_1072241" data-name="Grupo 1072241" clip-path="url(#clip-path)">
            <path id="Trazado_818868" data-name="Trazado 818868" d="M396.189,444.193l-57.8-3.679c-.364-.859-.607-1.361-.607-1.361l-15.664.324-5.1-.324s-.078.161-.2.434l-52.582,1.089c-10.483,0-21.505,6.649-21.5,15.145-.133,8.087,3.634,16.863,13.027,16.664l71.642-.25,71.642.25c9.393.2,11.877-5.689,11.891-12.675,1.1-13.011-6.741-15.51-14.75-15.618" transform="translate(-54.318 -84.772)" fill="#455a64"/>
            <path id="Trazado_818869" data-name="Trazado 818869" d="M267.992,475.02s.116-.014.345-.02l1.013-.02,3.9-.038,14.415-.065,48.1-.066-.2.223c-.1-1.633-.2-3.38-.309-5.141-.216-3.6-.428-7.147-.63-10.518l.178.194L290.5,454.441l-13.131-1.561-3.538-.441-.915-.123a1.873,1.873,0,0,1-.311-.056,1.971,1.971,0,0,1,.314.016l.92.086,3.545.368,13.145,1.436,44.329,4.988.168.019.01.175c.2,3.371.417,6.915.633,10.518.106,1.761.21,3.508.308,5.141l.014.223h-.215l-48.1-.066-14.415-.065-3.9-.038-1.013-.02c-.228-.006-.345-.02-.345-.02" transform="translate(-59.97 -87.301)" fill="#263238"/>
            <path id="Trazado_818870" data-name="Trazado 818870" d="M282.589,452.809c-.044.056-.763-.546-2.025-1.346a21.619,21.619,0,0,0-5.262-2.4,21.245,21.245,0,0,0-5.687-.869c-1.479-.019-2.395.094-2.4.022a1.96,1.96,0,0,1,.635-.153,12.8,12.8,0,0,1,1.766-.165,18.359,18.359,0,0,1,5.8.763,18.732,18.732,0,0,1,5.3,2.557,13.359,13.359,0,0,1,1.412,1.116c.314.289.477.458.46.48" transform="translate(-59.796 -86.457)" fill="#263238"/>
            <path id="Trazado_818871" data-name="Trazado 818871" d="M419.942,450.026c.026.113-11.374,2.978-25.458,6.4s-25.527,6.1-25.552,5.992,11.372-2.979,25.46-6.4,25.525-6.1,25.55-5.991" transform="translate(-82.558 -86.87)" fill="#263238"/>
            <path id="Trazado_818872" data-name="Trazado 818872" d="M419.9,448.588a22.361,22.361,0,0,0-4.466,2.223,23.187,23.187,0,0,0-3.63,3.5,4.174,4.174,0,0,1,.777-1.313,12.022,12.022,0,0,1,2.625-2.537,11.606,11.606,0,0,1,3.233-1.607,3.835,3.835,0,0,1,1.461-.27" transform="translate(-92.15 -86.59)" fill="#263238"/>
            <path id="Trazado_818873" data-name="Trazado 818873" d="M387.981,364.06l18.306,33.129a14.565,14.565,0,0,1,.37,13.307,13.48,13.48,0,0,1-12.493,7.776l-28.11-.825-.741-10.628,24.758-4.928L373.38,371.858Z" transform="translate(-81.749 -70.276)" fill="#ffbe9d"/>
            <path id="Trazado_818874" data-name="Trazado 818874" d="M302.377,420.753l25.848,7.118.562-8.058-23.821-14.383,17.4-33.571-14.6-7.8-18.306,33.129c-4.431,8.557-.292,19.194,8.617,22.14Z" transform="translate(-64.373 -70.276)" fill="#ffbe9d"/>
            <path id="Trazado_818875" data-name="Trazado 818875" d="M365.96,381.268l17.668-9.672a93.934,93.934,0,0,0-7.569-13.122,38.629,38.629,0,0,0-23.593-15.461h0l-20.322.249A26.035,26.035,0,0,0,324.895,345l.015-.082c-11.029,2.529-23.266,27.535-23.266,27.535l16.077,8.8.355,2.629a18.187,18.187,0,0,0,4.19,9.368l-4.682,32.012,52.179,1.122-6.644-22.925Z" transform="translate(-67.501 -66.213)" fill="#632059"/>
            <path id="Trazado_818876" data-name="Trazado 818876" d="M327.443,399.847a3.712,3.712,0,0,1-.777-.612,11.52,11.52,0,0,1-1.774-2.062,13.824,13.824,0,0,1-2.177-8.727,29.347,29.347,0,0,1,1.193-4.867c.468-1.459.942-2.753,1.356-3.831s.771-1.942,1.029-2.533a4.487,4.487,0,0,1,.445-.9,5.074,5.074,0,0,1-.3.961l-.908,2.577c-.378,1.089-.823,2.389-1.269,3.846a31.5,31.5,0,0,0-1.146,4.8,14.364,14.364,0,0,0,.439,4.858,13.16,13.16,0,0,0,1.573,3.652,22.285,22.285,0,0,0,2.315,2.841" transform="translate(-72.205 -72.642)" fill="#263238"/>
            <path id="Trazado_818877" data-name="Trazado 818877" d="M317.895,445.968l-2.946-35.706h63.559l-4.213,36.15Z" transform="translate(-70.478 -79.195)" fill="#263238"/>
            <path id="Trazado_818878" data-name="Trazado 818878" d="M358.771,432.853a4.05,4.05,0,1,1-4.047-4.207,4.129,4.129,0,0,1,4.047,4.207" transform="translate(-78.473 -82.744)" fill="#fafafa"/>
            <path id="Trazado_818879" data-name="Trazado 818879" d="M354.457,463.153l10.791,1.566v12.194l-9.924-.266Z" transform="translate(-79.319 -89.405)" fill="#ffbe9d"/>
            <path id="Trazado_818880" data-name="Trazado 818880" d="M368.359,465.093h4.851a5.215,5.215,0,0,1,2.69.75l2.558,1.536a39.154,39.154,0,0,0,4.471,2.217c2.95.985,7.913,2.312,8.958,3.15,2.985,2.393,2.077,5.222.438,5.517-1.44.26-23.967-.975-23.967-.975Z" transform="translate(-82.43 -89.779)" fill="#3b1335"/>
            <path id="Trazado_818881" data-name="Trazado 818881" d="M378.474,477.433a11.969,11.969,0,0,1-.184-6.366,188.855,188.855,0,0,0,.184,6.366" transform="translate(-84.575 -90.932)" fill="#263238"/>
            <path id="Trazado_818882" data-name="Trazado 818882" d="M381.54,477.481a21.041,21.041,0,0,1,.044-5.82,21.035,21.035,0,0,1-.044,5.82" transform="translate(-85.339 -91.047)" fill="#263238"/>
            <path id="Trazado_818883" data-name="Trazado 818883" d="M384.944,478.036a22.459,22.459,0,0,1-.45-6,22.466,22.466,0,0,1,.45,6" transform="translate(-86.024 -91.119)" fill="#263238"/>
            <path id="Trazado_818884" data-name="Trazado 818884" d="M374.53,473.719a3.26,3.26,0,0,1-1-.325,9.256,9.256,0,0,1-2.423-1.557c-.23-.2-.463-.429-.693-.676a2.868,2.868,0,0,1-.619-.91,1.311,1.311,0,0,1,.136-1.252.9.9,0,0,1,.6-.345,1.486,1.486,0,0,1,.654.077,5.084,5.084,0,0,1,3.172,4.143,5.2,5.2,0,0,1-2.156,4.792,3.018,3.018,0,0,1-1.112.519,1.248,1.248,0,0,1-.633-.031.862.862,0,0,1-.49-.448,1.314,1.314,0,0,1,.143-1.162,3.547,3.547,0,0,1,.623-.779,7.411,7.411,0,0,1,2.385-1.624,2.983,2.983,0,0,1,1-.3c.009.033-.345.145-.941.445a8.06,8.06,0,0,0-2.247,1.685,3.341,3.341,0,0,0-.553.727,1,1,0,0,0-.113.85.629.629,0,0,0,.757.27,2.7,2.7,0,0,0,.969-.477,4.849,4.849,0,0,0,1.963-4.418,4.747,4.747,0,0,0-2.883-3.827.743.743,0,0,0-.869.132.952.952,0,0,0-.1.895,4.888,4.888,0,0,0,1.187,1.487,12.964,12.964,0,0,0,3.23,2.105" transform="translate(-82.731 -90.465)" fill="#263238"/>
            <path id="Trazado_818885" data-name="Trazado 818885" d="M393.954,478.3a2.929,2.929,0,0,0,.591-.766,2.989,2.989,0,0,0-.318-2.544,5.485,5.485,0,0,0-3-2.349c-1.372-.513-3.009-.761-4.66-1.3a31.9,31.9,0,0,1-8.015-3.8c-.952-.631-1.687-1.2-2.184-1.6a4.4,4.4,0,0,1-.735-.675,4.73,4.73,0,0,1,.827.542c.523.361,1.278.885,2.242,1.478a35.49,35.49,0,0,0,7.982,3.647c1.625.529,3.246.782,4.672,1.336a5.684,5.684,0,0,1,3.119,2.57,3.092,3.092,0,0,1,.207,2.761,1.7,1.7,0,0,1-.5.574c-.144.094-.225.129-.231.118" transform="translate(-84.058 -89.813)" fill="#263238"/>
            <path id="Trazado_818886" data-name="Trazado 818886" d="M373.174,353.833a.676.676,0,0,1,0,.172c-.009.134-.021.3-.036.5q-.062.706-.171,1.95c-.168,1.733-.407,4.212-.708,7.326l-.018.188-.163-.089-9.37-5.128.222-.065c-1.544,2.71-3.263,5.725-5.089,8.927l-.109.191-.17-.136-8.571-6.833h.246l-3.733,3.042-5.09,4.143-.187.152-.113-.216c-1.689-3.25-3.314-6.375-4.848-9.324l.243.085-10.282,4.763-.189.088L325,363.36c-.6-3.664-1.119-6.852-1.552-9.507l.158.093-5.887,2.334-1.566.6-.406.148a.544.544,0,0,1-.141.04.477.477,0,0,1,.13-.071l.394-.178,1.543-.662,5.847-2.44.133-.055.026.148c.457,2.651,1.006,5.834,1.636,9.492l-.223-.123,10.258-4.817.159-.075.084.161,4.869,9.312-.3-.065,5.087-4.146,3.735-3.041.123-.1.123.1,8.558,6.851-.279.055c1.84-3.194,3.572-6.2,5.129-8.9l.082-.143.14.078,9.329,5.209-.181.1c.349-3.108.627-5.583.821-7.313q.15-1.239.235-1.943c.028-.2.05-.366.069-.5a.7.7,0,0,1,.035-.168" transform="translate(-70.626 -68.27)" fill="#f5f5f5"/>
            <path id="Trazado_818887" data-name="Trazado 818887" d="M379.63,364.887a1.144,1.144,0,0,1-.043.236l-.162.685c-.158.625-.38,1.508-.664,2.64-.6,2.322-1.465,5.657-2.543,9.819l-.041.159-.144-.072-10.949-5.464.215-.057-9.223,13.674-.135.2-.166-.174-8.864-9.34-1.861-1.962.251.031-11.945,7.786-.171.111-.1-.182-6.44-11.824.2.079-12.283,4.4-.116.041-.04-.119-2.725-8.217-.706-2.185c-.072-.233-.13-.419-.174-.565a.887.887,0,0,1-.048-.194.864.864,0,0,1,.081.183l.2.553q.274.771.767,2.163l2.833,8.178-.157-.078,12.253-4.485.132-.048.07.127,6.481,11.8-.269-.07,11.934-7.8.137-.09.114.12L347.2,376.9l8.856,9.347-.3.026,9.264-13.643.085-.124.13.066,10.915,5.537-.185.087c1.128-4.148,2.031-7.472,2.659-9.785.314-1.123.558-2,.732-2.621l.2-.675a1.147,1.147,0,0,1,.079-.226" transform="translate(-69.539 -70.34)" fill="#f5f5f5"/>
            <path id="Trazado_818888" data-name="Trazado 818888" d="M378.049,290.519a11.106,11.106,0,0,1-8.676-2.847c2.828,1.484,6.595-.552,7.589-3.679s.179-8.944-2.29-11.006a9.507,9.507,0,0,0-8.518-1.9c-2.911.81-6,5.411-6.947,8.384l.054.09c-.448-.186-.9-.359-1.354-.517a22.5,22.5,0,0,0-10.047-1.265,16,16,0,0,0-9.183,4.2l19.738,32.981c3.585-.328,6.761-2.842,8.639-6.033a23.278,23.278,0,0,0,2.777-10.725c.044-.938.042-1.885,0-2.832l6.348,1.061a14.352,14.352,0,0,0-4.22-3.922,5.187,5.187,0,0,0,6.084-1.989" transform="translate(-75.788 -52.266)" fill="#263238"/>
            <path id="Trazado_818889" data-name="Trazado 818889" d="M351.812,344.573a10.134,10.134,0,0,0,9.713-10.2l.459-41.033a3.226,3.226,0,0,0-2.811-3.313l-16.672-4.38c-5.339-.587-8.889,6.248-9.226,11.818-.375,6.189-.6,13.76.107,18.377,1.418,9.285,8.264,10.467,8.264,10.467,0-.024,0,3.593.026,7.993A10.118,10.118,0,0,0,351.812,344.573Z" transform="translate(-74.5 -55.134)" fill="#ffbe9d"/>
            <path id="Trazado_818890" data-name="Trazado 818890" d="M337.839,307.493a1.173,1.173,0,0,0,1.1,1.2,1.111,1.111,0,0,0,1.181-1.074,1.171,1.171,0,0,0-1.1-1.2,1.112,1.112,0,0,0-1.182,1.074" transform="translate(-75.6 -59.149)" fill="#263238"/>
            <path id="Trazado_818891" data-name="Trazado 818891" d="M335.407,304.884c.142.156,1.01-.512,2.243-.509,1.231-.014,2.136.645,2.27.487.066-.069-.079-.349-.473-.648a3.07,3.07,0,0,0-1.817-.582,2.944,2.944,0,0,0-1.785.6c-.38.3-.508.583-.438.653" transform="translate(-75.052 -58.612)" fill="#263238"/>
            <path id="Trazado_818892" data-name="Trazado 818892" d="M352.945,307.493a1.172,1.172,0,0,0,1.1,1.2,1.112,1.112,0,0,0,1.181-1.074,1.171,1.171,0,0,0-1.1-1.2,1.111,1.111,0,0,0-1.181,1.074" transform="translate(-78.981 -59.149)" fill="#263238"/>
            <path id="Trazado_818893" data-name="Trazado 818893" d="M351.016,305.18c.142.155,1.012-.512,2.243-.509,1.231-.015,2.136.645,2.27.487.066-.069-.078-.349-.473-.648a3.062,3.062,0,0,0-1.816-.582,2.941,2.941,0,0,0-1.785.6c-.378.3-.507.583-.438.653" transform="translate(-78.545 -58.669)" fill="#263238"/>
            <path id="Trazado_818894" data-name="Trazado 818894" d="M344.353,314.7a7.935,7.935,0,0,0-2-.375c-.315-.033-.612-.1-.666-.322a1.722,1.722,0,0,1,.21-.97l.931-2.491a44.026,44.026,0,0,0,2.09-6.518,43.953,43.953,0,0,0-2.59,6.327q-.466,1.312-.891,2.506a1.961,1.961,0,0,0-.164,1.285.8.8,0,0,0,.518.478,2,2,0,0,0,.535.077,7.636,7.636,0,0,0,2.029,0" transform="translate(-76.355 -58.687)" fill="#263238"/>
            <path id="Trazado_818895" data-name="Trazado 818895" d="M344.161,335.252a22.019,22.019,0,0,0,11.962-3.317s-2.9,6.379-11.841,5.51Z" transform="translate(-77.015 -64.075)" fill="#eb996e"/>
            <path id="Trazado_818896" data-name="Trazado 818896" d="M345.893,320.874a2.183,2.183,0,0,1,1.991-.858,2.011,2.011,0,0,1,1.4.781,1.379,1.379,0,0,1,.1,1.528,1.455,1.455,0,0,1-1.616.424,4.623,4.623,0,0,1-1.575-.977,1.387,1.387,0,0,1-.352-.379.443.443,0,0,1,0-.477" transform="translate(-77.375 -61.772)" fill="#eb996e"/>
            <path id="Trazado_818897" data-name="Trazado 818897" d="M348.8,318.354c-.2-.012-.2,1.379-1.348,2.366s-2.569.834-2.579,1.029c-.019.087.317.27.919.287a3.254,3.254,0,0,0,2.154-.78,3.049,3.049,0,0,0,1.044-1.984c.051-.582-.1-.926-.189-.918" transform="translate(-77.174 -61.454)" fill="#263238"/>
            <path id="Trazado_818898" data-name="Trazado 818898" d="M350.3,302.469c.122.349,1.352.183,2.8.365,1.45.151,2.616.591,2.808.278.085-.149-.118-.477-.589-.814a4.575,4.575,0,0,0-2.081-.758,4.526,4.526,0,0,0-2.19.267c-.531.223-.8.5-.746.662" transform="translate(-78.389 -58.202)" fill="#263238"/>
            <path id="Trazado_818899" data-name="Trazado 818899" d="M335.624,301.935c.217.291,1.066-.011,2.087-.025,1.021-.052,1.885.2,2.085-.109.087-.148-.05-.44-.428-.715a2.927,2.927,0,0,0-3.361.108c-.361.3-.479.6-.383.741" transform="translate(-75.098 -58.028)" fill="#263238"/>
            <path id="Trazado_818900" data-name="Trazado 818900" d="M369.008,309.42a2.171,2.171,0,0,1,2.336.122,4.527,4.527,0,0,1,1.847,5.11,4.263,4.263,0,0,1-4.457,2.885" transform="translate(-82.514 -59.673)" fill="#ffbe9d"/>
            <path id="Trazado_818901" data-name="Trazado 818901" d="M369.832,315.262c.026-.065.347.08.778-.127a1.807,1.807,0,0,0-.186-3.075c-.447-.191-.776-.1-.795-.169-.031-.045.3-.292.893-.156a1.635,1.635,0,0,1,.873.566,2.119,2.119,0,0,1,.443,1.223,1.851,1.851,0,0,1-1.118,1.931c-.607.166-.936-.155-.889-.194" transform="translate(-82.714 -60.168)" fill="#eb996e"/>
            <path id="Trazado_818902" data-name="Trazado 818902" d="M372.62,318.271a1.8,1.8,0,0,1,.409.3l1.094.929,3.854,3.4.13.115-.109.136c-1.435,1.791-3.034,4.035-4.831,6.378-.407.529-.814,1.047-1.209,1.53l-.33.4-.023-.529c-.163-3.781-.288-7.127-.359-9.529-.026-1.144-.048-2.092-.065-2.832a5.462,5.462,0,0,1,.027-1.031,5.516,5.516,0,0,1,.119,1.024c.049.738.112,1.685.187,2.826.143,2.4.317,5.743.491,9.523l-.352-.125,1.2-1.523c1.791-2.335,3.41-4.568,4.885-6.347l.02.252L374,319.659l-1.033-1a1.907,1.907,0,0,1-.342-.383" transform="translate(-83.061 -61.298)" fill="#455a64"/>
            <path id="Trazado_818903" data-name="Trazado 818903" d="M345.754,280.628a31.324,31.324,0,0,0-6.513.74,10.808,10.808,0,0,0-5.631,3.3A7.081,7.081,0,0,0,332.056,291,4.808,4.808,0,0,0,337,294.58c1.647-.229,3.225-1.5,4.814-.993,1.5.475,2.328,2.38,3.871,2.677,1.525.293,2.88-1.129,4.424-1.269,1.7-.153,3.181,1.3,3.939,2.892s1.046,3.393,1.807,4.984a3.954,3.954,0,0,0,2.3,2.276,3.08,3.08,0,0,0,2.784-.814,6.749,6.749,0,0,0,1.631-2.6,15.167,15.167,0,0,0-.913-12.793,14.07,14.07,0,0,0-10.357-6.975" transform="translate(-74.256 -54.171)" fill="#263238"/>
            <path id="Trazado_818904" data-name="Trazado 818904" d="M375.029,290.683c-.07.021-.277-.749-.826-1.886a13.631,13.631,0,0,0-2.874-3.913,13.064,13.064,0,0,0-4.036-2.577c-1.143-.453-1.9-.589-1.888-.663,0-.028.2-.016.543.031a7.9,7.9,0,0,1,1.44.353,11.633,11.633,0,0,1,4.211,2.545,12.193,12.193,0,0,1,2.861,4.1,8.59,8.59,0,0,1,.483,1.453,1.516,1.516,0,0,1,.085.558" transform="translate(-81.769 -54.364)" fill="#e8505b"/>
            <path id="Trazado_818905" data-name="Trazado 818905" d="M382.938,275.712a14.41,14.41,0,0,0-2.151-.693,8.288,8.288,0,0,0-5.239.82A11.787,11.787,0,0,0,371.5,279.5c-.828,1.168-1.215,1.987-1.276,1.954a1.847,1.847,0,0,1,.213-.6,11.651,11.651,0,0,1,.83-1.521,11.051,11.051,0,0,1,4.1-3.868,8.034,8.034,0,0,1,5.475-.734,6,6,0,0,1,1.586.615c.349.2.521.349.508.37" transform="translate(-82.847 -52.994)" fill="#455a64"/>
            <path id="Trazado_818906" data-name="Trazado 818906" d="M374.157,289.512a6.116,6.116,0,0,1,.014,1.911,15.627,15.627,0,0,1-1.116,4.465,15.212,15.212,0,0,1-2.357,3.91,5.688,5.688,0,0,1-1.345,1.3,24.461,24.461,0,0,0,3.332-5.378,25.228,25.228,0,0,0,1.473-6.209" transform="translate(-82.652 -55.886)" fill="#455a64"/>
            <path id="Trazado_818907" data-name="Trazado 818907" d="M374.931,289.757c.026-.008.1.18.218.532a9.311,9.311,0,0,1,.35,1.531,13.581,13.581,0,0,1-.241,5.175,13.3,13.3,0,0,1-2.152,4.674,8.951,8.951,0,0,1-1.007,1.174c-.262.253-.416.381-.435.36-.051-.052.5-.633,1.21-1.708a14.993,14.993,0,0,0,1.993-4.6,15.269,15.269,0,0,0,.349-5.033c-.131-1.3-.353-2.08-.284-2.1" transform="translate(-83.169 -55.933)" fill="#455a64"/>
          </g>
        </g>
        <g id="Grupo_1072244" data-name="Grupo 1072244">
          <g id="Grupo_1072243" data-name="Grupo 1072243" clip-path="url(#clip-path)">
            <path id="Trazado_818908" data-name="Trazado 818908" d="M450.074,273.621c-2.518.826-3.609,4.557-1.959,6.7a4.191,4.191,0,0,0,6.717-.52c1.326-2.373-.285-5.9-2.892-6.324" transform="translate(-100.102 -52.791)" fill="#ebebeb"/>
            <path id="Trazado_818909" data-name="Trazado 818909" d="M465.045,251.69c-2.888.947-4.14,5.228-2.247,7.686a4.807,4.807,0,0,0,7.706-.6c1.521-2.723-.326-6.763-3.318-7.255" transform="translate(-103.362 -48.553)" fill="#ebebeb"/>
            <path id="Trazado_818910" data-name="Trazado 818910" d="M487.054,152.836c-7.838-.688-15.764,1.131-21.138,7.1a28.319,28.319,0,0,0-6.756,22.64c-8.336,3.6-12.881,14.621-9.642,23.381s13.712,13.779,22.223,10.65a31.017,31.017,0,0,0,23.3,19.444,30.131,30.131,0,0,0,27.954-10.962c8.176,1.921,17.352,1.8,24.221-3.2s9.977-15.983,4.743-22.789c9.418-2.385,14.2-14.612,11.41-24.261s-11.153-16.574-20.082-20.5c-5.9-2.592-13.259-3.944-18.295.174a22.806,22.806,0,0,0-37.935-1.684" transform="translate(-100.357 -27.7)" fill="#f2fde8"/>
            <path id="Trazado_818911" data-name="Trazado 818911" d="M487.005,152.812s.154-.217.474-.629A20.526,20.526,0,0,1,489,150.438a23.526,23.526,0,0,1,7.239-5.049,23.263,23.263,0,0,1,6.117-1.8,21.563,21.563,0,0,1,7.58.241,23.422,23.422,0,0,1,8.109,3.41,24.161,24.161,0,0,1,7.023,7.167l-.222-.039a12.363,12.363,0,0,1,7.415-2.645,23.174,23.174,0,0,1,8.353,1.386,42.831,42.831,0,0,1,8.181,3.9,38.532,38.532,0,0,1,7.585,5.949,29.456,29.456,0,0,1,5.86,8.378,25.42,25.42,0,0,1,1.669,5.093,22.51,22.51,0,0,1-3.035,16.1,16.8,16.8,0,0,1-3.807,4.228,14.849,14.849,0,0,1-5.109,2.541l.118-.359a13.061,13.061,0,0,1,2.327,5.142,16.131,16.131,0,0,1,.136,5.78,19.291,19.291,0,0,1-5.177,10.382,20.8,20.8,0,0,1-10.312,5.477,33.56,33.56,0,0,1-11.872.364c-1.45-.184-2.879-.478-4.283-.79l.224-.079c-7.195,8.969-18.963,13-29.274,10.813a30.219,30.219,0,0,1-13.736-7.008,31.688,31.688,0,0,1-8.609-12.358l.262.123a18.142,18.142,0,0,1-23.052-12.792,19.7,19.7,0,0,1,1.76-13.215,18,18,0,0,1,8.583-8.375l-.094.173a28.594,28.594,0,0,1,4.277-19.407,27.32,27.32,0,0,1,2.588-3.379,21.043,21.043,0,0,1,8.874-5.742,27.942,27.942,0,0,1,9.106-1.416,27.27,27.27,0,0,1,3.2.178s-.276,0-.813-.031-1.339-.057-2.39-.056a28.451,28.451,0,0,0-9.052,1.493,20.945,20.945,0,0,0-8.761,5.737,27.082,27.082,0,0,0-2.549,3.359,28.346,28.346,0,0,0-4.174,19.216l.018.124-.113.05a17.694,17.694,0,0,0-8.4,8.242,19.332,19.332,0,0,0-1.7,12.959,17.758,17.758,0,0,0,22.554,12.477l.188-.068.074.191a31.245,31.245,0,0,0,8.5,12.176,29.8,29.8,0,0,0,13.545,6.9c10.147,2.145,21.763-1.835,28.84-10.663l.087-.11.137.031c1.391.308,2.806.6,4.241.781a33.128,33.128,0,0,0,11.718-.356,20.365,20.365,0,0,0,10.1-5.351,18.827,18.827,0,0,0,5.054-10.124,13.909,13.909,0,0,0-2.365-10.567l-.209-.271.327-.09a14.438,14.438,0,0,0,4.955-2.46,16.367,16.367,0,0,0,3.712-4.116,22.062,22.062,0,0,0,2.989-15.766,25.03,25.03,0,0,0-1.632-5,29.068,29.068,0,0,0-5.767-8.27,38.178,38.178,0,0,0-7.5-5.905,42.544,42.544,0,0,0-8.1-3.886,22.881,22.881,0,0,0-8.231-1.389,12.053,12.053,0,0,0-7.24,2.555l-.132.106-.09-.144a23.911,23.911,0,0,0-6.915-7.1,23.23,23.23,0,0,0-8.01-3.406,21.449,21.449,0,0,0-7.5-.275,23.223,23.223,0,0,0-6.079,1.748,23.812,23.812,0,0,0-7.245,4.954c-.707.725-1.226,1.3-1.547,1.709s-.508.6-.508.6" transform="translate(-100.308 -27.675)" fill="#263238"/>
            <path id="Trazado_818912" data-name="Trazado 818912" d="M547.409,189.694c0,.389-15.363.7-34.31.7s-34.313-.315-34.313-.7,15.359-.7,34.313-.7,34.31.316,34.31.7" transform="translate(-107.141 -36.482)" fill="#455a64"/>
            <path id="Trazado_818913" data-name="Trazado 818913" d="M547.409,199.285c0,.389-15.363.7-34.31.7s-34.313-.315-34.313-.7,15.359-.7,34.313-.7,34.31.316,34.31.7" transform="translate(-107.141 -38.333)" fill="#455a64"/>
            <path id="Trazado_818914" data-name="Trazado 818914" d="M547.409,208.876c0,.389-15.363.7-34.31.7s-34.313-.315-34.313-.7,15.359-.7,34.313-.7,34.31.316,34.31.7" transform="translate(-107.141 -40.185)" fill="#455a64"/>
            <path id="Trazado_818915" data-name="Trazado 818915" d="M547.409,218.468c0,.389-15.363.7-34.31.7s-34.313-.315-34.313-.7,15.359-.7,34.313-.7,34.31.316,34.31.7" transform="translate(-107.141 -42.036)" fill="#455a64"/>
          </g>
        </g>
      </g>
    </g>
  </g>
</svg>
