<svg xmlns="http://www.w3.org/2000/svg" xmlns:xlink="http://www.w3.org/1999/xlink" width="395.861" height="538.962" viewBox="0 0 395.861 538.962">
  <defs>
    <clipPath id="clip-path">
      <rect id="Rectángulo_376989" data-name="Rectángulo 376989" width="395.861" height="538.962" fill="none"/>
    </clipPath>
    <clipPath id="clip-path-2">
      <rect id="Rectángulo_376938" data-name="Rectángulo 376938" width="414.711" height="534.335" fill="none"/>
    </clipPath>
    <clipPath id="clip-path-3">
      <rect id="Rectángulo_376939" data-name="Rectángulo 376939" width="414.711" height="424.917" fill="none"/>
    </clipPath>
    <clipPath id="clip-path-4">
      <rect id="Rectángulo_376974" data-name="Rectángulo 376974" width="414.711" height="538.02" fill="none"/>
    </clipPath>
    <clipPath id="clip-path-5">
      <rect id="Rectángulo_376940" data-name="Rectángulo 376940" width="175.754" height="61.332" fill="#3b5620"/>
    </clipPath>
    <clipPath id="clip-path-6">
      <rect id="Rectángulo_376943" data-name="Rectángulo 376943" width="4.419" height="18.695" fill="none"/>
    </clipPath>
    <clipPath id="clip-path-8">
      <rect id="Rectángulo_376975" data-name="Rectángulo 376975" width="11.82" height="27.45" fill="#3b5620"/>
    </clipPath>
    <clipPath id="clip-path-9">
      <rect id="Rectángulo_376976" data-name="Rectángulo 376976" width="22.093" height="15.075" fill="#3b5620"/>
    </clipPath>
    <clipPath id="clip-path-11">
      <rect id="Rectángulo_376979" data-name="Rectángulo 376979" width="22.149" height="21.553" fill="none"/>
    </clipPath>
    <clipPath id="clip-path-12">
      <rect id="Rectángulo_376980" data-name="Rectángulo 376980" width="148.652" height="113.893" fill="none"/>
    </clipPath>
    <clipPath id="clip-path-13">
      <rect id="Rectángulo_376981" data-name="Rectángulo 376981" width="145.112" height="107.369" fill="none"/>
    </clipPath>
    <clipPath id="clip-path-14">
      <rect id="Rectángulo_376982" data-name="Rectángulo 376982" width="8.507" height="17.53" fill="none"/>
    </clipPath>
    <clipPath id="clip-path-15">
      <rect id="Rectángulo_376983" data-name="Rectángulo 376983" width="19.048" height="19.391" fill="none"/>
    </clipPath>
    <clipPath id="clip-path-17">
      <rect id="Rectángulo_376985" data-name="Rectángulo 376985" width="2.154" height="2.356" fill="none"/>
    </clipPath>
    <clipPath id="clip-path-18">
      <rect id="Rectángulo_376986" data-name="Rectángulo 376986" width="18.34" height="11.958" fill="none"/>
    </clipPath>
    <clipPath id="clip-path-19">
      <rect id="Rectángulo_376987" data-name="Rectángulo 376987" width="22.691" height="10.831" fill="none"/>
    </clipPath>
  </defs>
  <g id="Grupo_1072131" data-name="Grupo 1072131" transform="translate(-20 61)">
    <g id="Grupo_1072130" data-name="Grupo 1072130" transform="translate(20 -61)" clip-path="url(#clip-path)">
      <path id="Trazado_818500" data-name="Trazado 818500" d="M52.173,292.513,35.239,335.82H23.228L6.368,292.513H18.379l11.116,29.462,11.488-29.462Z" transform="translate(-19.567 101.67)" fill="#f5f5f5"/>
      <g id="Grupo_1072080" data-name="Grupo 1072080" transform="translate(-18.851 4.627)">
        <g id="Grupo_1072079" data-name="Grupo 1072079" clip-path="url(#clip-path-2)">
          <path id="Trazado_818501" data-name="Trazado 818501" d="M430.872,332.889h8.71v20.519a23.493,23.493,0,0,1-7.77,4.769,25.051,25.051,0,0,1-8.886,1.662,20.56,20.56,0,0,1-11.536-3.36,22.867,22.867,0,0,1-8.033-9.319,32.619,32.619,0,0,1,0-26.952,22.7,22.7,0,0,1,8.092-9.319,20.945,20.945,0,0,1,11.654-3.36,21.424,21.424,0,0,1,9.829,2.239,20.135,20.135,0,0,1,7.416,6.5l-6.121,6.935q-4.413-5.706-10.652-5.707a12.421,12.421,0,0,0-7,2.022,13.4,13.4,0,0,0-4.767,5.709,21.608,21.608,0,0,0,0,16.834,13.711,13.711,0,0,0,4.737,5.744,12.019,12.019,0,0,0,6.917,2.059,13.205,13.205,0,0,0,7.415-2.167Z" transform="translate(-45.03 78.447)" fill="#e1ecd7"/>
          <path id="Trazado_818502" data-name="Trazado 818502" d="M370.432,139.313l1.964.8c1.406.574,2.924-.358,3.391-2.083l26.081-96.224c.829-3.057-.518-6.36-3.009-7.378Z" transform="translate(-41.655 53.981)" fill="#e0e0e0"/>
          <path id="Trazado_818503" data-name="Trazado 818503" d="M283.823,324.032,305.772,333l61.735-227.771c2.017-7.441-1.261-15.48-7.322-17.955s-12.61,1.548-14.627,8.989Z" transform="translate(-31.916 58.65)" fill="#f5f5f5"/>
          <path id="Trazado_818504" data-name="Trazado 818504" d="M323.493,183.966l14.332,37.069L334.55,233.12l-14.518-36.387Z" transform="translate(-35.988 67.378)" fill="#fff"/>
          <path id="Trazado_818505" data-name="Trazado 818505" d="M317.592,202.352l14.332,37.069-1.561,5.762L315.845,208.8Z" transform="translate(-35.517 69.025)" fill="#fff"/>
          <path id="Trazado_818506" data-name="Trazado 818506" d="M351.094,103.545l24.544,10.026,20.3-74.878c2.255-8.32-1.411-17.31-8.189-20.079s-14.1,1.732-16.356,10.053Z" transform="translate(-39.481 52.491)" fill="#e0e0e0"/>
          <path id="Trazado_818507" data-name="Trazado 818507" d="M370.879,137.6c-.107-.042,5.9-22.547,13.408-50.256s13.688-50.146,13.793-50.1-5.9,22.541-13.409,50.261-13.686,50.143-13.793,50.1" transform="translate(-41.705 54.233)" fill="#ebebeb"/>
          <path id="Trazado_818508" data-name="Trazado 818508" d="M286.895,320.188l8.4,3.43c3.742,1.529,7.786-.957,9.031-5.552l1.245-4.6-21.949-8.965-1.245,4.6c-1.245,4.594.778,9.558,4.521,11.087" transform="translate(-31.712 78.177)" fill="#e0e0e0"/>
          <path id="Trazado_818509" data-name="Trazado 818509" d="M365.495,103.875c.106.044-13.553,50.789-30.5,113.328-16.957,62.561-30.785,113.225-30.89,113.181s13.549-50.777,30.506-113.338c16.951-62.539,30.781-113.215,30.888-113.171" transform="translate(-34.196 60.202)" fill="#e0e0e0"/>
          <path id="Trazado_818510" data-name="Trazado 818510" d="M357.43,101.191c.106.044-13.553,50.789-30.5,113.328C309.97,277.08,296.142,327.744,296.036,327.7s13.549-50.777,30.506-113.338c16.951-62.539,30.782-113.215,30.888-113.171" transform="translate(-33.289 59.962)" fill="#e0e0e0"/>
          <path id="Trazado_818511" data-name="Trazado 818511" d="M349.365,98.508c.107.044-13.552,50.789-30.5,113.328C301.9,274.4,288.077,325.061,287.971,325.017s13.549-50.777,30.506-113.338c16.951-62.539,30.782-113.215,30.888-113.171" transform="translate(-32.382 59.722)" fill="#e0e0e0"/>
          <path id="Trazado_818512" data-name="Trazado 818512" d="M221.728,433.053H176.181c-7.707,0-13.954-7.668-13.954-17.129s6.247-17.129,13.953-17.129h45.548c2.588,0,4.685,2.576,4.685,5.752V427.3c0,3.176-2.1,5.752-4.685,5.752" transform="translate(-18.243 86.624)" fill="#ebebeb"/>
          <path id="Trazado_818513" data-name="Trazado 818513" d="M331.019,404.481H218.882v-5.688H331.019a2.1,2.1,0,0,1,1.854,2.277V402.2a2.1,2.1,0,0,1-1.854,2.277" transform="translate(-24.613 86.624)" fill="#ebebeb"/>
          <path id="Trazado_818514" data-name="Trazado 818514" d="M331.019,430.7H218.882v-5.688H331.019a2.1,2.1,0,0,1,1.855,2.277v1.134a2.1,2.1,0,0,1-1.855,2.276" transform="translate(-24.613 88.973)" fill="#ebebeb"/>
          <path id="Trazado_818515" data-name="Trazado 818515" d="M329.905,426.9H232.034c-5.148,0-9.321-5.123-9.321-11.442h0c0-6.319,4.173-11.442,9.321-11.442h97.871a34.242,34.242,0,0,0,0,22.885" transform="translate(-25.044 87.091)" fill="#fafafa"/>
          <path id="Trazado_818516" data-name="Trazado 818516" d="M215.911,433.053h-39.88c-7.623,0-13.8-7.587-13.8-16.945,0-9.562,6.314-17.314,14.1-17.314h40.644c-10.1,7.514-9.349,25.509-1.062,34.259" transform="translate(-18.243 86.624)" fill="#e0e0e0"/>
          <path id="Trazado_818517" data-name="Trazado 818517" d="M318.719,415.5c0,.088-20.089.159-44.864.159s-44.867-.071-44.867-.159,20.084-.159,44.867-.159,44.864.072,44.864.159" transform="translate(-25.75 88.106)" fill="#e0e0e0"/>
          <path id="Trazado_818518" data-name="Trazado 818518" d="M329.123,420.171c0,.088-20.089.159-44.863.159s-44.868-.071-44.868-.159,20.084-.159,44.868-.159,44.863.071,44.863.159" transform="translate(-26.92 88.525)" fill="#e0e0e0"/>
          <path id="Trazado_818519" data-name="Trazado 818519" d="M326.055,411.171c0,.088-20.089.159-44.864.159s-44.867-.071-44.867-.159,20.084-.159,44.867-.159,44.864.071,44.864.159" transform="translate(-26.575 87.718)" fill="#e0e0e0"/>
          <path id="Trazado_818520" data-name="Trazado 818520" d="M211.855,428.045c0,.088-9.4.159-21,.159s-21-.071-21-.159,9.4-.159,21-.159,21,.071,21,.159" transform="translate(-19.1 89.23)" fill="#ebebeb"/>
          <path id="Trazado_818521" data-name="Trazado 818521" d="M211.855,401.416c0,.088-9.4.159-21,.159s-21-.071-21-.159,9.4-.159,21-.159,21,.071,21,.159" transform="translate(-19.1 86.844)" fill="#ebebeb"/>
          <path id="Trazado_818522" data-name="Trazado 818522" d="M234.218,403.613H205.446c-4.867,0-8.813-4.844-8.813-10.82h0c0-5.975,3.946-10.82,8.813-10.82h28.772c1.635,0,2.96,1.627,2.96,3.634v14.373c0,2.007-1.325,3.634-2.96,3.634" transform="translate(-22.111 85.117)" fill="#ebebeb"/>
          <path id="Trazado_818523" data-name="Trazado 818523" d="M302.962,385.565H232.42v-3.592h70.542a1.834,1.834,0,0,1,0,3.592" transform="translate(-26.136 85.117)" fill="#ebebeb"/>
          <path id="Trazado_818524" data-name="Trazado 818524" d="M302.962,402.129H232.42v-3.592h70.542a1.834,1.834,0,0,1,0,3.592" transform="translate(-26.136 86.601)" fill="#ebebeb"/>
          <path id="Trazado_818525" data-name="Trazado 818525" d="M302.55,399.726H240.728c-3.252,0-5.888-3.236-5.888-7.227h0c0-3.991,2.636-7.227,5.888-7.227H302.55a21.628,21.628,0,0,0,0,14.456" transform="translate(-26.408 85.412)" fill="#fafafa"/>
          <path id="Trazado_818526" data-name="Trazado 818526" d="M230.544,403.613H205.352c-4.816,0-8.719-4.792-8.719-10.7,0-6.04,3.989-10.936,8.908-10.936h25.673c-6.382,4.746-5.906,16.113-.671,21.64" transform="translate(-22.111 85.117)" fill="#e0e0e0"/>
          <path id="Trazado_818527" data-name="Trazado 818527" d="M295.485,392.527c0,.056-12.689.1-28.339.1s-28.341-.045-28.341-.1,12.687-.1,28.341-.1,28.339.045,28.339.1" transform="translate(-26.854 86.053)" fill="#e0e0e0"/>
          <path id="Trazado_818528" data-name="Trazado 818528" d="M302.057,395.476c0,.056-12.689.1-28.339.1s-28.342-.045-28.342-.1,12.687-.1,28.342-.1,28.339.045,28.339.1" transform="translate(-27.593 86.318)" fill="#e0e0e0"/>
          <path id="Trazado_818529" data-name="Trazado 818529" d="M300.119,389.791c0,.056-12.689.1-28.339.1s-28.341-.045-28.341-.1,12.687-.1,28.341-.1,28.339.045,28.339.1" transform="translate(-27.375 85.808)" fill="#e0e0e0"/>
          <path id="Trazado_818530" data-name="Trazado 818530" d="M227.982,400.45c0,.056-5.939.1-13.265.1s-13.266-.045-13.266-.1,5.939-.1,13.266-.1,13.265.045,13.265.1" transform="translate(-22.653 86.763)" fill="#ebebeb"/>
          <path id="Trazado_818531" data-name="Trazado 818531" d="M227.982,383.629c0,.056-5.939.1-13.265.1s-13.266-.045-13.266-.1,5.939-.1,13.266-.1,13.265.045,13.265.1" transform="translate(-22.653 85.256)" fill="#ebebeb"/>
          <path id="Trazado_818532" data-name="Trazado 818532" d="M90.213,52.35a20.071,20.071,0,0,1,2.731,10.8q0,9.072-5.742,13.952T70.455,81.98H41.379V12.958H68.848q10.28,0,15.783,4.832t5.5,13.113a19.837,19.837,0,0,1-1.967,8.973,15.346,15.346,0,0,1-5.5,6.212,15.13,15.13,0,0,1,7.55,6.262M54.31,24.988V41.257H67.241q4.821,0,7.31-2.07a7.5,7.5,0,0,0,2.49-6.114,7.352,7.352,0,0,0-2.49-6.064q-2.491-2.02-7.31-2.021ZM77.241,67.88q2.609-2.071,2.61-6.409,0-8.579-10.36-8.578H54.31V69.95H69.491q5.138,0,7.75-2.07" transform="translate(-4.653 31.376)" fill="#e1ecd7"/>
          <path id="Trazado_818533" data-name="Trazado 818533" d="M451.713,226.33l-9.329,27.142h-6.616l-9.287-27.142H433.1l6.124,18.464,6.328-18.464Z" transform="translate(-47.958 71.173)" fill="#f5f5f5"/>
          <path id="Trazado_818534" data-name="Trazado 818534" d="M329.2,3q2.753,3,2.753,9.056V27.546h-6V24.165q-1.808,3.785-6.74,3.784a8.826,8.826,0,0,1-4.417-1.059,7.141,7.141,0,0,1-2.856-2.926,8.942,8.942,0,0,1-.986-4.238,7.751,7.751,0,0,1,2.322-5.954q2.321-2.167,7.171-2.168h5.1a5.652,5.652,0,0,0-1.274-3.961,4.937,4.937,0,0,0-3.822-1.387,9.283,9.283,0,0,0-3.473.681,8.76,8.76,0,0,0-2.9,1.84l-2.3-5.5A12.88,12.88,0,0,1,316.109.858a16.091,16.091,0,0,1,5.2-.858q5.136,0,7.89,3m-5.466,18.717a5.036,5.036,0,0,0,1.808-2.749V16.195h-4.4q-3.946,0-3.945,3.178a3.083,3.083,0,0,0,.966,2.4,3.773,3.773,0,0,0,2.65.883,4.812,4.812,0,0,0,2.918-.933" transform="translate(-35.055 22.621)" fill="#e1ecd7"/>
          <path id="Trazado_819589" data-name="Trazado 819589" d="M329.2,3q2.753,3,2.753,9.056V27.546h-6V24.165q-1.808,3.785-6.74,3.784a8.826,8.826,0,0,1-4.417-1.059,7.141,7.141,0,0,1-2.856-2.926,8.942,8.942,0,0,1-.986-4.238,7.751,7.751,0,0,1,2.322-5.954q2.321-2.167,7.171-2.168h5.1a5.652,5.652,0,0,0-1.274-3.961,4.937,4.937,0,0,0-3.822-1.387,9.283,9.283,0,0,0-3.473.681,8.76,8.76,0,0,0-2.9,1.84l-2.3-5.5A12.88,12.88,0,0,1,316.109.858a16.091,16.091,0,0,1,5.2-.858q5.136,0,7.89,3m-5.466,18.717a5.036,5.036,0,0,0,1.808-2.749V16.195h-4.4q-3.946,0-3.945,3.178a3.083,3.083,0,0,0,.966,2.4,3.773,3.773,0,0,0,2.65.883,4.812,4.812,0,0,0,2.918-.933" transform="translate(-232.985 158.229)" fill="#e1ecd7"/>
          <path id="Trazado_818535" data-name="Trazado 818535" d="M416.551,93.729h-9.938v-7.19h27.064v7.19h-9.938v30.938h-7.188Z" transform="translate(-45.724 58.649)" fill="#e1ecd7"/>
          <path id="Trazado_819590" data-name="Trazado 819590" d="M416.551,93.729h-9.938v-7.19h27.064v7.19h-9.938v30.938h-7.188Z" transform="translate(-269.392 -69.008)" fill="#e1ecd7"/>
          <path id="Trazado_818536" data-name="Trazado 818536" d="M34.4,134.2a11.179,11.179,0,0,1,4.539,4.647,16.7,16.7,0,0,1,0,14.233,10.976,10.976,0,0,1-4.539,4.648,14.266,14.266,0,0,1-6.948,1.61H21.384v10.193H14.415v-36.97H27.45A14.093,14.093,0,0,1,34.4,134.2m-2.56,16.5a6.456,6.456,0,0,0,1.635-4.726,6.538,6.538,0,0,0-1.635-4.78,6.4,6.4,0,0,0-4.775-1.664H21.384v12.834h5.679a6.4,6.4,0,0,0,4.775-1.665" transform="translate(4.435 62.772)" fill="#e1ecd7"/>
          <path id="Trazado_818537" data-name="Trazado 818537" d="M122.635,388.819a8.468,8.468,0,0,1,3.433,3.515,12.641,12.641,0,0,1,0,10.766,8.3,8.3,0,0,1-3.433,3.516,10.792,10.792,0,0,1-5.256,1.219H112.79v7.71h-5.272V387.58h9.861a10.654,10.654,0,0,1,5.256,1.239M120.7,401.3a4.889,4.889,0,0,0,1.236-3.576,4.949,4.949,0,0,0-1.236-3.616,4.85,4.85,0,0,0-3.612-1.257h-4.3v9.707h4.3A4.845,4.845,0,0,0,120.7,401.3" transform="translate(-12.09 85.619)" fill="#e1ecd7"/>
        </g>
      </g>
      <g id="Grupo_1072082" data-name="Grupo 1072082" transform="translate(-18.851 114.046)">
        <g id="Grupo_1072081" data-name="Grupo 1072081" clip-path="url(#clip-path-3)">
          <path id="Trazado_818538" data-name="Trazado 818538" d="M405.239,429.23c0,.138-90.723.249-202.61.249C90.7,429.479,0,429.368,0,429.23s90.7-.249,202.629-.249c111.887,0,202.61.111,202.61.249" transform="translate(0 -18.15)" fill="#263238"/>
        </g>
      </g>
      <g id="Grupo_1072093" data-name="Grupo 1072093" transform="translate(-18.851 0.943)">
        <g id="Grupo_1072092" data-name="Grupo 1072092" clip-path="url(#clip-path-4)">
          <path id="Trazado_818539" data-name="Trazado 818539" d="M313.64,358.507l-188.888,3.048c-4.585.074-8.357-3.877-8.426-8.824l-4.113-296.8c-.068-4.946,3.593-9.018,8.177-9.091l188.888-3.048c4.585-.074,8.358,3.877,8.426,8.824l4.114,296.8c.068,4.947-3.593,9.018-8.178,9.091" transform="translate(-12.618 38.028)" fill="#e0e0e0"/>
          <path id="Trazado_818540" data-name="Trazado 818540" d="M313.617,358.5s.214-.022.636-.056a7.861,7.861,0,0,0,4.538-2.05,9.021,9.021,0,0,0,2.441-3.745,9.148,9.148,0,0,0,.5-2.717c.034-.978-.018-2.019-.024-3.1q-.049-3.261-.107-7.125c-.077-5.15-.166-11.092-.265-17.781-.385-26.761-.943-65.477-1.634-113.317-.338-23.921-.71-50.123-1.109-78.251q-.3-21.1-.614-43.594-.157-11.237-.32-22.8-.087-5.775-.176-11.627a9.181,9.181,0,0,0-1.906-5.254,8.1,8.1,0,0,0-4.519-2.908,10.62,10.62,0,0,0-2.7-.179l-2.761.045-5.546.091-11.192.182-22.767.371-46.957.763-98.744,1.6a7.835,7.835,0,0,0-5.569,2.5,9.046,9.046,0,0,0-2.421,5.938c.021,4.515.114,9.052.167,13.554q.188,13.521.372,26.857.367,26.666.724,52.508c.473,34.425.929,67.63,1.364,99.262s.842,61.691,1.227,89.822q.072,5.275.143,10.458c.031,1.724.028,3.456.088,5.151a9.145,9.145,0,0,0,1.538,4.656,8.352,8.352,0,0,0,3.589,3.007,8.209,8.209,0,0,0,2.217.574c.753.059,1.529.031,2.3.019l9.167-.145,34.8-.548,105.013-1.626,28.552-.42,7.424-.1c1.673-.02,2.53-.019,2.53-.019s-.856.029-2.53.062l-7.424.142-28.55.5L170.1,360.966l-34.8.576-9.167.151c-.77.012-1.542.043-2.336-.019a8.508,8.508,0,0,1-2.3-.594,8.678,8.678,0,0,1-3.731-3.121,9.51,9.51,0,0,1-1.6-4.839c-.06-1.725-.059-3.435-.091-5.167q-.073-5.183-.147-10.457c-.4-28.131-.818-58.189-1.263-89.821s-.906-64.838-1.387-99.263q-.359-25.819-.731-52.507-.185-13.334-.373-26.857c-.053-4.511-.146-9.018-.168-13.574a9.5,9.5,0,0,1,2.54-6.23,8.219,8.219,0,0,1,5.843-2.627l98.744-1.589q23.921-.385,46.957-.753l22.767-.364,11.192-.179,5.546-.089,2.76-.043a10.939,10.939,0,0,1,2.78.188,8.469,8.469,0,0,1,4.723,3.04,9.6,9.6,0,0,1,1.989,5.49q.087,5.858.172,11.64.158,11.557.311,22.8.306,22.476.595,43.594c.381,28.128.736,54.331,1.06,78.252.636,47.841,1.151,86.558,1.508,113.319.085,6.69.162,12.631.228,17.781q.048,3.861.089,7.125c0,1.088.052,2.12.014,3.11a9.213,9.213,0,0,1-.517,2.743,9.059,9.059,0,0,1-2.476,3.765,8.379,8.379,0,0,1-2.719,1.624,8.088,8.088,0,0,1-1.856.4c-.423.027-.637.035-.637.035" transform="translate(-12.595 38.037)" fill="#263238"/>
          <g id="Grupo_1072085" data-name="Grupo 1072085" transform="translate(121.238 330.255)" opacity="0.3">
            <g id="Grupo_1072084" data-name="Grupo 1072084">
              <g id="Grupo_1072083" data-name="Grupo 1072083" clip-path="url(#clip-path-5)">
                <path id="Trazado_818541" data-name="Trazado 818541" d="M138.579,364.534l172.3-3.8,1.477-35.956-5.58-21.581L136.6,334.713Z" transform="translate(-136.599 -303.202)" fill="#3b5620"/>
              </g>
            </g>
          </g>
          <path id="Trazado_818542" data-name="Trazado 818542" d="M313.617,358.5s.214-.022.636-.056a7.861,7.861,0,0,0,4.538-2.05,9.021,9.021,0,0,0,2.441-3.745,9.148,9.148,0,0,0,.5-2.717c.034-.978-.018-2.019-.024-3.1q-.049-3.261-.107-7.125c-.077-5.15-.166-11.092-.265-17.781-.385-26.761-.943-65.477-1.634-113.317-.338-23.921-.71-50.123-1.109-78.251q-.3-21.1-.614-43.594-.157-11.237-.32-22.8-.087-5.775-.176-11.627a9.181,9.181,0,0,0-1.906-5.254,8.1,8.1,0,0,0-4.519-2.908,10.62,10.62,0,0,0-2.7-.179l-2.761.045-5.546.091-11.192.182-22.767.371-46.957.763-98.744,1.6a7.835,7.835,0,0,0-5.569,2.5,9.046,9.046,0,0,0-2.421,5.938c.021,4.515.114,9.052.167,13.554q.188,13.521.372,26.857.367,26.666.724,52.508c.473,34.425.929,67.63,1.364,99.262s.842,61.691,1.227,89.822q.072,5.275.143,10.458c.031,1.724.028,3.456.088,5.151a9.145,9.145,0,0,0,1.538,4.656,8.352,8.352,0,0,0,3.589,3.007,8.209,8.209,0,0,0,2.217.574c.753.059,1.529.031,2.3.019l9.167-.145,34.8-.548,105.013-1.626,28.552-.42,7.424-.1c1.673-.02,2.53-.019,2.53-.019s-.856.029-2.53.062l-7.424.142-28.55.5L170.1,360.966l-34.8.576-9.167.151c-.77.012-1.542.043-2.336-.019a8.508,8.508,0,0,1-2.3-.594,8.678,8.678,0,0,1-3.731-3.121,9.51,9.51,0,0,1-1.6-4.839c-.06-1.725-.059-3.435-.091-5.167q-.073-5.183-.147-10.457c-.4-28.131-.818-58.189-1.263-89.821s-.906-64.838-1.387-99.263q-.359-25.819-.731-52.507-.185-13.334-.373-26.857c-.053-4.511-.146-9.018-.168-13.574a9.5,9.5,0,0,1,2.54-6.23,8.219,8.219,0,0,1,5.843-2.627l98.744-1.589q23.921-.385,46.957-.753l22.767-.364,11.192-.179,5.546-.089,2.76-.043a10.939,10.939,0,0,1,2.78.188,8.469,8.469,0,0,1,4.723,3.04,9.6,9.6,0,0,1,1.989,5.49q.087,5.858.172,11.64.158,11.557.311,22.8.306,22.476.595,43.594c.381,28.128.736,54.331,1.06,78.252.636,47.841,1.151,86.558,1.508,113.319.085,6.69.162,12.631.228,17.781q.048,3.861.089,7.125c0,1.088.052,2.12.014,3.11a9.213,9.213,0,0,1-.517,2.743,9.059,9.059,0,0,1-2.476,3.765,8.379,8.379,0,0,1-2.719,1.624,8.088,8.088,0,0,1-1.856.4c-.423.027-.637.035-.637.035" transform="translate(-12.595 38.037)" fill="#263238"/>
          <path id="Trazado_819588" data-name="Trazado 819588" d="M.4.283,185.2,0l-.4,287.268L0,287.55Z" transform="matrix(1, -0.015, 0.015, 1, 109.645, 97.235)" fill="#fff"/>
          <path id="Trazado_818544" data-name="Trazado 818544" d="M312.636,344.233c-.025-1.654-1.7-117.694-4.153-287.173l.175.183-184.667,3h-.022l.186-.207C125.636,167.878,127,267.514,128.1,347.21l-.154-.161,184.691-2.817-184.687,3.144-.153,0,0-.164c-1.115-79.7-2.509-179.332-4.017-287.176l0-.2.189,0h.021l184.667-2.962.172,0,0,.186c2.247,169.482,3.785,285.526,3.808,287.179" transform="translate(-13.919 37.475)" fill="#263238"/>
          <path id="Trazado_818545" data-name="Trazado 818545" d="M274.559,65.966l-94.7,1.528-.327-23.58a5.866,5.866,0,0,1,5.529-6.148l83.471-1.347a5.833,5.833,0,0,1,5.7,5.966Z" transform="translate(-20.189 38.34)" fill="#3b5620"/>
          <path id="Trazado_818546" data-name="Trazado 818546" d="M243.138,25.28l-24.1.389,3.126,22.247,18.155-.293Z" transform="translate(-24.631 38.811)" fill="#3b5620"/>
          <path id="Trazado_818547" data-name="Trazado 818547" d="M268.825,36.424c0,.12-18.473.512-41.261.88s-41.269.57-41.27.453,18.47-.512,41.265-.882,41.265-.57,41.267-.451" transform="translate(-20.949 38.341)" fill="#455a64"/>
          <g id="Grupo_1072091" data-name="Grupo 1072091" transform="translate(253.837 83.15)" opacity="0.3">
            <g id="Grupo_1072090" data-name="Grupo 1072090">
              <g id="Grupo_1072089" data-name="Grupo 1072089" clip-path="url(#clip-path-6)">
                <path id="Trazado_818548" data-name="Trazado 818548" d="M286.238,45.18l4.093,12.479.085,6.145L286,63.875Z" transform="translate(-285.997 -45.18)"/>
              </g>
            </g>
          </g>
          <path id="Trazado_818549" data-name="Trazado 818549" d="M181.805,98l-7.56,22.506H168.43l-4.691-13.972L158.893,120.5h-5.815L145.556,98h5.7l4.923,15.227L161.3,98h5.118l4.962,15.227L176.455,98Z" transform="translate(-16.368 35.735)" fill="#3b5620"/>
          <rect id="Rectángulo_376944" data-name="Rectángulo 376944" width="111.512" height="3.349" transform="translate(171.491 148.625)" fill="#e0e0e0"/>
          <rect id="Rectángulo_376945" data-name="Rectángulo 376945" width="111.513" height="3.349" transform="translate(122.972 164.362)" fill="#e0e0e0"/>
          <rect id="Rectángulo_376946" data-name="Rectángulo 376946" width="58.83" height="3.349" transform="translate(122.972 179.584)" fill="#e0e0e0"/>
          <rect id="Rectángulo_376947" data-name="Rectángulo 376947" width="45.406" height="3.349" transform="translate(189.078 179.584)" fill="#632059"/>
          <rect id="Rectángulo_376948" data-name="Rectángulo 376948" width="22.377" height="3.349" transform="translate(122.972 194.808)" fill="#e0e0e0"/>
          <rect id="Rectángulo_376949" data-name="Rectángulo 376949" width="49.02" height="3.349" transform="translate(152.385 194.808)" fill="#e0e0e0"/>
          <rect id="Rectángulo_376950" data-name="Rectángulo 376950" width="28.81" height="3.349" transform="translate(205.675 194.808)" fill="#e0e0e0"/>
          <rect id="Rectángulo_376951" data-name="Rectángulo 376951" width="22.377" height="3.349" transform="translate(122.972 224.455)" fill="#632059"/>
          <rect id="Rectángulo_376952" data-name="Rectángulo 376952" width="79.326" height="3.349" transform="translate(152.385 224.455)" fill="#e0e0e0"/>
          <rect id="Rectángulo_376953" data-name="Rectángulo 376953" width="46.622" height="3.349" transform="translate(238.619 224.455)" fill="#e0e0e0"/>
          <rect id="Rectángulo_376954" data-name="Rectángulo 376954" width="22.377" height="3.349" transform="translate(122.972 272.317)" fill="#e0e0e0"/>
          <rect id="Rectángulo_376955" data-name="Rectángulo 376955" width="79.326" height="3.349" transform="translate(152.385 272.317)" fill="#e0e0e0"/>
          <rect id="Rectángulo_376956" data-name="Rectángulo 376956" width="46.622" height="3.349" transform="translate(238.619 272.317)" fill="#632059"/>
          <rect id="Rectángulo_376957" data-name="Rectángulo 376957" width="46.622" height="3.349" transform="translate(238.619 316.59)" fill="#e0e0e0"/>
          <rect id="Rectángulo_376958" data-name="Rectángulo 376958" width="43.412" height="3.349" transform="translate(241.83 210.214)" fill="#e0e0e0"/>
          <rect id="Rectángulo_376959" data-name="Rectángulo 376959" width="111.513" height="3.349" transform="translate(122.972 210.125)" fill="#e0e0e0"/>
          <rect id="Rectángulo_376960" data-name="Rectángulo 376960" width="117.625" height="3.349" transform="translate(167.31 240.476)" fill="#e0e0e0"/>
          <rect id="Rectángulo_376961" data-name="Rectángulo 376961" width="117.625" height="3.349" transform="translate(167.31 255.699)" fill="#e0e0e0"/>
          <rect id="Rectángulo_376962" data-name="Rectángulo 376962" width="27.329" height="3.349" transform="translate(207.155 286.145)" fill="#e0e0e0"/>
          <rect id="Rectángulo_376963" data-name="Rectángulo 376963" width="72.961" height="3.349" transform="translate(124.207 286.145)" fill="#e0e0e0"/>
          <rect id="Rectángulo_376964" data-name="Rectángulo 376964" width="25.036" height="3.349" transform="translate(122.972 301.368)" fill="#e0e0e0"/>
          <rect id="Rectángulo_376965" data-name="Rectángulo 376965" width="58.486" height="3.349" transform="translate(203.444 331.813)" fill="#e0e0e0"/>
          <rect id="Rectángulo_376966" data-name="Rectángulo 376966" width="74.765" height="3.349" transform="translate(159.72 301.368)" fill="#e0e0e0"/>
          <rect id="Rectángulo_376967" data-name="Rectángulo 376967" width="43.004" height="3.349" transform="translate(122.972 316.59)" fill="#e0e0e0"/>
          <rect id="Rectángulo_376968" data-name="Rectángulo 376968" width="59.659" height="3.349" transform="translate(172.493 316.59)" fill="#e0e0e0"/>
          <rect id="Rectángulo_376969" data-name="Rectángulo 376969" width="73.618" height="3.349" transform="translate(122.973 331.813)" fill="#632059"/>
          <rect id="Rectángulo_376970" data-name="Rectángulo 376970" width="16.588" height="3.349" transform="translate(268.653 331.813)" fill="#e0e0e0"/>
          <rect id="Rectángulo_376971" data-name="Rectángulo 376971" width="41.345" height="3.349" transform="translate(243.897 347.036)" fill="#e0e0e0"/>
          <rect id="Rectángulo_376972" data-name="Rectángulo 376972" width="111.513" height="3.349" transform="translate(122.972 347.036)" fill="#e0e0e0"/>
          <rect id="Rectángulo_376973" data-name="Rectángulo 376973" width="40.423" height="3.349" transform="translate(242.58 164.362)" fill="#e0e0e0"/>
          <path id="Trazado_818550" data-name="Trazado 818550" d="M291.6,146.327h-8.684v-5.522h23.649v5.522h-8.684v23.761H291.6Z" transform="translate(-31.814 33.924)" fill="#3b5620"/>
          <path id="Trazado_818551" data-name="Trazado 818551" d="M152.955,232.129a12.216,12.216,0,0,1-4.424-4.877,16.067,16.067,0,0,1,0-13.973,12.225,12.225,0,0,1,4.424-4.878,12.235,12.235,0,0,1,12.677,0,12.387,12.387,0,0,1,4.424,4.878,15.923,15.923,0,0,1,0,13.973,12.378,12.378,0,0,1-4.424,4.877,12.235,12.235,0,0,1-12.677,0m9.964-4.5a7.267,7.267,0,0,0,2.535-2.994,10.818,10.818,0,0,0,0-8.737,7.261,7.261,0,0,0-2.535-2.994,6.631,6.631,0,0,0-7.234,0,7.261,7.261,0,0,0-2.535,2.994,10.827,10.827,0,0,0,0,8.737,7.267,7.267,0,0,0,2.535,2.994,6.631,6.631,0,0,0,7.234,0" transform="translate(-16.523 31.139)" fill="#3b5620"/>
          <path id="Trazado_818552" data-name="Trazado 818552" d="M285.19,279.165q-2.7-3.126-2.7-8.926V255.477h5.232v14.537q0,7.081,5.038,7.08a4.406,4.406,0,0,0,3.747-1.713q1.291-1.714,1.291-5.367V255.477h5.167V270.24q0,5.8-2.7,8.926a10.659,10.659,0,0,1-15.082,0" transform="translate(-31.767 29.072)" fill="#3b5620"/>
          <path id="Trazado_818553" data-name="Trazado 818553" d="M261.135,251.793a20.045,20.045,0,0,1,3.746.469,9.314,9.314,0,0,1,4.069,1.89,7.245,7.245,0,0,1,1.8,2.312,5.362,5.362,0,0,1-1.266,6.518,10.784,10.784,0,0,1-3.248,1.986,34.928,34.928,0,0,1-3.8,1.232c-1.322.357-2.687.694-4.1.989a54.9,54.9,0,0,1-18.628.784,45.616,45.616,0,0,1-4.844-.93,25.247,25.247,0,0,1-4.589-1.511A6.086,6.086,0,0,1,227,261.983a4.231,4.231,0,0,1-.034-2.507,4.817,4.817,0,0,1,1.252-2.03,11.49,11.49,0,0,1,3.678-2.275c1.259-.565,2.511-1.033,3.728-1.46a47,47,0,0,1,6.91-1.812,45.947,45.947,0,0,1,10.254-.735c1.213.052,2.154.13,2.789.211l.722.092a.125.125,0,1,1,0,.051l-.725-.042c-.635-.048-1.576-.095-2.785-.118a48.7,48.7,0,0,0-10.193.889,47.7,47.7,0,0,0-6.848,1.858c-1.2.432-2.444.9-3.69,1.472a11.169,11.169,0,0,0-3.542,2.2,4.349,4.349,0,0,0-1.129,1.837,3.717,3.717,0,0,0,.037,2.211,5.619,5.619,0,0,0,3.045,3.258,25.175,25.175,0,0,0,4.5,1.473,45.766,45.766,0,0,0,4.8.918,55.159,55.159,0,0,0,18.489-.74c1.4-.287,2.764-.616,4.078-.963a35.107,35.107,0,0,0,3.767-1.192,10.485,10.485,0,0,0,3.153-1.892,5,5,0,0,0,1.236-6.08,7,7,0,0,0-1.7-2.24,9.308,9.308,0,0,0-3.945-1.917,26.917,26.917,0,0,0-2.743-.5l-.72-.105a.933.933,0,0,1-.244-.052" transform="translate(-25.502 29.256)" fill="#632059"/>
          <path id="Trazado_818554" data-name="Trazado 818554" d="M175.364,152.912a7.3,7.3,0,0,1,2.356,1.474,10.722,10.722,0,0,1,2.145,2.577,11.309,11.309,0,0,1,.975,9.8,13.153,13.153,0,0,1-3.473,5.166,12.718,12.718,0,0,1-2.683,1.923,11.339,11.339,0,0,1-3.18,1.184,12.506,12.506,0,0,1-6.989-.562,12.772,12.772,0,0,1-5.765-4.3,13.594,13.594,0,0,1-1.64-12.834,10.6,10.6,0,0,1,3.227-4.334,9.9,9.9,0,0,1,7.062-2.188,8.143,8.143,0,0,1,1.984.449,3.762,3.762,0,0,1,.651.295,12.084,12.084,0,0,0-2.648-.551,9.913,9.913,0,0,0-6.854,2.277,10.345,10.345,0,0,0-3.071,4.215,13.186,13.186,0,0,0,1.641,12.364A12.374,12.374,0,0,0,164.667,174a12.14,12.14,0,0,0,6.75.554,10.97,10.97,0,0,0,3.07-1.13,12.358,12.358,0,0,0,2.6-1.847,12.772,12.772,0,0,0,3.392-4.967,11.127,11.127,0,0,0,.607-5.318,11.368,11.368,0,0,0-1.442-4.179,10.922,10.922,0,0,0-2.043-2.578,13.938,13.938,0,0,0-2.241-1.623" transform="translate(-17.563 33.502)" fill="#632059"/>
          <path id="Trazado_818555" data-name="Trazado 818555" d="M273.951,104.651a2.2,2.2,0,0,1,.377-.056l1.112-.113c.979-.089,2.426-.185,4.291-.216a65.744,65.744,0,0,1,15.706,1.677,66.481,66.481,0,0,1,10.476,3.316,16.326,16.326,0,0,1,2.757,1.328,5.718,5.718,0,0,1,2.208,2.43,3.917,3.917,0,0,1,0,3.494,5.148,5.148,0,0,1-2.664,2.174,21.017,21.017,0,0,1-3.258.942c-1.1.277-2.223.513-3.355.76-2.269.469-4.595.9-6.975,1.246a118.432,118.432,0,0,1-14.817,1.255,117.5,117.5,0,0,1-14.854-.63,36.036,36.036,0,0,1-7-1.248,16.249,16.249,0,0,1-3.22-1.37,5.989,5.989,0,0,1-2.555-2.456,3.22,3.22,0,0,1-.3-1.852,3.478,3.478,0,0,1,.733-1.673,7.233,7.233,0,0,1,2.7-1.934,58.788,58.788,0,0,1,5.8-2.026,64.587,64.587,0,0,1,10.729-2.185,62.6,62.6,0,0,1,15.779.178,47,47,0,0,1,5.7,1.105,2.143,2.143,0,0,1-.378-.053l-1.1-.2c-.482-.1-1.079-.207-1.79-.309s-1.526-.249-2.452-.348A64.142,64.142,0,0,0,261.22,110.1a58.774,58.774,0,0,0-5.745,2.03,6.86,6.86,0,0,0-2.544,1.821,2.8,2.8,0,0,0-.369,3.022,5.572,5.572,0,0,0,2.379,2.253,15.88,15.88,0,0,0,3.14,1.327A35.84,35.84,0,0,0,265,121.77a118.342,118.342,0,0,0,14.8.618,118.933,118.933,0,0,0,14.764-1.24c2.372-.338,4.691-.766,6.952-1.23,1.129-.243,2.247-.476,3.345-.749a20.973,20.973,0,0,0,3.2-.914,4.74,4.74,0,0,0,2.457-1.969,3.438,3.438,0,0,0,0-3.077,5.3,5.3,0,0,0-2.047-2.257,15.994,15.994,0,0,0-2.69-1.307,66.9,66.9,0,0,0-10.408-3.358,67.973,67.973,0,0,0-15.635-1.828c-1.862,0-3.308.066-4.287.124l-1.114.063a2.167,2.167,0,0,1-.382,0" transform="translate(-28.321 35.47)" fill="#632059"/>
          <path id="Trazado_818556" data-name="Trazado 818556" d="M277.01,92.037a4.745,4.745,0,0,1-1.057.216,8.073,8.073,0,0,1-3.076-.264,8.756,8.756,0,0,1-4.206-2.642,6.722,6.722,0,0,1-1.577-2.851,3.971,3.971,0,0,1,.778-3.585,2.414,2.414,0,0,1,1.752-.827,3.013,3.013,0,0,1,1.89.687,3.735,3.735,0,0,1,1.233,1.8,5.369,5.369,0,0,1,.186,2.3,8.774,8.774,0,0,1-5.9,6.953,7.545,7.545,0,0,1-4.9-.023,8.962,8.962,0,0,1-4.211-3.139,9.166,9.166,0,0,1-1.315-2.5,6.035,6.035,0,0,1-.32-2.928,3.215,3.215,0,0,1,1.685-2.4,2.128,2.128,0,0,1,1.477-.1,2.647,2.647,0,0,1,1.239.854,5.359,5.359,0,0,1,1.126,2.787,7.72,7.72,0,0,1-.307,2.959,9.335,9.335,0,0,1-3.108,4.63,7.7,7.7,0,0,1-4.849,1.758,7.2,7.2,0,0,1-4.591-1.853,9.372,9.372,0,0,1-3.06-8.827,5.127,5.127,0,0,1,2.476-3.52,2.5,2.5,0,0,1,2-.061,3.208,3.208,0,0,1,1.476,1.3,4.639,4.639,0,0,1,.494,3.66,8.54,8.54,0,0,1-1.449,2.927,14.277,14.277,0,0,1-3.671,3.474,12.988,12.988,0,0,1-2.8,1.393c-.338.112-.6.192-.773.234a1.1,1.1,0,0,1-.269.056c-.005-.023.352-.125,1.011-.384a14.209,14.209,0,0,0,2.739-1.463,14.4,14.4,0,0,0,3.562-3.48,8.3,8.3,0,0,0,1.369-2.836,4.283,4.283,0,0,0-.48-3.381,2.861,2.861,0,0,0-1.325-1.154,2.175,2.175,0,0,0-1.738.069,4.762,4.762,0,0,0-2.246,3.263,8.933,8.933,0,0,0,2.955,8.37,6.789,6.789,0,0,0,4.331,1.735,7.288,7.288,0,0,0,4.573-1.674,8.855,8.855,0,0,0,2.939-4.386,7.21,7.21,0,0,0,.288-2.75,4.864,4.864,0,0,0-1.008-2.51,1.837,1.837,0,0,0-2.2-.63,2.729,2.729,0,0,0-1.414,2.037,5.524,5.524,0,0,0,.3,2.668,8.693,8.693,0,0,0,1.24,2.362,8.525,8.525,0,0,0,3.991,2.99,7.149,7.149,0,0,0,4.645.037,8.36,8.36,0,0,0,5.639-6.569,3.976,3.976,0,0,0-1.251-3.73,2.694,2.694,0,0,0-1.673-.627,2.088,2.088,0,0,0-1.525.707,3.623,3.623,0,0,0-.726,3.259,6.485,6.485,0,0,0,1.48,2.738,8.689,8.689,0,0,0,4.065,2.646,8.434,8.434,0,0,0,3.021.351c.7-.047,1.06-.147,1.065-.116" transform="translate(-27.368 36.442)" fill="#632059"/>
          <path id="Trazado_818557" data-name="Trazado 818557" d="M287.427,88.789c0-.034.241-.029.671.011a4.1,4.1,0,0,1,.778.125,7.049,7.049,0,0,1,1.014.278,10.862,10.862,0,0,1,2.482,1.209,13.616,13.616,0,0,1,2.592,2.269,14.452,14.452,0,0,1,1.934,2.937,12.753,12.753,0,0,1,.959,2.75,8.532,8.532,0,0,1,.192,1.108,5.128,5.128,0,0,1,.067.847,2.19,2.19,0,0,1-.033.723c-.09.007-.115-1.024-.541-2.586a14.1,14.1,0,0,0-1.02-2.624,15.284,15.284,0,0,0-1.9-2.813,14.5,14.5,0,0,0-2.48-2.221,12.161,12.161,0,0,0-2.362-1.265c-1.417-.557-2.369-.651-2.357-.747" transform="translate(-32.321 36.125)" fill="#632059"/>
          <path id="Trazado_818558" data-name="Trazado 818558" d="M292.55,87.681a16.163,16.163,0,0,1-2.14-.42,26.324,26.324,0,0,0-5.182-.513h-.009l.219-.328c.64,2.1,1.2,4.015,1.575,5.405a11.88,11.88,0,0,1,.524,2.284,11.405,11.405,0,0,1-.834-2.174c-.459-1.363-1.063-3.257-1.7-5.359l-.1-.329.32,0h.008a20.358,20.358,0,0,1,5.252.668,6.977,6.977,0,0,1,2.071.765" transform="translate(-32.037 36.232)" fill="#632059"/>
        </g>
      </g>
      <g id="Grupo_1072101" data-name="Grupo 1072101" transform="translate(-18.851 114.046)">
        <g id="Grupo_1072100" data-name="Grupo 1072100" clip-path="url(#clip-path-3)">
          <path id="Trazado_818559" data-name="Trazado 818559" d="M174.8,405.819s-2.766-20.738-2.536-32.8-.014-25.64-.014-25.64h1.275s-.864,23.95.076,38.394,3.412,20.05,3.412,20.05Z" transform="translate(-19.369 -14.697)" fill="#263238"/>
          <path id="Trazado_818560" data-name="Trazado 818560" d="M182.787,322.914a3.687,3.687,0,0,0-1.162-1.854,2.99,2.99,0,0,0-2.771.022c-3.852,1.484-7.266,9.315-8.823,13.434l5.113,18.788c9.23-9.338,10.828-21.585,7.643-30.389" transform="translate(-19.12 -13.57)" fill="#3b5620"/>
          <path id="Trazado_818561" data-name="Trazado 818561" d="M181.974,321.869a1.1,1.1,0,0,1-.075.245l-.25.685c-.224.591-.539,1.451-.914,2.518-.753,2.133-1.713,5.116-2.57,8.477s-1.442,6.457-1.805,8.709c-.182,1.125-.32,2.039-.406,2.671-.044.3-.08.536-.109.727a1.193,1.193,0,0,1-.052.252,1.176,1.176,0,0,1,.011-.258c.018-.193.041-.435.069-.733.063-.637.177-1.555.342-2.687a86.71,86.71,0,0,1,1.748-8.744,85.64,85.64,0,0,1,2.634-8.474c.395-1.062.73-1.913.978-2.494l.288-.668a1.16,1.16,0,0,1,.113-.226" transform="translate(-19.767 -13.618)" fill="#263238"/>
          <path id="Trazado_818562" data-name="Trazado 818562" d="M172.231,358.233c-4.793-2.887-7.618-8.32-7.881-14.285-.184-4.169.991-8.26,2.322-12.173a1.58,1.58,0,0,1,.541-.884,1.285,1.285,0,0,1,1.306.222c3.483,2.162,5.593,6.285,6.716,10.48a22.982,22.982,0,0,1,.788,8.619,14.8,14.8,0,0,1-3.792,8.021" transform="translate(-18.479 -13.995)" fill="#455a64"/>
          <path id="Trazado_818563" data-name="Trazado 818563" d="M172.8,358.368a1.17,1.17,0,0,1-.019-.252c0-.191-.008-.429-.012-.721,0-.626-.025-1.531-.072-2.649a78.78,78.78,0,0,0-.89-8.679c-.532-3.365-1.177-6.378-1.652-8.556-.235-1.066-.427-1.939-.568-2.579-.059-.285-.108-.518-.147-.7a1.137,1.137,0,0,1-.037-.249,1.122,1.122,0,0,1,.078.238c.05.183.111.412.186.692.157.6.375,1.478.632,2.563.513,2.169,1.182,5.182,1.716,8.557a68.922,68.922,0,0,1,.831,8.711c.028,1.121.029,2.028.005,2.656-.011.292-.02.531-.027.721a1.165,1.165,0,0,1-.024.251" transform="translate(-19.049 -14.13)" fill="#263238"/>
          <g id="Grupo_1072096" data-name="Grupo 1072096" transform="translate(145.851 316.788)" opacity="0.3">
            <g id="Grupo_1072095" data-name="Grupo 1072095">
              <g id="Grupo_1072094" data-name="Grupo 1072094" clip-path="url(#clip-path-8)">
                <path id="Trazado_818564" data-name="Trazado 818564" d="M172.231,358.233c-4.793-2.887-7.618-8.32-7.881-14.285-.184-4.169.991-8.26,2.322-12.173a1.58,1.58,0,0,1,.541-.884,1.285,1.285,0,0,1,1.306.222c3.483,2.162,5.593,6.285,6.716,10.48a22.982,22.982,0,0,1,.788,8.619,14.8,14.8,0,0,1-3.792,8.021" transform="translate(-164.33 -330.783)" fill="#3b5620"/>
              </g>
            </g>
          </g>
          <path id="Trazado_818565" data-name="Trazado 818565" d="M179.324,392.559c4.717,1.13,8.6,4.758,13.153,6.522,3.011,1.167,6.416,1.58,8.82,3.876a7.844,7.844,0,0,0-3.273-3.55A56.679,56.679,0,0,0,186.1,393.2c-2.141-.806-4.463-1.48-6.646-.816" transform="translate(-20.165 -16.59)" fill="#3b5620"/>
          <path id="Trazado_818566" data-name="Trazado 818566" d="M169.358,397.063c-5.908-.1-12.128-5.588-18.008-5.916,6.153-2.166,14.965-.4,18.008,5.916" transform="translate(-17.019 -16.512)" fill="#3b5620"/>
          <path id="Trazado_818567" data-name="Trazado 818567" d="M174.24,380.881a17.706,17.706,0,0,1,9.444-.7,53.685,53.685,0,0,1,9.221,2.733c-.3-2.235-1.963-3.916-3.523-5.4a24.963,24.963,0,0,0-3.7-3.1,7.751,7.751,0,0,0-4.44-1.367,6.842,6.842,0,0,0-4.9,2.694,9.271,9.271,0,0,0-2.1,5.147" transform="translate(-19.593 -15.783)" fill="#3b5620"/>
          <path id="Trazado_818568" data-name="Trazado 818568" d="M158.775,373.666c-3.719-3.462-9.352-3.124-14.241-3a114.974,114.974,0,0,1,22.086,15.006c.2-3.768-3.147-7.63-7.845-12" transform="translate(-16.253 -15.68)" fill="#455a64"/>
          <g id="Grupo_1072099" data-name="Grupo 1072099" transform="translate(128.282 354.914)" opacity="0.3">
            <g id="Grupo_1072098" data-name="Grupo 1072098">
              <g id="Grupo_1072097" data-name="Grupo 1072097" clip-path="url(#clip-path-9)">
                <path id="Trazado_818569" data-name="Trazado 818569" d="M158.775,373.666c-3.719-3.462-9.352-3.124-14.241-3a114.974,114.974,0,0,1,22.086,15.006c.2-3.768-3.147-7.63-7.845-12" transform="translate(-144.535 -370.594)" fill="#3b5620"/>
              </g>
            </g>
          </g>
          <path id="Trazado_818570" data-name="Trazado 818570" d="M176.122,368.075a40.766,40.766,0,0,1,5.719-3.625c1.957-.969,3.784-2.514,5.674-3.631a62.337,62.337,0,0,0,6.825-5.253,17.142,17.142,0,0,1,7.475-3.89,13.543,13.543,0,0,0-6.8.429,41.848,41.848,0,0,0-6.4,2.716,30.736,30.736,0,0,0-8.224,5.2c-2.371,2.314-4.515,4.6-4.264,8.055" transform="translate(-19.803 -14.868)" fill="#455a64"/>
          <path id="Trazado_818571" data-name="Trazado 818571" d="M191.751,397.148a.725.725,0,0,1-.187-.088l-.516-.291c-.445-.259-1.083-.641-1.888-1.081-.4-.23-.839-.468-1.318-.714s-.989-.509-1.534-.767a21.192,21.192,0,0,0-3.638-1.382,7.184,7.184,0,0,0-3.789-.1,10.139,10.139,0,0,0-1.606.523,7.888,7.888,0,0,0-1.3.726,8.45,8.45,0,0,0-1.629,1.467c-.343.4-.509.644-.525.632a.858.858,0,0,1,.107-.19,6.054,6.054,0,0,1,.357-.5,7.952,7.952,0,0,1,2.92-2.309,9.916,9.916,0,0,1,1.627-.553,7.249,7.249,0,0,1,3.883.086,20.4,20.4,0,0,1,3.667,1.413c.546.263,1.061.524,1.533.789s.916.5,1.31.74c.8.461,1.426.866,1.859,1.148l.5.328a.754.754,0,0,1,.166.128" transform="translate(-19.547 -16.597)" fill="#263238"/>
          <path id="Trazado_818572" data-name="Trazado 818572" d="M166.675,394.03a1.248,1.248,0,0,1,.37.118,7.937,7.937,0,0,1,.962.457,11.753,11.753,0,0,1,2.823,2.183,12.724,12.724,0,0,1,2.113,2.988,9.408,9.408,0,0,1,.456,1.03,1.576,1.576,0,0,1,.123.4c-.035.016-.255-.53-.709-1.347a14.471,14.471,0,0,0-2.13-2.9,13.53,13.53,0,0,0-2.746-2.2c-.768-.463-1.276-.681-1.263-.718" transform="translate(-18.743 -16.671)" fill="#263238"/>
          <path id="Trazado_818573" data-name="Trazado 818573" d="M151.948,373.464a1.16,1.16,0,0,1,.252.081l.708.275,1.118.45c.436.176.909.437,1.444.693a33.875,33.875,0,0,1,7.691,5.344,39.368,39.368,0,0,1,3.587,3.851,42.832,42.832,0,0,1,2.546,3.517c.675,1.042,1.186,1.91,1.536,2.51l.4.69a1.356,1.356,0,0,1,.13.249,1.324,1.324,0,0,1-.166-.222c-.1-.15-.253-.374-.438-.667-.372-.586-.9-1.438-1.589-2.465s-1.551-2.211-2.57-3.471a40.966,40.966,0,0,0-3.578-3.817,35.8,35.8,0,0,0-7.618-5.371c-.529-.265-1-.535-1.426-.723l-1.1-.485-.694-.315a1.16,1.16,0,0,1-.238-.124" transform="translate(-17.087 -15.801)" fill="#263238"/>
          <path id="Trazado_818574" data-name="Trazado 818574" d="M183.005,377.427a1.888,1.888,0,0,1-.471-.066l-.542-.109c-.211-.045-.458-.046-.726-.076a6.9,6.9,0,0,0-4.06.873,7.393,7.393,0,0,0-1.848,1.495,9.013,9.013,0,0,0-1.188,1.6,13.818,13.818,0,0,0-.812,1.689,2.01,2.01,0,0,1,.12-.5,7.486,7.486,0,0,1,.565-1.274,8.548,8.548,0,0,1,1.176-1.664,7.335,7.335,0,0,1,1.888-1.549,6.7,6.7,0,0,1,4.171-.831,7.255,7.255,0,0,1,.732.111l.541.148a1.928,1.928,0,0,1,.453.153" transform="translate(-19.494 -15.949)" fill="#263238"/>
          <path id="Trazado_818575" data-name="Trazado 818575" d="M188.909,356.475a1.239,1.239,0,0,1-.224.15l-.659.39c-.573.337-1.4.834-2.4,1.478s-2.172,1.454-3.422,2.429a29.348,29.348,0,0,0-3.821,3.49,10.53,10.53,0,0,0-1.563,2.207c-.387.81-.756,1.594-1.1,2.345-.683,1.5-1.239,2.886-1.641,4.075a26.64,26.64,0,0,0-.8,2.868c-.151.69-.206,1.078-.226,1.075a1.42,1.42,0,0,1,.024-.284c.021-.186.057-.461.122-.809a22.829,22.829,0,0,1,.738-2.9,41.038,41.038,0,0,1,1.607-4.112c.336-.758.7-1.544,1.088-2.356a10.622,10.622,0,0,1,1.594-2.263,28.356,28.356,0,0,1,3.861-3.5c1.262-.971,2.45-1.76,3.46-2.4s1.851-1.1,2.437-1.417q.417-.217.678-.351a1.09,1.09,0,0,1,.242-.11" transform="translate(-19.46 -15.082)" fill="#263238"/>
          <path id="Trazado_818576" data-name="Trazado 818576" d="M171.753,376.249a2.869,2.869,0,0,1-.117-.543c-.069-.4-.155-.9-.258-1.488a45.182,45.182,0,0,0-1.117-4.833,44.646,44.646,0,0,0-1.687-4.634c-.229-.55-.422-1.011-.576-1.379a2.761,2.761,0,0,1-.189-.518,2.751,2.751,0,0,1,.263.478c.157.315.377.775.637,1.349a35.571,35.571,0,0,1,1.753,4.633,36.213,36.213,0,0,1,1.063,4.876c.092.633.159,1.147.193,1.5a2.832,2.832,0,0,1,.036.556" transform="translate(-18.87 -15.352)" fill="#263238"/>
          <path id="Trazado_818577" data-name="Trazado 818577" d="M169.721,360.719a18.663,18.663,0,0,0-1.921-6.955,21.336,21.336,0,0,0-14.271-11.6q6.606,10.735,13.211,21.471l1.707,3.832a11.851,11.851,0,0,0,1.274-6.745" transform="translate(-17.264 -14.477)" fill="#3b5620"/>
          <rect id="Rectángulo_376977" data-name="Rectángulo 376977" width="30.722" height="5.937" transform="translate(140.685 388.557)" fill="#632059"/>
          <path id="Trazado_818578" data-name="Trazado 818578" d="M161.1,410.692l2.616,18.422h20.4l3.122-18.422Z" transform="translate(-18.115 -17.376)" fill="#632059"/>
          <path id="Trazado_818579" data-name="Trazado 818579" d="M189.183,411.925c0,.065-6.93.118-15.476.118s-15.477-.053-15.477-.118,6.928-.118,15.477-.118,15.476.053,15.476.118" transform="translate(-17.793 -17.423)" fill="#263238"/>
        </g>
      </g>
      <g id="Grupo_1072118" data-name="Grupo 1072118" transform="translate(-18.851 114.046)">
        <g id="Grupo_1072117" data-name="Grupo 1072117" clip-path="url(#clip-path-3)">
          <path id="Trazado_818580" data-name="Trazado 818580" d="M452.286,155.95c-5.726-1.06-9.572-6.93-8.59-13.109s6.421-10.329,12.148-9.269,9.573,6.929,8.591,13.109-6.422,10.329-12.149,9.269" transform="translate(-49.877 -5.644)" fill="#632059"/>
          <path id="Trazado_818581" data-name="Trazado 818581" d="M273.111,263.695l20.848-2.555L437.3,156.481l-12.138-18.69-142.6,104.34-10.373,20.081a1.052,1.052,0,0,0,.92,1.483" transform="translate(-30.597 -5.83)" fill="#632059"/>
          <g id="Grupo_1072104" data-name="Grupo 1072104" transform="translate(241.553 236.302)" opacity="0.7">
            <g id="Grupo_1072103" data-name="Grupo 1072103">
              <g id="Grupo_1072102" data-name="Grupo 1072102" clip-path="url(#clip-path-11)">
                <path id="Trazado_818582" data-name="Trazado 818582" d="M282.571,246.742a1.933,1.933,0,0,1,.99,2.442,4.515,4.515,0,0,1,4.805,1.95,5.8,5.8,0,0,1,.711,5.642,6.163,6.163,0,0,1,4.423,3.341,6.537,6.537,0,0,1,.3,5.651l-20.551,2.521a1.127,1.127,0,0,1-.985-1.587Z" transform="translate(-272.157 -246.742)" fill="#fff"/>
              </g>
            </g>
          </g>
          <path id="Trazado_818583" data-name="Trazado 818583" d="M280.532,267.478c.2-1.21.225-4.351-3.986-6.935a.63.63,0,0,0-.932.22l-3.472,6.722a1,1,0,0,0,.874,1.409l6.977-.855a.633.633,0,0,0,.539-.561" transform="translate(-30.592 -11.018)" fill="#632059"/>
          <g id="Grupo_1072107" data-name="Grupo 1072107" transform="translate(258.473 141.436)" opacity="0.3">
            <g id="Grupo_1072106" data-name="Grupo 1072106">
              <g id="Grupo_1072105" data-name="Grupo 1072105" clip-path="url(#clip-path-12)">
                <path id="Trazado_818584" data-name="Trazado 818584" d="M291.221,252.584,433.8,147.683l6.07,8.951L296.11,261.557l-.17.02a5.129,5.129,0,0,0,.519-2.27,7.266,7.266,0,0,0-.739-3.232,6.6,6.6,0,0,0-2.681-2.894,4.865,4.865,0,0,0-1.817-.6" transform="translate(-291.221 -147.684)"/>
              </g>
            </g>
          </g>
          <g id="Grupo_1072110" data-name="Grupo 1072110" transform="translate(251.966 131.375)" opacity="0.3">
            <g id="Grupo_1072109" data-name="Grupo 1072109">
              <g id="Grupo_1072108" data-name="Grupo 1072108" clip-path="url(#clip-path-13)">
                <path id="Trazado_818585" data-name="Trazado 818585" d="M284.879,244.548,429,139.614l-1.354-2.435L283.889,242.105a2.088,2.088,0,0,1,1.12,2.1,1.659,1.659,0,0,1-.13.343" transform="translate(-283.89 -137.179)"/>
              </g>
            </g>
          </g>
          <path id="Trazado_818586" data-name="Trazado 818586" d="M288.394,262.378a.3.3,0,0,0,.184-.17.71.71,0,0,0-.221-.779,2.028,2.028,0,0,0-1.172-.428.94.94,0,0,0-.667.208.83.83,0,0,0-.271.779,1.581,1.581,0,0,0,.554.885,4.163,4.163,0,0,0,.941.592,5.177,5.177,0,0,0,2.215.56,1.077,1.077,0,0,0,.963-.49,1.585,1.585,0,0,0-.037-1.329,4.262,4.262,0,0,0-2.184-1.935,3.783,3.783,0,0,0-4.581.9,1.417,1.417,0,0,0-.176,1.17,3.325,3.325,0,0,0,.573,1.127,8.842,8.842,0,0,0,1.588,1.6,7.93,7.93,0,0,0,2.715,1.4,7.329,7.329,0,0,0,.773.167c.177.026.27.047.27.047a4.641,4.641,0,0,1-1.046-.156,7.7,7.7,0,0,1-2.754-1.37,8.832,8.832,0,0,1-1.622-1.611,3.476,3.476,0,0,1-.607-1.184,1.56,1.56,0,0,1,.185-1.281,3.866,3.866,0,0,1,4.708-.944,5.549,5.549,0,0,1,1.291.794,3.417,3.417,0,0,1,.979,1.235,1.738,1.738,0,0,1,.033,1.468,1.167,1.167,0,0,1-1.047.537,5.271,5.271,0,0,1-2.267-.584,4.31,4.31,0,0,1-.966-.62,1.711,1.711,0,0,1-.592-.972.913.913,0,0,1,.3-.859,1,1,0,0,1,.713-.212,2.08,2.08,0,0,1,1.211.469.75.75,0,0,1,.217.84c-.091.171-.216.148-.208.151" transform="translate(-31.91 -10.989)" fill="#fff"/>
          <path id="Trazado_818587" data-name="Trazado 818587" d="M278.847,256.29c.008-.014.226.211.669.5a5.291,5.291,0,0,0,1.985.752,10.846,10.846,0,0,0,2.959.014,9.637,9.637,0,0,1,3.667.159,7.638,7.638,0,0,1,3.421,2.237,9.133,9.133,0,0,1,1.82,3.1,8.867,8.867,0,0,1,.482,2.352,5.409,5.409,0,0,1,0,.85,1.525,1.525,0,0,1-.011-.221c0-.145-.011-.358-.036-.634a9.25,9.25,0,0,0-.516-2.322,9.125,9.125,0,0,0-1.81-3.033,7.571,7.571,0,0,0-3.357-2.184,9.73,9.73,0,0,0-3.627-.166,10.661,10.661,0,0,1-2.987-.047,5.23,5.23,0,0,1-2-.808,3.709,3.709,0,0,1-.651-.552" transform="translate(-31.356 -10.843)" fill="#fff"/>
          <path id="Trazado_818588" data-name="Trazado 818588" d="M281.455,250.908a2.861,2.861,0,0,0,.892,1.369,12.336,12.336,0,0,0,3.281,1.7,18.138,18.138,0,0,0,3.423.928c.439.076.8.118,1.041.149a1.965,1.965,0,0,1,.383.057,1.953,1.953,0,0,1-.379,0c-.245-.013-.6-.039-1.042-.1a15.921,15.921,0,0,1-3.447-.892,17.7,17.7,0,0,1-1.86-.825,6.605,6.605,0,0,1-1.449-.941,2.786,2.786,0,0,1-.727-1.007,1.684,1.684,0,0,1-.116-.442" transform="translate(-31.65 -10.616)" fill="#fff"/>
          <path id="Trazado_818589" data-name="Trazado 818589" d="M290.4,252.01a2.883,2.883,0,0,1-.751.078,3.957,3.957,0,0,1-1.878-.371,2.979,2.979,0,0,1-1.466-1.588,2.2,2.2,0,0,1-.146-.664.6.6,0,0,1,.015-.236,3.377,3.377,0,0,0,.215.869,2.949,2.949,0,0,0,1.416,1.482,4.368,4.368,0,0,0,1.83.4,5.451,5.451,0,0,1,.766.03" transform="translate(-32.178 -10.545)" fill="#fff"/>
          <path id="Trazado_818590" data-name="Trazado 818590" d="M276.875,259.213c0-.006.036-.01.108-.013s.177-.009.316-.006a1.3,1.3,0,0,1,.516.1,1.9,1.9,0,0,1,.606.48c.4.423.8,1.013,1.28,1.617a17.318,17.318,0,0,0,1.676,1.825,31.39,31.39,0,0,0,3.427,2.745l1.076.761a3.542,3.542,0,0,1,.39.294,3.157,3.157,0,0,1-.409-.244c-.259-.167-.634-.41-1.094-.723a27.252,27.252,0,0,1-3.461-2.723,16.538,16.538,0,0,1-1.686-1.852c-.478-.617-.865-1.2-1.254-1.628a1.408,1.408,0,0,0-1.059-.6,2.849,2.849,0,0,1-.43-.04" transform="translate(-31.135 -10.966)" fill="#fff"/>
          <path id="Trazado_818591" data-name="Trazado 818591" d="M455.578,157.374l-11.4-19.305a.612.612,0,0,1,.166-.807l5.513-3.791a.519.519,0,0,1,.749.179l11.4,19.305a.613.613,0,0,1-.166.807l-5.514,3.791a.519.519,0,0,1-.748-.179" transform="translate(-49.938 -5.643)" fill="#e0e0e0"/>
          <path id="Trazado_818592" data-name="Trazado 818592" d="M455.56,157.367c.006,0,.033.044.109.112a.507.507,0,0,0,.4.123c.186-.017.37-.213.615-.371l.828-.586,2.276-1.6,1.424-.994.384-.267c.136-.1.262-.164.319-.288a.517.517,0,0,0,.025-.408c-.052-.121-.167-.289-.249-.434L450.462,133.73a.38.38,0,0,0-.486-.165c-.177.105-.415.281-.619.418l-1.262.867-2.468,1.694-1.2.825a.45.45,0,0,0-.2.483.485.485,0,0,0,.051.127l.092.158.186.316,1.45,2.465,5,8.539c1.407,2.42,2.548,4.386,3.352,5.771.382.668.682,1.2.9,1.577.092.17.168.305.227.415a.684.684,0,0,1,.069.148.623.623,0,0,1-.094-.129l-.253-.4-.945-1.545c-.824-1.371-1.993-3.319-3.431-5.717l-5.059-8.5-1.458-2.46-.186-.315-.094-.159a.785.785,0,0,1-.086-.217.772.772,0,0,1,.319-.817l1.2-.827,2.465-1.7,1.262-.868c.223-.147.4-.287.663-.443a.668.668,0,0,1,.849.287c4.351,7.4,8.29,14.1,11.155,18.977a5.39,5.39,0,0,1,.264.475.749.749,0,0,1-.043.595,1.023,1.023,0,0,1-.388.358l-.387.262-1.436.973-2.3,1.551-.843.562c-.248.146-.436.34-.656.354a.529.529,0,0,1-.426-.163.387.387,0,0,1-.089-.136" transform="translate(-49.92 -5.636)" fill="#263238"/>
          <path id="Trazado_818593" data-name="Trazado 818593" d="M451.957,136.034a23.64,23.64,0,0,1-3.009,2.354,23.2,23.2,0,0,1-3.173,2.089,23.642,23.642,0,0,1,3.009-2.354,23.1,23.1,0,0,1,3.173-2.089" transform="translate(-50.127 -5.755)" fill="#263238"/>
          <path id="Trazado_818594" data-name="Trazado 818594" d="M457.094,143.564a33.31,33.31,0,0,1-3.05,2.527,33.251,33.251,0,0,1-3.141,2.4,20.861,20.861,0,0,1,2.965-2.653,20.12,20.12,0,0,1,3.226-2.27" transform="translate(-50.704 -6.074)" fill="#263238"/>
          <path id="Trazado_818595" data-name="Trazado 818595" d="M462.248,151.949a33.3,33.3,0,0,1-3.051,2.527,33.259,33.259,0,0,1-3.141,2.4,20.866,20.866,0,0,1,2.965-2.653,20.117,20.117,0,0,1,3.226-2.27" transform="translate(-51.284 -6.429)" fill="#263238"/>
          <path id="Trazado_818596" data-name="Trazado 818596" d="M357.117,195.656s-.941-4.288-2.244-5.088c-.591-.364-1.394.95-1.206,2.082s.677,5.079.677,5.079Z" transform="translate(-39.767 -8.06)" fill="#ffc09d"/>
          <path id="Trazado_818597" data-name="Trazado 818597" d="M333.562,223.09s1.161-4.371,1.458-5.056-.754-4.078-.308-4.9-.3-2.107-1.676-1.2-2.111,3.646-1.5,5.37c0,0-4.012-4.6-4.756-4.409a1.66,1.66,0,0,0-1.313,1.678s-1.94-1.377-2.558,1.4c0,0-1.443-.414-1.661,2.133,0,0-1.03-.284-1.085,1.585s-.37,3.773,1.034,4.622,8.041,5.741,8.041,5.741l6.553,5.566,7.926-5.382Z" transform="translate(-35.995 -8.954)" fill="#ffc09d"/>
          <path id="Trazado_818598" data-name="Trazado 818598" d="M327.931,217.973a8.269,8.269,0,0,0-.94-1.661,8.146,8.146,0,0,0-1.019-1.607,4.026,4.026,0,0,0,.724,1.813c.55.922,1.166,1.524,1.235,1.455" transform="translate(-36.654 -9.084)" fill="#ff9b6c"/>
          <path id="Trazado_818599" data-name="Trazado 818599" d="M324.559,220.347a6.549,6.549,0,0,0-.467-2.076,6.427,6.427,0,0,0-.8-1.955,6.534,6.534,0,0,0,.467,2.077,6.369,6.369,0,0,0,.8,1.954" transform="translate(-36.352 -9.152)" fill="#ff9b6c"/>
          <path id="Trazado_818600" data-name="Trazado 818600" d="M322.194,221.583a4.144,4.144,0,0,0-.122-1.678,4.042,4.042,0,0,0-.468-1.605,4.162,4.162,0,0,0,.122,1.678,4.066,4.066,0,0,0,.468,1.605" transform="translate(-36.159 -9.236)" fill="#ff9b6c"/>
          <path id="Trazado_818601" data-name="Trazado 818601" d="M329.683,219.54c.1.023.261-.4.7-.643.426-.26.845-.177.88-.276.016-.045-.08-.143-.279-.192a1.07,1.07,0,0,0-.769.134,1.214,1.214,0,0,0-.526.62c-.071.207-.048.347,0,.356" transform="translate(-37.068 -9.241)" fill="#ff9b6c"/>
          <path id="Trazado_818602" data-name="Trazado 818602" d="M327.09,221.486c.091.042.317-.326.744-.543.421-.234.827-.2.852-.307.044-.095-.457-.329-1.007-.033s-.684.863-.588.883" transform="translate(-36.778 -9.327)" fill="#ff9b6c"/>
          <path id="Trazado_818603" data-name="Trazado 818603" d="M323.8,223.491c.1.02.248-.393.649-.665.391-.289.8-.274.823-.378.01-.048-.093-.126-.289-.149a1.1,1.1,0,0,0-.726.211,1.241,1.241,0,0,0-.468.636c-.059.2-.033.336.012.346" transform="translate(-36.407 -9.405)" fill="#ff9b6c"/>
          <path id="Trazado_818604" data-name="Trazado 818604" d="M391.01,144.921a8.734,8.734,0,0,0-7.2.8,5.473,5.473,0,0,0-5.224-2.245,5.787,5.787,0,0,0-4.363,3.827,4.684,4.684,0,0,0-5.81,2.128,5.539,5.539,0,0,0,1.09,6.514,6.482,6.482,0,0,0-3.5,4.288,7.04,7.04,0,0,0,.98,5.62c-1.809.946-2.119,3.588-1.852,5.738s.841,4.453-.052,6.4c-.69,1.5-2.113,2.43-3.087,3.735s-1.314,3.553.006,4.438a4.684,4.684,0,0,0-3.57,5.311,4.386,4.386,0,0,0,5.088,3.591,5.932,5.932,0,0,0,.548,5.329,8.361,8.361,0,0,0,4.128,3.248,11.785,11.785,0,0,0,13.481-4.1l14.858-49.573a9.573,9.573,0,0,0-5.52-5.045" transform="translate(-40.298 -6.068)" fill="#263238"/>
          <path id="Trazado_818605" data-name="Trazado 818605" d="M358.755,403.712l1.4,15.743s-15.9,6.411-16.075,9.583l30.065.088-.017-2.372-1.26-8.1-1.859-15.731Z" transform="translate(-38.692 -17.047)" fill="#455a64"/>
          <path id="Trazado_818606" data-name="Trazado 818606" d="M372.2,417.632a1.367,1.367,0,0,1,.872,1.545,1.206,1.206,0,0,1-1.411.946,1.442,1.442,0,0,1-.916-1.641c.2-.629,1.024-1.122,1.569-.809" transform="translate(-41.685 -17.667)" fill="#e0e0e0"/>
          <path id="Trazado_818607" data-name="Trazado 818607" d="M374.143,430.178l-.017-2.372-28.836.6s-1.369.646-1.212,1.687Z" transform="translate(-38.69 -18.1)" fill="#263238"/>
          <path id="Trazado_818608" data-name="Trazado 818608" d="M361.63,420c.005.162.757.234,1.5.753.753.5,1.135,1.2,1.274,1.135.138-.032-.088-1-.995-1.612s-1.809-.424-1.776-.276" transform="translate(-40.665 -17.764)" fill="#263238"/>
          <path id="Trazado_818609" data-name="Trazado 818609" d="M358,421.52c-.034.157.617.431,1.129,1.116.531.668.661,1.409.81,1.4.142.025.244-.924-.408-1.762S358,421.366,358,421.52" transform="translate(-40.257 -17.831)" fill="#263238"/>
          <path id="Trazado_818610" data-name="Trazado 818610" d="M355.791,425.757c.137.033.344-.777-.043-1.663s-1.092-1.238-1.156-1.1c-.084.133.373.608.682,1.342s.368,1.409.517,1.424" transform="translate(-39.873 -17.895)" fill="#263238"/>
          <path id="Trazado_818611" data-name="Trazado 818611" d="M360.427,416.032c.063.147.752-.078,1.6-.018.85.041,1.512.348,1.59.208.086-.117-.56-.715-1.562-.771s-1.7.454-1.63.581" transform="translate(-40.53 -17.577)" fill="#263238"/>
          <path id="Trazado_818612" data-name="Trazado 818612" d="M400.4,404.181l1.288,15.475s-15.658,6.193-15.845,9.309l29.535.282,0-2.331-1.193-7.964-1.738-15.467Z" transform="translate(-43.388 -17.071)" fill="#455a64"/>
          <path id="Trazado_818613" data-name="Trazado 818613" d="M413.536,417.923a1.344,1.344,0,0,1,.848,1.524,1.185,1.185,0,0,1-1.392.92,1.42,1.42,0,0,1-.891-1.619c.2-.617,1.013-1.1,1.546-.784" transform="translate(-46.336 -17.68)" fill="#e0e0e0"/>
          <path id="Trazado_818614" data-name="Trazado 818614" d="M415.373,430.282l0-2.331-28.332.4s-1.347.627-1.2,1.65Z" transform="translate(-43.386 -18.106)" fill="#263238"/>
          <path id="Trazado_818615" data-name="Trazado 818615" d="M403.141,420.189c0,.16.742.235,1.466.75.738.494,1.109,1.186,1.245,1.122.136-.03-.081-.983-.968-1.59s-1.775-.429-1.743-.283" transform="translate(-45.333 -17.772)" fill="#263238"/>
          <path id="Trazado_818616" data-name="Trazado 818616" d="M399.563,421.656c-.035.154.6.427,1.1,1.1.517.66.642,1.389.788,1.382.138.026.244-.907-.391-1.734s-1.5-.9-1.5-.751" transform="translate(-44.931 -17.837)" fill="#263238"/>
          <path id="Trazado_818617" data-name="Trazado 818617" d="M397.37,425.805c.134.035.342-.76-.034-1.634s-1.066-1.224-1.128-1.092c-.084.131.362.6.661,1.324.314.714.354,1.386.5,1.4" transform="translate(-44.553 -17.899)" fill="#263238"/>
          <path id="Trazado_818618" data-name="Trazado 818618" d="M401.983,416.28c.061.146.739-.072,1.574-.007.835.046,1.483.351,1.56.214.086-.114-.546-.707-1.529-.767s-1.677.435-1.6.56" transform="translate(-45.203 -17.589)" fill="#263238"/>
          <path id="Trazado_818619" data-name="Trazado 818619" d="M358.931,260.788s-7.126,22.271-7.372,38.836-.492,42.91,2.7,71.971,4.668,40.736,4.668,40.736h16.218s1.72-18.2,1.474-34.491-1.426-21.455.024-39.378,3.745-28.691,6.162-34.124A38.963,38.963,0,0,0,390,283.975a61.431,61.431,0,0,0-3.372-21.9Z" transform="translate(-39.518 -11.034)" fill="#3b1335"/>
          <path id="Trazado_818620" data-name="Trazado 818620" d="M376.12,292.076c.27.895,5.082,37.405,8.593,53.509s7.417,20.366,8.1,33.466c.788,15.067,4.622,33.325,4.622,33.325h17.269s-2.428-27.851-4.857-49.621-5.937-48.61-5.4-56.663,1.89-18,0-29.278-5.972-14.255-5.972-14.255l-14.651-.714Z" transform="translate(-42.295 -11.079)" fill="#3b1335"/>
          <path id="Trazado_818621" data-name="Trazado 818621" d="M392.922,271.607a3.929,3.929,0,0,1,.267.567,11.6,11.6,0,0,1,.586,1.714,24.4,24.4,0,0,1,.57,6.673,47.283,47.283,0,0,1-1.419,9.826,33.254,33.254,0,0,1-1.886,5.528,39.627,39.627,0,0,1-3.12,5.342,33.827,33.827,0,0,0-4.384,11.053,84.516,84.516,0,0,0-1.639,9.742c-.318,2.8-.509,5.081-.653,6.653q-.105,1.139-.169,1.812a3.973,3.973,0,0,1-.083.629,4.159,4.159,0,0,1,.01-.636q.039-.675.1-1.817c.1-1.577.254-3.86.54-6.673a80.2,80.2,0,0,1,1.569-9.8,50.258,50.258,0,0,1,1.634-5.613,28.542,28.542,0,0,1,1.205-2.841,29.96,29.96,0,0,1,1.571-2.731,40.174,40.174,0,0,0,3.1-5.29,33.379,33.379,0,0,0,1.882-5.454,48.489,48.489,0,0,0,1.485-9.741,25.544,25.544,0,0,0-.451-6.625,14.225,14.225,0,0,0-.517-1.721,3.982,3.982,0,0,1-.2-.6" transform="translate(-42.842 -11.492)" fill="#455a64"/>
          <path id="Trazado_818622" data-name="Trazado 818622" d="M354.091,197.366s-3.1-2.14-4.033-1.716a3.231,3.231,0,0,0-1.39,1.34s-1.892-.391-1.727,1.86c0,0-1.724,0-1.612,2.194,0,0-1.211-.3-.951,1.553a23.344,23.344,0,0,0,2.579,6.418c1,1.217,1.614-.236,1.439-.907s-1.175-4.371-1.175-4.371,1.921,5.394,3.023,4.8c.628-.337.64-1.067.183-2.625-.317-1.082-.871-3.2-.871-3.2l1.663,3.428a.765.765,0,0,0,1.429-.07,1.832,1.832,0,0,0,.058-.919,21.253,21.253,0,0,0-1.038-3.576l1.442,2.293a.93.93,0,0,0,1.437.216,1.069,1.069,0,0,0,.348-1.089,33.032,33.032,0,0,0-2.247-4.574Z" transform="translate(-38.721 -8.275)" fill="#ffc09d"/>
          <path id="Trazado_818623" data-name="Trazado 818623" d="M399.831,159.031l.2-2.675-14.736-4.027c-4.567-.823-9.814,3.825-10.381,8.783-.631,5.509-1.2,12.26-.825,16.425.76,8.376,6.594,9.813,6.594,9.813l-.427,8.238,16.99,1.334Z" transform="translate(-42.053 -6.441)" fill="#ffc09d"/>
          <path id="Trazado_818624" data-name="Trazado 818624" d="M377.06,169.713a1.044,1.044,0,0,0,.891,1.135.962.962,0,0,0,1.069-.893,1.046,1.046,0,0,0-.889-1.136.963.963,0,0,0-1.071.894" transform="translate(-42.4 -7.142)" fill="#263238"/>
          <path id="Trazado_818625" data-name="Trazado 818625" d="M376.64,165.249c.114.148.895-.4,1.956-.329s1.806.7,1.929.562c.06-.058-.051-.316-.375-.6a2.594,2.594,0,0,0-1.535-.622,2.465,2.465,0,0,0-1.566.437c-.342.248-.466.492-.409.557" transform="translate(-42.352 -6.949)" fill="#263238"/>
          <path id="Trazado_818626" data-name="Trazado 818626" d="M387.544,170.361a1.046,1.046,0,0,0,.891,1.135.962.962,0,0,0,1.069-.893,1.045,1.045,0,0,0-.889-1.136.963.963,0,0,0-1.071.894" transform="translate(-43.579 -7.17)" fill="#263238"/>
          <path id="Trazado_818627" data-name="Trazado 818627" d="M388.378,166.18c.115.146.9-.4,1.956-.329,1.06.056,1.806.694,1.93.562.059-.058-.05-.317-.375-.605a2.591,2.591,0,0,0-1.535-.622,2.465,2.465,0,0,0-1.566.435c-.341.249-.466.493-.409.559" transform="translate(-43.672 -6.989)" fill="#263238"/>
          <path id="Trazado_818628" data-name="Trazado 818628" d="M383.171,174.408a6.64,6.64,0,0,0-1.7-.447c-.269-.048-.522-.123-.556-.325a1.58,1.58,0,0,1,.229-.855q.441-1.037.926-2.174a40.251,40.251,0,0,0,2.124-5.706,39.466,39.466,0,0,0-2.545,5.508q-.467,1.146-.893,2.19a1.81,1.81,0,0,0-.2,1.138.71.71,0,0,0,.422.457,1.738,1.738,0,0,0,.456.1,6.4,6.4,0,0,0,1.747.116" transform="translate(-42.789 -6.977)" fill="#263238"/>
          <path id="Trazado_818629" data-name="Trazado 818629" d="M381.52,188.824a19.069,19.069,0,0,0,10.725-2.3s-2.921,5.641-10.835,4.364Z" transform="translate(-42.89 -7.892)" fill="#ff9b6c"/>
          <path id="Trazado_818630" data-name="Trazado 818630" d="M388.655,162.059c.1.312,1.166.164,2.413.327,1.251.135,2.255.529,2.421.249.074-.134-.1-.427-.508-.729a3.858,3.858,0,0,0-1.8-.678,3.772,3.772,0,0,0-1.888.239c-.458.2-.689.444-.643.592" transform="translate(-43.704 -6.82)" fill="#263238"/>
          <path id="Trazado_818631" data-name="Trazado 818631" d="M376.928,162.286c.17.273.918.058,1.8.111.88.019,1.611.295,1.8.036.083-.127-.018-.4-.327-.667a2.385,2.385,0,0,0-1.432-.534,2.348,2.348,0,0,0-1.465.417c-.328.243-.447.5-.373.637" transform="translate(-42.383 -6.822)" fill="#263238"/>
          <path id="Trazado_818632" data-name="Trazado 818632" d="M374.732,155.044a12.889,12.889,0,0,1,7.019-5l12.449,1.689,1.06-.02c.233-.846,1.556-1.29,1.556-1.29,1.17-.967,5.222-1.02,8.047,2.165,1.018,1.149,1.742,4.039,1.765,5.629.009.6-.588,1.427-.122,1.757a13.328,13.328,0,0,0,1.7.13c3.166.748,5.145,3.777,4.571,8.306a2.49,2.49,0,0,0-.068.684,1.874,1.874,0,0,0,.555.89,6.3,6.3,0,0,1,.872,6.6,7.277,7.277,0,0,0-.847,1.98c-.192,1.292.683,2.443,1.36,3.528,2.032,3.254,2.468,7.981.083,10.944a6.194,6.194,0,0,0-1.543,2.287,5.974,5.974,0,0,0-.068,1.392c.015,2.364-1.14,5.008-3.281,5.507-1.188.276-2.632-.086-3.477.857a5.7,5.7,0,0,0-.759,1.5,4.325,4.325,0,0,1-5.119,2.377c-1.931-.643-2.572-9.1-2.292-11.259-2.34-.917-4.071-1.08-3.962-3.764,0,0,.362-4.618-.331-6.868s.7-7.038,1.489-9.362-.152-7.739-.364-9.891a8.41,8.41,0,0,1,.166-1.841h0l0-.006c.087-.523.2-1.113.334-1.744.05-.589.5-3.729.49-4.28-.03-2.034-2.371-.946-4.158-.3a4.3,4.3,0,0,1-1.341.26,4.65,4.65,0,0,1-3.844-1.966,6.54,6.54,0,0,1-6.784,2,19.856,19.856,0,0,1-3.217,4.04,6.023,6.023,0,0,1-4.559,1.69,14.668,14.668,0,0,1,2.624-8.622" transform="translate(-41.844 -6.34)" fill="#263238"/>
          <path id="Trazado_818633" data-name="Trazado 818633" d="M384.362,177.691a1.831,1.831,0,0,1,1.645-.843,1.669,1.669,0,0,1,1.214.621,1.246,1.246,0,0,1,.145,1.334,1.206,1.206,0,0,1-1.346.445,3.859,3.859,0,0,1-1.37-.784,1.185,1.185,0,0,1-.312-.316.4.4,0,0,1-.018-.418" transform="translate(-43.211 -7.482)" fill="#ff9b6c"/>
          <path id="Trazado_818634" data-name="Trazado 818634" d="M386.824,175.565c-.169,0-.115,1.217-1.042,2.135s-2.135.848-2.135,1.019c-.013.078.279.222.787.21a2.71,2.71,0,0,0,1.787-.781,2.739,2.739,0,0,0,.8-1.786c.019-.511-.121-.807-.2-.8" transform="translate(-43.141 -7.428)" fill="#263238"/>
          <path id="Trazado_818635" data-name="Trazado 818635" d="M406.74,199.134l-28-4.234s-9.746,14.293-12.815,30.667c-.577,3.078-1.169,6.156-1.8,9.389-2.458,12.558-4.764,23.344-4.764,23.344l27.289,3.628a29.158,29.158,0,0,0,8.548-.126l2.844-.464-2.338-10.4a222.059,222.059,0,0,0,8.437-26.9c3.667-16.087,2.6-24.906,2.6-24.906" transform="translate(-40.41 -8.246)" fill="#b7a0b4"/>
          <path id="Trazado_818636" data-name="Trazado 818636" d="M336.541,221.734l12.406,9.058s7.976-15.137,10.246-20.553,5.979-12.271,9.933-14.3,10.312-.459,10.312-.459l-4.16,18.059-6.6,15.95s-7.384,15.945-11.756,19.144-9.655,1.251-12.144-.577S329.642,231.2,329.642,231.2Z" transform="translate(-37.068 -8.246)" fill="#b7a0b4"/>
          <path id="Trazado_818637" data-name="Trazado 818637" d="M352.72,240.723a45.1,45.1,0,0,1-1.448-7.921,45.133,45.133,0,0,1,1.448,7.921" transform="translate(-39.498 -9.85)" fill="#263238"/>
          <g id="Grupo_1072113" data-name="Grupo 1072113" transform="translate(329.042 208.387)" opacity="0.3">
            <g id="Grupo_1072112" data-name="Grupo 1072112">
              <g id="Grupo_1072111" data-name="Grupo 1072111" clip-path="url(#clip-path-14)">
                <path id="Trazado_818638" data-name="Trazado 818638" d="M370.731,235.123a15.061,15.061,0,0,0,7.026-6.916,18.244,18.244,0,0,0,1.133-10.613c-2.536,5.472-5.7,12.8-8.158,17.53" transform="translate(-370.731 -217.593)"/>
              </g>
            </g>
          </g>
          <g id="Grupo_1072116" data-name="Grupo 1072116" transform="translate(346.707 192.729)" opacity="0.3">
            <g id="Grupo_1072115" data-name="Grupo 1072115">
              <g id="Grupo_1072114" data-name="Grupo 1072114" clip-path="url(#clip-path-15)">
                <path id="Trazado_818639" data-name="Trazado 818639" d="M409.306,203.02l-18.459-1.777a3.391,3.391,0,0,0,1.954,4.341,7.028,7.028,0,0,0-.08,6.214,6.081,6.081,0,0,0,4.822,3.4,5.188,5.188,0,0,1,1.472.2c1.023.4,1.513,1.61,2.127,2.578a5.6,5.6,0,0,0,3.441,2.575,3.907,3.907,0,0,0,3.884-1.39,7.741,7.741,0,0,0,1.125-4.362,83.756,83.756,0,0,0-.287-11.779" transform="translate(-390.634 -201.243)"/>
              </g>
            </g>
          </g>
          <path id="Trazado_818640" data-name="Trazado 818640" d="M398.152,253.91a7.585,7.585,0,0,1-1.853.576,25.5,25.5,0,0,1-9.271.385,7.451,7.451,0,0,1-1.889-.419,13.377,13.377,0,0,1,1.915.148,34.426,34.426,0,0,0,9.2-.382,13.277,13.277,0,0,1,1.9-.306" transform="translate(-43.309 -10.742)" fill="#263238"/>
          <path id="Trazado_818641" data-name="Trazado 818641" d="M376.382,217.08a2.89,2.89,0,0,1-.156.5c-.11.327-.307.789-.551,1.391-.5,1.2-1.262,2.91-2.222,5.015-1.927,4.207-4.645,9.988-7.751,16.315-.793,1.573-1.522,3.136-2.378,4.568a18.69,18.69,0,0,1-2.9,3.773,10.567,10.567,0,0,1-3.492,2.347,8.284,8.284,0,0,1-3.548.56,12.709,12.709,0,0,1-4.966-1.494c-.548-.289-.963-.535-1.239-.712a2.513,2.513,0,0,1-.411-.286,2.46,2.46,0,0,1,.445.219c.286.154.709.377,1.262.645a13.111,13.111,0,0,0,4.921,1.36,8.109,8.109,0,0,0,3.434-.587,10.367,10.367,0,0,0,3.375-2.311,18.554,18.554,0,0,0,2.826-3.716c.837-1.409,1.566-2.974,2.357-4.545,3.1-6.323,5.857-12.083,7.84-16.258l2.321-4.957c.262-.591.479-1.044.609-1.358a2.791,2.791,0,0,1,.222-.471" transform="translate(-38.995 -9.185)" fill="#263238"/>
          <path id="Trazado_818642" data-name="Trazado 818642" d="M413.5,189.443l-15.752-18.916c.576,4.8-1.1,9.577-3.114,13.9-1.146,2.462-2.426,5.389-1.221,7.819a16.144,16.144,0,0,0-2.6,3.835,5.843,5.843,0,0,0-.169,4.611,3.02,3.02,0,0,0,3.667,1.795,5.606,5.606,0,0,0,1.3,5.63,4.647,4.647,0,0,0,5.326.8,8.306,8.306,0,0,0,2.946,4.951,4.745,4.745,0,0,0,5.277.373,4.286,4.286,0,0,0,1.555-5.195c3.466-.826,5.631-4.857,5.734-8.686s-1.387-7.479-2.947-10.92" transform="translate(-43.883 -7.215)" fill="#263238"/>
          <path id="Trazado_818643" data-name="Trazado 818643" d="M379.26,157.221c0,.012-.084.051-.26.112a2.026,2.026,0,0,1-.8.061,3.183,3.183,0,0,1-2.384-1.771,3.551,3.551,0,0,1-.33-2.195,4.588,4.588,0,0,1,1.082-2.267,4.413,4.413,0,0,1,2.261-1.4,5.643,5.643,0,0,1,2.792.03,7.424,7.424,0,0,1,1.534.589l-.242.1a6.743,6.743,0,0,1,3.3-3.669,5.672,5.672,0,0,1,3.8-.427,5.912,5.912,0,0,1,2.337,1.113,4.33,4.33,0,0,1,.528.479c.111.122.165.189.157.2-.02.025-.261-.215-.758-.559a6.234,6.234,0,0,0-2.31-.976,5.549,5.549,0,0,0-3.626.487,6.488,6.488,0,0,0-3.1,3.5l-.071.19-.171-.089a7.365,7.365,0,0,0-1.463-.557,5.39,5.39,0,0,0-2.629-.038,4.11,4.11,0,0,0-2.1,1.279,4.267,4.267,0,0,0-1.029,2.077,3.275,3.275,0,0,0,.26,2.007,3.117,3.117,0,0,0,2.179,1.751,3.375,3.375,0,0,0,1.045-.023" transform="translate(-42.218 -6.187)" fill="#455a64"/>
          <path id="Trazado_818644" data-name="Trazado 818644" d="M415.412,169.27c-.028-.014.132-.351.3-1a7.233,7.233,0,0,0,.139-2.839,6.289,6.289,0,0,0-1.845-3.666,5.7,5.7,0,0,0-4.51-1.584l-.264.03.075-.277a8.189,8.189,0,0,0,.271-1.746,8.329,8.329,0,0,0-1.71-5.479,6.958,6.958,0,0,0-3.789-2.446,7.039,7.039,0,0,0-3.028-.1c-.713.138-1.092.3-1.1.262,0-.012.087-.059.266-.139a4.909,4.909,0,0,1,.809-.271,6.713,6.713,0,0,1,3.111-.018,7.076,7.076,0,0,1,3.984,2.48,8.645,8.645,0,0,1,1.53,7.569l-.189-.246a5.962,5.962,0,0,1,4.76,1.711,6.5,6.5,0,0,1,1.87,3.883,6.932,6.932,0,0,1-.251,2.917,4.568,4.568,0,0,1-.288.729c-.08.159-.126.238-.137.233" transform="translate(-44.974 -6.339)" fill="#455a64"/>
          <path id="Trazado_818645" data-name="Trazado 818645" d="M400.09,203.047c-.007.011-.083-.039-.219-.146a4.617,4.617,0,0,1-.56-.518,6.978,6.978,0,0,1-1.445-2.476,7.382,7.382,0,0,1-.141-4.329,7.072,7.072,0,0,1,3.095-4.094,5.993,5.993,0,0,1,1.934-.762l-.1.317a5.7,5.7,0,0,1-1.2-4.324,5.141,5.141,0,0,1,1.645-3.167,4.614,4.614,0,0,1,2-1.087,2.961,2.961,0,0,1,.6-.093c.138-.006.209,0,.21.01,0,.032-.283.057-.776.215a4.884,4.884,0,0,0-1.882,1.145,4.975,4.975,0,0,0-1.489,3.021,5.389,5.389,0,0,0,1.155,4.021l.214.253-.312.063a5.755,5.755,0,0,0-1.823.725,6.8,6.8,0,0,0-2.955,3.862,7.236,7.236,0,0,0,.065,4.132,7.44,7.44,0,0,0,1.308,2.462c.418.507.7.738.677.767" transform="translate(-44.695 -7.716)" fill="#455a64"/>
          <path id="Trazado_818646" data-name="Trazado 818646" d="M399.29,160.4,398.8,158a18.738,18.738,0,0,0-1.582,11.257c.3,1.767.848,3.664.139,5.289-.484,1.112-1.477,1.872-2.046,2.935-.719,1.346-.188,4.889-.373,5.587-.422,1.59-1.848,2.6-2.184,4.525s.091,4.242,1.691,5.16c3.011-5.358,6.09-10.925,6.8-17.145.583-5.121-.5-10.3-1.953-15.211" transform="translate(-44.153 -6.685)" fill="#263238"/>
          <path id="Trazado_818647" data-name="Trazado 818647" d="M409.6,173.282c0,.012-.089.02-.257.015a5.071,5.071,0,0,1-.731-.082,4.852,4.852,0,0,1-2.466-1.2,4.145,4.145,0,0,1-1.077-1.69,3.378,3.378,0,0,1,.036-2.363,2.743,2.743,0,0,1,1.859-1.671,1.829,1.829,0,0,1,1.327.2,1.368,1.368,0,0,1,.642,1.348,1.1,1.1,0,0,1-.4.7,1.265,1.265,0,0,1-.693.237,2.425,2.425,0,0,1-1.283-.331,6.272,6.272,0,0,1-1.883-1.6,6.878,6.878,0,0,1-1.489-4.005,7,7,0,0,1,.475-2.871,5.422,5.422,0,0,1,.34-.7c.092-.151.146-.227.156-.22.027.017-.154.344-.366.98a7.4,7.4,0,0,0-.352,2.8,6.687,6.687,0,0,0,1.486,3.787,6,6,0,0,0,1.793,1.5,2.118,2.118,0,0,0,1.106.285.746.746,0,0,0,.762-.616.98.98,0,0,0-.467-.954,1.508,1.508,0,0,0-1.083-.166,2.409,2.409,0,0,0-1.624,1.446,3.044,3.044,0,0,0-.057,2.109,3.928,3.928,0,0,0,.967,1.593,5.038,5.038,0,0,0,2.324,1.253c.611.154.963.182.96.215" transform="translate(-45.337 -6.729)" fill="#455a64"/>
          <path id="Trazado_818648" data-name="Trazado 818648" d="M418.03,179.937a13.99,13.99,0,0,1,.687-1.48,9.643,9.643,0,0,0,.949-3.754,5.752,5.752,0,0,0-1.144-3.587,8.4,8.4,0,0,0-1.14-1.062c.008-.02.155.016.4.143a3.365,3.365,0,0,1,.923.738,5.606,5.606,0,0,1,1.311,3.776,8.722,8.722,0,0,1-1.079,3.872,4.977,4.977,0,0,1-.907,1.354" transform="translate(-46.935 -7.195)" fill="#455a64"/>
        </g>
      </g>
      <g id="Grupo_1072129" data-name="Grupo 1072129" transform="translate(-18.851 114.046)">
        <g id="Grupo_1072128" data-name="Grupo 1072128" clip-path="url(#clip-path-3)">
          <path id="Trazado_818649" data-name="Trazado 818649" d="M84.281,404.321l-.588,16.67s15.506,6.243,15.676,9.336l-30-.068L69.3,404.243Z" transform="translate(16.713 -17.103)" fill="#263238"/>
          <path id="Trazado_818650" data-name="Trazado 818650" d="M74.959,420.242a1.332,1.332,0,0,0-.849,1.507,1.176,1.176,0,0,0,1.376.922,1.408,1.408,0,0,0,.893-1.6c-.2-.613-1-1.094-1.531-.788" transform="translate(16.175 -17.778)" fill="#e0e0e0"/>
          <path id="Trazado_818651" data-name="Trazado 818651" d="M69.382,431.291l.088-2.622L98.2,429.715s1.334.629,1.181,1.644Z" transform="translate(16.704 -18.137)" fill="#455a64"/>
          <path id="Trazado_818652" data-name="Trazado 818652" d="M85.718,421.553c-.005.158-.738.228-1.459.735-.734.487-1.107,1.17-1.242,1.107-.135-.031.085-.976.969-1.573s1.764-.414,1.732-.269" transform="translate(15.174 -17.829)" fill="#fff"/>
          <path id="Trazado_818653" data-name="Trazado 818653" d="M89.355,423.03c.033.153-.6.42-1.1,1.088-.517.651-.643,1.374-.79,1.367-.138.025-.237-.9.4-1.718s1.49-.887,1.493-.736" transform="translate(14.682 -17.895)" fill="#fff"/>
          <path id="Trazado_818654" data-name="Trazado 818654" d="M91.589,427.16c-.133.034-.336-.757.043-1.621s1.063-1.208,1.125-1.075c.083.13-.363.593-.664,1.308s-.359,1.373-.5,1.389" transform="translate(14.226 -17.958)" fill="#fff"/>
          <path id="Trazado_818655" data-name="Trazado 818655" d="M85.381,417.551c-.062.144-.733-.076-1.561-.016-.829.04-1.474.339-1.55.2-.085-.115.545-.7,1.521-.753s1.661.442,1.59.566" transform="translate(-9.25 -17.642)" fill="#fff"/>
          <path id="Trazado_818656" data-name="Trazado 818656" d="M45.191,403.088l-1.625,20.107,2.965,16.3a2.052,2.052,0,0,1-1.64,2.45,1.824,1.824,0,0,1-1.647-.649c-2.673-3.144-12.454-14.767-12.259-16.231.226-1.7.408-21.332.408-21.332Z" transform="translate(21.022 -17.054)" fill="#263238"/>
          <path id="Trazado_818657" data-name="Trazado 818657" d="M44.894,442.858,31.068,424.619l-.051.853a3.28,3.28,0,0,0,.563,2.061c1.1,1.585,4.211,5.891,11.609,14.673a1.835,1.835,0,0,0,1.7.652" transform="translate(21.018 -17.965)" fill="#455a64"/>
          <g id="Grupo_1072121" data-name="Grupo 1072121" transform="translate(54.565 400.184)" opacity="0.6">
            <g id="Grupo_1072120" data-name="Grupo 1072120">
              <g id="Grupo_1072119" data-name="Grupo 1072119" clip-path="url(#clip-path-17)">
                <path id="Trazado_818658" data-name="Trazado 818658" d="M35.606,418.1a1.321,1.321,0,0,1,.22,1.653,1.062,1.062,0,0,1-1.517.249,1.394,1.394,0,0,1-.224-1.752,1.1,1.1,0,0,1,1.6-.071" transform="translate(-33.868 -417.864)" fill="#fff"/>
              </g>
            </g>
          </g>
          <path id="Trazado_818659" data-name="Trazado 818659" d="M42.434,434.073c.1.063.586-.962,1.73-1.453a5.429,5.429,0,0,1,2.175-.295c.02-.049-.208-.221-.641-.318a2.786,2.786,0,0,0-1.692.2,3.047,3.047,0,0,0-1.329,1.148c-.242.4-.289.7-.244.714" transform="translate(19.736 -18.276)" fill="#fff"/>
          <path id="Trazado_818660" data-name="Trazado 818660" d="M43.752,437.023c.083.094.722-.52,1.7-.752a14.657,14.657,0,0,1,1.838-.127,2.012,2.012,0,0,0-1.93-.3c-1.119.271-1.707,1.122-1.613,1.184" transform="translate(19.587 -18.436)" fill="#fff"/>
          <path id="Trazado_818661" data-name="Trazado 818661" d="M39.878,430.286a18.522,18.522,0,0,1,2.559-1.351,17.769,17.769,0,0,1,2.81-.5,3.949,3.949,0,0,0-2.936.082,4.289,4.289,0,0,0-2.433,1.774" transform="translate(20.022 -18.117)" fill="#fff"/>
          <path id="Trazado_818662" data-name="Trazado 818662" d="M39.9,423.919c.043.124,1.1-.269,2.446-.229,1.346.021,2.388.463,2.435.34a3.546,3.546,0,0,0-2.427-.783,3.526,3.526,0,0,0-2.455.672" transform="translate(20.019 -17.907)" fill="#fff"/>
          <path id="Trazado_818663" data-name="Trazado 818663" d="M40.283,417.739a8.745,8.745,0,0,1,2.541-.311,8.928,8.928,0,0,1,2.435.842c.034-.039-.155-.307-.57-.6a3.912,3.912,0,0,0-1.825-.678,3.845,3.845,0,0,0-1.912.279c-.461.2-.694.427-.669.473" transform="translate(19.976 -17.642)" fill="#fff"/>
          <path id="Trazado_818664" data-name="Trazado 818664" d="M42.871,416.091a1.856,1.856,0,0,0,.071-.76A5.663,5.663,0,0,0,42.5,413.3a2.338,2.338,0,0,0-.866-1.185.726.726,0,0,0-.877.125,1.409,1.409,0,0,0-.35.889,2.877,2.877,0,0,0,2.209,2.862,3.062,3.062,0,0,0,3.185-1.556,1.259,1.259,0,0,0,.109-.973.747.747,0,0,0-.763-.485,2.584,2.584,0,0,0-1.271.6,5.723,5.723,0,0,0-1.367,1.477,1.885,1.885,0,0,0-.328.675,9.133,9.133,0,0,1,1.857-1.891,2.4,2.4,0,0,1,1.119-.5.4.4,0,0,1,.418.261.866.866,0,0,1-.107.635,2.73,2.73,0,0,1-2.776,1.316,2.492,2.492,0,0,1-1.907-2.4A1.029,1.029,0,0,1,41,412.52a.394.394,0,0,1,.484-.077,2.1,2.1,0,0,1,.75.989,8.369,8.369,0,0,1,.634,2.659" transform="translate(19.962 -17.432)" fill="#fff"/>
          <path id="Trazado_818665" data-name="Trazado 818665" d="M94.284,261.588a77.132,77.132,0,0,1,1.449,21.077c-.32,4.479-14.328,128.394-14.328,128.394H62.492L67.809,294.6l-1.549.363s-10.324,49.672-11.167,57.713c-.757,7.228-9.464,59.744-9.464,59.744l-17.293.214,5.523-69.463,6.427-66.65,2.418-19.4Z" transform="translate(21.319 -10.878)" fill="#233313"/>
          <path id="Trazado_818666" data-name="Trazado 818666" d="M72.752,287.32c-.008.01.034.057.122.139a1.26,1.26,0,0,0,.462.236,2.041,2.041,0,0,0,1.794-.459,3.938,3.938,0,0,0,1.224-2.637c.136-1.109.156-2.3.233-3.564.127-2.521.222-4.8.272-6.457a19.276,19.276,0,0,0,.005-2.681,19.157,19.157,0,0,0-.265,2.665c-.116,1.649-.252,3.93-.379,6.451-.076,1.256-.089,2.472-.2,3.534a3.747,3.747,0,0,1-1.047,2.465,1.985,1.985,0,0,1-1.6.53,3.374,3.374,0,0,1-.613-.223" transform="translate(16.325 -11.504)" fill="#455a64"/>
          <path id="Trazado_818667" data-name="Trazado 818667" d="M42.315,275.534a1.476,1.476,0,0,0,.53.206,8.345,8.345,0,0,0,1.511.274,10.236,10.236,0,0,0,4.985-.8,11.043,11.043,0,0,0,4.116-3.141,9.675,9.675,0,0,0,.916-1.326,1.73,1.73,0,0,0,.25-.544c-.053-.038-.474.694-1.357,1.68a11.929,11.929,0,0,1-4.062,2.963,11.12,11.12,0,0,1-4.832.892c-1.269-.052-2.043-.266-2.057-.2" transform="translate(19.747 -11.432)" fill="#455a64"/>
          <path id="Trazado_818668" data-name="Trazado 818668" d="M94.863,270.077a7.16,7.16,0,0,0,.287,2.049,15.935,15.935,0,0,0,1.9,4.564,14.906,14.906,0,0,0,3.163,3.661,6.112,6.112,0,0,0,1.639,1.079,21.148,21.148,0,0,1-4.5-4.96,23,23,0,0,1-2.5-6.394" transform="translate(13.84 -11.427)" fill="#455a64"/>
          <path id="Trazado_818669" data-name="Trazado 818669" d="M89.7,131.388a3.69,3.69,0,0,0,3.667-3.149,3.922,3.922,0,0,0-2.535-4.254,4.287,4.287,0,0,0,.414-4.57,3.637,3.637,0,0,0-3.889-1.863,4.794,4.794,0,0,0-2.451-3.8,4.158,4.158,0,0,0-4.282.318,4.612,4.612,0,0,0-6.021.2,3.534,3.534,0,0,0-3.622,2.16,4.078,4.078,0,0,0,.854,4.37" transform="translate(16.558 -4.783)" fill="#263238"/>
          <path id="Trazado_818670" data-name="Trazado 818670" d="M73.033,118.244l.767-.041c7.717-.414,14.436,5.635,15.438,13.9.933,7.689,1.872,16.2,2.015,20.341a10.034,10.034,0,0,1-7.591,10.34l1.147,10.267-19.318.389-3.427-37.274c-1.121-8.866,2.726-16.961,10.97-17.925" transform="translate(17.548 -5)" fill="#ae7461"/>
          <path id="Trazado_818671" data-name="Trazado 818671" d="M85.157,164.621a18.116,18.116,0,0,1-10.565-2.73s2.734,6.04,10.628,4.843Z" transform="translate(16.118 -6.85)" fill="#6f4439"/>
          <path id="Trazado_818672" data-name="Trazado 818672" d="M90.25,140.936a1.2,1.2,0,0,1-1.038,1.294,1.109,1.109,0,0,1-1.22-1.041,1.2,1.2,0,0,1,1.036-1.295,1.11,1.11,0,0,1,1.222,1.042" transform="translate(14.611 -5.919)" fill="#263238"/>
          <path id="Trazado_818673" data-name="Trazado 818673" d="M90.429,137.146c-.133.168-1.024-.473-2.246-.4-1.221.05-2.087.776-2.226.622-.068-.068.061-.364.438-.691a2.989,2.989,0,0,1,1.773-.7,2.835,2.835,0,0,1,1.8.521c.39.291.531.573.464.648" transform="translate(14.842 -5.753)" fill="#263238"/>
          <path id="Trazado_818674" data-name="Trazado 818674" d="M77.511,141.283a1.2,1.2,0,0,1-1.038,1.294,1.11,1.11,0,0,1-1.221-1.041,1.2,1.2,0,0,1,1.037-1.295,1.11,1.11,0,0,1,1.222,1.042" transform="translate(16.044 -5.933)" fill="#263238"/>
          <path id="Trazado_818675" data-name="Trazado 818675" d="M76.916,138.074c-.133.168-1.026-.473-2.246-.4-1.22.05-2.086.776-2.226.622-.068-.068.06-.364.438-.691a2.989,2.989,0,0,1,1.772-.7,2.839,2.839,0,0,1,1.8.521c.389.291.53.574.464.648" transform="translate(16.361 -5.792)" fill="#263238"/>
          <path id="Trazado_818676" data-name="Trazado 818676" d="M82.85,147.6a7.645,7.645,0,0,1,1.966-.493c.31-.051.6-.134.644-.366a1.825,1.825,0,0,0-.254-.986q-.5-1.2-1.04-2.513a46.3,46.3,0,0,1-2.38-6.592,45.685,45.685,0,0,1,2.866,6.37q.525,1.325,1,2.53a2.081,2.081,0,0,1,.223,1.312.814.814,0,0,1-.49.519,1.977,1.977,0,0,1-.526.108,7.452,7.452,0,0,1-2.01.111" transform="translate(15.31 -5.782)" fill="#263238"/>
          <path id="Trazado_818677" data-name="Trazado 818677" d="M77.782,132.716c-.146.343-1.209.037-2.5.062-1.29-.008-2.364.312-2.5-.029-.059-.162.157-.475.609-.768a3.66,3.66,0,0,1,1.914-.541,3.526,3.526,0,0,1,1.894.516c.442.287.647.6.582.759" transform="translate(16.322 -5.561)" fill="#263238"/>
          <path id="Trazado_818678" data-name="Trazado 818678" d="M90.15,131.465c-.243.313-1.266.057-2.479.106-1.213.012-2.23.322-2.48.021-.11-.147.037-.455.473-.762a3.743,3.743,0,0,1,1.992-.6,3.671,3.671,0,0,1,2,.5c.442.284.6.585.49.737" transform="translate(14.93 -5.51)" fill="#263238"/>
          <path id="Trazado_818679" data-name="Trazado 818679" d="M88.047,128.165s-2.344-5.258-4.8-6.383c-2.975-1.361-4.067,2.147-6.874,1.46s-5.648-1.994-8.371.467c-2.981,2.694-1.448,4.39-1.464,8.2-.066,15.469-2.475,19.971-3.553,12.745-.118-.792-2.194-1.316-2.653-4.662-.594-4.341-.993-9.629-.233-12.772a12.272,12.272,0,0,1,4.316-6.645c3.757-3.346,9.114-3.7,12.773-3.5s10.884,4.343,10.862,11.085" transform="translate(17.795 -4.952)" fill="#263238"/>
          <path id="Trazado_818680" data-name="Trazado 818680" d="M63.29,145.513a2.207,2.207,0,0,0-2.433-2.118c-1.475.232-3.082,1.228-2.832,4.528.443,5.853,5.8,4.166,5.795,4,0-.114-.324-3.958-.53-6.406" transform="translate(17.984 -6.066)" fill="#ae7461"/>
          <path id="Trazado_818681" data-name="Trazado 818681" d="M62.71,149.905c-.026-.016-.09.079-.243.173a.889.889,0,0,1-.7.078,2.549,2.549,0,0,1-1.254-2.168,3.635,3.635,0,0,1,.154-1.483,1.157,1.157,0,0,1,.651-.845.467.467,0,0,1,.579.23c.085.157.059.277.089.284s.109-.108.047-.347a.652.652,0,0,0-.241-.348.675.675,0,0,0-.534-.1,1.387,1.387,0,0,0-.919.994,3.736,3.736,0,0,0-.2,1.661,2.646,2.646,0,0,0,1.57,2.407.963.963,0,0,0,.853-.232c.157-.159.176-.293.156-.3" transform="translate(17.746 -6.15)" fill="#6f4439"/>
          <path id="Trazado_818682" data-name="Trazado 818682" d="M62.8,132.946a4.961,4.961,0,0,0,2.354,1.023,1.792,1.792,0,0,0,1.9-1.45c.045-.412-.068-.88.165-1.209.28-.393.833-.3,1.29-.276,1.588.1,3.347-1.886,3.673-3.565a1.351,1.351,0,0,0,1.914.322,5.291,5.291,0,0,0,1.251-1.326,2.206,2.206,0,0,1,1.819-1.106c.4.039.793.278,1.195.217.711-.107,1.018-1.027,1.091-1.8s.115-1.665.7-2.114c.542-.415,1.279-.231,1.94-.162s1.5-.143,1.638-.845a1.47,1.47,0,0,0-.292-1.051,3.368,3.368,0,0,0-4.22-1.214,4.958,4.958,0,0,0-4.242-3.439,4.854,4.854,0,0,0-4.567,2.911,4.655,4.655,0,0,0-4.385-.992,5.11,5.11,0,0,0-3.265,3.311,3.479,3.479,0,0,0-3.6,1.539,4.142,4.142,0,0,0-.1,4.18,3.645,3.645,0,0,0-1.7,2.961c.035,1.214,1.187,2.365,2.258,1.987a2.261,2.261,0,0,0,.893,2.714,1.937,1.937,0,0,0,2.563-.8" transform="translate(18.056 -4.863)" fill="#263238"/>
          <path id="Trazado_818683" data-name="Trazado 818683" d="M79.772,120.323a.311.311,0,0,1,0,.107c0,.071,0,.178-.02.315a3.953,3.953,0,0,1-.343,1.151,4.15,4.15,0,0,1-1.141,1.451,3.462,3.462,0,0,1-2.194.8l.086-.135a2.284,2.284,0,0,1-.035,1.625,6.17,6.17,0,0,1-.864,1.491,4.285,4.285,0,0,1-.577.706,1.836,1.836,0,0,1-.846.391,1.891,1.891,0,0,1-1.78-.582l.2-.074a4.509,4.509,0,0,1-1.589,3.135,2.861,2.861,0,0,1-1.756.727,5.006,5.006,0,0,1-1.777-.323l.142-.077a4.659,4.659,0,0,1-1.2,1.879,2.176,2.176,0,0,1-1.867.657,3.1,3.1,0,0,1-2.421-2.4l.126.056a2.638,2.638,0,0,1-1.853.4,2.922,2.922,0,0,1-1.331-.557,2.737,2.737,0,0,1-.64-.684,1.385,1.385,0,0,1-.152-.3,3.432,3.432,0,0,0,.843.9,2.875,2.875,0,0,0,1.3.5,2.525,2.525,0,0,0,1.748-.406l.1-.068.028.124a2.922,2.922,0,0,0,2.289,2.225,1.983,1.983,0,0,0,1.693-.619,4.435,4.435,0,0,0,1.13-1.782l.037-.11.1.034a4.84,4.84,0,0,0,1.7.306,2.635,2.635,0,0,0,1.621-.675,4.265,4.265,0,0,0,1.5-2.955l.021-.279.179.2a1.682,1.682,0,0,0,1.572.514,1.624,1.624,0,0,0,.749-.34,4.159,4.159,0,0,0,.545-.661,6.012,6.012,0,0,0,.846-1.429,2.06,2.06,0,0,0,.05-1.471l-.051-.138.138,0a3.332,3.332,0,0,0,2.1-.735,4.1,4.1,0,0,0,1.137-1.376,4.8,4.8,0,0,0,.449-1.522" transform="translate(17.99 -5.091)" fill="#455a64"/>
          <path id="Trazado_818684" data-name="Trazado 818684" d="M82.368,152.662c-.041-.217-1.363.156-2.6-.8s-1.463-2.515-1.65-2.473c-.088,0-.174.411-.034,1.057a3.708,3.708,0,0,0,1.3,2.086,2.8,2.8,0,0,0,2.159.577c.566-.1.855-.354.823-.45" transform="translate(15.733 -6.321)" fill="#263238"/>
          <path id="Trazado_818685" data-name="Trazado 818685" d="M96.4,262.48l1.574-1.809c-1.8-7.933-1.319-18.468-1.375-28.142,3.034,4.1,10.357,5.352,13.407-3.532,2.952-8.6.725-22.811.725-22.811s.99,2.172-6.224-17a41.324,41.324,0,0,0-3.337-6.967c-.086-.189-.17-.365-.246-.518a15.178,15.178,0,0,0-11.9-8.082c-.536-.036-1.866.009-3.729.111l-1.313-.464-1.508-4.839-3.6,4.293L61.676,163.95l-1.651,6.855-12.238,5.822s-7.529,3.3-7.529,8.755l6.153,43.143L43.4,259.349A259.538,259.538,0,0,0,74.007,264.1c15.711,1.37,22.39-1.616,22.39-1.616" transform="translate(19.979 -6.937)" fill="#dbf9bd"/>
          <path id="Trazado_818686" data-name="Trazado 818686" d="M64.182,163.95a41.77,41.77,0,0,1,6.859,3.443c4.837,2.784,10.334,5.328,10.334,5.328l-.418,8.377L62.531,170.8" transform="translate(17.474 -6.937)" fill="#e0e0e0"/>
          <path id="Trazado_818687" data-name="Trazado 818687" d="M87.363,168.625l-3.6,4.293,3.248,6.249,1.885-5.385" transform="translate(15.087 -7.134)" fill="#e0e0e0"/>
          <g id="Grupo_1072124" data-name="Grupo 1072124" transform="translate(57.229 165.116)" opacity="0.3">
            <g id="Grupo_1072123" data-name="Grupo 1072123">
              <g id="Grupo_1072122" data-name="Grupo 1072122" clip-path="url(#clip-path-18)">
                <path id="Trazado_818688" data-name="Trazado 818688" d="M81.66,174.006c.159.128,1.159,10.363,1.159,10.363l-18.34-11.957,16.7,9.044Z" transform="translate(-64.48 -172.411)"/>
              </g>
            </g>
          </g>
          <path id="Trazado_818689" data-name="Trazado 818689" d="M83.693,212.715c-.275-7.828.868-27.8.868-27.8l2.391-.416a312.809,312.809,0,0,1,6.133,43.2c.675,9.628.675,20.778.675,20.778l-4.8,11.123-5.308-11.05s.377-26.327.043-35.84" transform="translate(-9.406 -7.806)" fill="#dbf9bd"/>
          <path id="Trazado_818690" data-name="Trazado 818690" d="M103.638,191.953c-.07,0-.128,10.218-.128,22.818s.058,22.821.128,22.821.128-10.215.128-22.821-.058-22.818-.128-22.818" transform="translate(12.866 -8.121)" fill="#263238"/>
          <path id="Trazado_818691" data-name="Trazado 818691" d="M83.567,173.032c-.031.024.353.658.934,1.708s1.349,2.52,2.082,4.207l.174.4.114.266.116-.264a34.512,34.512,0,0,0,1.531-4.183c.158-.544.272-.987.342-1.3a1.847,1.847,0,0,0,.083-.486c-.035-.011-.231.653-.589,1.721s-.891,2.537-1.6,4.126l.231,0-.175-.407a35.881,35.881,0,0,0-2.159-4.194c-.312-.514-.577-.92-.768-1.2a1.932,1.932,0,0,0-.32-.409" transform="translate(15.109 -7.321)" fill="#263238"/>
          <path id="Trazado_818692" data-name="Trazado 818692" d="M62.531,171.107a1.263,1.263,0,0,0,.251.163l.742.419,2.734,1.528c2.306,1.294,5.465,3.137,8.964,5.155,2.131,1.226,4.149,2.361,5.906,3.309l.162.087,0-.193c.022-2.458.041-4.529.055-6.026,0-.7,0-1.272,0-1.7a3.849,3.849,0,0,0-.025-.6,3.85,3.85,0,0,0-.045.6c-.015.427-.035,1-.06,1.7-.036,1.5-.086,3.567-.146,6.024l.163-.106c-1.745-.964-3.757-2.109-5.888-3.334-3.5-2.017-6.672-3.836-9-5.086-1.164-.627-2.112-1.12-2.772-1.451l-.764-.373a1.218,1.218,0,0,0-.273-.113" transform="translate(-7.032 -7.239)" fill="#263238"/>
          <path id="Trazado_818693" data-name="Trazado 818693" d="M101.161,177.848c-.036.024.251.551.621,1.445a17.311,17.311,0,0,1,1.05,3.642,17.62,17.62,0,0,1,.219,3.806c-.051.979-.146,1.581-.1,1.59a1.413,1.413,0,0,0,.114-.414,10.27,10.27,0,0,0,.17-1.161,14.95,14.95,0,0,0-.148-3.871,14.625,14.625,0,0,0-1.138-3.675,9.731,9.731,0,0,0-.541-1.02c-.143-.231-.229-.352-.244-.343" transform="translate(13.13 -7.525)" fill="#263238"/>
          <path id="Trazado_818694" data-name="Trazado 818694" d="M123.021,200.932l-4.94-4.237-5.372,6.258-3.342,9.917,9.242-.111.054-3.995Z" transform="translate(12.207 -8.322)" fill="#ae7461"/>
          <path id="Trazado_818695" data-name="Trazado 818695" d="M111.731,127.488a59.917,59.917,0,0,1,12.835-32.519c9.373-11.676,22.4-18.715,36.676-19.821a50.808,50.808,0,0,1,38.925,13.969c22.339,20.877,24.772,57.472,5.424,81.578-9.373,11.676-22.4,18.715-36.677,19.821a50.808,50.808,0,0,1-38.924-13.969c-13.552-12.666-19.779-31.122-18.259-49.059m103.123,10.33c1.419-16.739-4.39-33.954-17.036-45.774A47.4,47.4,0,0,0,161.5,79.012a48.491,48.491,0,0,0-34.221,18.494A56.358,56.358,0,0,0,115.2,136.693a55.2,55.2,0,0,0,17.139,36.926,47.4,47.4,0,0,0,36.318,13.033,48.491,48.491,0,0,0,34.22-18.494,55.9,55.9,0,0,0,11.976-30.341" transform="translate(11.967 -3.173)" fill="#455a64"/>
          <path id="Trazado_818696" data-name="Trazado 818696" d="M109.953,124.753a59.911,59.911,0,0,1,12.835-32.519c9.372-11.677,22.4-18.716,36.677-19.822A50.806,50.806,0,0,1,198.389,86.38c22.339,20.876,24.772,57.473,5.424,81.578-9.373,11.677-22.4,18.715-36.677,19.821a50.808,50.808,0,0,1-38.924-13.969c-13.552-12.667-19.779-31.121-18.259-49.058m103.123,10.329c1.419-16.739-4.39-33.953-17.036-45.774a47.41,47.41,0,0,0-36.318-13.033A48.5,48.5,0,0,0,125.5,94.769a56.363,56.363,0,0,0-12.079,39.19,55.2,55.2,0,0,0,17.14,36.926,47.4,47.4,0,0,0,36.318,13.032,48.491,48.491,0,0,0,34.22-18.494,55.9,55.9,0,0,0,11.976-30.341" transform="translate(12.167 -3.057)" fill="#263238"/>
          <path id="Trazado_818697" data-name="Trazado 818697" d="M67.054,252.3l-1.614-1.365c-1.44-1.218-1.01-4.422.215-6.092L122.6,172.7l7.579,6.407L73.3,251.159c-1.558,2.033-4.394,2.712-6.248,1.144" transform="translate(17.249 -7.307)" fill="#263238"/>
          <path id="Trazado_818698" data-name="Trazado 818698" d="M119.476,191.4a.875.875,0,0,1,1.012-.418,2,2,0,0,1,.876.523,10.379,10.379,0,0,1,3.328,6.665,3.254,3.254,0,0,1-.9,3l-1.1-.529c-.365-.41-1.393-1.049-1.574-1.582-.759-2.246.671-1.757-1.057-5.606-.17-.377-.888-1.4-.588-2.057" transform="translate(11.079 -8.079)" fill="#ae7461"/>
          <path id="Trazado_818699" data-name="Trazado 818699" d="M119.706,194.718a7.393,7.393,0,0,0-1.286-1.62,1.348,1.348,0,0,0-1.381-.247c-.691.323-.642.905-.46,1.927A11.746,11.746,0,0,0,117.735,198c.969,1.931,1.906,4.191,2.946,6.077l.454-.446c.387.33.88.082,1.073-.386a3.4,3.4,0,0,0,.084-1.646,16.323,16.323,0,0,0-2.586-6.881" transform="translate(11.409 -8.155)" fill="#ae7461"/>
          <path id="Trazado_818700" data-name="Trazado 818700" d="M118.66,200.947a15.115,15.115,0,0,0-2.872-3.719,3.357,3.357,0,0,0-1.372-.8c-.493-.124-1.033.363-1.222.859a1.769,1.769,0,0,0,.322,1.439,68.694,68.694,0,0,0,5.182,7.8l1.36-1.823c.559-1.419-.676-2.427-1.4-3.756" transform="translate(11.784 -8.31)" fill="#ae7461"/>
          <path id="Trazado_818701" data-name="Trazado 818701" d="M73.411,225.691l3.216-.387,5.659-6.416,3.1-3.466a2.071,2.071,0,0,1,.947-.608l3.306-.985a2.18,2.18,0,0,1-.765,2.6l-1.745,1.237-1.479,2.343.261.442s11.24.6,12.018,1.434a1.307,1.307,0,0,1-.122,1.938,1.681,1.681,0,0,1-.835.178,2.288,2.288,0,0,1-.825,2.687,1.626,1.626,0,0,1-.671,2.67A3.7,3.7,0,0,1,93.8,231.31a75.431,75.431,0,0,1-8.394,2.2l-7.928.909-2.666,2.25Z" transform="translate(16.251 -9.047)" fill="#ae7461"/>
          <path id="Trazado_818702" data-name="Trazado 818702" d="M99.471,224.446a8.3,8.3,0,0,1-3.042.523,13.858,13.858,0,0,1-3.073-.143,14.176,14.176,0,0,1,3.058-.234,27.23,27.23,0,0,1,3.056-.147" transform="translate(14.008 -9.495)" fill="#6f4439"/>
          <path id="Trazado_818703" data-name="Trazado 818703" d="M98.378,227.26c0,.053-.278.127-.733.246s-1.083.283-1.8.413a14.752,14.752,0,0,1-1.838.165c-.468.019-.746.057-.762.011s.264-.19.733-.277,1.117-.144,1.811-.272,1.341-.256,1.813-.3.77-.034.774.017" transform="translate(14.02 -9.613)" fill="#6f4439"/>
          <path id="Trazado_818704" data-name="Trazado 818704" d="M97.8,229.968a12.454,12.454,0,0,1-2.94.769,6.689,6.689,0,0,0-2.007.572c-.469.253-.664.56-.711.523-.035-.013.1-.405.585-.753a5.155,5.155,0,0,1,2.071-.713,12.286,12.286,0,0,1,3-.4" transform="translate(14.145 -9.729)" fill="#6f4439"/>
          <path id="Trazado_818705" data-name="Trazado 818705" d="M43.588,180.754s-4.465,1.4-6.855,12.593c-1.93,9.037-5.807,30.386-6.717,38.633-.967,8.766,3.3,13.813,11.325,13.813,6.066,0,20.431-4.982,27.174-7.345,2.175-.762,3.729-1.127,3.729-1.127l-2.2-17.475-21.511,3.331,4.251-22.284s-2.172-19.429-9.2-20.138" transform="translate(21.145 -7.648)" fill="#dbf9bd"/>
          <path id="Trazado_818706" data-name="Trazado 818706" d="M54.33,204.626c-.072,0-.074-1.376-.336-3.568a37.446,37.446,0,0,0-.667-3.811,39.547,39.547,0,0,0-1.352-4.513,38.621,38.621,0,0,0-1.923-4.266,35.351,35.351,0,0,0-1.966-3.247c-1.219-1.778-2.1-2.772-2.048-2.825a4.123,4.123,0,0,1,.659.658,22.451,22.451,0,0,1,1.608,1.988,30.2,30.2,0,0,1,2.056,3.23,34.979,34.979,0,0,1,1.975,4.3,35.941,35.941,0,0,1,1.339,4.579,32.287,32.287,0,0,1,.592,3.866,24.555,24.555,0,0,1,.117,2.637,4.633,4.633,0,0,1-.053.966" transform="translate(19.329 -7.717)" fill="#263238"/>
          <path id="Trazado_818707" data-name="Trazado 818707" d="M122.372,200.194c-.122.053-.741-1.887-1.835-4.06a15.648,15.648,0,0,0-1.68-2.583,2.373,2.373,0,0,0-.659-.583c-.177-.087-.29-.056-.3-.091-.012-.014.111-.117.348-.064a1.906,1.906,0,0,1,.805.527,11.112,11.112,0,0,1,1.825,2.588,18.418,18.418,0,0,1,1.2,2.966,4.217,4.217,0,0,1,.3,1.3" transform="translate(11.248 -8.157)" fill="#6f4439"/>
          <path id="Trazado_818708" data-name="Trazado 818708" d="M119.294,201.842c-.1.055-.855-1.3-2.05-2.761-1.178-1.475-2.3-2.5-2.228-2.6a11.572,11.572,0,0,1,4.278,5.36" transform="translate(11.572 -8.313)" fill="#6f4439"/>
          <path id="Trazado_818709" data-name="Trazado 818709" d="M122.6,201.268c.038-.016.2.44-.022,1.145a2.282,2.282,0,0,1-.7,1.042,2.135,2.135,0,0,1-1.393.49,1.978,1.978,0,0,1-.526-.079l.23-.13a1.655,1.655,0,0,1-.932,1,1.356,1.356,0,0,1-1.045-.012c-.559-.253-.7-.658-.66-.668.043-.043.25.264.74.407a1.192,1.192,0,0,0,.839-.067,1.369,1.369,0,0,0,.7-.8l.058-.177.172.048a1.774,1.774,0,0,0,.434.061,1.91,1.91,0,0,0,1.174-.382,2.156,2.156,0,0,0,.655-.845,8.784,8.784,0,0,0,.276-1.032" transform="translate(11.287 -8.516)" fill="#6f4439"/>
          <path id="Trazado_818710" data-name="Trazado 818710" d="M53.488,209.309a1.094,1.094,0,0,1-.03.274c-.037.21-.083.469-.138.79-.141.735-.335,1.744-.58,3.021-.533,2.659-1.289,6.422-2.214,11.033l-.2-.229,21.5-3.388.229-.036.032.248c.2,1.591.413,3.272.628,4.977.548,4.375,1.076,8.6,1.564,12.5l.027.209-.187.054-20.112,5.813-5.837,1.641-1.565.419a2.966,2.966,0,0,1-.548.118,2.844,2.844,0,0,1,.527-.2l1.545-.494,5.8-1.776L74.007,238.3l-.162.262c-.494-3.9-1.03-8.122-1.583-12.5-.215-1.7-.426-3.387-.626-4.977l.26.212-21.519,3.272-.254.039.058-.268c.989-4.595,1.8-8.346,2.365-11,.284-1.268.509-2.271.672-3,.076-.316.138-.572.188-.779a1.083,1.083,0,0,1,.081-.261" transform="translate(19.326 -8.856)" fill="#263238"/>
          <path id="Trazado_818711" data-name="Trazado 818711" d="M42.594,234.28a5.381,5.381,0,0,1,.37-1.893,13.322,13.322,0,0,1,2.144-4.064,12.324,12.324,0,0,1,3.333-2.992,4.436,4.436,0,0,1,1.662-.725,19.344,19.344,0,0,0-4.641,4.037,21.246,21.246,0,0,0-2.869,5.638" transform="translate(19.718 -9.503)" fill="#263238"/>
          <g id="Grupo_1072127" data-name="Grupo 1072127" transform="translate(64.952 231.54)" opacity="0.3">
            <g id="Grupo_1072126" data-name="Grupo 1072126">
              <g id="Grupo_1072125" data-name="Grupo 1072125" clip-path="url(#clip-path-19)">
                <path id="Trazado_818712" data-name="Trazado 818712" d="M45.57,252.6l.437-4.474,22.254-6.356-3.714,4.7Z" transform="translate(-45.57 -241.769)"/>
              </g>
            </g>
          </g>
          <path id="Trazado_818713" data-name="Trazado 818713" d="M121.054,207.283a10.116,10.116,0,0,1-1.44,2.7,9.7,9.7,0,0,1-1.82,2.414,10.127,10.127,0,0,1,1.44-2.7,9.74,9.74,0,0,1,1.821-2.414" transform="translate(11.261 -8.77)" fill="#263238"/>
        </g>
      </g>
    </g>
  </g>
</svg>
