<svg id="Grupo_1072263" data-name="Grupo 1072263" xmlns="http://www.w3.org/2000/svg" xmlns:xlink="http://www.w3.org/1999/xlink" width="315" height="297.663" viewBox="0 0 315 297.663">
  <defs>
    <clipPath id="clip-path">
      <rect id="Rectángulo_377071" data-name="Rectángulo 377071" width="315" height="297.663" fill="none"/>
    </clipPath>
  </defs>
  <g id="Grupo_1072252" data-name="Grupo 1072252">
    <g id="Grupo_1072251" data-name="Grupo 1072251" clip-path="url(#clip-path)">
      <path id="Trazado_818917" data-name="Trazado 818917" d="M381.151,78.716l6.931,4.3,1.315-2.123a1.941,1.941,0,0,1,1.825-.9,11.14,11.14,0,0,0,1.219.039,1.938,1.938,0,0,1,1.76,1.012l1.18,2.2,7.191-3.857-1.181-2.2a1.938,1.938,0,0,1,.131-2.026,11.153,11.153,0,0,0,.643-1.037,1.941,1.941,0,0,1,1.759-1.022l2.5.08.253-8.153-2.505-.076a1.938,1.938,0,0,1-1.687-1.137c-.085-.18-.176-.359-.27-.536s-.194-.351-.3-.522a1.934,1.934,0,0,1-.014-2.026l1.324-2.138-6.931-4.3-1.32,2.127a1.939,1.939,0,0,1-1.826.9,11.414,11.414,0,0,0-1.214-.039,1.938,1.938,0,0,1-1.758-1.012l-1.181-2.2-7.19,3.856,1.18,2.2a1.938,1.938,0,0,1-.129,2.025,11.125,11.125,0,0,0-.639,1.034,1.937,1.937,0,0,1-1.759,1.024l-2.5-.077-.253,8.153,2.5.077a1.937,1.937,0,0,1,1.681,1.134q.129.272.273.54t.3.522a1.944,1.944,0,0,1,.014,2.036Zm5.148-6.9a6.682,6.682,0,1,1,9.045,2.735,6.676,6.676,0,0,1-9.045-2.735" transform="translate(-106.795 -15.287)" fill="#ebebeb"/>
      <path id="Trazado_818918" data-name="Trazado 818918" d="M410.89,144.345l2.856,4.95,1.515-.875a1.361,1.361,0,0,1,1.424.049,7.871,7.871,0,0,0,.74.427,1.359,1.359,0,0,1,.751,1.208v1.749h5.716V150.1a1.358,1.358,0,0,1,.752-1.208,7.941,7.941,0,0,0,.739-.427,1.361,1.361,0,0,1,1.424-.049l1.515.875,2.856-4.95-1.522-.875a1.359,1.359,0,0,1-.665-1.261c.006-.139.01-.28.01-.421s0-.281-.01-.42a1.354,1.354,0,0,1,.661-1.255l1.526-.882-2.856-4.949-1.519.875a1.359,1.359,0,0,1-1.424-.049,8.067,8.067,0,0,0-.737-.427,1.356,1.356,0,0,1-.75-1.206v-1.75h-5.716v1.75a1.356,1.356,0,0,1-.75,1.206,8.167,8.167,0,0,0-.737.427,1.359,1.359,0,0,1-1.424.049l-1.519-.875-2.856,4.949,1.52.877a1.355,1.355,0,0,1,.663,1.257c-.007.139-.011.281-.011.423s0,.282.011.421a1.359,1.359,0,0,1-.665,1.261Zm5.464-2.557a4.681,4.681,0,1,1,4.679,4.684,4.677,4.677,0,0,1-4.679-4.684" transform="translate(-116.18 -37.245)" fill="#ebebeb"/>
      <path id="Trazado_818919" data-name="Trazado 818919" d="M0,269.367l2.855,4.949,1.515-.875a1.358,1.358,0,0,1,1.424.048,7.87,7.87,0,0,0,.74.428,1.357,1.357,0,0,1,.751,1.207v1.749H13v-1.749a1.357,1.357,0,0,1,.752-1.207,7.951,7.951,0,0,0,.739-.428,1.359,1.359,0,0,1,1.424-.048l1.515.875,2.856-4.949-1.522-.876a1.359,1.359,0,0,1-.665-1.26q.011-.21.011-.421c0-.141,0-.281-.011-.42a1.355,1.355,0,0,1,.661-1.256l1.526-.881L17.433,259.3l-1.519.876a1.358,1.358,0,0,1-1.424-.05,8.162,8.162,0,0,0-.737-.427A1.356,1.356,0,0,1,13,258.5v-1.75H7.286v1.75a1.356,1.356,0,0,1-.75,1.206,8.053,8.053,0,0,0-.736.427,1.359,1.359,0,0,1-1.425.05L2.855,259.3,0,264.252l1.519.877a1.355,1.355,0,0,1,.663,1.257q-.011.21-.011.424t.011.421a1.361,1.361,0,0,1-.665,1.261Zm5.463-2.558a4.681,4.681,0,1,1,4.679,4.683,4.677,4.677,0,0,1-4.679-4.683" transform="translate(0 -72.595)" fill="#ebebeb"/>
      <rect id="Rectángulo_377069" data-name="Rectángulo 377069" width="28.684" height="27.564" transform="translate(209.917 156.669)" fill="#f6f6f6"/>
      <rect id="Rectángulo_377070" data-name="Rectángulo 377070" width="10.901" height="27.564" transform="translate(238.6 156.669)" fill="#c7c7c7"/>
      <path id="Trazado_818920" data-name="Trazado 818920" d="M292.669,237.646h28.684l-22.4.709Z" transform="translate(-82.752 -67.195)" fill="#c7c7c7"/>
      <path id="Trazado_818921" data-name="Trazado 818921" d="M321.353,252.219H292.669l22.4.709Z" transform="translate(-82.752 -71.315)" fill="#c7c7c7"/>
      <path id="Trazado_818922" data-name="Trazado 818922" d="M292.669,226.9h18.169l-16.152.579Z" transform="translate(-82.752 -64.158)" fill="#c7c7c7"/>
      <path id="Trazado_818923" data-name="Trazado 818923" d="M325.5,246.561H307.329l16.152.579Z" transform="translate(-86.898 -69.715)" fill="#c7c7c7"/>
      <path id="Trazado_818924" data-name="Trazado 818924" d="M302.262,222.627h20.493l-3.416.347Z" transform="translate(-85.465 -62.948)" fill="#c7c7c7"/>
      <path id="Trazado_818925" data-name="Trazado 818925" d="M296.556,241.767h20.493l-3.416.347Z" transform="translate(-83.852 -68.36)" fill="#c7c7c7"/>
      <path id="Trazado_818926" data-name="Trazado 818926" d="M314.127,230.564H327.42l2.375.927Z" transform="translate(-88.82 -65.192)" fill="#ebebeb"/>
      <path id="Trazado_818927" data-name="Trazado 818927" d="M287.562,230.564h13.293l2.376.927Z" transform="translate(-81.309 -65.192)" fill="#ebebeb"/>
      <path id="Trazado_818928" data-name="Trazado 818928" d="M305.168,247.836H291.875l-2.376.926Z" transform="translate(-81.856 -70.076)" fill="#ebebeb"/>
      <path id="Trazado_818929" data-name="Trazado 818929" d="M332.661,243.45h10.675l2.376.927Z" transform="translate(-94.06 -68.836)" fill="#c7c7c7"/>
      <path id="Trazado_818930" data-name="Trazado 818930" d="M337.856,237.348h8.279l-1.1-.757Z" transform="translate(-95.529 -66.896)" fill="#c7c7c7"/>
      <path id="Trazado_818931" data-name="Trazado 818931" d="M272.051,310.662h84.772l2.727-53.79H269.324Z" transform="translate(-76.151 -72.631)" fill="#f6f6f6"/>
      <path id="Trazado_818932" data-name="Trazado 818932" d="M277.618,265.626H353.8l-1.157,18.013H278.61Z" transform="translate(-78.497 -75.106)" fill="none" stroke="#dbdbdb" stroke-miterlimit="10" stroke-width="1"/>
      <path id="Trazado_818933" data-name="Trazado 818933" d="M280.872,298.113l.806,16.195h70.874l1.012-16.195Z" transform="translate(-79.417 -84.292)" fill="none" stroke="#dbdbdb" stroke-miterlimit="10" stroke-width="1"/>
      <path id="Trazado_818934" data-name="Trazado 818934" d="M335.968,279.03H320.724l-.5-3.842h16.236Z" transform="translate(-90.545 -77.81)" fill="none" stroke="#dbdbdb" stroke-miterlimit="10" stroke-width="1"/>
      <path id="Trazado_818935" data-name="Trazado 818935" d="M335.968,310.566H320.724l-.5-3.842h16.236Z" transform="translate(-90.545 -86.726)" fill="none" stroke="#dbdbdb" stroke-miterlimit="10" stroke-width="1"/>
      <path id="Trazado_818936" data-name="Trazado 818936" d="M287.263,331.866l-.823,5.86L284.784,349.5h-3.238V331.866Z" transform="translate(-79.607 -93.835)" fill="#ebebeb"/>
      <path id="Trazado_818937" data-name="Trazado 818937" d="M287.263,331.866l-.823,5.86h-4.894v-5.86Z" transform="translate(-79.607 -93.835)" fill="#dbdbdb"/>
      <path id="Trazado_818938" data-name="Trazado 818938" d="M374.925,331.866l.823,5.86L377.4,349.5h3.238V331.866Z" transform="translate(-106.01 -93.835)" fill="#ebebeb"/>
      <path id="Trazado_818939" data-name="Trazado 818939" d="M374.925,331.866l.823,5.86h4.893v-5.86Z" transform="translate(-106.01 -93.835)" fill="#dbdbdb"/>
    </g>
  </g>
  <g id="Grupo_1072254" data-name="Grupo 1072254">
    <g id="Grupo_1072253" data-name="Grupo 1072253" clip-path="url(#clip-path)">
      <path id="Trazado_818940" data-name="Trazado 818940" d="M307.793,385.415c0,9.138-65.189,16.546-145.6,16.546s-145.6-7.408-145.6-16.546,65.189-16.546,145.6-16.546,145.6,7.408,145.6,16.546" transform="translate(-4.69 -104.298)" fill="#f6f6f6"/>
    </g>
  </g>
  <path id="Trazado_818941" data-name="Trazado 818941" d="M82.635,356.856l-38.289.063-38.288.174,38.288.174,38.289.063,76.578.121,76.577-.12,38.289-.062,38.289-.176-38.289-.176-38.289-.063-76.577-.119Z" transform="translate(-1.713 -100.867)" fill="#263238"/>
  <path id="Trazado_818942" data-name="Trazado 818942" d="M145.991,327.234h-4.809l33.711-135.063h11.982Z" transform="translate(-39.919 -54.337)" fill="#455a64"/>
  <path id="Trazado_818943" data-name="Trazado 818943" d="M185.145,192.172H197.13l-9.339,30.849H177.449Z" transform="translate(-50.174 -54.337)" fill="#263238"/>
  <path id="Trazado_818944" data-name="Trazado 818944" d="M211.046,320.062h-4.809l3.586-127.89H221.8Z" transform="translate(-58.314 -54.337)" fill="#455a64"/>
  <path id="Trazado_818945" data-name="Trazado 818945" d="M210.9,192.172h11.978l-2.6,30.849H210.029Z" transform="translate(-59.386 -54.337)" fill="#263238"/>
  <path id="Trazado_818946" data-name="Trazado 818946" d="M265,327.234h4.809L243.272,192.171H231.29Z" transform="translate(-65.398 -54.337)" fill="#455a64"/>
  <path id="Trazado_818947" data-name="Trazado 818947" d="M249.335,223.021h-10.35l-7.7-30.849h11.985Z" transform="translate(-65.397 -54.337)" fill="#263238"/>
  <rect id="Rectángulo_377073" data-name="Rectángulo 377073" width="69.946" height="2.637" transform="translate(119.796 215.036)" fill="#455a64"/>
  <rect id="Rectángulo_377074" data-name="Rectángulo 377074" width="190.54" height="140.592" transform="translate(62.23 5.599)" fill="#f6f6f6"/>
  <rect id="Rectángulo_377075" data-name="Rectángulo 377075" width="204.495" height="10.419" transform="translate(55.253)" fill="#37474f"/>
  <rect id="Rectángulo_377076" data-name="Rectángulo 377076" width="72.639" height="1.609" transform="translate(121.18 28.076)" fill="#c7c7c7"/>
  <rect id="Rectángulo_377077" data-name="Rectángulo 377077" width="47.798" height="1.609" transform="translate(133.601 31.437)" fill="#c7c7c7"/>
  <g id="Grupo_1072256" data-name="Grupo 1072256">
    <g id="Grupo_1072255" data-name="Grupo 1072255" clip-path="url(#clip-path)">
      <path id="Trazado_818948" data-name="Trazado 818948" d="M136.495,63.1l62.652-.166c20.883.059,35.663.023,56.547.166-20.883.143-35.663.108-56.547.166Z" transform="translate(-38.594 -17.796)" fill="#c7c7c7"/>
      <path id="Trazado_818949" data-name="Trazado 818949" d="M136.495,70.228l62.652-.166c20.883.059,35.663.023,56.547.166-20.883.143-35.663.108-56.547.166Z" transform="translate(-38.594 -19.81)" fill="#c7c7c7"/>
      <path id="Trazado_818950" data-name="Trazado 818950" d="M136.495,77.352l62.652-.166c20.883.059,35.663.023,56.547.166-20.883.143-35.663.108-56.547.166Z" transform="translate(-38.594 -21.824)" fill="#c7c7c7"/>
      <path id="Trazado_818951" data-name="Trazado 818951" d="M136.495,84.476l62.652-.166c20.883.059,35.663.023,56.547.166-20.883.143-35.663.108-56.547.166Z" transform="translate(-38.594 -23.839)" fill="#c7c7c7"/>
      <path id="Trazado_818952" data-name="Trazado 818952" d="M136.495,91.6l62.652-.166c20.883.059,35.663.023,56.547.166-20.883.143-35.663.108-56.547.166Z" transform="translate(-38.594 -25.853)" fill="#c7c7c7"/>
      <path id="Trazado_818953" data-name="Trazado 818953" d="M136.495,98.724l62.652-.166c20.883.059,35.663.023,56.547.166-20.883.143-35.663.108-56.547.166Z" transform="translate(-38.594 -27.867)" fill="#c7c7c7"/>
      <path id="Trazado_818954" data-name="Trazado 818954" d="M136.495,105.848l62.652-.166c20.883.059,35.663.023,56.547.166-20.883.143-35.663.108-56.547.166Z" transform="translate(-38.594 -29.882)" fill="#c7c7c7"/>
      <path id="Trazado_818955" data-name="Trazado 818955" d="M136.495,112.972l62.652-.166c20.883.059,35.663.022,56.547.166-20.883.143-35.663.108-56.547.166Z" transform="translate(-38.594 -31.896)" fill="#c7c7c7"/>
      <path id="Trazado_818956" data-name="Trazado 818956" d="M136.495,120.1l62.652-.166c20.883.059,35.663.023,56.547.166-20.883.143-35.663.108-56.547.166Z" transform="translate(-38.594 -33.91)" fill="#c7c7c7"/>
      <path id="Trazado_818957" data-name="Trazado 818957" d="M136.495,127.219l62.652-.166c20.883.059,35.663.023,56.547.166-20.883.143-35.663.108-56.547.166Z" transform="translate(-38.594 -35.924)" fill="#c7c7c7"/>
      <path id="Trazado_818958" data-name="Trazado 818958" d="M136.495,134.343l62.652-.166c20.883.059,35.663.023,56.547.166-20.883.143-35.663.108-56.547.166Z" transform="translate(-38.594 -37.939)" fill="#c7c7c7"/>
      <path id="Trazado_818959" data-name="Trazado 818959" d="M136.495,141.467l62.652-.166c20.883.059,35.663.023,56.547.166-20.883.143-35.663.108-56.547.166Z" transform="translate(-38.594 -39.953)" fill="#c7c7c7"/>
      <path id="Trazado_818960" data-name="Trazado 818960" d="M136.495,148.591l62.652-.166c20.883.059,35.663.023,56.547.166-20.883.143-35.663.108-56.547.166Z" transform="translate(-38.594 -41.967)" fill="#c7c7c7"/>
      <path id="Trazado_818961" data-name="Trazado 818961" d="M136.495,155.715l62.652-.166c20.883.059,35.663.023,56.547.166-20.883.143-35.663.108-56.547.166Z" transform="translate(-38.594 -43.982)" fill="#c7c7c7"/>
      <path id="Trazado_818962" data-name="Trazado 818962" d="M136.495,162.839l62.652-.166c20.883.059,35.663.023,56.547.166-20.883.143-35.663.108-56.547.166Z" transform="translate(-38.594 -45.996)" fill="#c7c7c7"/>
      <rect id="Rectángulo_377078" data-name="Rectángulo 377078" width="9.502" height="18.958" transform="translate(111.151 103.842)" fill="#afc797"/>
      <rect id="Rectángulo_377079" data-name="Rectángulo 377079" width="9.502" height="33.299" transform="translate(128.778 89.501)" fill="#afc797"/>
      <rect id="Rectángulo_377080" data-name="Rectángulo 377080" width="9.502" height="36.473" transform="translate(146.406 86.327)" fill="#afc797"/>
      <rect id="Rectángulo_377081" data-name="Rectángulo 377081" width="9.502" height="45.883" transform="translate(164.033 76.917)" fill="#afc797"/>
      <rect id="Rectángulo_377082" data-name="Rectángulo 377082" width="9.502" height="65.929" transform="translate(181.66 56.871)" fill="#afc797"/>
      <rect id="Rectángulo_377083" data-name="Rectángulo 377083" width="9.502" height="74.063" transform="translate(199.287 48.737)" fill="#afc797"/>
      <path id="Trazado_818963" data-name="Trazado 818963" d="M140.992,58.171l.258,20.269.179,20.269c.121,13.513.158,27.026.18,40.539l-.617-.618,30.475-.026,30.476.073,30.475.2,24.371.367-24.371.367-30.475.2-30.476.073-30.475-.026h-.619v-.617c.023-13.513.059-27.026.181-40.539l.178-20.269Z" transform="translate(-39.691 -16.448)" fill="#c7c7c7"/>
      <rect id="Rectángulo_377084" data-name="Rectángulo 377084" width="9.502" height="0.859" transform="translate(111.151 127.084)" fill="#c7c7c7"/>
      <rect id="Rectángulo_377085" data-name="Rectángulo 377085" width="9.502" height="0.859" transform="translate(128.778 127.084)" fill="#c7c7c7"/>
      <rect id="Rectángulo_377086" data-name="Rectángulo 377086" width="9.502" height="0.859" transform="translate(146.406 127.084)" fill="#c7c7c7"/>
      <rect id="Rectángulo_377087" data-name="Rectángulo 377087" width="9.502" height="0.859" transform="translate(164.033 127.084)" fill="#c7c7c7"/>
      <rect id="Rectángulo_377088" data-name="Rectángulo 377088" width="9.502" height="0.859" transform="translate(181.66 127.084)" fill="#c7c7c7"/>
      <rect id="Rectángulo_377089" data-name="Rectángulo 377089" width="9.502" height="0.859" transform="translate(199.287 127.084)" fill="#c7c7c7"/>
      <path id="Trazado_818964" data-name="Trazado 818964" d="M154.968,121.577s52-8.655,93.591-56.1" transform="translate(-43.817 -18.514)" fill="none" stroke="#263238" stroke-miterlimit="10" stroke-width="1"/>
      <path id="Trazado_818965" data-name="Trazado 818965" d="M285.759,66.269l.705-3.505-3.388,1.141Z" transform="translate(-80.04 -17.747)" fill="#263238"/>
      <rect id="Rectángulo_377090" data-name="Rectángulo 377090" width="23.582" height="27.942" transform="translate(224.79 33.937)" fill="#fff"/>
      <path id="Trazado_818966" data-name="Trazado 818966" d="M330.359,49.631a.848.848,0,1,1-.848-.848.848.848,0,0,1,.848.848" transform="translate(-92.93 -13.793)" fill="#455a64"/>
      <path id="Trazado_818967" data-name="Trazado 818967" d="M319.663,55.031c2.384-.184,4.768-.2,7.153-.222,2.384.026,4.768.037,7.152.222-2.384.185-4.768.2-7.152.222-2.385-.027-4.769-.038-7.153-.222" transform="translate(-90.385 -15.497)" fill="#ebebeb"/>
      <path id="Trazado_818968" data-name="Trazado 818968" d="M319.663,58.11a34.224,34.224,0,0,1,7.777,0,30.469,30.469,0,0,1-3.889.222,30.863,30.863,0,0,1-3.888-.222" transform="translate(-90.385 -16.368)" fill="#ebebeb"/>
      <path id="Trazado_818969" data-name="Trazado 818969" d="M319.663,61.189c1.656-.173,3.312-.213,4.968-.222a49.639,49.639,0,0,1,4.969.222c-1.656.174-3.313.214-4.969.222-1.656-.009-3.312-.049-4.968-.222" transform="translate(-90.385 -17.238)" fill="#ebebeb"/>
      <path id="Trazado_818970" data-name="Trazado 818970" d="M319.663,64.268c2.072-.173,4.144-.213,6.217-.222,2.072.008,4.144.048,6.216.222-2.072.174-4.144.214-6.216.222-2.073-.009-4.145-.049-6.217-.222" transform="translate(-90.385 -18.109)" fill="#ebebeb"/>
      <path id="Trazado_818971" data-name="Trazado 818971" d="M319.663,67.347c1.8-.173,3.6-.213,5.4-.222,1.8.008,3.6.048,5.4.222-1.8.174-3.6.214-5.4.222-1.8-.009-3.6-.049-5.4-.222" transform="translate(-90.385 -18.98)" fill="#ebebeb"/>
      <path id="Trazado_818972" data-name="Trazado 818972" d="M319.663,70.425c2.3-.183,4.608-.2,6.913-.222,2.3.027,4.608.037,6.913.222-2.3.186-4.608.2-6.913.222-2.3-.027-4.608-.039-6.913-.222" transform="translate(-90.385 -19.85)" fill="#ebebeb"/>
      <path id="Trazado_818973" data-name="Trazado 818973" d="M319.663,73.5a45.077,45.077,0,0,1,8.929,0,40.288,40.288,0,0,1-4.465.222,40.632,40.632,0,0,1-4.464-.222" transform="translate(-90.385 -20.721)" fill="#ebebeb"/>
      <path id="Trazado_818974" data-name="Trazado 818974" d="M319.663,76.583c2.384-.184,4.768-.2,7.153-.222,2.384.026,4.768.037,7.152.222-2.384.185-4.768.2-7.152.222-2.385-.027-4.769-.038-7.153-.222" transform="translate(-90.385 -21.591)" fill="#ebebeb"/>
      <path id="Trazado_818975" data-name="Trazado 818975" d="M319.663,79.662c2.384-.184,4.768-.2,7.153-.222,2.384.026,4.768.037,7.152.222-2.384.185-4.768.2-7.152.222-2.385-.027-4.769-.038-7.153-.222" transform="translate(-90.385 -22.462)" fill="#ebebeb"/>
      <rect id="Rectángulo_377091" data-name="Rectángulo 377091" width="27.904" height="33.064" transform="translate(68.159 65.488)" fill="#fff"/>
      <path id="Trazado_818976" data-name="Trazado 818976" d="M114.995,97.19a.848.848,0,1,1-.848-.848.848.848,0,0,1,.848.848" transform="translate(-32.035 -27.241)" fill="#455a64"/>
      <path id="Trazado_818977" data-name="Trazado 818977" d="M100.473,102.718a19.61,19.61,0,0,1,3.094-.222,19.359,19.359,0,0,1,3.094.222,21.71,21.71,0,0,1-6.188,0" transform="translate(-28.409 -28.981)" fill="#ebebeb"/>
      <path id="Trazado_818978" data-name="Trazado 818978" d="M100.473,106.194a36.325,36.325,0,0,1,8.013,0,32.334,32.334,0,0,1-4.007.222,32.757,32.757,0,0,1-4.007-.222" transform="translate(-28.409 -29.964)" fill="#ebebeb"/>
      <path id="Trazado_818979" data-name="Trazado 818979" d="M100.473,109.67a31.192,31.192,0,0,1,7.424,0,27.779,27.779,0,0,1-3.712.222,28.142,28.142,0,0,1-3.712-.222" transform="translate(-28.409 -30.947)" fill="#ebebeb"/>
      <path id="Trazado_818980" data-name="Trazado 818980" d="M100.473,113.146a31.193,31.193,0,0,1,7.424,0,27.782,27.782,0,0,1-3.712.222,28.142,28.142,0,0,1-3.712-.222" transform="translate(-28.409 -31.929)" fill="#ebebeb"/>
      <path id="Trazado_818981" data-name="Trazado 818981" d="M100.473,116.621a23.565,23.565,0,0,1,6.449,0,21,21,0,0,1-3.225.222,21.281,21.281,0,0,1-3.224-.222" transform="translate(-28.409 -32.912)" fill="#ebebeb"/>
      <path id="Trazado_818982" data-name="Trazado 818982" d="M100.473,120.1a38.538,38.538,0,0,1,8.254,0,38.537,38.537,0,0,1-8.254,0" transform="translate(-28.409 -33.895)" fill="#ebebeb"/>
      <path id="Trazado_818983" data-name="Trazado 818983" d="M100.473,123.573a26.291,26.291,0,0,1,6.813,0,23.436,23.436,0,0,1-3.407.222,23.722,23.722,0,0,1-3.406-.222" transform="translate(-28.409 -34.878)" fill="#ebebeb"/>
      <path id="Trazado_818984" data-name="Trazado 818984" d="M100.473,127.049a41.255,41.255,0,0,1,8.541,0,41.253,41.253,0,0,1-8.541,0" transform="translate(-28.409 -35.86)" fill="#ebebeb"/>
      <path id="Trazado_818985" data-name="Trazado 818985" d="M100.473,130.524a41.25,41.25,0,0,1,8.541,0,41.124,41.124,0,0,1-8.541,0" transform="translate(-28.409 -36.843)" fill="#ebebeb"/>
      <path id="Trazado_818986" data-name="Trazado 818986" d="M117.474,102.718a33.537,33.537,0,0,1,4.055-.222,33.11,33.11,0,0,1,4.054.222,37.193,37.193,0,0,1-8.109,0" transform="translate(-33.216 -28.981)" fill="#ebebeb"/>
      <path id="Trazado_818987" data-name="Trazado 818987" d="M117.474,106.194a16.141,16.141,0,0,1,5.331,0,14.429,14.429,0,0,1-2.667.222,14.594,14.594,0,0,1-2.665-.222" transform="translate(-33.216 -29.964)" fill="#ebebeb"/>
      <path id="Trazado_818988" data-name="Trazado 818988" d="M117.474,109.67a32.927,32.927,0,0,1,7.628,0,29.311,29.311,0,0,1-3.814.222,29.7,29.7,0,0,1-3.814-.222" transform="translate(-33.216 -30.947)" fill="#ebebeb"/>
      <path id="Trazado_818989" data-name="Trazado 818989" d="M117.474,113.146a31.187,31.187,0,0,1,7.423,0,27.775,27.775,0,0,1-3.712.222,28.139,28.139,0,0,1-3.711-.222" transform="translate(-33.216 -31.929)" fill="#ebebeb"/>
      <path id="Trazado_818990" data-name="Trazado 818990" d="M117.474,116.621a37.192,37.192,0,0,1,8.109,0,33.108,33.108,0,0,1-4.054.222,33.535,33.535,0,0,1-4.055-.222" transform="translate(-33.216 -32.912)" fill="#ebebeb"/>
      <path id="Trazado_818991" data-name="Trazado 818991" d="M117.474,120.1a23.567,23.567,0,0,1,6.449,0,23.566,23.566,0,0,1-6.449,0" transform="translate(-33.216 -33.895)" fill="#ebebeb"/>
      <path id="Trazado_818992" data-name="Trazado 818992" d="M117.474,123.573a32.927,32.927,0,0,1,7.628,0,29.308,29.308,0,0,1-3.814.222,29.691,29.691,0,0,1-3.814-.222" transform="translate(-33.216 -34.878)" fill="#ebebeb"/>
      <path id="Trazado_818993" data-name="Trazado 818993" d="M117.474,127.049a19.749,19.749,0,0,1,5.9,0,19.749,19.749,0,0,1-5.9,0" transform="translate(-33.216 -35.86)" fill="#ebebeb"/>
      <path id="Trazado_818994" data-name="Trazado 818994" d="M117.474,130.524a18.181,18.181,0,0,1,5.661,0,18.125,18.125,0,0,1-5.661,0" transform="translate(-33.216 -36.843)" fill="#ebebeb"/>
      <rect id="Rectángulo_377092" data-name="Rectángulo 377092" width="14.189" height="14.189" transform="translate(215.089 21.567)" fill="#632059"/>
      <path id="Trazado_818995" data-name="Trazado 818995" d="M310.286,31.743a.848.848,0,1,1-.848-.848.848.848,0,0,1,.848.848" transform="translate(-87.254 -8.736)" fill="#455a64"/>
    </g>
  </g>
  <g id="Grupo_1072258" data-name="Grupo 1072258">
    <g id="Grupo_1072257" data-name="Grupo 1072257" clip-path="url(#clip-path)">
      <path id="Trazado_818996" data-name="Trazado 818996" d="M124.1,246.51a29.51,29.51,0,0,0,.574,11.347,31.24,31.24,0,0,0,1.739,5.016c.9,2.076,1.846,4.1,1.619,6.374-.219.146.533.123.557-.1,6.07-3.456,13.855-4.089,18.527-9.74a19.351,19.351,0,0,0,3.857-9.459,28.743,28.743,0,0,0-.219-11.424,11.622,11.622,0,0,0-5.5-7.558c-2.987-1.554-6.9-1.424-10.042-.448-6.783,2.107-10.157,9.427-11.116,15.989" transform="translate(-35.004 -64.974)" fill="#839571"/>
      <path id="Trazado_818997" data-name="Trazado 818997" d="M119,294.082c.828-2.761,1.656-5.522,2.507-8.277,1.665-5.394,3.4-10.77,5.313-16.081q1.722-4.773,3.634-9.453a57.452,57.452,0,0,0-.724-5.868c-.508-2.353-1.245-4.626-1.932-6.929-.042-.142.187-.217.245-.082,1.363,3.173,3.141,7.233,3.185,10.99q2.224-5.3,4.771-10.442a44.713,44.713,0,0,0-.268-8.7.1.1,0,0,1,.205-.04,30.844,30.844,0,0,1,.594,7.677q1.957-3.863,4.142-7.627c.132-.226.444.005.329.227-2.282,4.392-4.4,8.877-6.383,13.421a29.205,29.205,0,0,1,9.517-5.511c.151-.054.265.165.111.229a34.663,34.663,0,0,0-10.294,6.815q-2.14,4.991-4.08,10.062A31.649,31.649,0,0,1,143.9,257.01c.171-.045.217.217.052.267-5.818,1.752-10.338,5.051-14.762,9.014q-.771,2.049-1.513,4.108-2.812,7.8-5.356,15.7-1.224,3.782-2.409,7.577c-.849,2.723-1.513,5.6-2.618,8.225-.105.251-.557.194-.5-.108a78.521,78.521,0,0,1,2.21-7.71" transform="translate(-33.022 -67.612)" fill="#263238"/>
      <path id="Trazado_818998" data-name="Trazado 818998" d="M133.8,245.662a15.078,15.078,0,0,1,2.186,5.449c.01.05-.068.08-.087.029a46.907,46.907,0,0,0-2.37-5.347c-.091-.177.169-.288.271-.131" transform="translate(-37.75 -69.44)" fill="#263238"/>
      <path id="Trazado_818999" data-name="Trazado 818999" d="M148.977,262.6a15.992,15.992,0,0,1,5.448-1.834c.049-.007.08.066.029.087-.876.364-1.8.618-2.682.958s-1.758.757-2.658,1.07a.156.156,0,0,1-.136-.281" transform="translate(-42.099 -73.732)" fill="#263238"/>
      <path id="Trazado_819000" data-name="Trazado 819000" d="M153.247,241.684A10.7,10.7,0,0,1,155,240.6a.093.093,0,0,1,.1.153,10.679,10.679,0,0,1-1.727,1.12c-.112.067-.236-.12-.126-.192" transform="translate(-43.319 -68.028)" fill="#263238"/>
      <path id="Trazado_819001" data-name="Trazado 819001" d="M90.3,268.775c4.372,1.3,8.766,2.5,13.137,3.78.38.114,7.771-14.048,5.1-21.343a23.813,23.813,0,0,0-14.86-14.1c-3.121-1.061-6.959-1.951-10.257-1.224a8.518,8.518,0,0,0-5.956,5.806c-1.3,3.748-.865,8.218-.159,12.045a21.041,21.041,0,0,0,4.3,9.83,17.018,17.018,0,0,0,8.694,5.207" transform="translate(-21.667 -66.623)" fill="#839571"/>
      <path id="Trazado_819002" data-name="Trazado 819002" d="M86.8,258.745a58.322,58.322,0,0,0,8.572,3.375,36.048,36.048,0,0,1,5.722,2.071c-1.846-4.116-3.872-8.146-6.023-12.139a19.632,19.632,0,0,1-7.924-4.091.122.122,0,0,1,.159-.184,39.8,39.8,0,0,0,7.476,3.748c-.582-1.074-1.168-2.148-1.767-3.219-.167-.3.243-.594.444-.3a92.35,92.35,0,0,1,6.212,10.432,47.742,47.742,0,0,0,.449-9.559.064.064,0,0,1,.128-.009,31.85,31.85,0,0,1-.108,10.5c1.533,3.06,2.931,6.2,4.185,9.369.5-1.907,1.147-3.784,1.579-5.707a26.23,26.23,0,0,0,.628-8.416c-.008-.083.114-.088.128-.009a29.678,29.678,0,0,1-1.835,15.449c.731,1.911,1.428,3.829,2.066,5.751a114.563,114.563,0,0,1,5.8,30.333.185.185,0,0,1-.369.027,150.433,150.433,0,0,0-6.515-29.977c-1.268-3.811-2.728-7.512-4.329-11.144-2.582-.762-5.154-1.8-7.69-2.677a24.155,24.155,0,0,1-7.089-3.475c-.081-.063.008-.194.1-.148" transform="translate(-24.506 -70.052)" fill="#263238"/>
      <path id="Trazado_819003" data-name="Trazado 819003" d="M81.114,257.341c2.674.951,5.208,2.282,7.879,3.246.126.045.052.243-.074.218a17.97,17.97,0,0,1-7.907-3.311c-.088-.071.009-.186.1-.153" transform="translate(-22.897 -72.762)" fill="#263238"/>
      <path id="Trazado_819004" data-name="Trazado 819004" d="M111.606,249.24c-.032-.142.175-.223.218-.077a13.638,13.638,0,0,1,.526,7.6c-.028.1-.184.1-.189-.011a42.865,42.865,0,0,0-.555-7.51" transform="translate(-31.556 -70.429)" fill="#263238"/>
      <path id="Trazado_819005" data-name="Trazado 819005" d="M96.072,241.334a6.529,6.529,0,0,1,1.161,4.191c0,.094-.154.149-.18.038-.326-1.41-.87-2.7-1.3-4.065a.183.183,0,0,1,.322-.164" transform="translate(-27.071 -68.216)" fill="#263238"/>
      <path id="Trazado_819006" data-name="Trazado 819006" d="M156.887,287.1c-1.282,4.068-4.327,9.691-9.15,9.735-3.126.03-6.276-.341-9.41-.385-3.356-.052-6.72-.044-10.069.156-.275.015.4-10.05,8.469-14.951,2.259-1.374,5.023-1.808,7.586-2.363a35.114,35.114,0,0,1,8.965-.934c1.853.074,3.393.467,4.053,2.363.689,1.985.17,4.446-.445,6.379" transform="translate(-36.252 -78.698)" fill="#839571"/>
      <path id="Trazado_819007" data-name="Trazado 819007" d="M150.258,282.7c-1.96.5-3.938,1.083-5.905,1.708a20.687,20.687,0,0,1,1.626-1.585c.844-.7,1.774-1.264,2.68-1.879.076-.051.031-.2-.067-.158a11.059,11.059,0,0,0-4.758,3.783c-2.452.792-4.879,1.666-7.217,2.625A27.125,27.125,0,0,0,132,289.626a18.641,18.641,0,0,1,1.672-2.909,16.256,16.256,0,0,1,3.92-3.146.125.125,0,0,0-.126-.215,11.475,11.475,0,0,0-6.291,6.822,26.846,26.846,0,0,0-4.575,4.155c-5.337,6.061-9.54,14.128-9.555,22.357,0,.2.314.252.352.047a45.619,45.619,0,0,1,10.178-21.861c.382-.446.774-.871,1.173-1.281a36.6,36.6,0,0,1,4.409-.327c1.718.026,3.421.253,5.131.391,2.815.229,5.93.262,8.469-1.155.112-.062.037-.257-.089-.212-5.663,2.059-11.6-.552-17.278.676a26.512,26.512,0,0,1,8.371-5.4c.173-.072.347-.138.521-.209,3.634.437,7.471,1.384,11.01.2a.087.087,0,0,0-.047-.168c-3.42.854-6.7-.22-10.074-.391,3.674-1.431,7.419-2.569,11.107-3.989.31-.12.317-.4-.018-.317" transform="translate(-33.094 -79.39)" fill="#263238"/>
      <path id="Trazado_819008" data-name="Trazado 819008" d="M163.488,288.444a48.767,48.767,0,0,1-5.29.4c-.04,0-.053.064-.01.074a10.964,10.964,0,0,0,5.336-.341.07.07,0,0,0-.037-.134" transform="translate(-44.72 -81.557)" fill="#263238"/>
      <path id="Trazado_819009" data-name="Trazado 819009" d="M147.887,283.577a8.664,8.664,0,0,0-2.618,1.82c-.093.082.032.247.133.173.443-.323.9-.628,1.361-.925a12.933,12.933,0,0,0,1.275-.807c.12-.1-.009-.311-.152-.261" transform="translate(-41.066 -80.18)" fill="#263238"/>
      <path id="Trazado_819010" data-name="Trazado 819010" d="M100.383,296.74c.06.133-.133.259-.207.118-.008,0-.008,0-.008-.007a.186.186,0,0,1-.126.081,80.987,80.987,0,0,1-9.854,1.719c-2.667.237-5.742.385-8.076-1.163-3.164-2.1-5.246-7.705-3.534-11.269,2.023-4.231,8.12-1.934,11.18-.43a22.448,22.448,0,0,1,10.625,10.951" transform="translate(-22.044 -80.245)" fill="#ffc727"/>
      <path id="Trazado_819011" data-name="Trazado 819011" d="M104.19,299.671a31.512,31.512,0,0,0-5.884-4.479,20.143,20.143,0,0,0-5.967-6.081c-.116-.08-.214.1-.108.185a26.97,26.97,0,0,1,5.028,5.289,55.408,55.408,0,0,0-7.382-3.357,9.825,9.825,0,0,0-3.966-3.974c-.033-.016-.075.029-.041.055a16.3,16.3,0,0,1,3.581,3.758c-1.5-.559-3.015-1.081-4.529-1.583-.136-.045-.186.161-.058.212,2.695,1.054,5.45,2.164,8.121,3.445a31.24,31.24,0,0,1-9.834-.029c-.09-.015-.129.114-.039.14a19.383,19.383,0,0,0,10.435.156,48.723,48.723,0,0,1,4.95,2.772,12.393,12.393,0,0,0-4,.327,30.438,30.438,0,0,1-7.03.8c-.09,0-.113.143-.022.159,4.078.7,7.934-1.152,11.976-.67a31.27,31.27,0,0,1,4.21,3.438,31.617,31.617,0,0,1,6.14,8.662c1.7,3.463,2.624,7.134,4,10.712a.13.13,0,0,0,.251-.07c-1.178-7.054-4.692-14.835-9.831-19.864" transform="translate(-23.485 -81.22)" fill="#263238"/>
      <path id="Trazado_819012" data-name="Trazado 819012" d="M94.465,290.222a4.669,4.669,0,0,0-1.044-1.267,4.127,4.127,0,0,0-1.2-.9c-.041-.015-.064.04-.039.067.334.38.8.658,1.161,1.021s.664.794,1.032,1.153a.061.061,0,0,0,.1-.074" transform="translate(-26.06 -81.447)" fill="#263238"/>
      <path id="Trazado_819013" data-name="Trazado 819013" d="M84.514,293.812c-.6-.151-1.244-.141-1.86-.266a17.7,17.7,0,0,1-1.8-.54.073.073,0,0,0-.056.132,5.989,5.989,0,0,0,3.718.864.1.1,0,0,0,0-.19" transform="translate(-22.835 -82.847)" fill="#263238"/>
      <path id="Trazado_819014" data-name="Trazado 819014" d="M127.526,320.142l-.535,6.079-1.817,20.526H109.1l-2.269-20.526-.67-6.079Z" transform="translate(-30.017 -90.52)" fill="#455a64"/>
      <path id="Trazado_819015" data-name="Trazado 819015" d="M127.526,320.142l-.535,6.079H106.829l-.67-6.079Z" transform="translate(-30.017 -90.52)" fill="#263238"/>
      <rect id="Rectángulo_377094" data-name="Rectángulo 377094" width="24.55" height="4.932" transform="translate(74.551 227.964)" fill="#455a64"/>
    </g>
  </g>
  <g id="Grupo_1072260" data-name="Grupo 1072260">
    <g id="Grupo_1072259" data-name="Grupo 1072259" clip-path="url(#clip-path)">
      <path id="Trazado_819016" data-name="Trazado 819016" d="M319.037,373.866c1.418.458,41.833-.067,43.358-1.064.586-.369.853-6.263.971-13.393,0-.075,0-.149,0-.223.027-1.47.047-2.983.049-4.517,0-.211,0-.422.008-.633.057-10.29-.106-20.967-.106-20.967l-27.036.271.813,20.769.032.823.163,4.3.016.443s-15.38,7.12-16.942,8.394-2.745,5.346-1.326,5.8" transform="translate(-90.029 -94.176)" fill="#eb9481"/>
      <path id="Trazado_819017" data-name="Trazado 819017" d="M336.219,373.981c.105-.031.161-.062.167-.093,0,0-.062.031-.167.093" transform="translate(-95.066 -105.717)" fill="#ffc727"/>
      <path id="Trazado_819018" data-name="Trazado 819018" d="M319.04,385.164c1.416.458,41.831-.062,43.358-1.064.519-.327.792-5.02.927-11.066-7.406,1.546-36.106,7.351-36.891,4.9-.309-.965,2.145-2.634,3.7-3.573a103.316,103.316,0,0,0-9.768,5.014c-1.546,1.267-2.745,5.342-1.323,5.793" transform="translate(-90.029 -105.476)" fill="#455a64"/>
      <path id="Trazado_819019" data-name="Trazado 819019" d="M354.682,385.1c9.095-.217,17.3-.562,17.973-1,.519-.328.791-5.02.927-11.067-1.051.217-2.535.526-4.3.878Z" transform="translate(-100.287 -105.476)" fill="#263238"/>
      <path id="Trazado_819020" data-name="Trazado 819020" d="M378.36,170.758s-6.068,68.292-7.057,73.5c-.229,1.187-.371,7.642-.464,15.939-.21,18.1-.085,50.753-.085,50.753H342.265s.846-56.571,2.107-66.982,9.324-73.213,9.324-73.213Z" transform="translate(-96.776 -48.282)" fill="#37474f"/>
      <path id="Trazado_819021" data-name="Trazado 819021" d="M344.035,359.217c4.445-.092,3.168-.128,7.614-.171,2.175-.021,16.473-.146,18.506.191a.048.048,0,0,1,0,.091c-2.033.336-16.33.212-18.506.191-4.446-.043-3.169-.079-7.614-.171a.065.065,0,0,1,0-.13" transform="translate(-97.259 -101.509)" fill="#263238"/>
      <path id="Trazado_819022" data-name="Trazado 819022" d="M374.365,274.911q.047-6.2.093-12.4c.029-4,.024-8.008.214-12.007.386-8.1,2.028-16.056,3.2-24.06s2.143-16.046,3.025-24.091c.99-9.026,1.865-18.064,2.792-27.1.006-.061.1-.06.1,0-1.343,16.127-2.84,32.25-5.073,48.282q-.833,5.982-1.82,11.939c-.665,4.021-1.326,8.043-1.643,12.109-.311,3.979-.361,7.973-.4,11.963q-.064,6.194-.123,12.388c-.089,9.172-.178,23.291-.267,32.463a.137.137,0,0,1-.275-.007c.062-8.181.124-21.308.186-29.49" transform="translate(-105.799 -49.542)" fill="#263238"/>
      <path id="Trazado_819023" data-name="Trazado 819023" d="M390.276,170.758s-12.074,68.292-13.063,73.5c-.229,1.187-.372,7.642-.464,15.939l-.006.024-13.577-89.467Z" transform="translate(-102.685 -48.282)" fill="#263238"/>
      <path id="Trazado_819024" data-name="Trazado 819024" d="M365.122,376.029c1.447.356,41.723-3.03,43.173-4.133.559-.41.407-6.307.02-13.428-.005-.075-.009-.148-.014-.223-.077-1.467-.165-2.978-.271-4.508-.014-.211-.029-.421-.037-.632-.672-10.268-1.591-20.906-1.591-20.906l-26.948,2.185,2.282,20.66.09.818.467,4.277.047.44s-14.837,8.192-16.305,9.573-2.359,5.527-.912,5.877" transform="translate(-103.031 -93.93)" fill="#eb9481"/>
      <path id="Trazado_819025" data-name="Trazado 819025" d="M365.125,387.578c1.447.359,41.719-3.03,43.173-4.136.476-.346.439-4.7.173-10.4-6.238,1.6-36.3,9.156-37.225,6.671-.192-.526.445-1.3,1.311-2.065a66.9,66.9,0,0,0-6.523,4.05c-1.453,1.379-2.355,5.527-.909,5.879" transform="translate(-103.032 -105.478)" fill="#455a64"/>
      <path id="Trazado_819026" data-name="Trazado 819026" d="M379.372,312.483l28.463-1.206s-7.769-62.458-7.913-66.3c-.214-5.707-2.951-29.262-5.249-48.332,0,0,4.357-10.326-3.8-25.923H358.166s2.193,14.842,5.945,24.253a43.615,43.615,0,0,1,7.272,3.319s3.256,42.521,3.378,47.824c.241,10.485,4.611,66.361,4.611,66.361" transform="translate(-101.272 -48.273)" fill="#37474f"/>
      <path id="Trazado_819027" data-name="Trazado 819027" d="M388.763,360.644c4.437-.28,3.16-.263,7.6-.494,2.173-.113,16.452-.843,18.5-.592a.047.047,0,0,1,0,.09c-2.017.422-16.307.9-18.481.975-4.444.146-3.17.055-7.614.151a.065.065,0,0,1-.006-.13" transform="translate(-109.906 -101.651)" fill="#263238"/>
      <path id="Trazado_819028" data-name="Trazado 819028" d="M364.62,203.634a54.023,54.023,0,0,1,8.514,3.965.1.1,0,0,1-.08.175c-2.868-1.231-5.792-2.41-8.589-3.8a.188.188,0,0,1,.155-.342" transform="translate(-103.023 -57.574)" fill="#263238"/>
      <path id="Trazado_819029" data-name="Trazado 819029" d="M363.377,176.169c.008-.1.182-.121.181-.014a95.519,95.519,0,0,0,.481,9.582c.133,1.478,1.322,9.641,3.883,9.046.429-.1.648-.521.715-1.168a10.26,10.26,0,0,0-.34-2.5c-.284-1.709-.513-3.423-.659-5.151a46.835,46.835,0,0,1,.1-9.658.083.083,0,0,1,.165.009,88.6,88.6,0,0,0,.78,13.333c.321,2.123,1.39,5.32-.831,5.647-2.263.333-3.726-5.022-4-6.487a48.89,48.89,0,0,1-.478-12.637" transform="translate(-102.69 -49.788)" fill="#263238"/>
      <path id="Trazado_819030" data-name="Trazado 819030" d="M369.476,202.39a13.785,13.785,0,0,1,.576,1.692,3.828,3.828,0,0,1,.24,1.391c-.01.09-.129.1-.177.037a4.884,4.884,0,0,1-.6-1.353c-.2-.523-.4-1.043-.581-1.572a.286.286,0,0,1,.538-.2" transform="translate(-104.313 -57.175)" fill="#263238"/>
      <path id="Trazado_819031" data-name="Trazado 819031" d="M346.286,115.679a.31.31,0,0,0,.227.341c.343.035.756.071,1.219.113,1.219-3.024,2.5-5.419,2.151-4.48a16.775,16.775,0,0,0-.953,4.585c.537.045,1.783.137,2.407.183,1.17-5.346,2.552-9.3,2.426-8.072-.509,4.948-.3,6.546-.049,8.255,5.81.424,13.435.89,18.957,1.1.76-2.952,1.45-6.151,1.538-5.924a16.177,16.177,0,0,1,.729,6.006c1.759.054,3.165.062,4.024.022,0,0,.514-2.486.607-3.305a18.25,18.25,0,0,0-.36-6.266,31.293,31.293,0,0,0-2.317-5.859.187.187,0,0,0-.022-.042c0-.006,0-.008-.007-.016a18.04,18.04,0,0,1-1.311-3.905.086.086,0,0,1-.008-.03,17.914,17.914,0,0,1-.333-2.984c-.106-3.671-1.906-6.886-5.086-7.928-5.83-6.267-12.028-3.834-14.061.821-.2.454-.389.975-.58,1.544l-.006.018c-.71,2.1-1.381,4.839-1.983,6.951a.009.009,0,0,1,0,.012c0,.008,0,.014-.007.024l0,.006a21.374,21.374,0,0,1-.823,2.437c-1.693,3.788-5.293,5.877-6.373,16.394" transform="translate(-97.912 -23.666)" fill="#263238"/>
      <path id="Trazado_819032" data-name="Trazado 819032" d="M381.334,90.407a6.761,6.761,0,0,1,3.507,5.663,18.8,18.8,0,0,0,.661,4.572,15.954,15.954,0,0,0,2.267,4.067,12.038,12.038,0,0,1,2.5,6.636,21.591,21.591,0,0,1-1.067,8.282c0,.014-.024.007-.019-.008a22.888,22.888,0,0,0,.635-8.649c-.341-2.913-1.8-4.775-3.284-7.019a12.361,12.361,0,0,1-2.066-5.977,15.233,15.233,0,0,0-.474-3.958,7.459,7.459,0,0,0-2.817-3.342c-.154-.118,0-.36.161-.267" transform="translate(-107.759 -25.557)" fill="#263238"/>
      <path id="Trazado_819033" data-name="Trazado 819033" d="M348.561,105.713c1.577-2.042,3.2-3.776,4.181-6.334.892-2.33,1.45-4.8,2.356-7.129a.028.028,0,1,1,.053.019c-1.419,4.136-1.834,8.335-4.494,11.779a27.963,27.963,0,0,0-3.879,5.865,21.827,21.827,0,0,0-1.726,7.5c-.006.093-.116.085-.121,0a17.945,17.945,0,0,1,3.629-11.7" transform="translate(-97.524 -26.078)" fill="#263238"/>
      <path id="Trazado_819034" data-name="Trazado 819034" d="M357.874,129.511c-6.125,14.2-15.211,28.682-19.995,31.1-3.358,1.7-10,1.592-12.175-2.287-4.745-8.466-6.41-22.03-5.245-29.043.415-2.495,13.634-3.53,14.641-1.022,2.361,5.874,3.126,11.963,3.87,11.963.635,0,4.1-4.737,11.9-13.031,8.134-8.646,9.144-2.645,7,2.322" transform="translate(-90.509 -34.725)" fill="#eb9481"/>
      <path id="Trazado_819035" data-name="Trazado 819035" d="M320.368,125.811s.227-7.393,2.857-12.319c1.819-3.406,6.6-10.376,18.118-10.866,2.731-.116,6.706,1.655,2.313,3.465-3.119,1.286-5.486,1.159-7.165,2.237,0,0,4.788,2.853,4.8,5.594a50.471,50.471,0,0,1-.486,7.165,10.7,10.7,0,0,1-1.348.029s-.072,2.566-2.936,5.227Z" transform="translate(-90.584 -29.016)" fill="#eb9481"/>
      <path id="Trazado_819036" data-name="Trazado 819036" d="M327.5,112.759a30.319,30.319,0,0,1,9.644-2.214c4.126-.046,12.089.977,12.092,4.024,0,2.234-3.073,2.111-3.073,2.111s3.2,1.117,2.762,3.135c-.4,1.84-2.774,1.6-2.774,1.6s1.826,1.011,1.1,2.708c-.874,2.042-4.557-.412-7.23.89-.6.293-12.521-12.256-12.521-12.256" transform="translate(-92.6 -31.256)" fill="#eb9481"/>
      <path id="Trazado_819037" data-name="Trazado 819037" d="M339.99,116.574a16.441,16.441,0,0,1,9.656,1.691c.073.042.081.12.006.1a40.506,40.506,0,0,0-9.661-1.749c-.023,0-.022-.034,0-.039" transform="translate(-96.128 -32.917)" fill="#263238"/>
      <path id="Trazado_819038" data-name="Trazado 819038" d="M340.222,122.43a18.447,18.447,0,0,1,9.538,2.264c.072.044.075.123,0,.1a43.393,43.393,0,0,0-9.541-2.322c-.022,0-.019-.037,0-.039" transform="translate(-96.193 -34.608)" fill="#263238"/>
      <path id="Trazado_819039" data-name="Trazado 819039" d="M350.224,157.056l-4.137-18.709a167.826,167.826,0,0,1,13.256-13.129c6.729-5.815,9.931-5.193,5.9,5.161s-9.955,22.351-15.022,26.677" transform="translate(-97.856 -34.365)" fill="#ffc727"/>
      <path id="Trazado_819040" data-name="Trazado 819040" d="M350.224,157.056l-4.137-18.709a167.826,167.826,0,0,1,13.256-13.129c6.729-5.815,9.931-5.193,5.9,5.161s-9.955,22.351-15.022,26.677" transform="translate(-97.856 -34.365)" fill="#ffd559"/>
      <path id="Trazado_819041" data-name="Trazado 819041" d="M349.313,144.4c.714,2.556,1.332,5.122,1.864,7.722q.4,1.958.75,3.925c.237,1.338.384,2.687.587,4.03.01.066-.091.075-.1.01-.483-2.622-1.064-5.234-1.6-7.847s-1.064-5.212-1.592-7.818c-.01-.051.075-.072.09-.022" transform="translate(-98.743 -40.822)" fill="#263238"/>
      <path id="Trazado_819042" data-name="Trazado 819042" d="M365.082,134.6c-.141.336-.283.665-.417,1,0-.074.014-.148.02-.222a5,5,0,0,1,.356-1.29,2.653,2.653,0,0,1,.041.511m-11.525-.377a4.647,4.647,0,0,0-.016,1.332,4.651,4.651,0,0,0,.357-1.283,4.7,4.7,0,0,0,.015-1.332,4.725,4.725,0,0,0-.356,1.283m3.764,13.395a4.674,4.674,0,0,0-.016,1.332,4.652,4.652,0,0,0,.357-1.283,4.7,4.7,0,0,0,.015-1.332,4.725,4.725,0,0,0-.356,1.283m-4.444-5.8a4.649,4.649,0,0,0-1.332-.015,4.642,4.642,0,0,0,1.283.356,4.7,4.7,0,0,0,1.332.015,4.732,4.732,0,0,0-1.283-.356m13.677-17.507a4.648,4.648,0,0,0-1.332-.016,4.65,4.65,0,0,0,1.283.356,4.7,4.7,0,0,0,1.332.016,4.7,4.7,0,0,0-1.283-.356m-4.864,17.677a.428.428,0,0,0,.034.081c.014-.014.02-.021.02-.034a.19.19,0,0,0-.054-.047m-10.622,7.843a4.665,4.665,0,0,0,.931.953,4.663,4.663,0,0,0-.655-1.16,4.717,4.717,0,0,0-.931-.952,4.718,4.718,0,0,0,.655,1.159m7.421-11.649a4.657,4.657,0,0,0,.952-.93,4.665,4.665,0,0,0-1.16.655,4.737,4.737,0,0,0-.952.931,4.717,4.717,0,0,0,1.16-.656m2.028-8.062a4.644,4.644,0,0,0,.934.95,4.647,4.647,0,0,0-.659-1.157,4.719,4.719,0,0,0-.933-.95,4.685,4.685,0,0,0,.658,1.158" transform="translate(-99.08 -35.132)" fill="#fff"/>
      <path id="Trazado_819043" data-name="Trazado 819043" d="M366.205,130.609c-4.031,10.351-9.955,22.349-15.019,26.674l-1.707-7.7,18.175-27.234c.689,1.09.308,3.752-1.449,8.263" transform="translate(-98.816 -34.593)" fill="#263238"/>
      <path id="Trazado_819044" data-name="Trazado 819044" d="M356.46,161.418s12.928,3.063,37.425.947c0,0-9.578-30.574-17.292-38.817-3.51-3.75-6.942-3.177-9.849-.765-.725.6-9.719,12.018-10.481,16-.673,3.517,2.184,7.418,2.184,7.418Z" transform="translate(-100.704 -34.172)" fill="#ffd559"/>
      <path id="Trazado_819045" data-name="Trazado 819045" d="M367.53,134.092a4.7,4.7,0,0,1-.015,1.331,4.642,4.642,0,0,1-.356,1.283,4.642,4.642,0,0,1,.015-1.331,4.743,4.743,0,0,1,.356-1.283m-.944,23.217a4.675,4.675,0,0,0-.016,1.332,4.651,4.651,0,0,0,.357-1.283,4.7,4.7,0,0,0,.015-1.332,4.725,4.725,0,0,0-.356,1.283m-6.345,3.959a4.676,4.676,0,0,0-.016,1.332,4.649,4.649,0,0,0,.357-1.284,4.723,4.723,0,0,0,.016-1.331,4.7,4.7,0,0,0-.357,1.283m20.565-18.111a4.648,4.648,0,0,0-.016,1.332,4.657,4.657,0,0,0,.357-1.284,4.724,4.724,0,0,0,.015-1.331,4.725,4.725,0,0,0-.356,1.283m-21,4.46a4.649,4.649,0,0,0-.016,1.332,4.648,4.648,0,0,0,.356-1.283,4.7,4.7,0,0,0,.016-1.332,4.7,4.7,0,0,0-.356,1.283m14.221-9.711a4.65,4.65,0,0,0-1.332-.016,4.643,4.643,0,0,0,1.283.357,4.7,4.7,0,0,0,1.332.016,4.706,4.706,0,0,0-1.283-.356m7.621,12.941a4.648,4.648,0,0,0-1.332-.016,4.657,4.657,0,0,0,1.283.356,4.727,4.727,0,0,0,1.332.016,4.7,4.7,0,0,0-1.283-.356m-12.695-1.064a4.619,4.619,0,0,0-1.331-.015,4.667,4.667,0,0,0,1.283.356,4.722,4.722,0,0,0,1.331.015,4.718,4.718,0,0,0-1.283-.356m23.031,11.891a4.648,4.648,0,0,0-1.332-.016,4.65,4.65,0,0,0,1.283.356,4.7,4.7,0,0,0,1.332.016,4.706,4.706,0,0,0-1.283-.356M369.04,124.309a4.648,4.648,0,0,0-1.332-.016,4.642,4.642,0,0,0,1.283.356,4.7,4.7,0,0,0,1.332.016,4.707,4.707,0,0,0-1.283-.356m6.25,3.86a4.657,4.657,0,0,0,.93.952,4.644,4.644,0,0,0-.655-1.16,4.7,4.7,0,0,0-.931-.953,4.715,4.715,0,0,0,.656,1.16m11.545,16.518a4.658,4.658,0,0,0,.93.953,4.625,4.625,0,0,0-.655-1.159,4.7,4.7,0,0,0-.931-.953,4.717,4.717,0,0,0,.656,1.16m-22-1.541a4.647,4.647,0,0,0,.931.953,4.645,4.645,0,0,0-.656-1.16,4.7,4.7,0,0,0-.93-.952,4.7,4.7,0,0,0,.655,1.159m11,12.313a4.62,4.62,0,0,0,.93.952,4.675,4.675,0,0,0-.655-1.159,4.74,4.74,0,0,0-.931-.953,4.7,4.7,0,0,0,.656,1.16m-13.01-25.606c.066.086.126.172.185.258a4.559,4.559,0,0,0,.931.958,4.569,4.569,0,0,0-.661-1.162c-.085-.112-.171-.218-.264-.323-.06.086-.126.179-.192.27m-1.847,8.327a4.666,4.666,0,0,0,.953-.931,4.644,4.644,0,0,0-1.16.656,4.694,4.694,0,0,0-.953.93,4.719,4.719,0,0,0,1.159-.655m27.991,15.346a4.627,4.627,0,0,0,.953-.931,5.148,5.148,0,0,0-2.112,1.587,4.7,4.7,0,0,0,1.159-.656m-28.6.483a4.644,4.644,0,0,0,.953-.93,4.642,4.642,0,0,0-1.16.655,4.718,4.718,0,0,0-.953.931,4.7,4.7,0,0,0,1.159-.656M380.119,134.9a4.621,4.621,0,0,0,.953-.93,5.142,5.142,0,0,0-2.112,1.586,4.7,4.7,0,0,0,1.159-.656M372,162.3a4.657,4.657,0,0,0,.952-.93,4.621,4.621,0,0,0-1.16.655,4.718,4.718,0,0,0-.952.931A4.717,4.717,0,0,0,372,162.3m2.414-16.847a4.642,4.642,0,0,0,.953-.93,5.138,5.138,0,0,0-2.112,1.586,4.7,4.7,0,0,0,1.159-.656m9.187,13.53a4.625,4.625,0,0,0,.952-.931,4.639,4.639,0,0,0-1.159.656,4.717,4.717,0,0,0-.953.93,4.665,4.665,0,0,0,1.16-.655" transform="translate(-101.566 -35.132)" fill="#fff"/>
      <path id="Trazado_819046" data-name="Trazado 819046" d="M360.9,134.107a38.307,38.307,0,0,0-2.184,3.3c.276-.64.536-1.286.762-1.949.009-.027-.034-.044-.047-.019-.235.469-.476.937-.673,1.424-.177.437-.35.874-.512,1.315l-.014.024a17.485,17.485,0,0,0-2.03,4.193,8.167,8.167,0,0,0,.085,4.118,10.185,10.185,0,0,0,.8,2,6.241,6.241,0,0,0,1.052,1.573c-.247,1.409-.41,2.84-.595,4.259a33.888,33.888,0,0,0-.434,4.174.077.077,0,0,0,.151.017c.028-.1.058-.2.091-.3a.046.046,0,0,0-.014-.047c.3-1.279.435-2.619.611-3.915.183-1.348.524-4.161.525-4.177.006-.065-.642-1.178-.9-1.714a12.157,12.157,0,0,1-.742-2.035,7.635,7.635,0,0,1-.082-4.04,19.21,19.21,0,0,1,1.9-4.061c.762-1.364,1.546-2.718,2.333-4.067.031-.054-.051-.118-.09-.066" transform="translate(-100.653 -37.914)" fill="#263238"/>
      <path id="Trazado_819047" data-name="Trazado 819047" d="M376.8,118.791c-.147.661-3.246,4.977-6.262,4.869-.982-.037-1.021-5.406-1.021-5.406l-.093-.4-1.3-5.54,6.477-4.259.937-.565s.257,1.539.557,3.459c.014.089.029.178.043.273s.04.21.054.312c.049.286.1.579.139.871.033.222.066.439.092.673s.059.463.091.7a36.645,36.645,0,0,1,.29,5.01" transform="translate(-104.086 -30.394)" fill="#eb9481"/>
      <path id="Trazado_819048" data-name="Trazado 819048" d="M376.09,110.953a11.417,11.417,0,0,1-6.667,6.9l-1.3-5.54,6.477-4.258.937-.566s.257,1.54.557,3.459" transform="translate(-104.086 -30.394)" fill="#263238"/>
      <path id="Trazado_819049" data-name="Trazado 819049" d="M356.331,96.1c-2.848,9.574,2.564,12.361,4.629,12.973,1.875.556,8.329,2.209,12.152-7.02s.271-13.58-3.949-15.077-9.983-.451-12.832,9.123" transform="translate(-100.524 -24.436)" fill="#eb9481"/>
      <path id="Trazado_819050" data-name="Trazado 819050" d="M359.092,97.818a6.512,6.512,0,0,0,.689.041,1.114,1.114,0,0,0,.711-.093.354.354,0,0,0,.113-.418.881.881,0,0,0-.783-.428,1.293,1.293,0,0,0-.9.227.379.379,0,0,0,.175.671" transform="translate(-101.442 -27.402)" fill="#263238"/>
      <path id="Trazado_819051" data-name="Trazado 819051" d="M367.962,100.16a6.509,6.509,0,0,1-.613-.316,1.113,1.113,0,0,1-.565-.441.356.356,0,0,1,.115-.418.881.881,0,0,1,.892.031,1.291,1.291,0,0,1,.663.656.379.379,0,0,1-.492.488" transform="translate(-103.701 -27.957)" fill="#263238"/>
      <path id="Trazado_819052" data-name="Trazado 819052" d="M365.3,103.379c.012-.024.042.046.033.072-.215.646-.354,1.421.171,1.814.016.011,0,.044-.016.034-.689-.316-.5-1.344-.188-1.921" transform="translate(-103.209 -29.229)" fill="#263238"/>
      <path id="Trazado_819053" data-name="Trazado 819053" d="M366.113,102.669c1.072.234.526,2.36-.468,2.144-.977-.213-.431-2.34.468-2.144" transform="translate(-103.24 -29.026)" fill="#263238"/>
      <path id="Trazado_819054" data-name="Trazado 819054" d="M366.982,102.971c.155.168.283.427.5.507.252.092.5-.08.729-.251.024-.018.037.006.03.034-.1.409-.363.787-.815.735-.413-.047-.606-.481-.6-.917,0-.081.095-.176.157-.108" transform="translate(-103.72 -29.109)" fill="#263238"/>
      <path id="Trazado_819055" data-name="Trazado 819055" d="M359.9,101.873c0-.027-.06.019-.066.046-.143.665-.42,1.4-1.071,1.473-.02,0-.027.036,0,.038.754.079,1.111-.9,1.14-1.557" transform="translate(-101.435 -28.802)" fill="#263238"/>
      <path id="Trazado_819056" data-name="Trazado 819056" d="M359.307,100.7c-1.041-.344-1.654,1.764-.689,2.083.95.314,1.562-1.794.689-2.083" transform="translate(-101.263 -28.461)" fill="#263238"/>
      <path id="Trazado_819057" data-name="Trazado 819057" d="M358.641,100.556c-.2.063-.422.219-.625.174-.235-.052-.339-.329-.423-.591-.009-.027-.031-.014-.039.014-.128.4-.117.859.247,1.048.333.174.693-.1.905-.471.039-.069.016-.2-.065-.174" transform="translate(-101.077 -28.31)" fill="#263238"/>
      <path id="Trazado_819058" data-name="Trazado 819058" d="M363.04,110.928c-.192.123-.4.3-.642.274a1.814,1.814,0,0,1-.681-.317.024.024,0,0,0-.036.028.918.918,0,0,0,.77.538.724.724,0,0,0,.646-.479c.019-.037-.029-.062-.057-.044" transform="translate(-102.265 -31.352)" fill="#263238"/>
      <path id="Trazado_819059" data-name="Trazado 819059" d="M360.436,108.452a2.775,2.775,0,0,0,.777,1.171,1.252,1.252,0,0,0,.7.287c.566.039.74-.434.782-.874a2.986,2.986,0,0,0-.022-.7,3.591,3.591,0,0,1-2.239.119" transform="translate(-101.914 -30.631)" fill="#263238"/>
      <path id="Trazado_819060" data-name="Trazado 819060" d="M361.519,109.883a1.247,1.247,0,0,0,.7.287c.566.039.74-.433.782-.874a1.29,1.29,0,0,0-1.485.587" transform="translate(-102.22 -30.893)" fill="#ff98b9"/>
      <path id="Trazado_819061" data-name="Trazado 819061" d="M360.186,104.112s-.4.945-.524,1.407c-.011.043.095.094.25.146.006,0,.01.009.018.005a2.275,2.275,0,0,0,2.357-.246c.044-.037,0-.1-.052-.082a3.435,3.435,0,0,1-2.163.034c0-.137.739-1.594.667-1.62a4.164,4.164,0,0,0-1.115-.045c.775-1.991,1.864-3.842,2.607-5.836a.065.065,0,0,0-.113-.062,34.59,34.59,0,0,0-3.076,6.166c-.109.253.937.162,1.143.133" transform="translate(-101.517 -27.649)" fill="#263238"/>
      <path id="Trazado_819062" data-name="Trazado 819062" d="M372.97,101.916c-1.579-.312-1.028-3.651-1.028-3.651s-3.142-.868-2.916-5.672a7.223,7.223,0,0,0,.346,4.121S364,94.581,362.964,89.3a12.728,12.728,0,0,0,.908,3.7,6.732,6.732,0,0,1-2.746-3.5,14.553,14.553,0,0,1-2.67,2.933s2.936-9.622,11.621-6.084c0,0,5.515,1.943,6.29,6.954s-3.4,8.612-3.4,8.612" transform="translate(-101.354 -24.195)" fill="#263238"/>
      <path id="Trazado_819063" data-name="Trazado 819063" d="M377.8,110.915a2.051,2.051,0,0,1-.478.024,1.551,1.551,0,0,1-.464-.082,1.378,1.378,0,0,1-.526-.3,1.631,1.631,0,0,1-.31-.361,1.933,1.933,0,0,1-.26-.626l1.079-2.5s2.766-2.614,3.991-1.568-1.281,5.145-3.033,5.415" transform="translate(-106.248 -29.76)" fill="#eb9481"/>
      <path id="Trazado_819064" data-name="Trazado 819064" d="M380.439,107.2a.023.023,0,0,1,0,.045,4.269,4.269,0,0,0-2.7,2.173.933.933,0,0,1,1.418.031c.025.027-.013.068-.044.055a1.038,1.038,0,0,0-1.193.125,5.048,5.048,0,0,0-.722.8c-.075.091-.247,0-.184-.111l.014-.024c.27-1.46,1.819-3.263,3.411-3.089" transform="translate(-106.597 -30.309)" fill="#263238"/>
      <path id="Trazado_819065" data-name="Trazado 819065" d="M378.185,112.28a.462.462,0,1,1-.245-.607.463.463,0,0,1,.245.607" transform="translate(-106.681 -31.565)" fill="#fff"/>
      <path id="Trazado_819066" data-name="Trazado 819066" d="M379.782,111.668a.327.327,0,1,1-.174-.429.327.327,0,0,1,.174.429" transform="translate(-107.206 -31.445)" fill="#fff"/>
      <path id="Trazado_819067" data-name="Trazado 819067" d="M379.116,126.592c6.4,8.654,18.606,29.135,14.508,33.647-6.738,7.417-22.943,13.691-27.989,15.067-2.178.594-9.47-15.341-7.4-16.581,2.485-1.489,19.841-6.8,19.792-8.276-.027-.837-1.833-7.861-3.322-16.875-1.727-10.455,1.362-11.107,4.41-6.982" transform="translate(-101.188 -35.126)" fill="#eb9481"/>
      <path id="Trazado_819068" data-name="Trazado 819068" d="M356.045,169.323s-6.539-2.1-10.879-3.265c-2.421-.652-6.673-1.4-8.672-1.066-2.989.5-15.17,4.5-14.263,7.477.821,2.693,10.849-2.074,10.849-2.074s-10.544,3.915-8.96,6.975,12.2-3.832,12.2-3.832-10.744,4.266-8.611,7.163c1.612,2.189,11.578-3.512,11.578-3.512s-9.209,3.73-7.649,6.054c1.724,2.567,11.253-2.118,11.253-2.118,4.961,5.237,9.465,5.7,12.709,5.65.785-.013.447-17.452.447-17.452" transform="translate(-91.098 -46.628)" fill="#eb9481"/>
      <path id="Trazado_819069" data-name="Trazado 819069" d="M337.769,170.342c-1.255.415-2.528.827-3.743,1.352s-2.411,1.093-3.57,1.729a22.554,22.554,0,0,0-4.277,2.9,48.733,48.733,0,0,1,8-4.3c1.211-.524,2.4-1.109,3.609-1.635.031-.013.009-.055-.022-.045" transform="translate(-92.226 -48.164)" fill="#263238"/>
      <path id="Trazado_819070" data-name="Trazado 819070" d="M341.455,176.406c-1.58.6-3.17,1.137-4.725,1.806s-2.955,1.433-4.451,2.2c-.115.06-.045.1.072.047,1.526-.71,2.992-1.249,4.526-1.942s3.043-1.445,4.595-2.079c.024-.01.006-.046-.017-.037" transform="translate(-93.936 -49.879)" fill="#263238"/>
      <path id="Trazado_819071" data-name="Trazado 819071" d="M345.612,181.185A37.763,37.763,0,0,0,338.6,184.5c-.111.064-.015.108.1.049,2.31-1.145,4.115-2.061,6.938-3.279.044-.019.024-.1-.028-.085" transform="translate(-95.725 -51.23)" fill="#263238"/>
      <path id="Trazado_819072" data-name="Trazado 819072" d="M343.882,165.25a12.572,12.572,0,0,0-2.175-.641,14.57,14.57,0,0,0-2.1-.339,11.359,11.359,0,0,0-4.524.553,40.193,40.193,0,0,0-8.366,3.806c-.054.032-.014.133.045.107A75.235,75.235,0,0,1,335,165.47a12.5,12.5,0,0,1,4.448-.687,23.151,23.151,0,0,1,2.33.273c.686.1,1.379.289,2.072.327a.072.072,0,0,0,.031-.133" transform="translate(-92.372 -46.436)" fill="#263238"/>
      <path id="Trazado_819073" data-name="Trazado 819073" d="M401.555,157.174l-17.75-7.216a167.97,167.97,0,0,1-3.282-18.367c-.967-8.84,1.363-11.124,7.6-1.929s12.747,20.885,13.432,27.512" transform="translate(-107.534 -34.997)" fill="#ffd559"/>
      <path id="Trazado_819074" data-name="Trazado 819074" d="M387.325,129.581c.08.106.159.218.238.331a3.571,3.571,0,0,1-.212.594,3.606,3.606,0,0,1-.027-.925m-.437,14.663a4.648,4.648,0,0,0-.016,1.332,4.617,4.617,0,0,0,.356-1.283,4.7,4.7,0,0,0,.016-1.332,4.708,4.708,0,0,0-.356,1.283m.843,7.69a4.674,4.674,0,0,0-1.332-.016,4.652,4.652,0,0,0,1.283.357,4.7,4.7,0,0,0,1.332.015,4.726,4.726,0,0,0-1.283-.356m3.844-13.872a4.473,4.473,0,0,0,1.281.356l.2.02c-.072-.119-.146-.245-.218-.363a4.24,4.24,0,0,0-1.261-.014m-10.2-8.806a4.622,4.622,0,0,0,.93.952,4.675,4.675,0,0,0-.655-1.159,4.741,4.741,0,0,0-.931-.953,4.69,4.69,0,0,0,.656,1.16m11.545,16.518a4.644,4.644,0,0,0,.93.953,4.665,4.665,0,0,0-.655-1.16,4.715,4.715,0,0,0-.931-.952,4.7,4.7,0,0,0,.656,1.159m2.13,8.841a4.662,4.662,0,0,0,.953-.931,4.645,4.645,0,0,0-1.16.656,4.694,4.694,0,0,0-.952.93,4.719,4.719,0,0,0,1.159-.655M386.2,135.986a4.606,4.606,0,0,0,.953-.931,4.64,4.64,0,0,0-1.159.656,4.7,4.7,0,0,0-.953.931,4.716,4.716,0,0,0,1.16-.656" transform="translate(-107.648 -36.219)" fill="#fff"/>
      <path id="Trazado_819075" data-name="Trazado 819075" d="M380.821,141.918a9.612,9.612,0,0,1,.643,1.6c.062.184.123.369.183.554q-.229-1.538-.441-3.081c-.009-.067.092-.1.1-.027.45,2.322,2.515,13.205,2.608,13.77.049.006.6.32.634.318s-.014.113-.039.087-.712-.319-.714-.325c-.227-.5-1.854-8.8-2.01-9.811a1.378,1.378,0,0,1-.065-.136q-.08-.216-.161-.431c-.1-.266-.189-.536-.283-.8a11.865,11.865,0,0,1-.518-1.686.031.031,0,0,1,.057-.022" transform="translate(-107.661 -39.845)" fill="#263238"/>
      <path id="Trazado_819076" data-name="Trazado 819076" d="M385.623,157.493a17.973,17.973,0,0,1,2.078.619c.69.214,1.383.418,2.07.643,1.323.435,2.632.9,3.938,1.388a82.568,82.568,0,0,1,7.735,3.228c.052.026.013.113-.042.093-2.677-.933-5.307-1.993-7.962-2.985-1.3-.488-2.612-.969-3.918-1.455-.653-.243-1.3-.5-1.956-.742a20.656,20.656,0,0,1-1.97-.729c-.037-.019-.007-.067.027-.061" transform="translate(-109.023 -44.531)" fill="#263238"/>
      <path id="Trazado_819077" data-name="Trazado 819077" d="M378.377,85.889c.07,1.11,5.351,3.74,9.111.882,3.7-2.814,2.148-8.463-3.009-7.877-3.26.371-6.251,4.648-6.1,6.995" transform="translate(-106.985 -22.295)" fill="#263238"/>
      <path id="Trazado_819078" data-name="Trazado 819078" d="M389.319,81.132a6.51,6.51,0,0,0-2.891-3.178,3.926,3.926,0,0,0-3.923.024,7.936,7.936,0,0,0-2.88,3.1,12.12,12.12,0,0,0-.888,2.011,6.016,6.016,0,0,0-.406,2.178,5.286,5.286,0,0,1,.012-2.281,9.8,9.8,0,0,1,.7-2.2,7.651,7.651,0,0,1,3.049-3.529,4.374,4.374,0,0,1,4.655.139,5.745,5.745,0,0,1,2.568,3.736" transform="translate(-106.939 -21.674)" fill="#263238"/>
    </g>
  </g>
  <g id="Grupo_1072262" data-name="Grupo 1072262">
    <g id="Grupo_1072261" data-name="Grupo 1072261" clip-path="url(#clip-path)">
      <path id="Trazado_819079" data-name="Trazado 819079" d="M111.628,376.809c-1.475.476-43.537-.069-45.124-1.108-.61-.384-.887-6.518-1.011-13.938,0-.078,0-.155,0-.232-.029-1.529-.049-3.1-.051-4.7,0-.219,0-.439-.008-.658l2.041-21.821,28.137.282-2.777,21.616-.032.856-.17,4.474-.016.46s16.007,7.41,17.633,8.736,2.856,5.564,1.38,6.033" transform="translate(-18.501 -94.538)" fill="#d3766a"/>
      <path id="Trazado_819080" data-name="Trazado 819080" d="M111.628,385.411c-1.475.476-43.537-.069-45.124-1.108-.61-.384-.887-6.518-1.011-13.938,0-.077,0-.155,0-.232-.029-1.529-.049-3.1-.051-4.7,0-.219,0-.439-.008-.658l27.4.077-.032.856-.17,4.474-.016.46s16.007,7.41,17.633,8.736,2.856,5.564,1.38,6.034" transform="translate(-18.501 -103.14)" fill="#ebebeb"/>
      <path id="Trazado_819081" data-name="Trazado 819081" d="M111.656,387.519c-.76.245-12.187.219-23.357-.006-2.246-.045-4.479-.1-6.608-.154-7.966-.219-14.548-.547-15.16-.946-.6-.379-.882-6.344-1-13.628,0-.1-.006-.206-.006-.309,0-.077,0-.161-.006-.238h.032l27.108.052-.013.463s16.009,7.406,17.63,8.731,2.857,5.566,1.384,6.036" transform="translate(-18.524 -105.25)" fill="#632059"/>
      <path id="Trazado_819082" data-name="Trazado 819082" d="M112.344,391.072c-7.088-.266-35.7-.67-42.728-.394-.057,0-.058.041,0,.044,7.02.417,35.635.59,42.727.466.15,0,.151-.11,0-.116" transform="translate(-19.672 -110.438)" fill="#263238"/>
      <path id="Trazado_819083" data-name="Trazado 819083" d="M104.257,372.383c-2.783-.557-6.2-.173-8.359,1.787-.084.076.025.194.116.166a39.235,39.235,0,0,1,8.227-1.6.178.178,0,0,0,.016-.352" transform="translate(-27.107 -105.226)" fill="#263238"/>
      <path id="Trazado_819084" data-name="Trazado 819084" d="M107.043,374.112c-2.783-.557-6.2-.173-8.359,1.787-.084.076.025.194.116.166a39.244,39.244,0,0,1,8.227-1.6.178.178,0,0,0,.016-.352" transform="translate(-27.895 -105.715)" fill="#263238"/>
      <path id="Trazado_819085" data-name="Trazado 819085" d="M109.829,375.84c-2.784-.557-6.2-.173-8.359,1.787-.084.076.025.194.116.166a39.238,39.238,0,0,1,8.227-1.6.178.178,0,0,0,.016-.352" transform="translate(-28.682 -106.203)" fill="#263238"/>
      <path id="Trazado_819086" data-name="Trazado 819086" d="M88.3,387.512c-2.246-.045-4.479-.1-6.608-.154-7.966-.219-14.548-.547-15.159-.946-.605-.379-.882-6.344-1-13.628,0-.1-.006-.206-.006-.309,0-.077,0-.161-.006-.238h.032c3.712,2.606,16.8,11.318,22.752,15.275" transform="translate(-18.524 -105.25)" fill="#263238"/>
      <path id="Trazado_819087" data-name="Trazado 819087" d="M88.581,313.908H58.288s6.1-70.752,5.862-71.987c-.3-1.583-2.092-8.744-4.472-18.1-.747-2.928-1.551-6.068-2.387-9.324-2.259-8.8-4.749-18.421-6.917-26.792-3.256-12.541-5.8-22.283-5.8-22.283H70.249s2.992,9.484,6.763,21.826c6.145,20.056,14.354,47.659,15.166,54.37,1.313,10.835-3.6,72.29-3.6,72.29" transform="translate(-12.604 -46.773)" fill="#37474f"/>
      <path id="Trazado_819088" data-name="Trazado 819088" d="M93.328,365.15c-4.627-.1-3.3-.134-7.925-.179-2.264-.022-17.144-.151-19.259.2a.049.049,0,0,0,0,.094c2.115.35,17,.221,19.259.2,4.628-.044,3.3-.082,7.925-.179a.067.067,0,0,0,0-.135" transform="translate(-18.692 -103.185)" fill="#263238"/>
      <path id="Trazado_819089" data-name="Trazado 819089" d="M71.916,240.131c-.993-4.379-2.477-8.67-3.769-12.969q-3.939-13.1-7.924-26.186-1.989-6.546-4-13.084-1.017-3.3-2.043-6.6c-.674-2.149-1.441-4.281-2.049-6.45-.247-.883-.383-.4-.066.723.639,2.259,1.27,4.522,1.929,6.775q1.957,6.694,3.939,13.382,3.939,13.313,7.946,26.6,2,6.667,4.01,13.332a54.6,54.6,0,0,1,1.637,6.449,29.725,29.725,0,0,1,.268,6.9c-.29,4.635-.828,9.263-1.255,13.887l-1.287,13.9q-1.28,13.832-2.538,27.666c-.105,1.168-.208,2.337-.3,3.508-.03.392.562.361.6-.015,1-9.118,1.762-18.266,2.619-27.4q1.278-13.631,2.553-27.263c.213-2.282.456-4.567.458-6.86a28.323,28.323,0,0,0-.737-6.3" transform="translate(-14.67 -49.308)" fill="#263238"/>
      <path id="Trazado_819090" data-name="Trazado 819090" d="M67.335,165.423c-1.782,13.789-5.18,39.642-7.657,58.4-5.791-22.727-15.1-58.4-15.1-58.4Z" transform="translate(-12.604 -46.774)" fill="#263238"/>
      <path id="Trazado_819091" data-name="Trazado 819091" d="M66.854,377.441c-1.474.481-43.537.09-45.128-.943-.611-.382-.912-6.515-1.062-13.935l0-.232c-.034-1.529-.06-3.1-.068-4.7,0-.219,0-.439-.01-.658-.1-10.709.674-21.821.674-21.821l27.494.179-.767,21.619-.029.856L47.8,362.28l-.015.46s16.033,7.351,17.664,8.672,2.877,5.554,1.4,6.028" transform="translate(-5.818 -94.764)" fill="#d3766a"/>
      <path id="Trazado_819092" data-name="Trazado 819092" d="M66.858,386.034c-1.474.481-43.537.09-45.128-.943-.611-.382-.912-6.515-1.062-13.935l0-.232c-.034-1.529-.06-3.1-.068-4.7,0-.219,0-.439-.01-.658l27.4-.023-.029.856-.153,4.475-.015.46s16.033,7.351,17.664,8.672,2.877,5.554,1.4,6.028" transform="translate(-5.821 -103.357)" fill="#ebebeb"/>
      <path id="Trazado_819093" data-name="Trazado 819093" d="M66.889,388.136c-1.474.481-43.537.09-45.128-.943-.611-.382-.912-6.515-1.062-13.935l0-.232,27.14-.05-.015.46s16.033,7.351,17.664,8.672,2.877,5.554,1.4,6.028" transform="translate(-5.852 -105.459)" fill="#632059"/>
      <path id="Trazado_819094" data-name="Trazado 819094" d="M67.594,391.688c-7.089-.24-35.7-.54-42.729-.239-.057,0-.057.042,0,.045,7.02.392,35.637.459,42.729.31.149,0,.151-.111,0-.116" transform="translate(-7.018 -110.647)" fill="#263238"/>
      <path id="Trazado_819095" data-name="Trazado 819095" d="M59.442,373.034c-2.785-.547-6.2-.15-8.352,1.818-.083.076.026.193.117.166a39.255,39.255,0,0,1,8.221-1.632.178.178,0,0,0,.014-.352" transform="translate(-14.437 -105.412)" fill="#263238"/>
      <path id="Trazado_819096" data-name="Trazado 819096" d="M62.235,374.752c-2.785-.547-6.2-.15-8.352,1.818-.083.076.027.193.117.166A39.265,39.265,0,0,1,62.22,375.1a.178.178,0,0,0,.014-.352" transform="translate(-15.227 -105.898)" fill="#263238"/>
      <path id="Trazado_819097" data-name="Trazado 819097" d="M65.027,376.471c-2.785-.547-6.2-.15-8.352,1.818-.084.076.026.193.117.166a39.209,39.209,0,0,1,8.221-1.632.178.178,0,0,0,.014-.352" transform="translate(-16.016 -106.384)" fill="#263238"/>
      <path id="Trazado_819098" data-name="Trazado 819098" d="M61.719,165.423s-.592,12.283-3.4,22.012c-.225.8-.469,1.6-.733,2.355a45.671,45.671,0,0,0-7.4,3.8s-.3,9.884-.592,20.906c-.328,12.322-.669,26.066-.6,28.98.257,10.906-1.364,70.874-1.364,70.874l-30.287.122s5.475-66.969,5.437-70.965c-.057-6.422,1.467-34.8,2.644-55.5.721-12.753,1.313-22.585,1.313-22.585Z" transform="translate(-4.903 -46.774)" fill="#37474f"/>
      <path id="Trazado_819099" data-name="Trazado 819099" d="M47.39,365.489c-4.627-.077-3.3-.12-7.925-.145-2.264-.012-17.145-.078-19.259.281a.049.049,0,0,0,0,.094c2.117.341,17,.149,19.26.117,4.627-.064,3.3-.1,7.923-.212a.067.067,0,0,0,0-.135" transform="translate(-5.704 -103.298)" fill="#263238"/>
      <path id="Trazado_819100" data-name="Trazado 819100" d="M30.967,171.5c-.557,16.9-1.148,33.8-1.9,50.686-.759,16.948-1.78,33.889-3.2,50.795-.793,9.445-1.539,22.732-2.558,32.156-.007.063.09.086.1.022,2.206-16.762,3.434-37.488,4.519-54.355s1.819-33.759,2.394-50.648c.326-9.554.575-19.111.86-28.666,0-.136-.207-.123-.211.011" transform="translate(-6.59 -48.461)" fill="#263238"/>
      <path id="Trazado_819101" data-name="Trazado 819101" d="M71.767,198.369a56.227,56.227,0,0,0-8.659,4.535.1.1,0,0,0,.091.178c2.922-1.419,5.905-2.787,8.745-4.364a.2.2,0,0,0-.177-.349" transform="translate(-17.83 -56.084)" fill="#263238"/>
      <path id="Trazado_819102" data-name="Trazado 819102" d="M73.264,183.829c-.2,1.077-.461,2.142-.694,3.212-.218,1-.379,2.028-.644,3.02a5.138,5.138,0,0,1-1.407,2.532c-.394.367-.828.691-1.248,1.026-.226.181-.471.354-.706.537.03-.142.055-.287.08-.433.072-.408.141-.816.209-1.225q.229-1.36.436-2.723c.273-1.786.525-3.591.9-5.36a.057.057,0,0,0-.111-.027c-.445,1.752-.937,3.486-1.324,5.253-.19.866-.868,5.146-.9,5.449s-.057.626-.068.94a3.743,3.743,0,0,0,0,.96.079.079,0,0,0,.146.013l.005,0a3.783,3.783,0,0,0,.272-.93c.079-.306.148-.615.2-.926.02-.112.036-.227.052-.341.422-.256.814-.595,1.208-.88.425-.308.857-.607,1.259-.945a4.822,4.822,0,0,0,1.537-2.4,17.515,17.515,0,0,0,.5-3.075c.136-1.216.236-2.439.405-3.65.01-.072-.1-.1-.111-.028" transform="translate(-19.157 -51.966)" fill="#263238"/>
      <path id="Trazado_819103" data-name="Trazado 819103" d="M59.581,121.257c4.692,9.3,16.589,28.232,22.722,28.35,7.663.148,22.961-11.026,26.77-15.386,1.659-1.9-11.52-15.012-13.474-13.154-2.614,2.486-11.491,10.046-11.8,10.168-.651.261-11.953-9.1-18.753-15.14-7.615-6.761-9.021-1.871-5.47,5.163" transform="translate(-16.322 -31.913)" fill="#d3766a"/>
      <path id="Trazado_819104" data-name="Trazado 819104" d="M118.138,133.549s5.763-4.681,9.388-7.92c2.022-1.806,5.213-5.213,6.092-7.22,1.314-3,4.892-16.4,1.663-17.334-2.923-.848-4.536,11.05-4.536,11.05s2.69-11.863-1.018-12.237-3.743,13.309-3.743,13.309,2.49-12.248-1.394-12.031c-2.935.166-3.665,12.558-3.665,12.558s2.067-10.543-.959-10.5c-3.344.043-4.735,11.44-4.735,11.44-7.675,1.4-10.688,4.995-12.56,7.961-.453.719,15.467,10.927,15.467,10.927" transform="translate(-29.028 -28.241)" fill="#d3766a"/>
      <path id="Trazado_819105" data-name="Trazado 819105" d="M140.865,117.22c.366-1.381.747-2.778.988-4.188s.436-2.829.546-4.255a24.441,24.441,0,0,0-.1-5.59,52.659,52.659,0,0,1-.834,9.792c-.242,1.407-.413,2.825-.653,4.233-.006.035.045.04.054.007" transform="translate(-39.814 -29.175)" fill="#263238"/>
      <path id="Trazado_819106" data-name="Trazado 819106" d="M133.75,117.419c.392-1.785.845-3.543,1.158-5.345s.449-3.523.635-5.333c.014-.139-.065-.1-.085.038-.26,1.8-.638,3.447-.918,5.245s-.491,3.609-.834,5.389c-.006.028.037.034.043.006" transform="translate(-37.806 -30.156)" fill="#263238"/>
      <path id="Trazado_819107" data-name="Trazado 819107" d="M127.451,118.52a40.838,40.838,0,0,0,1.145-8.308c.009-.139-.089-.078-.106.062-.329,2.769-.567,4.944-1.133,8.22-.009.051.078.082.094.025" transform="translate(-36.01 -31.14)" fill="#263238"/>
      <path id="Trazado_819108" data-name="Trazado 819108" d="M89.277,125.842l11.1,18.07s-13.687,7.333-18.882,5.993-18.125-17.981-22.519-28.643,1.105-9.852,5.4-6.224,19.122,15.632,19.345,15.6,5.555-4.8,5.555-4.8" transform="translate(-16.218 -31.835)" fill="#c8b1c5"/>
      <path id="Trazado_819109" data-name="Trazado 819109" d="M102.872,143.573c-.723-1.308-1.475-2.6-2.228-3.888-.362-.62-.718-1.243-1.1-1.85-.411-.654-.78-1.358-1.235-1.981a.042.042,0,0,0-.074.04c.288.715.691,1.4,1.028,2.093.313.646.656,1.277.991,1.91.7,1.32,1.4,2.641,2.123,3.946,1.459,2.613,2.987,5.175,4.55,7.726a.056.056,0,0,0,.1-.054c-1.34-2.674-2.707-5.323-4.154-7.941" transform="translate(-27.775 -38.407)" fill="#263238"/>
      <path id="Trazado_819110" data-name="Trazado 819110" d="M91.15,137.7a31.385,31.385,0,0,0-3.588,3.059c-.612.6-1.209,1.211-1.782,1.845-.591.654-1.125,1.353-1.707,2.013a.056.056,0,0,0,.081.077c.6-.608,1.259-1.166,1.881-1.752s1.242-1.179,1.856-1.774c1.225-1.188,2.218-2.064,3.4-3.3.082-.088-.034-.244-.137-.169" transform="translate(-23.768 -38.93)" fill="#263238"/>
      <path id="Trazado_819111" data-name="Trazado 819111" d="M86.47,151.021a11.025,11.025,0,0,1-4.942.323C76.328,150,63.4,133.363,59.007,122.7a22.2,22.2,0,0,1-1.528-5.021Z" transform="translate(-16.252 -33.273)" fill="#263238"/>
      <path id="Trazado_819112" data-name="Trazado 819112" d="M25.39,167.142c.111.108,44.489-1.585,44.86-2.069.519-.682-12.934-47.364-17.913-52.977-1.065-1.2-7.368-2.535-10.645.684-10.617,10.427-16.7,53.972-16.3,54.362" transform="translate(-7.174 -31.321)" fill="#c8b1c5"/>
      <path id="Trazado_819113" data-name="Trazado 819113" d="M71.67,131.059c-.022-.072.1-.122.126-.049.732,1.825,1.412,3.67,2.074,5.521-.03-.265-.059-.531-.08-.8-.054-.7-.046-1.407-.11-2.107-.006-.067.1-.065.1,0a21.591,21.591,0,0,0,.278,2.154c.1.646.184,1.292.293,1.936.019.113.037.227.055.341,1.075,3.084,5.11,17.256,6.63,22.864.858,3.162,1.609,6.348,2.315,9.546a.053.053,0,0,1-.1.026c-1.644-5.549-3.233-11.115-4.872-16.667-1.507-5.108-5.791-19.648-6.712-22.769" transform="translate(-20.264 -37.033)" fill="#263238"/>
      <path id="Trazado_819114" data-name="Trazado 819114" d="M59.956,115.076a.017.017,0,0,0-.033.005c.263,2.005.74,6.663-2.437,6.6a6.735,6.735,0,0,1-3.515-1.453A17.831,17.831,0,0,1,51.1,117.69a26.161,26.161,0,0,1-2.734-3.317c-.033-.051-.109.01-.074.06.833,1.178,1.546,2.415,2.492,3.515a15.479,15.479,0,0,0,3.1,2.809,6.716,6.716,0,0,0,3.731,1.4,2.553,2.553,0,0,0,2.458-2.1,11.275,11.275,0,0,0-.12-4.983" transform="translate(-13.653 -32.333)" fill="#263238"/>
      <path id="Trazado_819115" data-name="Trazado 819115" d="M58.125,115.393c-2.258.379-6.319-3.582-7.644-6.433-.09-.2.329-2.166.727-4.584.235-1.468.463-3.109.563-4.621l9.329,2.928a24.176,24.176,0,0,0-1.3,5.744,3.419,3.419,0,0,0,.024.625.968.968,0,0,1,.008.1c.115,1.191.471,5.869-1.71,6.236" transform="translate(-14.27 -28.206)" fill="#d3766a"/>
      <path id="Trazado_819116" data-name="Trazado 819116" d="M60.449,109.087c0,.027.006.067.006.108a6.042,6.042,0,0,1-.98-.014c-5.567-.591-6.614-6.937-6.81-9.3l9.06,2.841a24.259,24.259,0,0,0-1.3,5.742,3.749,3.749,0,0,0,.027.625" transform="translate(-14.891 -28.241)" fill="#263238"/>
      <path id="Trazado_819117" data-name="Trazado 819117" d="M48.448,83.321c-.573,3.476,2.477,12.888,5.141,14.722,3.86,2.659,9.537,2.2,11.634-2.288C67.256,91.4,63.063,79.2,60.148,77.6c-4.292-2.358-10.853.585-11.7,5.719" transform="translate(-13.679 -21.709)" fill="#d3766a"/>
      <path id="Trazado_819118" data-name="Trazado 819118" d="M63.11,92.2c-.012-.023-.041.045-.032.071.214.632.353,1.391-.16,1.778-.016.012,0,.044.016.034.673-.313.479-1.32.175-1.884" transform="translate(-17.788 -26.068)" fill="#263238"/>
      <path id="Trazado_819119" data-name="Trazado 819119" d="M61.887,91.51c-1.049.234-.5,2.315.468,2.1.957-.214.411-2.3-.468-2.1" transform="translate(-17.338 -25.871)" fill="#263238"/>
      <path id="Trazado_819120" data-name="Trazado 819120" d="M68.233,90.862c0-.026.058.017.065.044.148.65.428,1.369,1.067,1.431.02,0,.027.035,0,.037-.737.086-1.1-.872-1.135-1.512" transform="translate(-19.293 -25.689)" fill="#263238"/>
      <path id="Trazado_819121" data-name="Trazado 819121" d="M68.631,89.7c1.016-.35,1.643,1.708.7,2.033-.927.319-1.553-1.739-.7-2.033" transform="translate(-19.292 -25.352)" fill="#263238"/>
      <path id="Trazado_819122" data-name="Trazado 819122" d="M60.334,89.8a8.433,8.433,0,0,0,.732-.495c.279-.194.521-.318.65-.647a.455.455,0,0,0-.21-.514,1.127,1.127,0,0,0-1.13.175,1.656,1.656,0,0,0-.742.936.485.485,0,0,0,.7.545" transform="translate(-16.855 -24.897)" fill="#263238"/>
      <path id="Trazado_819123" data-name="Trazado 819123" d="M68.762,87.487a8.257,8.257,0,0,1-.884,0,1.426,1.426,0,0,1-.9-.17.454.454,0,0,1-.115-.543,1.128,1.128,0,0,1,1.033-.49,1.657,1.657,0,0,1,1.14.356.486.486,0,0,1-.273.845" transform="translate(-18.893 -24.397)" fill="#263238"/>
      <path id="Trazado_819124" data-name="Trazado 819124" d="M64.355,100.575c.194.11.4.278.641.236a1.751,1.751,0,0,0,.651-.344.023.023,0,0,1,.037.026.9.9,0,0,1-.727.564.71.71,0,0,1-.656-.438c-.019-.034.026-.061.054-.045" transform="translate(-18.18 -28.406)" fill="#263238"/>
      <path id="Trazado_819125" data-name="Trazado 819125" d="M64.607,94.63a2.269,2.269,0,0,0,1.721.592,2.842,2.842,0,0,0,.8-.171A.774.774,0,0,0,67.274,95c.045-.018.086-.034.136-.059a.165.165,0,0,0,.091-.178v-.005a.3.3,0,0,0-.023-.065v0l-.016-.057c-.117-.5-.362-1.242-.362-1.242.205.043,1.239.217,1.156-.039a34.127,34.127,0,0,0-2.593-6.421.062.062,0,0,0-.113.047c.584,2.058,1.525,4,2.144,6.056a3.961,3.961,0,0,0-1.118-.043c-.066.039.5,1.426.535,1.655a.078.078,0,0,1,0,.024,3.144,3.144,0,0,1-2.457-.11c-.058-.024-.1.033-.045.074" transform="translate(-18.261 -24.57)" fill="#263238"/>
      <path id="Trazado_819126" data-name="Trazado 819126" d="M66.752,97.919A2.7,2.7,0,0,1,65.921,99a1.21,1.21,0,0,1-.7.23c-.55,0-.686-.469-.7-.9a2.894,2.894,0,0,1,.068-.679,3.489,3.489,0,0,0,2.161.265" transform="translate(-18.244 -27.612)" fill="#263238"/>
      <path id="Trazado_819127" data-name="Trazado 819127" d="M65.921,99.262a1.212,1.212,0,0,1-.7.231c-.55,0-.687-.47-.7-.9a1.252,1.252,0,0,1,1.4.668" transform="translate(-18.244 -27.872)" fill="#ff98b9"/>
      <path id="Trazado_819128" data-name="Trazado 819128" d="M49.308,89.862c2.392-.546,1.882-5,1.882-5s3.959-1.6,3.862-4.823c0,0,4.46,1.615,7.278-.186s1.4-5.125.889-5.791-1.9,1.094-1.9,1.094-.635-1.919-1.2-2-.872,1.234-.872,1.234a26.152,26.152,0,0,0-7.813.467c-3.563.907-4.527,4.92-4.527,4.92A4.075,4.075,0,0,0,44.76,82.1c-.321,1.483,3.024,8.112,4.549,7.764" transform="translate(-12.65 -20.684)" fill="#263238"/>
      <path id="Trazado_819129" data-name="Trazado 819129" d="M57.219,81.945a5.216,5.216,0,0,1,.037,1.92,3.466,3.466,0,0,1-.816,1.663,5.061,5.061,0,0,1-1.547,1.07c-.293.128-.6.229-.9.341-.312.088-.628.166-.943.264.326-.027.651-.075.98-.113.319-.083.643-.16.958-.266a4.467,4.467,0,0,0,1.691-1.083,3.322,3.322,0,0,0,.82-1.84,4.049,4.049,0,0,0-.278-1.957" transform="translate(-14.999 -23.17)" fill="#263238"/>
      <path id="Trazado_819130" data-name="Trazado 819130" d="M47.868,80.756a6.036,6.036,0,0,1,.8-3.013,4.808,4.808,0,0,1,2.3-1.993,5.494,5.494,0,0,1,.726-.28l.76-.186c.513-.1,1.041-.123,1.564-.176.526.01,1.057-.014,1.585.023s1.057.1,1.59.136c-.521-.107-1.049-.194-1.576-.291-.53-.069-1.068-.073-1.6-.113a8.165,8.165,0,0,0-3.173.6,4.928,4.928,0,0,0-2.383,2.164,5.419,5.419,0,0,0-.592,3.132" transform="translate(-13.526 -21.168)" fill="#263238"/>
      <path id="Trazado_819131" data-name="Trazado 819131" d="M60.555,95.227a3.116,3.116,0,1,1,.747-.207,3.121,3.121,0,0,1-.747.207m-.841-5.754A2.7,2.7,0,1,0,62.6,91.108a2.681,2.681,0,0,0-2.882-1.634" transform="translate(-16.114 -25.173)" fill="#ffc727"/>
      <path id="Trazado_819132" data-name="Trazado 819132" d="M70.4,92.626c-1.179.173-2.426-.879-2.847-2.449A3.716,3.716,0,0,1,67.62,87.9a1.94,1.94,0,0,1,3.209-.86,3.715,3.715,0,0,1,1.2,1.933c.445,1.659-.2,3.279-1.433,3.61a1.734,1.734,0,0,1-.2.041m-1.15-5.689a1.416,1.416,0,0,0-.155.032,1.662,1.662,0,0,0-1.081,1.082,3.309,3.309,0,0,0-.059,2.018c.386,1.437,1.521,2.387,2.538,2.114s1.523-1.662,1.139-3.1a3.31,3.31,0,0,0-1.06-1.718,1.715,1.715,0,0,0-1.322-.428" transform="translate(-19.059 -24.459)" fill="#ffc727"/>
      <path id="Trazado_819133" data-name="Trazado 819133" d="M65.2,91.769l-.341-.239c.354-.506,1.271-1.3,2.216-.714l-.22.353c-.846-.529-1.622.554-1.655.6" transform="translate(-18.338 -25.619)" fill="#ffc727"/>
      <path id="Trazado_819134" data-name="Trazado 819134" d="M47.638,96.819l-.407-.089c.042-.19.43-1.865,1.289-2.251.8-.359,5.709-1.25,5.943-1.29l.07.411a54.73,54.73,0,0,0-5.841,1.259c-.567.255-.953,1.5-1.054,1.961" transform="translate(-13.355 -26.349)" fill="#ffc727"/>
      <path id="Trazado_819135" data-name="Trazado 819135" d="M51.111,95.691s-2.655-2.776-3.946-1.783,1.038,5.251,2.79,5.612a1.705,1.705,0,0,0,2.119-1.254Z" transform="translate(-13.23 -26.492)" fill="#d3766a"/>
      <path id="Trazado_819136" data-name="Trazado 819136" d="M48.278,95.67c-.027,0-.027.039,0,.046a4.31,4.31,0,0,1,2.613,2.326A.942.942,0,0,0,49.457,98c-.027.027.009.07.041.057a1.049,1.049,0,0,1,1.2.186,5.1,5.1,0,0,1,.689.838c.07.1.249.011.192-.1l-.014-.025c-.2-1.486-1.669-3.383-3.283-3.286" transform="translate(-13.645 -27.05)" fill="#263238"/>
      <path id="Trazado_819137" data-name="Trazado 819137" d="M59.165,112.008l-2.314,5.577-6.881-7.168-2,2.252s6.68,11.338,6.729,10.83l2.364-4.8,3.294,3.4-.174-8.437Z" transform="translate(-13.564 -31.22)" fill="#ebebeb"/>
      <path id="Trazado_819138" data-name="Trazado 819138" d="M60.618,119.013c-.075-1.392-.113-2.8-.252-4.183-.005-.049-.081-.072-.094-.014-.294,1.34.022,6.662,0,7.936l-.014-.014c-.137-.147-3.055-2.992-3.085-2.947-.509.761-2.244,4.258-2.363,4.577-1.057-1.8-5.109-8.351-6.364-10.057a.048.048,0,0,0-.084.047c.93,1.9,6.291,10.719,6.375,10.7a54.389,54.389,0,0,0,2.472-5.077,36.863,36.863,0,0,0,3.446,3.617,43.74,43.74,0,0,0-.038-4.58" transform="translate(-13.673 -32.315)" fill="#263238"/>
      <path id="Trazado_819139" data-name="Trazado 819139" d="M41.663,128.3c.689,11.426,3.664,32.948,10.392,37.532,7.134,4.861,27.648,5.535,33.319,5.481,2.406-.024,1.019-17.853-1.485-18.446-2.462-.583-20.1-1.323-21.858-2.109S54.6,134.511,50.234,125.5c-5.125-10.588-9.131-6.485-8.57,2.8" transform="translate(-11.766 -33.712)" fill="#d3766a"/>
      <path id="Trazado_819140" data-name="Trazado 819140" d="M111.783,164.681c-1.171-.367-.987-.984,1.052-1.759,2.061-.788,10.77-2.111,10.046-5.116s-13.012-.944-16.31.607a57.859,57.859,0,0,0-8.088,5.214c2.472.078,8.451.839,13.3,1.054" transform="translate(-27.846 -44.183)" fill="#d3766a"/>
      <path id="Trazado_819141" data-name="Trazado 819141" d="M113.486,170.626l24.265.859,5.8-34.18-24.265-.859Z" transform="translate(-32.088 -38.58)" fill="#263238"/>
      <path id="Trazado_819142" data-name="Trazado 819142" d="M115.148,170.685l24.265.859,5.8-34.18-24.265-.859Z" transform="translate(-32.558 -38.597)" fill="#455a64"/>
      <path id="Trazado_819143" data-name="Trazado 819143" d="M138.755,158.031a2.629,2.629,0,0,1-2.65,2.269,2.129,2.129,0,0,1-2.07-2.436,2.629,2.629,0,0,1,2.65-2.269,2.13,2.13,0,0,1,2.07,2.437" transform="translate(-37.893 -43.994)" fill="#fff"/>
      <path id="Trazado_819144" data-name="Trazado 819144" d="M99.908,184.237c6.972-.035,15.653.346,22.411-3.678a3.9,3.9,0,0,0,1.693-1.907c3.061-1.75,3.154-3.72,3.154-3.72,2.353-2.5,2.17-4.532,2.17-4.532s3.571-2.094,2.665-4.463c-1.009-2.659-5.828.8-9.641,1.084-8.738.647-21.339-.877-23.877-.941Z" transform="translate(-27.846 -46.637)" fill="#d3766a"/>
      <path id="Trazado_819145" data-name="Trazado 819145" d="M119.636,176.27a56.348,56.348,0,0,0,7.617-1,56.631,56.631,0,0,0,7.949-2.77.068.068,0,0,1,.06.123,29.787,29.787,0,0,1-15.616,3.764c-.125-.005-.138-.1-.009-.117" transform="translate(-33.802 -48.773)" fill="#263238"/>
      <path id="Trazado_819146" data-name="Trazado 819146" d="M119.1,183.372a41.515,41.515,0,0,0,13.824-4.608c.023-.011.049.024.027.039a26.738,26.738,0,0,1-13.833,4.687c-.157.01-.183-.093-.018-.118" transform="translate(-33.645 -50.545)" fill="#263238"/>
      <path id="Trazado_819147" data-name="Trazado 819147" d="M118.9,187.734a41.951,41.951,0,0,0,10.833-3.69c.023-.01.047.027.023.042-4.418,2.6-6.315,3.043-10.848,3.8-.156.026-.171-.118-.007-.148" transform="translate(-33.585 -52.038)" fill="#263238"/>
      <path id="Trazado_819148" data-name="Trazado 819148" d="M76.389,151.9l1.265,20.612S55,171.385,49.282,164.58s-8.7-29.03-8.327-38.239,5.1-10.139,9.119-1.653S61.442,149.254,61.806,149.7s14.583,2.2,14.583,2.2" transform="translate(-11.571 -33.603)" fill="#c8b1c5"/>
      <path id="Trazado_819149" data-name="Trazado 819149" d="M86.975,175.427c-.047-1.493-.128-2.985-.21-4.477-.039-.716-.072-1.433-.134-2.148-.067-.769-.075-1.564-.2-2.325a.042.042,0,0,0-.084,0c-.07.768-.022,1.561-.039,2.332-.017.717,0,1.434.01,2.151.019,1.494.037,2.987.09,4.48.107,2.991.3,5.967.526,8.951a.056.056,0,0,0,.112,0c.028-2.99.019-5.973-.075-8.962" transform="translate(-24.403 -47.06)" fill="#263238"/>
      <path id="Trazado_819150" data-name="Trazado 819150" d="M55.6,174.218a12.04,12.04,0,0,1-5.738-3.36,15.54,15.54,0,0,1-3.537-6.366,103.011,103.011,0,0,1-3.863-15.848c-.494-3.059-.9-6.144-1.143-9.233a.045.045,0,0,0-.09,0q.07,3.3.387,6.561c-.039-.148-.08-.3-.116-.444-.22-.912-.464-1.817-.693-2.726-.033-.129-.213-.066-.194.058a26.248,26.248,0,0,0,.574,2.762c.185.674.358,1.388.611,2.053a81,81,0,0,0,1.453,8.506c.628,2.765,1.369,5.511,2.257,8.2a16.173,16.173,0,0,0,3.531,6.543,12.632,12.632,0,0,0,6.533,3.4c.07.015.1-.093.027-.109" transform="translate(-11.484 -39.407)" fill="#263238"/>
      <path id="Trazado_819151" data-name="Trazado 819151" d="M74.583,155.733c-1.814-.415-3.649-.743-5.486-1.045l-1.314-.217c-.492-.081-.914-.1-1.159-.593-.43-.863-.795-1.767-1.191-2.647-1.459-3.246-2.936-6.488-4.468-9.7-.384-1.173-.757-2.35-1.109-3.532a.056.056,0,0,0-.108.033c.171.751.374,1.49.6,2.221-.757-1.563-1.528-3.121-2.327-4.662-.038-.072-.163-.018-.132.06,1.442,3.594,3.02,7.129,4.633,10.65.815,1.779,1.63,3.558,2.459,5.329.394.841.757,1.707,1.186,2.531.408.787,1.231.77,2.019.889,2.121.32,4.245.63,6.382.821.08.006.09-.121.015-.138" transform="translate(-16.367 -38.329)" fill="#263238"/>
    </g>
  </g>
</svg>
