<svg xmlns="http://www.w3.org/2000/svg" width="130" height="130" viewBox="0 0 130 130">
  <g id="Grupo_1072681" data-name="Grupo 1072681" transform="translate(-313 -1300)">
    <g id="Grupo_1072553" data-name="Grupo 1072553" transform="translate(-23 -13)">
      <circle id="Elipse_5779" data-name="Elipse 5779" cx="65" cy="65" r="65" transform="translate(336 1313)" fill="#3b5620"/>
      <circle id="Elipse_5755" data-name="Elipse 5755" cx="59.894" cy="59.894" r="59.894" transform="translate(341 1318)" fill="#fff"/>
    </g>
    <g id="Grupo_1072281" data-name="Grupo 1072281" transform="translate(321.633 1293.277)">
      <g id="Grupo_1072268" data-name="Grupo 1072268" transform="translate(34.141 36.256)">
        <path id="Trazado_819152" data-name="Trazado 819152" d="M150.042,56a5.675,5.675,0,0,0-4.013,1.662L130.667,73.024V87.211h42.561A8.512,8.512,0,0,0,181.74,78.7h5.675V56Z" transform="translate(-130.667 -56)" fill="#f0915a"/>
      </g>
      <g id="Grupo_1072269" data-name="Grupo 1072269" transform="translate(90.888 32)">
        <path id="Trazado_819153" data-name="Trazado 819153" d="M459.179,63.211V32h-4.256a4.256,4.256,0,0,0-4.256,4.256v22.7a4.256,4.256,0,0,0,4.256,4.256Z" transform="translate(-450.667 -32)" fill="#c8aea7"/>
      </g>
      <g id="Grupo_1072270" data-name="Grupo 1072270" transform="translate(95.144 47.606)">
        <path id="Trazado_819154" data-name="Trazado 819154" d="M474.667,122.837v12.768h4.256V120H477.5A2.837,2.837,0,0,0,474.667,122.837Z" transform="translate(-474.667 -120)" fill="#632059"/>
      </g>
      <g id="Grupo_1072271" data-name="Grupo 1072271" transform="translate(25.628 43.35)">
        <path id="Trazado_819155" data-name="Trazado 819155" d="M145.089,128.63V98.837A2.837,2.837,0,0,0,142.252,96H85.5a2.837,2.837,0,0,0-2.837,2.837V128.63a2.837,2.837,0,0,0,2.837,2.837h56.748A2.837,2.837,0,0,0,145.089,128.63Z" transform="translate(-82.667 -96)" fill="#dbf9bd"/>
      </g>
      <g id="Grupo_1072272" data-name="Grupo 1072272" transform="translate(29.885 47.606)">
        <path id="Trazado_819156" data-name="Trazado 819156" d="M106.667,141.28V125.675a1.419,1.419,0,0,1,1.419-1.419,2.837,2.837,0,0,0,2.837-2.837A1.419,1.419,0,0,1,112.342,120H154.9a1.419,1.419,0,0,1,1.419,1.419,2.837,2.837,0,0,0,2.837,2.837,1.419,1.419,0,0,1,1.419,1.419V141.28a1.419,1.419,0,0,1-1.419,1.419,2.837,2.837,0,0,0-2.837,2.837,1.419,1.419,0,0,1-1.419,1.419H112.342a1.419,1.419,0,0,1-1.419-1.419,2.837,2.837,0,0,0-2.837-2.837A1.419,1.419,0,0,1,106.667,141.28Z" transform="translate(-106.667 -120)" fill="#3b5620"/>
      </g>
      <g id="Grupo_1072273" data-name="Grupo 1072273" transform="translate(46.199 50.443)">
        <circle id="Elipse_5791" data-name="Elipse 5791" cx="10.64" cy="10.64" r="10.64" fill="#dbf9bd"/>
      </g>
      <g id="Grupo_1072274" data-name="Grupo 1072274" transform="translate(46.665 36.256)">
        <path id="Trazado_819157" data-name="Trazado 819157" d="M215.481,57.662,202.125,71.018a2.837,2.837,0,0,0,0,4.013l.487.487a8.512,8.512,0,0,0,12.038,0l5.331-5.331h11.35a8.512,8.512,0,0,0,8.512-8.512V56H219.494A5.675,5.675,0,0,0,215.481,57.662Z" transform="translate(-201.294 -56)" fill="#fab991"/>
      </g>
      <g id="Grupo_1072275" data-name="Grupo 1072275" transform="translate(47.855 47.133)">
        <path id="Trazado_819158" data-name="Trazado 819158" d="M208,121.117a4.347,4.347,0,0,0,6.148,0,1,1,0,0,0,0-1.419l-2.364-2.364Z" transform="translate(-208 -117.334)" fill="#f0915a"/>
      </g>
      <g id="Grupo_1072276" data-name="Grupo 1072276" transform="translate(33.668 85.91)">
        <path id="Trazado_819159" data-name="Trazado 819159" d="M151.172,336H138.39a5.674,5.674,0,0,0-4.013,1.662L128,344.039l8.039,8.039,3.9-3.9a2.837,2.837,0,0,1,2.006-.831h9.228a5.675,5.675,0,1,0,0-11.35Z" transform="translate(-128 -336)" fill="#fab991"/>
      </g>
      <g id="Grupo_1072277" data-name="Grupo 1072277" transform="translate(41.707 84.492)">
        <path id="Trazado_819160" data-name="Trazado 819160" d="M214.174,329.246a4.256,4.256,0,0,0-6.019,0l-11.522,11.522h-17.4a2.838,2.838,0,0,0-2.006.831l-3.9,3.9,6.148,6.148,2.364-2.364H198.4a4.257,4.257,0,0,0,3.009-1.246l12.768-12.768A4.256,4.256,0,0,0,214.174,329.246Z" transform="translate(-173.333 -328)" fill="#f0915a"/>
      </g>
      <g id="Grupo_1072278" data-name="Grupo 1072278" transform="translate(13.333 93.118)">
        <path id="Trazado_819161" data-name="Trazado 819161" d="M47.382,394.975H13.333l17.913-17.913a1.419,1.419,0,0,1,2.006,0L48.27,392.08a1.419,1.419,0,0,1,0,2.006Z" transform="translate(-13.333 -376.647)" fill="#c8aea7"/>
      </g>
      <g id="Grupo_1072279" data-name="Grupo 1072279" transform="translate(32.249 101.989)">
        <path id="Trazado_819162" data-name="Trazado 819162" d="M129.458,426.667,120,436.125h15.133l.888-.888a1.419,1.419,0,0,0,0-2.006Z" transform="translate(-120 -426.667)" fill="#632059"/>
      </g>
      <g id="Grupo_1072280" data-name="Grupo 1072280" transform="translate(54.002 88.748)">
        <path id="Trazado_819163" data-name="Trazado 819163" d="M245.5,357.675h-1.419a1.419,1.419,0,0,1-1.419-1.419v-2.837A1.419,1.419,0,0,1,244.086,352H245.5a2.837,2.837,0,1,1,0,5.675Z" transform="translate(-242.667 -352)" fill="#f0915a"/>
      </g>
    </g>
  </g>
</svg>
