<svg xmlns="http://www.w3.org/2000/svg" width="130" height="130" viewBox="0 0 130 130">
  <g id="Grupo_1072683" data-name="Grupo 1072683" transform="translate(-1157 -1300)">
    <g id="Grupo_1072555" data-name="Grupo 1072555" transform="translate(821 -13)">
      <circle id="Elipse_5779" data-name="Elipse 5779" cx="65" cy="65" r="65" transform="translate(336 1313)" fill="#3b5620"/>
      <circle id="Elipse_5755" data-name="Elipse 5755" cx="59.894" cy="59.894" r="59.894" transform="translate(341 1318)" fill="#fff"/>
    </g>
    <g id="Icons" transform="translate(1183.857 1329.142)">
      <g id="Grupo_1072306" data-name="Grupo 1072306" transform="translate(1 -5)">
        <g id="Grupo_1072283" data-name="Grupo 1072283" transform="translate(0 59.218)">
          <path id="Trazado_819185" data-name="Trazado 819185" d="M71.293,48H12.075a8.075,8.075,0,1,0,0,16.15H71.293a8.075,8.075,0,0,0,0-16.15Z" transform="translate(-4 -48)" fill="#dbf9bd"/>
        </g>
        <g id="Grupo_1072284" data-name="Grupo 1072284" transform="translate(2.692 61.909)">
          <path id="Trazado_819186" data-name="Trazado 819186" d="M70.6,60.767H11.383a5.383,5.383,0,0,1,0-10.767H70.6a5.383,5.383,0,0,1,0,10.767Z" transform="translate(-6 -50)" fill="#3b5620"/>
        </g>
        <g id="Grupo_1072285" data-name="Grupo 1072285" transform="translate(8.058 64.878)">
          <ellipse id="Elipse_5792" data-name="Elipse 5792" cx="3.06" cy="2.622" rx="3.06" ry="2.622" transform="translate(0 0)" fill="#f0f0f0"/>
        </g>
        <g id="Grupo_1072286" data-name="Grupo 1072286" transform="translate(19.422 64.878)">
          <circle id="Elipse_5793" data-name="Elipse 5793" cx="2.622" cy="2.622" r="2.622" transform="translate(0 0)" fill="#f0f0f0"/>
        </g>
        <g id="Grupo_1072287" data-name="Grupo 1072287" transform="translate(29.912 64.878)">
          <circle id="Elipse_5794" data-name="Elipse 5794" cx="2.622" cy="2.622" r="2.622" transform="translate(0 0)" fill="#f0f0f0"/>
        </g>
        <g id="Grupo_1072288" data-name="Grupo 1072288" transform="translate(40.402 64.878)">
          <circle id="Elipse_5795" data-name="Elipse 5795" cx="2.622" cy="2.622" r="2.622" transform="translate(0 0)" fill="#f0f0f0"/>
        </g>
        <g id="Grupo_1072289" data-name="Grupo 1072289" transform="translate(50.892 64.878)">
          <circle id="Elipse_5796" data-name="Elipse 5796" cx="2.622" cy="2.622" r="2.622" transform="translate(0 0)" fill="#f0f0f0"/>
        </g>
        <g id="Grupo_1072290" data-name="Grupo 1072290" transform="translate(61.382 64.878)">
          <ellipse id="Elipse_5797" data-name="Elipse 5797" cx="3.06" cy="2.622" rx="3.06" ry="2.622" transform="translate(0 0)" fill="#f0f0f0"/>
        </g>
        <g id="Grupo_1072291" data-name="Grupo 1072291" transform="translate(13.459 21.534)">
          <path id="Trazado_819187" data-name="Trazado 819187" d="M16.692,33.459a5.384,5.384,0,0,0,5.383-5.383V25.383A5.384,5.384,0,0,0,16.692,20H14V30.767A2.691,2.691,0,0,0,16.692,33.459Z" transform="translate(-14 -20)" fill="#3b5620"/>
        </g>
        <g id="Grupo_1072292" data-name="Grupo 1072292" transform="translate(0 21.534)">
          <path id="Trazado_819188" data-name="Trazado 819188" d="M9.383,33.459a2.691,2.691,0,0,0,2.692-2.692V20H9.383A5.384,5.384,0,0,0,4,25.383v2.692A5.384,5.384,0,0,0,9.383,33.459Z" transform="translate(-4 -20)" fill="#3b5620"/>
        </g>
        <g id="Grupo_1072293" data-name="Grupo 1072293" transform="translate(8.075)">
          <path id="Trazado_819189" data-name="Trazado 819189" d="M10,4h5.383V20.15H10Z" transform="translate(-10 -4)" fill="#3b5620"/>
        </g>
        <g id="Grupo_1072296" data-name="Grupo 1072296" transform="translate(2.692 21.534)">
          <g id="Grupo_1072294" data-name="Grupo 1072294" transform="translate(10.767)">
            <path id="Trazado_819190" data-name="Trazado 819190" d="M16.692,20H14v6.729h2.692a2.691,2.691,0,0,0,2.692-2.692V20.72A5.36,5.36,0,0,0,16.692,20Z" transform="translate(-14 -20)" fill="#00325a"/>
          </g>
          <g id="Grupo_1072295" data-name="Grupo 1072295">
            <path id="Trazado_819191" data-name="Trazado 819191" d="M11.383,26.729V20H8.692A5.36,5.36,0,0,0,6,20.72v3.318a2.691,2.691,0,0,0,2.692,2.692Z" transform="translate(-6 -20)" fill="#00325a"/>
          </g>
        </g>
        <g id="Grupo_1072297" data-name="Grupo 1072297" transform="translate(2.692 16.15)">
          <path id="Trazado_819192" data-name="Trazado 819192" d="M8.692,26.767H19.459a2.691,2.691,0,0,0,2.692-2.692V18.692A2.691,2.691,0,0,0,19.459,16H8.692A2.691,2.691,0,0,0,6,18.692v5.383A2.691,2.691,0,0,0,8.692,26.767Z" transform="translate(-6 -16)" fill="#dbf9bd"/>
        </g>
        <g id="Grupo_1072298" data-name="Grupo 1072298" transform="translate(5.436 22.045)">
          <circle id="Elipse_5798" data-name="Elipse 5798" cx="1.311" cy="1.311" r="1.311" transform="translate(0 0)" fill="#c80a50"/>
        </g>
        <g id="Grupo_1072299" data-name="Grupo 1072299" transform="translate(14.178 22.045)">
          <circle id="Elipse_5799" data-name="Elipse 5799" cx="1.311" cy="1.311" r="1.311" transform="translate(0 0)" fill="#c80a50"/>
        </g>
        <g id="Grupo_1072300" data-name="Grupo 1072300" transform="translate(0 37.684)">
          <path id="Trazado_819193" data-name="Trazado 819193" d="M22.842,53.534H6.692A2.691,2.691,0,0,1,4,50.842V34.692A2.691,2.691,0,0,1,6.692,32h16.15a2.691,2.691,0,0,1,2.692,2.692v16.15A2.691,2.691,0,0,1,22.842,53.534Z" transform="translate(-4 -32)" fill="#fab400"/>
        </g>
        <g id="Grupo_1072301" data-name="Grupo 1072301" transform="translate(8.075 37.684)">
          <path id="Trazado_819194" data-name="Trazado 819194" d="M14.038,37.383H11.346A1.346,1.346,0,0,1,10,36.038V32h5.383v4.038A1.346,1.346,0,0,1,14.038,37.383Z" transform="translate(-10 -32)" fill="#f0f0f0"/>
        </g>
        <g id="Grupo_1072302" data-name="Grupo 1072302" transform="translate(26.917 37.684)">
          <path id="Trazado_819195" data-name="Trazado 819195" d="M42.842,53.534H26.692A2.691,2.691,0,0,1,24,50.842V34.692A2.691,2.691,0,0,1,26.692,32h16.15a2.691,2.691,0,0,1,2.692,2.692v16.15A2.691,2.691,0,0,1,42.842,53.534Z" transform="translate(-24 -32)" fill="#fab400"/>
        </g>
        <g id="Grupo_1072303" data-name="Grupo 1072303" transform="translate(34.992 37.684)">
          <path id="Trazado_819196" data-name="Trazado 819196" d="M34.038,37.383H31.346A1.346,1.346,0,0,1,30,36.038V32h5.383v4.038A1.346,1.346,0,0,1,34.038,37.383Z" transform="translate(-30 -32)" fill="#f0f0f0"/>
        </g>
        <g id="Grupo_1072304" data-name="Grupo 1072304" transform="translate(53.834 37.684)">
          <path id="Trazado_819197" data-name="Trazado 819197" d="M62.842,53.534H46.692A2.691,2.691,0,0,1,44,50.842V34.692A2.691,2.691,0,0,1,46.692,32h16.15a2.691,2.691,0,0,1,2.692,2.692v16.15A2.691,2.691,0,0,1,62.842,53.534Z" transform="translate(-44 -32)" fill="#fab400"/>
        </g>
        <g id="Grupo_1072305" data-name="Grupo 1072305" transform="translate(61.909 37.684)">
          <path id="Trazado_819198" data-name="Trazado 819198" d="M54.038,37.383H51.346A1.346,1.346,0,0,1,50,36.038V32h5.383v4.038A1.346,1.346,0,0,1,54.038,37.383Z" transform="translate(-50 -32)" fill="#f0f0f0"/>
        </g>
        <path id="Trazado_819199" data-name="Trazado 819199" d="M71.991,21.754,61.224,12.333a1.346,1.346,0,0,0-2.231,1.012v4.038h-32.3A2.691,2.691,0,0,0,24,20.075v5.383a2.691,2.691,0,0,0,2.692,2.692h32.3v4.038A1.345,1.345,0,0,0,61.224,33.2l10.767-9.421a1.343,1.343,0,0,0,0-2.024Z" transform="translate(2.917 -1.233)" fill="#632059"/>
      </g>
    </g>
  </g>
</svg>
