<svg xmlns="http://www.w3.org/2000/svg" width="128.786" height="149.21" viewBox="0 0 128.786 149.21">
  <g id="Grupo_1072330" data-name="Grupo 1072330" transform="translate(-35.042)">
    <g id="Grupo_1072329" data-name="Grupo 1072329" transform="translate(35.042)">
      <g id="Grupo_1072326" data-name="Grupo 1072326">
        <g id="Grupo_1072314" data-name="Grupo 1072314">
          <path id="Trazado_819221" data-name="Trazado 819221" d="M123.043,173.547V47.637a5.512,5.512,0,0,0-5.512-5.512H40.554a5.512,5.512,0,0,0-5.512,5.512v125.91a5.512,5.512,0,0,0,5.512,5.512h76.978a5.512,5.512,0,0,0,5.512-5.512Z" transform="translate(-35.042 -29.849)" fill="#ffc250"/>
          <path id="Trazado_819222" data-name="Trazado 819222" d="M335.255,42.124H316.808a5.512,5.512,0,0,1,5.512,5.512v125.91a5.512,5.512,0,0,1-5.512,5.512h18.447a5.512,5.512,0,0,0,5.512-5.512V47.636A5.512,5.512,0,0,0,335.255,42.124Z" transform="translate(-234.694 -29.848)" fill="#eab14d"/>
          <path id="Trazado_819223" data-name="Trazado 819223" d="M65.955,189.984V75.008a1.97,1.97,0,0,1,1.97-1.97H152.04a1.97,1.97,0,0,1,1.97,1.97V189.984a1.97,1.97,0,0,1-1.97,1.97H67.925a1.97,1.97,0,0,1-1.97-1.97Z" transform="translate(-56.946 -51.753)" fill="#f2fde8"/>
          <path id="Trazado_819224" data-name="Trazado 819224" d="M316.495,73.038H298.048a1.97,1.97,0,0,1,1.97,1.97V189.984a1.97,1.97,0,0,1-1.97,1.97h18.447a1.97,1.97,0,0,0,1.97-1.97V75.008A1.97,1.97,0,0,0,316.495,73.038Z" transform="translate(-221.401 -51.753)" fill="#eaeaea"/>
          <path id="Trazado_819225" data-name="Trazado 819225" d="M171.2,6.86v-2.9A3.958,3.958,0,0,0,167.239,0h-15.5a3.958,3.958,0,0,0-3.958,3.958v2.9a1.619,1.619,0,0,1-1.619,1.619h-6.452a3.887,3.887,0,0,0-3.886,3.886v8.921h47.333V12.365a3.887,3.887,0,0,0-3.886-3.886h-6.452A1.619,1.619,0,0,1,171.2,6.86Z" transform="translate(-106.451)" fill="#c2d0da"/>
        </g>
        <g id="Grupo_1072319" data-name="Grupo 1072319" transform="translate(20.469 32.439)">
          <g id="Grupo_1072315" data-name="Grupo 1072315">
            <path id="Trazado_819226" data-name="Trazado 819226" d="M105.278,132.142V114.791a3.481,3.481,0,0,1,3.481-3.481H126.11a3.481,3.481,0,0,1,3.481,3.481v17.351a3.481,3.481,0,0,1-3.481,3.481H108.759A3.481,3.481,0,0,1,105.278,132.142Z" transform="translate(-105.278 -111.31)" fill="#3b5620"/>
            <path id="Trazado_819227" data-name="Trazado 819227" d="M105.278,256.182V238.831a3.481,3.481,0,0,1,3.481-3.481H126.11a3.481,3.481,0,0,1,3.481,3.481v17.351a3.481,3.481,0,0,1-3.481,3.481H108.759A3.481,3.481,0,0,1,105.278,256.182Z" transform="translate(-105.278 -199.202)" fill="#3b5620"/>
            <path id="Trazado_819228" data-name="Trazado 819228" d="M105.278,380.221V362.87a3.481,3.481,0,0,1,3.481-3.481H126.11a3.481,3.481,0,0,1,3.481,3.481v17.351a3.481,3.481,0,0,1-3.481,3.481H108.759A3.481,3.481,0,0,1,105.278,380.221Z" transform="translate(-105.278 -287.092)" fill="#3b5620"/>
          </g>
          <g id="Grupo_1072316" data-name="Grupo 1072316" transform="translate(5.097 5.942)">
            <path id="Trazado_819229" data-name="Trazado 819229" d="M128.358,144.127h-.008a3.141,3.141,0,0,1-2.522-1.287l-2.629-3.611a2.252,2.252,0,1,1,3.64-2.651l1.524,2.094,4.457-6.056a2.252,2.252,0,1,1,3.626,2.67l-5.57,7.567A3.139,3.139,0,0,1,128.358,144.127Z" transform="translate(-122.767 -131.699)" fill="#f6f9f9"/>
          </g>
          <g id="Grupo_1072317" data-name="Grupo 1072317" transform="translate(5.097 42.877)">
            <path id="Trazado_819230" data-name="Trazado 819230" d="M128.357,270.866h-.008a3.14,3.14,0,0,1-2.522-1.288l-2.629-3.61a2.252,2.252,0,1,1,3.64-2.651l1.524,2.094,4.457-6.056a2.252,2.252,0,1,1,3.626,2.67l-5.57,7.567A3.138,3.138,0,0,1,128.357,270.866Z" transform="translate(-122.767 -258.438)" fill="#f6f9f9"/>
          </g>
          <g id="Grupo_1072318" data-name="Grupo 1072318" transform="translate(5.097 78.239)">
            <path id="Trazado_819231" data-name="Trazado 819231" d="M128.358,392.208h-.008a3.141,3.141,0,0,1-2.522-1.287l-2.629-3.611a2.252,2.252,0,1,1,3.641-2.651l1.524,2.094,4.458-6.056a2.252,2.252,0,1,1,3.627,2.67l-5.57,7.567a3.141,3.141,0,0,1-2.521,1.274Z" transform="translate(-122.767 -379.78)" fill="#f6f9f9"/>
          </g>
        </g>
        <g id="Grupo_1072322" data-name="Grupo 1072322" transform="translate(53.742 37.639)">
          <g id="Grupo_1072320" data-name="Grupo 1072320">
            <path id="Trazado_819232" data-name="Trazado 819232" d="M249.538,133.656H221.7a2.252,2.252,0,0,1,0-4.5h27.836a2.252,2.252,0,0,1,0,4.5Z" transform="translate(-219.451 -129.153)" fill="#afc797"/>
          </g>
          <g id="Grupo_1072321" data-name="Grupo 1072321" transform="translate(0 9.409)">
            <path id="Trazado_819233" data-name="Trazado 819233" d="M235.621,165.943H221.7a2.252,2.252,0,0,1,0-4.5h13.918a2.252,2.252,0,1,1,0,4.5Z" transform="translate(-219.452 -161.44)" fill="#afc797"/>
          </g>
        </g>
        <g id="Grupo_1072325" data-name="Grupo 1072325" transform="translate(53.742 73.787)">
          <g id="Grupo_1072323" data-name="Grupo 1072323" transform="translate(0)">
            <path id="Trazado_819234" data-name="Trazado 819234" d="M240.38,257.7H221.7a2.252,2.252,0,0,1,0-4.5H240.38a2.252,2.252,0,0,1,0,4.5Z" transform="translate(-219.452 -253.193)" fill="#afc797"/>
          </g>
          <g id="Grupo_1072324" data-name="Grupo 1072324" transform="translate(0 9.409)">
            <path id="Trazado_819235" data-name="Trazado 819235" d="M235.621,289.983H221.7a2.252,2.252,0,1,1,0-4.5h13.918a2.252,2.252,0,1,1,0,4.5Z" transform="translate(-219.452 -285.48)" fill="#afc797"/>
          </g>
        </g>
      </g>
      <g id="Grupo_1072328" data-name="Grupo 1072328" transform="translate(58.092 34.984)">
        <g id="Grupo_1072327" data-name="Grupo 1072327" transform="translate(3.698)">
          <path id="Trazado_819236" data-name="Trazado 819236" d="M305.306,180.682l-2.211-2.913-8.272-5.238-3.18-.5-42.357,66.933a17.434,17.434,0,0,0-2.219,5.242,13.644,13.644,0,0,1,12.092,7.658,17.432,17.432,0,0,0,3.79-4.248Z" transform="translate(-247.067 -156.88)" fill="#c8b1c5"/>
          <path id="Trazado_819237" data-name="Trazado 819237" d="M430.736,123.234l-3.574-2.264a5.971,5.971,0,0,0-8.24,1.851L415.645,128l1.046,2.108,9.946,6.3,2.671.245,3.28-5.183A5.971,5.971,0,0,0,430.736,123.234Z" transform="translate(-366.517 -120.044)" fill="#632059"/>
        </g>
        <path id="Trazado_819238" data-name="Trazado 819238" d="M0,0H8.511V16.172H0Z" transform="matrix(0.535, -0.845, 0.845, 0.535, 48.279, 15.131)" fill="#e1e6dd"/>
        <path id="Trazado_819239" data-name="Trazado 819239" d="M250.168,427.349l-12.061,9.719a2.289,2.289,0,0,1-3.661-2.318l3.629-15.058a13.644,13.644,0,0,1,12.092,7.658Z" transform="translate(-234.378 -332.366)" fill="#632059"/>
        <path id="Trazado_819240" data-name="Trazado 819240" d="M268.456,255.31l44.4-70.117-3.8-2.409-44.4,70.117A13.647,13.647,0,0,1,268.456,255.31Z" transform="translate(-255.829 -164.5)" fill="#632059"/>
      </g>
    </g>
  </g>
</svg>
