<svg xmlns="http://www.w3.org/2000/svg" xmlns:xlink="http://www.w3.org/1999/xlink" width="499.674" height="292.677" viewBox="0 0 499.674 292.677">
  <defs>
    <clipPath id="clip-path">
      <rect id="Rectángulo_375929" data-name="Rectángulo 375929" width="252.134" height="224.298" fill="none"/>
    </clipPath>
    <clipPath id="clip-path-5">
      <rect id="Rectángulo_375922" data-name="Rectángulo 375922" width="58.171" height="47.055" fill="none"/>
    </clipPath>
    <clipPath id="clip-path-6">
      <rect id="Rectángulo_375923" data-name="Rectángulo 375923" width="98.551" height="51.133" fill="none"/>
    </clipPath>
    <clipPath id="clip-path-7">
      <rect id="Rectángulo_375924" data-name="Rectángulo 375924" width="96.179" height="43.918" fill="none"/>
    </clipPath>
    <clipPath id="clip-path-8">
      <rect id="Rectángulo_375925" data-name="Rectángulo 375925" width="151.463" height="59.073" fill="none"/>
    </clipPath>
  </defs>
  <g id="Grupo_1072658" data-name="Grupo 1072658" transform="translate(-285 -7333.102)">
    <rect id="BG" width="499.674" height="292.677" transform="translate(285 7333.102)" fill="#e8e8e8" opacity="0.949"/>
    <g id="Grupo_1070755" data-name="Grupo 1070755" transform="translate(327.866 7374.722)">
      <g id="Grupo_1070754" data-name="Grupo 1070754" clip-path="url(#clip-path)">
        <g id="Grupo_1070733" data-name="Grupo 1070733">
          <g id="Grupo_1070732" data-name="Grupo 1070732" clip-path="url(#clip-path)">
            <path id="Trazado_815639" data-name="Trazado 815639" d="M209.013,62.069l14.654,9.812A22.5,22.5,0,0,1,210.918,80.9a20.857,20.857,0,0,1-19.1-4.211A24.96,24.96,0,0,1,189.9,74.93l-.045-.044,0,0,15.7-15.1Z" transform="translate(-75.116 -27.168)" fill="#afafaf" opacity="0.47"/>
            <path id="Trazado_815640" data-name="Trazado 815640" d="M199.406,28.163a20.92,20.92,0,0,1,.571,20.927c-.1.2-.211.4-.322.595-.07.125-.136.25-.208.375q-.319.546-.674,1.089c-.011.016-.02.033-.031.05l0,0c-.01.015-.019.031-.028.046l0,0-14.654-9.812-3.443-2.306,7.84-20.293.01-.025a21.018,21.018,0,0,1,4.076,2.125,22.891,22.891,0,0,1,6.868,7.229" transform="translate(-48.912 -8.547)" fill="#afafaf"/>
            <path id="Trazado_815641" data-name="Trazado 815641" d="M232.657,37.68l-15.7,15.1a21.78,21.78,0,0,1,23.551-35.415l-7.84,20.293" transform="translate(-103.428 -7.225)" fill="#f5f5f5"/>
            <path id="Trazado_815642" data-name="Trazado 815642" d="M19.381,175.158C11.8,170.668,9.517,161.522,9.225,153.18c-.049-1.393-.3-2.847.28-4.112a2.886,2.886,0,0,1,3.391-1.707c1.079.414,1.618,1.583,2.272,2.535a8.216,8.216,0,0,0,3.517,2.885,3.18,3.18,0,0,0,2.908.059c1.169-.745,1.2-2.41,1.092-3.792q-.293-3.86-.585-7.722a12.748,12.748,0,0,1,.138-4.133,4.315,4.315,0,0,1,2.528-3.085,2.648,2.648,0,0,1,3.382,1.518,12.631,12.631,0,0,1,.159,1.718,1.459,1.459,0,0,0,.957,1.309,1.708,1.708,0,0,0,1.493-.74,18.383,18.383,0,0,0,3-5.209,25.472,25.472,0,0,1,2.761-5.353,7.606,7.606,0,0,1,4.933-3.192,4.547,4.547,0,0,1,4.86,2.732c.643,1.913-.372,3.968-1.515,5.631a31.1,31.1,0,0,1-6.082,6.569,2.553,2.553,0,0,0-1.008,1.23c-.24.942.708,1.8,1.65,2.036a16.465,16.465,0,0,0,3.293.138,3.166,3.166,0,0,1,2.8,1.435c.671,1.373-.423,2.936-1.533,3.986a26.913,26.913,0,0,1-7.61,5.058,9.115,9.115,0,0,0-2.846,1.615,2.543,2.543,0,0,0-.627,2.987,2.664,2.664,0,0,0,2.945.891,18.879,18.879,0,0,0,2.992-1.369c1.874-.849,4.368-.889,5.714.667a4.333,4.333,0,0,1,.74,3.834,10.07,10.07,0,0,1-1.885,3.561,26.961,26.961,0,0,1-10.941,8.763c-4.358,1.834-8.464,2.532-13.011,1.236" transform="translate(200.648 -56.403)" fill="#ebebeb"/>
            <path id="Trazado_815643" data-name="Trazado 815643" d="M13.442,170.639A123.273,123.273,0,0,1,17.5,156.969l1.249-3.53c.412-1.158.821-2.305,1.291-3.4a61.858,61.858,0,0,1,3.067-6.159c1.072-1.913,2.159-3.689,3.189-5.344s2.025-3.175,2.989-4.525a49.71,49.71,0,0,1,5.022-6.031c.647-.664,1.165-1.164,1.521-1.5l.406-.378c.092-.084.143-.123.143-.123s-.041.049-.129.139l-.392.392c-.345.344-.855.853-1.492,1.524a52,52,0,0,0-4.959,6.06c-.954,1.352-1.937,2.877-2.962,4.532s-2.1,3.435-3.168,5.347a62.189,62.189,0,0,0-3.047,6.144c-.467,1.094-.872,2.233-1.284,3.394L17.7,157.038a125.693,125.693,0,0,0-4.065,13.643" transform="translate(208.424 -57.246)" fill="#e0e0e0"/>
            <path id="Trazado_815644" data-name="Trazado 815644" d="M46.389,157.486a3.307,3.307,0,0,1-.169-.582c-.1-.378-.221-.927-.365-1.609-.289-1.363-.626-3.258-.994-5.348s-.737-3.976-1.055-5.329c-.157-.677-.291-1.224-.389-1.6a3.324,3.324,0,0,1-.128-.592,3.406,3.406,0,0,1,.207.57c.122.37.278.913.454,1.587.356,1.348.75,3.235,1.117,5.328L46,155.266c.121.655.222,1.2.3,1.62a3.309,3.309,0,0,1,.089.6" transform="translate(182.124 -64.72)" fill="#e0e0e0"/>
            <path id="Trazado_815645" data-name="Trazado 815645" d="M28.493,161.673a.647.647,0,0,1-.183.043l-.53.082c-.46.069-1.125.168-1.943.317-1.637.284-3.886.759-6.341,1.393s-4.652,1.312-6.226,1.847c-.789.262-1.421.492-1.859.649l-.505.178a.651.651,0,0,1-.182.049.62.62,0,0,1,.166-.088l.492-.215c.429-.181,1.055-.432,1.84-.713,1.565-.572,3.761-1.27,6.222-1.91s4.722-1.088,6.37-1.337c.823-.13,1.493-.207,1.957-.252l.535-.044a.655.655,0,0,1,.188,0" transform="translate(217.79 -73.464)" fill="#e0e0e0"/>
            <path id="Trazado_815646" data-name="Trazado 815646" d="M65.791,188.822a1.108,1.108,0,0,1-.134-.21l-.349-.624c-.3-.542-.717-1.338-1.219-2.326-1.006-1.977-2.311-4.75-3.712-7.829s-2.684-5.859-3.655-7.85l-1.159-2.355-.313-.641a1.12,1.12,0,0,1-.1-.23,1.12,1.12,0,0,1,.134.211c.09.162.206.368.349.623.3.542.717,1.338,1.219,2.326,1.006,1.977,2.311,4.75,3.712,7.83s2.684,5.857,3.654,7.849l1.159,2.355.313.641a1.121,1.121,0,0,1,.1.23" transform="translate(156.252 -75.777)" fill="#e0e0e0"/>
            <path id="Trazado_815647" data-name="Trazado 815647" d="M35.672,190.24a1.254,1.254,0,0,1-.232.109l-.68.273-2.508.989c-2.116.836-5.025,2.029-8.235,3.353s-6.131,2.5-8.262,3.3c-1.066.4-1.93.719-2.532.926l-.694.236a1.142,1.142,0,0,1-.247.069,1.21,1.21,0,0,1,.232-.109l.68-.273,2.507-.988c2.116-.836,5.025-2.029,8.237-3.354s6.13-2.5,8.261-3.3c1.066-.4,1.931-.719,2.533-.926l.694-.237a1.187,1.187,0,0,1,.247-.069" transform="translate(209.762 -86.447)" fill="#e0e0e0"/>
            <path id="Trazado_815648" data-name="Trazado 815648" d="M249.488,220.387c8.186,29.575-6.261,48.135-24.627,62.815s-41.547,22.294-65.053,22.821c-25.706.576-63.184-4.092-83.636-15.692-11.162-6.33-22.816-15.7-30.63-25.876s-5.968-32.674-4.077-45.366c2.73-18.318,24.4-29.887,42.074-35.437s36.746-3.945,55.05-1.122" transform="translate(-21.422 -81.771)" fill="#636363" opacity="0.22"/>
            <path id="Trazado_815649" data-name="Trazado 815649" d="M417.953,95.047a10.444,10.444,0,0,0-.381,2.75l-2.287,1.183,1.073,4.121,2.572-.081a10.438,10.438,0,0,0,1.673,2.215l-.78,2.452,3.673,2.156,1.761-1.876a10.447,10.447,0,0,0,2.75.381l1.182,2.286,4.122-1.072-.082-2.573a10.422,10.422,0,0,0,2.215-1.673l2.453.78,2.156-3.672-1.876-1.761a10.445,10.445,0,0,0,.381-2.75l2.287-1.182-1.073-4.121-2.573.081a10.438,10.438,0,0,0-1.673-2.215l.781-2.452-3.673-2.157-1.761,1.876a10.444,10.444,0,0,0-2.75-.381l-1.183-2.287-4.122,1.073.082,2.573a10.443,10.443,0,0,0-2.216,1.673l-2.452-.78-2.156,3.672Zm6.073.662a4.569,4.569,0,1,1,1.627,6.253,4.57,4.57,0,0,1-1.627-6.253" transform="translate(-415.284 -38.659)" fill="#f5f5f5" fill-rule="evenodd"/>
            <path id="Trazado_815650" data-name="Trazado 815650" d="M322.958,102.8a21.044,21.044,0,0,0-.77,5.548l-4.612,2.385,2.163,8.314,5.19-.165a21.038,21.038,0,0,0,3.376,4.469L326.73,128.3l7.409,4.349,3.551-3.784a21.05,21.05,0,0,0,5.548.769l2.385,4.612,8.314-2.163-.165-5.19a21.056,21.056,0,0,0,4.469-3.376l4.946,1.574,4.349-7.409-3.784-3.552a21.062,21.062,0,0,0,.769-5.548l4.612-2.385-2.163-8.314-5.19.165a21.07,21.07,0,0,0-3.376-4.469l1.574-4.946-7.409-4.349-3.551,3.785a21.025,21.025,0,0,0-5.548-.77l-2.385-4.612-8.314,2.163.165,5.191a21.048,21.048,0,0,0-4.469,3.375l-4.946-1.574-4.349,7.408Zm12.252,1.335a9.216,9.216,0,1,1,3.281,12.613,9.215,9.215,0,0,1-3.281-12.613" transform="translate(-290.265 -37.574)" fill="#ebebeb" fill-rule="evenodd"/>
            <path id="Trazado_815651" data-name="Trazado 815651" d="M389.349,53.147a8.117,8.117,0,0,0-.3,2.138l-1.778.919.834,3.2,2-.063a8.105,8.105,0,0,0,1.3,1.722l-.607,1.906,2.855,1.675,1.368-1.458a8.117,8.117,0,0,0,2.138.3l.919,1.777,3.2-.833-.063-2a8.121,8.121,0,0,0,1.722-1.3l1.906.606,1.676-2.855-1.458-1.369a8.117,8.117,0,0,0,.3-2.138l1.777-.919-.834-3.2-2,.063a8.117,8.117,0,0,0-1.3-1.722l.607-1.906-2.855-1.675-1.368,1.458a8.1,8.1,0,0,0-2.138-.3l-.919-1.778-3.2.834.063,2a8.135,8.135,0,0,0-1.722,1.3l-1.906-.606-1.676,2.855Zm4.721.514a3.551,3.551,0,1,1,1.265,4.861,3.552,3.552,0,0,1-1.265-4.861" transform="translate(-366.301 -20.628)" fill="#e0e0e0"/>
            <path id="Trazado_815652" data-name="Trazado 815652" d="M399.475,59.025a2.682,2.682,0,0,0-.381.793,3.536,3.536,0,0,0,.095,2.379,3.583,3.583,0,0,0,.962,1.367,3.634,3.634,0,0,0,1.724.841,3.645,3.645,0,0,0,2.105-.231,3.623,3.623,0,0,0,2.185-3.722,3.643,3.643,0,0,0-.824-1.952,3.636,3.636,0,0,0-1.575-1.1,3.586,3.586,0,0,0-3.785.9,2.681,2.681,0,0,0-.506.719c.021.014.167-.269.563-.663a3.537,3.537,0,0,1,2.084-.989A3.468,3.468,0,0,1,405.2,58.62a3.465,3.465,0,0,1,.77,1.852A3.441,3.441,0,0,1,403.9,63.99a3.469,3.469,0,0,1-1.992.23,3.47,3.47,0,0,1-2.587-2.078,3.537,3.537,0,0,1-.152-2.3c.151-.538.327-.8.3-.815" transform="translate(-371.706 -25.992)" fill="#e0e0e0"/>
            <path id="Trazado_815653" data-name="Trazado 815653" d="M389.185,53.069a.806.806,0,0,0-.086-.091l-.271-.265-1.08-1.037.006.04,1.692-2.845-.06.023,1.9.614.034.011.026-.026a8.111,8.111,0,0,1,1.713-1.285l.035-.02v-.041c-.018-.623-.038-1.3-.058-2l-.054.073,3.205-.826-.091-.041.915,1.779.023.045h.051a8.069,8.069,0,0,1,2.115.3l.051.014.037-.039,1.371-1.457-.112.016,2.853,1.679-.043-.11-.608,1.905-.018.056.041.041a8.059,8.059,0,0,1,1.284,1.7l.029.052.06,0,2-.062-.1-.075c.264,1.014.546,2.1.832,3.2l.052-.116-1.778.919-.055.028V55.3a8.047,8.047,0,0,1-.292,2.109v0l-.016.06.045.041,1.458,1.369-.018-.125L404.6,61.607l.118-.045-1.906-.606-.058-.018-.043.043a7.986,7.986,0,0,1-1.7,1.285l-.052.029,0,.06q.034,1.014.065,2l.073-.1-3.2.837.107.047-.921-1.776-.026-.049H397a8.056,8.056,0,0,1-2.115-.29l-.051-.014-.037.039-1.366,1.461.1-.015-2.858-1.671.035.091.6-1.907.013-.043-.031-.031a8.069,8.069,0,0,1-1.295-1.7l-.02-.035h-.04l-2,.07.06.045-.847-3.2-.023.052,1.772-.931.018-.009v-.02a8.37,8.37,0,0,1,.154-1.614l.083-.393a.808.808,0,0,0,.026-.13.952.952,0,0,0-.043.127c-.025.085-.061.214-.1.39a7.812,7.812,0,0,0-.187,1.621l.018-.029-1.784.907-.032.017.009.035.819,3.208.012.046.048,0,2-.057-.061-.034a8.194,8.194,0,0,0,1.307,1.74l-.017-.073-.611,1.9-.019.059.053.032,2.852,1.681.058.034.047-.049,1.37-1.456-.087.025a8.193,8.193,0,0,0,2.161.3l-.081-.049.917,1.778.034.067.073-.019,3.2-.83.075-.02,0-.077q-.03-.986-.062-2l-.05.089a8.194,8.194,0,0,0,1.744-1.315l-.1.024,1.906.607.076.025.041-.069,1.677-2.855.041-.07-.059-.056-1.458-1.369.028.1v0a8.209,8.209,0,0,0,.3-2.163l-.055.089,1.777-.919.072-.037-.021-.079-.835-3.2-.02-.077-.08,0-2,.065.089.05a8.258,8.258,0,0,0-1.318-1.742l.023.1.6-1.907.023-.072-.065-.038-2.857-1.673-.063-.037-.049.053-1.367,1.46.088-.024a8.215,8.215,0,0,0-2.161-.3l.074.045-.923-1.775-.03-.057-.062.016-3.2.841-.056.015,0,.058c.025.7.047,1.377.069,2l.034-.06a8.18,8.18,0,0,0-1.731,1.316l.06-.014-1.908-.6-.039-.012-.021.035-1.66,2.864-.013.023.019.017,1.094,1,.285.256a1.071,1.071,0,0,0,.1.086" transform="translate(-366.137 -20.55)" fill="#e0e0e0"/>
          </g>
        </g>
        <g id="Grupo_1070735" data-name="Grupo 1070735">
          <g id="Grupo_1070734" data-name="Grupo 1070734" clip-path="url(#clip-path)">
            <path id="Trazado_815654" data-name="Trazado 815654" d="M0,217.377c0,.079,56.446.142,126.061.142,69.638,0,126.073-.063,126.073-.142s-56.435-.142-126.073-.142C56.446,217.235,0,217.3,0,217.377" transform="translate(0 -98.715)" fill="#263238"/>
          </g>
        </g>
        <g id="Grupo_1070749" data-name="Grupo 1070749">
          <g id="Grupo_1070748" data-name="Grupo 1070748" clip-path="url(#clip-path)">
            <path id="Trazado_815655" data-name="Trazado 815655" d="M129.3,256.689s18.274-13.489,17.918-28.547l.005-55.906-102.8-3.451-1.048,40.832Z" transform="translate(81.248 -76.698)" fill="#3b5620"/>
            <path id="Trazado_815656" data-name="Trazado 815656" d="M74.861,282.817c.079,0,.306-12.655.508-28.264s.3-28.269.224-28.27-.306,12.652-.508,28.266-.3,28.266-.224,28.267" transform="translate(135.686 -102.826)" fill="#455a64"/>
            <path id="Trazado_815657" data-name="Trazado 815657" d="M95.851,275.589a.7.7,0,0,0-.018-.161c-.021-.121-.047-.275-.081-.468-.081-.429-.194-1.03-.338-1.793-.3-1.576-.732-3.821-1.262-6.588-1.058-5.564-2.466-13.261-3.881-21.785s-2.563-16.268-3.357-21.876c-.391-2.79-.708-5.054-.931-6.643-.11-.769-.2-1.373-.259-1.805L85.651,214a.714.714,0,0,0-.035-.159.687.687,0,0,0,.006.162l.046.472c.05.434.118,1.041.206,1.812.183,1.573.469,3.847.841,6.656.744,5.616,1.863,13.364,3.276,21.9s2.856,16.221,3.964,21.777c.553,2.778,1.016,5.024,1.351,6.572.166.758.3,1.355.39,1.782.045.19.08.343.109.462a.663.663,0,0,0,.046.156" transform="translate(109.572 -97.173)" fill="#455a64"/>
            <path id="Trazado_815658" data-name="Trazado 815658" d="M128.019,265a.642.642,0,0,0-.017-.162l-.081-.468c-.081-.429-.194-1.03-.338-1.792-.3-1.576-.732-3.822-1.262-6.588-1.058-5.564-2.466-13.26-3.881-21.785s-2.563-16.268-3.357-21.876c-.392-2.79-.708-5.054-.931-6.643-.11-.769-.2-1.373-.259-1.805l-.074-.469a.713.713,0,0,0-.035-.159.7.7,0,0,0,.005.162c.013.122.028.278.047.472.05.434.118,1.041.206,1.812.183,1.573.469,3.847.841,6.656.744,5.616,1.863,13.364,3.276,21.9s2.856,16.221,3.964,21.778c.553,2.778,1.016,5.023,1.351,6.572.166.758.3,1.355.39,1.782.045.19.08.343.109.462a.725.725,0,0,0,.046.155" transform="translate(59.853 -92.363)" fill="#455a64"/>
            <path id="Trazado_815659" data-name="Trazado 815659" d="M160.188,254.419a.7.7,0,0,0-.018-.161c-.021-.121-.047-.275-.081-.468-.081-.429-.194-1.03-.338-1.793-.3-1.576-.732-3.821-1.262-6.588-1.058-5.564-2.466-13.261-3.881-21.785s-2.563-16.268-3.357-21.876c-.391-2.79-.708-5.054-.931-6.643-.11-.769-.2-1.373-.259-1.805l-.074-.469a.713.713,0,0,0-.035-.159.688.688,0,0,0,.006.162l.046.472c.05.434.118,1.041.206,1.812.183,1.573.469,3.847.841,6.656.744,5.616,1.863,13.364,3.276,21.9s2.856,16.221,3.964,21.778c.553,2.778,1.016,5.023,1.351,6.572l.39,1.782c.045.19.08.343.109.462a.663.663,0,0,0,.046.155" transform="translate(10.133 -87.553)" fill="#455a64"/>
            <path id="Trazado_815660" data-name="Trazado 815660" d="M192.356,243.835a.7.7,0,0,0-.018-.161l-.081-.468c-.081-.429-.194-1.03-.338-1.792-.3-1.576-.732-3.822-1.262-6.589-1.058-5.564-2.466-13.26-3.881-21.785s-2.563-16.268-3.357-21.876c-.391-2.79-.708-5.054-.931-6.643-.11-.768-.2-1.373-.259-1.805l-.074-.469a.714.714,0,0,0-.035-.159.688.688,0,0,0,.006.162l.046.472c.05.434.118,1.041.206,1.812.183,1.573.469,3.847.842,6.656.744,5.616,1.863,13.364,3.276,21.9s2.856,16.221,3.964,21.778c.553,2.778,1.016,5.023,1.351,6.572.166.758.3,1.355.39,1.782.045.19.08.343.109.462a.664.664,0,0,0,.046.156" transform="translate(-39.585 -82.743)" fill="#455a64"/>
            <path id="Trazado_815661" data-name="Trazado 815661" d="M224.525,233.25a.7.7,0,0,0-.018-.161c-.021-.121-.047-.275-.081-.468-.081-.429-.194-1.03-.338-1.793-.3-1.576-.732-3.821-1.263-6.588-1.058-5.564-2.466-13.261-3.881-21.785s-2.563-16.268-3.357-21.876c-.391-2.79-.708-5.054-.931-6.643-.11-.769-.2-1.373-.259-1.805l-.074-.469a.712.712,0,0,0-.035-.159.688.688,0,0,0,.006.162l.046.472c.05.434.118,1.041.206,1.812.183,1.573.469,3.847.842,6.656.744,5.616,1.863,13.364,3.276,21.9s2.856,16.221,3.964,21.777c.554,2.778,1.017,5.024,1.351,6.572.166.758.3,1.355.39,1.782.045.19.08.343.109.462a.664.664,0,0,0,.046.155" transform="translate(-89.305 -77.933)" fill="#455a64"/>
            <path id="Trazado_815662" data-name="Trazado 815662" d="M149.115,159.5s52.317-41.1-25.61-69.014c0,0-39.512-14.744-80.122-10.352l20.122,48Z" transform="translate(62.164 -36.042)" fill="#afc797"/>
            <path id="Trazado_815663" data-name="Trazado 815663" d="M280.822,21.9l9.146,47.055L231.8,31.309s17.2-9.1,49.025-9.411" transform="translate(-164.299 -9.951)" fill="#632059"/>
            <path id="Trazado_815664" data-name="Trazado 815664" d="M289.967,163.938V76.791L231.8,39.147v82.284Z" transform="translate(-164.298 -17.789)" fill="#632059"/>
            <g id="Grupo_1070738" data-name="Grupo 1070738" transform="translate(67.498 11.947)" opacity="0.3">
              <g id="Grupo_1070737" data-name="Grupo 1070737">
                <g id="Grupo_1070736" data-name="Grupo 1070736" clip-path="url(#clip-path-5)">
                  <path id="Trazado_815665" data-name="Trazado 815665" d="M280.822,21.9l9.146,47.055L231.8,31.309s17.2-9.1,49.025-9.411" transform="translate(-231.798 -21.898)"/>
                </g>
              </g>
            </g>
            <path id="Trazado_815666" data-name="Trazado 815666" d="M338.034,244.522V215.034s-95.122,9.411-95.854,10.979,0,32.939,0,32.939Z" transform="translate(-217.853 -97.714)" fill="#afc797"/>
            <path id="Trazado_815667" data-name="Trazado 815667" d="M340.406,181.59l-60-40.154s-25.975,5.961-34.39,22.9-1.464,28.233-1.464,28.233Z" transform="translate(-220.225 -64.27)" fill="#afc797"/>
            <g id="Grupo_1070741" data-name="Grupo 1070741" transform="translate(19.12 77.166)" opacity="0.2">
              <g id="Grupo_1070740" data-name="Grupo 1070740">
                <g id="Grupo_1070739" data-name="Grupo 1070739" clip-path="url(#clip-path-6)">
                  <path id="Trazado_815668" data-name="Trazado 815668" d="M340.406,181.59l-60-40.154s-25.975,5.961-34.39,22.9-1.464,28.233-1.464,28.233c28.172-4.122,60.821-7.7,95.854-10.979" transform="translate(-241.855 -141.436)" fill="#fff"/>
                </g>
              </g>
            </g>
            <path id="Trazado_815669" data-name="Trazado 815669" d="M418.033,209.155s-1.1,35.272,0,38.669,2.7,8.457,2.7,8.457V223.342Z" transform="translate(-396.403 -95.043)" fill="#839571"/>
            <g id="Grupo_1070744" data-name="Grupo 1070744" transform="translate(23.782 117.32)" opacity="0.3">
              <g id="Grupo_1070743" data-name="Grupo 1070743">
                <g id="Grupo_1070742" data-name="Grupo 1070742" clip-path="url(#clip-path-7)">
                  <path id="Trazado_815670" data-name="Trazado 815670" d="M338.034,244.522V215.034s-95.122,9.411-95.854,10.979,0,32.939,0,32.939Z" transform="translate(-241.855 -215.034)"/>
                </g>
              </g>
            </g>
            <path id="Trazado_815671" data-name="Trazado 815671" d="M341.647,231.574c-.057.053,4.334,4.843,9.807,10.7s9.959,10.557,10.016,10.5-4.333-4.842-9.808-10.7-9.957-10.555-10.015-10.5" transform="translate(-295.733 -105.23)" fill="#263238"/>
            <path id="Trazado_815672" data-name="Trazado 815672" d="M378.31,234.8a1.12,1.12,0,0,0,.162.242l.505.661c.443.57,1.1,1.386,1.913,2.385,1.634,2,3.934,4.726,6.551,7.671s5.055,5.552,6.849,7.409c.9.929,1.629,1.673,2.144,2.18l.6.579a.146.146,0,1,0,.041-.04l-.558-.617-2.078-2.241c-1.755-1.892-4.167-4.516-6.783-7.46s-4.937-5.646-6.609-7.611l-1.982-2.327-.547-.626a1.136,1.136,0,0,0-.206-.206" transform="translate(-351.518 -106.694)" fill="#263238"/>
            <path id="Trazado_815673" data-name="Trazado 815673" d="M305.224,227.58a1.241,1.241,0,0,0,.18.242l.557.657c.488.568,1.2,1.379,2.1,2.374,1.789,1.99,4.3,4.705,7.135,7.643s5.465,5.54,7.392,7.4c.964.929,1.75,1.673,2.3,2.18l.638.58a.152.152,0,1,0,.04-.041l-.6-.618-2.235-2.245c-1.89-1.892-4.492-4.516-7.328-7.451s-5.366-5.627-7.192-7.581l-2.165-2.313-.6-.621a1.226,1.226,0,0,0-.223-.2" transform="translate(-240.153 -103.415)" fill="#263238"/>
            <path id="Trazado_815674" data-name="Trazado 815674" d="M283.427,222.017c-.062.047,3.436,4.742,7.813,10.483s7.978,10.36,8.04,10.312-3.435-4.741-7.814-10.485-7.977-10.359-8.039-10.311" transform="translate(-201.781 -100.887)" fill="#263238"/>
            <path id="Trazado_815675" data-name="Trazado 815675" d="M262.347,219.521c-.061.049,3,3.935,6.841,8.677s7,8.548,7.063,8.5-3-3.934-6.842-8.678-7-8.547-7.062-8.5" transform="translate(-167.251 -99.753)" fill="#263238"/>
            <path id="Trazado_815676" data-name="Trazado 815676" d="M244.974,217.494a2.7,2.7,0,0,0,.368.51l1.069,1.332c.9,1.123,2.138,2.686,3.446,4.453s2.443,3.4,3.253,4.6l.961,1.412a2.7,2.7,0,0,0,.38.5,2.668,2.668,0,0,0-.286-.56c-.2-.351-.5-.852-.887-1.463-.769-1.223-1.881-2.882-3.192-4.655s-2.575-3.32-3.52-4.412c-.472-.546-.863-.982-1.14-1.275a2.672,2.672,0,0,0-.452-.438" transform="translate(-135.973 -98.832)" fill="#263238"/>
            <path id="Trazado_815677" data-name="Trazado 815677" d="M388,314.619s-20.823-11.558-26.143-24.873l.167-10.889,26.342,22.9,4.039-2.9-1.1,12.849Z" transform="translate(-337.699 -126.716)" fill="#3b1335"/>
            <path id="Trazado_815678" data-name="Trazado 815678" d="M318.791,295.808s-14.268-5.333-26.341-22.9l68.25-7.142Z" transform="translate(-268.122 -120.768)" fill="#632059"/>
            <path id="Trazado_815679" data-name="Trazado 815679" d="M369.483,320.83c-.079,0-.2,2.9-.277,6.477s-.071,6.482.007,6.484.2-2.9.278-6.478.071-6.482-.007-6.483" transform="translate(-318.814 -145.79)" fill="#263238"/>
            <path id="Trazado_815680" data-name="Trazado 815680" d="M238.416,280.865v27.116s-21.586,18.508-72.439,20.076-79.024-16.312-79.024-16.312l2.195-25.723,73.05-16.94Z" transform="translate(-33.723 -122.275)" fill="#c8b1c5"/>
            <g id="Grupo_1070747" data-name="Grupo 1070747" transform="translate(53.23 147.152)" opacity="0.3">
              <g id="Grupo_1070746" data-name="Grupo 1070746" transform="translate(0 0)">
                <g id="Grupo_1070745" data-name="Grupo 1070745" clip-path="url(#clip-path-8)">
                  <path id="Trazado_815681" data-name="Trazado 815681" d="M238.416,280.865v27.116s-21.586,18.508-72.439,20.076-79.024-16.312-79.024-16.312l2.195-25.723,73.05-16.94Z" transform="translate(-86.953 -269.082)"/>
                </g>
              </g>
            </g>
            <path id="Trazado_815682" data-name="Trazado 815682" d="M236.221,265.449,157.2,235.158,86.953,270.606s39.512,20.077,82.683,15.4c42.732-4.63,66.585-20.556,66.585-20.556" transform="translate(-31.528 -106.859)" fill="#c8b1c5"/>
            <path id="Trazado_815683" data-name="Trazado 815683" d="M217.172,328.748a1.548,1.548,0,0,0,.174.3l.543.817c.476.708,1.18,1.72,2.065,2.96,1.768,2.482,4.28,5.864,7.177,9.5s5.635,6.842,7.66,9.121c1.012,1.14,1.841,2.052,2.424,2.674l.675.713a.172.172,0,1,0,.043-.039l-.635-.747-2.355-2.732c-1.984-2.311-4.692-5.532-7.589-9.166s-5.428-6.994-7.237-9.444l-2.137-2.906-.587-.787a1.571,1.571,0,0,0-.22-.263" transform="translate(-104.492 -149.387)" fill="#263238"/>
            <path id="Trazado_815684" data-name="Trazado 815684" d="M246.71,325.7c-.064.045,4.2,6.328,9.516,14.032s9.685,13.916,9.75,13.871-4.2-6.326-9.517-14.033-9.685-13.915-9.749-13.87" transform="translate(-148.444 -148.005)" fill="#263238"/>
            <path id="Trazado_815685" data-name="Trazado 815685" d="M272.616,319.694c-.064.045,4.51,6.775,10.216,15.03s10.385,14.915,10.45,14.87-4.509-6.773-10.217-15.031-10.385-14.913-10.449-14.868" transform="translate(-189.884 -145.273)" fill="#263238"/>
            <path id="Trazado_815686" data-name="Trazado 815686" d="M300.281,308.716a2.155,2.155,0,0,0,.177.367l.554,1.025c.486.888,1.205,2.163,2.108,3.731,1.8,3.137,4.364,7.431,7.311,12.1s5.729,8.827,7.786,11.8c1.028,1.489,1.87,2.686,2.463,3.506l.687.941a2.117,2.117,0,0,0,.255.317,2.244,2.244,0,0,0-.208-.35l-.643-.971-2.388-3.556c-2.013-3-4.763-7.176-7.711-11.842s-5.53-8.941-7.378-12.05l-2.185-3.684-.6-1a2.162,2.162,0,0,0-.226-.339" transform="translate(-233.317 -140.285)" fill="#263238"/>
            <path id="Trazado_815687" data-name="Trazado 815687" d="M333.032,304.765c-.07.034,3.277,6.991,7.476,15.534s7.661,15.445,7.732,15.411-3.276-6.989-7.477-15.536-7.66-15.443-7.73-15.409" transform="translate(-277.803 -138.489)" fill="#263238"/>
            <path id="Trazado_815688" data-name="Trazado 815688" d="M352.692,332.778c-.07.035,1.057,2.443,2.518,5.377s2.7,5.285,2.773,5.25-1.057-2.442-2.518-5.377-2.7-5.285-2.773-5.25" transform="translate(-298.275 -151.219)" fill="#263238"/>
            <path id="Trazado_815689" data-name="Trazado 815689" d="M190.621,330.5c-.058.052,4.878,5.634,11.022,12.464s11.177,12.328,11.235,12.275S208,349.6,201.855,342.771s-11.176-12.326-11.234-12.274" transform="translate(-64.745 -150.182)" fill="#263238"/>
            <path id="Trazado_815690" data-name="Trazado 815690" d="M167.8,328.949c-.057.054,4.867,5.348,11,11.824s11.146,11.684,11.2,11.63-4.866-5.347-11-11.826-11.145-11.683-11.2-11.629" transform="translate(-29.414 -149.479)" fill="#263238"/>
            <path id="Trazado_815691" data-name="Trazado 815691" d="M141.182,323.852c-.059.051,4.352,5.327,9.852,11.783s10.009,11.65,10.069,11.6-4.351-5.326-9.853-11.784-10.009-11.649-10.068-11.6" transform="translate(14.002 -147.163)" fill="#263238"/>
            <path id="Trazado_815692" data-name="Trazado 815692" d="M117.644,319.766a1.128,1.128,0,0,0,.173.234l.537.632c.47.546,1.162,1.325,2.025,2.281,1.726,1.911,4.15,4.516,6.893,7.33s5.287,5.3,7.153,7.078c.933.888,1.695,1.6,2.228,2.082l.618.553a1.1,1.1,0,0,0,.229.179,1.142,1.142,0,0,0-.189-.22l-.582-.591-2.164-2.146c-1.83-1.81-4.348-4.321-7.09-7.132s-5.186-5.393-6.949-7.268l-2.091-2.218-.576-.6a1.125,1.125,0,0,0-.215-.195" transform="translate(50.449 -145.306)" fill="#263238"/>
            <path id="Trazado_815693" data-name="Trazado 815693" d="M97.123,312.052c-.007.008.059.078.19.205l.583.547,2.161,1.989c1.822,1.682,4.314,4.031,6.994,6.7s5.039,5.154,6.728,6.969l2,2.152.549.58a1.055,1.055,0,0,0,.206.19,1.058,1.058,0,0,0-.163-.228l-.51-.616c-.446-.532-1.105-1.289-1.932-2.215-1.653-1.851-3.992-4.36-6.676-7.034s-5.2-5-7.06-6.646c-.929-.823-1.689-1.479-2.222-1.923l-.618-.507a1.03,1.03,0,0,0-.228-.162" transform="translate(82.612 -141.801)" fill="#263238"/>
            <path id="Trazado_815694" data-name="Trazado 815694" d="M86.509,304.612c-.052.059,2.9,2.749,6.588,6.009s6.724,5.855,6.776,5.8-2.9-2.749-6.588-6.009-6.724-5.855-6.776-5.8" transform="translate(105.062 -138.42)" fill="#263238"/>
          </g>
        </g>
        <g id="Grupo_1070751" data-name="Grupo 1070751">
          <g id="Grupo_1070750" data-name="Grupo 1070750" clip-path="url(#clip-path)">
            <path id="Trazado_815695" data-name="Trazado 815695" d="M165.387,47.824a3.425,3.425,0,0,1-1.665,4.275c-.79.363-1.7.407-2.467.825a2.852,2.852,0,0,0-1.448,2.3c-.047.865.3,1.781-.054,2.572-.437.979-1.672,1.235-2.6,1.773a4.423,4.423,0,0,0-2.1,3.434,5.312,5.312,0,0,0,1.325,3.855,6.027,6.027,0,0,0,7,1.407,7.6,7.6,0,0,0,3.47-3.945,17.64,17.64,0,0,0,1.13-5.226,53.366,53.366,0,0,0,.045-9.562" transform="translate(-0.673 -21.732)" fill="#263238"/>
            <path id="Trazado_815696" data-name="Trazado 815696" d="M132.447,29.348a5.368,5.368,0,0,1,5.054,2.131,8.911,8.911,0,0,1,1.7,5.665A16.234,16.234,0,0,1,137.812,43a3.964,3.964,0,0,1-1.306,1.889c-1.046.679-2.414.2-3.451-.49a11.013,11.013,0,0,1-4.671-8.822,7.763,7.763,0,0,1,1.039-4.257,4.234,4.234,0,0,1,3.493-2.106" transform="translate(42.885 -13.275)" fill="#263238"/>
            <path id="Trazado_815697" data-name="Trazado 815697" d="M76.987,139.641l27.376-1.6c.174-.391.289-.619.289-.619l7.418.168,2.414-.142s.037.074.095.2l24.9.563c4.965.014,10.176,3.056,10.166,6.927.053,3.684-1.742,7.677-6.19,7.575l-33.928-.2-33.929.023c-4.449.079-5.618-2.607-5.616-5.79-.5-5.928,3.212-7.057,7-7.1" transform="translate(64.33 -62.445)" fill="#263238"/>
            <path id="Trazado_815698" data-name="Trazado 815698" d="M119.194,156.789s-.055-.007-.163-.01l-.48-.01-1.848-.022-6.827-.048-22.782-.091.1.1.153-2.341c.106-1.641.211-3.256.311-4.791l-.085.088,20.993-2.279,6.221-.695,1.676-.2.434-.056a.856.856,0,0,0,.147-.025.893.893,0,0,0-.148.007l-.436.038-1.679.163-6.227.638-21,2.216-.08.009,0,.08c-.1,1.535-.206,3.15-.313,4.791-.052.8-.1,1.6-.152,2.342l-.007.1h.1l22.782.031,6.827-.011,1.848-.012.48-.008c.108,0,.163-.009.163-.009" transform="translate(85.478 -66.532)" fill="#455a64"/>
            <path id="Trazado_815699" data-name="Trazado 815699" d="M86.408,145.7c.021.026.362-.248.961-.611a10.188,10.188,0,0,1,5.189-1.477c.7-.007,1.134.046,1.139.013a.96.96,0,0,0-.3-.07,6.231,6.231,0,0,0-.836-.078,9.007,9.007,0,0,0-5.263,1.5,6.29,6.29,0,0,0-.67.506c-.149.131-.226.208-.218.218" transform="translate(111.295 -65.195)" fill="#455a64"/>
            <path id="Trazado_815700" data-name="Trazado 815700" d="M154.977,144.619c-.012.051,5.383,1.372,12.049,2.948s12.082,2.814,12.095,2.762-5.382-1.371-12.05-2.948-12.081-2.813-12.093-2.762" transform="translate(-11.54 -65.716)" fill="#455a64"/>
            <path id="Trazado_815701" data-name="Trazado 815701" d="M183.841,143.67a7.807,7.807,0,0,1,3.827,2.619,1.878,1.878,0,0,0-.367-.6,5.62,5.62,0,0,0-2.769-1.9,1.878,1.878,0,0,0-.691-.124" transform="translate(-35.837 -65.282)" fill="#455a64"/>
            <path id="Trazado_815702" data-name="Trazado 815702" d="M150.347,153.609l-5.113.7-.015,5.555,4.7-.109Z" transform="translate(22.556 -69.802)" fill="#b78876"/>
            <path id="Trazado_815703" data-name="Trazado 815703" d="M166.674,154.887l-2.3-.006a2.549,2.549,0,0,0-1.275.338l-1.213.7a18.889,18.889,0,0,1-2.12,1,29.086,29.086,0,0,0-4.246,1.423c-1.416,1.086-.99,2.376-.214,2.513.681.12,11.351-.414,11.351-.414Z" transform="translate(1.117 -70.38)" fill="#632059"/>
            <path id="Trazado_815704" data-name="Trazado 815704" d="M161.083,161.8a5.256,5.256,0,0,0,.095-2.9,12.668,12.668,0,0,0-.035,1.45,12.734,12.734,0,0,0-.06,1.45" transform="translate(2.92 -72.206)" fill="#263238"/>
            <path id="Trazado_815705" data-name="Trazado 815705" d="M163.471,161.944a9.2,9.2,0,0,0-.014-2.651,9.248,9.248,0,0,0,.014,2.651" transform="translate(-0.558 -72.385)" fill="#263238"/>
            <path id="Trazado_815706" data-name="Trazado 815706" d="M165.46,162.273a9.862,9.862,0,0,0,.22-2.733,9.862,9.862,0,0,0-.22,2.733" transform="translate(-3.836 -72.497)" fill="#263238"/>
            <path id="Trazado_815707" data-name="Trazado 815707" d="M155.5,159.586a1.592,1.592,0,0,0,.471-.147,4.436,4.436,0,0,0,1.15-.707c.109-.093.219-.195.329-.307a1.306,1.306,0,0,0,.294-.414.579.579,0,0,0-.063-.571.431.431,0,0,0-.285-.158.743.743,0,0,0-.31.034,2.288,2.288,0,0,0-.492,4.069,1.451,1.451,0,0,0,.526.238.606.606,0,0,0,.3-.014.4.4,0,0,0,.232-.2.58.58,0,0,0-.066-.529,1.624,1.624,0,0,0-.295-.356,3.533,3.533,0,0,0-1.128-.743,1.484,1.484,0,0,0-.475-.136c0,.015.163.067.445.2a3.791,3.791,0,0,1,1.062.77,1.528,1.528,0,0,1,.261.332.439.439,0,0,1,.053.387.3.3,0,0,1-.359.122,1.308,1.308,0,0,1-.458-.218,2.124,2.124,0,0,1,.445-3.755.363.363,0,0,1,.411.061.418.418,0,0,1,.045.408,2.239,2.239,0,0,1-.564.676,6.183,6.183,0,0,1-1.533.955" transform="translate(9.497 -71.47)" fill="#263238"/>
            <path id="Trazado_815708" data-name="Trazado 815708" d="M159.948,160.908a1.339,1.339,0,0,1-.279-.35,1.314,1.314,0,0,1,.153-1.158,2.583,2.583,0,0,1,1.422-1.067c.65-.232,1.426-.343,2.209-.584a15.385,15.385,0,0,0,3.8-1.72c.452-.286.8-.543,1.037-.726a2.082,2.082,0,0,0,.349-.307,2.217,2.217,0,0,0-.393.246c-.248.164-.606.4-1.063.671a17.177,17.177,0,0,1-3.785,1.652c-.77.238-1.539.352-2.215.6a2.669,2.669,0,0,0-1.48,1.166,1.362,1.362,0,0,0-.1,1.258.785.785,0,0,0,.236.262c.068.043.107.059.11.054" transform="translate(-3.523 -70.433)" fill="#263238"/>
            <path id="Trazado_815709" data-name="Trazado 815709" d="M162.019,86.311l-8.71,15.069a6.412,6.412,0,0,0,5.716,9.62l13.313-.34.364-4.84-11.719-2.277,7.942-13.66Z" transform="translate(-3.741 -39.221)" fill="#b78876"/>
            <path id="Trazado_815710" data-name="Trazado 815710" d="M112.63,112.29l-12.25,3.21-.256-3.672,11.3-6.522-8.2-15.316,6.925-3.534,8.63,15.115a7.068,7.068,0,0,1-4.108,10.075Z" transform="translate(77.891 -39.287)" fill="#b78876"/>
            <path id="Trazado_815711" data-name="Trazado 815711" d="M117.833,89.588l-8.355-4.429a42.3,42.3,0,0,1,3.6-5.968,18.36,18.36,0,0,1,11.193-7.014h0l9.624.14a12.74,12.74,0,0,1,3.43.8l-.007-.037c5.22,1.165,10.985,12.573,10.985,12.573L140.68,89.64l-.171,1.2a8.135,8.135,0,0,1-2,4.262l2.179,14.589-24.713.445L119.152,99.7Z" transform="translate(44.1 -32.798)" fill="#c8b1c5"/>
            <path id="Trazado_815712" data-name="Trazado 815712" d="M135.431,60.391a4.7,4.7,0,0,1-4.6-4.646l-.217-18.693a1.488,1.488,0,0,1,1.331-1.509l7.9-2c2.529-.267,4.21,2.846,4.37,5.383a45.137,45.137,0,0,1-.051,8.372c-.672,4.23-3.913,4.768-3.913,4.768s0,1.637-.012,3.641A4.7,4.7,0,0,1,135.431,60.391Z" transform="translate(36.496 -15.238)" fill="#b78876"/>
            <path id="Trazado_815713" data-name="Trazado 815713" d="M134.338,47.228a.543.543,0,0,1-.523.547.519.519,0,0,1-.559-.489.543.543,0,0,1,.523-.548.519.519,0,0,1,.56.489" transform="translate(45.093 -21.238)" fill="#263238"/>
            <path id="Trazado_815714" data-name="Trazado 815714" d="M134.419,46.243c-.067.071-.478-.233-1.062-.231s-1.011.294-1.075.222c-.031-.032.038-.159.224-.3a1.486,1.486,0,0,1,.86-.265,1.427,1.427,0,0,1,.845.273c.179.137.241.266.207.3" transform="translate(45.538 -20.754)" fill="#263238"/>
            <path id="Trazado_815715" data-name="Trazado 815715" d="M144.856,47.427a.542.542,0,0,1-.523.547.519.519,0,0,1-.559-.489.543.543,0,0,1,.523-.548.519.519,0,0,1,.56.489" transform="translate(28.837 -21.329)" fill="#263238"/>
            <path id="Trazado_815716" data-name="Trazado 815716" d="M144.937,46.442c-.068.071-.479-.234-1.062-.232s-1.012.294-1.075.222c-.031-.032.037-.159.224-.3a1.486,1.486,0,0,1,.86-.265,1.431,1.431,0,0,1,.845.273c.179.137.24.266.207.3" transform="translate(29.283 -20.845)" fill="#263238"/>
            <path id="Trazado_815717" data-name="Trazado 815717" d="M136.472,50.8a3.855,3.855,0,0,1,.948-.171c.149-.015.29-.045.315-.146a.759.759,0,0,0-.1-.442q-.209-.541-.441-1.135a19.437,19.437,0,0,1-.99-2.969,19.615,19.615,0,0,1,1.226,2.882l.422,1.142a.867.867,0,0,1,.077.585.374.374,0,0,1-.245.218,1.022,1.022,0,0,1-.253.035,3.785,3.785,0,0,1-.961,0" transform="translate(39.866 -20.874)" fill="#263238"/>
            <path id="Trazado_815718" data-name="Trazado 815718" d="M143.851,66.254a10.761,10.761,0,0,1-5.665-1.511s1.374,2.906,5.608,2.51Z" transform="translate(32.891 -29.42)" fill="#aa6550"/>
            <path id="Trazado_815719" data-name="Trazado 815719" d="M141.012,57.1a1.052,1.052,0,0,0-.943-.391.96.96,0,0,0-.663.356.609.609,0,0,0-.046.7.706.706,0,0,0,.765.194,2.21,2.21,0,0,0,.746-.445.651.651,0,0,0,.166-.173.2.2,0,0,0,0-.217" transform="translate(35.079 -25.767)" fill="#aa6550"/>
            <path id="Trazado_815720" data-name="Trazado 815720" d="M138.758,55.592c.095-.005.1.628.638,1.078s1.217.38,1.222.469c.009.04-.151.123-.436.13a1.577,1.577,0,0,1-1.02-.355,1.376,1.376,0,0,1-.495-.9c-.024-.265.047-.422.09-.418" transform="translate(35.862 -25.262)" fill="#263238"/>
            <path id="Trazado_815721" data-name="Trazado 815721" d="M144.985,44.679c-.057.159-.641.083-1.325.166s-1.239.27-1.33.127c-.041-.068.056-.217.279-.371a2.319,2.319,0,0,1,2.023-.223c.251.1.378.226.353.3" transform="translate(29.497 -20.104)" fill="#263238"/>
            <path id="Trazado_815722" data-name="Trazado 815722" d="M134.4,44.24c-.1.133-.5,0-.989-.011-.483-.023-.893.089-.987-.05-.041-.067.023-.2.2-.326a1.432,1.432,0,0,1,1.592.049c.171.136.227.273.182.337" transform="translate(45.476 -19.829)" fill="#263238"/>
            <path id="Trazado_815723" data-name="Trazado 815723" d="M149.731,30.135a4.958,4.958,0,0,1-3.14,4.2c-.773.288-1.609.375-2.387.652a2.577,2.577,0,0,0-1.743,1.617,4.191,4.191,0,0,0,.274,2.071,2.177,2.177,0,0,1-.219,2.014c-.414.46-1.158.586-1.445,1.135s.046,1.221.285,1.806a4.419,4.419,0,0,1,.25,2.768,3.058,3.058,0,0,1-1.763,2.079.874.874,0,0,1-.973-.1c-.176-.2-.035-.527-.148-.771-1.842-3.983-2.684-5.474-2.689-9.545a9.067,9.067,0,0,1,1.569-5.447,4.317,4.317,0,0,1,1.953-1.737,19.688,19.688,0,0,1,5.178-1.552,9.99,9.99,0,0,1,2.689-.293,3.365,3.365,0,0,1,2.391,1.114" transform="translate(28.101 -13.185)" fill="#263238"/>
            <path id="Trazado_815724" data-name="Trazado 815724" d="M129.27,32.631a2.27,2.27,0,0,1,1.268,1.6,6.89,6.89,0,0,0,.726,1.983,12.058,12.058,0,0,0,1.282,1.26,3.685,3.685,0,0,1,.808,3.632,5.939,5.939,0,0,0-4-8.8" transform="translate(47.468 -14.68)" fill="#263238"/>
            <path id="Trazado_815725" data-name="Trazado 815725" d="M136.5,40.06a4.268,4.268,0,0,1,.671-1.667,3.241,3.241,0,0,1,1.511-1.158,7.92,7.92,0,0,1,2.387-.261,5.226,5.226,0,0,0,1.287-.192,4.036,4.036,0,0,0,1.1-.531,4.253,4.253,0,0,0,1.36-1.52,3.717,3.717,0,0,0,.422-1.3,1.253,1.253,0,0,0,0-.5,5.8,5.8,0,0,1-.6,1.707,4.252,4.252,0,0,1-1.33,1.4,3.893,3.893,0,0,1-1.031.482,5.135,5.135,0,0,1-1.222.174,7.685,7.685,0,0,0-2.465.3,3.337,3.337,0,0,0-1.584,1.289,3.2,3.2,0,0,0-.5,1.279,1.2,1.2,0,0,0,0,.5" transform="translate(32.412 -14.962)" fill="#263238"/>
            <path id="Trazado_815726" data-name="Trazado 815726" d="M164.506,49.073a2.076,2.076,0,0,1-3.731,1.171,3.04,3.04,0,0,1-.511-1.91,3.2,3.2,0,0,1,.385-1.559,2.248,2.248,0,0,1,4.167.869" transform="translate(-0.12 -20.754)" fill="#263238"/>
            <path id="Trazado_815727" data-name="Trazado 815727" d="M160.853,46.543a4.242,4.242,0,0,0,.1,3.763c.08-.028-.184-.842-.207-1.877s.188-1.862.106-1.886" transform="translate(3.621 -21.15)" fill="#e8505b"/>
            <path id="Trazado_815728" data-name="Trazado 815728" d="M137.031,38.866c-.006.008.037.048.127.119a1.628,1.628,0,0,0,.451.214,2.537,2.537,0,0,0,1.8-.189,4.909,4.909,0,0,0,1.893-1.915,8.061,8.061,0,0,1,1.986-2.485,11.713,11.713,0,0,1,3.045-1,7.354,7.354,0,0,0,2.374-1.271,6.755,6.755,0,0,0,1.254-1.309,2.238,2.238,0,0,0,.336-.572,10.408,10.408,0,0,1-1.713,1.722,7.523,7.523,0,0,1-2.329,1.179,11.178,11.178,0,0,0-3.128,1.018,7.987,7.987,0,0,0-2.048,2.581,4.866,4.866,0,0,1-1.761,1.875,2.531,2.531,0,0,1-1.686.262,3.935,3.935,0,0,1-.607-.226" transform="translate(27.069 -13.839)" fill="#455a64"/>
            <path id="Trazado_815729" data-name="Trazado 815729" d="M137.9,37.45c0,.007.035.044.126.1a1.134,1.134,0,0,0,.436.127,1.982,1.982,0,0,0,1.522-.612,18.865,18.865,0,0,0,1.43-1.949,7.161,7.161,0,0,1,2.164-1.891,14.974,14.974,0,0,1,2.71-1.078,20.558,20.558,0,0,0,2.275-.827,6.622,6.622,0,0,0,1.407-.84,2.013,2.013,0,0,0,.429-.42,10.6,10.6,0,0,1-1.916,1.075c-.627.261-1.4.5-2.272.761a14.055,14.055,0,0,0-2.771,1.08,7.159,7.159,0,0,0-2.233,1.979,23.366,23.366,0,0,1-1.364,1.967,1.934,1.934,0,0,1-1.374.643,2.339,2.339,0,0,1-.569-.112" transform="translate(26.499 -13.657)" fill="#455a64"/>
            <path id="Trazado_815730" data-name="Trazado 815730" d="M160.613,68.835a5.176,5.176,0,0,0,.014-.781,6.022,6.022,0,0,1,.292-2.065,2.741,2.741,0,0,1,.8-1.145,10.635,10.635,0,0,1,1.4-.907,4.229,4.229,0,0,0,1.41-1.282,4.059,4.059,0,0,0,.675-1.937,3.85,3.85,0,0,0-.062-1.05c-.068-.339-.171-.654-.253-.962A2.159,2.159,0,0,1,164.947,57a2.786,2.786,0,0,1,1.191-1.052c.462-.234.928-.392,1.345-.57a3.339,3.339,0,0,0,1.7-1.294,1.644,1.644,0,0,0,.209-.552.447.447,0,0,0,.008-.2,2.834,2.834,0,0,1-.31.7,3.365,3.365,0,0,1-1.685,1.167c-.414.164-.887.311-1.375.546a2.991,2.991,0,0,0-1.314,1.135,1.877,1.877,0,0,0-.248.937,3.78,3.78,0,0,0,.151.974,5.1,5.1,0,0,1,.3,1.918,3.818,3.818,0,0,1-.624,1.8,4,4,0,0,1-1.316,1.214,10.285,10.285,0,0,0-1.414.952,2.916,2.916,0,0,0-.838,1.253,5.608,5.608,0,0,0-.214,2.137,3.436,3.436,0,0,0,.1.778" transform="translate(-4.842 -24.23)" fill="#455a64"/>
            <path id="Trazado_815731" data-name="Trazado 815731" d="M161.437,50.142c.041.008.09-.237.411-.425a4.056,4.056,0,0,1,1.393-.442,8.266,8.266,0,0,1,2.1.106c.014-.033-.2-.169-.583-.285a3.766,3.766,0,0,0-1.562-.1,3.237,3.237,0,0,0-1.471.561c-.347.273-.333.6-.293.588" transform="translate(-1.279 -22.245)" fill="#455a64"/>
            <path id="Trazado_815732" data-name="Trazado 815732" d="M161.048,52.833c-.018.03.166.19.53.334a3,3,0,0,0,2.9-.418c.307-.241.439-.446.414-.47a3.992,3.992,0,0,1-3.845.554" transform="translate(-0.628 -23.754)" fill="#455a64"/>
            <path id="Trazado_815733" data-name="Trazado 815733" d="M145.72,121.794c.248-.44,1.306-21.487.907-21.487H130.45l.966,20.787Z" transform="translate(34.246 -45.581)" fill="#263238"/>
            <path id="Trazado_815734" data-name="Trazado 815734" d="M147.162,133.78l1.439-16.262-30.1-.081,1.951,16.473Z" transform="translate(38.881 -53.365)" fill="#e0e0e0"/>
            <path id="Trazado_815735" data-name="Trazado 815735" d="M142.615,131.809a1.917,1.917,0,1,0,1.922-1.912,1.917,1.917,0,0,0-1.922,1.912" transform="translate(27.877 -59.027)" fill="#fafafa"/>
            <path id="Trazado_815736" data-name="Trazado 815736" d="M131.393,72.857s-.954,9.672-1.468,14.878a1.207,1.207,0,0,0,.175.953.821.821,0,0,0,1.146-.1,2,2,0,0,0,.483-1.178c.346-3.366,1.08-9.753,1.377-14.058,0,0-1.145-.639-1.713-.493" transform="translate(48.153 -33.097)" fill="#263238"/>
            <path id="Trazado_815737" data-name="Trazado 815737" d="M156.75,72.857s.954,9.672,1.468,14.878a1.207,1.207,0,0,1-.175.953.821.821,0,0,1-1.146-.1,2,2,0,0,1-.483-1.178c-.346-3.366-1.08-9.753-1.377-14.058,0,0,1.145-.639,1.713-.493" transform="translate(9.31 -33.097)" fill="#263238"/>
            <path id="Trazado_815738" data-name="Trazado 815738" d="M132.6,100.435c-.02-.029-.213.149-.144.508a.822.822,0,0,0,.338.508.909.909,0,0,0,.744.1,1.072,1.072,0,0,0,.6-.425,1.225,1.225,0,0,0,.2-.549c.034-.331-.053-.521-.086-.514s-.033.2-.111.475a1.012,1.012,0,0,1-.684.739.7.7,0,0,1-.53-.051.692.692,0,0,1-.285-.342c-.1-.255-.01-.435-.049-.454" transform="translate(45.527 -45.473)" fill="#455a64"/>
            <path id="Trazado_815739" data-name="Trazado 815739" d="M134.232,100.064c-.021.034.036.109.016.224s-.109.213-.245.145-.116-.193-.028-.283.175-.082.19-.12-.1-.138-.3-.05a.4.4,0,0,0-.224.295.423.423,0,0,0,.7.354.4.4,0,0,0,.105-.355c-.047-.213-.209-.246-.217-.21" transform="translate(44.766 -45.417)" fill="#455a64"/>
            <path id="Trazado_815740" data-name="Trazado 815740" d="M154.838,100.124c-.032,0-.121.223-.085.617a1.346,1.346,0,0,0,.25.657,1.075,1.075,0,0,0,.781.422.832.832,0,0,0,.786-.435,1.231,1.231,0,0,0,.142-.693c-.037-.39-.133-.6-.165-.6s-.019.243-.035.6a1.163,1.163,0,0,1-.166.558.584.584,0,0,1-.545.286.87.87,0,0,1-.592-.3,1.326,1.326,0,0,1-.257-.53c-.082-.343-.069-.578-.113-.582" transform="translate(10.99 -45.485)" fill="#455a64"/>
            <path id="Trazado_815741" data-name="Trazado 815741" d="M156.415,100.74c-.013.038.034.093.026.177s-.05.135-.14.107-.091-.087-.039-.171.118-.082.133-.119-.084-.125-.251-.043a.327.327,0,0,0-.175.266.357.357,0,0,0,.632.228.325.325,0,0,0,.034-.316c-.076-.17-.219-.165-.22-.127" transform="translate(10.378 -45.74)" fill="#455a64"/>
            <path id="Trazado_815742" data-name="Trazado 815742" d="M135.56,111.94a1.443,1.443,0,0,0,.407.215,9.581,9.581,0,0,0,1.175.429,13.707,13.707,0,0,0,8.159-.1,9.534,9.534,0,0,0,1.164-.458,1.439,1.439,0,0,0,.4-.225c-.019-.045-.619.209-1.624.491a15.545,15.545,0,0,1-8.047.1c-1.012-.257-1.618-.5-1.636-.451" transform="translate(31.308 -50.801)" fill="#455a64"/>
            <path id="Trazado_815743" data-name="Trazado 815743" d="M123.33,96.5a20.034,20.034,0,0,1,.958,2.286,20.159,20.159,0,0,1,.389,2.448A5.51,5.51,0,0,0,123.33,96.5" transform="translate(60.054 -43.849)" fill="#263238"/>
            <path id="Trazado_815744" data-name="Trazado 815744" d="M100.3,105.8a1.1,1.1,0,0,0,.119.39,6.134,6.134,0,0,0,.533.972,7.017,7.017,0,0,0,2.758,2.374,8.54,8.54,0,0,0,1.916.623,5.621,5.621,0,0,1,1.5.524,2.835,2.835,0,0,1,1.031,1.011c.015,0,0-.154-.135-.388a2.336,2.336,0,0,0-.792-.794,5.258,5.258,0,0,0-1.538-.606,9.181,9.181,0,0,1-1.857-.625,7.524,7.524,0,0,1-2.719-2.234c-.548-.732-.771-1.265-.816-1.244" transform="translate(89.258 -48.079)" fill="#263238"/>
            <path id="Trazado_815745" data-name="Trazado 815745" d="M107.558,110.478a7.01,7.01,0,0,1-.546-.779,2.454,2.454,0,0,1-.038-2.15l.05-.1-.22.033a2.913,2.913,0,0,1,.876,1.932c.032.562-.088.906-.042.919a1.523,1.523,0,0,0,.239-.923,2.874,2.874,0,0,0-.879-2.136l-.137-.13-.083.163-.057.112a2.5,2.5,0,0,0,.116,2.374c.334.542.713.708.721.682" transform="translate(86.164 -48.689)" fill="#263238"/>
            <path id="Trazado_815746" data-name="Trazado 815746" d="M113.433,111.081a1.374,1.374,0,0,0-.915-.271,2.509,2.509,0,0,0-2.064.995l-.057.079-.119.162.2.053a2.876,2.876,0,0,0,2.216-.319c.5-.308.686-.627.662-.643-.033-.033-.27.227-.758.469a2.937,2.937,0,0,1-2.044.218l.081.216.051-.068a2.474,2.474,0,0,1,1.836-.961,8.671,8.671,0,0,1,.912.069" transform="translate(78.534 -50.353)" fill="#263238"/>
            <path id="Trazado_815747" data-name="Trazado 815747" d="M116.174,107.751c.025-.011-.146-.366-.668-.682a2.508,2.508,0,0,0-2.287-.136l-.088.04-.183.083.148.144a2.876,2.876,0,0,0,2.09.8,1.48,1.48,0,0,0,.892-.239c-.014-.046-.347.067-.891.04a2.933,2.933,0,0,1-1.892-.8l-.034.228.077-.035a2.478,2.478,0,0,1,2.072.055,8.878,8.878,0,0,1,.763.505" transform="translate(74.334 -48.495)" fill="#263238"/>
            <path id="Trazado_815748" data-name="Trazado 815748" d="M106.857,113.638a1.376,1.376,0,0,0-.937-.184,2.509,2.509,0,0,0-1.962,1.181l-.05.083-.1.172.2.035a2.875,2.875,0,0,0,2.176-.523c.468-.352.626-.688.6-.7-.037-.031-.248.251-.711.537a2.934,2.934,0,0,1-2.015.407l.1.207.044-.073a2.477,2.477,0,0,1,1.74-1.127,8.672,8.672,0,0,1,.915-.015" transform="translate(88.643 -51.553)" fill="#263238"/>
          </g>
        </g>
        <g id="Grupo_1070753" data-name="Grupo 1070753">
          <g id="Grupo_1070752" data-name="Grupo 1070752" clip-path="url(#clip-path)">
            <path id="Trazado_815749" data-name="Trazado 815749" d="M79.254,17.6a2.3,2.3,0,0,1-.041-.324c-.021-.231-.049-.545-.086-.949A11.147,11.147,0,0,0,78.9,14.8c-.064-.3-.093-.629-.2-.964s-.2-.7-.308-1.076a18.209,18.209,0,0,0-2.535-5.1A17.763,17.763,0,0,0,59.581.427c-.408.031-.81.131-1.219.195a8.293,8.293,0,0,0-1.224.27A16.819,16.819,0,0,0,52.36,2.947,17.723,17.723,0,0,0,45.188,11.6a17.315,17.315,0,0,0-1.156,6.021,16.983,16.983,0,0,0,.986,6.24l.227.609.031.081-.034.074c-1.389,3.033-2.749,6.009-4.069,8.891l-.217-.258,7.991-2.893.1-.035.075.076a17.74,17.74,0,0,0,7.406,4.471,17.625,17.625,0,0,0,14.342-1.941,18.154,18.154,0,0,0,4.547-4.071,19.544,19.544,0,0,0,2.528-4.379,19.7,19.7,0,0,0,1.019-3.676q.109-.773.194-1.374.027-.594.045-1.012c.015-.26.025-.465.033-.62a1.145,1.145,0,0,1,.021-.211,1.067,1.067,0,0,1,.009.211c0,.155,0,.36,0,.621-.005.28-.01.62-.018,1.018q-.073.6-.167,1.386a19.3,19.3,0,0,1-.978,3.723,19.491,19.491,0,0,1-2.517,4.454A18.273,18.273,0,0,1,71,33.168,17.845,17.845,0,0,1,56.438,35.2a18.018,18.018,0,0,1-7.554-4.535l.174.041-7.986,2.9-.4.147.184-.4,4.064-8.894,0,.154-.232-.623a17.347,17.347,0,0,1-1.008-6.38,17.673,17.673,0,0,1,1.188-6.153,18.039,18.039,0,0,1,7.33-8.814A17.12,17.12,0,0,1,57.062.569,8.494,8.494,0,0,1,58.308.3c.417-.063.826-.164,1.24-.194A17.851,17.851,0,0,1,76.024,7.534a18.141,18.141,0,0,1,2.508,5.179l.294,1.089c.1.34.123.674.181.975a10.621,10.621,0,0,1,.194,1.541c.021.406.038.722.05.955a2.052,2.052,0,0,1,0,.325" transform="translate(150.682 0)" fill="#263238"/>
            <path id="Trazado_815750" data-name="Trazado 815750" d="M67.528,27.612l-6.395-.125A6.4,6.4,0,1,0,67.8,21.222Z" transform="translate(144.857 -9.644)" fill="#632059"/>
            <path id="Trazado_815751" data-name="Trazado 815751" d="M81.854,24.691l.27-6.392a6.745,6.745,0,0,0-4.64,1.722,6.577,6.577,0,0,0-2.02,4.446Z" transform="translate(128.838 -8.315)" fill="#632059"/>
          </g>
        </g>
      </g>
    </g>
  </g>
</svg>
