<svg xmlns="http://www.w3.org/2000/svg" width="505" height="361" viewBox="0 0 505 361">
  <g id="Grupo_1072678" data-name="Grupo 1072678" transform="translate(13571 3739.496)">
    <path id="Trazado_819713" data-name="Trazado 819713" d="M9.688,11.391a4.185,4.185,0,0,1-1.332,2.785,4.365,4.365,0,0,1-2.98.98,4.008,4.008,0,0,1-3.23-1.445A5.815,5.815,0,0,1,.93,9.844V8.75A6.481,6.481,0,0,1,1.5,5.961,4.231,4.231,0,0,1,3.1,4.113a4.47,4.47,0,0,1,2.406-.645A4.11,4.11,0,0,1,8.414,4.48a4.235,4.235,0,0,1,1.273,2.8H8.18a3.268,3.268,0,0,0-.848-1.975A2.565,2.565,0,0,0,5.508,4.7,2.684,2.684,0,0,0,3.254,5.759a4.882,4.882,0,0,0-.816,3.026v1.1a5.018,5.018,0,0,0,.773,2.948A2.5,2.5,0,0,0,5.375,13.93a2.887,2.887,0,0,0,1.918-.566,3.143,3.143,0,0,0,.887-1.973Zm1.438-.7a4.993,4.993,0,0,1,.488-2.234A3.643,3.643,0,0,1,12.973,6.93a3.7,3.7,0,0,1,1.988-.539,3.565,3.565,0,0,1,2.793,1.2,4.6,4.6,0,0,1,1.066,3.18v.1a5.036,5.036,0,0,1-.473,2.215A3.589,3.589,0,0,1,17,14.609a3.743,3.743,0,0,1-2.02.547,3.556,3.556,0,0,1-2.785-1.2A4.575,4.575,0,0,1,11.125,10.8Zm1.453.172a3.616,3.616,0,0,0,.652,2.258,2.211,2.211,0,0,0,3.5-.012,3.955,3.955,0,0,0,.648-2.418,3.61,3.61,0,0,0-.66-2.254,2.1,2.1,0,0,0-1.754-.863,2.075,2.075,0,0,0-1.727.852A3.925,3.925,0,0,0,12.578,10.867ZM22.2,15H20.758V3H22.2Zm1.93-4.3a4.993,4.993,0,0,1,.488-2.234A3.643,3.643,0,0,1,25.98,6.93a3.7,3.7,0,0,1,1.988-.539,3.565,3.565,0,0,1,2.793,1.2,4.6,4.6,0,0,1,1.066,3.18v.1a5.036,5.036,0,0,1-.473,2.215A3.589,3.589,0,0,1,30,14.609a3.743,3.743,0,0,1-2.02.547,3.556,3.556,0,0,1-2.785-1.2A4.575,4.575,0,0,1,24.133,10.8Zm1.453.172a3.616,3.616,0,0,0,.652,2.258,2.211,2.211,0,0,0,3.5-.012,3.955,3.955,0,0,0,.648-2.418,3.61,3.61,0,0,0-.66-2.254,2.1,2.1,0,0,0-1.754-.863,2.075,2.075,0,0,0-1.727.852A3.925,3.925,0,0,0,25.586,10.867ZM37.727,7.844a4.331,4.331,0,0,0-.711-.055A1.9,1.9,0,0,0,35.086,9v6H33.641V6.547h1.406l.023.977a2.251,2.251,0,0,1,2.016-1.133,1.477,1.477,0,0,1,.641.109Zm6,7.156V7.664H42.391V6.547h1.336V5.68a2.878,2.878,0,0,1,.727-2.1,2.745,2.745,0,0,1,2.055-.742,3.816,3.816,0,0,1,.992.132l-.078,1.165a4.151,4.151,0,0,0-.781-.07,1.41,1.41,0,0,0-1.086.411,1.669,1.669,0,0,0-.383,1.18v.893h1.8V7.664h-1.8V15Zm10.063,0a3.036,3.036,0,0,1-.2-.891,3.225,3.225,0,0,1-2.406,1.047,2.984,2.984,0,0,1-2.051-.707,2.287,2.287,0,0,1-.8-1.793,2.39,2.39,0,0,1,1-2.051,4.733,4.733,0,0,1,2.824-.73h1.406V9.211A1.623,1.623,0,0,0,53.109,8a1.821,1.821,0,0,0-1.336-.449,2.107,2.107,0,0,0-1.3.391,1.151,1.151,0,0,0-.523.945H48.5a2,2,0,0,1,.449-1.223,3.066,3.066,0,0,1,1.219-.934,4.1,4.1,0,0,1,1.691-.344,3.342,3.342,0,0,1,2.289.73,2.635,2.635,0,0,1,.859,2.012v3.891a4.757,4.757,0,0,0,.3,1.852V15Zm-2.4-1.1a2.54,2.54,0,0,0,1.289-.352,2.127,2.127,0,0,0,.883-.914V10.9H52.43q-2.656,0-2.656,1.555a1.316,1.316,0,0,0,.453,1.063A1.742,1.742,0,0,0,51.391,13.9Zm8.555-.859,2.094-6.492h1.477L60.484,15h-1.1L56.32,6.547H57.8ZM64.406,10.7a4.993,4.993,0,0,1,.488-2.234A3.643,3.643,0,0,1,66.254,6.93a3.7,3.7,0,0,1,1.988-.539,3.565,3.565,0,0,1,2.793,1.2,4.6,4.6,0,0,1,1.066,3.18v.1a5.036,5.036,0,0,1-.473,2.215,3.589,3.589,0,0,1-1.352,1.527,3.743,3.743,0,0,1-2.02.547,3.556,3.556,0,0,1-2.785-1.2A4.575,4.575,0,0,1,64.406,10.8Zm1.453.172a3.616,3.616,0,0,0,.652,2.258,2.211,2.211,0,0,0,3.5-.012,3.955,3.955,0,0,0,.648-2.418A3.61,3.61,0,0,0,70,8.441a2.1,2.1,0,0,0-1.754-.863,2.075,2.075,0,0,0-1.727.852A3.925,3.925,0,0,0,65.859,10.867ZM78,7.844a4.331,4.331,0,0,0-.711-.055A1.9,1.9,0,0,0,75.359,9v6H73.914V6.547H75.32l.023.977a2.251,2.251,0,0,1,2.016-1.133A1.477,1.477,0,0,1,78,6.5ZM80.9,15H79.453V6.547H80.9ZM79.336,4.3a.863.863,0,0,1,.215-.594.807.807,0,0,1,.637-.242.819.819,0,0,1,.641.242.854.854,0,0,1,.219.594.826.826,0,0,1-.219.586.834.834,0,0,1-.641.234.821.821,0,0,1-.637-.234A.834.834,0,0,1,79.336,4.3Zm5.836.2V6.547H86.75V7.664H85.172v5.249a1.173,1.173,0,0,0,.211.763.888.888,0,0,0,.719.254,3.5,3.5,0,0,0,.688-.094V15a4.215,4.215,0,0,1-1.109.155,1.8,1.8,0,0,1-1.461-.586,2.517,2.517,0,0,1-.492-1.664V7.664H82.188V6.547h1.539V4.5ZM87.9,10.7a4.993,4.993,0,0,1,.488-2.234A3.643,3.643,0,0,1,89.746,6.93a3.7,3.7,0,0,1,1.988-.539,3.565,3.565,0,0,1,2.793,1.2,4.6,4.6,0,0,1,1.066,3.18v.1a5.036,5.036,0,0,1-.473,2.215,3.589,3.589,0,0,1-1.352,1.527,3.743,3.743,0,0,1-2.02.547,3.556,3.556,0,0,1-2.785-1.2A4.575,4.575,0,0,1,87.9,10.8Zm1.453.172A3.616,3.616,0,0,0,90,13.125a2.211,2.211,0,0,0,3.5-.012,3.955,3.955,0,0,0,.648-2.418,3.61,3.61,0,0,0-.66-2.254,2.1,2.1,0,0,0-1.754-.863,2.075,2.075,0,0,0-1.727.852A3.925,3.925,0,0,0,89.352,10.867Z" transform="translate(-13377.66 -3718.73)" fill="#12263f"/>
    <g id="Grupo_1072532" data-name="Grupo 1072532" transform="translate(-13518.5 -3701.182)">
      <g id="Grupo_1072531" data-name="Grupo 1072531" transform="translate(26.925 6.731)">
        <path id="Trazado_815773" data-name="Trazado 815773" d="M-13621-3632.268h373.075" transform="translate(13621.001 3632.268)" fill="none" stroke="#707070" stroke-width="1" stroke-dasharray="3"/>
        <path id="Trazado_815774" data-name="Trazado 815774" d="M-13621-3632.268h373.075" transform="translate(13621.001 3686.118)" fill="none" stroke="#707070" stroke-width="1" stroke-dasharray="3"/>
        <path id="Trazado_815775" data-name="Trazado 815775" d="M-13621-3632.268h373.075" transform="translate(13621.001 3738.933)" fill="none" stroke="#707070" stroke-width="1" stroke-dasharray="3"/>
        <path id="Trazado_815776" data-name="Trazado 815776" d="M-13621-3632.268h373.075" transform="translate(13621.001 3792.784)" fill="none" stroke="#707070" stroke-width="1" stroke-dasharray="3"/>
        <path id="Trazado_815777" data-name="Trazado 815777" d="M-13621-3632.268h373.075" transform="translate(13621.001 3845.599)" fill="none" stroke="#707070" stroke-width="1" stroke-dasharray="3"/>
        <path id="Trazado_815778" data-name="Trazado 815778" d="M-13621-3632.268h373.075" transform="translate(13621.001 3899.449)" fill="none" stroke="#707070" stroke-width="1" stroke-dasharray="3"/>
      </g>
      <text id="_0" data-name="0" transform="translate(8.142 282.253)" fill="#12263f" font-size="14" font-family="Roboto-Bold, Roboto" font-weight="700"><tspan x="-4.016" y="0">0</tspan></text>
      <text id="Blanco" transform="translate(64.459 299.858)" fill="#12263f" font-size="14" font-family="Roboto-Bold, Roboto" font-weight="700"><tspan x="-21.605" y="0">Blanco</tspan></text>
      <text id="Negro" transform="translate(152.591 299.858)" fill="#12263f" font-size="14" font-family="Roboto-Bold, Roboto" font-weight="700"><tspan x="-19.11" y="0">Negro</tspan></text>
      <text id="Rojo" transform="translate(240.794 299.858)" fill="#12263f" font-size="14" font-family="Roboto-Bold, Roboto" font-weight="700"><tspan x="-14.202" y="0">Rojo</tspan></text>
      <text id="Azul" transform="translate(328.819 299.858)" fill="#12263f" font-size="14" font-family="Roboto-Bold, Roboto" font-weight="700"><tspan x="-14.085" y="0">Azul</tspan></text>
      <text id="_5" data-name="5" transform="translate(8.142 228.402)" fill="#12263f" font-size="14" font-family="Roboto-Bold, Roboto" font-weight="700"><tspan x="-4.016" y="0">5</tspan></text>
      <text id="_10" data-name="10" transform="translate(8 174.552)" fill="#12263f" font-size="14" font-family="Roboto-Bold, Roboto" font-weight="700"><tspan x="-8.032" y="0">10</tspan></text>
      <text id="_15" data-name="15" transform="translate(8 120.701)" fill="#12263f" font-size="14" font-family="Roboto-Bold, Roboto" font-weight="700"><tspan x="-8.032" y="0">15</tspan></text>
      <text id="_20" data-name="20" transform="translate(8 66.851)" fill="#12263f" font-size="14" font-family="Roboto-Bold, Roboto" font-weight="700"><tspan x="-8.032" y="0">20</tspan></text>
      <text id="_25" data-name="25" transform="translate(8 13)" fill="#12263f" font-size="14" font-family="Roboto-Bold, Roboto" font-weight="700"><tspan x="-8.032" y="0">25</tspan></text>
      <g id="Trazado_819603" data-name="Trazado 819603" transform="translate(316.89 60.064)" fill="#1b3f5e">
        <path d="M 24.35411262512207 213.8667755126953 L 0.5000065565109253 213.8667755126953 L 0.5000065565109253 0.4999930262565613 L 24.35411262512207 0.4999930262565613 L 24.35411262512207 213.8667755126953 Z" stroke="none"/>
        <path d="M 1.000003814697266 1 L 1.000003814697266 213.3667755126953 L 23.8541145324707 213.3667755126953 L 23.8541145324707 1 L 1.000003814697266 1 M 3.814697265625e-06 0 L 24.8541145324707 0 L 24.8541145324707 214.3667755126953 L 3.814697265625e-06 214.3667755126953 L 3.814697265625e-06 0 Z" stroke="none" fill="#707070"/>
      </g>
      <g id="Rectángulo_377186" data-name="Rectángulo 377186" transform="translate(228.865 112.879)" fill="#b4370f" stroke="#707070" stroke-width="1">
        <rect width="24.854" height="161.552" stroke="none"/>
        <rect x="0.5" y="0.5" width="23.854" height="160.552" fill="none"/>
      </g>
      <g id="Rectángulo_377187" data-name="Rectángulo 377187" transform="translate(140.84 202.975)" fill="#12263f" stroke="#707070" stroke-width="1">
        <rect width="24.854" height="71.456" stroke="none"/>
        <rect x="0.5" y="0.5" width="23.854" height="70.456" fill="none"/>
      </g>
      <g id="Rectángulo_377188" data-name="Rectángulo 377188" transform="translate(52.815 192.619)" fill="#fff" stroke="#707070" stroke-width="1">
        <rect width="24.854" height="81.811" stroke="none"/>
        <rect x="0.5" y="0.5" width="23.854" height="80.811" fill="none"/>
      </g>
    </g>
    <path id="Trazado_819714" data-name="Trazado 819714" d="M0,0H505V361H0Z" transform="translate(-13571 -3739.496)" fill="none"/>
  </g>
</svg>
