<svg id="Grupo_1071840" data-name="Grupo 1071840" xmlns="http://www.w3.org/2000/svg" xmlns:xlink="http://www.w3.org/1999/xlink" width="295" height="275.297" viewBox="0 0 295 275.297">
  <defs>
    <clipPath id="clip-path">
      <rect id="Rectángulo_376649" data-name="Rectángulo 376649" width="295" height="275.297" fill="none"/>
    </clipPath>
    <clipPath id="clip-path-2">
      <rect id="Rectángulo_376634" data-name="Rectángulo 376634" width="295.001" height="275.297" fill="none"/>
    </clipPath>
    <clipPath id="clip-path-4">
      <rect id="Rectángulo_376635" data-name="Rectángulo 376635" width="8.176" height="14.395" fill="none"/>
    </clipPath>
    <clipPath id="clip-path-5">
      <rect id="Rectángulo_376636" data-name="Rectángulo 376636" width="72.182" height="86.847" fill="none"/>
    </clipPath>
    <clipPath id="clip-path-7">
      <rect id="Rectángulo_376639" data-name="Rectángulo 376639" width="57.411" height="33.828" fill="none"/>
    </clipPath>
    <clipPath id="clip-path-8">
      <rect id="Rectángulo_376640" data-name="Rectángulo 376640" width="9.78" height="9.78" fill="none"/>
    </clipPath>
    <clipPath id="clip-path-9">
      <rect id="Rectángulo_376641" data-name="Rectángulo 376641" width="58.085" height="55.463" fill="none"/>
    </clipPath>
    <clipPath id="clip-path-10">
      <rect id="Rectángulo_376643" data-name="Rectángulo 376643" width="39.469" height="23.256" fill="#3b1335"/>
    </clipPath>
    <clipPath id="clip-path-11">
      <rect id="Rectángulo_376644" data-name="Rectángulo 376644" width="6.723" height="6.723" fill="none"/>
    </clipPath>
    <clipPath id="clip-path-12">
      <rect id="Rectángulo_376645" data-name="Rectángulo 376645" width="39.933" height="38.13" fill="none"/>
    </clipPath>
    <clipPath id="clip-path-14">
      <rect id="Rectángulo_376647" data-name="Rectángulo 376647" width="18.839" height="8.806" fill="none"/>
    </clipPath>
  </defs>
  <g id="Grupo_1071839" data-name="Grupo 1071839" clip-path="url(#clip-path)">
    <g id="Grupo_1071805" data-name="Grupo 1071805">
      <g id="Grupo_1071804" data-name="Grupo 1071804" clip-path="url(#clip-path-2)">
        <path id="Trazado_817754" data-name="Trazado 817754" d="M390.5,217.646s-5.364-4.123-13.186,8.851-10.977,20.554-10.977,20.554-2.015,2.692-3.822.71-4.087-7.4-7.448-6.7c-3.486.732-4.883,4.465-4.631,10.113s.348,18.044.353,19.166c0,1.1-.737,2.668-2.184,1.515s-9.5-11.525-14.2-7.407S333,284.189,333.326,285.9s-.054,2.41-.883,2.769-3.208-3.382-5.621-6.238-5.71-5.745-8.218-3.142-4.067,14.035,5.532,33.473l5.038,8.715,10.11.16c21.656-.976,30.917-7.861,31.985-11.315s-3.054-4.946-6.719-5.68-8.091-1.011-8.176-1.91.339-1.568,2-2.11,16.926-5.2,18.266-11.3-11.632-8.145-13.34-8.856-.694-2.117.272-2.644c.984-.537,11.886-6.436,16.955-8.943s7.662-5.532,6.621-8.938c-1-3.285-6.852-2.666-9.459-3.29s-1.224-3.689-1.224-3.689,5.115-6.421,12.7-19.536,1.215-15.857,1.215-15.857" transform="translate(-97.884 -67.076)" fill="#afc797"/>
        <path id="Trazado_817755" data-name="Trazado 817755" d="M385.333,234.724s-.046.1-.146.283l-.454.814-1.769,3.115c-1.54,2.7-3.8,6.6-6.6,11.4-5.609,9.609-13.468,22.819-22.2,37.379s-16.62,27.757-22.277,37.337L325.2,336.407c-.786,1.33-1.4,2.368-1.821,3.085q-.309.513-.48.8c-.11.179-.173.267-.173.267s.045-.1.146-.283l.453-.814,1.769-3.115c1.54-2.7,3.8-6.6,6.6-11.4,5.609-9.609,13.47-22.82,22.2-37.385s16.616-27.75,22.273-37.331l6.688-11.352c.786-1.331,1.4-2.369,1.821-3.086l.481-.8c.109-.179.173-.267.173-.267" transform="translate(-99.746 -72.547)" fill="#e0e0e0"/>
        <path id="Trazado_817756" data-name="Trazado 817756" d="M376.4,262.979a3.264,3.264,0,0,1,.2.7c.114.454.259,1.115.43,1.934.341,1.637.752,3.911,1.162,6.429.4,2.485.752,4.731,1.025,6.449.128.773.236,1.426.323,1.951a3.3,3.3,0,0,1,.091.722,3.238,3.238,0,0,1-.21-.7c-.113-.455-.258-1.116-.421-1.937-.324-1.642-.707-3.92-1.116-6.437l-1.071-6.439c-.132-.773-.243-1.426-.332-1.951a3.235,3.235,0,0,1-.086-.723" transform="translate(-116.333 -81.28)" fill="#e0e0e0"/>
        <path id="Trazado_817757" data-name="Trazado 817757" d="M382.4,287.675c-.018-.084,4.633-1.141,10.387-2.36s10.434-2.138,10.452-2.053-4.632,1.141-10.387,2.359-10.434,2.138-10.452,2.053" transform="translate(-118.19 -87.547)" fill="#e0e0e0"/>
        <path id="Trazado_817758" data-name="Trazado 817758" d="M361.54,321.139a3.394,3.394,0,0,1,.743.019l2.015.151c1.7.125,4.05.287,6.649.372s4.955.09,6.66.076l2.02-.015a3.418,3.418,0,0,1,.743.03,3.322,3.322,0,0,1-.738.091c-.476.038-1.166.081-2.02.114-1.707.071-4.069.106-6.676.016s-4.959-.283-6.658-.464c-.849-.094-1.535-.178-2.008-.25a3.426,3.426,0,0,1-.73-.14" transform="translate(-111.743 -99.252)" fill="#e0e0e0"/>
        <path id="Trazado_817759" data-name="Trazado 817759" d="M350.8,298.213a2.888,2.888,0,0,1,.353.59l.858,1.659c.712,1.407,1.677,3.36,2.724,5.525s1.982,4.135,2.643,5.566l.768,1.7a2.908,2.908,0,0,1,.244.643,2.914,2.914,0,0,1-.353-.59l-.858-1.659c-.712-1.407-1.677-3.36-2.725-5.527s-1.981-4.134-2.642-5.565q-.455-1.005-.769-1.7a2.923,2.923,0,0,1-.243-.643" transform="translate(-108.423 -92.17)" fill="#e0e0e0"/>
        <path id="Trazado_817760" data-name="Trazado 817760" d="M328.856,323.675a4.866,4.866,0,0,1,.444.759l1.108,2.122c.923,1.8,2.179,4.292,3.548,7.054s2.594,5.272,3.466,7.1l1.018,2.166a4.7,4.7,0,0,1,.336.813,4.676,4.676,0,0,1-.444-.759l-1.108-2.122c-.924-1.8-2.18-4.291-3.549-7.055s-2.594-5.272-3.466-7.1l-1.018-2.166a4.682,4.682,0,0,1-.334-.813" transform="translate(-101.64 -100.039)" fill="#e0e0e0"/>
        <path id="Trazado_817761" data-name="Trazado 817761" d="M343.066,351.841a5.4,5.4,0,0,1,.942,0l2.561.1c2.163.082,5.15.182,8.449.2s6.29-.035,8.453-.091l2.562-.066a5.47,5.47,0,0,1,.942.011,5.313,5.313,0,0,1-.935.111c-.6.05-1.478.11-2.56.164-2.163.114-5.156.207-8.463.184s-6.3-.154-8.458-.292c-1.081-.072-1.955-.139-2.558-.2a5.462,5.462,0,0,1-.934-.122" transform="translate(-106.033 -108.74)" fill="#e0e0e0"/>
        <rect id="Rectángulo_376633" data-name="Rectángulo 376633" width="53.706" height="36.2" transform="matrix(0.954, -0.301, 0.301, 0.954, 218.049, 123.155)" fill="#fff"/>
        <path id="Trazado_817762" data-name="Trazado 817762" d="M377.592,189.325s-.079-.218-.215-.63l-.592-1.823c-.515-1.606-1.266-3.947-2.226-6.942l-7.986-25.087.181.094-51.207,16.177h0l.117-.226c3.874,12.308,7.557,24.01,10.868,34.53l-.207-.108,36.907-11.547,10.562-3.283,2.816-.866.731-.22c.165-.049.256-.07.256-.07s-.074.03-.231.083l-.708.234-2.773.895-10.5,3.356-36.961,11.735-.157.05-.05-.158L315.317,171l-.055-.171.172-.055h0l51.228-16.109.138-.043.043.137c3.289,10.539,5.988,19.189,7.869,25.217l2.147,6.933.553,1.807c.123.407.176.611.176.611" transform="translate(-97.439 -47.789)" fill="#e0e0e0"/>
        <path id="Trazado_817763" data-name="Trazado 817763" d="M366.811,154.88a.627.627,0,0,1-.07.157l-.236.444-.936,1.693-3.509,6.211-11.786,20.6-.075.132-.143-.053-1.582-.589-23.281-8.731-7.041-2.684-1.908-.747-.493-.2a.726.726,0,0,1-.164-.08.669.669,0,0,1,.176.046l.506.169,1.931.684,7.081,2.577,23.317,8.632,1.581.589-.218.079,11.882-20.54,3.607-6.155.993-1.66.265-.426a.657.657,0,0,1,.1-.14" transform="translate(-97.54 -47.869)" fill="#e0e0e0"/>
        <path id="Trazado_817764" data-name="Trazado 817764" d="M85.385,30.183a5.981,5.981,0,0,1-.153-1.354A11.163,11.163,0,0,0,85.05,27.2a15.914,15.914,0,0,0-.427-2.185A20.5,20.5,0,0,0,82.354,19.4a21.07,21.07,0,0,0-5.228-6.021A20.826,20.826,0,0,0,57.493,10a19.508,19.508,0,0,0-5.31,2.709,23.413,23.413,0,0,0-2.4,1.946A23.619,23.619,0,0,0,47.7,17.012a20.662,20.662,0,0,0-.6,24.494,23.518,23.518,0,0,0,1.969,2.456,23.513,23.513,0,0,0,2.3,2.061,19.5,19.5,0,0,0,5.174,2.964,20.988,20.988,0,0,0,25.289-8.178,20.488,20.488,0,0,0,2.539-5.5,15.972,15.972,0,0,0,.532-2.161,11.117,11.117,0,0,0,.26-1.615,6.028,6.028,0,0,1,.219-1.345,5.953,5.953,0,0,1,.016,1.366A9.532,9.532,0,0,1,85.25,33.2a14.8,14.8,0,0,1-.437,2.226,20.04,20.04,0,0,1-2.424,5.732,21.594,21.594,0,0,1-14.8,10,21.789,21.789,0,0,1-11.437-1.166,20.467,20.467,0,0,1-5.469-3.087,24.336,24.336,0,0,1-2.434-2.161,24.474,24.474,0,0,1-2.088-2.581,21.712,21.712,0,0,1,.629-25.853A24.487,24.487,0,0,1,49,13.834a24.432,24.432,0,0,1,2.536-2.04,20.491,20.491,0,0,1,5.611-2.818,21.794,21.794,0,0,1,11.479-.609,21.594,21.594,0,0,1,14.3,10.707,20.032,20.032,0,0,1,2.143,5.842,14.788,14.788,0,0,1,.329,2.246,9.536,9.536,0,0,1,.071,1.658,5.947,5.947,0,0,1-.082,1.363" transform="translate(-13.045 -2.435)" fill="#e0e0e0"/>
        <path id="Trazado_817765" data-name="Trazado 817765" d="M83.578,20.533c.047.066-.337.4-1.079.951l-1.371.984c-.272.186-.556.4-.872.595l-1.049.548a24.038,24.038,0,0,1-12.523,3.153l-1.9-.084L62.97,26.4c-.3-.05-.594-.09-.884-.148l-.849-.227c-.558-.155-1.112-.286-1.638-.455a27.473,27.473,0,0,1-5.313-2.448c-2.854-1.726-4.244-3.3-4.136-3.4.115-.132,1.667,1.182,4.542,2.675a32.012,32.012,0,0,0,5.23,2.14c.509.149,1.042.26,1.579.4l.816.2.847.128,1.738.256,1.807.073a25.936,25.936,0,0,0,12.126-2.723L79.9,22.41c.323-.169.616-.35.9-.506l1.454-.8c.808-.428,1.282-.636,1.329-.57" transform="translate(-15.498 -6.092)" fill="#e0e0e0"/>
        <path id="Trazado_817766" data-name="Trazado 817766" d="M49.211,55.591c-.047-.066.337-.4,1.079-.951l1.371-.984c.272-.186.556-.4.872-.595l1.049-.548a24.038,24.038,0,0,1,12.523-3.153l1.9.084,1.819.285c.3.05.594.09.884.148l.849.227c.558.155,1.112.286,1.637.455A27.473,27.473,0,0,1,78.5,53.005c2.854,1.726,4.244,3.3,4.136,3.4-.115.132-1.667-1.182-4.542-2.675a32.028,32.028,0,0,0-5.23-2.14c-.51-.148-1.043-.26-1.58-.4l-.816-.2-.847-.128L67.886,50.6,66.08,50.53a25.934,25.934,0,0,0-12.126,2.723l-1.061.461c-.323.169-.616.35-.9.506l-1.454.8c-.808.428-1.282.636-1.329.57" transform="translate(-15.209 -15.252)" fill="#e0e0e0"/>
        <path id="Trazado_817767" data-name="Trazado 817767" d="M85.63,40.3c-.008.323-9.549.354-21.309.068s-21.291-.779-21.283-1.1,9.547-.354,21.311-.068,21.288.779,21.281,1.1" transform="translate(-13.302 -12.053)" fill="#e0e0e0"/>
        <path id="Trazado_817768" data-name="Trazado 817768" d="M72.322,51.16c-.323-.008-.354-9.547-.068-21.3s.779-21.283,1.1-21.276.354,9.544.068,21.3-.779,21.281-1.1,21.274" transform="translate(-22.271 -2.652)" fill="#e0e0e0"/>
        <path id="Trazado_817769" data-name="Trazado 817769" d="M67.7,51.122c-.08.124-2.427-1.468-5.135-5.069a28.674,28.674,0,0,1-3.807-6.912A25.675,25.675,0,0,1,57.112,29.6a24.421,24.421,0,0,1,2.149-9.448,29.622,29.622,0,0,1,4.16-6.7c2.869-3.466,5.234-5,5.314-4.879.115.133-2.028,1.877-4.661,5.389a31.91,31.91,0,0,0-3.822,6.618,24.535,24.535,0,0,0-1.97,9.041,25.93,25.93,0,0,0,1.491,9.151,30.7,30.7,0,0,0,3.469,6.8c2.465,3.63,4.578,5.42,4.459,5.548" transform="translate(-17.65 -2.647)" fill="#e0e0e0"/>
        <path id="Trazado_817770" data-name="Trazado 817770" d="M74.163,8.588c.08-.124,2.427,1.468,5.135,5.069A28.661,28.661,0,0,1,83.1,20.569a25.675,25.675,0,0,1,1.648,9.544,24.421,24.421,0,0,1-2.15,9.448,29.6,29.6,0,0,1-4.159,6.7c-2.869,3.466-5.234,5-5.314,4.879-.115-.133,2.028-1.877,4.661-5.389a31.911,31.911,0,0,0,3.822-6.618,24.535,24.535,0,0,0,1.97-9.041,25.93,25.93,0,0,0-1.491-9.151,30.7,30.7,0,0,0-3.469-6.8c-2.465-3.63-4.578-5.42-4.459-5.548" transform="translate(-22.601 -2.652)" fill="#e0e0e0"/>
        <path id="Trazado_817771" data-name="Trazado 817771" d="M246.182,28.364a2.662,2.662,0,0,0,1.06-.872,2.449,2.449,0,0,0,.4-1.584,3.951,3.951,0,0,0-.285-1.028l-.419-1.167c-1.179-3.323-2.874-8.094-4.964-13.982L240.341,5.1q-.427-1.209-.87-2.467a7.4,7.4,0,0,0-.483-1.212,2.232,2.232,0,0,0-.924-.839A2.1,2.1,0,0,0,236.817.4a11.02,11.02,0,0,0-1.307.44l-2.721,1-5.679,2.088-25.3,9.274a2.205,2.205,0,0,0-1.319,2.639l1.146,3.306q1.15,3.3,2.266,6.491l4.278,12.272.507,1.457a2.313,2.313,0,0,0,.772,1.153,2.107,2.107,0,0,0,1.27.457,3.655,3.655,0,0,0,1.357-.346l5.364-1.95,9.631-3.5,13.957-5.032,3.8-1.347.993-.34a2.218,2.218,0,0,1,.343-.1,2.139,2.139,0,0,1-.327.144l-.978.381L241.1,30.314l-13.908,5.163-9.612,3.546-5.357,1.972-.7.253a2.327,2.327,0,0,1-.795.122,2.506,2.506,0,0,1-1.51-.536,2.725,2.725,0,0,1-.906-1.333q-.254-.723-.511-1.456L203.5,25.78q-1.117-3.19-2.272-6.488-.575-1.657-1.157-3.338a2.645,2.645,0,0,1,1.592-3.167l25.309-9.242,5.686-2.071,2.724-.991a10.637,10.637,0,0,1,1.376-.453,2.472,2.472,0,0,1,1.466.218,2.592,2.592,0,0,1,1.072.98,7.576,7.576,0,0,1,.51,1.282l.857,2.471,1.61,4.645c2.034,5.907,3.683,10.694,4.832,14.028l.4,1.173a4.018,4.018,0,0,1,.272,1.068,2.525,2.525,0,0,1-.46,1.646,2.309,2.309,0,0,1-.8.69,1.354,1.354,0,0,1-.334.131" transform="translate(-61.807 0)" fill="#e0e0e0"/>
        <path id="Trazado_817772" data-name="Trazado 817772" d="M232.99,25.216l5.732,1.131-3.763,4.564L231.2,35.475l-1.969-5.7-1.968-5.695Z" transform="translate(-70.24 -7.444)" fill="#e0e0e0"/>
      </g>
    </g>
    <g id="Grupo_1071813" data-name="Grupo 1071813">
      <g id="Grupo_1071812" data-name="Grupo 1071812" clip-path="url(#clip-path-2)">
        <path id="Trazado_817773" data-name="Trazado 817773" d="M378.865,100.516a8.308,8.308,0,0,0-6.456-.81,14.667,14.667,0,0,0-5.781,3.249c-3.269,2.817-5.472,7.269-6.825,11.366,4.638,1.208,9.647-1.2,12.111-2.585,3.9-2.185,9.609-8.5,6.951-11.221" transform="translate(-111.206 -30.723)" fill="#3b5620"/>
        <path id="Trazado_817774" data-name="Trazado 817774" d="M346.2,115.308a7.088,7.088,0,0,0,4.278-5.689,9.412,9.412,0,0,0-2.12-6.958,3.965,3.965,0,0,0-2.847-1.747,3.034,3.034,0,0,0-2.565,1.692,6.155,6.155,0,0,0-.569,3.142c.14,3.691.954,7.237,3.824,9.561" transform="translate(-105.818 -31.19)" fill="#3b5620"/>
        <g id="Grupo_1071808" data-name="Grupo 1071808" transform="translate(236.647 69.723)" opacity="0.4">
          <g id="Grupo_1071807" data-name="Grupo 1071807">
            <g id="Grupo_1071806" data-name="Grupo 1071806" clip-path="url(#clip-path-4)">
              <path id="Trazado_817775" data-name="Trazado 817775" d="M346.2,115.308a7.088,7.088,0,0,0,4.278-5.689,9.412,9.412,0,0,0-2.12-6.958,3.965,3.965,0,0,0-2.847-1.747,3.034,3.034,0,0,0-2.565,1.692,6.155,6.155,0,0,0-.569,3.142c.14,3.691.954,7.237,3.824,9.561" transform="translate(-342.372 -100.913)" fill="#fff"/>
            </g>
          </g>
        </g>
        <path id="Trazado_817776" data-name="Trazado 817776" d="M335.973,129.227a5.025,5.025,0,0,0,.654-.6l1.722-1.7a24.891,24.891,0,0,0,4.9-6.316,15.227,15.227,0,0,0,1.718-7.778,10.286,10.286,0,0,0-.441-2.393,6.227,6.227,0,0,0-.226-.622c-.058-.14-.093-.211-.1-.207a16.177,16.177,0,0,1,.549,3.234,15.733,15.733,0,0,1-1.776,7.626,26.774,26.774,0,0,1-4.78,6.3c-.7.743-1.269,1.345-1.651,1.772a4.668,4.668,0,0,0-.567.686" transform="translate(-103.84 -33.877)" fill="#263238"/>
        <path id="Trazado_817777" data-name="Trazado 817777" d="M366.489,107.418a1.814,1.814,0,0,0-.343.18l-.95.568c-.822.5-2,1.235-3.453,2.157-2.9,1.843-6.873,4.447-11.2,7.42s-8.172,5.756-10.93,7.807c-1.38,1.025-2.489,1.865-3.248,2.455l-.87.684a1.781,1.781,0,0,0-.291.256,1.791,1.791,0,0,0,.328-.205l.905-.637,3.305-2.373c2.791-2.005,6.659-4.756,10.978-7.729s8.268-5.6,11.138-7.492l3.4-2.24.918-.618a1.844,1.844,0,0,0,.309-.234" transform="translate(-103.604 -33.2)" fill="#263238"/>
        <path id="Trazado_817778" data-name="Trazado 817778" d="M349.782,130.662a16.582,16.582,0,0,1,15.137.638c1.157.671,2.357,1.76,2.174,3.085s-1.641,2.052-2.947,2.354a14.166,14.166,0,0,1-14.608-5.809" transform="translate(-108.033 -39.913)" fill="#3b5620"/>
        <path id="Trazado_817779" data-name="Trazado 817779" d="M357.557,133.706a4.351,4.351,0,0,0-.708-.445,8.069,8.069,0,0,0-.869-.455c-.35-.154-.734-.366-1.192-.521a14.477,14.477,0,0,0-1.495-.507,16.322,16.322,0,0,0-1.764-.422,18.429,18.429,0,0,0-4.143-.261,18.1,18.1,0,0,0-4.085.752,15.949,15.949,0,0,0-1.7.643,13.494,13.494,0,0,0-1.414.7,12.3,12.3,0,0,0-1.108.683,7.594,7.594,0,0,0-.794.577,4.333,4.333,0,0,0-.634.544c.042.057.956-.715,2.641-1.609a14.141,14.141,0,0,1,1.411-.658,16.476,16.476,0,0,1,1.679-.606,18.772,18.772,0,0,1,4.018-.715,19.14,19.14,0,0,1,4.075.233,17.141,17.141,0,0,1,1.744.388c.546.129,1.035.311,1.487.464,1.792.656,2.813,1.275,2.847,1.215" transform="translate(-104.36 -40.51)" fill="#263238"/>
        <path id="Trazado_817780" data-name="Trazado 817780" d="M59.765,208.727c12-9.92,13.546-26.651,11.839-41.439-.285-2.469-.225-5.1-1.579-7.177S65.8,156.774,63.672,158c-1.768,1.015-2.4,3.218-3.281,5.07a14.529,14.529,0,0,1-5.355,6.016c-1.51.946-3.419,1.6-5.045.873-2.231-1-2.722-3.934-2.907-6.4q-.515-6.886-1.032-13.772a23.039,23.039,0,0,0-1.336-7.251,7.662,7.662,0,0,0-5.219-4.774c-2.4-.466-5.182,1.12-5.481,3.569A22.846,22.846,0,0,0,34.2,144.4a2.6,2.6,0,0,1-1.317,2.561c-.959.368-2-.249-2.8-.91a32.842,32.842,0,0,1-6.6-8.4,45.584,45.584,0,0,0-6.225-8.711c-2.526-2.525-5.889-4.414-9.431-4.327S.71,127.186.1,130.72s1.7,6.9,4.131,9.531a55.154,55.154,0,0,0,12.327,9.978,4.533,4.533,0,0,1,2.081,1.9c.668,1.6-.755,3.354-2.332,4.025-1.785.76-3.792.731-5.693,1.113s-3.912,1.4-4.491,3.27c-.8,2.6,1.515,5.065,3.725,6.625a47.23,47.23,0,0,0,14.585,6.911,15.92,15.92,0,0,1,5.382,2.1c1.564,1.155,2.625,3.3,1.883,5.1s-2.962,2.547-4.888,2.348-3.707-1.09-5.57-1.625c-3.487-1-7.837-.415-9.767,2.686a7.818,7.818,0,0,0-.269,6.957,18.021,18.021,0,0,0,4.226,5.781A47.5,47.5,0,0,0,36.8,209.982c8.069,2.084,15.4,2.23,22.968-1.255" transform="translate(0 -38.515)" fill="#3b5620"/>
        <g id="Grupo_1071811" data-name="Grupo 1071811" transform="translate(0.001 86.101)" opacity="0.2">
          <g id="Grupo_1071810" data-name="Grupo 1071810">
            <g id="Grupo_1071809" data-name="Grupo 1071809" clip-path="url(#clip-path-5)">
              <path id="Trazado_817781" data-name="Trazado 817781" d="M59.765,208.727c12-9.92,13.546-26.651,11.839-41.439-.285-2.469-.225-5.1-1.579-7.177S65.8,156.774,63.672,158c-1.768,1.015-2.4,3.218-3.281,5.07a14.529,14.529,0,0,1-5.355,6.016c-1.51.946-3.419,1.6-5.045.873-2.231-1-2.722-3.934-2.907-6.4q-.515-6.886-1.032-13.772a23.039,23.039,0,0,0-1.336-7.251,7.662,7.662,0,0,0-5.219-4.774c-2.4-.466-5.182,1.12-5.481,3.569A22.846,22.846,0,0,0,34.2,144.4a2.6,2.6,0,0,1-1.317,2.561c-.959.368-2-.249-2.8-.91a32.842,32.842,0,0,1-6.6-8.4,45.584,45.584,0,0,0-6.225-8.711c-2.526-2.525-5.889-4.414-9.431-4.327S.71,127.186.1,130.72s1.7,6.9,4.131,9.531a55.154,55.154,0,0,0,12.327,9.978,4.533,4.533,0,0,1,2.081,1.9c.668,1.6-.755,3.354-2.332,4.025-1.785.76-3.792.731-5.693,1.113s-3.912,1.4-4.491,3.27c-.8,2.6,1.515,5.065,3.725,6.625a47.23,47.23,0,0,0,14.585,6.911,15.92,15.92,0,0,1,5.382,2.1c1.564,1.155,2.625,3.3,1.883,5.1s-2.962,2.547-4.888,2.348-3.707-1.09-5.57-1.625c-3.487-1-7.837-.415-9.767,2.686a7.818,7.818,0,0,0-.269,6.957,18.021,18.021,0,0,0,4.226,5.781A47.5,47.5,0,0,0,36.8,209.982c8.069,2.084,15.4,2.23,22.968-1.255" transform="translate(0 -124.616)" fill="#fff"/>
            </g>
          </g>
        </g>
        <path id="Trazado_817782" data-name="Trazado 817782" d="M62.365,220.8a108.466,108.466,0,0,0-5.67-19.963,221.175,221.175,0,0,0-10.685-23.04L42.9,171.9c-1.025-1.933-2.042-3.849-3.153-5.662a110.4,110.4,0,0,0-6.978-10.053c-2.374-3.09-4.74-5.936-6.971-8.581s-4.371-5.064-6.408-7.189a87.715,87.715,0,0,0-10.351-9.3c-1.3-1-2.34-1.74-3.05-2.234l-.81-.556a1.8,1.8,0,0,0-.285-.175,1.783,1.783,0,0,0,.258.214l.784.593c.691.517,1.709,1.281,3,2.3a92.681,92.681,0,0,1,10.227,9.386c2.018,2.134,4.13,4.562,6.352,7.21s4.568,5.5,6.928,8.593a111.735,111.735,0,0,1,6.928,10.029c1.1,1.8,2.107,3.705,3.134,5.643l3.108,5.893a226.791,226.791,0,0,1,10.7,22.978,110.328,110.328,0,0,1,5.743,19.868" transform="translate(-1.513 -39.606)" fill="#263238"/>
        <path id="Trazado_817783" data-name="Trazado 817783" d="M55.134,171.018a5.011,5.011,0,0,0,.155-1.07c.074-.691.148-1.693.221-2.934.149-2.48.238-5.911.322-9.694s.222-7.2.408-9.675c.09-1.235.173-2.235.239-2.925a4.985,4.985,0,0,0,.05-1.08A4.915,4.915,0,0,0,56.3,144.7c-.12.685-.252,1.682-.382,2.918-.269,2.471-.459,5.9-.542,9.693-.073,3.733-.139,7.111-.189,9.692-.03,1.166-.057,2.148-.077,2.936a4.915,4.915,0,0,0,.021,1.081" transform="translate(-17.031 -44.396)" fill="#263238"/>
        <path id="Trazado_817784" data-name="Trazado 817784" d="M8.642,178.325a6.908,6.908,0,0,0,1.275.048c.818.007,2,.01,3.464.06,2.925.077,6.96.326,11.4.8s8.442,1.08,11.323,1.6c1.444.249,2.605.483,3.41.64a6.759,6.759,0,0,0,1.26.2,6.775,6.775,0,0,0-1.222-.377c-.794-.21-1.949-.493-3.389-.785-2.874-.6-6.882-1.258-11.336-1.738a112.139,112.139,0,0,0-11.442-.663c-1.468-.008-2.655.037-3.474.087a6.74,6.74,0,0,0-1.269.13" transform="translate(-2.671 -55.048)" fill="#263238"/>
        <path id="Trazado_817785" data-name="Trazado 817785" d="M79.233,213.888a1.646,1.646,0,0,0,.186-.4l.448-1.189c.385-1.034.9-2.545,1.518-4.421,1.233-3.75,2.772-8.983,4.393-14.782s3.111-11.041,4.264-14.811l1.378-4.462c.148-.486.269-.887.368-1.217a1.606,1.606,0,0,0,.1-.435,1.663,1.663,0,0,0-.185.4c-.122.322-.269.713-.448,1.188-.385,1.034-.9,2.545-1.517,4.421-1.233,3.75-2.773,8.983-4.394,14.784S82.231,204,81.079,207.776c-.567,1.832-1.032,3.341-1.378,4.461l-.368,1.217a1.657,1.657,0,0,0-.1.435" transform="translate(-24.488 -53.213)" fill="#263238"/>
        <path id="Trazado_817786" data-name="Trazado 817786" d="M16.768,217.87a1.676,1.676,0,0,0,.431.138l1.255.31,4.623,1.094c3.9.925,9.278,2.263,15.217,3.751s11.334,2.779,15.257,3.623c1.962.423,3.552.749,4.655.951l1.273.226a1.63,1.63,0,0,0,.45.048,1.764,1.764,0,0,0-.432-.139l-1.255-.31-4.622-1.094c-3.9-.924-9.279-2.263-15.22-3.751S27.07,219.939,23.147,219.1c-1.962-.423-3.552-.749-4.656-.951l-1.273-.226a1.628,1.628,0,0,0-.45-.048" transform="translate(-5.183 -67.336)" fill="#263238"/>
      </g>
    </g>
    <g id="Grupo_1071833" data-name="Grupo 1071833">
      <g id="Grupo_1071832" data-name="Grupo 1071832" clip-path="url(#clip-path-2)">
        <path id="Trazado_817787" data-name="Trazado 817787" d="M102.159,57.181s2.829,72.788,3.36,118.349c.508,43.583-14.055,92.01-11.963,107.259l175.192,9.016s-8.14-112.63-5.031-148.2c2.965-33.927,2.948-90.193,2.948-90.193Z" transform="translate(-28.852 -16.508)" fill="#e0e0e0"/>
        <path id="Trazado_817788" data-name="Trazado 817788" d="M95.174,54.044s2.89,72.788,3.432,118.349c.519,43.584-7.261,96.4-5.125,111.65l169.712-5.889s-6.186-102.116-3.011-137.686c3.029-33.927,3-89.574,3-89.574Z" transform="translate(-28.777 -15.73)" fill="#ebebeb"/>
        <path id="Trazado_817789" data-name="Trazado 817789" d="M91.208,55.23s-4.271,80.139-3.713,125.7c.533,43.582,2.049,89.041,4.246,104.291l165.089,1.47s-6.365-102.115-3.1-137.686c3.116-33.927,3.1-94.3,3.1-94.3Z" transform="translate(-27.027 -16.909)" fill="#fafafa"/>
        <path id="Trazado_817790" data-name="Trazado 817790" d="M257.044,286.885,91.287,285.409l-.043-.294c-2.4-16.643-3.788-66.607-4.25-104.336-.551-45.051,3.671-124.922,3.714-125.723l.017-.326,166.3-.524v.346c0,.6-.017,60.775-3.1,94.331-3.227,35.136,3.035,136.611,3.1,137.632ZM91.886,284.724l164.422,1.463c-.415-6.8-6.207-103.255-3.074-137.368,2.956-32.2,3.091-88.941,3.1-93.92l-164.95.52c-.3,5.643-4.229,81.791-3.7,125.352.459,37.49,1.834,87.057,4.2,103.953" transform="translate(-26.872 -16.754)" fill="#263238"/>
        <rect id="Rectángulo_376638" data-name="Rectángulo 376638" width="67.948" height="65.738" transform="translate(75.321 85.855)" fill="#b7a0b4"/>
        <g id="Grupo_1071816" data-name="Grupo 1071816" transform="translate(80.589 112.138)" opacity="0.3">
          <g id="Grupo_1071815" data-name="Grupo 1071815">
            <g id="Grupo_1071814" data-name="Grupo 1071814" clip-path="url(#clip-path-7)">
              <path id="Trazado_817791" data-name="Trazado 817791" d="M116.639,196.129l18.8-33.828,15.374,21.621,9.342-11.482,13.9,23.688Z" transform="translate(-116.639 -162.301)"/>
            </g>
          </g>
        </g>
        <g id="Grupo_1071819" data-name="Grupo 1071819" transform="translate(111.529 100.669)" opacity="0.3">
          <g id="Grupo_1071818" data-name="Grupo 1071818">
            <g id="Grupo_1071817" data-name="Grupo 1071817" clip-path="url(#clip-path-8)">
              <path id="Trazado_817792" data-name="Trazado 817792" d="M171.2,150.591a4.89,4.89,0,1,1-4.89-4.89,4.89,4.89,0,0,1,4.89,4.89" transform="translate(-161.419 -145.701)"/>
            </g>
          </g>
        </g>
        <g id="Grupo_1071822" data-name="Grupo 1071822" transform="translate(80.193 90.969)" opacity="0.3">
          <g id="Grupo_1071821" data-name="Grupo 1071821">
            <g id="Grupo_1071820" data-name="Grupo 1071820" clip-path="url(#clip-path-9)">
              <path id="Trazado_817793" data-name="Trazado 817793" d="M173.873,186.842a2.117,2.117,0,0,1-.017-.269c0-.2-.009-.448-.015-.766q-.011-1.05-.032-2.959c-.017-2.607-.04-6.377-.072-11.165-.034-9.6-.083-23.275-.142-39.692l.278.277-57.4.046c-.078.068.607-.609.317-.314v7.439q0,3.695,0,7.319c0,4.831,0,9.561-.008,14.165-.011,9.207-.021,17.911-.031,25.918l-.282-.282,41.509.144,11.708.074,3.106.033.8.016a2.093,2.093,0,0,1,.283.016,1.457,1.457,0,0,1-.251.016l-.775.016-3.051.033-11.643.074-41.691.143h-.282v-.284c-.01-8.007-.02-16.711-.03-25.918,0-4.6-.006-9.334-.009-14.165q0-3.623,0-7.319,0-1.848,0-3.712V132c-.288.284.393-.406.33-.333l57.4.046h.278v.278c-.059,16.49-.108,30.224-.142,39.869-.031,4.76-.055,8.509-.072,11.1q-.022,1.874-.032,2.905c-.006.306-.012.547-.015.737a1.236,1.236,0,0,1-.016.238" transform="translate(-116.066 -131.662)"/>
            </g>
          </g>
        </g>
        <rect id="Rectángulo_376642" data-name="Rectángulo 376642" width="46.713" height="45.193" transform="translate(160.841 211.739)" fill="#b7a0b4"/>
        <g id="Grupo_1071825" data-name="Grupo 1071825" transform="translate(164.463 229.808)" opacity="0.4">
          <g id="Grupo_1071824" data-name="Grupo 1071824">
            <g id="Grupo_1071823" data-name="Grupo 1071823" clip-path="url(#clip-path-10)">
              <path id="Trazado_817794" data-name="Trazado 817794" d="M238.032,355.865l12.922-23.256,10.569,14.865,6.422-7.894,9.556,16.285Z" transform="translate(-238.032 -332.608)" fill="#3b1335"/>
            </g>
          </g>
        </g>
        <g id="Grupo_1071828" data-name="Grupo 1071828" transform="translate(185.733 221.923)" opacity="0.4">
          <g id="Grupo_1071827" data-name="Grupo 1071827">
            <g id="Grupo_1071826" data-name="Grupo 1071826" clip-path="url(#clip-path-11)">
              <path id="Trazado_817795" data-name="Trazado 817795" d="M275.541,324.558a3.362,3.362,0,1,1-3.361-3.361,3.362,3.362,0,0,1,3.361,3.361" transform="translate(-268.818 -321.197)"/>
            </g>
          </g>
        </g>
        <g id="Grupo_1071831" data-name="Grupo 1071831" transform="translate(164.191 215.255)" opacity="0.4">
          <g id="Grupo_1071830" data-name="Grupo 1071830">
            <g id="Grupo_1071829" data-name="Grupo 1071829" clip-path="url(#clip-path-12)">
              <path id="Trazado_817796" data-name="Trazado 817796" d="M277.38,349.481a1.445,1.445,0,0,1-.011-.185c0-.135-.006-.307-.01-.527q-.007-.721-.022-2.033c-.012-1.792-.028-4.385-.049-7.676-.024-6.6-.058-16-.1-27.287l.191.191-39.465.032c-.053.046.417-.419.218-.216v5.114q0,2.54,0,5.032,0,4.982-.006,9.739c-.007,6.329-.015,12.313-.021,17.818l-.194-.194,28.537.1,8.049.05,2.136.023.553.011a1.292,1.292,0,0,1,.194.011.924.924,0,0,1-.173.011l-.532.011-2.1.022-8.005.051-28.662.1h-.193v-.195c-.007-5.505-.014-11.489-.021-17.818q0-4.749-.006-9.739,0-2.491,0-5.032v-5.114c-.2.195.27-.278.227-.229l39.465.031h.192v.191c-.041,11.337-.075,20.778-.1,27.409-.021,3.272-.038,5.85-.05,7.632q-.015,1.288-.022,2c0,.211-.008.376-.01.506a.773.773,0,0,1-.011.164" transform="translate(-237.639 -311.545)"/>
            </g>
          </g>
        </g>
        <path id="Trazado_817797" data-name="Trazado 817797" d="M147.364,81.979V92.893h-.951L139.4,84.037v8.856h-1.154V81.979h.951l7.032,8.856V81.979Z" transform="translate(-42.727 -25.337)" fill="#263238"/>
        <path id="Trazado_817798" data-name="Trazado 817798" d="M164.31,91.9v1h-7.718V81.979h7.485v1h-6.331V86.86h5.644v.982h-5.644V91.9Z" transform="translate(-48.398 -25.337)" fill="#263238"/>
        <path id="Trazado_817799" data-name="Trazado 817799" d="M185.912,81.979l-3.68,10.915h-1.216l-3.2-9.309-3.212,9.309h-1.2l-3.68-10.915h1.185l3.15,9.387,3.258-9.387H178.4l3.212,9.433,3.2-9.433Z" transform="translate(-52.458 -25.337)" fill="#263238"/>
        <path id="Trazado_817800" data-name="Trazado 817800" d="M194.69,91.527l.453-.889a5.359,5.359,0,0,0,3.6,1.325c2.042,0,2.931-.857,2.931-1.934,0-2.994-6.72-1.153-6.72-5.192,0-1.606,1.247-2.994,4.023-2.994a6.164,6.164,0,0,1,3.384.967l-.39.92a5.621,5.621,0,0,0-2.994-.9c-2,0-2.885.889-2.885,1.98,0,2.994,6.721,1.186,6.721,5.162,0,1.606-1.279,2.978-4.07,2.978a5.918,5.918,0,0,1-4.054-1.419" transform="translate(-60.174 -25.296)" fill="#263238"/>
        <path id="Trazado_817801" data-name="Trazado 817801" d="M218.627,85.721c0,2.324-1.684,3.727-4.459,3.727h-2.931v3.446h-1.155V81.979h4.085c2.775,0,4.459,1.4,4.459,3.742m-1.154,0c0-1.746-1.154-2.744-3.336-2.744h-2.9v5.458h2.9c2.183,0,3.336-1,3.336-2.713" transform="translate(-64.931 -25.338)" fill="#263238"/>
        <path id="Trazado_817802" data-name="Trazado 817802" d="M231.335,89.978h-6.08l-1.31,2.916h-1.2l4.99-10.915h1.138l4.99,10.915h-1.216Zm-.42-.936-2.62-5.863-2.619,5.863Z" transform="translate(-68.844 -25.338)" fill="#263238"/>
        <path id="Trazado_817803" data-name="Trazado 817803" d="M250,85.721c0,2.324-1.684,3.727-4.459,3.727H242.61v3.446h-1.155V81.979h4.085c2.775,0,4.459,1.4,4.459,3.742m-1.154,0c0-1.746-1.154-2.744-3.336-2.744h-2.9v5.458h2.9c2.183,0,3.336-1,3.336-2.713" transform="translate(-74.627 -25.338)" fill="#263238"/>
        <path id="Trazado_817804" data-name="Trazado 817804" d="M265.154,91.9v1h-7.719V81.979h7.485v1h-6.33V86.86h5.644v.982h-5.644V91.9Z" transform="translate(-79.566 -25.337)" fill="#263238"/>
        <path id="Trazado_817805" data-name="Trazado 817805" d="M279.989,92.894l-2.5-3.508a7.785,7.785,0,0,1-.873.046H273.69v3.462h-1.155V81.979h4.085c2.775,0,4.459,1.4,4.459,3.742a3.384,3.384,0,0,1-2.494,3.43l2.666,3.742Zm-.063-7.173c0-1.746-1.154-2.744-3.336-2.744h-2.9V88.45h2.9c2.183,0,3.336-1.014,3.336-2.729" transform="translate(-84.233 -25.338)" fill="#263238"/>
        <path id="Trazado_817806" data-name="Trazado 817806" d="M252.684,105.34s-.128.014-.378.023l-1.108.032-4.264.089-15.682.261-51.737.728-51.748.621-15.682.147-4.264.022-1.108,0c-.25,0-.379-.014-.379-.014s.128-.014.378-.023l1.108-.032,4.263-.089,15.68-.262,51.748-.727,51.74-.622,15.683-.147,4.264-.021,1.109,0c.25,0,.378.014.378.014" transform="translate(-32.865 -32.553)" fill="#263238"/>
        <path id="Trazado_817807" data-name="Trazado 817807" d="M247.868,70.952s-.128.014-.378.023l-1.108.032-4.264.089-15.682.261-51.737.728-51.748.621-15.682.147L103,72.876l-1.109,0c-.25,0-.379-.014-.379-.014s.128-.014.377-.023L103,72.8l4.262-.089,15.681-.262,51.748-.727,51.74-.622,15.683-.147,4.264-.021,1.109,0c.25,0,.378.014.378.014" transform="translate(-31.376 -21.924)" fill="#263238"/>
        <path id="Trazado_817808" data-name="Trazado 817808" d="M283.506,132.839c0,.1-12.6.18-28.132.18s-28.135-.08-28.135-.18,12.594-.18,28.135-.18,28.132.08,28.132.18" transform="translate(-70.234 -41.001)" fill="#263238"/>
        <path id="Trazado_817809" data-name="Trazado 817809" d="M283.506,145.877c0,.1-12.6.18-28.132.18s-28.135-.08-28.135-.18,12.594-.18,28.135-.18,28.132.08,28.132.18" transform="translate(-70.234 -45.031)" fill="#263238"/>
        <path id="Trazado_817810" data-name="Trazado 817810" d="M283.506,158.915c0,.1-12.6.18-28.132.18s-28.135-.08-28.135-.18,12.594-.18,28.135-.18,28.132.08,28.132.18" transform="translate(-70.234 -49.061)" fill="#263238"/>
        <path id="Trazado_817811" data-name="Trazado 817811" d="M283.506,171.953c0,.1-12.6.18-28.132.18s-28.135-.08-28.135-.18,12.594-.18,28.135-.18,28.132.08,28.132.18" transform="translate(-70.234 -53.091)" fill="#263238"/>
        <path id="Trazado_817812" data-name="Trazado 817812" d="M283.506,184.991c0,.1-12.6.18-28.132.18s-28.135-.08-28.135-.18,12.594-.18,28.135-.18,28.132.08,28.132.18" transform="translate(-70.234 -57.12)" fill="#263238"/>
        <path id="Trazado_817813" data-name="Trazado 817813" d="M176.968,295.668c0,.1-12.6.18-28.132.18s-28.134-.08-28.134-.18,12.594-.18,28.134-.18,28.132.08,28.132.18" transform="translate(-37.306 -91.328)" fill="#263238"/>
        <path id="Trazado_817814" data-name="Trazado 817814" d="M176.968,311.465c0,.1-12.6.18-28.132.18s-28.134-.08-28.134-.18,12.594-.18,28.134-.18,28.132.08,28.132.18" transform="translate(-37.306 -96.21)" fill="#263238"/>
        <path id="Trazado_817815" data-name="Trazado 817815" d="M176.968,327.261c0,.1-12.6.18-28.132.18s-28.134-.08-28.134-.18,12.594-.18,28.134-.18,28.132.08,28.132.18" transform="translate(-37.306 -101.092)" fill="#263238"/>
        <path id="Trazado_817816" data-name="Trazado 817816" d="M176.968,343.058c0,.1-12.6.18-28.132.18s-28.134-.08-28.134-.18,12.594-.18,28.134-.18,28.132.08,28.132.18" transform="translate(-37.306 -105.975)" fill="#263238"/>
        <path id="Trazado_817817" data-name="Trazado 817817" d="M154.095,360.046c0,.1-7.477.18-16.7.18s-16.7-.08-16.7-.18,7.474-.18,16.7-.18,16.7.08,16.7.18" transform="translate(-37.305 -111.225)" fill="#263238"/>
        <path id="Trazado_817818" data-name="Trazado 817818" d="M257.478,198.029a7.523,7.523,0,0,1-1.188.07l-3.24.057c-2.736.032-6.516.053-10.691.053s-7.956-.02-10.691-.053l-3.24-.057a7.519,7.519,0,0,1-1.188-.07,7.522,7.522,0,0,1,1.188-.07l3.24-.057c2.735-.032,6.515-.053,10.691-.053s7.955.02,10.691.053l3.24.057a7.527,7.527,0,0,1,1.188.07" transform="translate(-70.234 -61.15)" fill="#263238"/>
        <path id="Trazado_817819" data-name="Trazado 817819" d="M252.336,279.918c0,.1-30.157.18-67.349.18s-67.355-.08-67.355-.18,30.151-.18,67.355-.18,67.349.08,67.349.18" transform="translate(-36.357 -86.46)" fill="#263238"/>
        <path id="Trazado_817820" data-name="Trazado 817820" d="M252.336,262.7c0,.1-30.157.18-67.349.18s-67.355-.08-67.355-.18,30.151-.18,67.355-.18,67.349.08,67.349.18" transform="translate(-36.357 -81.14)" fill="#263238"/>
        <path id="Trazado_817821" data-name="Trazado 817821" d="M252.336,248.135c0,.1-30.157.18-67.349.18s-67.355-.08-67.355-.18,30.151-.18,67.355-.18,67.349.08,67.349.18" transform="translate(-36.357 -76.636)" fill="#263238"/>
        <path id="Trazado_817822" data-name="Trazado 817822" d="M179.483,236.806c0,.1-14.635.18-32.683.18s-32.686-.08-32.686-.18,14.631-.18,32.686-.18,32.683.08,32.683.18" transform="translate(-35.27 -73.135)" fill="#e8505b"/>
      </g>
    </g>
    <g id="Grupo_1071838" data-name="Grupo 1071838">
      <g id="Grupo_1071837" data-name="Grupo 1071837" clip-path="url(#clip-path-2)">
        <path id="Trazado_817823" data-name="Trazado 817823" d="M181.335,209.711c5.68-1.4,9.205-8.407,6.94-13.8-1.228-2.923-3.857-5.454-3.7-8.621.105-2.157,1.523-4.047,1.851-6.181.614-4-2.589-7.445-4.064-11.209-1.523-3.889-1.186-8.212-1.168-12.388s-.433-8.666-3.135-11.85l-3.354,48.56Z" transform="translate(-53.996 -45.02)" fill="#263238"/>
        <path id="Trazado_817824" data-name="Trazado 817824" d="M122.532,130.674c-4.928,3.023-8.351,8.082-10.385,13.492s-2.8,11.206-3.4,16.955a330.272,330.272,0,0,0-1.595,45.728c18.649,2.36,37.44,4.725,56.194,3.448-3.251-21.415-5.312-42.8-2.707-64.308" transform="translate(-33.056 -40.388)" fill="#263238"/>
        <path id="Trazado_817825" data-name="Trazado 817825" d="M187.823,208.182c.006-.027.229.066.671.075a3.058,3.058,0,0,0,1.79-.593,4.146,4.146,0,0,0,1.653-2.449,6.711,6.711,0,0,0-.509-3.927c-.544-1.4-1.474-2.78-2.29-4.378a10.784,10.784,0,0,1-.975-2.616,9.288,9.288,0,0,1-.089-2.966,25.165,25.165,0,0,1,1.91-6.012,18.106,18.106,0,0,0,1.691-6.419,11.662,11.662,0,0,0-2-6.243c-1.123-1.853-2.41-3.524-3.455-5.248a22.513,22.513,0,0,1-2.541-17.264,18.422,18.422,0,0,1,.6-1.861l.185-.473a.606.606,0,0,1,.075-.156.672.672,0,0,1-.04.169c-.041.129-.091.288-.151.484-.148.42-.322,1.054-.529,1.872a23.223,23.223,0,0,0-.54,7.093,22.3,22.3,0,0,0,3.227,9.962c1.04,1.7,2.332,3.364,3.474,5.239a11.98,11.98,0,0,1,2.06,6.43,18.3,18.3,0,0,1-1.725,6.547,25.181,25.181,0,0,0-1.908,5.923,9.012,9.012,0,0,0,.07,2.858,10.536,10.536,0,0,0,.932,2.548c.79,1.579,1.718,2.981,2.26,4.418a6.882,6.882,0,0,1,.468,4.065,4.266,4.266,0,0,1-1.771,2.519,3.046,3.046,0,0,1-1.871.55,2.164,2.164,0,0,1-.5-.091.611.611,0,0,1-.164-.057" transform="translate(-56.551 -45.636)" fill="#263238"/>
        <path id="Trazado_817826" data-name="Trazado 817826" d="M255.642,233.212c-.94,1.027-1.816,1.226-2.244-.776-.945-4.415-3.294-7.466-4.485-7.848s-2.122,1.168-1.3,2.3a16.848,16.848,0,0,1,1.759,4.2,10.994,10.994,0,0,1,.491,3.616c-.037,1.059-.1,1.993-.175,2.832,0,0-.443,4.848-1.787,7.081L259.8,253.3l4.724-5.331a7.167,7.167,0,0,0,2.188-6.616c-.887-3.973-4.43-9.027-4.43-9.027-1.211-.594,1.992-7.553,3.235-9.819,1.229-2.239.678-3.761-.751-3.507-.974.173-4.944,7.019-6.122,9.29a26.514,26.514,0,0,1-3,4.921" transform="translate(-76.435 -67.679)" fill="#ffbe9d"/>
        <path id="Trazado_817827" data-name="Trazado 817827" d="M139.585,303.391c-3.431-9.929-2.462-11.376-2.97-14.928l-2.263,14.525L145.008,336l-41.618.238H68.427l7.512-42.582-7.847-9.787-.163,4.175L44.153,291.27s10.934-33.088,16.271-47.452,15.515-19.092,15.515-19.092c19.37-6.61,33.783-7,50.509-2.916a36.328,36.328,0,0,1,27.074,29.123c.033.19.066.381.1.573l6.374,30.611,25.084-40.039,14.86,11.611-15.11,27.489-12.75,23.661c-9.035,11.675-28.143,9.19-32.493-1.447" transform="translate(-13.647 -67.737)" fill="#632059"/>
        <path id="Trazado_817828" data-name="Trazado 817828" d="M95.076,271.762c-.1-.023.268-1.932.538-4.307s.35-4.318.455-4.318a23.638,23.638,0,0,1-.992,8.625" transform="translate(-29.38 -81.329)" fill="#263238"/>
        <path id="Trazado_817829" data-name="Trazado 817829" d="M173.856,268.654a1.435,1.435,0,0,1,.234.292l.612.879a13.973,13.973,0,0,1,.9,1.436c.316.58.73,1.215,1.063,1.98a24.9,24.9,0,0,1,1.085,2.5,31.063,31.063,0,0,1,.987,2.971,36.515,36.515,0,0,1,1.153,7.072,40.227,40.227,0,0,1-.272,7.16q-.12.817-.234,1.593c-.077.516-.2,1.009-.288,1.49-.176.965-.421,1.844-.631,2.65-.192.81-.456,1.518-.647,2.15s-.4,1.165-.565,1.6l-.393,1a1.469,1.469,0,0,1-.16.339,1.489,1.489,0,0,1,.092-.364l.329-1.017c.149-.439.333-.975.505-1.611s.418-1.345.593-2.154c.192-.806.422-1.683.584-2.643.085-.479.2-.97.269-1.483s.143-1.042.217-1.583a41.861,41.861,0,0,0,.241-7.1,37.759,37.759,0,0,0-1.114-7.006c-.309-1.047-.581-2.051-.946-2.952a26.162,26.162,0,0,0-1.036-2.5c-.315-.766-.71-1.4-1.008-1.991a16.207,16.207,0,0,0-.846-1.459l-.554-.913a1.476,1.476,0,0,1-.173-.333" transform="translate(-53.734 -83.034)" fill="#263238"/>
        <path id="Trazado_817830" data-name="Trazado 817830" d="M211.357,320.516a96.59,96.59,0,0,1,.261-11.8,96.959,96.959,0,0,1-.261,11.8" transform="translate(-65.296 -95.417)" fill="#263238"/>
        <path id="Trazado_817831" data-name="Trazado 817831" d="M216.739,320.177a93.285,93.285,0,0,1-4.295-10.738,92.961,92.961,0,0,1,4.295,10.738" transform="translate(-65.659 -95.639)" fill="#263238"/>
        <path id="Trazado_817832" data-name="Trazado 817832" d="M150.846,355.074a.665.665,0,0,1-.178,0l-.517-.045-.837-.085a6.744,6.744,0,0,0-1.144-.044,25.085,25.085,0,0,0-7.2,1.048c-2.986.8-6.419,2.152-10.359,3.307a29.229,29.229,0,0,1-6.332,1.2,16.793,16.793,0,0,1-6.86-.879,39.182,39.182,0,0,1-6.191-3.091,38.252,38.252,0,0,0-5.708-2.866,20.549,20.549,0,0,0-10.631-.908,20.057,20.057,0,0,0-4,1.112,21.519,21.519,0,0,0-2.836,1.345c-.737.448-1.307.8-1.67,1.078l-.426.294a.663.663,0,0,1-.153.091,15.2,15.2,0,0,1,2.178-1.584,20.321,20.321,0,0,1,2.832-1.411,19.79,19.79,0,0,1,4.025-1.176,20.621,20.621,0,0,1,10.792.847,38.082,38.082,0,0,1,5.769,2.871,39.318,39.318,0,0,0,6.136,3.057,16.53,16.53,0,0,0,6.716.866,29.225,29.225,0,0,0,6.263-1.171c3.922-1.13,7.375-2.461,10.385-3.234a24.2,24.2,0,0,1,7.273-.943,6.473,6.473,0,0,1,1.15.077l.837.12.513.081a.633.633,0,0,1,.172.039" transform="translate(-26.52 -108.826)" fill="#f5f5f5"/>
        <path id="Trazado_817833" data-name="Trazado 817833" d="M153.722,318.548a3.4,3.4,0,0,1-.567.074l-.686.063c-.269.037-.573.122-.918.193a15.721,15.721,0,0,0-5.34,2.61c-1.036.728-2.127,1.588-3.3,2.511a45.121,45.121,0,0,1-3.875,2.808,15.32,15.32,0,0,1-4.871,2.093,12.761,12.761,0,0,1-2.808.278,16.727,16.727,0,0,1-2.882-.321c-3.852-.8-7.17-2.565-10.175-4.038A35.311,35.311,0,0,0,110,321.682a14.246,14.246,0,0,0-5.932-.1,11.451,11.451,0,0,0-1.559.464,3.47,3.47,0,0,1-.542.182,3.244,3.244,0,0,1,.515-.249,9.591,9.591,0,0,1,1.554-.533,13.928,13.928,0,0,1,6.014-.014,34.612,34.612,0,0,1,8.39,3.088c3.013,1.459,6.321,3.2,10.1,3.983a16.589,16.589,0,0,0,2.818.315,12.432,12.432,0,0,0,2.73-.265,15.132,15.132,0,0,0,4.769-2.029,46.279,46.279,0,0,0,3.866-2.762c1.183-.912,2.288-1.765,3.341-2.485a15.29,15.29,0,0,1,5.453-2.537c.352-.061.663-.135.936-.162l.7-.029a3.311,3.311,0,0,1,.571,0" transform="translate(-31.517 -98.452)" fill="#f5f5f5"/>
        <path id="Trazado_817834" data-name="Trazado 817834" d="M217.042,334.456a1.443,1.443,0,0,1-.225.3,6.366,6.366,0,0,1-.751.766,9.094,9.094,0,0,1-3.49,1.812,14.908,14.908,0,0,1-5.824.353,41.212,41.212,0,0,1-6.925-1.74,33.174,33.174,0,0,0-6.889-1.587,13.746,13.746,0,0,0-5.671.661,8.834,8.834,0,0,0-3.28,2,8.063,8.063,0,0,0-.7.794,1.466,1.466,0,0,1-.246.281,1.449,1.449,0,0,1,.187-.323,6.153,6.153,0,0,1,.656-.849,8.561,8.561,0,0,1,3.293-2.145,13.672,13.672,0,0,1,5.784-.754,32.259,32.259,0,0,1,6.969,1.575,43.029,43.029,0,0,0,6.86,1.755,15.024,15.024,0,0,0,5.715-.27,9.431,9.431,0,0,0,3.468-1.674c.718-.574,1.032-.986,1.065-.956" transform="translate(-56.573 -103.226)" fill="#f5f5f5"/>
        <path id="Trazado_817835" data-name="Trazado 817835" d="M239.07,303.977c.008.01-.055.072-.185.183a3.548,3.548,0,0,1-.619.422,5.454,5.454,0,0,1-2.676.6,9.8,9.8,0,0,1-3.949-.98c-1.4-.636-2.81-1.547-4.378-2.3a9.216,9.216,0,0,0-8.5-.056,11.629,11.629,0,0,0-2.925,2.215c-.01-.008.039-.082.141-.218a5.063,5.063,0,0,1,.482-.569,8.662,8.662,0,0,1,2.185-1.654,9.562,9.562,0,0,1,3.916-1.109,9.738,9.738,0,0,1,4.86,1.065c1.6.766,3,1.682,4.365,2.321a9.892,9.892,0,0,0,3.815,1.026,5.66,5.66,0,0,0,2.606-.468c.572-.273.844-.511.867-.48" transform="translate(-66.708 -92.875)" fill="#f5f5f5"/>
        <path id="Trazado_817836" data-name="Trazado 817836" d="M252.7,279.195c.007.03-.3.108-.808.325a13.927,13.927,0,0,0-2.066,1.143,16.3,16.3,0,0,1-3.124,1.7,11.514,11.514,0,0,1-4.3.734,11.05,11.05,0,0,1-4.262-.943,11.447,11.447,0,0,1-2.99-1.939,10.445,10.445,0,0,1-1.59-1.8,5.518,5.518,0,0,1-.347-.551c-.073-.13-.106-.2-.1-.207a18.487,18.487,0,0,0,2.2,2.362,11.84,11.84,0,0,0,2.954,1.827,11.093,11.093,0,0,0,4.138.888,11.6,11.6,0,0,0,4.178-.685,17.472,17.472,0,0,0,3.106-1.6,11.49,11.49,0,0,1,2.149-1.058,2.613,2.613,0,0,1,.858-.193" transform="translate(-72.051 -85.816)" fill="#f5f5f5"/>
        <path id="Trazado_817837" data-name="Trazado 817837" d="M200.814,297.7c-.008.034-.282-.057-.785-.048a4.68,4.68,0,0,0-2.029.542,15.954,15.954,0,0,0-2.589,1.839,9.777,9.777,0,0,1-3.509,1.856,10.5,10.5,0,0,1-7.092-.455,9.123,9.123,0,0,1-1.881-1.106,3.421,3.421,0,0,1-.584-.547,15.252,15.252,0,0,0,2.564,1.418,10.682,10.682,0,0,0,6.893.345c2.71-.685,4.344-2.848,6.088-3.578a4.465,4.465,0,0,1,2.143-.453,2.648,2.648,0,0,1,.589.1c.13.044.195.073.191.085" transform="translate(-56.358 -91.951)" fill="#f5f5f5"/>
        <path id="Trazado_817838" data-name="Trazado 817838" d="M195.1,271.7a9.85,9.85,0,0,0-2.589-1.078,7.534,7.534,0,0,0-3.009-.062,6.939,6.939,0,0,0-3.308,1.53A28.838,28.838,0,0,0,183.7,274.9a5.768,5.768,0,0,1-2.549,1.811,3.215,3.215,0,0,1-2.108.046,1.873,1.873,0,0,1-.513-.266c-.105-.08-.155-.126-.149-.136.019-.031.242.14.7.269a3.242,3.242,0,0,0,1.982-.153,5.688,5.688,0,0,0,2.384-1.789,25.759,25.759,0,0,1,2.507-2.863,7.092,7.092,0,0,1,3.486-1.585,7.46,7.46,0,0,1,3.125.142,6.5,6.5,0,0,1,1.93.841,2.5,2.5,0,0,1,.6.485" transform="translate(-55.132 -83.489)" fill="#f5f5f5"/>
        <path id="Trazado_817839" data-name="Trazado 817839" d="M123.13,294.342c.012-.038.576.182,1.64.348a12.5,12.5,0,0,0,4.522-.2,22.948,22.948,0,0,0,6.257-2.5c2.242-1.219,4.594-2.789,7.287-4.061a23.649,23.649,0,0,1,8.069-2.155,24.483,24.483,0,0,1,6.814.377,22.129,22.129,0,0,1,4.4,1.354c.506.2.875.408,1.132.53a1.99,1.99,0,0,1,.381.214c-.015.032-.558-.226-1.566-.614a24.386,24.386,0,0,0-4.392-1.234,25.039,25.039,0,0,0-6.737-.3,23.776,23.776,0,0,0-7.946,2.151c-2.659,1.254-5.015,2.813-7.281,4.025a22.538,22.538,0,0,1-6.365,2.459,12.011,12.011,0,0,1-4.6.085,7.566,7.566,0,0,1-1.212-.321,1.973,1.973,0,0,1-.4-.166" transform="translate(-38.056 -88.3)" fill="#f5f5f5"/>
        <path id="Trazado_817840" data-name="Trazado 817840" d="M111.645,248.462a2.176,2.176,0,0,1-.387.243,7.1,7.1,0,0,1-1.207.514,10.179,10.179,0,0,1-4.792.228,15.813,15.813,0,0,1-3.207-.916,33.97,33.97,0,0,1-3.439-1.658,37.4,37.4,0,0,0-7.85-3.631,21.837,21.837,0,0,0-4.4-.793c-.719-.086-1.431-.063-2.127-.088-.694.035-1.378.031-2.038.113a24.268,24.268,0,0,0-6.842,1.673,24.664,24.664,0,0,0-4.208,2.239c-.47.312-.813.587-1.06.754a2.18,2.18,0,0,1-.383.248,2.142,2.142,0,0,1,.338-.305c.234-.186.564-.479,1.025-.812a22.514,22.514,0,0,1,4.19-2.359,23.839,23.839,0,0,1,6.908-1.768c.669-.087,1.362-.088,2.067-.126.705.021,1.428,0,2.158.079a21.831,21.831,0,0,1,4.467.8,36.67,36.67,0,0,1,7.91,3.685,34.783,34.783,0,0,0,3.393,1.673,15.9,15.9,0,0,0,3.139.942,10.431,10.431,0,0,0,4.707-.111,16.721,16.721,0,0,0,1.634-.623" transform="translate(-21.545 -74.801)" fill="#f5f5f5"/>
        <path id="Trazado_817841" data-name="Trazado 817841" d="M187.269,251.46c.008.01-.067.077-.218.2a3.485,3.485,0,0,1-.721.433,5.622,5.622,0,0,1-3.047.417,9.937,9.937,0,0,1-4.256-1.649c-1.459-.92-2.888-2.158-4.556-3.171a12.077,12.077,0,0,0-5.16-1.7,13.124,13.124,0,0,0-4.452.341,16.355,16.355,0,0,0-3.809,1.63c-.007-.01.07-.075.224-.188a6.765,6.765,0,0,1,.694-.466,11.352,11.352,0,0,1,2.825-1.222,12.876,12.876,0,0,1,4.548-.425,12.139,12.139,0,0,1,5.315,1.723c1.707,1.037,3.126,2.283,4.55,3.2a9.952,9.952,0,0,0,4.109,1.675,5.756,5.756,0,0,0,2.959-.294c.661-.27.971-.533.994-.5" transform="translate(-49.776 -75.91)" fill="#f5f5f5"/>
        <path id="Trazado_817842" data-name="Trazado 817842" d="M83.582,277.008a5.654,5.654,0,0,1-1.027-.078l-2.782-.346-4.119-.558c-1.549-.211-3.251-.441-5.044-.515a18.776,18.776,0,0,0-5.013.4,12.635,12.635,0,0,0-3.8,1.527,11.6,11.6,0,0,0-2.816,2.521c-.01-.007.033-.088.126-.237a5.3,5.3,0,0,1,.446-.624,8.976,8.976,0,0,1,2.108-1.875,12.356,12.356,0,0,1,3.854-1.635,18.327,18.327,0,0,1,5.1-.433,47.753,47.753,0,0,1,5.077.547l4.109.635,2.766.459a5.584,5.584,0,0,1,1.007.217" transform="translate(-18.23 -85.035)" fill="#f5f5f5"/>
        <path id="Trazado_817843" data-name="Trazado 817843" d="M178.623,177.475a3.93,3.93,0,0,1,.634,1.348,8.909,8.909,0,0,1,.1,4.054c-.267,1.708-1.023,3.625-1.425,5.825a9.029,9.029,0,0,0,0,3.459,29.737,29.737,0,0,0,1.13,3.606,10.374,10.374,0,0,1,.7,3.783,11.313,11.313,0,0,1-.808,3.491c-.815,2.116-1.714,3.954-1.828,5.655a5.935,5.935,0,0,0,.73,3.837,5.856,5.856,0,0,0,.985,1.081,1.546,1.546,0,0,1-.329-.2,3.64,3.64,0,0,1-.772-.8,5.928,5.928,0,0,1-.868-3.938,10.348,10.348,0,0,1,.622-2.751c.334-.955.763-1.941,1.15-3a11.159,11.159,0,0,0,.766-3.389,10.141,10.141,0,0,0-.692-3.655,29.062,29.062,0,0,1-1.134-3.653,9.258,9.258,0,0,1,.019-3.585c.432-2.246,1.209-4.14,1.5-5.811a9.166,9.166,0,0,0,.017-3.971,10.554,10.554,0,0,0-.5-1.385" transform="translate(-54.657 -54.853)" fill="#455a64"/>
        <path id="Trazado_817844" data-name="Trazado 817844" d="M142.025,202.191c1.213-6.761,2.612-13.857,2.612-13.857s8.97.088,12.778-10.964c3.632-10.541,6.256-35.9,6.256-35.9a33.181,33.181,0,0,0-37.814,1.928l-8.941,55.077c-1.038,6.394,3.633,12.379,10.488,13.438,6.923,1.07,13.465-3.283,14.621-9.724" transform="translate(-36.091 -42.18)" fill="#ffbe9d"/>
        <path id="Trazado_817845" data-name="Trazado 817845" d="M173.677,170.484a1.481,1.481,0,0,1-1.665,1.224,1.417,1.417,0,0,1-1.272-1.579A1.482,1.482,0,0,1,172.4,168.9a1.417,1.417,0,0,1,1.273,1.581" transform="translate(-52.767 -52.2)" fill="#263238"/>
        <path id="Trazado_817846" data-name="Trazado 817846" d="M176.264,168.5c-.214.158-1.175-.854-2.745-1.126-1.564-.294-2.858.31-2.994.088-.068-.1.175-.41.742-.687a4.057,4.057,0,0,1,2.438-.306,3.9,3.9,0,0,1,2.143,1.134c.418.455.52.828.417.9" transform="translate(-52.701 -51.43)" fill="#263238"/>
        <path id="Trazado_817847" data-name="Trazado 817847" d="M150.357,166.79a1.481,1.481,0,0,1-1.665,1.224,1.416,1.416,0,0,1-1.272-1.579,1.482,1.482,0,0,1,1.664-1.225,1.418,1.418,0,0,1,1.273,1.581" transform="translate(-45.56 -51.058)" fill="#263238"/>
        <path id="Trazado_817848" data-name="Trazado 817848" d="M152.42,165.148c-.214.158-1.177-.854-2.745-1.126-1.564-.294-2.858.31-3,.088-.068-.1.175-.41.742-.687a4.059,4.059,0,0,1,2.438-.306A3.9,3.9,0,0,1,152,164.251c.417.455.52.828.417.9" transform="translate(-45.331 -50.395)" fill="#263238"/>
        <path id="Trazado_817849" data-name="Trazado 817849" d="M160.268,178.476a10.559,10.559,0,0,1,2.63-.011c.408.029.8.017.917-.245a2.071,2.071,0,0,0-.058-1.235q-.309-1.554-.647-3.26c-.881-4.634-1.443-8.416-1.256-8.449s1.053,3.694,1.933,8.328c.207,1.141.406,2.229.594,3.269a2.357,2.357,0,0,1-.069,1.609,1.02,1.02,0,0,1-.762.47,2.771,2.771,0,0,1-.7-.025,10.354,10.354,0,0,1-2.584-.452" transform="translate(-49.535 -51.082)" fill="#263238"/>
        <path id="Trazado_817850" data-name="Trazado 817850" d="M150.612,208.516a29.371,29.371,0,0,1-14.513-6.744s2.319,8.461,13.886,9.4Z" transform="translate(-42.065 -62.362)" fill="#eb996e"/>
        <path id="Trazado_817851" data-name="Trazado 817851" d="M156.162,189.013a2.87,2.87,0,0,0-2.35-1.5,2.62,2.62,0,0,0-1.951.642,1.662,1.662,0,0,0-.454,1.849,1.928,1.928,0,0,0,1.966.882,6.024,6.024,0,0,0,2.217-.844,1.774,1.774,0,0,0,.53-.385.534.534,0,0,0,.1-.585" transform="translate(-46.758 -57.954)" fill="#eb996e"/>
        <path id="Trazado_817852" data-name="Trazado 817852" d="M153.106,184.774c.258.03-.039,1.734,1.206,3.2s3.091,1.6,3.063,1.839c0,.111-.463.259-1.233.145a4.3,4.3,0,0,1-2.574-1.438,3.752,3.752,0,0,1-.9-2.664c.06-.723.325-1.112.439-1.081" transform="translate(-47.182 -57.108)" fill="#263238"/>
        <path id="Trazado_817853" data-name="Trazado 817853" d="M141.046,132.07c3.037,6.7,12.884,14.857,20.488,17.75-.691-1.383-4.965-5.272-5.657-6.654,3.068,3.335,7.5,7.859,12.19,8.99a2.928,2.928,0,0,0,1.674.053,2.234,2.234,0,0,0,1.164-1.627,48.12,48.12,0,0,0,1.606-10.343,11.577,11.577,0,0,0-2.715-8.106c-2.592-2.913-6.823-4.307-10.893-5.175a26.4,26.4,0,0,0-10.355-.542c-3.368.648-6.509,2.59-7.521,5.444" transform="translate(-43.588 -38.976)" fill="#263238"/>
        <path id="Trazado_817854" data-name="Trazado 817854" d="M114.811,157.583a65.564,65.564,0,0,1,.293-7.8c.767-5.918,2.612-27.435,22.473-21.9l-2.114,5.511s1.526,13.849-8.669,21.285c0,0,.044,13.821-7.016,18.809,0,0-4.924-9.373-4.966-15.909" transform="translate(-35.484 -39.248)" fill="#263238"/>
        <path id="Trazado_817855" data-name="Trazado 817855" d="M129.386,165.488a6.889,6.889,0,0,0-3.7-.41,4.807,4.807,0,0,0-3.108,1.959,5.022,5.022,0,0,0-.671,3.629,8.5,8.5,0,0,0,1.532,3.423,5.772,5.772,0,0,0,1.949,1.854,2.752,2.752,0,0,0,2.6.053" transform="translate(-37.652 -50.991)" fill="#ffbe9d"/>
        <path id="Trazado_817856" data-name="Trazado 817856" d="M128.57,173.494c.131.07-.527.712-1.586.217a2.427,2.427,0,0,1-1.163-1.441,5.489,5.489,0,0,1-.25-2.125,3.226,3.226,0,0,1,.891-2.05,2.144,2.144,0,0,1,1.764-.662c1.148.175,1.363,1.03,1.228,1.031-.107.076-.479-.41-1.26-.362a2.082,2.082,0,0,0-1.681,2.125c-.084,1.275.195,2.5.81,2.907.63.475,1.186.245,1.245.359" transform="translate(-38.806 -51.744)" fill="#eb996e"/>
        <path id="Trazado_817857" data-name="Trazado 817857" d="M121.374,183.845c-1.825.728-2.543,3.027-2.26,4.972s1.3,3.692,1.979,5.535,1,4.023-.05,5.685c-.846,1.344-2.452,2.127-3.11,3.571-1.176,2.581,1.234,5.266,2.069,7.976a7.311,7.311,0,0,1-13.884,4.578c-1.942-5.523,3.043-11.537,1.64-17.22" transform="translate(-32.658 -56.822)" fill="#263238"/>
        <path id="Trazado_817858" data-name="Trazado 817858" d="M116.878,131.679c-5.255,4.2-11.388,14.181-11.832,20.9-.284,4.285.519,8.856-1.42,12.687-1.1,2.173-2.963,3.839-4.539,5.695s-2.94,4.152-2.692,6.574c.35,3.417,3.742,5.872,4.294,9.263.33,2.026-.408,4.049-.864,6.05s-.56,4.322.784,5.875c2.154,2.491,8.222,8.123,9.857,5.263s-.278-13.432-.526-16.716a158.661,158.661,0,0,1,4.629-51.677" transform="translate(-29.784 -40.699)" fill="#263238"/>
        <path id="Trazado_817859" data-name="Trazado 817859" d="M97.731,194.7a4.085,4.085,0,0,0,.754-.1,2.463,2.463,0,0,0,.807-.422,3.244,3.244,0,0,0,.783-.966,3.824,3.824,0,0,0,.442-1.489,3.607,3.607,0,0,0-.359-1.8,9.089,9.089,0,0,0-3.088-3.309c-.69-.5-1.436-1.014-2.163-1.621a7.994,7.994,0,0,1-1.939-2.232,5.6,5.6,0,0,1-.547-1.481,6.21,6.21,0,0,1-.095-1.624,8.661,8.661,0,0,1,.974-3.214c1.034-2.087,2.847-3.744,4.53-5.518a18.063,18.063,0,0,0,2.328-2.906,11.2,11.2,0,0,0,1.39-3.535,31.138,31.138,0,0,0,.3-7.575c-.046-1.235-.084-2.452-.05-3.647.021-.6.058-1.189.135-1.771.034-.291.059-.581.1-.868s.108-.567.162-.848a22.582,22.582,0,0,1,5.438-10.687,24.315,24.315,0,0,1,3.466-3.1c.57-.379,1.092-.746,1.6-1.04.517-.278.973-.561,1.41-.763l1.165-.529c.343-.14.643-.235.88-.322l.544-.187a.749.749,0,0,1,.189-.051.858.858,0,0,1-.177.086l-.531.219c-.233.1-.526.2-.864.352l-1.143.556c-.43.21-.878.5-1.385.784-.5.3-1.01.673-1.569,1.056a24.7,24.7,0,0,0-3.4,3.106,22.5,22.5,0,0,0-5.3,10.579q-.078.415-.156.835-.048.425-.1.855c-.074.571-.108,1.154-.128,1.744-.03,1.181.01,2.391.059,3.624a31.206,31.206,0,0,1-.3,7.664,11.508,11.508,0,0,1-1.437,3.647,18.347,18.347,0,0,1-2.376,2.96c-1.7,1.789-3.483,3.409-4.492,5.428a8.377,8.377,0,0,0-.952,3.088,5.9,5.9,0,0,0,.081,1.538,5.292,5.292,0,0,0,.506,1.4,7.747,7.747,0,0,0,1.857,2.162c.708.6,1.444,1.114,2.134,1.629a9.225,9.225,0,0,1,3.12,3.431,3.77,3.77,0,0,1,.345,1.894,3.933,3.933,0,0,1-.491,1.543,3.3,3.3,0,0,1-.839.982,2.461,2.461,0,0,1-.854.408,1.848,1.848,0,0,1-.578.052.783.783,0,0,1-.2-.023" transform="translate(-28.531 -41.137)" fill="#263238"/>
        <path id="Trazado_817860" data-name="Trazado 817860" d="M109.307,202.986a1,1,0,0,1-.22-.061,1.606,1.606,0,0,1-.557-.373,2.891,2.891,0,0,1-.653-2.429c.136-1.155,1.018-2.276,1.728-3.65a5.46,5.46,0,0,0,.582-2.383,7.7,7.7,0,0,0-.532-2.716,15.632,15.632,0,0,0-1.416-2.734c-.573-.91-1.257-1.8-1.911-2.775a17.641,17.641,0,0,1-1.765-3.182,7.115,7.115,0,0,1-.524-3.832,7.414,7.414,0,0,1,1.835-3.625c.9-1.061,1.957-1.991,2.944-3.009a12.864,12.864,0,0,0,2.485-3.475,15.781,15.781,0,0,0,1.241-4.234,59.12,59.12,0,0,0,.372-8.788c0-1.428.046-2.836.164-4.21q.053-.515.105-1.025l.169-1.006a16.2,16.2,0,0,1,.428-1.957,25.191,25.191,0,0,1,7.187-11.812,27.193,27.193,0,0,1,4.3-3.212c.7-.37,1.335-.743,1.951-1.022.624-.263,1.179-.54,1.705-.72l1.4-.477c.41-.12.765-.194,1.048-.267l.647-.151a1.1,1.1,0,0,1,.222-.04,1.053,1.053,0,0,1-.214.076l-.638.186c-.278.083-.629.169-1.034.3l-1.38.506c-.52.189-1.066.475-1.682.743-.607.287-1.234.665-1.921,1.041a27.41,27.41,0,0,0-4.228,3.225,25.105,25.105,0,0,0-7.041,11.711,16.04,16.04,0,0,0-.415,1.929q-.081.493-.164.991-.05.5-.1,1.013c-.113,1.36-.151,2.757-.154,4.181a58.771,58.771,0,0,1-.368,8.843,16.083,16.083,0,0,1-1.274,4.331,13.174,13.174,0,0,1-2.555,3.567c-1,1.027-2.056,1.953-2.934,2.985a7.084,7.084,0,0,0-1.77,3.456,6.815,6.815,0,0,0,.491,3.661,17.434,17.434,0,0,0,1.72,3.133c.641.965,1.322,1.867,1.9,2.793a15.838,15.838,0,0,1,1.42,2.793,7.87,7.87,0,0,1,.522,2.809,5.659,5.659,0,0,1-.631,2.469c-.746,1.4-1.622,2.481-1.77,3.581a2.843,2.843,0,0,0,.567,2.357,2.028,2.028,0,0,0,.724.485" transform="translate(-32.13 -40.124)" fill="#455a64"/>
        <path id="Trazado_817861" data-name="Trazado 817861" d="M171.318,153.2a1.315,1.315,0,0,1-.229-.281l-.6-.844-2.141-3.142-6.964-10.427a26.842,26.842,0,0,0-4.442-5.2,12.93,12.93,0,0,0-4.838-2.679,9.5,9.5,0,0,0-3.719-.343c-.884.108-1.357.274-1.367.237a1.347,1.347,0,0,1,.337-.133,6.36,6.36,0,0,1,1.011-.243,9.14,9.14,0,0,1,3.806.237,12.9,12.9,0,0,1,4.986,2.673,26.277,26.277,0,0,1,4.522,5.252c2.731,4.074,5.132,7.8,6.88,10.49l2.046,3.2.542.882a1.44,1.44,0,0,1,.169.321" transform="translate(-45.44 -40.192)" fill="#455a64"/>
        <path id="Trazado_817862" data-name="Trazado 817862" d="M139.721,224.049l8.924,38.364,7.831-1.381L150.2,222.253Z" transform="translate(-43.184 -68.693)" fill="#263238"/>
        <path id="Trazado_817863" data-name="Trazado 817863" d="M146.811,211.49c2.561-.844,3.307-5.342,3.307-8.038,0-3.645-3.221-5.462-5.893-5.82a6.744,6.744,0,0,0-6.7,3.566,7.163,7.163,0,0,0,.86,7.6,7.641,7.641,0,0,0,7.261,2.562" transform="translate(-42.285 -61.067)" fill="#263238"/>
        <path id="Trazado_817864" data-name="Trazado 817864" d="M131.284,213.632l2.043,15.882,23.968-5.108-4.2-14.162Z" transform="translate(-40.576 -64.981)" fill="#a9b3a0"/>
        <g id="Grupo_1071836" data-name="Grupo 1071836" transform="translate(96.537 149.201)" opacity="0.4">
          <g id="Grupo_1071835" data-name="Grupo 1071835">
            <g id="Grupo_1071834" data-name="Grupo 1071834" clip-path="url(#clip-path-14)">
              <path id="Trazado_817865" data-name="Trazado 817865" d="M156.87,215.943l-17.149,2.288,1.805,6.518,17.033-3.109Z" transform="translate(-139.721 -215.943)" fill="#fafafa"/>
            </g>
          </g>
        </g>
        <path id="Trazado_817866" data-name="Trazado 817866" d="M150.085,206.616a9.759,9.759,0,0,1-1.937.359c-1.2.167-2.876.347-4.727.467s-3.533.155-4.749.144a9.811,9.811,0,0,1-1.967-.107,11.69,11.69,0,0,1,1.962-.147c1.212-.055,2.885-.131,4.73-.249s3.514-.259,4.722-.361a11.743,11.743,0,0,1,1.965-.106" transform="translate(-42.252 -63.854)" fill="#fafafa"/>
        <path id="Trazado_817867" data-name="Trazado 817867" d="M142.405,235.452l9.868-2.1v.97l-9.7,1.864Z" transform="translate(-44.014 -72.122)" fill="#263238"/>
        <path id="Trazado_817868" data-name="Trazado 817868" d="M119.2,257.192l4.255-2.237s7.07-15.028,9.024-15.817c1.609-.65,10.741-3.387,13.924-4.336a1.155,1.155,0,0,1,.713,2.2l-10.627,3.756.218.882,10.816-3.2c1.123-.256,2.365,1.263-1.049,2.666l-8.91,3.117.174.56,9.531-1.558c.482-.079,1.769-.22,1.926.243,0,0,.908.974-1.594,2.106-.859.389-8.871,2.588-8.871,2.588l.527.618,8.76-.777a1.222,1.222,0,0,1,.361,2.413l-9.026,1.908-4.871,7.184a8.15,8.15,0,0,1-4.331,3.211l-8.784,2.726Z" transform="translate(-36.843 -72.556)" fill="#ffbe9d"/>
        <path id="Trazado_817869" data-name="Trazado 817869" d="M148.311,234.822a1.238,1.238,0,0,1-.309.134l-.907.317-3.349,1.1-4.981,1.591-2.945.928-.773.243-.391.122a1.42,1.42,0,0,0-.352.139,4.882,4.882,0,0,0-1.11,1.154,48.708,48.708,0,0,0-3.28,5.466c-.925,1.735-1.723,3.317-2.387,4.649-.64,1.3-1.168,2.364-1.561,3.161l-.432.857a1.209,1.209,0,0,1-.171.29,1.174,1.174,0,0,1,.106-.32l.37-.885c.331-.765.825-1.865,1.459-3.213s1.412-2.945,2.324-4.693a45.778,45.778,0,0,1,3.285-5.527,5.055,5.055,0,0,1,1.219-1.249,1.734,1.734,0,0,1,.413-.166l.393-.121.774-.24,2.954-.909,5.008-1.519,3.386-.994.926-.253a1.2,1.2,0,0,1,.33-.065" transform="translate(-38.746 -72.576)" fill="#eb996e"/>
        <path id="Trazado_817870" data-name="Trazado 817870" d="M47.673,319.171h0A15.852,15.852,0,0,0,70.938,317.7l37.313-46.018-13.27-16.83L48.189,295.781a15.852,15.852,0,0,0-.515,23.391" transform="translate(-13.22 -78.767)" fill="#632059"/>
        <path id="Trazado_817871" data-name="Trazado 817871" d="M74.966,315.683s.05-.081.162-.229l.5-.653,1.956-2.505,7.328-9.29,25.038-31.554v.218l-9.195-11.655-4.077-5.172.258.023c-13.633,11.992-25.514,22.955-34.181,30.7-4.325,3.883-7.824,6.987-10.253,9.108l-2.8,2.429-.732.623c-.167.139-.257.2-.257.2s.075-.081.234-.229l.71-.648,2.757-2.478,10.179-9.189c8.623-7.8,20.474-18.79,34.107-30.793l.142-.124.117.149,4.079,5.172,9.189,11.66.086.11-.087.108L85.09,303.148l-7.41,9.225-2,2.468-.524.634c-.12.142-.187.209-.187.209" transform="translate(-15.055 -78.651)" fill="#263238"/>
        <path id="Trazado_817872" data-name="Trazado 817872" d="M78.4,332.229a3.534,3.534,0,0,1-.939,1.124,6.149,6.149,0,0,1-3.754,1.285,8.944,8.944,0,0,1-2.757-.333,15.718,15.718,0,0,1-2.934-1.218c-1.984-1.013-4-2.44-6.42-3.207a16.841,16.841,0,0,0-7.059-.665,17.839,17.839,0,0,0-5.583,1.638,17.256,17.256,0,0,0-3.323,2.12c-.711.6-1.088.965-1.11.942a1.533,1.533,0,0,1,.247-.286c.175-.174.416-.453.772-.762a15.766,15.766,0,0,1,3.3-2.241,17.578,17.578,0,0,1,5.656-1.74,16.892,16.892,0,0,1,7.211.652c2.489.792,4.512,2.242,6.463,3.256a15.855,15.855,0,0,0,2.863,1.225,8.856,8.856,0,0,0,2.667.366,6.18,6.18,0,0,0,3.674-1.141,8.571,8.571,0,0,0,1.026-1.014" transform="translate(-13.76 -101.61)" fill="#f5f5f5"/>
        <path id="Trazado_817873" data-name="Trazado 817873" d="M105.834,297.607a1.276,1.276,0,0,1-.275.22,6.936,6.936,0,0,1-.864.523,9.693,9.693,0,0,1-3.556,1.049,9.941,9.941,0,0,1-5.393-1c-1.892-.9-3.675-2.342-5.72-3.512a18.173,18.173,0,0,0-6.257-2.116,18.873,18.873,0,0,0-5.414,0,18.663,18.663,0,0,0-3.561.872c-.818.291-1.261.484-1.275.454a1.311,1.311,0,0,1,.307-.171c.209-.095.507-.263.918-.414a16.679,16.679,0,0,1,3.571-.991,18.391,18.391,0,0,1,5.5-.075,18.091,18.091,0,0,1,6.388,2.132c2.083,1.195,3.848,2.637,5.688,3.527a9.849,9.849,0,0,0,5.225,1.047,10.191,10.191,0,0,0,3.517-.921c.784-.368,1.181-.647,1.2-.618" transform="translate(-22.723 -90.333)" fill="#f5f5f5"/>
        <path id="Trazado_817874" data-name="Trazado 817874" d="M268.327,241.357a3.475,3.475,0,0,1-.2.81c-.158.513-.408,1.249-.754,2.143s-.8,1.948-1.35,3.091a5.043,5.043,0,0,1-1.131,1.7,1.456,1.456,0,0,1-2.142-.158,2.165,2.165,0,0,1-.488-1.061,2.954,2.954,0,0,1,.07-1.11,11.124,11.124,0,0,1,.747-1.872l1.417-3.05.984-2.044a3.721,3.721,0,0,1,.406-.729,3.709,3.709,0,0,1-.278.787l-.88,2.09-1.347,3.082a11.37,11.37,0,0,0-.706,1.818,2.639,2.639,0,0,0-.06.974,1.815,1.815,0,0,0,.406.88,1.169,1.169,0,0,0,.8.43,1.184,1.184,0,0,0,.839-.307,4.838,4.838,0,0,0,1.059-1.576c.567-1.127,1.036-2.163,1.412-3.04s.66-1.6.858-2.094a4.022,4.022,0,0,1,.336-.763" transform="translate(-81.049 -73.893)" fill="#eb996e"/>
        <path id="Trazado_817875" data-name="Trazado 817875" d="M264.43,253.054c-.015.05-.473-.122-1.27-.155a5.072,5.072,0,0,0-3.023.846l-.288.195.021-.35a15.452,15.452,0,0,0,0-1.942,15.8,15.8,0,0,0-.965-4.461c-.409-1.1-.767-1.745-.714-1.775a5.965,5.965,0,0,1,.95,1.68,13.671,13.671,0,0,1,1.088,4.533,13.89,13.89,0,0,1-.012,1.991l-.267-.155a4.961,4.961,0,0,1,3.23-.775,2.667,2.667,0,0,1,1.254.37" transform="translate(-79.797 -75.85)" fill="#eb996e"/>
        <path id="Trazado_817876" data-name="Trazado 817876" d="M272.155,246.465a2.435,2.435,0,0,1-.207.643c-.155.4-.389.985-.686,1.7l-.49,1.166a6.461,6.461,0,0,1-.683,1.317,2.142,2.142,0,0,1-1.425.915,1.4,1.4,0,0,1-.931-.182,1.478,1.478,0,0,1-.611-.757,3.472,3.472,0,0,1-.075-1.8,9.814,9.814,0,0,1,.433-1.571,22.3,22.3,0,0,1,1.128-2.487l.843-1.624a2.65,2.65,0,0,1,.339-.583,13.044,13.044,0,0,1-.953,2.318c-.321.7-.713,1.533-1.045,2.487a10.079,10.079,0,0,0-.4,1.523,3.207,3.207,0,0,0,.064,1.606,1.057,1.057,0,0,0,1.16.717,1.822,1.822,0,0,0,1.2-.763,6.6,6.6,0,0,0,.676-1.239l.53-1.148c.327-.7.6-1.265.791-1.652a2.436,2.436,0,0,1,.334-.586" transform="translate(-82.512 -75.167)" fill="#eb996e"/>
      </g>
    </g>
  </g>
</svg>
