<svg xmlns="http://www.w3.org/2000/svg" xmlns:xlink="http://www.w3.org/1999/xlink" width="505" height="361" viewBox="0 0 505 361">
  <defs>
    <clipPath id="clip-path">
      <rect id="Rectángulo_376088" data-name="Rectángulo 376088" width="245.675" height="245.675" fill="none"/>
    </clipPath>
    <clipPath id="clip-path-3">
      <rect id="Rectángulo_376082" data-name="Rectángulo 376082" width="81.492" height="122.837" fill="#3b5620"/>
    </clipPath>
    <clipPath id="clip-path-4">
      <rect id="Rectángulo_376083" data-name="Rectángulo 376083" width="115.274" height="92.804" fill="#65cb00"/>
    </clipPath>
    <clipPath id="clip-path-5">
      <rect id="Rectángulo_376084" data-name="Rectángulo 376084" width="122.837" height="223.035" fill="#6bbb1b"/>
    </clipPath>
    <clipPath id="clip-path-6">
      <rect id="Rectángulo_376085" data-name="Rectángulo 376085" width="111.153" height="122.837" fill="#dbf9bd"/>
    </clipPath>
    <clipPath id="clip-path-7">
      <rect id="Rectángulo_376086" data-name="Rectángulo 376086" width="122.837" height="158.661" fill="#632059"/>
    </clipPath>
  </defs>
  <g id="Grupo_1072684" data-name="Grupo 1072684" transform="translate(8082 3757.496)">
    <g id="Grupo_1070930" data-name="Grupo 1070930" transform="translate(-7935.876 -3710.565)" style="isolation: isolate">
      <g id="Grupo_1070929" data-name="Grupo 1070929" clip-path="url(#clip-path)">
        <g id="Grupo_1070928" data-name="Grupo 1070928">
          <g id="Grupo_1070927" data-name="Grupo 1070927" clip-path="url(#clip-path)">
            <g id="Grupo_1070914" data-name="Grupo 1070914" transform="translate(42.36)" opacity="0.38">
              <g id="Grupo_1070913" data-name="Grupo 1070913">
                <g id="Grupo_1070912" data-name="Grupo 1070912" clip-path="url(#clip-path-3)" style="isolation: isolate">
                  <path id="Trazado_815790" data-name="Trazado 815790" d="M115.921.012c-.338,0-.675-.012-1.014-.012A122.356,122.356,0,0,0,34.429,30.034l80.478,92.8Z" transform="translate(-34.429)" fill="#3b5620"/>
                </g>
              </g>
            </g>
            <g id="Grupo_1070917" data-name="Grupo 1070917" transform="translate(7.563 30.034)" opacity="0.38">
              <g id="Grupo_1070916" data-name="Grupo 1070916">
                <g id="Grupo_1070915" data-name="Grupo 1070915" clip-path="url(#clip-path-4)">
                  <path id="Trazado_815791" data-name="Trazado 815791" d="M40.944,24.411a123.056,123.056,0,0,0-34.8,50.28l115.275,42.523Z" transform="translate(-6.147 -24.411)" fill="#65cb00"/>
                </g>
              </g>
            </g>
            <g id="Grupo_1070920" data-name="Grupo 1070920" transform="translate(122.837 0.012)">
              <g id="Grupo_1070919" data-name="Grupo 1070919" style="isolation: isolate">
                <g id="Grupo_1070918" data-name="Grupo 1070918" clip-path="url(#clip-path-5)">
                  <path id="Trazado_815792" data-name="Trazado 815792" d="M222.677,122.835A122.832,122.832,0,0,0,100.854.01L99.84,122.835,170.9,223.045a122.686,122.686,0,0,0,51.779-100.21" transform="translate(-99.84 -0.01)" fill="#6bbb1b"/>
                </g>
              </g>
            </g>
            <g id="Grupo_1070923" data-name="Grupo 1070923" transform="translate(82.743 122.837)">
              <g id="Grupo_1070922" data-name="Grupo 1070922">
                <g id="Grupo_1070921" data-name="Grupo 1070921" clip-path="url(#clip-path-6)">
                  <path id="Trazado_815793" data-name="Trazado 815793" d="M67.252,215.978A123.039,123.039,0,0,0,178.4,200.05L107.346,99.84Z" transform="translate(-67.252 -99.84)" fill="#dbf9bd"/>
                </g>
              </g>
            </g>
            <g id="Grupo_1070926" data-name="Grupo 1070926" transform="translate(0 80.314)" opacity="0.38">
              <g id="Grupo_1070925" data-name="Grupo 1070925" style="isolation: isolate">
                <g id="Grupo_1070924" data-name="Grupo 1070924" clip-path="url(#clip-path-7)">
                  <path id="Trazado_815794" data-name="Trazado 815794" d="M7.563,65.278a122.967,122.967,0,0,0,75.18,158.661L122.837,107.8Z" transform="translate(0 -65.278)" fill="#632059"/>
                </g>
              </g>
            </g>
          </g>
        </g>
      </g>
    </g>
    <path id="Trazado_819747" data-name="Trazado 819747" d="M-9.443-5.557H-8v2.539H-9.443V0h-3.291V-3.018h-5.5l-.2-2.012,5.693-9.16v-.029h3.291Zm-5.85,0h2.559V-9.932l-.205.332ZM3.32-5.811A6.789,6.789,0,0,1,2.026-1.367,4.471,4.471,0,0,1-1.621.2,4.5,4.5,0,0,1-5.293-1.377a6.779,6.779,0,0,1-1.3-4.434v-2.6A6.789,6.789,0,0,1-5.3-12.852a4.483,4.483,0,0,1,3.657-1.562,4.484,4.484,0,0,1,3.662,1.572A6.8,6.8,0,0,1,3.32-8.4ZM.029-8.828a5.071,5.071,0,0,0-.4-2.29,1.338,1.338,0,0,0-1.27-.757,1.307,1.307,0,0,0-1.235.7,4.777,4.777,0,0,0-.415,2.129V-5.41a5.109,5.109,0,0,0,.4,2.329,1.343,1.343,0,0,0,1.27.737,1.325,1.325,0,0,0,1.24-.718,4.878,4.878,0,0,0,.41-2.251Zm5.01-2.656A2.791,2.791,0,0,1,5.9-13.613a3.222,3.222,0,0,1,2.3-.811,3.226,3.226,0,0,1,2.314.806,2.865,2.865,0,0,1,.85,2.183v.7a2.776,2.776,0,0,1-.85,2.119,3.21,3.21,0,0,1-2.295.8,3.3,3.3,0,0,1-2.31-.8,2.8,2.8,0,0,1-.874-2.183Zm2.119.75a1.18,1.18,0,0,0,.283.82,1,1,0,0,0,.781.315q1.025,0,1.025-1.3v-.582a1.245,1.245,0,0,0-.273-.83.952.952,0,0,0-.771-.325.973.973,0,0,0-.762.315,1.238,1.238,0,0,0-.283.859ZM11.8-3.486a2.764,2.764,0,0,1,.864-2.129,3.249,3.249,0,0,1,2.3-.8,3.284,3.284,0,0,1,2.314.791,2.85,2.85,0,0,1,.859,2.207v.684a2.788,2.788,0,0,1-.85,2.129,3.224,3.224,0,0,1-2.3.8,3.3,3.3,0,0,1-2.31-.8A2.8,2.8,0,0,1,11.8-2.783Zm2.109.75a1.155,1.155,0,0,0,.313.8.99.99,0,0,0,.762.344.9.9,0,0,0,1.025-.893l.01-1a1.2,1.2,0,0,0-.283-.83.985.985,0,0,0-.771-.315.993.993,0,0,0-.752.3,1.179,1.179,0,0,0-.3.8ZM8.848-1.064,7.314-1.836l6.943-11.113,1.533.771Z" transform="translate(-7745.935 -3599.223)" fill="#12263f"/>
    <path id="Trazado_819748" data-name="Trazado 819748" d="M-10.84,0h-3.3V-10.508l-3.242.947v-2.5l6.24-2.158h.3Zm4.482-6.945.869-7.273H2.822v2.559H-2.812l-.322,2.825A3.882,3.882,0,0,1-2.212-9.2a4.211,4.211,0,0,1,1.118-.157A4.171,4.171,0,0,1,2.163-8.1,5.055,5.055,0,0,1,3.3-4.58,5.046,5.046,0,0,1,2.69-2.1,4.2,4.2,0,0,1,.977-.4,5.411,5.411,0,0,1-1.631.2a5.822,5.822,0,0,1-2.51-.551A4.5,4.5,0,0,1-5.977-1.868a3.675,3.675,0,0,1-.654-2.171h3.3a1.867,1.867,0,0,0,.5,1.238,1.581,1.581,0,0,0,1.182.458Q.01-2.344.01-4.8.01-7.07-2.021-7.07A2.027,2.027,0,0,0-3.74-6.33Zm11.4-4.539A2.791,2.791,0,0,1,5.9-13.613a3.222,3.222,0,0,1,2.3-.811,3.226,3.226,0,0,1,2.314.806,2.865,2.865,0,0,1,.85,2.183v.7a2.776,2.776,0,0,1-.85,2.119,3.21,3.21,0,0,1-2.295.8,3.3,3.3,0,0,1-2.31-.8,2.8,2.8,0,0,1-.874-2.183Zm2.119.75a1.18,1.18,0,0,0,.283.82,1,1,0,0,0,.781.315q1.025,0,1.025-1.3v-.582a1.245,1.245,0,0,0-.273-.83.952.952,0,0,0-.771-.325.973.973,0,0,0-.762.315,1.238,1.238,0,0,0-.283.859ZM11.8-3.486a2.764,2.764,0,0,1,.864-2.129,3.249,3.249,0,0,1,2.3-.8,3.284,3.284,0,0,1,2.314.791,2.85,2.85,0,0,1,.859,2.207v.684a2.788,2.788,0,0,1-.85,2.129,3.224,3.224,0,0,1-2.3.8,3.3,3.3,0,0,1-2.31-.8A2.8,2.8,0,0,1,11.8-2.783Zm2.109.75a1.155,1.155,0,0,0,.313.8.99.99,0,0,0,.762.344.9.9,0,0,0,1.025-.893l.01-1a1.2,1.2,0,0,0-.283-.83.985.985,0,0,0-.771-.315.993.993,0,0,0-.752.3,1.179,1.179,0,0,0-.3.8ZM8.848-1.064,7.314-1.836l6.943-11.113,1.533.771Z" transform="translate(-7800.911 -3511.604)" fill="#12263f"/>
    <path id="Trazado_819749" data-name="Trazado 819749" d="M-8.213,0h-9.922V-2.148l4.57-4.8q1.689-1.924,1.689-3.057a2.126,2.126,0,0,0-.4-1.4,1.43,1.43,0,0,0-1.162-.479,1.447,1.447,0,0,0-1.221.64,2.629,2.629,0,0,0-.469,1.6h-3.3a4.67,4.67,0,0,1,.654-2.417A4.588,4.588,0,0,1-15.957-13.8a5.4,5.4,0,0,1,2.6-.625,5.308,5.308,0,0,1,3.55,1.064A3.8,3.8,0,0,1-8.564-10.3a4.439,4.439,0,0,1-.312,1.636A7.173,7.173,0,0,1-9.849-7a24.477,24.477,0,0,1-2.124,2.339l-1.836,2.119h5.6Zm1.855-6.945.869-7.273H2.822v2.559H-2.812l-.322,2.825A3.882,3.882,0,0,1-2.212-9.2a4.211,4.211,0,0,1,1.118-.157A4.171,4.171,0,0,1,2.163-8.1,5.055,5.055,0,0,1,3.3-4.58,5.046,5.046,0,0,1,2.69-2.1,4.2,4.2,0,0,1,.977-.4,5.411,5.411,0,0,1-1.631.2a5.822,5.822,0,0,1-2.51-.551A4.5,4.5,0,0,1-5.977-1.868a3.675,3.675,0,0,1-.654-2.171h3.3a1.867,1.867,0,0,0,.5,1.238,1.581,1.581,0,0,0,1.182.458Q.01-2.344.01-4.8.01-7.07-2.021-7.07A2.027,2.027,0,0,0-3.74-6.33Zm11.4-4.539A2.791,2.791,0,0,1,5.9-13.613a3.222,3.222,0,0,1,2.3-.811,3.226,3.226,0,0,1,2.314.806,2.865,2.865,0,0,1,.85,2.183v.7a2.776,2.776,0,0,1-.85,2.119,3.21,3.21,0,0,1-2.295.8,3.3,3.3,0,0,1-2.31-.8,2.8,2.8,0,0,1-.874-2.183Zm2.119.75a1.18,1.18,0,0,0,.283.82,1,1,0,0,0,.781.315q1.025,0,1.025-1.3v-.582a1.245,1.245,0,0,0-.273-.83.952.952,0,0,0-.771-.325.973.973,0,0,0-.762.315,1.238,1.238,0,0,0-.283.859ZM11.8-3.486a2.764,2.764,0,0,1,.864-2.129,3.249,3.249,0,0,1,2.3-.8,3.284,3.284,0,0,1,2.314.791,2.85,2.85,0,0,1,.859,2.207v.684a2.788,2.788,0,0,1-.85,2.129,3.224,3.224,0,0,1-2.3.8,3.3,3.3,0,0,1-2.31-.8A2.8,2.8,0,0,1,11.8-2.783Zm2.109.75a1.155,1.155,0,0,0,.313.8.99.99,0,0,0,.762.344.9.9,0,0,0,1.025-.893l.01-1a1.2,1.2,0,0,0-.283-.83.985.985,0,0,0-.771-.315.993.993,0,0,0-.752.3,1.179,1.179,0,0,0-.3.8ZM8.848-1.064,7.314-1.836l6.943-11.113,1.533.771Z" transform="translate(-7879.939 -3557.991)" fill="#12263f"/>
    <path id="Trazado_819750" data-name="Trazado 819750" d="M-10.84,0h-3.3V-10.508l-3.242.947v-2.5l6.24-2.158h.3ZM3.369,0H-6.553V-2.148l4.57-4.8Q-.293-8.877-.293-10.01a2.126,2.126,0,0,0-.4-1.4,1.43,1.43,0,0,0-1.162-.479,1.447,1.447,0,0,0-1.221.64,2.629,2.629,0,0,0-.469,1.6h-3.3a4.67,4.67,0,0,1,.654-2.417A4.588,4.588,0,0,1-4.375-13.8a5.4,5.4,0,0,1,2.6-.625,5.308,5.308,0,0,1,3.55,1.064A3.8,3.8,0,0,1,3.018-10.3a4.439,4.439,0,0,1-.312,1.636A7.173,7.173,0,0,1,1.733-7,24.477,24.477,0,0,1-.391-4.658L-2.227-2.539h5.6Zm1.67-11.484A2.791,2.791,0,0,1,5.9-13.613a3.222,3.222,0,0,1,2.3-.811,3.226,3.226,0,0,1,2.314.806,2.865,2.865,0,0,1,.85,2.183v.7a2.776,2.776,0,0,1-.85,2.119,3.21,3.21,0,0,1-2.295.8,3.3,3.3,0,0,1-2.31-.8,2.8,2.8,0,0,1-.874-2.183Zm2.119.75a1.18,1.18,0,0,0,.283.82,1,1,0,0,0,.781.315q1.025,0,1.025-1.3v-.582a1.245,1.245,0,0,0-.273-.83.952.952,0,0,0-.771-.325.973.973,0,0,0-.762.315,1.238,1.238,0,0,0-.283.859ZM11.8-3.486a2.764,2.764,0,0,1,.864-2.129,3.249,3.249,0,0,1,2.3-.8,3.284,3.284,0,0,1,2.314.791,2.85,2.85,0,0,1,.859,2.207v.684a2.788,2.788,0,0,1-.85,2.129,3.224,3.224,0,0,1-2.3.8,3.3,3.3,0,0,1-2.31-.8A2.8,2.8,0,0,1,11.8-2.783Zm2.109.75a1.155,1.155,0,0,0,.313.8.99.99,0,0,0,.762.344.9.9,0,0,0,1.025-.893l.01-1a1.2,1.2,0,0,0-.283-.83.985.985,0,0,0-.771-.315.993.993,0,0,0-.752.3,1.179,1.179,0,0,0-.3.8ZM8.848-1.064,7.314-1.836l6.943-11.113,1.533.771Z" transform="translate(-7840.425 -3667.084)" fill="#12263f"/>
    <path id="Trazado_819751" data-name="Trazado 819751" d="M-2.479-9.378A2.954,2.954,0,0,1-2.94-7.734,3.361,3.361,0,0,1-4.21-6.592,3.7,3.7,0,0,1-2.76-5.366a3.164,3.164,0,0,1,.536,1.841A3.349,3.349,0,0,1-3.406-.817,4.909,4.909,0,0,1-6.662.176a5,5,0,0,1-3.287-1,3.325,3.325,0,0,1-1.2-2.7,3.2,3.2,0,0,1,.527-1.819A3.586,3.586,0,0,1-9.132-6.592a3.38,3.38,0,0,1-1.283-1.143,2.934,2.934,0,0,1-.466-1.644,3.284,3.284,0,0,1,1.134-2.637,4.558,4.558,0,0,1,3.059-.967,4.586,4.586,0,0,1,3.076.967A3.284,3.284,0,0,1-2.479-9.378ZM-5.194-3.762A1.69,1.69,0,0,0-5.6-4.979,1.423,1.423,0,0,0-6.68-5.405a1.438,1.438,0,0,0-1.081.426,1.678,1.678,0,0,0-.413,1.217,1.693,1.693,0,0,0,.417,1.208,1.433,1.433,0,0,0,1.094.444A1.377,1.377,0,0,0-5.6-2.549,1.723,1.723,0,0,0-5.194-3.762ZM-6.688-10.7a1.1,1.1,0,0,0-.91.391A1.7,1.7,0,0,0-7.91-9.22a1.8,1.8,0,0,0,.316,1.107,1.092,1.092,0,0,0,.932.422,1.047,1.047,0,0,0,.91-.422,1.856,1.856,0,0,0,.3-1.107A1.7,1.7,0,0,0-5.761-10.3,1.109,1.109,0,0,0-6.688-10.7Zm6.012.36A2.512,2.512,0,0,1,.1-12.252a2.9,2.9,0,0,1,2.074-.729,2.9,2.9,0,0,1,2.083.725,2.578,2.578,0,0,1,.765,1.964v.633a2.5,2.5,0,0,1-.765,1.907,2.889,2.889,0,0,1-2.065.721A2.968,2.968,0,0,1,.11-7.748,2.524,2.524,0,0,1-.677-9.712Zm1.907.675a1.062,1.062,0,0,0,.255.738.9.9,0,0,0,.7.284q.923,0,.923-1.17v-.524a1.12,1.12,0,0,0-.246-.747.857.857,0,0,0-.694-.293.876.876,0,0,0-.686.284,1.114,1.114,0,0,0-.255.773ZM5.405-3.138a2.487,2.487,0,0,1,.778-1.916,2.924,2.924,0,0,1,2.07-.721,2.956,2.956,0,0,1,2.083.712,2.565,2.565,0,0,1,.773,1.986v.615a2.509,2.509,0,0,1-.765,1.916A2.9,2.9,0,0,1,8.271.176,2.968,2.968,0,0,1,6.192-.541,2.524,2.524,0,0,1,5.405-2.5Zm1.9.675a1.039,1.039,0,0,0,.281.72.891.891,0,0,0,.686.31.808.808,0,0,0,.923-.8l.009-.9a1.075,1.075,0,0,0-.255-.747.886.886,0,0,0-.694-.284.893.893,0,0,0-.677.266,1.061,1.061,0,0,0-.272.72ZM2.751-.958l-1.38-.694,6.249-10L9-10.96Z" transform="translate(-7888.657 -3638.16)" fill="#12263f"/>
    <path id="Trazado_819745" data-name="Trazado 819745" d="M8.477,9.842a3.662,3.662,0,0,1-1.166,2.437,3.82,3.82,0,0,1-2.608.858,3.507,3.507,0,0,1-2.827-1.265A5.088,5.088,0,0,1,.813,8.488V7.531a5.671,5.671,0,0,1,.5-2.44,3.7,3.7,0,0,1,1.4-1.617A3.911,3.911,0,0,1,4.819,2.91,3.6,3.6,0,0,1,7.362,3.8,3.706,3.706,0,0,1,8.477,6.246H7.157a2.86,2.86,0,0,0-.742-1.728,2.244,2.244,0,0,0-1.6-.535,2.348,2.348,0,0,0-1.972.93,4.271,4.271,0,0,0-.714,2.648v.965a4.391,4.391,0,0,0,.677,2.579,2.187,2.187,0,0,0,1.894.958,2.526,2.526,0,0,0,1.678-.5,2.75,2.75,0,0,0,.776-1.726Zm1.258-.608a4.369,4.369,0,0,1,.427-1.955,3.187,3.187,0,0,1,1.189-1.34,3.238,3.238,0,0,1,1.74-.472,3.119,3.119,0,0,1,2.444,1.046,4.024,4.024,0,0,1,.933,2.782v.089a4.407,4.407,0,0,1-.414,1.938,3.14,3.14,0,0,1-1.183,1.336,3.275,3.275,0,0,1-1.767.479,3.111,3.111,0,0,1-2.437-1.046,4,4,0,0,1-.933-2.769Zm1.271.15a3.164,3.164,0,0,0,.571,1.976,1.934,1.934,0,0,0,3.059-.01A3.46,3.46,0,0,0,15.2,9.233a3.159,3.159,0,0,0-.578-1.972,1.836,1.836,0,0,0-1.535-.755,1.816,1.816,0,0,0-1.511.745A3.435,3.435,0,0,0,11.006,9.384ZM19.243,5.6l.034.82a2.732,2.732,0,0,1,2.194-.957,2.115,2.115,0,0,1,2.112,1.189,2.8,2.8,0,0,1,.96-.861,2.837,2.837,0,0,1,1.4-.328q2.434,0,2.475,2.577V13H27.152V8.119a1.7,1.7,0,0,0-.362-1.186,1.6,1.6,0,0,0-1.217-.393,1.677,1.677,0,0,0-1.169.42,1.706,1.706,0,0,0-.54,1.131V13H22.593V8.153A1.411,1.411,0,0,0,21.014,6.54a1.692,1.692,0,0,0-1.7,1.06V13H18.047V5.6Zm17.329,3.78A4.429,4.429,0,0,1,35.8,12.1a2.476,2.476,0,0,1-2.092,1.032,2.713,2.713,0,0,1-2.119-.854v3.562H30.324V5.6h1.155l.062.82a2.605,2.605,0,0,1,2.146-.957,2.522,2.522,0,0,1,2.109,1,4.477,4.477,0,0,1,.776,2.8ZM35.308,9.24a3.268,3.268,0,0,0-.533-1.976,1.718,1.718,0,0,0-1.463-.725,1.859,1.859,0,0,0-1.723,1.019v3.534A1.863,1.863,0,0,0,33.325,12.1a1.71,1.71,0,0,0,1.446-.721A3.567,3.567,0,0,0,35.308,9.24Zm2.536-.007a4.369,4.369,0,0,1,.427-1.955,3.187,3.187,0,0,1,1.189-1.34,3.238,3.238,0,0,1,1.74-.472,3.119,3.119,0,0,1,2.444,1.046,4.024,4.024,0,0,1,.933,2.782v.089a4.407,4.407,0,0,1-.414,1.938,3.14,3.14,0,0,1-1.183,1.336,3.275,3.275,0,0,1-1.767.479,3.111,3.111,0,0,1-2.437-1.046,4,4,0,0,1-.933-2.769Zm1.271.15a3.164,3.164,0,0,0,.571,1.976,1.934,1.934,0,0,0,3.059-.01,3.46,3.46,0,0,0,.567-2.116,3.159,3.159,0,0,0-.578-1.972A1.836,1.836,0,0,0,41.2,6.506a1.816,1.816,0,0,0-1.511.745A3.435,3.435,0,0,0,39.115,9.384ZM50.47,11.038a.931.931,0,0,0-.386-.8,3.718,3.718,0,0,0-1.347-.489,6.367,6.367,0,0,1-1.524-.492,2.169,2.169,0,0,1-.834-.684,1.635,1.635,0,0,1-.27-.943A1.919,1.919,0,0,1,46.877,6.1a3,3,0,0,1,1.965-.629,3.091,3.091,0,0,1,2.041.649,2.063,2.063,0,0,1,.783,1.661H50.395a1.142,1.142,0,0,0-.441-.9,1.652,1.652,0,0,0-1.111-.376,1.729,1.729,0,0,0-1.08.3.947.947,0,0,0-.39.786.767.767,0,0,0,.362.69,4.458,4.458,0,0,0,1.309.444,6.821,6.821,0,0,1,1.535.506,2.239,2.239,0,0,1,.872.708,1.74,1.74,0,0,1,.284,1.008,1.893,1.893,0,0,1-.793,1.589,3.326,3.326,0,0,1-2.058.6,3.725,3.725,0,0,1-1.572-.314,2.557,2.557,0,0,1-1.07-.878,2.117,2.117,0,0,1-.386-1.22H47.12a1.309,1.309,0,0,0,.509,1.008,1.976,1.976,0,0,0,1.254.373,2.039,2.039,0,0,0,1.152-.291A.893.893,0,0,0,50.47,11.038ZM54.756,13H53.491V5.6h1.265ZM53.389,3.642a.755.755,0,0,1,.188-.52.706.706,0,0,1,.557-.212.717.717,0,0,1,.561.212.747.747,0,0,1,.191.52.722.722,0,0,1-.191.513.73.73,0,0,1-.561.205.718.718,0,0,1-.557-.205A.73.73,0,0,1,53.389,3.642ZM59.746,12.1a1.822,1.822,0,0,0,1.183-.41,1.443,1.443,0,0,0,.561-1.025h1.2a2.293,2.293,0,0,1-.437,1.21,2.881,2.881,0,0,1-1.077.916,3.107,3.107,0,0,1-1.425.342,3.047,3.047,0,0,1-2.4-1.008,4.016,4.016,0,0,1-.892-2.758V9.158a4.453,4.453,0,0,1,.4-1.921,3.02,3.02,0,0,1,1.138-1.306,3.233,3.233,0,0,1,1.753-.465,2.966,2.966,0,0,1,2.068.745,2.663,2.663,0,0,1,.878,1.935h-1.2a1.743,1.743,0,0,0-.543-1.179,1.691,1.691,0,0,0-1.207-.461,1.77,1.77,0,0,0-1.494.694,3.259,3.259,0,0,0-.53,2.006v.239a3.194,3.194,0,0,0,.526,1.969A1.779,1.779,0,0,0,59.746,12.1Zm5.735.9H64.217V5.6h1.265ZM64.114,3.642a.755.755,0,0,1,.188-.52.706.706,0,0,1,.557-.212.717.717,0,0,1,.561.212.747.747,0,0,1,.191.52.722.722,0,0,1-.191.513.73.73,0,0,1-.561.205.718.718,0,0,1-.557-.205A.73.73,0,0,1,64.114,3.642ZM67.17,9.233A4.369,4.369,0,0,1,67.6,7.278a3.187,3.187,0,0,1,1.189-1.34,3.238,3.238,0,0,1,1.74-.472A3.119,3.119,0,0,1,72.97,6.513,4.024,4.024,0,0,1,73.9,9.295v.089a4.407,4.407,0,0,1-.414,1.938,3.14,3.14,0,0,1-1.183,1.336,3.275,3.275,0,0,1-1.767.479A3.111,3.111,0,0,1,68.1,12.091a4,4,0,0,1-.933-2.769Zm1.271.15a3.164,3.164,0,0,0,.571,1.976,1.934,1.934,0,0,0,3.059-.01,3.46,3.46,0,0,0,.567-2.116,3.159,3.159,0,0,0-.578-1.972,1.836,1.836,0,0,0-1.535-.755,1.816,1.816,0,0,0-1.511.745A3.435,3.435,0,0,0,68.441,9.384ZM71.1,2.5h1.531L70.8,4.51l-1.019,0Zm5.585,3.1.041.93a2.7,2.7,0,0,1,2.215-1.066q2.345,0,2.365,2.646V13H80.042V8.105a1.7,1.7,0,0,0-.366-1.183,1.466,1.466,0,0,0-1.118-.383,1.825,1.825,0,0,0-1.08.328,2.228,2.228,0,0,0-.725.861V13H75.489V5.6ZM86.372,9.24A4.333,4.333,0,0,1,87.179,6.5a2.745,2.745,0,0,1,4.17-.147V2.5h1.265V13H91.451l-.062-.793a2.575,2.575,0,0,1-2.112.93,2.526,2.526,0,0,1-2.1-1.053,4.382,4.382,0,0,1-.81-2.748Zm1.265.144a3.281,3.281,0,0,0,.52,1.969,1.68,1.68,0,0,0,1.436.711,1.845,1.845,0,0,0,1.757-1.08v-3.4A1.859,1.859,0,0,0,89.605,6.54a1.687,1.687,0,0,0-1.449.718A3.612,3.612,0,0,0,87.637,9.384Zm10.008,3.753a3.232,3.232,0,0,1-2.447-.988,3.666,3.666,0,0,1-.943-2.642V9.274a4.438,4.438,0,0,1,.42-1.965A3.28,3.28,0,0,1,95.85,5.956a2.956,2.956,0,0,1,1.637-.489,2.77,2.77,0,0,1,2.242.95,4.114,4.114,0,0,1,.8,2.721v.526H95.519a2.629,2.629,0,0,0,.639,1.767,2.009,2.009,0,0,0,1.555.673,2.2,2.2,0,0,0,1.135-.273,2.851,2.851,0,0,0,.813-.725l.772.6A3.106,3.106,0,0,1,97.645,13.137Zm-.157-6.631a1.687,1.687,0,0,0-1.285.557,2.708,2.708,0,0,0-.643,1.562h3.705v-.1a2.409,2.409,0,0,0-.52-1.494A1.588,1.588,0,0,0,97.487,6.506ZM106.832,13h-1.265V2.5h1.265Zm1.688-3.767a4.369,4.369,0,0,1,.427-1.955,3.187,3.187,0,0,1,1.189-1.34,3.238,3.238,0,0,1,1.74-.472,3.119,3.119,0,0,1,2.444,1.046,4.024,4.024,0,0,1,.933,2.782v.089a4.407,4.407,0,0,1-.414,1.938,3.14,3.14,0,0,1-1.183,1.336,3.275,3.275,0,0,1-1.767.479,3.111,3.111,0,0,1-2.437-1.046,4,4,0,0,1-.933-2.769Zm1.271.15a3.164,3.164,0,0,0,.571,1.976,1.934,1.934,0,0,0,3.059-.01,3.46,3.46,0,0,0,.567-2.116,3.159,3.159,0,0,0-.578-1.972,1.836,1.836,0,0,0-1.535-.755,1.816,1.816,0,0,0-1.511.745A3.435,3.435,0,0,0,109.792,9.384Zm11.354,1.654a.931.931,0,0,0-.386-.8,3.718,3.718,0,0,0-1.347-.489,6.367,6.367,0,0,1-1.524-.492,2.169,2.169,0,0,1-.834-.684,1.635,1.635,0,0,1-.27-.943,1.919,1.919,0,0,1,.769-1.538,3,3,0,0,1,1.965-.629,3.091,3.091,0,0,1,2.041.649,2.063,2.063,0,0,1,.783,1.661h-1.271a1.142,1.142,0,0,0-.441-.9,1.652,1.652,0,0,0-1.111-.376,1.729,1.729,0,0,0-1.08.3.947.947,0,0,0-.39.786.767.767,0,0,0,.362.69,4.458,4.458,0,0,0,1.309.444,6.821,6.821,0,0,1,1.535.506,2.239,2.239,0,0,1,.872.708,1.74,1.74,0,0,1,.284,1.008,1.893,1.893,0,0,1-.793,1.589,3.326,3.326,0,0,1-2.058.6,3.725,3.725,0,0,1-1.572-.314,2.557,2.557,0,0,1-1.07-.878,2.117,2.117,0,0,1-.386-1.22H117.8a1.309,1.309,0,0,0,.509,1.008,1.976,1.976,0,0,0,1.254.373,2.039,2.039,0,0,0,1.152-.291A.893.893,0,0,0,121.146,11.038Zm6.077-1.8a4.347,4.347,0,0,1,.8-2.751,2.757,2.757,0,0,1,4.231-.065l.062-.82h1.155v7.219a3.009,3.009,0,0,1-.851,2.263,3.141,3.141,0,0,1-2.287.827,3.8,3.8,0,0,1-1.565-.342,2.7,2.7,0,0,1-1.169-.937l.656-.759a2.473,2.473,0,0,0,1.989,1,1.938,1.938,0,0,0,1.439-.52A1.986,1.986,0,0,0,132.2,12.9v-.636a2.6,2.6,0,0,1-2.071.875,2.526,2.526,0,0,1-2.1-1.046A4.571,4.571,0,0,1,127.224,9.24Zm1.271.144a3.316,3.316,0,0,0,.513,1.965,1.666,1.666,0,0,0,1.436.714,1.852,1.852,0,0,0,1.757-1.087V7.6a1.874,1.874,0,0,0-1.743-1.06,1.681,1.681,0,0,0-1.442.718A3.612,3.612,0,0,0,128.5,9.384ZM139.945,13a2.657,2.657,0,0,1-.178-.779,2.822,2.822,0,0,1-2.105.916,2.611,2.611,0,0,1-1.794-.619,2,2,0,0,1-.7-1.569,2.091,2.091,0,0,1,.878-1.794,4.142,4.142,0,0,1,2.471-.639h1.23V7.935a1.42,1.42,0,0,0-.4-1.056,1.593,1.593,0,0,0-1.169-.393,1.844,1.844,0,0,0-1.135.342,1.007,1.007,0,0,0-.458.827h-1.271a1.745,1.745,0,0,1,.393-1.07,2.683,2.683,0,0,1,1.066-.817,3.588,3.588,0,0,1,1.48-.3,2.924,2.924,0,0,1,2,.639,2.306,2.306,0,0,1,.752,1.76v3.4a4.162,4.162,0,0,0,.26,1.62V13Zm-2.1-.964a2.223,2.223,0,0,0,1.128-.308,1.861,1.861,0,0,0,.772-.8V9.411h-.991q-2.324,0-2.324,1.36a1.151,1.151,0,0,0,.4.93A1.524,1.524,0,0,0,137.847,12.036Zm9.454-1a.931.931,0,0,0-.386-.8,3.718,3.718,0,0,0-1.347-.489,6.367,6.367,0,0,1-1.524-.492,2.169,2.169,0,0,1-.834-.684,1.635,1.635,0,0,1-.27-.943,1.919,1.919,0,0,1,.769-1.538,3,3,0,0,1,1.965-.629,3.091,3.091,0,0,1,2.041.649,2.063,2.063,0,0,1,.783,1.661h-1.271a1.142,1.142,0,0,0-.441-.9,1.652,1.652,0,0,0-1.111-.376,1.729,1.729,0,0,0-1.08.3.947.947,0,0,0-.39.786.767.767,0,0,0,.362.69,4.458,4.458,0,0,0,1.309.444,6.821,6.821,0,0,1,1.535.506,2.239,2.239,0,0,1,.872.708,1.74,1.74,0,0,1,.284,1.008,1.893,1.893,0,0,1-.793,1.589,3.326,3.326,0,0,1-2.058.6,3.725,3.725,0,0,1-1.572-.314,2.557,2.557,0,0,1-1.07-.878,2.117,2.117,0,0,1-.386-1.22h1.265a1.309,1.309,0,0,0,.509,1.008,1.976,1.976,0,0,0,1.254.373,2.039,2.039,0,0,0,1.152-.291A.893.893,0,0,0,147.3,11.038Zm4.628-7.226V5.6h1.381v.978h-1.381v4.593a1.027,1.027,0,0,0,.185.667.777.777,0,0,0,.629.222,3.062,3.062,0,0,0,.6-.082V13a3.688,3.688,0,0,1-.971.136,1.575,1.575,0,0,1-1.278-.513,2.2,2.2,0,0,1-.431-1.456V6.581h-1.347V5.6h1.347V3.813Zm2.386,5.421a4.369,4.369,0,0,1,.427-1.955,3.187,3.187,0,0,1,1.189-1.34,3.238,3.238,0,0,1,1.74-.472,3.119,3.119,0,0,1,2.444,1.046,4.024,4.024,0,0,1,.933,2.782v.089a4.407,4.407,0,0,1-.414,1.938,3.14,3.14,0,0,1-1.183,1.336,3.275,3.275,0,0,1-1.767.479,3.111,3.111,0,0,1-2.437-1.046,4,4,0,0,1-.933-2.769Zm1.271.15a3.164,3.164,0,0,0,.571,1.976,1.934,1.934,0,0,0,3.059-.01,3.46,3.46,0,0,0,.567-2.116,3.159,3.159,0,0,0-.578-1.972,1.836,1.836,0,0,0-1.535-.755,1.816,1.816,0,0,0-1.511.745A3.435,3.435,0,0,0,155.586,9.384Zm11.354,1.654a.931.931,0,0,0-.386-.8,3.718,3.718,0,0,0-1.347-.489,6.367,6.367,0,0,1-1.524-.492,2.169,2.169,0,0,1-.834-.684,1.635,1.635,0,0,1-.27-.943,1.919,1.919,0,0,1,.769-1.538,3,3,0,0,1,1.965-.629,3.091,3.091,0,0,1,2.041.649,2.063,2.063,0,0,1,.783,1.661h-1.271a1.142,1.142,0,0,0-.441-.9,1.652,1.652,0,0,0-1.111-.376,1.729,1.729,0,0,0-1.08.3.947.947,0,0,0-.39.786.767.767,0,0,0,.362.69,4.458,4.458,0,0,0,1.309.444,6.821,6.821,0,0,1,1.535.506,2.239,2.239,0,0,1,.872.708,1.74,1.74,0,0,1,.284,1.008,1.893,1.893,0,0,1-.793,1.589,3.326,3.326,0,0,1-2.058.6,3.725,3.725,0,0,1-1.572-.314,2.557,2.557,0,0,1-1.07-.878,2.117,2.117,0,0,1-.386-1.22h1.265a1.309,1.309,0,0,0,.509,1.008,1.976,1.976,0,0,0,1.254.373,2.039,2.039,0,0,0,1.152-.291A.893.893,0,0,0,166.94,11.038Zm9.447,2.1a3.232,3.232,0,0,1-2.447-.988A3.666,3.666,0,0,1,173,9.507V9.274a4.438,4.438,0,0,1,.42-1.965,3.279,3.279,0,0,1,1.176-1.354,2.956,2.956,0,0,1,1.637-.489,2.77,2.77,0,0,1,2.242.95,4.114,4.114,0,0,1,.8,2.721v.526h-5.011a2.629,2.629,0,0,0,.639,1.767,2.009,2.009,0,0,0,1.555.673,2.2,2.2,0,0,0,1.135-.273,2.851,2.851,0,0,0,.813-.725l.772.6A3.106,3.106,0,0,1,176.388,13.137Zm-.157-6.631a1.687,1.687,0,0,0-1.285.557,2.708,2.708,0,0,0-.643,1.562h3.705v-.1a2.409,2.409,0,0,0-.52-1.494A1.588,1.588,0,0,0,176.23,6.506Zm5.7-.9.041.93a2.7,2.7,0,0,1,2.215-1.066q2.345,0,2.365,2.646V13h-1.265V8.105a1.7,1.7,0,0,0-.366-1.183A1.466,1.466,0,0,0,183.8,6.54a1.825,1.825,0,0,0-1.08.328,2.228,2.228,0,0,0-.725.861V13h-1.265V5.6ZM193.3,13h-1.265V2.5H193.3Zm6.59,0a2.657,2.657,0,0,1-.178-.779,2.822,2.822,0,0,1-2.105.916,2.611,2.611,0,0,1-1.794-.619,2,2,0,0,1-.7-1.569,2.091,2.091,0,0,1,.878-1.794,4.142,4.142,0,0,1,2.471-.639h1.23V7.935a1.42,1.42,0,0,0-.4-1.056,1.593,1.593,0,0,0-1.169-.393,1.844,1.844,0,0,0-1.135.342,1.007,1.007,0,0,0-.458.827h-1.271a1.745,1.745,0,0,1,.393-1.07,2.683,2.683,0,0,1,1.066-.817,3.588,3.588,0,0,1,1.48-.3,2.924,2.924,0,0,1,2,.639,2.306,2.306,0,0,1,.752,1.76v3.4a4.162,4.162,0,0,0,.26,1.62V13Zm-2.1-.964a2.223,2.223,0,0,0,1.128-.308,1.861,1.861,0,0,0,.772-.8V9.411H198.7q-2.324,0-2.324,1.36a1.151,1.151,0,0,0,.4.93A1.524,1.524,0,0,0,197.791,12.036Zm8.278-2.8a4.369,4.369,0,0,1,.427-1.955,3.187,3.187,0,0,1,1.189-1.34,3.238,3.238,0,0,1,1.74-.472,3.119,3.119,0,0,1,2.444,1.046,4.024,4.024,0,0,1,.933,2.782v.089a4.407,4.407,0,0,1-.414,1.938,3.14,3.14,0,0,1-1.183,1.336,3.275,3.275,0,0,1-1.767.479A3.111,3.111,0,0,1,207,12.091a4,4,0,0,1-.933-2.769Zm1.271.15a3.164,3.164,0,0,0,.571,1.976,1.934,1.934,0,0,0,3.059-.01,3.46,3.46,0,0,0,.567-2.116,3.159,3.159,0,0,0-.578-1.972,1.836,1.836,0,0,0-1.535-.755,1.816,1.816,0,0,0-1.511.745A3.435,3.435,0,0,0,207.341,9.384Zm13.3,0a4.429,4.429,0,0,1-.772,2.721,2.476,2.476,0,0,1-2.092,1.032,2.713,2.713,0,0,1-2.119-.854v3.562h-1.265V5.6h1.155l.062.82a2.605,2.605,0,0,1,2.146-.957,2.522,2.522,0,0,1,2.109,1,4.477,4.477,0,0,1,.776,2.8Zm-1.265-.144a3.268,3.268,0,0,0-.533-1.976,1.718,1.718,0,0,0-1.463-.725,1.859,1.859,0,0,0-1.723,1.019v3.534A1.863,1.863,0,0,0,217.39,12.1a1.71,1.71,0,0,0,1.446-.721A3.567,3.567,0,0,0,219.372,9.24Zm5.94,3.9a3.232,3.232,0,0,1-2.447-.988,3.666,3.666,0,0,1-.943-2.642V9.274a4.438,4.438,0,0,1,.42-1.965,3.279,3.279,0,0,1,1.176-1.354,2.956,2.956,0,0,1,1.637-.489,2.77,2.77,0,0,1,2.242.95,4.114,4.114,0,0,1,.8,2.721v.526h-5.011a2.629,2.629,0,0,0,.639,1.767,2.009,2.009,0,0,0,1.555.673,2.2,2.2,0,0,0,1.135-.273,2.851,2.851,0,0,0,.813-.725l.772.6A3.106,3.106,0,0,1,225.313,13.137Zm-.157-6.631a1.687,1.687,0,0,0-1.285.557,2.708,2.708,0,0,0-.643,1.562h3.705v-.1a2.409,2.409,0,0,0-.52-1.494A1.588,1.588,0,0,0,225.155,6.506Zm8.08.232a3.79,3.79,0,0,0-.622-.048,1.667,1.667,0,0,0-1.688,1.06V13H229.66V5.6h1.23l.021.854a1.969,1.969,0,0,1,1.764-.991,1.292,1.292,0,0,1,.561.1ZM238.69,13a2.657,2.657,0,0,1-.178-.779,2.822,2.822,0,0,1-2.105.916,2.611,2.611,0,0,1-1.794-.619,2,2,0,0,1-.7-1.569,2.091,2.091,0,0,1,.878-1.794,4.142,4.142,0,0,1,2.471-.639h1.23V7.935a1.42,1.42,0,0,0-.4-1.056,1.593,1.593,0,0,0-1.169-.393,1.844,1.844,0,0,0-1.135.342,1.007,1.007,0,0,0-.458.827h-1.271a1.745,1.745,0,0,1,.393-1.07,2.683,2.683,0,0,1,1.066-.817,3.588,3.588,0,0,1,1.48-.3,2.924,2.924,0,0,1,2,.639,2.306,2.306,0,0,1,.752,1.76v3.4a4.162,4.162,0,0,0,.26,1.62V13Zm-2.1-.964a2.223,2.223,0,0,0,1.128-.308,1.861,1.861,0,0,0,.772-.8V9.411H237.5q-2.324,0-2.324,1.36a1.151,1.151,0,0,0,.4.93A1.524,1.524,0,0,0,236.592,12.036Zm8.114.068a1.822,1.822,0,0,0,1.183-.41,1.443,1.443,0,0,0,.561-1.025h1.2a2.293,2.293,0,0,1-.437,1.21,2.881,2.881,0,0,1-1.077.916,3.107,3.107,0,0,1-1.425.342,3.047,3.047,0,0,1-2.4-1.008,4.016,4.016,0,0,1-.892-2.758V9.158a4.453,4.453,0,0,1,.4-1.921,3.02,3.02,0,0,1,1.138-1.306,3.233,3.233,0,0,1,1.753-.465,2.966,2.966,0,0,1,2.068.745,2.663,2.663,0,0,1,.878,1.935h-1.2a1.743,1.743,0,0,0-.543-1.179,1.691,1.691,0,0,0-1.207-.461,1.77,1.77,0,0,0-1.494.694,3.259,3.259,0,0,0-.53,2.006v.239a3.194,3.194,0,0,0,.526,1.969A1.779,1.779,0,0,0,244.706,12.1Zm5.735.9h-1.265V5.6h1.265Zm-1.367-9.358a.755.755,0,0,1,.188-.52.706.706,0,0,1,.557-.212.717.717,0,0,1,.561.212.747.747,0,0,1,.191.52.722.722,0,0,1-.191.513.73.73,0,0,1-.561.205.718.718,0,0,1-.557-.205A.73.73,0,0,1,249.074,3.642Zm3.056,5.592a4.369,4.369,0,0,1,.427-1.955,3.187,3.187,0,0,1,1.189-1.34,3.238,3.238,0,0,1,1.74-.472,3.119,3.119,0,0,1,2.444,1.046,4.024,4.024,0,0,1,.933,2.782v.089a4.407,4.407,0,0,1-.414,1.938,3.14,3.14,0,0,1-1.183,1.336,3.275,3.275,0,0,1-1.767.479,3.111,3.111,0,0,1-2.437-1.046,4,4,0,0,1-.933-2.769Zm1.271.15a3.164,3.164,0,0,0,.571,1.976,1.934,1.934,0,0,0,3.059-.01,3.46,3.46,0,0,0,.567-2.116,3.159,3.159,0,0,0-.578-1.972,1.836,1.836,0,0,0-1.535-.755,1.816,1.816,0,0,0-1.511.745A3.435,3.435,0,0,0,253.4,9.384ZM256.061,2.5h1.531L255.76,4.51l-1.019,0Zm5.585,3.1.041.93A2.7,2.7,0,0,1,263.9,5.467q2.345,0,2.365,2.646V13H265V8.105a1.7,1.7,0,0,0-.366-1.183,1.466,1.466,0,0,0-1.118-.383,1.825,1.825,0,0,0-1.08.328,2.228,2.228,0,0,0-.725.861V13h-1.265V5.6Z" transform="translate(-7954.045 -3744.496)" fill="#12263f"/>
    <path id="Trazado_819752" data-name="Trazado 819752" d="M-46.774-2.481A2.877,2.877,0,0,1-47.69-.567a3,3,0,0,1-2.049.674A2.756,2.756,0,0,1-51.96-.886,4,4,0,0,1-52.8-3.545V-4.3a4.456,4.456,0,0,1,.389-1.917,2.909,2.909,0,0,1,1.1-1.27,3.073,3.073,0,0,1,1.654-.443,2.826,2.826,0,0,1,2,.7,2.912,2.912,0,0,1,.875,1.926h-1.037a2.247,2.247,0,0,0-.583-1.358,1.763,1.763,0,0,0-1.254-.42,1.845,1.845,0,0,0-1.55.731,3.356,3.356,0,0,0-.561,2.08v.758a3.45,3.45,0,0,0,.532,2.027,1.718,1.718,0,0,0,1.488.753,1.984,1.984,0,0,0,1.319-.389,2.161,2.161,0,0,0,.61-1.356Zm.988-.478A3.433,3.433,0,0,1-45.45-4.5a2.5,2.5,0,0,1,.935-1.053,2.544,2.544,0,0,1,1.367-.371,2.451,2.451,0,0,1,1.92.822A3.162,3.162,0,0,1-40.5-2.911v.07a3.463,3.463,0,0,1-.325,1.523,2.467,2.467,0,0,1-.929,1.05,2.573,2.573,0,0,1-1.388.376,2.445,2.445,0,0,1-1.915-.822,3.146,3.146,0,0,1-.733-2.175Zm1,.118a2.486,2.486,0,0,0,.448,1.552,1.435,1.435,0,0,0,1.2.585,1.427,1.427,0,0,0,1.2-.594,2.719,2.719,0,0,0,.446-1.662,2.482,2.482,0,0,0-.454-1.55A1.443,1.443,0,0,0-43.149-5.1a1.427,1.427,0,0,0-1.187.585A2.7,2.7,0,0,0-44.787-2.841Zm8.921,1.3a.731.731,0,0,0-.3-.626,2.921,2.921,0,0,0-1.058-.384,5,5,0,0,1-1.2-.387,1.7,1.7,0,0,1-.655-.537,1.285,1.285,0,0,1-.212-.741,1.508,1.508,0,0,1,.6-1.208,2.36,2.36,0,0,1,1.544-.494,2.428,2.428,0,0,1,1.6.51A1.621,1.621,0,0,1-34.926-4.1h-1a.9.9,0,0,0-.346-.7,1.3,1.3,0,0,0-.873-.3,1.359,1.359,0,0,0-.849.236.744.744,0,0,0-.306.618.6.6,0,0,0,.285.542,3.5,3.5,0,0,0,1.029.349,5.359,5.359,0,0,1,1.206.4,1.759,1.759,0,0,1,.685.556,1.367,1.367,0,0,1,.223.792,1.487,1.487,0,0,1-.623,1.249,2.613,2.613,0,0,1-1.617.47A2.926,2.926,0,0,1-38.347-.14a2.009,2.009,0,0,1-.841-.69,1.663,1.663,0,0,1-.3-.959h.994A1.029,1.029,0,0,0-38.1-1a1.552,1.552,0,0,0,.986.293,1.6,1.6,0,0,0,.905-.228A.7.7,0,0,0-35.865-1.542Zm3.636-5.677v1.407h1.085v.768h-1.085v3.609a.807.807,0,0,0,.145.524.61.61,0,0,0,.494.175A2.406,2.406,0,0,0-31.117-.8V0a2.9,2.9,0,0,1-.763.107,1.237,1.237,0,0,1-1-.4,1.731,1.731,0,0,1-.338-1.144v-3.6h-1.058v-.768h1.058V-7.219Zm1.875,4.259A3.433,3.433,0,0,1-30.019-4.5a2.5,2.5,0,0,1,.935-1.053,2.544,2.544,0,0,1,1.367-.371A2.451,2.451,0,0,1-25.8-5.1a3.162,3.162,0,0,1,.733,2.186v.07a3.462,3.462,0,0,1-.325,1.523,2.467,2.467,0,0,1-.929,1.05,2.573,2.573,0,0,1-1.388.376,2.445,2.445,0,0,1-1.915-.822,3.146,3.146,0,0,1-.733-2.175Zm1,.118a2.486,2.486,0,0,0,.448,1.552,1.435,1.435,0,0,0,1.2.585A1.427,1.427,0,0,0-26.5-1.3a2.719,2.719,0,0,0,.446-1.662,2.482,2.482,0,0,0-.454-1.55A1.443,1.443,0,0,0-27.718-5.1a1.427,1.427,0,0,0-1.187.585A2.7,2.7,0,0,0-29.356-2.841Zm8.921,1.3a.732.732,0,0,0-.3-.626A2.921,2.921,0,0,0-21.8-2.551a5,5,0,0,1-1.2-.387,1.7,1.7,0,0,1-.655-.537,1.285,1.285,0,0,1-.212-.741,1.508,1.508,0,0,1,.6-1.208,2.36,2.36,0,0,1,1.544-.494,2.428,2.428,0,0,1,1.6.51A1.621,1.621,0,0,1-19.494-4.1h-1a.9.9,0,0,0-.346-.7,1.3,1.3,0,0,0-.873-.3,1.358,1.358,0,0,0-.849.236.744.744,0,0,0-.306.618.6.6,0,0,0,.285.542,3.5,3.5,0,0,0,1.029.349,5.359,5.359,0,0,1,1.206.4,1.759,1.759,0,0,1,.685.556,1.367,1.367,0,0,1,.223.792,1.487,1.487,0,0,1-.623,1.249,2.613,2.613,0,0,1-1.617.47A2.926,2.926,0,0,1-22.916-.14a2.009,2.009,0,0,1-.841-.69,1.664,1.664,0,0,1-.3-.959h.994a1.029,1.029,0,0,0,.4.792A1.552,1.552,0,0,0-21.68-.7a1.6,1.6,0,0,0,.905-.228A.7.7,0,0,0-20.434-1.542Zm4.77-1.413a3.4,3.4,0,0,1,.634-2.151,2,2,0,0,1,1.66-.814,2.016,2.016,0,0,1,1.617.7V-8.25h.994V0h-.913l-.048-.623a2.024,2.024,0,0,1-1.66.73A1.985,1.985,0,0,1-15.028-.72a3.443,3.443,0,0,1-.636-2.159Zm.994.113a2.578,2.578,0,0,0,.408,1.547,1.32,1.32,0,0,0,1.128.559,1.45,1.45,0,0,0,1.38-.849V-4.254a1.461,1.461,0,0,0-1.37-.822,1.326,1.326,0,0,0-1.139.564A2.838,2.838,0,0,0-14.671-2.841ZM-6.808.107A2.539,2.539,0,0,1-8.731-.669a2.881,2.881,0,0,1-.741-2.076v-.183a3.487,3.487,0,0,1,.33-1.544,2.577,2.577,0,0,1,.924-1.063,2.323,2.323,0,0,1,1.286-.384,2.177,2.177,0,0,1,1.762.747,3.232,3.232,0,0,1,.628,2.138v.414H-8.478a2.066,2.066,0,0,0,.5,1.388A1.579,1.579,0,0,0-6.754-.7a1.731,1.731,0,0,0,.892-.215,2.24,2.24,0,0,0,.639-.569l.607.473A2.44,2.44,0,0,1-6.808.107ZM-6.931-5.1a1.325,1.325,0,0,0-1.01.438,2.128,2.128,0,0,0-.5,1.227h2.911v-.075a1.893,1.893,0,0,0-.408-1.174A1.248,1.248,0,0,0-6.931-5.1ZM4.24-2.841A3.48,3.48,0,0,1,3.634-.7,1.945,1.945,0,0,1,1.99.107,2.131,2.131,0,0,1,.325-.564v2.8H-.669V-5.812H.239l.048.645a2.047,2.047,0,0,1,1.687-.752,1.982,1.982,0,0,1,1.657.79,3.518,3.518,0,0,1,.61,2.2Zm-.994-.113a2.568,2.568,0,0,0-.419-1.552,1.35,1.35,0,0,0-1.149-.569,1.461,1.461,0,0,0-1.354.8V-1.5A1.464,1.464,0,0,0,1.689-.7,1.343,1.343,0,0,0,2.825-1.27,2.8,2.8,0,0,0,3.247-2.954ZM8.312-4.92a2.978,2.978,0,0,0-.489-.038A1.309,1.309,0,0,0,6.5-4.125V0H5.5V-5.812h.967l.016.671a1.547,1.547,0,0,1,1.386-.779,1.015,1.015,0,0,1,.44.075Zm.542,1.96A3.433,3.433,0,0,1,9.19-4.5a2.5,2.5,0,0,1,.935-1.053,2.544,2.544,0,0,1,1.367-.371,2.451,2.451,0,0,1,1.92.822,3.162,3.162,0,0,1,.733,2.186v.07a3.462,3.462,0,0,1-.325,1.523,2.467,2.467,0,0,1-.929,1.05A2.573,2.573,0,0,1,11.5.107,2.445,2.445,0,0,1,9.587-.714,3.146,3.146,0,0,1,8.854-2.89Zm1,.118A2.486,2.486,0,0,0,10.3-1.289,1.435,1.435,0,0,0,11.5-.7a1.427,1.427,0,0,0,1.2-.594,2.719,2.719,0,0,0,.446-1.662,2.482,2.482,0,0,0-.454-1.55A1.443,1.443,0,0,0,11.491-5.1a1.427,1.427,0,0,0-1.187.585A2.7,2.7,0,0,0,9.853-2.841Zm5.3-.113a3.4,3.4,0,0,1,.634-2.151,2,2,0,0,1,1.66-.814,2.016,2.016,0,0,1,1.617.7V-8.25h.994V0H19.14l-.048-.623a2.024,2.024,0,0,1-1.66.73A1.985,1.985,0,0,1,15.786-.72a3.443,3.443,0,0,1-.636-2.159Zm.994.113a2.578,2.578,0,0,0,.408,1.547,1.32,1.32,0,0,0,1.128.559,1.45,1.45,0,0,0,1.38-.849V-4.254a1.461,1.461,0,0,0-1.37-.822,1.326,1.326,0,0,0-1.139.564A2.838,2.838,0,0,0,16.143-2.841Zm9.04,2.267a2.111,2.111,0,0,1-1.7.682,1.807,1.807,0,0,1-1.415-.54,2.336,2.336,0,0,1-.491-1.6V-5.812h.994v3.754q0,1.321,1.074,1.321a1.487,1.487,0,0,0,1.515-.849V-5.812h.994V0H25.2ZM29.99-.7a1.431,1.431,0,0,0,.929-.322,1.134,1.134,0,0,0,.44-.806h.94a1.8,1.8,0,0,1-.344.951,2.264,2.264,0,0,1-.846.72,2.441,2.441,0,0,1-1.12.269A2.394,2.394,0,0,1,28.1-.685a3.155,3.155,0,0,1-.7-2.167v-.167a3.5,3.5,0,0,1,.312-1.509,2.373,2.373,0,0,1,.894-1.026,2.54,2.54,0,0,1,1.378-.365,2.331,2.331,0,0,1,1.625.585,2.092,2.092,0,0,1,.69,1.52h-.94a1.369,1.369,0,0,0-.427-.927,1.328,1.328,0,0,0-.948-.363,1.391,1.391,0,0,0-1.174.545,2.56,2.56,0,0,0-.416,1.576v.188a2.509,2.509,0,0,0,.414,1.547A1.4,1.4,0,0,0,29.99-.7Zm5.758,0a1.431,1.431,0,0,0,.929-.322,1.134,1.134,0,0,0,.44-.806h.94a1.8,1.8,0,0,1-.344.951,2.264,2.264,0,0,1-.846.72,2.441,2.441,0,0,1-1.12.269,2.394,2.394,0,0,1-1.888-.792,3.155,3.155,0,0,1-.7-2.167v-.167a3.5,3.5,0,0,1,.312-1.509,2.373,2.373,0,0,1,.894-1.026,2.54,2.54,0,0,1,1.378-.365,2.331,2.331,0,0,1,1.625.585,2.092,2.092,0,0,1,.69,1.52h-.94a1.369,1.369,0,0,0-.427-.927,1.328,1.328,0,0,0-.948-.363,1.391,1.391,0,0,0-1.174.545,2.56,2.56,0,0,0-.416,1.576v.188a2.509,2.509,0,0,0,.414,1.547A1.4,1.4,0,0,0,35.747-.7Zm4.506.7H39.26V-5.812h.994ZM39.179-7.353a.593.593,0,0,1,.148-.408.555.555,0,0,1,.438-.167.563.563,0,0,1,.44.167.587.587,0,0,1,.15.408.568.568,0,0,1-.15.4.573.573,0,0,1-.44.161.565.565,0,0,1-.438-.161A.573.573,0,0,1,39.179-7.353Zm2.4,4.394A3.433,3.433,0,0,1,41.916-4.5a2.5,2.5,0,0,1,.935-1.053,2.544,2.544,0,0,1,1.367-.371,2.451,2.451,0,0,1,1.92.822,3.162,3.162,0,0,1,.733,2.186v.07a3.463,3.463,0,0,1-.325,1.523,2.467,2.467,0,0,1-.929,1.05,2.573,2.573,0,0,1-1.388.376,2.445,2.445,0,0,1-1.915-.822A3.146,3.146,0,0,1,41.58-2.89Zm1,.118a2.486,2.486,0,0,0,.448,1.552,1.435,1.435,0,0,0,1.2.585,1.427,1.427,0,0,0,1.2-.594,2.719,2.719,0,0,0,.446-1.662,2.482,2.482,0,0,0-.454-1.55A1.443,1.443,0,0,0,44.218-5.1a1.427,1.427,0,0,0-1.187.585A2.7,2.7,0,0,0,42.579-2.841ZM44.669-8.25h1.2L44.432-6.671l-.8,0Zm4.388,2.438.032.73a2.118,2.118,0,0,1,1.74-.838q1.842,0,1.858,2.079V0h-.994V-3.846a1.338,1.338,0,0,0-.287-.929,1.152,1.152,0,0,0-.878-.3,1.434,1.434,0,0,0-.849.258,1.751,1.751,0,0,0-.569.677V0h-.994V-5.812Z" transform="translate(-7977.377 -3440.288)" fill="#12263f"/>
    <g id="Trazado_819753" data-name="Trazado 819753" transform="translate(-8049.275 -3447.397)" fill="#6bbb1b">
      <path d="M 8.949021339416504 8.949021339416504 L 0.5000016093254089 8.949021339416504 L 0.5000016093254089 0.5000016093254089 L 8.949021339416504 0.5000016093254089 L 8.949021339416504 8.949021339416504 Z" stroke="none"/>
      <path d="M 1.000001907348633 1.000001907348633 L 1.000001907348633 8.449021339416504 L 8.449021339416504 8.449021339416504 L 8.449021339416504 1.000001907348633 L 1.000001907348633 1.000001907348633 M 1.9073486328125e-06 1.9073486328125e-06 L 9.449021339416504 1.9073486328125e-06 L 9.449021339416504 9.449021339416504 L 1.9073486328125e-06 9.449021339416504 L 1.9073486328125e-06 1.9073486328125e-06 Z" stroke="none" fill="#707070"/>
    </g>
    <path id="Trazado_819754" data-name="Trazado 819754" d="M-49.693-1.026A2.382,2.382,0,0,1-50.8-.175a4.48,4.48,0,0,1-1.657.282,3.213,3.213,0,0,1-1.7-.448A2.988,2.988,0,0,1-55.3-1.617a4.406,4.406,0,0,1-.416-1.917v-.682A4.113,4.113,0,0,1-54.9-6.956a2.873,2.873,0,0,1,2.318-.972,2.967,2.967,0,0,1,1.971.626,2.726,2.726,0,0,1,.913,1.775h-1.031a1.705,1.705,0,0,0-1.848-1.558,1.826,1.826,0,0,0-1.571.728,3.556,3.556,0,0,0-.54,2.11v.64a3.333,3.333,0,0,0,.6,2.094,1.95,1.95,0,0,0,1.627.777,3.6,3.6,0,0,0,1.015-.129,1.57,1.57,0,0,0,.72-.434V-3.051h-1.81v-.843h2.836ZM-44.542,0a2.087,2.087,0,0,1-.14-.612,2.217,2.217,0,0,1-1.654.72,2.051,2.051,0,0,1-1.41-.486A1.573,1.573,0,0,1-48.3-1.611a1.643,1.643,0,0,1,.69-1.41,3.254,3.254,0,0,1,1.942-.5h.967V-3.98a1.116,1.116,0,0,0-.312-.83,1.252,1.252,0,0,0-.918-.309,1.449,1.449,0,0,0-.892.269.791.791,0,0,0-.36.65h-1a1.371,1.371,0,0,1,.309-.841,2.108,2.108,0,0,1,.838-.642,2.819,2.819,0,0,1,1.163-.236,2.3,2.3,0,0,1,1.574.5A1.812,1.812,0,0,1-43.7-4.034v2.675a3.27,3.27,0,0,0,.2,1.273V0Zm-1.649-.757A1.746,1.746,0,0,0-45.305-1a1.462,1.462,0,0,0,.607-.628V-2.82h-.779q-1.826,0-1.826,1.069a.9.9,0,0,0,.312.73A1.2,1.2,0,0,0-46.191-.757Zm7.428-.784a.731.731,0,0,0-.3-.626,2.921,2.921,0,0,0-1.058-.384,5,5,0,0,1-1.2-.387,1.7,1.7,0,0,1-.655-.537,1.285,1.285,0,0,1-.212-.741,1.508,1.508,0,0,1,.6-1.208,2.36,2.36,0,0,1,1.544-.494,2.428,2.428,0,0,1,1.6.51A1.621,1.621,0,0,1-37.823-4.1h-1a.9.9,0,0,0-.346-.7,1.3,1.3,0,0,0-.873-.3,1.359,1.359,0,0,0-.849.236.744.744,0,0,0-.306.618.6.6,0,0,0,.285.542,3.5,3.5,0,0,0,1.029.349,5.359,5.359,0,0,1,1.206.4,1.759,1.759,0,0,1,.685.556,1.367,1.367,0,0,1,.223.792,1.487,1.487,0,0,1-.623,1.249,2.613,2.613,0,0,1-1.617.47A2.926,2.926,0,0,1-41.245-.14a2.009,2.009,0,0,1-.841-.69,1.663,1.663,0,0,1-.3-.959h.994a1.029,1.029,0,0,0,.4.792,1.552,1.552,0,0,0,.986.293A1.6,1.6,0,0,0-39.1-.932.7.7,0,0,0-38.763-1.542Zm3.636-5.677v1.407h1.085v.768h-1.085v3.609a.807.807,0,0,0,.145.524.61.61,0,0,0,.494.175A2.406,2.406,0,0,0-34.015-.8V0a2.9,2.9,0,0,1-.763.107,1.237,1.237,0,0,1-1-.4,1.731,1.731,0,0,1-.338-1.144v-3.6h-1.058v-.768h1.058V-7.219Zm1.875,4.259A3.433,3.433,0,0,1-32.917-4.5a2.5,2.5,0,0,1,.935-1.053,2.544,2.544,0,0,1,1.367-.371A2.451,2.451,0,0,1-28.7-5.1a3.162,3.162,0,0,1,.733,2.186v.07a3.462,3.462,0,0,1-.325,1.523,2.467,2.467,0,0,1-.929,1.05A2.573,2.573,0,0,1-30.6.107a2.445,2.445,0,0,1-1.915-.822,3.146,3.146,0,0,1-.733-2.175Zm1,.118A2.486,2.486,0,0,0-31.8-1.289,1.435,1.435,0,0,0-30.6-.7,1.427,1.427,0,0,0-29.4-1.3a2.719,2.719,0,0,0,.446-1.662,2.482,2.482,0,0,0-.454-1.55A1.443,1.443,0,0,0-30.615-5.1a1.427,1.427,0,0,0-1.187.585A2.7,2.7,0,0,0-32.253-2.841Zm8.921,1.3a.732.732,0,0,0-.3-.626,2.921,2.921,0,0,0-1.058-.384,5,5,0,0,1-1.2-.387,1.7,1.7,0,0,1-.655-.537,1.285,1.285,0,0,1-.212-.741,1.508,1.508,0,0,1,.6-1.208,2.36,2.36,0,0,1,1.544-.494,2.428,2.428,0,0,1,1.6.51A1.621,1.621,0,0,1-22.392-4.1h-1a.9.9,0,0,0-.346-.7,1.3,1.3,0,0,0-.873-.3,1.358,1.358,0,0,0-.849.236.744.744,0,0,0-.306.618.6.6,0,0,0,.285.542,3.5,3.5,0,0,0,1.029.349,5.359,5.359,0,0,1,1.206.4,1.759,1.759,0,0,1,.685.556,1.367,1.367,0,0,1,.223.792,1.487,1.487,0,0,1-.623,1.249,2.613,2.613,0,0,1-1.617.47A2.926,2.926,0,0,1-25.813-.14a2.009,2.009,0,0,1-.841-.69,1.664,1.664,0,0,1-.3-.959h.994a1.029,1.029,0,0,0,.4.792,1.552,1.552,0,0,0,.986.293,1.6,1.6,0,0,0,.905-.228A.7.7,0,0,0-23.332-1.542ZM-14.733,0a2.087,2.087,0,0,1-.14-.612,2.217,2.217,0,0,1-1.654.72,2.051,2.051,0,0,1-1.41-.486,1.573,1.573,0,0,1-.551-1.233,1.643,1.643,0,0,1,.69-1.41,3.254,3.254,0,0,1,1.942-.5h.967V-3.98a1.116,1.116,0,0,0-.312-.83,1.252,1.252,0,0,0-.918-.309,1.449,1.449,0,0,0-.892.269.791.791,0,0,0-.36.65h-1a1.371,1.371,0,0,1,.309-.841,2.108,2.108,0,0,1,.838-.642,2.819,2.819,0,0,1,1.163-.236,2.3,2.3,0,0,1,1.574.5A1.812,1.812,0,0,1-13.9-4.034v2.675a3.27,3.27,0,0,0,.2,1.273V0Zm-1.649-.757A1.746,1.746,0,0,0-15.5-1a1.462,1.462,0,0,0,.607-.628V-2.82h-.779q-1.826,0-1.826,1.069a.9.9,0,0,0,.312.73A1.2,1.2,0,0,0-16.382-.757Zm3.8-2.2a3.4,3.4,0,0,1,.634-2.151,2,2,0,0,1,1.66-.814,2.016,2.016,0,0,1,1.617.7V-8.25h.994V0h-.913l-.048-.623a2.024,2.024,0,0,1-1.66.73A1.985,1.985,0,0,1-11.943-.72a3.443,3.443,0,0,1-.636-2.159Zm.994.113a2.578,2.578,0,0,0,.408,1.547,1.32,1.32,0,0,0,1.128.559,1.45,1.45,0,0,0,1.38-.849V-4.254a1.461,1.461,0,0,0-1.37-.822,1.326,1.326,0,0,0-1.139.564A2.838,2.838,0,0,0-11.585-2.841ZM-5.2-5.812l.027.645a2.146,2.146,0,0,1,1.724-.752,1.662,1.662,0,0,1,1.66.935,2.2,2.2,0,0,1,.755-.677,2.229,2.229,0,0,1,1.1-.258q1.912,0,1.944,2.025V0H1.015V-3.835A1.334,1.334,0,0,0,.73-4.767a1.254,1.254,0,0,0-.956-.309,1.318,1.318,0,0,0-.918.33,1.34,1.34,0,0,0-.424.889V0h-1V-3.808A1.109,1.109,0,0,0-3.808-5.076a1.329,1.329,0,0,0-1.337.833V0h-.994V-5.812ZM4.587,0H3.593V-5.812h.994ZM3.513-7.353a.593.593,0,0,1,.148-.408A.555.555,0,0,1,4.1-7.928a.563.563,0,0,1,.44.167.587.587,0,0,1,.15.408.568.568,0,0,1-.15.4.573.573,0,0,1-.44.161A.565.565,0,0,1,3.66-6.95.573.573,0,0,1,3.513-7.353Zm3.6,1.542.032.73a2.118,2.118,0,0,1,1.74-.838q1.842,0,1.858,2.079V0H9.754V-3.846a1.338,1.338,0,0,0-.287-.929,1.152,1.152,0,0,0-.878-.3,1.434,1.434,0,0,0-.849.258,1.751,1.751,0,0,0-.569.677V0H6.177V-5.812ZM13.326,0h-.994V-5.812h.994ZM12.251-7.353a.593.593,0,0,1,.148-.408.555.555,0,0,1,.438-.167.563.563,0,0,1,.44.167.587.587,0,0,1,.15.408.568.568,0,0,1-.15.4.573.573,0,0,1-.44.161A.565.565,0,0,1,12.4-6.95.573.573,0,0,1,12.251-7.353ZM18.3-1.542a.732.732,0,0,0-.3-.626,2.921,2.921,0,0,0-1.058-.384,5,5,0,0,1-1.2-.387,1.7,1.7,0,0,1-.655-.537,1.285,1.285,0,0,1-.212-.741,1.508,1.508,0,0,1,.6-1.208,2.36,2.36,0,0,1,1.544-.494,2.428,2.428,0,0,1,1.6.51A1.621,1.621,0,0,1,19.239-4.1h-1a.9.9,0,0,0-.346-.7,1.3,1.3,0,0,0-.873-.3,1.358,1.358,0,0,0-.849.236.744.744,0,0,0-.306.618.6.6,0,0,0,.285.542,3.5,3.5,0,0,0,1.029.349,5.359,5.359,0,0,1,1.206.4,1.759,1.759,0,0,1,.685.556,1.367,1.367,0,0,1,.223.792A1.487,1.487,0,0,1,18.67-.363a2.613,2.613,0,0,1-1.617.47A2.926,2.926,0,0,1,15.818-.14a2.009,2.009,0,0,1-.841-.69,1.664,1.664,0,0,1-.3-.959h.994a1.029,1.029,0,0,0,.4.792,1.552,1.552,0,0,0,.986.293,1.6,1.6,0,0,0,.905-.228A.7.7,0,0,0,18.3-1.542Zm3.636-5.677v1.407h1.085v.768H21.936v3.609a.807.807,0,0,0,.145.524.61.61,0,0,0,.494.175A2.406,2.406,0,0,0,23.047-.8V0a2.9,2.9,0,0,1-.763.107,1.237,1.237,0,0,1-1-.4,1.731,1.731,0,0,1-.338-1.144v-3.6H19.884v-.768h1.058V-7.219Zm5.054,2.3a2.978,2.978,0,0,0-.489-.038,1.309,1.309,0,0,0-1.327.833V0h-.994V-5.812h.967l.016.671a1.547,1.547,0,0,1,1.386-.779,1.015,1.015,0,0,1,.44.075ZM31.276,0a2.087,2.087,0,0,1-.14-.612,2.217,2.217,0,0,1-1.654.72,2.051,2.051,0,0,1-1.41-.486,1.573,1.573,0,0,1-.551-1.233,1.643,1.643,0,0,1,.69-1.41,3.254,3.254,0,0,1,1.942-.5h.967V-3.98a1.116,1.116,0,0,0-.312-.83,1.252,1.252,0,0,0-.918-.309A1.449,1.449,0,0,0,29-4.85a.791.791,0,0,0-.36.65h-1a1.371,1.371,0,0,1,.309-.841,2.108,2.108,0,0,1,.838-.642,2.819,2.819,0,0,1,1.163-.236,2.3,2.3,0,0,1,1.574.5,1.812,1.812,0,0,1,.591,1.383v2.675a3.27,3.27,0,0,0,.2,1.273V0ZM29.627-.757A1.746,1.746,0,0,0,30.513-1a1.462,1.462,0,0,0,.607-.628V-2.82h-.779q-1.826,0-1.826,1.069a.9.9,0,0,0,.312.73A1.2,1.2,0,0,0,29.627-.757ZM35.02-7.219v1.407H36.1v.768H35.02v3.609a.807.807,0,0,0,.145.524.61.61,0,0,0,.494.175A2.406,2.406,0,0,0,36.131-.8V0a2.9,2.9,0,0,1-.763.107,1.237,1.237,0,0,1-1-.4,1.731,1.731,0,0,1-.338-1.144v-3.6H32.968v-.768h1.058V-7.219ZM38.344,0h-.994V-5.812h.994ZM37.27-7.353a.593.593,0,0,1,.148-.408.555.555,0,0,1,.438-.167.563.563,0,0,1,.44.167.587.587,0,0,1,.15.408.568.568,0,0,1-.15.4.573.573,0,0,1-.44.161.565.565,0,0,1-.438-.161A.573.573,0,0,1,37.27-7.353Zm4.582,6,1.439-4.463h1.015L42.222,0h-.757L39.359-5.812h1.015Zm3.067-1.611A3.433,3.433,0,0,1,45.254-4.5a2.5,2.5,0,0,1,.935-1.053,2.544,2.544,0,0,1,1.367-.371,2.451,2.451,0,0,1,1.92.822,3.162,3.162,0,0,1,.733,2.186v.07a3.463,3.463,0,0,1-.325,1.523,2.467,2.467,0,0,1-.929,1.05,2.573,2.573,0,0,1-1.388.376,2.445,2.445,0,0,1-1.915-.822,3.146,3.146,0,0,1-.733-2.175Zm1,.118a2.486,2.486,0,0,0,.448,1.552,1.435,1.435,0,0,0,1.2.585,1.427,1.427,0,0,0,1.2-.594,2.719,2.719,0,0,0,.446-1.662,2.482,2.482,0,0,0-.454-1.55A1.443,1.443,0,0,0,47.556-5.1a1.427,1.427,0,0,0-1.187.585A2.7,2.7,0,0,0,45.917-2.841Zm8.921,1.3a.731.731,0,0,0-.3-.626,2.921,2.921,0,0,0-1.058-.384,5,5,0,0,1-1.2-.387,1.7,1.7,0,0,1-.655-.537,1.285,1.285,0,0,1-.212-.741,1.508,1.508,0,0,1,.6-1.208,2.36,2.36,0,0,1,1.544-.494,2.428,2.428,0,0,1,1.6.51A1.621,1.621,0,0,1,55.779-4.1h-1a.9.9,0,0,0-.346-.7,1.3,1.3,0,0,0-.873-.3,1.359,1.359,0,0,0-.849.236.744.744,0,0,0-.306.618.6.6,0,0,0,.285.542,3.5,3.5,0,0,0,1.029.349,5.359,5.359,0,0,1,1.206.4,1.759,1.759,0,0,1,.685.556,1.367,1.367,0,0,1,.223.792,1.487,1.487,0,0,1-.623,1.249,2.613,2.613,0,0,1-1.617.47A2.926,2.926,0,0,1,52.357-.14a2.009,2.009,0,0,1-.841-.69,1.663,1.663,0,0,1-.3-.959h.994a1.029,1.029,0,0,0,.4.792,1.552,1.552,0,0,0,.986.293A1.6,1.6,0,0,0,54.5-.932.7.7,0,0,0,54.839-1.542Z" transform="translate(-7818.308 -3440.288)" fill="#12263f"/>
    <g id="Trazado_819755" data-name="Trazado 819755" transform="translate(-7892.347 -3447.397)" fill="#dbf9bd">
      <path d="M 8.949021339416504 8.949021339416504 L 0.5000016093254089 8.949021339416504 L 0.5000016093254089 0.5000016093254089 L 8.949021339416504 0.5000016093254089 L 8.949021339416504 8.949021339416504 Z" stroke="none"/>
      <path d="M 1.000001907348633 1.000001907348633 L 1.000001907348633 8.449021339416504 L 8.449021339416504 8.449021339416504 L 8.449021339416504 1.000001907348633 L 1.000001907348633 1.000001907348633 M 1.9073486328125e-06 1.9073486328125e-06 L 9.449021339416504 1.9073486328125e-06 L 9.449021339416504 9.449021339416504 L 1.9073486328125e-06 9.449021339416504 L 1.9073486328125e-06 1.9073486328125e-06 Z" stroke="none" fill="#707070"/>
    </g>
    <path id="Trazado_819756" data-name="Trazado 819756" d="M-35.549-1.026a2.382,2.382,0,0,1-1.109.851,4.48,4.48,0,0,1-1.657.282,3.213,3.213,0,0,1-1.7-.448,2.988,2.988,0,0,1-1.147-1.276,4.406,4.406,0,0,1-.416-1.917v-.682a4.113,4.113,0,0,1,.824-2.739,2.873,2.873,0,0,1,2.318-.972,2.967,2.967,0,0,1,1.971.626,2.726,2.726,0,0,1,.913,1.775H-36.58a1.705,1.705,0,0,0-1.848-1.558A1.826,1.826,0,0,0-40-6.356a3.556,3.556,0,0,0-.54,2.11v.64a3.333,3.333,0,0,0,.6,2.094,1.95,1.95,0,0,0,1.627.777,3.6,3.6,0,0,0,1.015-.129,1.57,1.57,0,0,0,.72-.434V-3.051h-1.81v-.843h2.836ZM-30.4,0a2.087,2.087,0,0,1-.14-.612,2.217,2.217,0,0,1-1.654.72A2.051,2.051,0,0,1-33.6-.379a1.573,1.573,0,0,1-.551-1.233,1.643,1.643,0,0,1,.69-1.41,3.254,3.254,0,0,1,1.942-.5h.967V-3.98a1.116,1.116,0,0,0-.312-.83,1.252,1.252,0,0,0-.918-.309,1.449,1.449,0,0,0-.892.269.791.791,0,0,0-.36.65h-1a1.371,1.371,0,0,1,.309-.841,2.108,2.108,0,0,1,.838-.642,2.819,2.819,0,0,1,1.163-.236,2.3,2.3,0,0,1,1.574.5,1.812,1.812,0,0,1,.591,1.383v2.675a3.27,3.27,0,0,0,.2,1.273V0Zm-1.649-.757A1.746,1.746,0,0,0-31.16-1a1.462,1.462,0,0,0,.607-.628V-2.82h-.779q-1.826,0-1.826,1.069a.9.9,0,0,0,.312.73A1.2,1.2,0,0,0-32.047-.757Zm7.428-.784a.732.732,0,0,0-.3-.626,2.921,2.921,0,0,0-1.058-.384,5,5,0,0,1-1.2-.387,1.7,1.7,0,0,1-.655-.537,1.285,1.285,0,0,1-.212-.741,1.508,1.508,0,0,1,.6-1.208A2.36,2.36,0,0,1-25.9-5.919a2.428,2.428,0,0,1,1.6.51A1.621,1.621,0,0,1-23.678-4.1h-1a.9.9,0,0,0-.346-.7,1.3,1.3,0,0,0-.873-.3,1.358,1.358,0,0,0-.849.236.744.744,0,0,0-.306.618.6.6,0,0,0,.285.542,3.5,3.5,0,0,0,1.029.349,5.359,5.359,0,0,1,1.206.4,1.759,1.759,0,0,1,.685.556,1.367,1.367,0,0,1,.223.792,1.487,1.487,0,0,1-.623,1.249,2.613,2.613,0,0,1-1.617.47A2.926,2.926,0,0,1-27.1-.14a2.009,2.009,0,0,1-.841-.69,1.664,1.664,0,0,1-.3-.959h.994a1.029,1.029,0,0,0,.4.792,1.552,1.552,0,0,0,.986.293,1.6,1.6,0,0,0,.905-.228A.7.7,0,0,0-24.618-1.542Zm3.636-5.677v1.407H-19.9v.768h-1.085v3.609a.807.807,0,0,0,.145.524.61.61,0,0,0,.494.175A2.406,2.406,0,0,0-19.87-.8V0a2.9,2.9,0,0,1-.763.107,1.237,1.237,0,0,1-1-.4,1.731,1.731,0,0,1-.338-1.144v-3.6h-1.058v-.768h1.058V-7.219Zm1.875,4.259A3.433,3.433,0,0,1-18.772-4.5a2.5,2.5,0,0,1,.935-1.053,2.544,2.544,0,0,1,1.367-.371,2.451,2.451,0,0,1,1.92.822,3.162,3.162,0,0,1,.733,2.186v.07a3.462,3.462,0,0,1-.325,1.523,2.467,2.467,0,0,1-.929,1.05A2.573,2.573,0,0,1-16.46.107a2.445,2.445,0,0,1-1.915-.822,3.146,3.146,0,0,1-.733-2.175Zm1,.118a2.486,2.486,0,0,0,.448,1.552,1.435,1.435,0,0,0,1.2.585,1.427,1.427,0,0,0,1.2-.594,2.719,2.719,0,0,0,.446-1.662,2.482,2.482,0,0,0-.454-1.55A1.443,1.443,0,0,0-16.47-5.1a1.427,1.427,0,0,0-1.187.585A2.7,2.7,0,0,0-18.109-2.841Zm8.921,1.3a.731.731,0,0,0-.3-.626,2.921,2.921,0,0,0-1.058-.384,5,5,0,0,1-1.2-.387,1.7,1.7,0,0,1-.655-.537,1.285,1.285,0,0,1-.212-.741,1.508,1.508,0,0,1,.6-1.208,2.36,2.36,0,0,1,1.544-.494,2.428,2.428,0,0,1,1.6.51A1.621,1.621,0,0,1-8.247-4.1h-1a.9.9,0,0,0-.346-.7,1.3,1.3,0,0,0-.873-.3,1.358,1.358,0,0,0-.849.236.744.744,0,0,0-.306.618.6.6,0,0,0,.285.542,3.5,3.5,0,0,0,1.029.349,5.359,5.359,0,0,1,1.206.4,1.759,1.759,0,0,1,.685.556,1.367,1.367,0,0,1,.223.792A1.487,1.487,0,0,1-8.817-.363a2.613,2.613,0,0,1-1.617.47A2.926,2.926,0,0,1-11.669-.14a2.009,2.009,0,0,1-.841-.69,1.664,1.664,0,0,1-.3-.959h.994a1.029,1.029,0,0,0,.4.792,1.552,1.552,0,0,0,.986.293,1.6,1.6,0,0,0,.905-.228A.7.7,0,0,0-9.187-1.542Zm4.77-1.413a3.4,3.4,0,0,1,.634-2.151,2,2,0,0,1,1.66-.814,2.016,2.016,0,0,1,1.617.7V-8.25H.486V0H-.427L-.475-.623a2.024,2.024,0,0,1-1.66.73A1.985,1.985,0,0,1-3.781-.72a3.443,3.443,0,0,1-.636-2.159Zm.994.113a2.578,2.578,0,0,0,.408,1.547,1.32,1.32,0,0,0,1.128.559,1.45,1.45,0,0,0,1.38-.849V-4.254a1.461,1.461,0,0,0-1.37-.822,1.326,1.326,0,0,0-1.139.564A2.838,2.838,0,0,0-3.424-2.841ZM4.439.107A2.539,2.539,0,0,1,2.516-.669a2.881,2.881,0,0,1-.741-2.076v-.183a3.487,3.487,0,0,1,.33-1.544,2.577,2.577,0,0,1,.924-1.063,2.323,2.323,0,0,1,1.286-.384,2.177,2.177,0,0,1,1.762.747,3.232,3.232,0,0,1,.628,2.138v.414H2.769a2.066,2.066,0,0,0,.5,1.388A1.579,1.579,0,0,0,4.493-.7a1.731,1.731,0,0,0,.892-.215,2.24,2.24,0,0,0,.639-.569l.607.473A2.44,2.44,0,0,1,4.439.107ZM4.316-5.1a1.325,1.325,0,0,0-1.01.438,2.128,2.128,0,0,0-.5,1.227H5.712v-.075A1.893,1.893,0,0,0,5.3-4.686,1.248,1.248,0,0,0,4.316-5.1ZM12.5-1.348l1.439-4.463H14.95L12.866,0h-.757L10-5.812h1.015ZM18.248.107a2.539,2.539,0,0,1-1.923-.776,2.881,2.881,0,0,1-.741-2.076v-.183a3.487,3.487,0,0,1,.33-1.544,2.577,2.577,0,0,1,.924-1.063,2.323,2.323,0,0,1,1.286-.384,2.177,2.177,0,0,1,1.762.747,3.232,3.232,0,0,1,.628,2.138v.414H16.578a2.066,2.066,0,0,0,.5,1.388A1.579,1.579,0,0,0,18.3-.7a1.731,1.731,0,0,0,.892-.215,2.24,2.24,0,0,0,.639-.569l.607.473A2.44,2.44,0,0,1,18.248.107ZM18.125-5.1a1.325,1.325,0,0,0-1.01.438,2.128,2.128,0,0,0-.5,1.227h2.911v-.075a1.893,1.893,0,0,0-.408-1.174A1.248,1.248,0,0,0,18.125-5.1ZM22.6-5.812l.032.73a2.118,2.118,0,0,1,1.74-.838q1.842,0,1.858,2.079V0h-.994V-3.846a1.338,1.338,0,0,0-.287-.929,1.152,1.152,0,0,0-.878-.3,1.434,1.434,0,0,0-.849.258,1.751,1.751,0,0,0-.569.677V0h-.994V-5.812Zm6.478-1.407v1.407h1.085v.768H29.082v3.609a.807.807,0,0,0,.145.524.61.61,0,0,0,.494.175A2.406,2.406,0,0,0,30.194-.8V0a2.9,2.9,0,0,1-.763.107,1.237,1.237,0,0,1-1-.4,1.731,1.731,0,0,1-.338-1.144v-3.6H27.03v-.768h1.058V-7.219ZM34.915,0a2.087,2.087,0,0,1-.14-.612,2.217,2.217,0,0,1-1.654.72,2.051,2.051,0,0,1-1.41-.486,1.573,1.573,0,0,1-.551-1.233,1.643,1.643,0,0,1,.69-1.41,3.254,3.254,0,0,1,1.942-.5h.967V-3.98a1.116,1.116,0,0,0-.312-.83,1.252,1.252,0,0,0-.918-.309,1.449,1.449,0,0,0-.892.269.791.791,0,0,0-.36.65h-1a1.371,1.371,0,0,1,.309-.841,2.108,2.108,0,0,1,.838-.642,2.819,2.819,0,0,1,1.163-.236,2.3,2.3,0,0,1,1.574.5,1.812,1.812,0,0,1,.591,1.383v2.675a3.27,3.27,0,0,0,.2,1.273V0ZM33.266-.757A1.746,1.746,0,0,0,34.152-1a1.462,1.462,0,0,0,.607-.628V-2.82H33.98q-1.826,0-1.826,1.069a.9.9,0,0,0,.312.73A1.2,1.2,0,0,0,33.266-.757Zm7.428-.784a.731.731,0,0,0-.3-.626,2.921,2.921,0,0,0-1.058-.384,5,5,0,0,1-1.2-.387,1.7,1.7,0,0,1-.655-.537,1.285,1.285,0,0,1-.212-.741,1.508,1.508,0,0,1,.6-1.208,2.36,2.36,0,0,1,1.544-.494,2.428,2.428,0,0,1,1.6.51A1.621,1.621,0,0,1,41.634-4.1h-1a.9.9,0,0,0-.346-.7,1.3,1.3,0,0,0-.873-.3,1.359,1.359,0,0,0-.849.236.744.744,0,0,0-.306.618.6.6,0,0,0,.285.542,3.5,3.5,0,0,0,1.029.349,5.359,5.359,0,0,1,1.206.4,1.759,1.759,0,0,1,.685.556,1.367,1.367,0,0,1,.223.792,1.487,1.487,0,0,1-.623,1.249,2.613,2.613,0,0,1-1.617.47A2.926,2.926,0,0,1,38.213-.14a2.009,2.009,0,0,1-.841-.69,1.663,1.663,0,0,1-.3-.959h.994a1.029,1.029,0,0,0,.4.792,1.552,1.552,0,0,0,.986.293,1.6,1.6,0,0,0,.905-.228A.7.7,0,0,0,40.694-1.542Z" transform="translate(-7666.251 -3440.288)" fill="#12263f"/>
    <g id="Trazado_819757" data-name="Trazado 819757" transform="translate(-7725.432 -3447.397)" fill="#c3a7a3">
      <path d="M 8.949021339416504 8.949021339416504 L 0.5000016093254089 8.949021339416504 L 0.5000016093254089 0.5000016093254089 L 8.949021339416504 0.5000016093254089 L 8.949021339416504 8.949021339416504 Z" stroke="none"/>
      <path d="M 1.000001907348633 1.000001907348633 L 1.000001907348633 8.449021339416504 L 8.449021339416504 8.449021339416504 L 8.449021339416504 1.000001907348633 L 1.000001907348633 1.000001907348633 M 1.9073486328125e-06 1.9073486328125e-06 L 9.449021339416504 1.9073486328125e-06 L 9.449021339416504 9.449021339416504 L 1.9073486328125e-06 9.449021339416504 L 1.9073486328125e-06 1.9073486328125e-06 Z" stroke="none" fill="#707070"/>
    </g>
    <path id="Trazado_819758" data-name="Trazado 819758" d="M-38.983-1.026a2.382,2.382,0,0,1-1.109.851A4.48,4.48,0,0,1-41.75.107a3.213,3.213,0,0,1-1.7-.448,2.988,2.988,0,0,1-1.147-1.276,4.406,4.406,0,0,1-.416-1.917v-.682a4.113,4.113,0,0,1,.824-2.739,2.873,2.873,0,0,1,2.318-.972A2.967,2.967,0,0,1-39.9-7.3a2.726,2.726,0,0,1,.913,1.775h-1.031a1.705,1.705,0,0,0-1.848-1.558,1.826,1.826,0,0,0-1.571.728,3.556,3.556,0,0,0-.54,2.11v.64a3.333,3.333,0,0,0,.6,2.094,1.95,1.95,0,0,0,1.627.777,3.6,3.6,0,0,0,1.015-.129,1.57,1.57,0,0,0,.72-.434V-3.051h-1.81v-.843h2.836ZM-33.833,0a2.087,2.087,0,0,1-.14-.612,2.217,2.217,0,0,1-1.654.72,2.051,2.051,0,0,1-1.41-.486,1.573,1.573,0,0,1-.551-1.233,1.643,1.643,0,0,1,.69-1.41,3.254,3.254,0,0,1,1.942-.5h.967V-3.98a1.116,1.116,0,0,0-.312-.83,1.252,1.252,0,0,0-.918-.309,1.449,1.449,0,0,0-.892.269.791.791,0,0,0-.36.65h-1a1.371,1.371,0,0,1,.309-.841,2.108,2.108,0,0,1,.838-.642,2.819,2.819,0,0,1,1.163-.236,2.3,2.3,0,0,1,1.574.5,1.812,1.812,0,0,1,.591,1.383v2.675a3.27,3.27,0,0,0,.2,1.273V0Zm-1.649-.757A1.746,1.746,0,0,0-34.6-1a1.462,1.462,0,0,0,.607-.628V-2.82h-.779q-1.826,0-1.826,1.069a.9.9,0,0,0,.312.73A1.2,1.2,0,0,0-35.481-.757Zm7.428-.784a.732.732,0,0,0-.3-.626,2.921,2.921,0,0,0-1.058-.384,5,5,0,0,1-1.2-.387,1.7,1.7,0,0,1-.655-.537,1.285,1.285,0,0,1-.212-.741,1.508,1.508,0,0,1,.6-1.208,2.36,2.36,0,0,1,1.544-.494,2.428,2.428,0,0,1,1.6.51A1.621,1.621,0,0,1-27.113-4.1h-1a.9.9,0,0,0-.346-.7,1.3,1.3,0,0,0-.873-.3,1.358,1.358,0,0,0-.849.236.744.744,0,0,0-.306.618.6.6,0,0,0,.285.542,3.5,3.5,0,0,0,1.029.349,5.359,5.359,0,0,1,1.206.4,1.759,1.759,0,0,1,.685.556,1.367,1.367,0,0,1,.223.792,1.487,1.487,0,0,1-.623,1.249A2.613,2.613,0,0,1-29.3.107,2.926,2.926,0,0,1-30.535-.14a2.009,2.009,0,0,1-.841-.69,1.664,1.664,0,0,1-.3-.959h.994a1.029,1.029,0,0,0,.4.792A1.552,1.552,0,0,0-29.3-.7a1.6,1.6,0,0,0,.905-.228A.7.7,0,0,0-28.053-1.542Zm3.636-5.677v1.407h1.085v.768h-1.085v3.609a.807.807,0,0,0,.145.524.61.61,0,0,0,.494.175A2.406,2.406,0,0,0-23.305-.8V0a2.9,2.9,0,0,1-.763.107,1.237,1.237,0,0,1-1-.4,1.731,1.731,0,0,1-.338-1.144v-3.6h-1.058v-.768h1.058V-7.219Zm1.875,4.259A3.433,3.433,0,0,1-22.207-4.5a2.5,2.5,0,0,1,.935-1.053,2.544,2.544,0,0,1,1.367-.371,2.451,2.451,0,0,1,1.92.822,3.162,3.162,0,0,1,.733,2.186v.07a3.462,3.462,0,0,1-.325,1.523,2.467,2.467,0,0,1-.929,1.05,2.573,2.573,0,0,1-1.388.376,2.445,2.445,0,0,1-1.915-.822,3.146,3.146,0,0,1-.733-2.175Zm1,.118a2.486,2.486,0,0,0,.448,1.552,1.435,1.435,0,0,0,1.2.585,1.427,1.427,0,0,0,1.2-.594,2.719,2.719,0,0,0,.446-1.662,2.482,2.482,0,0,0-.454-1.55A1.443,1.443,0,0,0-19.905-5.1a1.427,1.427,0,0,0-1.187.585A2.7,2.7,0,0,0-21.543-2.841Zm8.921,1.3a.731.731,0,0,0-.3-.626,2.921,2.921,0,0,0-1.058-.384,5,5,0,0,1-1.2-.387,1.7,1.7,0,0,1-.655-.537,1.285,1.285,0,0,1-.212-.741,1.508,1.508,0,0,1,.6-1.208A2.36,2.36,0,0,1-13.9-5.919a2.428,2.428,0,0,1,1.6.51A1.621,1.621,0,0,1-11.682-4.1h-1a.9.9,0,0,0-.346-.7,1.3,1.3,0,0,0-.873-.3,1.358,1.358,0,0,0-.849.236.744.744,0,0,0-.306.618.6.6,0,0,0,.285.542,3.5,3.5,0,0,0,1.029.349,5.359,5.359,0,0,1,1.206.4,1.759,1.759,0,0,1,.685.556,1.367,1.367,0,0,1,.223.792,1.487,1.487,0,0,1-.623,1.249,2.613,2.613,0,0,1-1.617.47A2.926,2.926,0,0,1-15.1-.14a2.009,2.009,0,0,1-.841-.69,1.664,1.664,0,0,1-.3-.959h.994a1.029,1.029,0,0,0,.4.792,1.552,1.552,0,0,0,.986.293,1.6,1.6,0,0,0,.905-.228A.7.7,0,0,0-12.622-1.542ZM-7.278,0V-5.043H-8.2v-.768h.918v-.494A2.019,2.019,0,0,1-6.722-7.82a2.156,2.156,0,0,1,1.571-.542,4.731,4.731,0,0,1,1.52.328L-3.8-7.2a3.443,3.443,0,0,0-1.278-.269A1.251,1.251,0,0,0-6-7.178a1.185,1.185,0,0,0-.282.862v.5h1.187v.768H-6.279V0Zm4.141,0h-1V-5.812h1ZM-.58-5.812l.032.73a2.118,2.118,0,0,1,1.74-.838q1.842,0,1.858,2.079V0H2.057V-3.846a1.338,1.338,0,0,0-.287-.929,1.152,1.152,0,0,0-.878-.3,1.434,1.434,0,0,0-.849.258,1.751,1.751,0,0,0-.569.677V0H-1.52V-5.812ZM8.137,0A2.087,2.087,0,0,1,8-.612a2.217,2.217,0,0,1-1.654.72,2.051,2.051,0,0,1-1.41-.486,1.573,1.573,0,0,1-.551-1.233,1.643,1.643,0,0,1,.69-1.41,3.254,3.254,0,0,1,1.942-.5h.967V-3.98a1.116,1.116,0,0,0-.312-.83,1.252,1.252,0,0,0-.918-.309,1.449,1.449,0,0,0-.892.269.791.791,0,0,0-.36.65h-1a1.371,1.371,0,0,1,.309-.841,2.108,2.108,0,0,1,.838-.642,2.819,2.819,0,0,1,1.163-.236,2.3,2.3,0,0,1,1.574.5,1.812,1.812,0,0,1,.591,1.383v2.675a3.27,3.27,0,0,0,.2,1.273V0ZM6.488-.757A1.746,1.746,0,0,0,7.375-1a1.462,1.462,0,0,0,.607-.628V-2.82H7.2q-1.826,0-1.826,1.069a.9.9,0,0,0,.312.73A1.2,1.2,0,0,0,6.488-.757Zm4.984-5.054.032.73a2.118,2.118,0,0,1,1.74-.838q1.842,0,1.858,2.079V0H14.11V-3.846a1.338,1.338,0,0,0-.287-.929,1.152,1.152,0,0,0-.878-.3,1.434,1.434,0,0,0-.849.258,1.751,1.751,0,0,0-.569.677V0h-.994V-5.812ZM18.933-.7a1.431,1.431,0,0,0,.929-.322,1.134,1.134,0,0,0,.44-.806h.94a1.8,1.8,0,0,1-.344.951,2.264,2.264,0,0,1-.846.72,2.441,2.441,0,0,1-1.12.269,2.394,2.394,0,0,1-1.888-.792,3.155,3.155,0,0,1-.7-2.167v-.167a3.5,3.5,0,0,1,.312-1.509,2.373,2.373,0,0,1,.894-1.026,2.54,2.54,0,0,1,1.378-.365,2.331,2.331,0,0,1,1.625.585,2.092,2.092,0,0,1,.69,1.52H20.3a1.369,1.369,0,0,0-.427-.927,1.328,1.328,0,0,0-.948-.363,1.391,1.391,0,0,0-1.174.545,2.56,2.56,0,0,0-.416,1.576v.188a2.509,2.509,0,0,0,.414,1.547A1.4,1.4,0,0,0,18.933-.7Zm4.506.7h-.994V-5.812h.994ZM22.365-7.353a.593.593,0,0,1,.148-.408.555.555,0,0,1,.438-.167.563.563,0,0,1,.44.167.587.587,0,0,1,.15.408.568.568,0,0,1-.15.4.573.573,0,0,1-.44.161.565.565,0,0,1-.438-.161A.573.573,0,0,1,22.365-7.353ZM27.441.107a2.539,2.539,0,0,1-1.923-.776,2.881,2.881,0,0,1-.741-2.076v-.183a3.487,3.487,0,0,1,.33-1.544,2.577,2.577,0,0,1,.924-1.063,2.323,2.323,0,0,1,1.286-.384,2.177,2.177,0,0,1,1.762.747,3.232,3.232,0,0,1,.628,2.138v.414H25.771a2.066,2.066,0,0,0,.5,1.388A1.579,1.579,0,0,0,27.495-.7a1.731,1.731,0,0,0,.892-.215,2.24,2.24,0,0,0,.639-.569l.607.473A2.44,2.44,0,0,1,27.441.107ZM27.317-5.1a1.325,1.325,0,0,0-1.01.438,2.128,2.128,0,0,0-.5,1.227h2.911v-.075a1.893,1.893,0,0,0-.408-1.174A1.248,1.248,0,0,0,27.317-5.1Zm6.349.183a2.978,2.978,0,0,0-.489-.038,1.309,1.309,0,0,0-1.327.833V0h-.994V-5.812h.967l.016.671a1.547,1.547,0,0,1,1.386-.779,1.015,1.015,0,0,1,.44.075Zm.542,1.96A3.433,3.433,0,0,1,34.544-4.5a2.5,2.5,0,0,1,.935-1.053,2.544,2.544,0,0,1,1.367-.371,2.451,2.451,0,0,1,1.92.822A3.162,3.162,0,0,1,39.5-2.911v.07a3.463,3.463,0,0,1-.325,1.523,2.467,2.467,0,0,1-.929,1.05,2.573,2.573,0,0,1-1.388.376,2.445,2.445,0,0,1-1.915-.822,3.146,3.146,0,0,1-.733-2.175Zm1,.118a2.486,2.486,0,0,0,.448,1.552,1.435,1.435,0,0,0,1.2.585,1.427,1.427,0,0,0,1.2-.594,2.719,2.719,0,0,0,.446-1.662,2.482,2.482,0,0,0-.454-1.55A1.443,1.443,0,0,0,36.846-5.1a1.427,1.427,0,0,0-1.187.585A2.7,2.7,0,0,0,35.208-2.841Zm8.921,1.3a.731.731,0,0,0-.3-.626,2.921,2.921,0,0,0-1.058-.384,5,5,0,0,1-1.2-.387,1.7,1.7,0,0,1-.655-.537,1.285,1.285,0,0,1-.212-.741,1.508,1.508,0,0,1,.6-1.208,2.36,2.36,0,0,1,1.544-.494,2.428,2.428,0,0,1,1.6.51A1.621,1.621,0,0,1,45.069-4.1h-1a.9.9,0,0,0-.346-.7,1.3,1.3,0,0,0-.873-.3A1.359,1.359,0,0,0,42-4.866a.744.744,0,0,0-.306.618.6.6,0,0,0,.285.542,3.5,3.5,0,0,0,1.029.349,5.359,5.359,0,0,1,1.206.4A1.759,1.759,0,0,1,44.9-2.4a1.367,1.367,0,0,1,.223.792A1.487,1.487,0,0,1,44.5-.363a2.613,2.613,0,0,1-1.617.47A2.926,2.926,0,0,1,41.647-.14a2.009,2.009,0,0,1-.841-.69,1.663,1.663,0,0,1-.3-.959H41.5A1.029,1.029,0,0,0,41.9-1a1.552,1.552,0,0,0,.986.293,1.6,1.6,0,0,0,.905-.228A.7.7,0,0,0,44.129-1.542Z" transform="translate(-7985.236 -3415.377)" fill="#12263f"/>
    <g id="Trazado_819759" data-name="Trazado 819759" transform="translate(-8049.275 -3422.486)" fill="#b4bb8d">
      <path d="M 8.949021339416504 8.949021339416504 L 0.5000016093254089 8.949021339416504 L 0.5000016093254089 0.5000016093254089 L 8.949021339416504 0.5000016093254089 L 8.949021339416504 8.949021339416504 Z" stroke="none"/>
      <path d="M 1.000001907348633 1.000001907348633 L 1.000001907348633 8.449021339416504 L 8.449021339416504 8.449021339416504 L 8.449021339416504 1.000001907348633 L 1.000001907348633 1.000001907348633 M 1.9073486328125e-06 1.9073486328125e-06 L 9.449021339416504 1.9073486328125e-06 L 9.449021339416504 9.449021339416504 L 1.9073486328125e-06 9.449021339416504 L 1.9073486328125e-06 1.9073486328125e-06 Z" stroke="none" fill="#707070"/>
    </g>
    <path id="Trazado_819760" data-name="Trazado 819760" d="M-47.153-1.026a2.382,2.382,0,0,1-1.109.851,4.48,4.48,0,0,1-1.657.282,3.213,3.213,0,0,1-1.7-.448,2.988,2.988,0,0,1-1.147-1.276,4.406,4.406,0,0,1-.416-1.917v-.682a4.113,4.113,0,0,1,.824-2.739,2.873,2.873,0,0,1,2.318-.972,2.967,2.967,0,0,1,1.971.626,2.726,2.726,0,0,1,.913,1.775h-1.031a1.705,1.705,0,0,0-1.848-1.558,1.826,1.826,0,0,0-1.571.728,3.556,3.556,0,0,0-.54,2.11v.64a3.333,3.333,0,0,0,.6,2.094,1.95,1.95,0,0,0,1.627.777A3.6,3.6,0,0,0-48.9-.864a1.57,1.57,0,0,0,.72-.434V-3.051h-1.81v-.843h2.836ZM-42,0a2.087,2.087,0,0,1-.14-.612A2.217,2.217,0,0,1-43.8.107a2.051,2.051,0,0,1-1.41-.486,1.573,1.573,0,0,1-.551-1.233,1.643,1.643,0,0,1,.69-1.41,3.254,3.254,0,0,1,1.942-.5h.967V-3.98a1.116,1.116,0,0,0-.312-.83,1.252,1.252,0,0,0-.918-.309,1.449,1.449,0,0,0-.892.269.791.791,0,0,0-.36.65h-1a1.371,1.371,0,0,1,.309-.841,2.108,2.108,0,0,1,.838-.642,2.819,2.819,0,0,1,1.163-.236,2.3,2.3,0,0,1,1.574.5,1.812,1.812,0,0,1,.591,1.383v2.675a3.27,3.27,0,0,0,.2,1.273V0Zm-1.649-.757A1.746,1.746,0,0,0-42.765-1a1.462,1.462,0,0,0,.607-.628V-2.82h-.779q-1.826,0-1.826,1.069a.9.9,0,0,0,.312.73A1.2,1.2,0,0,0-43.651-.757Zm7.428-.784a.731.731,0,0,0-.3-.626,2.921,2.921,0,0,0-1.058-.384,5,5,0,0,1-1.2-.387,1.7,1.7,0,0,1-.655-.537,1.285,1.285,0,0,1-.212-.741,1.508,1.508,0,0,1,.6-1.208A2.36,2.36,0,0,1-37.5-5.919a2.428,2.428,0,0,1,1.6.51A1.621,1.621,0,0,1-35.283-4.1h-1a.9.9,0,0,0-.346-.7,1.3,1.3,0,0,0-.873-.3,1.359,1.359,0,0,0-.849.236.744.744,0,0,0-.306.618.6.6,0,0,0,.285.542,3.5,3.5,0,0,0,1.029.349,5.359,5.359,0,0,1,1.206.4,1.759,1.759,0,0,1,.685.556,1.367,1.367,0,0,1,.223.792,1.487,1.487,0,0,1-.623,1.249,2.613,2.613,0,0,1-1.617.47A2.926,2.926,0,0,1-38.7-.14a2.009,2.009,0,0,1-.841-.69,1.663,1.663,0,0,1-.3-.959h.994a1.029,1.029,0,0,0,.4.792,1.552,1.552,0,0,0,.986.293,1.6,1.6,0,0,0,.905-.228A.7.7,0,0,0-36.223-1.542Zm3.636-5.677v1.407H-31.5v.768h-1.085v3.609a.807.807,0,0,0,.145.524.61.61,0,0,0,.494.175A2.406,2.406,0,0,0-31.475-.8V0a2.9,2.9,0,0,1-.763.107,1.237,1.237,0,0,1-1-.4,1.731,1.731,0,0,1-.338-1.144v-3.6h-1.058v-.768h1.058V-7.219Zm1.875,4.259A3.433,3.433,0,0,1-30.376-4.5a2.5,2.5,0,0,1,.935-1.053,2.544,2.544,0,0,1,1.367-.371,2.451,2.451,0,0,1,1.92.822,3.162,3.162,0,0,1,.733,2.186v.07a3.462,3.462,0,0,1-.325,1.523,2.467,2.467,0,0,1-.929,1.05,2.573,2.573,0,0,1-1.388.376,2.445,2.445,0,0,1-1.915-.822,3.146,3.146,0,0,1-.733-2.175Zm1,.118a2.486,2.486,0,0,0,.448,1.552,1.435,1.435,0,0,0,1.2.585,1.427,1.427,0,0,0,1.2-.594,2.719,2.719,0,0,0,.446-1.662,2.482,2.482,0,0,0-.454-1.55A1.443,1.443,0,0,0-28.075-5.1a1.427,1.427,0,0,0-1.187.585A2.7,2.7,0,0,0-29.713-2.841Zm8.921,1.3a.732.732,0,0,0-.3-.626,2.921,2.921,0,0,0-1.058-.384,5,5,0,0,1-1.2-.387,1.7,1.7,0,0,1-.655-.537,1.285,1.285,0,0,1-.212-.741,1.508,1.508,0,0,1,.6-1.208,2.36,2.36,0,0,1,1.544-.494,2.428,2.428,0,0,1,1.6.51A1.621,1.621,0,0,1-19.852-4.1h-1a.9.9,0,0,0-.346-.7,1.3,1.3,0,0,0-.873-.3,1.358,1.358,0,0,0-.849.236.744.744,0,0,0-.306.618.6.6,0,0,0,.285.542,3.5,3.5,0,0,0,1.029.349,5.359,5.359,0,0,1,1.206.4,1.759,1.759,0,0,1,.685.556,1.367,1.367,0,0,1,.223.792,1.487,1.487,0,0,1-.623,1.249,2.613,2.613,0,0,1-1.617.47A2.926,2.926,0,0,1-23.273-.14a2.009,2.009,0,0,1-.841-.69,1.664,1.664,0,0,1-.3-.959h.994a1.029,1.029,0,0,0,.4.792,1.552,1.552,0,0,0,.986.293,1.6,1.6,0,0,0,.905-.228A.7.7,0,0,0-20.792-1.542Zm9.92-1.3A3.48,3.48,0,0,1-11.478-.7a1.945,1.945,0,0,1-1.644.811,2.131,2.131,0,0,1-1.665-.671v2.8h-.994V-5.812h.908l.048.645a2.047,2.047,0,0,1,1.687-.752,1.982,1.982,0,0,1,1.657.79,3.518,3.518,0,0,1,.61,2.2Zm-.994-.113a2.568,2.568,0,0,0-.419-1.552,1.35,1.35,0,0,0-1.149-.569,1.461,1.461,0,0,0-1.354.8V-1.5A1.464,1.464,0,0,0-13.422-.7a1.343,1.343,0,0,0,1.136-.567A2.8,2.8,0,0,0-11.865-2.954Zm1.993-.005A3.433,3.433,0,0,1-9.536-4.5,2.5,2.5,0,0,1-8.6-5.548a2.544,2.544,0,0,1,1.367-.371,2.451,2.451,0,0,1,1.92.822,3.162,3.162,0,0,1,.733,2.186v.07a3.462,3.462,0,0,1-.325,1.523,2.467,2.467,0,0,1-.929,1.05A2.573,2.573,0,0,1-7.224.107,2.445,2.445,0,0,1-9.139-.714,3.146,3.146,0,0,1-9.872-2.89Zm1,.118a2.486,2.486,0,0,0,.448,1.552,1.435,1.435,0,0,0,1.2.585,1.427,1.427,0,0,0,1.2-.594,2.719,2.719,0,0,0,.446-1.662,2.482,2.482,0,0,0-.454-1.55A1.443,1.443,0,0,0-7.235-5.1a1.427,1.427,0,0,0-1.187.585A2.7,2.7,0,0,0-8.873-2.841ZM-.526-4.92a2.978,2.978,0,0,0-.489-.038,1.309,1.309,0,0,0-1.327.833V0h-.994V-5.812h.967l.016.671A1.547,1.547,0,0,1-.967-5.919a1.015,1.015,0,0,1,.44.075ZM4.189,0H3.2V-5.812h.994ZM3.115-7.353a.593.593,0,0,1,.148-.408A.555.555,0,0,1,3.7-7.928a.563.563,0,0,1,.44.167.587.587,0,0,1,.15.408.568.568,0,0,1-.15.4.573.573,0,0,1-.44.161.565.565,0,0,1-.438-.161A.573.573,0,0,1,3.115-7.353Zm3.6,1.542.027.645a2.146,2.146,0,0,1,1.724-.752,1.662,1.662,0,0,1,1.66.935,2.2,2.2,0,0,1,.755-.677,2.229,2.229,0,0,1,1.1-.258q1.912,0,1.944,2.025V0h-.994V-3.835a1.334,1.334,0,0,0-.285-.932,1.254,1.254,0,0,0-.956-.309,1.318,1.318,0,0,0-.918.33,1.34,1.34,0,0,0-.424.889V0h-1V-3.808A1.109,1.109,0,0,0,8.1-5.076a1.329,1.329,0,0,0-1.337.833V0H5.774V-5.812ZM20.33-2.841A3.48,3.48,0,0,1,19.723-.7a1.945,1.945,0,0,1-1.644.811,2.131,2.131,0,0,1-1.665-.671v2.8H15.42V-5.812h.908l.048.645a2.047,2.047,0,0,1,1.687-.752,1.982,1.982,0,0,1,1.657.79,3.518,3.518,0,0,1,.61,2.2Zm-.994-.113a2.568,2.568,0,0,0-.419-1.552,1.35,1.35,0,0,0-1.149-.569,1.461,1.461,0,0,0-1.354.8V-1.5A1.464,1.464,0,0,0,17.778-.7a1.343,1.343,0,0,0,1.136-.567A2.8,2.8,0,0,0,19.336-2.954ZM25.18-.575a2.111,2.111,0,0,1-1.7.682,1.807,1.807,0,0,1-1.415-.54,2.336,2.336,0,0,1-.491-1.6V-5.812h.994v3.754q0,1.321,1.074,1.321a1.487,1.487,0,0,0,1.515-.849V-5.812h.994V0H25.2Zm4.888.682a2.539,2.539,0,0,1-1.923-.776A2.881,2.881,0,0,1,27.4-2.745v-.183a3.487,3.487,0,0,1,.33-1.544,2.577,2.577,0,0,1,.924-1.063,2.323,2.323,0,0,1,1.286-.384,2.177,2.177,0,0,1,1.762.747,3.232,3.232,0,0,1,.628,2.138v.414H28.4a2.066,2.066,0,0,0,.5,1.388A1.579,1.579,0,0,0,30.121-.7a1.731,1.731,0,0,0,.892-.215,2.24,2.24,0,0,0,.639-.569l.607.473A2.44,2.44,0,0,1,30.067.107ZM29.944-5.1a1.325,1.325,0,0,0-1.01.438,2.128,2.128,0,0,0-.5,1.227H31.34v-.075a1.893,1.893,0,0,0-.408-1.174A1.248,1.248,0,0,0,29.944-5.1Zm6.923,3.561a.731.731,0,0,0-.3-.626,2.921,2.921,0,0,0-1.058-.384,5,5,0,0,1-1.2-.387,1.7,1.7,0,0,1-.655-.537,1.285,1.285,0,0,1-.212-.741,1.508,1.508,0,0,1,.6-1.208,2.36,2.36,0,0,1,1.544-.494,2.428,2.428,0,0,1,1.6.51A1.621,1.621,0,0,1,37.807-4.1h-1a.9.9,0,0,0-.346-.7,1.3,1.3,0,0,0-.873-.3,1.359,1.359,0,0,0-.849.236.744.744,0,0,0-.306.618.6.6,0,0,0,.285.542,3.5,3.5,0,0,0,1.029.349,5.359,5.359,0,0,1,1.206.4,1.759,1.759,0,0,1,.685.556,1.367,1.367,0,0,1,.223.792,1.487,1.487,0,0,1-.623,1.249,2.613,2.613,0,0,1-1.617.47A2.926,2.926,0,0,1,34.386-.14a2.009,2.009,0,0,1-.841-.69,1.663,1.663,0,0,1-.3-.959h.994a1.029,1.029,0,0,0,.4.792,1.552,1.552,0,0,0,.986.293,1.6,1.6,0,0,0,.905-.228A.7.7,0,0,0,36.867-1.542ZM40.5-7.219v1.407h1.085v.768H40.5v3.609a.807.807,0,0,0,.145.524.61.61,0,0,0,.494.175A2.406,2.406,0,0,0,41.615-.8V0a2.9,2.9,0,0,1-.763.107,1.237,1.237,0,0,1-1-.4,1.731,1.731,0,0,1-.338-1.144v-3.6H38.452v-.768H39.51V-7.219Zm1.875,4.259A3.433,3.433,0,0,1,42.714-4.5a2.5,2.5,0,0,1,.935-1.053,2.544,2.544,0,0,1,1.367-.371,2.451,2.451,0,0,1,1.92.822,3.162,3.162,0,0,1,.733,2.186v.07a3.463,3.463,0,0,1-.325,1.523,2.467,2.467,0,0,1-.929,1.05,2.573,2.573,0,0,1-1.388.376,2.445,2.445,0,0,1-1.915-.822,3.146,3.146,0,0,1-.733-2.175Zm1,.118a2.486,2.486,0,0,0,.448,1.552,1.435,1.435,0,0,0,1.2.585,1.427,1.427,0,0,0,1.2-.594,2.719,2.719,0,0,0,.446-1.662,2.482,2.482,0,0,0-.454-1.55A1.443,1.443,0,0,0,45.015-5.1a1.427,1.427,0,0,0-1.187.585A2.7,2.7,0,0,0,43.377-2.841Zm8.921,1.3a.731.731,0,0,0-.3-.626,2.921,2.921,0,0,0-1.058-.384,5,5,0,0,1-1.2-.387,1.7,1.7,0,0,1-.655-.537,1.285,1.285,0,0,1-.212-.741,1.508,1.508,0,0,1,.6-1.208,2.36,2.36,0,0,1,1.544-.494,2.428,2.428,0,0,1,1.6.51A1.621,1.621,0,0,1,53.238-4.1h-1a.9.9,0,0,0-.346-.7,1.3,1.3,0,0,0-.873-.3,1.359,1.359,0,0,0-.849.236.744.744,0,0,0-.306.618.6.6,0,0,0,.285.542,3.5,3.5,0,0,0,1.029.349,5.359,5.359,0,0,1,1.206.4,1.759,1.759,0,0,1,.685.556,1.367,1.367,0,0,1,.223.792,1.487,1.487,0,0,1-.623,1.249,2.613,2.613,0,0,1-1.617.47A2.926,2.926,0,0,1,49.817-.14a2.009,2.009,0,0,1-.841-.69,1.663,1.663,0,0,1-.3-.959h.994a1.029,1.029,0,0,0,.4.792,1.552,1.552,0,0,0,.986.293,1.6,1.6,0,0,0,.905-.228A.7.7,0,0,0,52.3-1.542Z" transform="translate(-7821.214 -3415.377)" fill="#12263f"/>
    <g id="Trazado_819761" data-name="Trazado 819761" transform="translate(-7892.395 -3422.486)" fill="#c4e881">
      <path d="M 8.949021339416504 8.949021339416504 L 0.5000016093254089 8.949021339416504 L 0.5000016093254089 0.5000016093254089 L 8.949021339416504 0.5000016093254089 L 8.949021339416504 8.949021339416504 Z" stroke="none"/>
      <path d="M 1.000001907348633 1.000001907348633 L 1.000001907348633 8.449021339416504 L 8.449021339416504 8.449021339416504 L 8.449021339416504 1.000001907348633 L 1.000001907348633 1.000001907348633 M 1.9073486328125e-06 1.9073486328125e-06 L 9.449021339416504 1.9073486328125e-06 L 9.449021339416504 9.449021339416504 L 1.9073486328125e-06 9.449021339416504 L 1.9073486328125e-06 1.9073486328125e-06 Z" stroke="none" fill="#707070"/>
    </g>
    <path id="Trazado_819746" data-name="Trazado 819746" d="M0,0H505V361H0Z" transform="translate(-8082 -3757.496)" fill="none"/>
  </g>
</svg>
