<svg xmlns="http://www.w3.org/2000/svg" width="505" height="951.68" viewBox="0 0 505 951.68">
  <g id="Grupo_1072687" data-name="Grupo 1072687" transform="translate(7198.136 10533)">
    <path id="Trazado_819619" data-name="Trazado 819619" d="M0,0H505V951.68H0Z" transform="translate(-7198.136 -10533)" fill="#fff"/>
    <g id="Grupo_1072579" data-name="Grupo 1072579" transform="translate(-7030.136 -10455)">
      <text id="Ofrece_una_guía_que_comprende_los_aspectos_de_mayor_relevancia_para_alcanzar_una_implementación_del_sistema_de_forma_exitosa._" data-name="Ofrece una guía que comprende los aspectos de mayor relevancia para alcanzar una implementación del sistema de forma exitosa.
" transform="translate(0 32)" fill="#12263f" font-size="16" font-family="Roboto-Regular, Roboto"><tspan x="0" y="15">Ofrece una guía que comprende los aspectos </tspan><tspan x="0" y="39">de mayor relevancia para alcanzar una </tspan><tspan x="0" y="63">implementación del sistema de forma </tspan><tspan x="0" y="87">exitosa.</tspan></text>
      <text id="ISO_27003_" data-name="ISO 27003
" fill="#12263f" font-size="16" font-family="Roboto-Bold, Roboto" font-weight="700"><tspan x="0" y="15">ISO 27003</tspan></text>
    </g>
    <g id="Grupo_1072591" data-name="Grupo 1072591" transform="translate(-7030.136 -10014)">
      <text id="Orienta_la_debida_evaluación_del_sistema_implementado_lo_que_incluye_el_establecimiento_de_métricas_de_control._" data-name="Orienta la debida evaluación del sistema implementado, lo que incluye el establecimiento de métricas de control.
" transform="translate(0 32)" fill="#12263f" font-size="16" font-family="Roboto-Regular, Roboto"><tspan x="0" y="15">Orienta la debida evaluación del sistema </tspan><tspan x="0" y="39">implementado, lo que incluye el </tspan><tspan x="0" y="63">establecimiento de métricas de control.</tspan></text>
      <text id="ISO_27004_" data-name="ISO 27004
" fill="#12263f" font-size="16" font-family="Roboto-Bold, Roboto" font-weight="700"><tspan x="0" y="15">ISO 27004</tspan></text>
    </g>
    <path id="Trazado_819799" data-name="Trazado 819799" d="M29.582,15H27.238L22.676,7.516V15H20.332V3.625h2.344l4.57,7.5v-7.5h2.336Zm1.547-4.3a5.013,5.013,0,0,1,.484-2.242A3.546,3.546,0,0,1,33.008,6.93a4.069,4.069,0,0,1,2.113-.539,3.849,3.849,0,0,1,2.793,1.047,4.2,4.2,0,0,1,1.207,2.844l.016.578a4.418,4.418,0,0,1-1.086,3.121,4.209,4.209,0,0,1-5.832,0,4.5,4.5,0,0,1-1.09-3.187Zm2.258.16A3.16,3.16,0,0,0,33.84,12.7a1.628,1.628,0,0,0,2.578.008,3.457,3.457,0,0,0,.461-2.015,3.128,3.128,0,0,0-.461-1.831,1.5,1.5,0,0,0-1.3-.649,1.474,1.474,0,0,0-1.281.646A3.516,3.516,0,0,0,33.387,10.856ZM45.277,8.664a6.134,6.134,0,0,0-.812-.062,1.654,1.654,0,0,0-1.68.867V15H40.527V6.547H42.66l.063,1.008a2.092,2.092,0,0,1,1.883-1.164,2.366,2.366,0,0,1,.7.1Zm3.2-2.117.07.945a2.971,2.971,0,0,1,2.43-1.1A2.255,2.255,0,0,1,53.223,7.68a2.9,2.9,0,0,1,2.539-1.289,2.521,2.521,0,0,1,2.047.8A3.681,3.681,0,0,1,58.48,9.6V15H56.215V9.609a1.61,1.61,0,0,0-.281-1.051,1.246,1.246,0,0,0-.992-.332,1.409,1.409,0,0,0-1.406.969l.008,5.8H51.285V9.617A1.59,1.59,0,0,0,51,8.555a1.259,1.259,0,0,0-.984-.328,1.463,1.463,0,0,0-1.391.8V15H46.363V6.547ZM65.113,15a2.507,2.507,0,0,1-.227-.758,2.732,2.732,0,0,1-2.133.914,3,3,0,0,1-2.059-.719,2.312,2.312,0,0,1-.816-1.812,2.389,2.389,0,0,1,1-2.062,4.915,4.915,0,0,1,2.879-.727h1.039V9.352a1.393,1.393,0,0,0-.3-.937,1.183,1.183,0,0,0-.949-.352,1.345,1.345,0,0,0-.895.273.929.929,0,0,0-.324.75H60.066a2.268,2.268,0,0,1,.453-1.359,3,3,0,0,1,1.281-.98,4.669,4.669,0,0,1,1.859-.355,3.689,3.689,0,0,1,2.48.785,2.747,2.747,0,0,1,.918,2.207v3.664a4.041,4.041,0,0,0,.336,1.82V15Zm-1.867-1.57a1.945,1.945,0,0,0,.922-.223,1.462,1.462,0,0,0,.625-.6V11.156h-.844q-1.7,0-1.8,1.172l-.008.133a.9.9,0,0,0,.3.7A1.153,1.153,0,0,0,63.246,13.43Zm10.125-.766a.727.727,0,0,0-.41-.652,4.659,4.659,0,0,0-1.316-.426q-3.016-.633-3.016-2.562a2.323,2.323,0,0,1,.934-1.879A3.766,3.766,0,0,1,72,6.391a4.053,4.053,0,0,1,2.574.758,2.388,2.388,0,0,1,.965,1.969H73.285a1.092,1.092,0,0,0-.312-.8A1.322,1.322,0,0,0,72,8a1.351,1.351,0,0,0-.883.258.814.814,0,0,0-.312.656.7.7,0,0,0,.355.605,3.657,3.657,0,0,0,1.2.4,9.8,9.8,0,0,1,1.422.379,2.336,2.336,0,0,1,1.789,2.273,2.2,2.2,0,0,1-.992,1.871,4.28,4.28,0,0,1-2.562.715,4.47,4.47,0,0,1-1.887-.379,3.166,3.166,0,0,1-1.293-1.039,2.414,2.414,0,0,1-.469-1.426H70.5a1.179,1.179,0,0,0,.445.922,1.766,1.766,0,0,0,1.109.32,1.635,1.635,0,0,0,.98-.246A.766.766,0,0,0,73.371,12.664ZM83.645,15H81.3V3.625h2.344Zm8.07-2.984A1.2,1.2,0,0,0,91.246,11a6.148,6.148,0,0,0-1.687-.75,11.963,11.963,0,0,1-1.93-.777,3.153,3.153,0,0,1-1.937-2.82A2.747,2.747,0,0,1,86.211,5,3.389,3.389,0,0,1,87.7,3.875a5.616,5.616,0,0,1,2.184-.406,5.112,5.112,0,0,1,2.172.441,3.458,3.458,0,0,1,1.48,1.246,3.261,3.261,0,0,1,.527,1.828H91.723A1.534,1.534,0,0,0,91.23,5.77a2.023,2.023,0,0,0-1.383-.434,2.162,2.162,0,0,0-1.336.363,1.146,1.146,0,0,0-.477.957,1.1,1.1,0,0,0,.559.93,6.311,6.311,0,0,0,1.645.7,7.106,7.106,0,0,1,2.914,1.492A2.972,2.972,0,0,1,94.066,12a2.737,2.737,0,0,1-1.117,2.316,4.891,4.891,0,0,1-3.008.84,5.808,5.808,0,0,1-2.391-.48,3.783,3.783,0,0,1-1.645-1.316,3.371,3.371,0,0,1-.566-1.937h2.352q0,1.883,2.25,1.883a2.189,2.189,0,0,0,1.3-.34A1.106,1.106,0,0,0,91.715,12.016ZM105,9.57a6.867,6.867,0,0,1-.594,2.945,4.472,4.472,0,0,1-1.7,1.953,5.021,5.021,0,0,1-5.059.008,4.515,4.515,0,0,1-1.719-1.941,6.67,6.67,0,0,1-.617-2.9V9.07a6.831,6.831,0,0,1,.605-2.957,4.508,4.508,0,0,1,1.711-1.961,5.014,5.014,0,0,1,5.055,0,4.508,4.508,0,0,1,1.711,1.961A6.811,6.811,0,0,1,105,9.063Zm-2.375-.516a4.787,4.787,0,0,0-.641-2.719,2.263,2.263,0,0,0-3.648-.012,4.732,4.732,0,0,0-.648,2.691V9.57a4.847,4.847,0,0,0,.641,2.7,2.243,2.243,0,0,0,3.656.035,4.819,4.819,0,0,0,.641-2.7Z" transform="translate(-7008.136 -10513)" fill="#12263f"/>
    <g id="Grupo_1072600" data-name="Grupo 1072600" transform="translate(137.864 -395)">
      <text id="Aborda_aspectos_relacionados_con_la_metodología_de_gestión_de_los_riesgos_relacionados_a_los_sistemas_de_información._" data-name="Aborda aspectos relacionados con la metodología de gestión de los riesgos relacionados a los sistemas de información.
" transform="translate(-7168 -9441)" fill="#12263f" font-size="16" font-family="Roboto-Regular, Roboto"><tspan x="0" y="15">Aborda aspectos relacionados con la </tspan><tspan x="0" y="39">metodología de gestión de los riesgos </tspan><tspan x="0" y="63">relacionados a los sistemas de información.</tspan></text>
      <text id="ISO_27005_" data-name="ISO 27005
" transform="translate(-7168 -9473)" fill="#12263f" font-size="16" font-family="Roboto-Bold, Roboto" font-weight="700"><tspan x="0" y="15">ISO 27005</tspan></text>
    </g>
    <g id="Grupo_1072601" data-name="Grupo 1072601" transform="translate(-7030.136 -9731)">
      <text id="Aporta_una_guía_de_37_controles_específicos_para_los_servicios_de_almacenamiento_en_la_nube._" data-name="Aporta una guía de 37 controles específicos para los servicios de almacenamiento en la nube.
" transform="translate(0 32)" fill="#12263f" font-size="16" font-family="Roboto-Regular, Roboto"><tspan x="0" y="15">Aporta una guía de 37 controles específicos </tspan><tspan x="0" y="39">para los servicios de almacenamiento en la </tspan><tspan x="0" y="63">nube.</tspan></text>
      <text id="ISO_27017_" data-name="ISO 27017 
" fill="#12263f" font-size="16" font-family="Roboto-Bold, Roboto" font-weight="700"><tspan x="0" y="15">ISO 27017 </tspan></text>
    </g>
    <g id="Grupo_1072584" data-name="Grupo 1072584" transform="translate(-7030.136 -10293)">
      <text id="Lista_las_buenas_prácticas_para_la_implementación_del_sistema_ofreciendo_una_serie_de_controles_y_objetivos._" data-name="Lista las buenas prácticas para la implementación del sistema, ofreciendo una serie de controles y objetivos.
" transform="translate(0 32)" fill="#12263f" font-size="16" font-family="Roboto-Regular, Roboto"><tspan x="0" y="15">Lista las buenas prácticas para la </tspan><tspan x="0" y="39">implementación del sistema, ofreciendo una </tspan><tspan x="0" y="63">serie de controles y objetivos.</tspan></text>
      <text id="ISO_27002_" data-name="ISO 27002
" fill="#12263f" font-size="16" font-family="Roboto-Bold, Roboto" font-weight="700"><tspan x="0" y="15">ISO 27002</tspan></text>
    </g>
    <g id="Grupo_1072587" data-name="Grupo 1072587" transform="translate(-7030.136 -10150)">
      <text id="Detalla_los_requerimientos_necesarios_para_la_implementación_y_correcta_gestión_del_sistema._" data-name="Detalla los requerimientos necesarios para la implementación  y correcta gestión del sistema.
" transform="translate(0 32)" fill="#12263f" font-size="16" font-family="Roboto-Regular, Roboto"><tspan x="0" y="15">Detalla los requerimientos necesarios para la </tspan><tspan x="0" y="39" xml:space="preserve">implementación  y correcta gestión del </tspan><tspan x="0" y="63">sistema.</tspan></text>
      <text id="ISO_27001" data-name="ISO 27001" fill="#12263f" font-size="16" font-family="Roboto-Bold, Roboto" font-weight="700"><tspan x="0" y="15">ISO 27001</tspan></text>
    </g>
    <g id="Grupo_1072595" data-name="Grupo 1072595" transform="translate(455.864 -306)">
      <g id="Grupo_1072580" data-name="Grupo 1072580" transform="translate(0 19)">
        <path id="Trazado_819615" data-name="Trazado 819615" d="M90.716,65.252a48.947,48.947,0,1,0,48.947-48.947A48.947,48.947,0,0,0,90.716,65.252" transform="translate(-7706.481 -10173.905)" fill="#b2d491"/>
        <g id="Elipse_5806" data-name="Elipse 5806" transform="translate(-7629 -10171)" fill="none" stroke="#b2d491" stroke-width="7">
          <circle cx="62" cy="62" r="62" stroke="none"/>
          <circle cx="62" cy="62" r="58.5" fill="none"/>
        </g>
      </g>
      <g id="Grupo_1072581" data-name="Grupo 1072581" transform="translate(-7586.853 -10112.922)">
        <path id="Trazado_817461" data-name="Trazado 817461" d="M48.612,56.309l-6.186-6.186a.975.975,0,0,0-1.378,0l-.155.155-2.1-2.1a9.348,9.348,0,0,0-5.555-12.958V32.207a.974.974,0,1,0-1.949,0v2.6a9.36,9.36,0,1,0,0,18.628v4.087a1.063,1.063,0,0,1-1.062,1.062H3.01a1.063,1.063,0,0,1-1.062-1.062V20.176A1.063,1.063,0,0,1,3.01,19.115H30.232a1.063,1.063,0,0,1,1.062,1.062v3.453a.974.974,0,1,0,1.949,0V20.176a3.014,3.014,0,0,0-3.01-3.01H3.01A3.014,3.014,0,0,0,0,20.176v37.35a3.014,3.014,0,0,0,3.01,3.01H30.232a3.014,3.014,0,0,0,3.01-3.01v-4.5a9.3,9.3,0,0,0,1.1-.432l2.115,2.115-.174.174a.986.986,0,0,0,0,1.378l6.186,6.186a4.341,4.341,0,0,0,6.139-6.139ZM36.567,48.182a7.41,7.41,0,1,1-.961-9.3A7.46,7.46,0,0,1,36.567,48.182Zm-.507,3.37a9.485,9.485,0,0,0,1.683-1.669l1.772,1.772-1.676,1.676ZM47.234,61.07a2.415,2.415,0,0,1-3.383,0l-5.5-5.5,3.383-3.383,5.5,5.5A2.4,2.4,0,0,1,47.234,61.07Z" transform="translate(0 -17.166)" fill="#12263f"/>
        <path id="Trazado_817462" data-name="Trazado 817462" d="M61.253,89.585a.974.974,0,0,0-.974-.974H54.814a.974.974,0,0,0-.974.974V95.05a.974.974,0,0,0,.974.974h5.465a.974.974,0,0,0,.974-.974ZM59.3,94.076H55.789V90.56H59.3Z" transform="translate(-48.594 -81.65)" fill="#12263f"/>
        <path id="Trazado_817463" data-name="Trazado 817463" d="M61.253,202.675a.974.974,0,0,0-.974-.974H54.814a.974.974,0,0,0-.974.974v5.465a.974.974,0,0,0,.974.974h5.465a.974.974,0,0,0,.974-.974Zm-1.949,4.49H55.789V203.65H59.3Z" transform="translate(-48.594 -183.722)" fill="#12263f"/>
        <path id="Trazado_817464" data-name="Trazado 817464" d="M60.279,314.79H54.814a.974.974,0,0,0-.974.974v5.465a.974.974,0,0,0,.974.974h5.465a.974.974,0,0,0,.974-.974v-5.465A.974.974,0,0,0,60.279,314.79Zm-.974,5.465H55.789v-3.516H59.3Z" transform="translate(-48.594 -285.793)" fill="#12263f"/>
        <path id="Trazado_817465" data-name="Trazado 817465" d="M178.055,89.585a.974.974,0,0,0-.974-.974h-9.756a.974.974,0,0,0,0,1.949h9.756A.974.974,0,0,0,178.055,89.585Z" transform="translate(-150.143 -81.65)" fill="#12263f"/>
        <path id="Trazado_817466" data-name="Trazado 817466" d="M175.061,132.23a.974.974,0,0,0-.974-.974h-6.762a.974.974,0,0,0,0,1.949h6.762A.974.974,0,0,0,175.061,132.23Z" transform="translate(-150.143 -120.14)" fill="#12263f"/>
        <path id="Trazado_817467" data-name="Trazado 817467" d="M172.362,203.07a.974.974,0,0,0-.974-.974h-4.064a.974.974,0,1,0,0,1.949h4.064A.974.974,0,0,0,172.362,203.07Z" transform="translate(-150.143 -184.079)" fill="#12263f"/>
        <path id="Trazado_817468" data-name="Trazado 817468" d="M168.26,244.74h-.936a.974.974,0,0,0,0,1.949h.936a.974.974,0,0,0,0-1.949Z" transform="translate(-150.143 -222.568)" fill="#12263f"/>
        <path id="Trazado_817469" data-name="Trazado 817469" d="M167.324,316.739h.936a.974.974,0,0,0,0-1.949h-.936a.974.974,0,0,0,0,1.949Z" transform="translate(-150.143 -285.793)" fill="#12263f"/>
        <path id="Trazado_817470" data-name="Trazado 817470" d="M167.324,359.383h4.064a.974.974,0,1,0,0-1.949h-4.064a.974.974,0,0,0,0,1.949Z" transform="translate(-150.143 -324.282)" fill="#12263f"/>
        <path id="Trazado_817471" data-name="Trazado 817471" d="M264.7,265.357a.974.974,0,0,0-1.378,1.378l2.324,2.324a.974.974,0,0,0,1.378,0l4.749-4.749a.974.974,0,0,0-1.378-1.378l-4.06,4.06Z" transform="translate(-237.412 -238.729)" fill="#12263f"/>
        <path id="Trazado_817472" data-name="Trazado 817472" d="M323.091,118.28a.974.974,0,1,0-.527,1.271A.982.982,0,0,0,323.091,118.28Z" transform="translate(-289.924 -107.887)" fill="#12263f"/>
      </g>
    </g>
    <g id="Grupo_1072594" data-name="Grupo 1072594" transform="translate(455.864 -307)">
      <g id="Grupo_1072582" data-name="Grupo 1072582" transform="translate(0 173)">
        <path id="Trazado_819615-2" data-name="Trazado 819615" d="M90.716,65.252a48.947,48.947,0,1,0,48.947-48.947A48.947,48.947,0,0,0,90.716,65.252" transform="translate(-7706.481 -10173.905)" fill="#263c11"/>
        <g id="Elipse_5806-2" data-name="Elipse 5806" transform="translate(-7629 -10171)" fill="none" stroke="#263c11" stroke-width="7">
          <circle cx="62" cy="62" r="62" stroke="none"/>
          <circle cx="62" cy="62" r="58.5" fill="none"/>
        </g>
      </g>
      <g id="Grupo_1072583" data-name="Grupo 1072583" transform="translate(-549.5 348)">
        <path id="Trazado_817456" data-name="Trazado 817456" d="M20.321,26.567H38.586a3.321,3.321,0,0,0,3.321-3.321v-8.3a3.321,3.321,0,0,0-3.321-3.321V5.812a.9.9,0,0,0-.243-.587L33.361.243A.931.931,0,0,0,32.774,0H21.151a.83.83,0,0,0-.83.83V7.472A3.321,3.321,0,0,0,17,10.793V23.246A3.321,3.321,0,0,0,20.321,26.567ZM35.752,4.981H33.6V2.834ZM21.981,1.66h9.963V5.812a.83.83,0,0,0,.83.83h4.151v4.981H30.754L29.23,9.084a3.336,3.336,0,0,0-2.849-1.612h-4.4ZM18.66,10.793a1.66,1.66,0,0,1,1.66-1.66h6.061a1.684,1.684,0,0,1,1.423.81l1.649,2.746c.206.344.375.6.83.6h8.3a1.66,1.66,0,0,1,1.66,1.66v8.3a1.66,1.66,0,0,1-1.66,1.66H20.321a1.66,1.66,0,0,1-1.66-1.66Z" transform="translate(-7045.954 -10311.239)" fill="#fff"/>
        <path id="Trazado_817457" data-name="Trazado 817457" d="M36.114,49.321H32.476L31.5,47.377A2.477,2.477,0,0,0,29.276,46H24.491A2.491,2.491,0,0,0,22,48.491v9.963a2.491,2.491,0,0,0,2.491,2.491H36.114A2.491,2.491,0,0,0,38.6,58.453V51.812a2.491,2.491,0,0,0-2.491-2.491Zm.83,9.133a.83.83,0,0,1-.83.83H24.491a.83.83,0,0,1-.83-.83V48.491a.83.83,0,0,1,.83-.83h4.785a.83.83,0,0,1,.742.459l1.2,2.4a.83.83,0,0,0,.747.459h4.151a.83.83,0,0,1,.83.83Z" transform="translate(-7046.803 -10319.049)" fill="#fff"/>
        <path id="Trazado_817458" data-name="Trazado 817458" d="M58.114,49.321H54.476L53.5,47.377A2.477,2.477,0,0,0,51.276,46H46.491A2.491,2.491,0,0,0,44,48.491v9.963a2.491,2.491,0,0,0,2.491,2.491H58.114A2.491,2.491,0,0,0,60.6,58.453V51.812a2.491,2.491,0,0,0-2.491-2.491Zm.83,9.133a.83.83,0,0,1-.83.83H46.491a.83.83,0,0,1-.83-.83V48.491a.83.83,0,0,1,.83-.83h4.785a.83.83,0,0,1,.742.459l1.2,2.4a.83.83,0,0,0,.743.459h4.151a.83.83,0,0,1,.83.83Z" transform="translate(-7050.537 -10319.049)" fill="#fff"/>
        <path id="Trazado_817459" data-name="Trazado 817459" d="M14.114,49.321H10.476L9.5,47.377A2.477,2.477,0,0,0,7.276,46H2.491A2.491,2.491,0,0,0,0,48.491v9.963a2.491,2.491,0,0,0,2.491,2.491H14.114A2.491,2.491,0,0,0,16.6,58.453V51.812a2.491,2.491,0,0,0-2.491-2.491Zm.83,9.133a.83.83,0,0,1-.83.83H2.491a.83.83,0,0,1-.83-.83V48.491a.83.83,0,0,1,.83-.83H7.276a.83.83,0,0,1,.742.459l1.2,2.4a.83.83,0,0,0,.743.459h4.151a.83.83,0,0,1,.83.83Z" transform="translate(-7043.067 -10319.049)" fill="#fff"/>
        <path id="Trazado_817460" data-name="Trazado 817460" d="M9.83,42.3a.83.83,0,0,0,.83-.83v-1.66a.83.83,0,0,1,.83-.83H27.265v2.491a.83.83,0,0,0,1.66,0V38.981H44.7a.83.83,0,0,1,.83.83v1.66a.83.83,0,0,0,1.66,0v-1.66A2.491,2.491,0,0,0,44.7,37.321H28.926V34.83a.83.83,0,1,0-1.66,0v2.491H11.491A2.491,2.491,0,0,0,9,39.812v1.66A.83.83,0,0,0,9.83,42.3Z" transform="translate(-7044.596 -10317.012)" fill="#fff"/>
      </g>
    </g>
    <g id="Grupo_1072593" data-name="Grupo 1072593" transform="translate(455.864 -321)">
      <g id="Grupo_1072586" data-name="Grupo 1072586" transform="translate(0 329)">
        <path id="Trazado_819615-3" data-name="Trazado 819615" d="M90.716,65.252a48.947,48.947,0,1,0,48.947-48.947A48.947,48.947,0,0,0,90.716,65.252" transform="translate(-7706.481 -10173.905)" fill="#becdb0"/>
        <path id="Elipse_5806-3" data-name="Elipse 5806" d="M62,7a55,55,0,1,0,55,55A55.062,55.062,0,0,0,62,7m0-7A62,62,0,1,1,0,62,62,62,0,0,1,62,0Z" transform="translate(-7629 -10171)" fill="#becdb0"/>
      </g>
      <g id="Grupo_1072585" data-name="Grupo 1072585" transform="translate(-7593.5 -9801.589)">
        <g id="Grupo_1071724" data-name="Grupo 1071724" transform="translate(0 0)">
          <path id="Trazado_817454" data-name="Trazado 817454" d="M45.825,69.338a18.9,18.9,0,0,0-37.19,3.231,10.311,10.311,0,0,0,1.719,20.485h8.593V89.617H10.354a6.874,6.874,0,1,1,0-13.749,1.719,1.719,0,0,0,1.719-1.719,15.467,15.467,0,0,1,30.642-3.007,1.719,1.719,0,0,0,1.461,1.375,8.593,8.593,0,0,1-1.169,17.1H36.132v3.437h6.874a12.03,12.03,0,0,0,2.818-23.716Z" transform="translate(0 -55.032)" fill="#12263f"/>
          <path id="Trazado_817455" data-name="Trazado 817455" d="M187.909,249.511l-6.874,6.874,2.423,2.423,3.953-3.936v16.481h3.437V254.873l3.936,3.936,2.423-2.423-6.874-6.874A1.718,1.718,0,0,0,187.909,249.511Z" transform="translate(-161.59 -228.176)" fill="#12263f"/>
        </g>
      </g>
    </g>
    <g id="Grupo_1072592" data-name="Grupo 1072592" transform="translate(455.864 -328)">
      <g id="Grupo_1072589" data-name="Grupo 1072589" transform="translate(0 476)">
        <path id="Trazado_819615-4" data-name="Trazado 819615" d="M90.716,65.252a48.947,48.947,0,1,0,48.947-48.947A48.947,48.947,0,0,0,90.716,65.252" transform="translate(-7706.481 -10173.905)" fill="#dbf9bd"/>
        <path id="Elipse_5806-4" data-name="Elipse 5806" d="M62,7a55,55,0,1,0,55,55A55.062,55.062,0,0,0,62,7m0-7A62,62,0,1,1,0,62,62,62,0,0,1,62,0Z" transform="translate(-7629 -10171)" fill="#dbf9bd"/>
      </g>
      <g id="Grupo_1072590" data-name="Grupo 1072590" transform="translate(-284.501 964.799)">
        <path id="Trazado_817484" data-name="Trazado 817484" d="M27.249,26.249l-.495.495V20.689a1.689,1.689,0,0,0-3.377,0v6.055l-.495-.495a1.688,1.688,0,1,0-2.388,2.388l3.377,3.377a1.689,1.689,0,0,0,2.388,0l3.377-3.377a1.688,1.688,0,1,0-2.388-2.388Z" transform="translate(-7290.664 -10607.756)" fill="#12263f"/>
        <path id="Trazado_817485" data-name="Trazado 817485" d="M47.991,28.925l3.592-11.55a1.689,1.689,0,0,0-1.613-2.19h-3.04V11.743a6.022,6.022,0,0,0-6.015-6.015H22.3L18.067,1.495A1.689,1.689,0,0,0,16.873,1H7.015A6.022,6.022,0,0,0,1,7.015V35.738A6.472,6.472,0,0,0,7.464,42.2h17.8A13.509,13.509,0,1,0,47.991,28.925ZM7.015,4.377h9.159l4.233,4.233a1.689,1.689,0,0,0,1.194.495H40.916a2.639,2.639,0,0,1,2.638,2.638v3.441H12.145a1.689,1.689,0,0,0-1.6,1.15L4.377,34.654V7.015A2.639,2.639,0,0,1,7.015,4.377Zm.449,34.448a3.082,3.082,0,0,1-.878-.142l6.771-20.122h34.32l-2.509,8.067A13.482,13.482,0,0,0,24.641,38.15c0,.228.024.451.034.675ZM38.15,48.281A10.132,10.132,0,1,1,48.281,38.15,10.132,10.132,0,0,1,38.15,48.281Z" transform="translate(-7303.748 -10620.151)" fill="#12263f"/>
      </g>
    </g>
    <g id="Grupo_1072597" data-name="Grupo 1072597" transform="translate(455.864 -189)">
      <g id="Grupo_1072589-2" data-name="Grupo 1072589" transform="translate(0 476)">
        <path id="Trazado_819615-5" data-name="Trazado 819615" d="M90.716,65.252a48.947,48.947,0,1,0,48.947-48.947A48.947,48.947,0,0,0,90.716,65.252" transform="translate(-7706.481 -10173.905)" fill="#8f9d81"/>
        <path id="Elipse_5806-5" data-name="Elipse 5806" d="M62,7a55,55,0,1,0,55,55A55.062,55.062,0,0,0,62,7m0-7A62,62,0,1,1,0,62,62,62,0,0,1,62,0Z" transform="translate(-7629 -10171)" fill="#8f9d81"/>
      </g>
    </g>
    <g id="Grupo_1072603" data-name="Grupo 1072603" transform="translate(455.864 -47)">
      <g id="Grupo_1072589-3" data-name="Grupo 1072589" transform="translate(0 476)">
        <path id="Trazado_819615-6" data-name="Trazado 819615" d="M90.716,65.252a48.947,48.947,0,1,0,48.947-48.947A48.947,48.947,0,0,0,90.716,65.252" transform="translate(-7706.481 -10173.905)" fill="#3b5620"/>
        <path id="Elipse_5806-6" data-name="Elipse 5806" d="M62,7a55,55,0,1,0,55,55A55.062,55.062,0,0,0,62,7m0-7A62,62,0,1,1,0,62,62,62,0,0,1,62,0Z" transform="translate(-7629 -10171)" fill="#3b5620"/>
      </g>
    </g>
    <g id="Grupo_1072599" data-name="Grupo 1072599" transform="translate(95.636 648.421)">
      <path id="Trazado_817473" data-name="Trazado 817473" d="M627.685,620.549a7.6,7.6,0,1,1,7.6-7.6A7.6,7.6,0,0,1,627.685,620.549Zm0-13.061a5.456,5.456,0,1,0,5.456,5.456A5.456,5.456,0,0,0,627.685,607.488Z" transform="translate(-7816.79 -11068.689)" fill="#fff"/>
      <path id="Trazado_817474" data-name="Trazado 817474" d="M678.328,681.326a1.07,1.07,0,0,1-.761-.314l-2.02-2.021a1.074,1.074,0,0,1,1.519-1.519l1.261,1.261,2.875-2.875a1.074,1.074,0,1,1,1.519,1.519l-3.635,3.635A1.074,1.074,0,0,1,678.328,681.326Z" transform="translate(-7868.24 -11134.179)" fill="#fff"/>
      <path id="Trazado_817475" data-name="Trazado 817475" d="M188.714,139.858H158.057a4.682,4.682,0,0,1-4.677-4.677v-46.5A4.682,4.682,0,0,1,158.057,84h30.657a4.682,4.682,0,0,1,4.677,4.677v31.4a1.074,1.074,0,0,1-2.148,0v-31.4a2.532,2.532,0,0,0-2.529-2.529H158.057a2.532,2.532,0,0,0-2.529,2.529v46.5a2.532,2.532,0,0,0,2.529,2.529h30.657a2.532,2.532,0,0,0,2.529-2.529v-2.044a1.074,1.074,0,0,1,2.148,0v2.044a4.682,4.682,0,0,1-4.677,4.677Z" transform="translate(-7381.423 -10582.351)" fill="#fff"/>
      <path id="Trazado_817476" data-name="Trazado 817476" d="M386.087,242.718H366.944a1.074,1.074,0,1,1,0-2.148h19.143a1.074,1.074,0,0,1,0,2.148Z" transform="translate(-7579.647 -10728.409)" fill="#fff"/>
      <path id="Trazado_817477" data-name="Trazado 817477" d="M386.087,405.008H366.944a1.074,1.074,0,1,1,0-2.148h19.143a1.074,1.074,0,0,1,0,2.148Z" transform="translate(-7579.647 -10879.803)" fill="#fff"/>
      <path id="Trazado_817478" data-name="Trazado 817478" d="M386.087,567.288H366.944a1.074,1.074,0,1,1,0-2.148h19.143a1.074,1.074,0,0,1,0,2.148Z" transform="translate(-7579.647 -11031.188)" fill="#fff"/>
      <path id="Trazado_817479" data-name="Trazado 817479" d="M384.226,729.578H366.944a1.074,1.074,0,1,1,0-2.148h17.282a1.074,1.074,0,1,1,0,2.148Z" transform="translate(-7579.647 -11182.582)" fill="#fff"/>
      <path id="Trazado_817480" data-name="Trazado 817480" d="M226.454,206.348h-5.64a1.074,1.074,0,0,1-1.074-1.074v-5.64a1.074,1.074,0,0,1,1.074-1.074h5.64a1.074,1.074,0,0,1,1.074,1.074v5.64A1.074,1.074,0,0,1,226.454,206.348Zm-4.565-2.148h3.491v-3.491h-3.491Z" transform="translate(-7443.328 -10689.22)" fill="#fff"/>
      <path id="Trazado_817481" data-name="Trazado 817481" d="M226.454,368.638h-5.64a1.074,1.074,0,0,1-1.074-1.074v-5.64a1.074,1.074,0,0,1,1.074-1.074h5.64a1.074,1.074,0,0,1,1.074,1.074v5.64A1.074,1.074,0,0,1,226.454,368.638Zm-4.565-2.148h3.491V363h-3.491Z" transform="translate(-7443.328 -10840.613)" fill="#fff"/>
      <path id="Trazado_817482" data-name="Trazado 817482" d="M226.454,530.918h-5.64a1.074,1.074,0,0,1-1.074-1.074V524.2a1.074,1.074,0,0,1,1.074-1.074h5.64a1.074,1.074,0,0,1,1.074,1.074v5.64A1.074,1.074,0,0,1,226.454,530.918Zm-4.565-2.148h3.491v-3.491h-3.491Z" transform="translate(-7443.328 -10991.998)" fill="#fff"/>
      <path id="Trazado_817483" data-name="Trazado 817483" d="M226.454,693.208h-5.64a1.074,1.074,0,0,1-1.074-1.074v-5.639a1.074,1.074,0,0,1,1.074-1.074h5.64a1.074,1.074,0,0,1,1.074,1.074v5.639A1.074,1.074,0,0,1,226.454,693.208Zm-4.565-2.148h3.491v-3.491h-3.491Z" transform="translate(-7443.328 -11143.393)" fill="#fff"/>
    </g>
    <g id="Grupo_1072602" data-name="Grupo 1072602" transform="translate(-7129.647 -9706.719)">
      <path id="Trazado_817486" data-name="Trazado 817486" d="M91.917,34.439a4.155,4.155,0,0,1,.874-.246,5.871,5.871,0,0,0,4.855-6.65,4.225,4.225,0,0,1,1.179-3.632,5.882,5.882,0,0,0-.02-8.251,4.217,4.217,0,0,1-1.16-3.6,5.88,5.88,0,0,0-4.862-6.667,4.205,4.205,0,0,1-3.048-2.218A5.873,5.873,0,0,0,81.881.627a4.2,4.2,0,0,1-3.779,0,5.874,5.874,0,0,0-7.85,2.55A4.211,4.211,0,0,1,67.188,5.4a5.882,5.882,0,0,0-4.842,6.687,4.214,4.214,0,0,1-1.179,3.593,5.886,5.886,0,0,0,.02,8.26,4.214,4.214,0,0,1,1.158,3.593A5.875,5.875,0,0,0,67.2,34.194a4.151,4.151,0,0,1,.873.245L60.5,47.071a.835.835,0,0,0,.944,1.232l6.118-1.737,1.355,6.214a.835.835,0,0,0,1.532.251l8.632-14.409a4.221,4.221,0,0,1,1.82,0l8.632,14.409a.835.835,0,0,0,1.532-.251l1.355-6.214L98.54,48.3a.835.835,0,0,0,.944-1.232ZM70.1,50.365l-1.1-5.022a.835.835,0,0,0-1.044-.625l-4.944,1.4,6.449-10.766a4.16,4.16,0,0,1,.785,1.059,5.871,5.871,0,0,0,6.374,3.059Zm7.249-12.888a4.2,4.2,0,0,1-5.612-1.825,5.881,5.881,0,0,0-4.275-3.108A4.2,4.2,0,0,1,64,27.761a5.9,5.9,0,0,0-1.646-5.024,4.206,4.206,0,0,1,.019-5.9,5.892,5.892,0,0,0,1.623-5.026,4.205,4.205,0,0,1,3.48-4.767,5.881,5.881,0,0,0,4.265-3.1,4.2,4.2,0,0,1,5.616-1.821,5.883,5.883,0,0,0,5.285,0,4.2,4.2,0,0,1,5.61,1.823,5.888,5.888,0,0,0,4.281,3.1,4.207,4.207,0,0,1,3.461,4.787,5.891,5.891,0,0,0,1.642,5.02,4.209,4.209,0,0,1-.021,5.911,5.921,5.921,0,0,0-1.62,5.018,4.2,4.2,0,0,1-3.47,4.765,5.878,5.878,0,0,0-4.275,3.107,4.2,4.2,0,0,1-5.614,1.825,5.883,5.883,0,0,0-5.282,0Zm14.673,7.24a.835.835,0,0,0-1.044.625l-1.1,5.022L83.359,39.472a5.821,5.821,0,0,0,6.375-3.057,4.158,4.158,0,0,1,.786-1.059l6.449,10.766Z" transform="translate(-59.484 0)" fill="#fff"/>
      <path id="Trazado_817487" data-name="Trazado 817487" d="M162.824,84.181a12.29,12.29,0,1,0-12.29,12.3A12.3,12.3,0,0,0,162.824,84.181Zm-12.29,10.629a10.624,10.624,0,1,1,10.62-10.629,10.636,10.636,0,0,1-10.62,10.629Z" transform="translate(-130.024 -64.388)" fill="#fff"/>
      <path id="Trazado_817488" data-name="Trazado 817488" d="M216.864,152.135l-5.629,5.629-1.467-1.467a.835.835,0,0,0-1.181,1.181l2.057,2.058a.835.835,0,0,0,1.181,0l6.22-6.22a.835.835,0,1,0-1.181-1.181Z" transform="translate(-192.806 -136.037)" fill="#fff"/>
    </g>
  </g>
</svg>
