<svg xmlns="http://www.w3.org/2000/svg" width="130" height="130" viewBox="0 0 130 130">
  <g id="Grupo_1070288" data-name="Grupo 1070288" transform="translate(-1080.855 -4694.697)">
    <circle id="Elipse_5779" data-name="Elipse 5779" cx="65" cy="65" r="65" transform="translate(1080.855 4694.697)" fill="#3b5620"/>
    <g id="Grupo_1069914" data-name="Grupo 1069914" transform="translate(4593.855 2842.742)">
      <circle id="Elipse_5755" data-name="Elipse 5755" cx="59.894" cy="59.894" r="59.894" transform="translate(-3508 1857.955)" fill="#fff"/>
    </g>
    <g id="Grupo_1072509" data-name="Grupo 1072509" transform="translate(1111.938 4722.632)">
      <path id="Trazado_817710" data-name="Trazado 817710" d="M20,2H67.484V69.834H20Z" transform="translate(0.35 -2)" fill="#afafaf"/>
      <path id="Trazado_817711" data-name="Trazado 817711" d="M62.961,65.312V2H20V65.312Z" transform="translate(0.35 -2)" fill="#f6f6f6"/>
      <path id="Trazado_817712" data-name="Trazado 817712" d="M2,26H35.917V66.7H2Z" transform="translate(-2 1.134)" fill="#3b5892"/>
      <path id="Trazado_817713" data-name="Trazado 817713" d="M2,26H32.525V62.178H2Z" transform="translate(-2 1.134)" fill="#4c6cb5"/>
      <path id="Trazado_817714" data-name="Trazado 817714" d="M2,26H35.917V39.567H2Z" transform="translate(-2 1.134)" fill="#632059"/>
      <path id="Trazado_817715" data-name="Trazado 817715" d="M2,26H32.525V39.567H2Z" transform="translate(-2 1.134)" fill="#c8b1c5"/>
      <path id="Trazado_817716" data-name="Trazado 817716" d="M2,38H35.917V51.567H2Z" transform="translate(-2 2.7)" fill="#f4a93c"/>
      <path id="Trazado_817717" data-name="Trazado 817717" d="M2,38H32.525V51.567H2Z" transform="translate(-2 2.7)" fill="#fffad0"/>
      <path id="Trazado_817718" data-name="Trazado 817718" d="M6,30H24.089v4.522H6Z" transform="translate(-1.478 1.656)" fill="#e2e7f6"/>
      <path id="Trazado_817719" data-name="Trazado 817719" d="M6,30H22.958v3.392H6Z" transform="translate(-1.478 1.656)" fill="#f7fafd"/>
      <path id="Trazado_817720" data-name="Trazado 817720" d="M25,29h4.522v2.261H25Z" transform="translate(1.003 1.525)" fill="#f7fafd"/>
      <path id="Trazado_817721" data-name="Trazado 817721" d="M25,33h4.522v2.261H25Z" transform="translate(1.003 2.047)" fill="#f7fafd"/>
      <path id="Trazado_817722" data-name="Trazado 817722" d="M6,42H24.089v4.522H6Z" transform="translate(-1.478 3.223)" fill="#e2e7f6"/>
      <path id="Trazado_817723" data-name="Trazado 817723" d="M25,41h4.522v2.261H25Z" transform="translate(1.003 3.092)" fill="#f7fafd"/>
      <path id="Trazado_817724" data-name="Trazado 817724" d="M25,45h4.522v2.261H25Z" transform="translate(1.003 3.614)" fill="#f7fafd"/>
      <path id="Trazado_817725" data-name="Trazado 817725" d="M6,54H24.089v4.522H6Z" transform="translate(-1.478 4.789)" fill="#e2e7f6"/>
      <path id="Trazado_817726" data-name="Trazado 817726" d="M25,53h4.522v2.261H25Z" transform="translate(1.003 4.659)" fill="#f7fafd"/>
      <path id="Trazado_817727" data-name="Trazado 817727" d="M25,57h4.522v2.261H25Z" transform="translate(1.003 5.181)" fill="#f7fafd"/>
      <path id="Trazado_817728" data-name="Trazado 817728" d="M40,6H60.35v6.783H40Z" transform="translate(2.961 -1.478)" fill="#dbf9bd"/>
      <path id="Trazado_817729" data-name="Trazado 817729" d="M40,6H58.089v4.522H40Z" transform="translate(2.961 -1.478)" fill="#3b5620"/>
      <path id="Trazado_817730" data-name="Trazado 817730" d="M40,16H60.35v6.783H40Z" transform="translate(2.961 -0.172)" fill="#3b5620"/>
      <path id="Trazado_817731" data-name="Trazado 817731" d="M38.973,53.9l10.333-4.592V38A11.306,11.306,0,0,0,38.973,53.9Z" transform="translate(2.7 2.7)" fill="#f4a93c"/>
      <path id="Trazado_817732" data-name="Trazado 817732" d="M48.175,38.05a11.272,11.272,0,0,0-9.707,14.433l9.707-4.314Z" transform="translate(2.7 2.707)" fill="#f6b940"/>
      <path id="Trazado_817733" data-name="Trazado 817733" d="M38.86,53.9l10.333-4.592V38A11.306,11.306,0,1,1,38.86,53.9Z" transform="translate(2.813 2.7)" fill="#632059"/>
      <g id="Grupo_1071798" data-name="Grupo 1071798" transform="translate(24.872 3.392)">
        <path id="Trazado_817734" data-name="Trazado 817734" d="M24,5h2.261V7.261H24Z" transform="translate(-24 -5)" fill="#3b5620"/>
        <path id="Trazado_817735" data-name="Trazado 817735" d="M28,5h2.261V7.261H28Z" transform="translate(-23.478 -5)" fill="#3b5620"/>
        <path id="Trazado_817736" data-name="Trazado 817736" d="M32,5h2.261V7.261H32Z" transform="translate(-22.955 -5)" fill="#3b5620"/>
        <path id="Trazado_817737" data-name="Trazado 817737" d="M39,25h4.522v2.261H39Z" transform="translate(-22.042 -2.389)" fill="#3b5620"/>
        <path id="Trazado_817738" data-name="Trazado 817738" d="M39,29h4.522v2.261H39Z" transform="translate(-22.042 -1.866)" fill="#3b5620"/>
        <path id="Trazado_817739" data-name="Trazado 817739" d="M45,25H58.567v2.261H45Z" transform="translate(-21.258 -2.389)" fill="#3b5620"/>
        <path id="Trazado_817740" data-name="Trazado 817740" d="M45,29H58.567v2.261H45Z" transform="translate(-21.258 -1.866)" fill="#3b5620"/>
        <path id="Trazado_817741" data-name="Trazado 817741" d="M39,33h4.522v2.261H39Z" transform="translate(-22.042 -1.344)" fill="#3b5620"/>
        <path id="Trazado_817742" data-name="Trazado 817742" d="M45,33H58.567v2.261H45Z" transform="translate(-21.258 -1.344)" fill="#3b5620"/>
      </g>
      <path id="Trazado_817743" data-name="Trazado 817743" d="M37.7,24.7H23V22.436H36.567V10h2.261V23.567A1.131,1.131,0,0,1,37.7,24.7Z" transform="translate(0.742 -0.955)" fill="#3b5620"/>
      <path id="Trazado_817744" data-name="Trazado 817744" d="M31,12h2.261V23.306H31Z" transform="translate(1.786 -0.694)" fill="#3b5620"/>
      <path id="Trazado_817745" data-name="Trazado 817745" d="M27,16h2.261v6.783H27Z" transform="translate(1.264 -0.172)" fill="#3b5620"/>
      <path id="Trazado_817746" data-name="Trazado 817746" d="M8,28.089H21.567V10H8Z" transform="translate(-1.217 -0.955)" fill="#afafaf"/>
      <path id="Trazado_817747" data-name="Trazado 817747" d="M6,42H22.958v3.392H6Z" transform="translate(-1.478 3.223)" fill="#f7fafd"/>
      <path id="Trazado_817748" data-name="Trazado 817748" d="M6,54H22.958v3.392H6Z" transform="translate(-1.478 4.789)" fill="#f7fafd"/>
      <path id="Trazado_817749" data-name="Trazado 817749" d="M40,16H58.089v4.522H40Z" transform="translate(2.961 -0.172)" fill="#dbf9bd"/>
    </g>
  </g>
</svg>
