<svg id="Grupo_1071045" data-name="Grupo 1071045" xmlns="http://www.w3.org/2000/svg" xmlns:xlink="http://www.w3.org/1999/xlink" width="400" height="391.594" viewBox="0 0 400 391.594">
  <defs>
    <clipPath id="clip-path">
      <rect id="Rectángulo_376215" data-name="Rectángulo 376215" width="400" height="391.594" fill="none"/>
    </clipPath>
    <clipPath id="clip-path-5">
      <rect id="Rectángulo_376182" data-name="Rectángulo 376182" width="25.971" height="30.803" fill="none"/>
    </clipPath>
    <clipPath id="clip-path-7">
      <rect id="Rectángulo_376186" data-name="Rectángulo 376186" width="25.972" height="36.799" fill="none"/>
    </clipPath>
    <clipPath id="clip-path-9">
      <rect id="Rectángulo_376191" data-name="Rectángulo 376191" width="25.971" height="158.832" fill="none"/>
    </clipPath>
    <clipPath id="clip-path-10">
      <rect id="Rectángulo_376193" data-name="Rectángulo 376193" width="24.453" height="25.84" fill="none"/>
    </clipPath>
    <clipPath id="clip-path-11">
      <rect id="Rectángulo_376194" data-name="Rectángulo 376194" width="24.454" height="25.84" fill="none"/>
    </clipPath>
    <clipPath id="clip-path-19">
      <rect id="Rectángulo_376202" data-name="Rectángulo 376202" width="14.634" height="15.463" fill="none"/>
    </clipPath>
    <clipPath id="clip-path-22">
      <rect id="Rectángulo_376205" data-name="Rectángulo 376205" width="8.429" height="18.766" fill="none"/>
    </clipPath>
    <clipPath id="clip-path-23">
      <rect id="Rectángulo_376206" data-name="Rectángulo 376206" width="26.386" height="17.386" fill="none"/>
    </clipPath>
    <clipPath id="clip-path-24">
      <rect id="Rectángulo_376207" data-name="Rectángulo 376207" width="5.304" height="13.651" fill="none"/>
    </clipPath>
    <clipPath id="clip-path-25">
      <rect id="Rectángulo_376208" data-name="Rectángulo 376208" width="4.21" height="26.029" fill="none"/>
    </clipPath>
    <clipPath id="clip-path-26">
      <rect id="Rectángulo_376209" data-name="Rectángulo 376209" width="16.102" height="20.459" fill="none"/>
    </clipPath>
    <clipPath id="clip-path-27">
      <rect id="Rectángulo_376210" data-name="Rectángulo 376210" width="15.685" height="19.956" fill="none"/>
    </clipPath>
    <clipPath id="clip-path-28">
      <rect id="Rectángulo_376211" data-name="Rectángulo 376211" width="18.907" height="7.952" fill="none"/>
    </clipPath>
    <clipPath id="clip-path-29">
      <rect id="Rectángulo_376212" data-name="Rectángulo 376212" width="16.624" height="34.251" fill="none"/>
    </clipPath>
  </defs>
  <g id="Grupo_1071044" data-name="Grupo 1071044" clip-path="url(#clip-path)">
    <g id="Grupo_1070966" data-name="Grupo 1070966">
      <g id="Grupo_1070965" data-name="Grupo 1070965" clip-path="url(#clip-path)">
        <path id="Trazado_816391" data-name="Trazado 816391" d="M360.94,40.327V9.267c-16.566,0-30.2,14.021-30.2,31.06s13.633,31.061,30.2,31.061c16.3,0,29.814-13.579,30.19-30.343Z" transform="translate(-281.26 -0.906)" fill="#ebebeb"/>
        <path id="Trazado_816392" data-name="Trazado 816392" d="M322.339,31.049l30.2.7a33.278,33.278,0,0,0-8.556-22.363A30.641,30.641,0,0,0,322.807,0Z" transform="translate(-235.298)" fill="#f5f5f5"/>
        <path id="Trazado_816393" data-name="Trazado 816393" d="M83.724,347.548v-28.1c14.99,0,27.324,12.687,27.324,28.1s-12.334,28.1-27.324,28.1c-14.751,0-26.976-12.286-27.317-27.455Z" transform="translate(239.471 -31.224)" fill="#ebebeb"/>
        <path id="Trazado_816394" data-name="Trazado 816394" d="M122.474,339.153l-27.324.635a30.111,30.111,0,0,1,7.741-20.235,27.724,27.724,0,0,1,19.159-8.494Z" transform="translate(194.059 -30.404)" fill="#f5f5f5"/>
        <rect id="Rectángulo_376174" data-name="Rectángulo 376174" width="12.772" height="41.03" transform="translate(144.345 108.827)" fill="#f5f5f5"/>
        <rect id="Rectángulo_376175" data-name="Rectángulo 376175" width="12.772" height="31.657" transform="translate(125.275 118.2)" fill="#f5f5f5"/>
        <rect id="Rectángulo_376176" data-name="Rectángulo 376176" width="12.772" height="18.8" transform="translate(107.62 131.057)" fill="#f5f5f5"/>
      </g>
    </g>
    <g id="Grupo_1070968" data-name="Grupo 1070968">
      <g id="Grupo_1070967" data-name="Grupo 1070967" clip-path="url(#clip-path)">
        <path id="Trazado_816395" data-name="Trazado 816395" d="M282.273,56.8l-.327-1.823c-2.769-15.37-13-27.7-26.873-31.616a34.576,34.576,0,0,0-5.451-1.078c-13.3-1.523-27.47,4.84-36.336,16.313-5.212,6.747-8.937,15.332-15.96,19.655-9.14,5.626-20.182,1.952-29.705-1.825s-20.582-7.423-29.7-1.755c-5.711,3.55-9.391,10.189-11.328,16.989-5.128,18,.778,37.854,12.439,50.845s28.283,19.732,45.128,21.884c23.6,3.015,48.982-2.817,68.49-18.879S284.807,82.579,282.273,56.8" transform="translate(7.989 -2.156)" fill="#f5f5f5"/>
        <path id="Trazado_816396" data-name="Trazado 816396" d="M107.112,160.07c5.583-4.34,13.271-5.089,20.031-3.23,4.243.846,11.987,9.466,10.694,16.86s-8.183,12.666-15.327,14.229c-7.934,1.738-17.493-1.1-20.868-8.686-2.911-6.545-.112-14.833,5.47-19.173" transform="translate(173.881 -15.237)" fill="#f5f5f5"/>
        <path id="Trazado_816397" data-name="Trazado 816397" d="M264.809,4.412c5.583-4.34,13.27-5.089,20.031-3.23,4.243.846,11.987,9.466,10.694,16.86s-8.184,12.665-15.328,14.229c-7.934,1.738-17.493-1.1-20.868-8.686-2.911-6.545-.112-14.833,5.47-19.173" transform="translate(-122.15 -0.022)" fill="#f5f5f5"/>
      </g>
    </g>
    <rect id="Rectángulo_376179" data-name="Rectángulo 376179" width="25.971" height="52.125" transform="translate(359.696 338.983)" fill="#afc797"/>
    <rect id="Rectángulo_376180" data-name="Rectángulo 376180" width="25.972" height="30.804" transform="translate(303.308 360.304)" fill="#3b5620"/>
    <g id="Grupo_1070973" data-name="Grupo 1070973">
      <g id="Grupo_1070972" data-name="Grupo 1070972" clip-path="url(#clip-path)">
        <g id="Grupo_1070971" data-name="Grupo 1070971" transform="translate(303.711 360.304)" opacity="0.67">
          <g id="Grupo_1070970" data-name="Grupo 1070970" transform="translate(0)">
            <g id="Grupo_1070969" data-name="Grupo 1070969" transform="translate(0)" clip-path="url(#clip-path-5)">
              <rect id="Rectángulo_376181" data-name="Rectángulo 376181" width="25.971" height="30.803" transform="translate(0 0)" fill="#fff"/>
            </g>
          </g>
        </g>
      </g>
    </g>
    <path id="Trazado_816398" data-name="Trazado 816398" d="M166.324,356.226v69.88l-25.97-.173V356.226Z" transform="translate(110.556 -34.819)" fill="#3b5620"/>
    <rect id="Rectángulo_376184" data-name="Rectángulo 376184" width="25.972" height="36.799" transform="translate(196.053 354.308)" fill="#ff725e"/>
    <g id="Grupo_1070978" data-name="Grupo 1070978">
      <g id="Grupo_1070977" data-name="Grupo 1070977" clip-path="url(#clip-path)">
        <g id="Grupo_1070976" data-name="Grupo 1070976" transform="translate(196.053 354.309)" opacity="0.79">
          <g id="Grupo_1070975" data-name="Grupo 1070975" transform="translate(0)">
            <g id="Grupo_1070974" data-name="Grupo 1070974" transform="translate(0)" clip-path="url(#clip-path-7)">
              <rect id="Rectángulo_376185" data-name="Rectángulo 376185" width="25.972" height="36.799" transform="translate(0 0)" fill="#fff"/>
            </g>
          </g>
        </g>
      </g>
    </g>
    <rect id="Rectángulo_376188" data-name="Rectángulo 376188" width="25.971" height="69.7" transform="translate(142.123 321.408)" fill="#ff725e"/>
    <rect id="Rectángulo_376189" data-name="Rectángulo 376189" width="25.971" height="158.831" transform="translate(88.707 232.277)" fill="#632059"/>
    <g id="Grupo_1071013" data-name="Grupo 1071013">
      <g id="Grupo_1071012" data-name="Grupo 1071012" clip-path="url(#clip-path)">
        <g id="Grupo_1070981" data-name="Grupo 1070981" transform="translate(89.772 232.276)" opacity="0.58">
          <g id="Grupo_1070980" data-name="Grupo 1070980" transform="translate(0)">
            <g id="Grupo_1070979" data-name="Grupo 1070979" clip-path="url(#clip-path-9)">
              <rect id="Rectángulo_376190" data-name="Rectángulo 376190" width="25.971" height="158.831" transform="translate(0 0.001)" fill="#fff"/>
            </g>
          </g>
        </g>
        <path id="Trazado_816399" data-name="Trazado 816399" d="M16.458,403.207c-.2.215,5.424,6.507,12.565,14.054s13.1,13.493,13.3,13.279-5.423-6.505-12.567-14.054-13.1-13.492-13.3-13.278" transform="translate(343.236 -39.411)" fill="#fff"/>
        <path id="Trazado_816400" data-name="Trazado 816400" d="M80.545,403.715c-.2.215,5.424,6.507,12.566,14.054s13.1,13.493,13.3,13.279-5.423-6.506-12.567-14.055-13.1-13.492-13.3-13.279" transform="translate(222.932 -39.46)" fill="#3b5620"/>
        <path id="Trazado_816401" data-name="Trazado 816401" d="M202.946,403.182c-.2.215,5.424,6.507,12.566,14.054s13.1,13.493,13.3,13.279-5.423-6.506-12.567-14.055-13.1-13.492-13.3-13.278" transform="translate(-6.841 -39.408)" fill="#ff725e"/>
        <path id="Trazado_816402" data-name="Trazado 816402" d="M16.058,376.3c-.2.215,5.424,6.507,12.566,14.053s13.1,13.494,13.3,13.279-5.423-6.505-12.567-14.054-13.1-13.492-13.3-13.278" transform="translate(343.987 -36.781)" fill="#fff"/>
        <path id="Trazado_816403" data-name="Trazado 816403" d="M140.924,403.646c-.2.215,5.424,6.507,12.565,14.054s13.1,13.493,13.3,13.279-5.423-6.506-12.567-14.055-13.1-13.492-13.3-13.279" transform="translate(109.587 -39.454)" fill="#fff"/>
        <path id="Trazado_816404" data-name="Trazado 816404" d="M140.525,376.736c-.2.215,5.424,6.507,12.566,14.054s13.1,13.493,13.3,13.279-5.423-6.506-12.567-14.055-13.1-13.492-13.3-13.278" transform="translate(110.336 -36.823)" fill="#fff"/>
        <path id="Trazado_816405" data-name="Trazado 816405" d="M140.526,356.226c-.2.214,3.612,4.592,8.519,9.778s9.051,9.217,9.254,9-3.611-4.592-8.52-9.779-9.051-9.217-9.254-9" transform="translate(118.429 -34.818)" fill="#fff"/>
        <path id="Trazado_816406" data-name="Trazado 816406" d="M325.222,403.182c-.2.215,5.424,6.507,12.566,14.054s13.1,13.493,13.3,13.279-5.423-6.506-12.567-14.055-13.1-13.492-13.3-13.278" transform="translate(-236.379 -39.408)" fill="#632059"/>
        <path id="Trazado_816407" data-name="Trazado 816407" d="M324.823,376.272c-.2.215,5.424,6.507,12.566,14.055s13.1,13.493,13.3,13.278-5.423-6.505-12.567-14.055-13.1-13.491-13.3-13.278" transform="translate(-235.63 -36.778)" fill="#632059"/>
        <path id="Trazado_816408" data-name="Trazado 816408" d="M324.823,346.283c-.2.215,5.424,6.507,12.566,14.053s13.1,13.494,13.3,13.279-5.423-6.505-12.567-14.054-13.1-13.493-13.3-13.279" transform="translate(-235.63 -33.847)" fill="#632059"/>
        <path id="Trazado_816409" data-name="Trazado 816409" d="M265.205,403.182c-.2.215,5.424,6.507,12.566,14.054s13.1,13.493,13.3,13.279-5.423-6.506-12.567-14.055-13.1-13.492-13.3-13.278" transform="translate(-123.714 -39.408)" fill="#fff"/>
        <path id="Trazado_816410" data-name="Trazado 816410" d="M264.805,376.272c-.2.215,5.424,6.507,12.566,14.055s13.1,13.493,13.3,13.278-5.423-6.505-12.567-14.055-13.1-13.491-13.3-13.278" transform="translate(-122.964 -36.778)" fill="#fff"/>
        <path id="Trazado_816411" data-name="Trazado 816411" d="M264.806,355.966c-.2.215,3.573,4.551,8.433,9.686s8.964,9.126,9.167,8.912-3.572-4.551-8.434-9.687-8.963-9.125-9.166-8.911" transform="translate(-114.697 -34.793)" fill="#fff"/>
        <path id="Trazado_816412" data-name="Trazado 816412" d="M325.222,317.28c-.2.215,5.424,6.507,12.566,14.054s13.1,13.493,13.3,13.279-5.423-6.506-12.567-14.055-13.1-13.492-13.3-13.279" transform="translate(-236.379 -31.012)" fill="#632059"/>
        <path id="Trazado_816413" data-name="Trazado 816413" d="M325.222,263.351c-.2.215,5.424,6.507,12.566,14.054s13.1,13.493,13.3,13.279-5.423-6.505-12.567-14.054-13.1-13.492-13.3-13.279" transform="translate(-236.379 -25.741)" fill="#632059"/>
        <path id="Trazado_816414" data-name="Trazado 816414" d="M324.823,290.37c-.2.215,5.424,6.507,12.566,14.054s13.1,13.493,13.3,13.279-5.423-6.506-12.567-14.055-13.1-13.492-13.3-13.278" transform="translate(-235.63 -28.382)" fill="#632059"/>
        <rect id="Rectángulo_376192" data-name="Rectángulo 376192" width="24.542" height="254.607" transform="translate(33.735 136.5)" fill="#632059"/>
        <g id="Grupo_1070984" data-name="Grupo 1070984" transform="translate(33.614 365.273)" opacity="0.6">
          <g id="Grupo_1070983" data-name="Grupo 1070983" transform="translate(0)">
            <g id="Grupo_1070982" data-name="Grupo 1070982" transform="translate(0)" clip-path="url(#clip-path-10)">
              <path id="Trazado_816415" data-name="Trazado 816415" d="M389.8,404.849c-.191.2,5.126,6.149,11.874,13.28s12.378,12.752,12.57,12.549-5.124-6.148-11.876-13.281-12.377-12.75-12.568-12.548" transform="translate(-389.794 -404.845)" fill="#fff"/>
            </g>
          </g>
        </g>
        <g id="Grupo_1070987" data-name="Grupo 1070987" transform="translate(33.945 342.33)" opacity="0.6">
          <g id="Grupo_1070986" data-name="Grupo 1070986" transform="translate(0)">
            <g id="Grupo_1070985" data-name="Grupo 1070985" transform="translate(0)" clip-path="url(#clip-path-11)">
              <path id="Trazado_816416" data-name="Trazado 816416" d="M389.422,379.42c-.192.2,5.126,6.149,11.874,13.28s12.378,12.752,12.57,12.549-5.124-6.148-11.876-13.282-12.377-12.75-12.568-12.548" transform="translate(-389.417 -379.415)" fill="#fff"/>
            </g>
          </g>
        </g>
        <g id="Grupo_1070990" data-name="Grupo 1070990" transform="translate(33.945 316.761)" opacity="0.6">
          <g id="Grupo_1070989" data-name="Grupo 1070989" transform="translate(0)">
            <g id="Grupo_1070988" data-name="Grupo 1070988" transform="translate(0)" clip-path="url(#clip-path-11)">
              <path id="Trazado_816417" data-name="Trazado 816417" d="M389.422,351.082c-.192.2,5.126,6.149,11.874,13.28s12.378,12.752,12.57,12.549-5.124-6.147-11.876-13.281-12.377-12.75-12.568-12.548" transform="translate(-389.417 -351.077)" fill="#fff"/>
            </g>
          </g>
        </g>
        <g id="Grupo_1070993" data-name="Grupo 1070993" transform="translate(33.614 292.033)" opacity="0.6">
          <g id="Grupo_1070992" data-name="Grupo 1070992" transform="translate(0)">
            <g id="Grupo_1070991" data-name="Grupo 1070991" transform="translate(0)" clip-path="url(#clip-path-10)">
              <path id="Trazado_816418" data-name="Trazado 816418" d="M389.8,323.675c-.191.2,5.126,6.149,11.874,13.28s12.378,12.752,12.57,12.549-5.124-6.147-11.876-13.281-12.377-12.75-12.568-12.548" transform="translate(-389.794 -323.67)" fill="#fff"/>
            </g>
          </g>
        </g>
        <g id="Grupo_1070996" data-name="Grupo 1070996" transform="translate(33.945 269.09)" opacity="0.6">
          <g id="Grupo_1070995" data-name="Grupo 1070995" transform="translate(0)">
            <g id="Grupo_1070994" data-name="Grupo 1070994" transform="translate(0)" clip-path="url(#clip-path-11)">
              <path id="Trazado_816419" data-name="Trazado 816419" d="M389.422,298.246c-.192.2,5.126,6.149,11.874,13.28s12.378,12.752,12.57,12.549-5.124-6.148-11.876-13.281-12.377-12.75-12.568-12.548" transform="translate(-389.417 -298.241)" fill="#fff"/>
            </g>
          </g>
        </g>
        <g id="Grupo_1070999" data-name="Grupo 1070999" transform="translate(33.945 243.52)" opacity="0.6">
          <g id="Grupo_1070998" data-name="Grupo 1070998" transform="translate(0)">
            <g id="Grupo_1070997" data-name="Grupo 1070997" transform="translate(0)" clip-path="url(#clip-path-11)">
              <path id="Trazado_816420" data-name="Trazado 816420" d="M389.422,269.907c-.192.2,5.126,6.149,11.874,13.28s12.378,12.752,12.57,12.549-5.124-6.148-11.876-13.281-12.377-12.751-12.568-12.548" transform="translate(-389.417 -269.902)" fill="#fff"/>
            </g>
          </g>
        </g>
        <g id="Grupo_1071002" data-name="Grupo 1071002" transform="translate(33.945 213.506)" opacity="0.6">
          <g id="Grupo_1071001" data-name="Grupo 1071001" transform="translate(0)">
            <g id="Grupo_1071000" data-name="Grupo 1071000" transform="translate(0)" clip-path="url(#clip-path-11)">
              <path id="Trazado_816421" data-name="Trazado 816421" d="M389.422,236.641c-.192.2,5.126,6.149,11.874,13.28s12.378,12.752,12.57,12.549-5.124-6.147-11.876-13.281-12.377-12.75-12.568-12.548" transform="translate(-389.417 -236.636)" fill="#fff"/>
            </g>
          </g>
        </g>
        <g id="Grupo_1071005" data-name="Grupo 1071005" transform="translate(33.614 182.085)" opacity="0.6">
          <g id="Grupo_1071004" data-name="Grupo 1071004" transform="translate(0)">
            <g id="Grupo_1071003" data-name="Grupo 1071003" transform="translate(0)" clip-path="url(#clip-path-10)">
              <path id="Trazado_816422" data-name="Trazado 816422" d="M389.8,201.815c-.191.2,5.126,6.149,11.874,13.28s12.378,12.752,12.57,12.549-5.124-6.148-11.876-13.282-12.377-12.75-12.568-12.548" transform="translate(-389.794 -201.811)" fill="#fff"/>
            </g>
          </g>
        </g>
        <g id="Grupo_1071008" data-name="Grupo 1071008" transform="translate(33.943 151.223)" opacity="0.6">
          <g id="Grupo_1071007" data-name="Grupo 1071007" transform="translate(0)">
            <g id="Grupo_1071006" data-name="Grupo 1071006" transform="translate(0)" clip-path="url(#clip-path-11)">
              <path id="Trazado_816423" data-name="Trazado 816423" d="M389.424,167.61c-.192.2,5.126,6.149,11.874,13.28s12.378,12.752,12.57,12.549-5.125-6.148-11.876-13.281-12.377-12.751-12.568-12.548" transform="translate(-389.419 -167.605)" fill="#fff"/>
            </g>
          </g>
        </g>
        <g id="Grupo_1071011" data-name="Grupo 1071011" transform="translate(43.767 136.034)" opacity="0.6">
          <g id="Grupo_1071010" data-name="Grupo 1071010" transform="translate(0)">
            <g id="Grupo_1071009" data-name="Grupo 1071009" clip-path="url(#clip-path-19)">
              <path id="Trazado_816424" data-name="Trazado 816424" d="M389.424,150.779c-.192.2,2.925,3.825,6.961,8.089s7.464,7.559,7.655,7.357-2.925-3.824-6.962-8.09-7.463-7.558-7.655-7.356" transform="translate(-389.416 -150.771)" fill="#fff"/>
            </g>
          </g>
        </g>
        <path id="Trazado_816425" data-name="Trazado 816425" d="M16.053,147.425s.375-.257,1.09-.777l1.333-.97,1.9-1.26a65.03,65.03,0,0,1,13.432-6.681,57.859,57.859,0,0,1,10.46-2.7,47.3,47.3,0,0,1,12.793-.3c9.154,1.007,19.213,5.458,27.973,13.289A85.687,85.687,0,0,1,97.372,161.75c3.729,5.265,7.445,10.883,11.289,16.688,7.66,11.638,15.532,24.289,23.707,37.669s16.65,27.5,25.723,41.952c4.551,7.215,9.227,14.53,14.111,21.858,2.449,3.652,4.764,7.437,7.141,11.22s4.778,7.586,7.264,11.365a227.409,227.409,0,0,0,15.778,21.62,77.56,77.56,0,0,0,9.139,9.337,31.023,31.023,0,0,0,5.285,3.686,13.531,13.531,0,0,0,6.085,1.846,16.122,16.122,0,0,0,6.047-1.8,61.383,61.383,0,0,0,5.489-2.98c3.554-2.134,6.939-4.463,10.243-6.829,6.6-4.749,12.847-9.692,18.858-14.62q4.507-3.7,8.824-7.4,4.3-3.716,8.555-7.232c5.678-4.68,11.257-9.145,16.813-13.229,5.506-4.135,11.274-7.57,17.378-9.337a38.466,38.466,0,0,1,17.986-.659,48.863,48.863,0,0,1,15.275,6.272,74.436,74.436,0,0,1,11.777,9.1c6.8,6.421,12.543,12.079,17.2,16.74s8.227,8.331,10.641,10.825c1.2,1.245,2.118,2.2,2.742,2.841s.94.963.94.963-.3-.345-.907-1l-2.71-2.875c-2.394-2.516-5.946-6.2-10.583-10.888s-10.366-10.361-17.153-16.8a74.489,74.489,0,0,0-11.8-9.168,49.1,49.1,0,0,0-15.359-6.341,38.771,38.771,0,0,0-18.145.635c-6.156,1.77-11.987,5.237-17.5,9.369-5.569,4.085-11.156,8.546-16.844,13.224q-4.265,3.509-8.567,7.229-4.319,3.689-8.823,7.386c-6.01,4.919-12.257,9.854-18.845,14.59-3.3,2.359-6.679,4.682-10.217,6.8a60.827,60.827,0,0,1-5.45,2.957,15.791,15.791,0,0,1-5.862,1.757,13.135,13.135,0,0,1-5.876-1.8,30.606,30.606,0,0,1-5.209-3.636,77.165,77.165,0,0,1-9.081-9.284,227.239,227.239,0,0,1-15.742-21.577c-2.482-3.774-4.885-7.573-7.259-11.356s-4.695-7.569-7.15-11.229c-4.882-7.324-9.557-14.634-14.11-21.845-9.075-14.443-17.562-28.552-25.742-41.932s-16.073-26.023-23.75-37.657c-3.854-5.808-7.571-11.412-11.32-16.689a85.891,85.891,0,0,0-12.413-13.75c-8.814-7.853-18.943-12.311-28.154-13.3a47.441,47.441,0,0,0-12.855.338,57.894,57.894,0,0,0-10.485,2.744,64.068,64.068,0,0,0-13.422,6.774l-1.887,1.281-1.322.99c-.708.533-1.063.816-1.063.816" transform="translate(-5.746 -13.117)" fill="#3b5620"/>
        <path id="Trazado_816426" data-name="Trazado 816426" d="M85.534,290.75a5.112,5.112,0,1,0,5.1-5.38,5.248,5.248,0,0,0-5.1,5.38" transform="translate(229.226 -27.893)" fill="#3b5620"/>
        <path id="Trazado_816427" data-name="Trazado 816427" d="M90.072,299.925a9.648,9.648,0,1,0-9.153-9.635,9.414,9.414,0,0,0,9.153,9.635m0-18.369A8.746,8.746,0,1,1,81.8,290.29a8.524,8.524,0,0,1,8.276-8.734" transform="translate(229.792 -27.432)" fill="#3b5620"/>
        <path id="Trazado_816428" data-name="Trazado 816428" d="M398.329,133.724a5.112,5.112,0,1,0,5.1-5.38,5.248,5.248,0,0,0-5.1,5.38" transform="translate(-357.957 -12.545)" fill="#632059"/>
        <path id="Trazado_816429" data-name="Trazado 816429" d="M402.868,142.9a9.648,9.648,0,1,0-9.154-9.635,9.414,9.414,0,0,0,9.154,9.635m0-18.369a8.746,8.746,0,1,1-8.276,8.734,8.523,8.523,0,0,1,8.276-8.734" transform="translate(-357.391 -12.084)" fill="#632059"/>
      </g>
    </g>
    <path id="Trazado_816430" data-name="Trazado 816430" d="M99.008,201.473v46.879H42.756l-10.336,14.9v-14.9H20.193V201.473Z" transform="translate(283.279 -19.693)" fill="#fafafa"/>
    <g id="Grupo_1071015" data-name="Grupo 1071015">
      <g id="Grupo_1071014" data-name="Grupo 1071014" clip-path="url(#clip-path)">
        <path id="Trazado_816431" data-name="Trazado 816431" d="M99.041,201.45s-.118-.008-.361-.013l-1.09-.013-4.264-.025-16.143-.057-56.957-.106h-.207v.214c-.006,14.359-.013,30.2-.021,46.879v.235H32.453l-.228-.235q0,7.559,0,14.9v.73l.411-.594q5.292-7.636,10.331-14.9l-.18.1,56.252-.052h.171v-.175c-.038-14.467-.069-26.2-.091-34.333-.018-4.036-.032-7.175-.042-9.32q-.012-1.578-.019-2.415c-.005-.542-.018-.811-.018-.811s-.012.293-.018.847-.011,1.381-.019,2.447c-.01,2.155-.024,5.307-.042,9.36-.022,8.108-.054,19.8-.091,34.225l.17-.175L42.789,248.1h-.114l-.067.1-10.34,14.9.411.135q0-7.33,0-14.9v-.235H20.226l.227.234c-.007-16.678-.013-32.52-.02-46.879l-.207.213,56.821-.106,16.19-.057,4.305-.025,1.113-.013c.251,0,.385-.013.385-.013" transform="translate(283.245 -19.67)" fill="#263238"/>
        <path id="Trazado_816432" data-name="Trazado 816432" d="M36.834,222.194c0,.13,11.108.235,24.808.235s24.81-.1,24.81-.235-11.106-.235-24.81-.235-24.808.1-24.808.235" transform="translate(281.236 -21.695)" fill="#263238"/>
        <path id="Trazado_816433" data-name="Trazado 816433" d="M36.834,233.648c0,.13,11.108.235,24.808.235s24.81-.1,24.81-.235-11.106-.235-24.81-.235-24.808.1-24.808.235" transform="translate(281.236 -22.815)" fill="#263238"/>
        <path id="Trazado_816434" data-name="Trazado 816434" d="M362.9,55.017h72.358V97.251H423.3l.9.167-10.25,13.435.671-13.6H362.9Z" transform="translate(-353.607 -5.378)" fill="#fafafa"/>
        <path id="Trazado_816435" data-name="Trazado 816435" d="M362.816,54.994s-.011.242-.018.73q-.007.759-.018,2.179c-.01,1.938-.025,4.768-.043,8.4-.021,7.335-.052,17.906-.09,30.921V97.4h.17l51.712.053-.22-.239c-.214,4.316-.443,8.917-.676,13.6l-.036.731.439-.576L424.287,97.54l.234-.307-.374-.069-.9-.167-.04.466H435.4v-.234c-.007-15.036-.014-29.289-.02-42.234V54.78h-.208l-52.3.106-14.819.057-3.913.025-1,.013c-.224,0-.331.013-.331.013s.124.008.354.013l1.023.013,3.954.025,14.865.057,52.16.106-.207-.213c-.006,12.945-.013,27.2-.02,42.234l.227-.235H423.21l-.041.466.9.167-.139-.376L413.68,110.686l.4.155c.229-4.685.454-9.287.666-13.6L414.76,97h-.232l-51.712.053.169.174c-.038-12.97-.069-23.5-.09-30.815-.018-3.652-.032-6.5-.043-8.443q-.012-1.44-.018-2.21c-.006-.5-.018-.766-.018-.766" transform="translate(-353.519 -5.354)" fill="#263238"/>
        <path id="Trazado_816436" data-name="Trazado 816436" d="M423.549,73.939c0-.13-10.1-.235-22.557-.235s-22.559.1-22.559.235,10.1.235,22.559.235,22.557-.1,22.557-.235" transform="translate(-355.514 -7.204)" fill="#263238"/>
        <path id="Trazado_816437" data-name="Trazado 816437" d="M423.549,83.969c0-.13-10.1-.235-22.557-.235s-22.559.1-22.559.235,10.1.235,22.559.235,22.557-.1,22.557-.235" transform="translate(-355.514 -8.185)" fill="#263238"/>
        <path id="Trazado_816438" data-name="Trazado 816438" d="M78.809,118.43a40.752,40.752,0,0,1,8.417-51.755,38.124,38.124,0,0,1,24.821-9.194c21.5,0,38.932,17.927,38.932,40.042s-17.43,40.043-38.932,40.043a38.076,38.076,0,0,1-23.917-8.46l-17.552,4.251h0Z" transform="translate(187.113 -5.618)" fill="#fff"/>
        <path id="Trazado_816439" data-name="Trazado 816439" d="M87.863,128.99l.354-.048a38.125,38.125,0,0,0,18.517,7.907,33.682,33.682,0,0,0,6.087.291c1.047-.065,2.111-.095,3.186-.191l3.243-.515a38.318,38.318,0,0,0,12.918-5.262,39.335,39.335,0,0,0,11.02-10.627,39.913,39.913,0,0,0,6.454-15.233,41.325,41.325,0,0,0-.467-17.524A39.268,39.268,0,0,0,140.964,71.6a38.538,38.538,0,0,0-14.749-10.838,38.149,38.149,0,0,0-17.164-2.728A37.074,37.074,0,0,0,93.279,62.8,39.324,39.324,0,0,0,81.592,73.019,40.615,40.615,0,0,0,75.013,85.8a44.042,44.042,0,0,0-1.718,12.85,40.511,40.511,0,0,0,5.64,19.68l.046.079-.044.079-8.367,14.852,8.061-14.925A40.6,40.6,0,0,1,72.86,98.664a44.356,44.356,0,0,1,1.683-13.011,41.055,41.055,0,0,1,6.626-12.976A39.821,39.821,0,0,1,93,62.277a37.608,37.608,0,0,1,16.007-4.869,38.7,38.7,0,0,1,17.442,2.755A39.119,39.119,0,0,1,141.44,71.171a39.885,39.885,0,0,1,8.34,16.46,41.93,41.93,0,0,1,.457,17.8,40.471,40.471,0,0,1-6.578,15.458,39.811,39.811,0,0,1-11.2,10.753,38.729,38.729,0,0,1-13.109,5.29l-3.287.509c-1.088.093-2.166.119-3.226.18a34,34,0,0,1-6.157-.324A38.258,38.258,0,0,1,88.1,129.26l-17.534,4.082,17.292-4.352" transform="translate(187.116 -5.601)" fill="#263238"/>
        <path id="Trazado_816440" data-name="Trazado 816440" d="M120.314,86.052l-1.11,18.032a2.839,2.839,0,0,1-5.667.136L111.591,86.1a2.272,2.272,0,0,1,2.25-2.548l4.276.061a2.27,2.27,0,0,1,2.2,2.441" transform="translate(181.805 -8.167)" fill="#e7a337"/>
        <path id="Trazado_816441" data-name="Trazado 816441" d="M111.9,119.955a4.253,4.253,0,0,0,5.409,2.79,4.43,4.43,0,0,0,2.713-5.563,4.254,4.254,0,0,0-5.41-2.79,4.43,4.43,0,0,0-2.712,5.563" transform="translate(181.792 -11.159)" fill="#e7a337"/>
      </g>
    </g>
    <g id="Grupo_1071041" data-name="Grupo 1071041">
      <g id="Grupo_1071040" data-name="Grupo 1071040" clip-path="url(#clip-path)">
        <path id="Trazado_816442" data-name="Trazado 816442" d="M204.5,289.88l-3.471,10.108S184.973,315.15,182.6,335.462s-2.369,24.738-2.369,24.738l4.974,59.241H292.266s3.546-47.885,2.23-61.426-8.959-28.863-8.959-28.863l-8.161-20.312-.242-10.223Z" transform="translate(-52.892 -28.334)" fill="#263238"/>
        <path id="Trazado_816443" data-name="Trazado 816443" d="M201.67,302.228a4.629,4.629,0,0,0,.75.169l2.165.393,7.977,1.347c6.741,1.109,16.063,2.58,26.378,4.066s19.684,2.667,26.479,3.364c3.4.359,6.149.595,8.054.734l2.195.142a4.639,4.639,0,0,0,.767.017,4.69,4.69,0,0,0-.76-.112l-2.186-.229c-1.9-.2-4.646-.482-8.035-.882-6.782-.78-16.133-2.021-26.45-3.5s-19.639-2.9-26.392-3.929l-8-1.2-2.178-.306a4.612,4.612,0,0,0-.764-.075" transform="translate(-53.341 -29.541)" fill="#455a64"/>
        <path id="Trazado_816444" data-name="Trazado 816444" d="M200.2,341.957a4.8,4.8,0,0,0,.392.991c.276.625.71,1.515,1.273,2.6a75.646,75.646,0,0,0,4.947,8.141,74.72,74.72,0,0,0,5.917,7.427c.818.9,1.5,1.6,1.986,2.072a4.522,4.522,0,0,0,.786.7,4.649,4.649,0,0,0-.659-.826l-1.874-2.167c-1.569-1.84-3.667-4.446-5.785-7.479s-3.843-5.911-5.035-8.029l-1.4-2.52a4.713,4.713,0,0,0-.55-.907" transform="translate(8.876 -33.424)" fill="#455a64"/>
        <path id="Trazado_816445" data-name="Trazado 816445" d="M344.892,170.343s-2.2,37.952-2.855,42.245,2.855,9.714,2.855,9.714,8.126.9,13.618-9.488l3.514-8.133a53.166,53.166,0,0,1-1.976-21.461c1.318-12.2,1.976-17.848,1.976-17.848Z" transform="translate(-261.99 -16.164)" fill="#ffbe9d"/>
        <path id="Trazado_816446" data-name="Trazado 816446" d="M329.667,110.376c-.964,9.161-.839,17.081,3.548,18.7.368.135,3.313.254,3.7.3,5.05.562,9.991-7.031,11.035-16.961s-2.2-18.433-7.252-19a32.33,32.33,0,0,0-3.635-.365c-4.527.83-6.454,8.326-7.4,17.324" transform="translate(-236.91 -9.094)" fill="#455a64"/>
        <path id="Trazado_816447" data-name="Trazado 816447" d="M343.761,147.046s-3.7,1.264-3.033,4.942a86.553,86.553,0,0,0,3.033,10.195l4.6,5.246,16.706-5.246a10.83,10.83,0,0,0,1.139-5.137c-.112-2.873.007-10,.007-10a17.209,17.209,0,0,1-3.025-6.551c-.559-2.972-.963-6.424-1.082-7.487a.3.3,0,0,0-.367-.272,4.346,4.346,0,0,0-3.245,3.047c-.894,2.873-.67,3.678-.67,3.678Z" transform="translate(-265.032 -12.974)" fill="#ffbe9d"/>
        <path id="Trazado_816448" data-name="Trazado 816448" d="M346.546,134.606l2.389-3.924,2.505,1.989-4.646,9.446-1.268-3.959Z" transform="translate(-254.54 -12.773)" fill="#455a64"/>
        <path id="Trazado_816449" data-name="Trazado 816449" d="M361.813,134.744s-2.613-4.061-5.039-2.127-1.867,3.087,0,6.638c0,0-4.759-.672-3.64,4.51,0,0-4.719-.954-4.6,3.218,0,0-3.893,3.309-2.213,5.8s8.118,7.295,9.891,6.718,1.99-3.071,1.99-3.071a6.662,6.662,0,0,0,2.768-1.823c.653-1.056-.187-2.687-.187-2.687s1.866-1.657,2.333-2.124,0-2.866,0-2.866l-2.519-2.976s3.64,2.016,4.479,1.439,1.773-1.056,1.026-2.3a39.186,39.186,0,0,0-3.528-4.136Z" transform="translate(-269.807 -12.912)" fill="#ffbe9d"/>
        <path id="Trazado_816450" data-name="Trazado 816450" d="M364.947,158.3a13.444,13.444,0,0,0-1.111-1.653,14.777,14.777,0,0,0-3.22-3.59,33.876,33.876,0,0,1-3.71-2.932,19.173,19.173,0,0,1-1.222-1.531,3.634,3.634,0,0,0,.987,1.758,23.4,23.4,0,0,0,3.669,3.08,17.853,17.853,0,0,1,3.24,3.418,6.269,6.269,0,0,0,1.367,1.45" transform="translate(-276.955 -14.524)" fill="#eb996e"/>
        <path id="Trazado_816451" data-name="Trazado 816451" d="M359.924,153.921a37.729,37.729,0,0,0-3.564-4.694c-1.038-1.237-1.918-2.428-2.7-3.178a3.537,3.537,0,0,0-1.4-1.02c-.038.06.482.45,1.165,1.251.7.783,1.532,2,2.582,3.25a37.447,37.447,0,0,0,3.912,4.39" transform="translate(-268.938 -14.175)" fill="#eb996e"/>
        <path id="Trazado_816452" data-name="Trazado 816452" d="M356.269,144.71a17.259,17.259,0,0,0-2.019-2.371,29.583,29.583,0,0,1-1.742-2.545,4.789,4.789,0,0,0,1.4,2.852,7.737,7.737,0,0,0,2.365,2.064" transform="translate(-265.477 -13.664)" fill="#eb996e"/>
        <path id="Trazado_816453" data-name="Trazado 816453" d="M351.145,150.695a3.223,3.223,0,0,0-1.556.657,9.02,9.02,0,0,0-2.776,3.042,17.627,17.627,0,0,0-1.585,3.823,5.875,5.875,0,0,0-.374,1.674,6.858,6.858,0,0,0,.678-1.564,25.293,25.293,0,0,1,1.671-3.691,10.337,10.337,0,0,1,2.57-3.01c.805-.62,1.4-.858,1.372-.93" transform="translate(-253.644 -14.729)" fill="#eb996e"/>
        <path id="Trazado_816454" data-name="Trazado 816454" d="M334.694,110.181c-1.044,9.929,1.6,18.367,5.912,18.846s8.649-7.18,9.693-17.109-1.6-18.366-5.91-18.846-8.649,7.181-9.695,17.109" transform="translate(-243.926 -9.095)" fill="#263238"/>
        <path id="Trazado_816455" data-name="Trazado 816455" d="M340.209,128.845c-4.037-2.082-6.447-9.719-5.526-18.463.915-8.7,4.82-15.6,9.169-16.8,3.424,2.009,5.369,9.6,4.448,18.345-.914,8.694-4.355,15.648-8.091,16.922" transform="translate(-241.944 -9.147)" fill="#e0e0e0"/>
        <path id="Trazado_816456" data-name="Trazado 816456" d="M343.051,122.895a79.631,79.631,0,0,0,.721-8.506,80.083,80.083,0,0,0,.266-8.535,79.763,79.763,0,0,0-.722,8.507,80.18,80.18,0,0,0-.265,8.534" transform="translate(-244.973 -10.347)" fill="#fff"/>
        <path id="Trazado_816457" data-name="Trazado 816457" d="M341.246,116.608a11.409,11.409,0,0,0,.447-2.367c.2-1.472.416-3.518.537-5.785s.125-4.325.079-5.812a11.5,11.5,0,0,0-.194-2.4,13.963,13.963,0,0,0-.129,2.4c-.037,1.482-.094,3.528-.212,5.786s-.281,4.3-.4,5.774a14.046,14.046,0,0,0-.126,2.4" transform="translate(-241.66 -9.798)" fill="#fff"/>
        <path id="Trazado_816458" data-name="Trazado 816458" d="M361.858,134.718a1.311,1.311,0,0,0,.025.286c.032.214.073.484.123.818q.187,1.13.518,3.129l.005.029.022.024c.511.547,1.083,1.174,1.7,1.88a16.765,16.765,0,0,1,1.856,2.417,1.21,1.21,0,0,1,.149.73,1.135,1.135,0,0,1-.423.632,7.436,7.436,0,0,1-.719.513.992.992,0,0,1-.775.089,14.4,14.4,0,0,1-3.609-1.5l-.853-.452.626.744,2.509,2.985-.036-.064a3.7,3.7,0,0,1-.093,2.871,7.865,7.865,0,0,1-2.349,2.08l-.2.128.134.194c.538.778.867,1.961.028,2.6a10.1,10.1,0,0,1-2.739,1.6l.306.211v-.067c-.062.063.141-.152-.146.189-.592-.353-.169-.139-.3-.2v0l0,.108-.021.229a4.294,4.294,0,0,1-.08.459,3.685,3.685,0,0,1-.31.871,2.362,2.362,0,0,1-.547.706,1.348,1.348,0,0,1-.743.357,4.255,4.255,0,0,1-1.777-.522,16.086,16.086,0,0,1-1.726-.985,29.6,29.6,0,0,1-3.031-2.263,18.952,18.952,0,0,1-2.6-2.6,2.371,2.371,0,0,1-.6-1.542,3.683,3.683,0,0,1,.429-1.629,9.4,9.4,0,0,1,2.11-2.646l.074-.068,0-.109a3.64,3.64,0,0,1,.293-1.6,2.377,2.377,0,0,1,1.059-1.086,5.033,5.033,0,0,1,2.995-.326l.273.042-.043-.284c-.047-.313-.107-.623-.144-.931a5.229,5.229,0,0,1,.005-.909,2.554,2.554,0,0,1,.624-1.556,3.533,3.533,0,0,1,2.94-.9l.319.029-.149-.282a27.745,27.745,0,0,1-1.328-2.716,3.905,3.905,0,0,1-.287-1.313,2.142,2.142,0,0,1,.343-1.169,5.239,5.239,0,0,1,1.64-1.549,2.158,2.158,0,0,1,1.8-.033,6.029,6.029,0,0,1,2.106,1.624c.209.231.354.419.456.543a1.1,1.1,0,0,0,.158.185.79.79,0,0,0-.118-.215,6.9,6.9,0,0,0-.423-.579,7.422,7.422,0,0,0-.793-.852,4.556,4.556,0,0,0-1.318-.885,2.346,2.346,0,0,0-1.97,0l-.486.3c-.146.121-.295.245-.447.371a4.818,4.818,0,0,0-.832.936,2.428,2.428,0,0,0-.4,1.318,4.17,4.17,0,0,0,.289,1.426,27.489,27.489,0,0,0,1.316,2.769l.171-.254a4.873,4.873,0,0,0-1.686.1,3.067,3.067,0,0,0-1.569.884,2.943,2.943,0,0,0-.733,1.771,5.7,5.7,0,0,0-.012.986c.036.327.1.652.146.984l.23-.243a5.387,5.387,0,0,0-3.255.343,2.8,2.8,0,0,0-1.251,1.275,4.078,4.078,0,0,0-.344,1.805l.077-.176a9.765,9.765,0,0,0-2.229,2.779,4.135,4.135,0,0,0-.482,1.842,2.97,2.97,0,0,0,.187.983,4.259,4.259,0,0,0,.511.838,19.159,19.159,0,0,0,2.663,2.673,29.867,29.867,0,0,0,3.077,2.3,16.421,16.421,0,0,0,1.776,1.012,4.577,4.577,0,0,0,2,.564,2.273,2.273,0,0,0,1.661-1.311,4.168,4.168,0,0,0,.35-.983,5.041,5.041,0,0,0,.087-.508l.023-.258,0-.137v-.034c-.13-.062.294.151-.3-.2-.289.338-.086.125-.148.189l0,.02v.112l0,.346.3-.134a10.426,10.426,0,0,0,2.874-1.7,2.177,2.177,0,0,0,.528-.726,1.86,1.86,0,0,0,.111-.9,3.546,3.546,0,0,0-.623-1.567l-.062.322a8.167,8.167,0,0,0,2.483-2.235,3.059,3.059,0,0,0,.389-1.646,5.418,5.418,0,0,0-.275-1.59l-.011-.034-.025-.03-2.53-2.967-.227.292a14.512,14.512,0,0,0,3.732,1.507,1.314,1.314,0,0,0,1.005-.15,7.608,7.608,0,0,0,.745-.546,1.439,1.439,0,0,0,.518-.823,1.5,1.5,0,0,0-.188-.924,16.387,16.387,0,0,0-1.932-2.45c-.632-.7-1.218-1.315-1.743-1.852l.027.052-.617-3.125c-.069-.329-.126-.594-.171-.8a1.1,1.1,0,0,0-.075-.266" transform="translate(-269.852 -12.899)" fill="#eb996e"/>
        <path id="Trazado_816459" data-name="Trazado 816459" d="M126.806,316.2l33.129-42.309s17.619,15.258,18.085,15.737S150.462,318.148,132.466,329l-5.66-3.853Z" transform="translate(110.738 -26.771)" fill="#ffbe9d"/>
        <path id="Trazado_816460" data-name="Trazado 816460" d="M182.738,305.608s10.46-1.7,11.423-.991,8.12,5.663,8.12,5.663a40.09,40.09,0,0,0,3.166,4.388s2.34,2.831,4.129,3.115a7.788,7.788,0,0,0,2.89,0l4.68,13.306s-3.578,3.822-5.781,3.539-13.9-6.936-13.9-6.936l-2.89-.992s-11.285.425-11.836-3.114v-.992l11.148-.991,4.129.708-7.156-2.769s-10.46-.629-11.423-.912-2.065-1.84-1.652-2.69l2.2-.282s-2.375-1.69-2.291-3.247l9.9-1.616s-5.958-3.065-4.857-5.188" transform="translate(26.98 -29.758)" fill="#ffbe9d"/>
        <path id="Trazado_816461" data-name="Trazado 816461" d="M196.492,316.459a3.944,3.944,0,0,0,.907-.13c.577-.106,1.415-.247,2.453-.405,2.075-.316,4.954-.689,8.138-1.056a9.947,9.947,0,0,1,1.153-.1,3.4,3.4,0,0,1,1.061.2c.672.272,1.352.6,1.975.893,1.254.6,2.364,1.187,3.275,1.716a24.506,24.506,0,0,1,2.094,1.353,4.992,4.992,0,0,0,.751.535,2.8,2.8,0,0,0-.641-.678,16.559,16.559,0,0,0-2.04-1.5,37.15,37.15,0,0,0-3.258-1.821c-.635-.313-1.275-.633-2.007-.937a3.791,3.791,0,0,0-1.2-.227,9.722,9.722,0,0,0-1.213.1c-3.191.366-6.07.793-8.141,1.195-1.035.2-1.868.392-2.438.554a3.126,3.126,0,0,0-.868.309" transform="translate(9.336 -30.721)" fill="#eb996e"/>
        <path id="Trazado_816462" data-name="Trazado 816462" d="M196.285,311.859c.03.074.807-.279,2.13-.541a11.6,11.6,0,0,1,5.187.15,11.812,11.812,0,0,1,4.606,2.461c1.032.891,1.545,1.586,1.606,1.536a5.71,5.71,0,0,0-1.392-1.786,10.866,10.866,0,0,0-4.705-2.667,10.656,10.656,0,0,0-5.371-.02,5.487,5.487,0,0,0-2.061.866" transform="translate(18.001 -30.365)" fill="#eb996e"/>
        <path id="Trazado_816463" data-name="Trazado 816463" d="M281.89,214.814a18.006,18.006,0,0,0-2.015,7.263c0,3.528,2.006,9.7,2.006,9.7l2.5,2.425s-1.638,7.717,7.863,9.922,62.684-29.24,62.684-29.24l1.483-41.759a46.863,46.863,0,0,0-13.291,9.041c-5.575,5.733-37.3,29.766-37.3,29.766s-1.289-8.514-2.718-7.951-21.206,10.831-21.206,10.831" transform="translate(-201.916 -16.922)" fill="#e0e0e0"/>
        <path id="Trazado_816464" data-name="Trazado 816464" d="M173.932,171.552l28.782-6.3,7.492-7.92,33.1-.325,3.986,7.452,24.8,15.512s-6.246,42.49-8.524,47.438S243.23,287,243.23,287l-72.155-8.854-.618-34.291-2.086-16.592a50.586,50.586,0,0,1-.206-10.7c1.35-15.52,5.767-45.008,5.767-45.008" transform="translate(-19.442 -15.347)" fill="#e0e0e0"/>
        <path id="Trazado_816465" data-name="Trazado 816465" d="M131.373,275.148l23.65,16.683,8.264-12.115-2.208-2.019s12.2-10.375,11.467-17.7-13.6-26.144-13.6-26.144-27.569-46.42-36.113-51.4c-1.2-.7-11.567,25.066-11.567,35.163s1.963,10.1,1.963,10.1,8.344,8.33,12.27,15.9,10.594,15.817,15.011,18.846Z" transform="translate(129.821 -17.833)" fill="#e0e0e0"/>
        <path id="Trazado_816466" data-name="Trazado 816466" d="M146.789,264.541c0-.033-.226-.054-.638-.066a11.507,11.507,0,0,0-1.739.1,16.715,16.715,0,0,0-5.492,1.713,18.184,18.184,0,0,0-4.663,3.443,8.087,8.087,0,0,0-1.509,1.887,27.373,27.373,0,0,1,6.376-4.909,19.42,19.42,0,0,1,5.337-1.8c1.425-.255,2.33-.282,2.328-.363" transform="translate(136.765 -25.851)" fill="#263238"/>
        <path id="Trazado_816467" data-name="Trazado 816467" d="M147.125,255.442a7.131,7.131,0,0,0-1.759,1.538,16.817,16.817,0,0,0-3.049,4.8,17.544,17.544,0,0,0-1.324,5.574,7.64,7.64,0,0,0,.1,2.373c.078,0,.059-.907.226-2.341a20.455,20.455,0,0,1,1.421-5.419,19.635,19.635,0,0,1,2.87-4.77c.908-1.1,1.569-1.7,1.518-1.759" transform="translate(129.216 -24.968)" fill="#263238"/>
        <path id="Trazado_816468" data-name="Trazado 816468" d="M232.472,226.167a6.5,6.5,0,0,0-.214,1.229,12.556,12.556,0,0,0-.139,1.459c-.026.57-.088,1.221-.058,1.941a23.292,23.292,0,0,0,.108,2.354c.046.848.2,1.741.338,2.684a31.54,31.54,0,0,0,4.408,11.47c.525.786,1.009,1.545,1.538,2.2a22.579,22.579,0,0,0,1.486,1.794c.457.547.935.978,1.333,1.376a11.982,11.982,0,0,0,1.07.967,6.194,6.194,0,0,0,.973.746c.063-.076-1.3-1.173-3.136-3.311-.455-.538-.95-1.129-1.426-1.809-.51-.653-.975-1.41-1.483-2.192a33.032,33.032,0,0,1-4.348-11.316c-.148-.928-.312-1.807-.375-2.643-.105-.831-.138-1.61-.162-2.322-.083-2.85.183-4.611.088-4.622" transform="translate(-46.878 -22.107)" fill="#263238"/>
        <path id="Trazado_816469" data-name="Trazado 816469" d="M196.243,204.044a4.231,4.231,0,0,0,.561-.433c.361-.291.871-.749,1.568-1.291,1.366-1.119,3.406-2.66,5.988-4.494s5.714-3.951,9.181-6.355a111.676,111.676,0,0,0,10.958-8.4l-.337-.04c.368.54.743,1.133,1.1,1.746a26.264,26.264,0,0,1,3.02,8.23l.132.715.289-.662a117.144,117.144,0,0,0,6.48-19.675c.589-2.517.986-4.545,1.221-5.944.126-.7.2-1.242.252-1.608a3.034,3.034,0,0,0,.059-.561,2.977,2.977,0,0,0-.136.548c-.082.4-.189.929-.325,1.592-.282,1.388-.721,3.4-1.347,5.9a124.83,124.83,0,0,1-6.607,19.557l.42.052a26.519,26.519,0,0,0-3.064-8.385c-.361-.623-.743-1.228-1.118-1.778l-.145-.213-.193.173a116.026,116.026,0,0,1-10.888,8.4c-3.449,2.423-6.568,4.566-9.128,6.442s-4.581,3.457-5.917,4.621c-.682.565-1.175,1.046-1.518,1.36a4.286,4.286,0,0,0-.5.5" transform="translate(-8.863 -16.154)" fill="#263238"/>
        <path id="Trazado_816470" data-name="Trazado 816470" d="M250.85,166.148a1.81,1.81,0,0,0-.24.373c-.145.253-.361.624-.621,1.117-.531.98-1.268,2.424-2.126,4.261a73.927,73.927,0,0,0-5.347,15.328l-.135.622.491-.392a32.911,32.911,0,0,0,4.175-3.983,33.452,33.452,0,0,0,2.226-2.832l-.41-.125c.285,5.212.545,9.974.758,13.88l0,.043.019.036,3.831,7.066,1.076,1.929a4.314,4.314,0,0,0,.409.659,4.14,4.14,0,0,0-.316-.711l-.991-1.977-3.692-7.144.021.078c-.187-3.908-.415-8.671-.665-13.885l-.032-.66-.378.535a33.708,33.708,0,0,1-2.2,2.791,33.088,33.088,0,0,1-4.11,3.935l.356.229a79.035,79.035,0,0,1,5.173-15.3c.82-1.849,1.516-3.311,2-4.313l.554-1.152a1.883,1.883,0,0,0,.169-.412" transform="translate(-67.577 -16.24)" fill="#263238"/>
        <path id="Trazado_816471" data-name="Trazado 816471" d="M283.531,221.462c.125.013.889-7.142,1.7-15.978s1.375-16.012,1.248-16.024-.888,7.14-1.7,15.98-1.374,16.01-1.248,16.022" transform="translate(-135.203 -18.519)" fill="#263238"/>
        <path id="Trazado_816472" data-name="Trazado 816472" d="M337.456,228.411a7.479,7.479,0,0,0,1.537-1.509,23.9,23.9,0,0,0,2.937-4.325,24.2,24.2,0,0,0,1.947-4.882,7.731,7.731,0,0,0,.4-2.145,51.736,51.736,0,0,1-2.75,6.8,51.035,51.035,0,0,1-4.073,6.059" transform="translate(-240.31 -21.069)" fill="#263238"/>
        <path id="Trazado_816473" data-name="Trazado 816473" d="M336.751,229.186c.025.019.177-.163.432-.512a11.27,11.27,0,0,0,.943-1.566,16.727,16.727,0,0,0,1.2-11.863,11.455,11.455,0,0,0-.611-1.732c-.179-.394-.291-.6-.32-.591-.075.032.283.916.618,2.405a18.563,18.563,0,0,1-1.174,11.635c-.624,1.387-1.151,2.177-1.084,2.224" transform="translate(-235.295 -20.812)" fill="#263238"/>
        <path id="Trazado_816474" data-name="Trazado 816474" d="M177.321,211.333a4.384,4.384,0,0,0-.474.907l-1.161,2.526c-1.033,2.229-2.374,5.124-3.855,8.324-1.51,3.252-2.838,6.217-3.739,8.391-.452,1.087-.8,1.972-1.029,2.591a4.338,4.338,0,0,0-.311.979,4.439,4.439,0,0,0,.474-.907l1.161-2.527c1.032-2.229,2.373-5.124,3.856-8.325,1.508-3.251,2.836-6.216,3.737-8.39.452-1.086.8-1.971,1.03-2.59a4.412,4.412,0,0,0,.311-.979" transform="translate(76.4 -20.657)" fill="#263238"/>
        <path id="Trazado_816475" data-name="Trazado 816475" d="M251.086,266.2a5.337,5.337,0,0,0,.258,1.1c.192.7.5,1.7.9,2.928.8,2.459,2.01,5.821,3.534,9.456s3.079,6.845,4.273,9.129c.6,1.142,1.095,2.057,1.457,2.68a5.211,5.211,0,0,0,.6.945,5.28,5.28,0,0,0-.444-1.032c-.354-.734-.8-1.653-1.326-2.745-1.118-2.318-2.617-5.541-4.14-9.163s-2.774-6.955-3.649-9.38c-.411-1.143-.757-2.106-1.034-2.875a5.274,5.274,0,0,0-.426-1.039" transform="translate(-82.36 -26.019)" fill="#263238"/>
        <path id="Trazado_816476" data-name="Trazado 816476" d="M255.218,282.957a6.261,6.261,0,0,0,.7,1.67,33.98,33.98,0,0,0,2.225,3.739,33.637,33.637,0,0,0,2.669,3.417,6.1,6.1,0,0,0,1.292,1.242c.1-.1-1.695-2.15-3.588-4.93s-3.177-5.2-3.3-5.138" transform="translate(-85.981 -27.657)" fill="#263238"/>
        <path id="Trazado_816477" data-name="Trazado 816477" d="M242.228,275.64a4.1,4.1,0,0,0,.1-.7c.049-.5.114-1.169.2-2,.15-1.742.4-4.26.714-7.368.663-6.212,1.689-14.79,3.451-24.151a231.1,231.1,0,0,1,5.68-23.7c.432-1.5.857-2.842,1.233-4.021s.692-2.2.974-3.023q.388-1.194.621-1.909a4.028,4.028,0,0,0,.187-.678,3.976,3.976,0,0,0-.274.645q-.264.706-.7,1.88c-.307.817-.659,1.824-1.048,3s-.846,2.512-1.3,4.006a206.882,206.882,0,0,0-5.821,23.7c-1.764,9.381-2.742,17.98-3.324,24.207-.276,3.116-.474,5.64-.57,7.387-.046.838-.082,1.507-.11,2.011a4.127,4.127,0,0,0-.007.7" transform="translate(-67.861 -20.34)" fill="#263238"/>
        <path id="Trazado_816478" data-name="Trazado 816478" d="M259.277,288.657a10.844,10.844,0,0,1,.575-8.389c-.043-.032-.385.334-.759,1.052a8.068,8.068,0,0,0-.424,6.187c.273.765.561,1.177.608,1.15" transform="translate(-86.397 -27.394)" fill="#263238"/>
        <path id="Trazado_816479" data-name="Trazado 816479" d="M257.483,294.115c.125-.007.195-.587.154-1.295s-.175-1.275-.3-1.268-.195.587-.154,1.295.176,1.275.3,1.268" transform="translate(-83.242 -28.498)" fill="#263238"/>
        <path id="Trazado_816480" data-name="Trazado 816480" d="M121.852,275.047a5.083,5.083,0,0,0,1.049.368c.682.2,1.663.52,2.858.953,1.2.416,2.6,1.009,4.136,1.693,1.526.713,3.177,1.554,4.868,2.522a72.274,72.274,0,0,1,8.27,5.6c1.01.789,1.818,1.444,2.371,1.9a5.181,5.181,0,0,0,.894.674,5.24,5.24,0,0,0-.778-.813c-.518-.5-1.3-1.2-2.288-2.026a59.519,59.519,0,0,0-8.247-5.754c-1.7-.975-3.374-1.812-4.921-2.507a44.685,44.685,0,0,0-4.2-1.611,29.873,29.873,0,0,0-2.916-.816,5.046,5.046,0,0,0-1.094-.19" transform="translate(146.811 -26.884)" fill="#263238"/>
        <path id="Trazado_816481" data-name="Trazado 816481" d="M125.88,275.062c0,.082,1.2.043,3.117.217a31.773,31.773,0,0,1,7.326,1.587,39.291,39.291,0,0,1,6.837,3.174c1.675.979,2.669,1.665,2.711,1.6a3.012,3.012,0,0,0-.645-.56c-.43-.341-1.079-.8-1.9-1.326a32.725,32.725,0,0,0-6.857-3.335,27.421,27.421,0,0,0-7.448-1.472,18.707,18.707,0,0,0-2.3.007,2.9,2.9,0,0,0-.839.107" transform="translate(143.705 -26.872)" fill="#263238"/>
        <g id="Grupo_1071018" data-name="Grupo 1071018" transform="translate(243.847 193.903)" opacity="0.3">
          <g id="Grupo_1071017" data-name="Grupo 1071017" transform="translate(0)">
            <g id="Grupo_1071016" data-name="Grupo 1071016" transform="translate(0)" clip-path="url(#clip-path-22)">
              <path id="Trazado_816482" data-name="Trazado 816482" d="M176.63,214.909a19.521,19.521,0,0,1-8.228,18.766c2.066-5.414,5.65-13.2,8.228-18.766" transform="translate(-168.402 -214.909)"/>
            </g>
          </g>
        </g>
        <g id="Grupo_1071021" data-name="Grupo 1071021" transform="translate(192.159 166.704)" opacity="0.3">
          <g id="Grupo_1071020" data-name="Grupo 1071020">
            <g id="Grupo_1071019" data-name="Grupo 1071019" clip-path="url(#clip-path-23)">
              <path id="Trazado_816483" data-name="Trazado 816483" d="M233.241,190.885a20.484,20.484,0,0,1-4.5,6.154q.043-2.466.088-4.933L206.855,202.15l23.586-17.386c1.288,2.229,1.511,3.892,2.8,6.121" transform="translate(-206.855 -184.764)"/>
            </g>
          </g>
        </g>
        <g id="Grupo_1071024" data-name="Grupo 1071024" transform="translate(176.907 164.265)" opacity="0.3">
          <g id="Grupo_1071023" data-name="Grupo 1071023" transform="translate(0)">
            <g id="Grupo_1071022" data-name="Grupo 1071022" clip-path="url(#clip-path-24)">
              <path id="Trazado_816484" data-name="Trazado 816484" d="M249.341,186.779c.94-1.519,3.538-4.719,3.538-4.719.083,2.368.285,5.609.368,7.978l.331,5.673c-.34-1.977-.594-5.8-.933-7.772q-2.045,1.992-4.088,3.984a6.061,6.061,0,0,1,.784-5.145" transform="translate(-248.275 -182.06)"/>
            </g>
          </g>
        </g>
        <g id="Grupo_1071027" data-name="Grupo 1071027" transform="translate(146.95 174.794)" opacity="0.3">
          <g id="Grupo_1071026" data-name="Grupo 1071026" transform="translate(0)">
            <g id="Grupo_1071025" data-name="Grupo 1071025" clip-path="url(#clip-path-25)">
              <path id="Trazado_816485" data-name="Trazado 816485" d="M287.882,193.73l-2.8,26.029c-1.221-8.468-3.462-13.069,2.8-26.029" transform="translate(-283.672 -193.73)"/>
            </g>
          </g>
        </g>
        <g id="Grupo_1071030" data-name="Grupo 1071030" transform="translate(87.788 194.907)" opacity="0.3">
          <g id="Grupo_1071029" data-name="Grupo 1071029" transform="translate(0)">
            <g id="Grupo_1071028" data-name="Grupo 1071028" transform="translate(0)" clip-path="url(#clip-path-26)">
              <path id="Trazado_816486" data-name="Trazado 816486" d="M338.43,233.433c1.053-.9,3.38-1.457,4.581-2.128,5.449-3.044,8.338-8.62,10.462-14.612l.188-.671c-.218,8.035-5.169,16.623-12.3,19.918a4.079,4.079,0,0,1-2.338.508,1.682,1.682,0,0,1-1.459-1.687,2.184,2.184,0,0,1,.864-1.327" transform="translate(-337.558 -216.022)"/>
            </g>
          </g>
        </g>
        <g id="Grupo_1071033" data-name="Grupo 1071033" transform="translate(185.972 215.186)" opacity="0.3">
          <g id="Grupo_1071032" data-name="Grupo 1071032" transform="translate(0)">
            <g id="Grupo_1071031" data-name="Grupo 1071031" transform="translate(0)" clip-path="url(#clip-path-27)">
              <path id="Trazado_816487" data-name="Trazado 816487" d="M241.792,257.948c-9.019-3.078-13.367-11.813-15.679-19.45a31.612,31.612,0,0,0,1.148,9.814,15.616,15.616,0,0,0,5.376,8.042,10,10,0,0,0,9.155,1.594" transform="translate(-226.106 -238.498)"/>
            </g>
          </g>
        </g>
        <g id="Grupo_1071036" data-name="Grupo 1071036" transform="translate(270.417 248.604)" opacity="0.3">
          <g id="Grupo_1071035" data-name="Grupo 1071035" transform="translate(0)">
            <g id="Grupo_1071034" data-name="Grupo 1071034" transform="translate(0)" clip-path="url(#clip-path-28)">
              <path id="Trazado_816488" data-name="Trazado 816488" d="M126.168,275.693a25.721,25.721,0,0,1,18.258,6.061c.371.317.772.774.612,1.242a.835.835,0,0,1-.89.486,2.485,2.485,0,0,1-1-.429,77.361,77.361,0,0,0-16.985-7.518" transform="translate(-126.168 -275.536)"/>
            </g>
          </g>
        </g>
        <g id="Grupo_1071039" data-name="Grupo 1071039" transform="translate(161.852 230.133)" opacity="0.3">
          <g id="Grupo_1071038" data-name="Grupo 1071038" transform="translate(0)">
            <g id="Grupo_1071037" data-name="Grupo 1071037" transform="translate(0)" clip-path="url(#clip-path-29)">
              <path id="Trazado_816489" data-name="Trazado 816489" d="M252.886,255.581a1.8,1.8,0,0,1,2.481-.046,5.525,5.525,0,0,1,1.434,2.377q5.355,13.673,10.712,27.347l1.643,4.056-11.231-19.362c-2.24-3.863-4.521-7.834-5.3-12.26a2.655,2.655,0,0,1,.261-2.111" transform="translate(-252.532 -255.064)"/>
            </g>
          </g>
        </g>
        <path id="Trazado_816490" data-name="Trazado 816490" d="M243.6,83.39c-6.646-9.536-17.652-15.117-28.871-17.233-4.721-.89-7.816-.245-12.52.734A20.194,20.194,0,0,0,190.162,74c-3.574,4.568-6.659,9.743-7.64,15.52-1.007,5.933-2.018,11.906-1.952,17.929s1.274,12.162,4.4,17.253l14.663,3.624c8.171.825,16.456,1.647,24.553.249s16.122-5.3,20.842-12.213c6.556-9.6,5.211-23.431-1.434-32.967" transform="translate(-7.715 -6.425)" fill="#263238"/>
        <path id="Trazado_816491" data-name="Trazado 816491" d="M261.524,139.381c.027.039-.265.361-.935.743a7.116,7.116,0,0,1-3.12.86,7.762,7.762,0,0,1-4.653-1.291,7.945,7.945,0,0,1-3.242-5.071,8.114,8.114,0,0,1,1.063-5.97,7.967,7.967,0,0,1,3.794-3.057,7.105,7.105,0,0,1,3.2-.459,2.227,2.227,0,0,1,1.141.308,10.824,10.824,0,0,0-4.106.75,7.706,7.706,0,0,0-3.344,2.916,7.464,7.464,0,0,0-.88,5.331A7.308,7.308,0,0,0,253.274,139a7.5,7.5,0,0,0,4.185,1.343,10.8,10.8,0,0,0,4.065-.958" transform="translate(-80.312 -12.228)" fill="#e0e0e0"/>
        <path id="Trazado_816492" data-name="Trazado 816492" d="M196.545,132.284a11.506,11.506,0,0,0-4.486-8.912,7.805,7.805,0,0,0-9.412.219l-2.507,2.7a9.872,9.872,0,0,0-6.122,9.565,10.779,10.779,0,0,0,6.724,9.3,11.378,11.378,0,0,0,11.224-2.021,13.59,13.59,0,0,0,4.579-10.857" transform="translate(50.799 -11.915)" fill="#263238"/>
        <path id="Trazado_816493" data-name="Trazado 816493" d="M186.8,142.752a5.232,5.232,0,0,0,.987-2.981c0-1.96-1.222-4.609-2.968-7.078a20.312,20.312,0,0,0-5.637-5.291c-1.678-1.073-2.85-1.5-2.805-1.624a7.934,7.934,0,0,1,3.061,1.164,18.5,18.5,0,0,1,8.129,9.21,8.445,8.445,0,0,1,.735,3.636,4.384,4.384,0,0,1-.815,2.374c-.366.473-.661.625-.688.59" transform="translate(56.967 -12.293)" fill="#455a64"/>
        <path id="Trazado_816494" data-name="Trazado 816494" d="M189.088,146.949c-.241-.031,1.054-4.575-.035-10.115-1.01-5.558-3.867-9.271-3.654-9.392a8.185,8.185,0,0,1,1.818,2.392,21.584,21.584,0,0,1,2.552,6.856,21.815,21.815,0,0,1,.133,7.339,8.41,8.41,0,0,1-.814,2.92" transform="translate(47.226 -12.457)" fill="#455a64"/>
        <path id="Trazado_816495" data-name="Trazado 816495" d="M210.955,153.66c.432-5.345.826-9.719.824-9.695,0,0-12-2.164-14.356-18.321-1.168-8.036-.662-21.188.09-31.935.677-9.675,9.509-22.328,21.131-21.607l5.2-.278,19.264,9.38a5.628,5.628,0,0,1,4.887,5.8l-4.222,69.114-35.82,38.791L205.9,183.967Z" transform="translate(-20.576 -7.02)" fill="#ffbe9d"/>
        <path id="Trazado_816496" data-name="Trazado 816496" d="M234.7,128.691a3.439,3.439,0,0,0-1.011-2.168,3.308,3.308,0,0,0-4.075-.508,4.7,4.7,0,0,0-1.986,4.247,4.111,4.111,0,0,0,2.829,1.945,4.688,4.688,0,0,0,.55.054,3.623,3.623,0,0,0,2.547-.848,3.429,3.429,0,0,0,1.145-2.722" transform="translate(-34.382 -12.27)" fill="#eb996e"/>
        <path id="Trazado_816497" data-name="Trazado 816497" d="M244.989,108.035a2.046,2.046,0,0,0,1.922,2.106A1.943,1.943,0,0,0,249,108.3a2.047,2.047,0,0,0-1.919-2.107,1.944,1.944,0,0,0-2.093,1.847" transform="translate(-63.909 -10.379)" fill="#263238"/>
        <path id="Trazado_816498" data-name="Trazado 816498" d="M241.286,102.743c.247.272,1.782-.873,3.947-.848,2.162-.006,3.741,1.154,3.978.883.118-.12-.133-.609-.82-1.133a5.42,5.42,0,0,0-3.183-1.041,5.2,5.2,0,0,0-3.144,1.012c-.67.519-.9,1.005-.778,1.127" transform="translate(-60.871 -9.833)" fill="#263238"/>
        <path id="Trazado_816499" data-name="Trazado 816499" d="M240.219,120.584a13.991,13.991,0,0,0-3.511-.685c-.552-.064-1.075-.181-1.164-.57a2.963,2.963,0,0,1,.383-1.682l1.673-4.315c2.324-6.143,4.011-11.2,3.77-11.291s-2.321,4.809-4.645,10.952q-.84,2.272-1.6,4.341a3.373,3.373,0,0,0-.306,2.229,1.4,1.4,0,0,0,.9.84,3.629,3.629,0,0,0,.938.143,13.71,13.71,0,0,0,3.564.038" transform="translate(-47.29 -9.974)" fill="#263238"/>
        <path id="Trazado_816500" data-name="Trazado 816500" d="M214.339,151.178a38.989,38.989,0,0,0,21.058-5.571s-5.694,11.132-21.381,9.478Z" transform="translate(-23.135 -14.232)" fill="#eb996e"/>
        <path id="Trazado_816501" data-name="Trazado 816501" d="M235.372,124.365c-.352-.024-.377,2.393-2.4,4.09s-4.526,1.408-4.547,1.745c-.034.152.554.475,1.611.514a5.742,5.742,0,0,0,3.794-1.321,5.279,5.279,0,0,0,1.865-3.43c.1-1.009-.158-1.611-.319-1.6" transform="translate(-36.086 -12.156)" fill="#263238"/>
        <path id="Trazado_816502" data-name="Trazado 816502" d="M240.806,92.543c.376.509,1.873,0,3.666-.01,1.793-.073,3.309.37,3.663-.156.156-.255-.08-.764-.739-1.249a5.186,5.186,0,0,0-5.905.134c-.638.514-.851,1.033-.685,1.281" transform="translate(-59.372 -8.823)" fill="#263238"/>
        <path id="Trazado_816503" data-name="Trazado 816503" d="M225.827,108.565a2.038,2.038,0,0,1-2.032,1.993,1.949,1.949,0,0,1-1.988-1.962,2.039,2.039,0,0,1,2.03-1.994,1.951,1.951,0,0,1,1.99,1.963" transform="translate(-20.4 -10.42)" fill="#263238"/>
        <path id="Trazado_816504" data-name="Trazado 816504" d="M225.88,104.557c-.261.258-1.732-.974-3.895-1.071-2.159-.13-3.8.939-4.02.655-.11-.125.167-.6.88-1.085a5.417,5.417,0,0,1,3.234-.859,5.225,5.225,0,0,1,3.084,1.189c.641.557.845,1.055.717,1.17" transform="translate(-17.097 -9.989)" fill="#263238"/>
        <path id="Trazado_816505" data-name="Trazado 816505" d="M225.288,101.1c-.4.486-1.869-.108-3.66-.218-1.786-.175-3.324.181-3.649-.364-.141-.264.12-.759.8-1.205a5.188,5.188,0,0,1,5.889.469c.611.549.795,1.08.616,1.318" transform="translate(-16.534 -9.638)" fill="#263238"/>
        <path id="Trazado_816506" data-name="Trazado 816506" d="M190.4,118.2c.013-1.2,1.389-4.022,2.544-4.2,3.085-.466,8.635-.16,8.617,7.888-.025,11-10.758,8.706-10.777,8.391-.014-.247-.43-7.934-.384-12.082" transform="translate(31.422 -11.13)" fill="#ffbe9d"/>
        <path id="Trazado_816507" data-name="Trazado 816507" d="M192.451,126.4c.047-.035.186.134.5.284a1.818,1.818,0,0,0,1.393.032c1.132-.423,2.087-2.266,2.143-4.25a6.484,6.484,0,0,0-.515-2.746,2.178,2.178,0,0,0-1.4-1.473.942.942,0,0,0-1.1.522c-.144.308-.076.528-.133.546-.03.028-.229-.184-.142-.638a1.23,1.23,0,0,1,.423-.689,1.382,1.382,0,0,1,1.031-.278,2.642,2.642,0,0,1,1.943,1.711,6.671,6.671,0,0,1,.639,3.069c-.074,2.217-1.182,4.288-2.729,4.744a1.953,1.953,0,0,1-1.7-.3c-.331-.272-.386-.518-.349-.538" transform="translate(33.952 -11.505)" fill="#eb996e"/>
        <path id="Trazado_816508" data-name="Trazado 816508" d="M224.127,109.524l-2.886,2.71c-10.975-12.276-32.031-42.593-30.862-40.792a33.211,33.211,0,0,1,16.816-.768c8.6,2.094,24.806,7.652,23.9,18.18s-6.966,20.67-6.966,20.67" transform="translate(1.909 -6.833)" fill="#263238"/>
        <path id="Trazado_816509" data-name="Trazado 816509" d="M185.855,142.575c-.032.033.218.392.835.858a7.186,7.186,0,0,0,2.989,1.262,7.74,7.74,0,0,0,4.775-.673,7.866,7.866,0,0,0,3.844-4.6,7.86,7.86,0,0,0-3.7-9.59,7.12,7.12,0,0,0-3.117-.873,2.22,2.22,0,0,0-1.17.155,10.863,10.863,0,0,1,3.98,1.28,7.785,7.785,0,0,1,2.956,3.33,7.481,7.481,0,0,1,.213,5.4,7.235,7.235,0,0,1-3.372,4.148,7.463,7.463,0,0,1-4.317.785,10.882,10.882,0,0,1-3.914-1.481" transform="translate(38.236 -12.604)" fill="#e0e0e0"/>
        <path id="Trazado_816510" data-name="Trazado 816510" d="M222.694,118.968a23.972,23.972,0,0,1,.053-2.552,39.511,39.511,0,0,0-.465-6.9,47.607,47.607,0,0,0-8.834-20.677,73.462,73.462,0,0,0-16.187-15.55c-2.334-1.686-4.277-2.975-5.625-3.856a17.5,17.5,0,0,1-2.066-1.423,2.119,2.119,0,0,1,.591.268c.374.2.926.494,1.621.9,1.4.807,3.386,2.03,5.77,3.669A69.19,69.19,0,0,1,214.03,88.386a46.27,46.27,0,0,1,8.762,21.053,34.314,34.314,0,0,1,.239,6.99c-.033.825-.156,1.458-.2,1.888a2.252,2.252,0,0,1-.132.651" transform="translate(10.593 -6.647)" fill="#455a64"/>
        <path id="Trazado_816511" data-name="Trazado 816511" d="M185.8,67.785a2.221,2.221,0,0,1,.61.251c.389.184.954.475,1.675.864,1.439.78,3.5,1.966,5.944,3.59a90.508,90.508,0,0,1,8.272,6.191,53.261,53.261,0,0,1,8.893,9.106,25.219,25.219,0,0,1,3.21,5.869,23.831,23.831,0,0,1,1.373,6.114,37.41,37.41,0,0,1-.681,10.524c-.579,2.943-1.243,5.27-1.718,6.87-.239.8-.439,1.416-.582,1.831a2.3,2.3,0,0,1-.254.623,19.456,19.456,0,0,1,.561-2.533c.391-1.62.976-3.96,1.485-6.888a38.548,38.548,0,0,0,.519-10.355,23.485,23.485,0,0,0-1.371-5.919,24.873,24.873,0,0,0-3.129-5.688,54.8,54.8,0,0,0-8.735-9.021,101.6,101.6,0,0,0-8.128-6.281c-2.4-1.671-4.406-2.922-5.8-3.778a19.69,19.69,0,0,1-2.146-1.37" transform="translate(21.114 -6.625)" fill="#455a64"/>
        <path id="Trazado_816512" data-name="Trazado 816512" d="M228.49,109.816a10.051,10.051,0,0,1-1.307-1.478l-3.349-4.2c-2.8-3.565-6.633-8.519-10.827-14.019s-7.963-10.509-10.662-14.158c-1.272-1.744-2.334-3.2-3.166-4.344a10.211,10.211,0,0,1-1.084-1.657,9.968,9.968,0,0,1,1.3,1.474l3.347,4.2c2.8,3.565,6.635,8.522,10.834,14.026s7.965,10.512,10.663,14.16l3.165,4.343a10.164,10.164,0,0,1,1.082,1.655" transform="translate(-2.261 -6.838)" fill="#e0e0e0"/>
        <path id="Trazado_816513" data-name="Trazado 816513" d="M225.314,123.533a12.067,12.067,0,0,1,1.986.06c1.067.224,1.736.887,1.832.792.111-.057-.5-.984-1.734-1.251a2.137,2.137,0,0,0-2.083.4" transform="translate(-26.788 -12.028)" fill="#eb996e"/>
        <path id="Trazado_816514" data-name="Trazado 816514" d="M212.441,108.222a5.5,5.5,0,0,0,3.982-.251,20.813,20.813,0,0,0-3.982.251" transform="translate(-2.78 -10.547)" fill="#eb996e"/>
        <path id="Trazado_816515" data-name="Trazado 816515" d="M213.261,109.085c-.018.132.6.32,1.351.564s1.362.448,1.422.331-.494-.526-1.285-.78-1.474-.242-1.488-.115" transform="translate(-3.112 -10.654)" fill="#eb996e"/>
        <path id="Trazado_816516" data-name="Trazado 816516" d="M250.974,106.861c-.043.122.467.428,1.14.681s1.253.361,1.3.238-.468-.426-1.14-.679-1.254-.361-1.3-.24" transform="translate(-73.569 -10.44)" fill="#eb996e"/>
        <path id="Trazado_816517" data-name="Trazado 816517" d="M250.885,109.167c.041.123.6.035,1.253-.195s1.146-.516,1.1-.639-.6-.035-1.253.195-1.146.516-1.1.639" transform="translate(-73.321 -10.584)" fill="#eb996e"/>
      </g>
    </g>
    <g id="Grupo_1071043" data-name="Grupo 1071043">
      <g id="Grupo_1071042" data-name="Grupo 1071042" clip-path="url(#clip-path)">
        <path id="Trazado_816518" data-name="Trazado 816518" d="M0,433.453c0,.13,89.55.235,199.99.235,110.479,0,200.01-.1,200.01-.235s-89.531-.235-200.01-.235c-110.44,0-199.99.1-199.99.235" transform="translate(0 -42.345)" fill="#263238"/>
      </g>
    </g>
  </g>
</svg>
