<svg xmlns="http://www.w3.org/2000/svg" xmlns:xlink="http://www.w3.org/1999/xlink" width="820" height="408.067" viewBox="0 0 820 408.067">
  <defs>
    <linearGradient id="linear-gradient" x1="0.5" x2="0.5" y2="1" gradientUnits="objectBoundingBox">
      <stop offset="0" stop-color="#fff"/>
      <stop offset="0" stop-color="#f1f8e9"/>
      <stop offset="0.705" stop-color="#f1f8e9"/>
      <stop offset="1" stop-color="#fff"/>
    </linearGradient>
  </defs>
  <g id="Grupo_1072640" data-name="Grupo 1072640" transform="translate(-390 -12012)">
    <g id="Grupo_1072134" data-name="Grupo 1072134" transform="translate(254 7003.248)">
      <rect id="Rectángulo_47274" data-name="Rectángulo 47274" width="820" height="408.067" transform="translate(956 5416.819) rotate(180)" fill="url(#linear-gradient)"/>
    </g>
    <g id="Grupo_1072547" data-name="Grupo 1072547" transform="translate(0 494.838)">
      <g id="Grupo_1066694" data-name="Grupo 1066694" transform="translate(-0.051 8004.217)">
        <g id="Grupo_1066688" data-name="Grupo 1066688" transform="translate(0 -56.055)">
          <path id="Rectángulo_347655" data-name="Rectángulo 347655" d="M25,0H295a0,0,0,0,1,0,0V150a0,0,0,0,1,0,0H0a0,0,0,0,1,0,0V25A25,25,0,0,1,25,0Z" transform="translate(495 3612)" fill="#e1e6dd"/>
          <path id="Trazado_819762" data-name="Trazado 819762" d="M7.859-4.93h-4.5v3.047H8.641V0H1.016V-11.375H8.625v1.9H3.359v2.711h4.5Zm4.086-3.523.07.977a2.951,2.951,0,0,1,2.43-1.133,2.453,2.453,0,0,1,2,.789,3.682,3.682,0,0,1,.672,2.359V0H14.859V-5.406a1.465,1.465,0,0,0-.312-1.043,1.4,1.4,0,0,0-1.039-.324,1.553,1.553,0,0,0-1.43.813V0H9.82V-8.453Zm6.531,4.164a5.094,5.094,0,0,1,.887-3.148,2.877,2.877,0,0,1,2.426-1.172,2.589,2.589,0,0,1,2.039.922V-12h2.266V0H24.055l-.109-.9A2.657,2.657,0,0,1,21.773.156,2.869,2.869,0,0,1,19.379-1.02,5.258,5.258,0,0,1,18.477-4.289Zm2.258.168A3.337,3.337,0,0,0,21.148-2.3a1.349,1.349,0,0,0,1.2.634,1.511,1.511,0,0,0,1.477-.884V-5.889a1.489,1.489,0,0,0-1.461-.884Q20.734-6.773,20.734-4.121Zm11,4.277A4.15,4.15,0,0,1,28.707-.984a4.054,4.054,0,0,1-1.168-3.039v-.219a5.106,5.106,0,0,1,.492-2.277,3.612,3.612,0,0,1,1.395-1.547,3.914,3.914,0,0,1,2.059-.543,3.508,3.508,0,0,1,2.73,1.094,4.444,4.444,0,0,1,1,3.1v.922H29.828a2.1,2.1,0,0,0,.66,1.328,2,2,0,0,0,1.395.5,2.437,2.437,0,0,0,2.039-.945l1.109,1.242A3.389,3.389,0,0,1,33.656-.246,4.511,4.511,0,0,1,31.734.156Zm-.258-6.945a1.411,1.411,0,0,0-1.09.455,2.357,2.357,0,0,0-.535,1.3h3.141v-.181a1.681,1.681,0,0,0-.406-1.165A1.456,1.456,0,0,0,31.477-6.789ZM41.555-.859A2.831,2.831,0,0,1,39.242.156a2.67,2.67,0,0,1-2.074-.781,3.335,3.335,0,0,1-.73-2.289V-8.453H38.7v5.467q0,1.322,1.2,1.322a1.63,1.63,0,0,0,1.578-.8V-8.453h2.266V0H41.617Zm3.539-3.43a5.094,5.094,0,0,1,.887-3.148,2.877,2.877,0,0,1,2.426-1.172,2.589,2.589,0,0,1,2.039.922V-12h2.266V0H50.672l-.109-.9A2.657,2.657,0,0,1,48.391.156,2.869,2.869,0,0,1,46-1.02,5.258,5.258,0,0,1,45.094-4.289Zm2.258.168A3.337,3.337,0,0,0,47.766-2.3a1.349,1.349,0,0,0,1.2.634,1.511,1.511,0,0,0,1.477-.884V-5.889a1.489,1.489,0,0,0-1.461-.884Q47.352-6.773,47.352-4.121ZM59.359,0a2.507,2.507,0,0,1-.227-.758A2.732,2.732,0,0,1,57,.156a3,3,0,0,1-2.059-.719,2.312,2.312,0,0,1-.816-1.812,2.389,2.389,0,0,1,1-2.062A4.915,4.915,0,0,1,58-5.164h1.039v-.484a1.393,1.393,0,0,0-.3-.937,1.183,1.183,0,0,0-.949-.352,1.345,1.345,0,0,0-.895.273.929.929,0,0,0-.324.75H54.313a2.268,2.268,0,0,1,.453-1.359,3,3,0,0,1,1.281-.98,4.669,4.669,0,0,1,1.859-.355,3.689,3.689,0,0,1,2.48.785A2.747,2.747,0,0,1,61.3-5.617v3.664a4.041,4.041,0,0,0,.336,1.82V0ZM57.492-1.57a1.945,1.945,0,0,0,.922-.223,1.462,1.462,0,0,0,.625-.6V-3.844H58.2q-1.7,0-1.8,1.172l-.008.133a.9.9,0,0,0,.3.7A1.153,1.153,0,0,0,57.492-1.57Zm7.664-6.883.07.945a2.971,2.971,0,0,1,2.43-1.1A2.255,2.255,0,0,1,69.9-7.32a2.9,2.9,0,0,1,2.539-1.289,2.521,2.521,0,0,1,2.047.8,3.681,3.681,0,0,1,.672,2.41V0H72.891V-5.391a1.61,1.61,0,0,0-.281-1.051,1.246,1.246,0,0,0-.992-.332,1.409,1.409,0,0,0-1.406.969L70.219,0H67.961V-5.383a1.59,1.59,0,0,0-.289-1.062,1.259,1.259,0,0,0-.984-.328,1.463,1.463,0,0,0-1.391.8V0H63.039V-8.453ZM79.273,0H77.008V-8.453h2.266Zm-2.4-10.641a1.112,1.112,0,0,1,.34-.836,1.277,1.277,0,0,1,.926-.328,1.28,1.28,0,0,1,.922.328,1.105,1.105,0,0,1,.344.836,1.108,1.108,0,0,1-.348.844,1.283,1.283,0,0,1-.918.328,1.283,1.283,0,0,1-.918-.328A1.108,1.108,0,0,1,76.875-10.641ZM85.023.156A4.15,4.15,0,0,1,82-.984a4.054,4.054,0,0,1-1.168-3.039v-.219A5.106,5.106,0,0,1,81.32-6.52a3.612,3.612,0,0,1,1.395-1.547,3.914,3.914,0,0,1,2.059-.543A3.508,3.508,0,0,1,87.5-7.516a4.444,4.444,0,0,1,1,3.1v.922H83.117a2.1,2.1,0,0,0,.66,1.328,2,2,0,0,0,1.395.5,2.437,2.437,0,0,0,2.039-.945L88.32-1.367A3.389,3.389,0,0,1,86.945-.246,4.511,4.511,0,0,1,85.023.156Zm-.258-6.945a1.411,1.411,0,0,0-1.09.455,2.357,2.357,0,0,0-.535,1.3h3.141v-.181a1.681,1.681,0,0,0-.406-1.165A1.456,1.456,0,0,0,84.766-6.789Zm7.094-1.664.07.977a2.951,2.951,0,0,1,2.43-1.133,2.453,2.453,0,0,1,2,.789,3.682,3.682,0,0,1,.672,2.359V0H94.773V-5.406a1.465,1.465,0,0,0-.312-1.043,1.4,1.4,0,0,0-1.039-.324,1.553,1.553,0,0,0-1.43.813V0H89.734V-8.453Zm9.586-2.078v2.078h1.445V-6.8h-1.445v4.219a1.007,1.007,0,0,0,.18.672.9.9,0,0,0,.688.2,3.6,3.6,0,0,0,.664-.055V-.047a4.648,4.648,0,0,1-1.367.2,2.156,2.156,0,0,1-2.422-2.4V-6.8H97.953V-8.453h1.234v-2.078ZM103.563-4.3a5.013,5.013,0,0,1,.484-2.242,3.546,3.546,0,0,1,1.395-1.523,4.069,4.069,0,0,1,2.113-.539,3.849,3.849,0,0,1,2.793,1.047,4.2,4.2,0,0,1,1.207,2.844l.016.578a4.418,4.418,0,0,1-1.086,3.121A3.775,3.775,0,0,1,107.57.156a3.793,3.793,0,0,1-2.918-1.172,4.5,4.5,0,0,1-1.09-3.187Zm2.258.16a3.16,3.16,0,0,0,.453,1.843,1.5,1.5,0,0,0,1.3.638,1.5,1.5,0,0,0,1.281-.63,3.457,3.457,0,0,0,.461-2.015,3.128,3.128,0,0,0-.461-1.831,1.5,1.5,0,0,0-1.3-.649,1.474,1.474,0,0,0-1.281.646A3.516,3.516,0,0,0,105.82-4.144Z" transform="translate(530.5 3692.5)" fill="#12263f"/>
        </g>
        <g id="Grupo_1066689" data-name="Grupo 1066689" transform="translate(0 -56.055)">
          <path id="Rectángulo_347656" data-name="Rectángulo 347656" d="M0,0H270a25,25,0,0,1,25,25V150a0,0,0,0,1,0,0H0a0,0,0,0,1,0,0V0A0,0,0,0,1,0,0Z" transform="translate(810 3612)" fill="#dde2e7"/>
          <path id="Trazado_819766" data-name="Trazado 819766" d="M-62.234-4.93h-4.5v3.047h5.281V0h-7.625V-11.375h7.609v1.9h-5.266v2.711h4.5ZM-59.68,0V-6.8h-1.258V-8.453h1.258v-.391A3.17,3.17,0,0,1-58.7-11.3a3.945,3.945,0,0,1,2.723-.863,9.031,9.031,0,0,1,2.563.461l-.328,1.867a10,10,0,0,0-1.187-.293,5.835,5.835,0,0,0-.906-.066q-1.578,0-1.578,1.4v.344h1.664V-6.8h-1.664V0Zm7.32,0h-2.266V-8.453h2.266Zm5.383-1.664a1.481,1.481,0,0,0,1.016-.344,1.2,1.2,0,0,0,.406-.914h2.117a2.9,2.9,0,0,1-.469,1.574A3.093,3.093,0,0,1-45.168-.238a3.949,3.949,0,0,1-1.77.395A3.67,3.67,0,0,1-49.8-1,4.56,4.56,0,0,1-50.844-4.18v-.148A4.508,4.508,0,0,1-49.8-7.445a3.627,3.627,0,0,1,2.852-1.164,3.555,3.555,0,0,1,2.543.9,3.2,3.2,0,0,1,.973,2.4h-2.117a1.551,1.551,0,0,0-.406-1.072,1.354,1.354,0,0,0-1.031-.412,1.36,1.36,0,0,0-1.191.575,3.333,3.333,0,0,0-.4,1.866v.235a3.375,3.375,0,0,0,.4,1.878A1.377,1.377,0,0,0-46.977-1.664ZM-39.766,0h-2.266V-8.453h2.266Zm-2.4-10.641a1.112,1.112,0,0,1,.34-.836A1.277,1.277,0,0,1-40.9-11.8a1.28,1.28,0,0,1,.922.328,1.105,1.105,0,0,1,.344.836,1.108,1.108,0,0,1-.348.844,1.283,1.283,0,0,1-.918.328,1.283,1.283,0,0,1-.918-.328A1.108,1.108,0,0,1-42.164-10.641Zm8.148,10.8A4.15,4.15,0,0,1-37.043-.984a4.054,4.054,0,0,1-1.168-3.039v-.219a5.106,5.106,0,0,1,.492-2.277,3.612,3.612,0,0,1,1.395-1.547,3.914,3.914,0,0,1,2.059-.543,3.508,3.508,0,0,1,2.73,1.094,4.444,4.444,0,0,1,1,3.1v.922h-5.383a2.1,2.1,0,0,0,.66,1.328,2,2,0,0,0,1.395.5,2.437,2.437,0,0,0,2.039-.945l1.109,1.242A3.389,3.389,0,0,1-32.094-.246,4.511,4.511,0,0,1-34.016.156Zm-.258-6.945a1.411,1.411,0,0,0-1.09.455,2.357,2.357,0,0,0-.535,1.3h3.141v-.181a1.681,1.681,0,0,0-.406-1.165A1.456,1.456,0,0,0-34.273-6.789Zm7.094-1.664.07.977a2.951,2.951,0,0,1,2.43-1.133,2.453,2.453,0,0,1,2,.789,3.682,3.682,0,0,1,.672,2.359V0h-2.258V-5.406a1.465,1.465,0,0,0-.312-1.043,1.4,1.4,0,0,0-1.039-.324,1.553,1.553,0,0,0-1.43.813V0H-29.3V-8.453Zm10.4,6.789a1.481,1.481,0,0,0,1.016-.344,1.2,1.2,0,0,0,.406-.914h2.117a2.9,2.9,0,0,1-.469,1.574A3.093,3.093,0,0,1-14.973-.238a3.949,3.949,0,0,1-1.77.395A3.67,3.67,0,0,1-19.6-1,4.56,4.56,0,0,1-20.648-4.18v-.148a4.508,4.508,0,0,1,1.039-3.117,3.627,3.627,0,0,1,2.852-1.164,3.555,3.555,0,0,1,2.543.9,3.2,3.2,0,0,1,.973,2.4h-2.117a1.551,1.551,0,0,0-.406-1.072A1.354,1.354,0,0,0-16.8-6.789a1.36,1.36,0,0,0-1.191.575,3.333,3.333,0,0,0-.4,1.866v.235a3.375,3.375,0,0,0,.4,1.878A1.377,1.377,0,0,0-16.781-1.664ZM-9.57,0h-2.266V-8.453H-9.57Zm-2.4-10.641a1.112,1.112,0,0,1,.34-.836A1.277,1.277,0,0,1-10.7-11.8a1.28,1.28,0,0,1,.922.328,1.105,1.105,0,0,1,.344.836,1.108,1.108,0,0,1-.348.844,1.283,1.283,0,0,1-.918.328,1.283,1.283,0,0,1-.918-.328A1.108,1.108,0,0,1-11.969-10.641ZM-2.812,0a2.507,2.507,0,0,1-.227-.758A2.732,2.732,0,0,1-5.172.156,3,3,0,0,1-7.23-.562a2.312,2.312,0,0,1-.816-1.812,2.389,2.389,0,0,1,1-2.062,4.915,4.915,0,0,1,2.879-.727h1.039v-.484a1.393,1.393,0,0,0-.3-.937,1.183,1.183,0,0,0-.949-.352,1.345,1.345,0,0,0-.895.273.929.929,0,0,0-.324.75H-7.859a2.268,2.268,0,0,1,.453-1.359,3,3,0,0,1,1.281-.98,4.669,4.669,0,0,1,1.859-.355,3.689,3.689,0,0,1,2.48.785A2.747,2.747,0,0,1-.867-5.617v3.664A4.041,4.041,0,0,0-.531-.133V0ZM-4.68-1.57a1.945,1.945,0,0,0,.922-.223,1.462,1.462,0,0,0,.625-.6V-3.844h-.844q-1.7,0-1.8,1.172l-.008.133a.9.9,0,0,0,.3.7A1.153,1.153,0,0,0-4.68-1.57Z" transform="translate(1059.05 3692.5)" fill="#12263f"/>
        </g>
        <g id="Grupo_1066690" data-name="Grupo 1066690" transform="translate(0 -56.055)">
          <path id="Trazado_819638" data-name="Trazado 819638" d="M0,0H295V150H25A25,25,0,0,1,0,125Z" transform="translate(495 3786)" fill="#dde2e7"/>
          <path id="Trazado_819764" data-name="Trazado 819764" d="M5.227-4.164H3.359V0H1.016V-11.375H5.242a4.778,4.778,0,0,1,3.109.9A3.1,3.1,0,0,1,9.445-7.937,3.5,3.5,0,0,1,8.941-6,3.437,3.437,0,0,1,7.414-4.758L9.875-.109V0H7.359Zm-1.867-1.9H5.25a1.936,1.936,0,0,0,1.367-.449A1.606,1.606,0,0,0,7.1-7.75a1.719,1.719,0,0,0-.457-1.266,1.9,1.9,0,0,0-1.4-.461H3.359ZM14.969.156A4.15,4.15,0,0,1,11.941-.984a4.054,4.054,0,0,1-1.168-3.039v-.219a5.106,5.106,0,0,1,.492-2.277A3.612,3.612,0,0,1,12.66-8.066a3.914,3.914,0,0,1,2.059-.543,3.508,3.508,0,0,1,2.73,1.094,4.444,4.444,0,0,1,1,3.1v.922H13.063a2.1,2.1,0,0,0,.66,1.328,2,2,0,0,0,1.395.5,2.437,2.437,0,0,0,2.039-.945l1.109,1.242A3.389,3.389,0,0,1,16.891-.246,4.511,4.511,0,0,1,14.969.156Zm-.258-6.945a1.411,1.411,0,0,0-1.09.455,2.357,2.357,0,0,0-.535,1.3h3.141v-.181a1.681,1.681,0,0,0-.406-1.165A1.456,1.456,0,0,0,14.711-6.789ZM21.8-8.453l.07.977A2.951,2.951,0,0,1,24.3-8.609a2.453,2.453,0,0,1,2,.789,3.682,3.682,0,0,1,.672,2.359V0H24.719V-5.406a1.465,1.465,0,0,0-.312-1.043,1.4,1.4,0,0,0-1.039-.324,1.553,1.553,0,0,0-1.43.813V0H19.68V-8.453Zm9.586-2.078v2.078h1.445V-6.8H31.391v4.219a1.007,1.007,0,0,0,.18.672.9.9,0,0,0,.688.2,3.6,3.6,0,0,0,.664-.055V-.047a4.648,4.648,0,0,1-1.367.2,2.156,2.156,0,0,1-2.422-2.4V-6.8H27.9V-8.453h1.234v-2.078ZM38.992,0a2.507,2.507,0,0,1-.227-.758,2.732,2.732,0,0,1-2.133.914,3,3,0,0,1-2.059-.719,2.312,2.312,0,0,1-.816-1.812,2.389,2.389,0,0,1,1-2.062,4.915,4.915,0,0,1,2.879-.727h1.039v-.484a1.393,1.393,0,0,0-.3-.937,1.183,1.183,0,0,0-.949-.352,1.345,1.345,0,0,0-.895.273.929.929,0,0,0-.324.75H33.945A2.268,2.268,0,0,1,34.4-7.273a3,3,0,0,1,1.281-.98,4.669,4.669,0,0,1,1.859-.355,3.689,3.689,0,0,1,2.48.785,2.747,2.747,0,0,1,.918,2.207v3.664a4.041,4.041,0,0,0,.336,1.82V0ZM37.125-1.57a1.945,1.945,0,0,0,.922-.223,1.462,1.462,0,0,0,.625-.6V-3.844h-.844q-1.7,0-1.8,1.172l-.008.133a.9.9,0,0,0,.3.7A1.153,1.153,0,0,0,37.125-1.57ZM50.289-4.148A5.119,5.119,0,0,1,49.422-.98,2.872,2.872,0,0,1,47,.156,2.639,2.639,0,0,1,44.8-.9l-.1.9H42.672V-12H44.93v4.3a2.571,2.571,0,0,1,2.055-.914A2.9,2.9,0,0,1,49.41-7.473a5.126,5.126,0,0,1,.879,3.2Zm-2.258-.164a3.363,3.363,0,0,0-.406-1.871,1.374,1.374,0,0,0-1.211-.59,1.489,1.489,0,0,0-1.484.883v3.336a1.509,1.509,0,0,0,1.5.891,1.394,1.394,0,0,0,1.438-1.078A5.562,5.562,0,0,0,48.031-4.312ZM54.063,0H51.8V-8.453h2.266Zm-2.4-10.641a1.112,1.112,0,0,1,.34-.836,1.277,1.277,0,0,1,.926-.328,1.28,1.28,0,0,1,.922.328,1.105,1.105,0,0,1,.344.836,1.108,1.108,0,0,1-.348.844,1.283,1.283,0,0,1-.918.328,1.283,1.283,0,0,1-.918-.328A1.108,1.108,0,0,1,51.664-10.641ZM58.3,0H56.039V-12H58.3Zm4.242,0H60.281V-8.453h2.266Zm-2.4-10.641a1.112,1.112,0,0,1,.34-.836,1.277,1.277,0,0,1,.926-.328,1.28,1.28,0,0,1,.922.328,1.105,1.105,0,0,1,.344.836,1.108,1.108,0,0,1-.348.844,1.283,1.283,0,0,1-.918.328A1.283,1.283,0,0,1,60.5-9.8,1.108,1.108,0,0,1,60.148-10.641Zm3.906,6.352a5.094,5.094,0,0,1,.887-3.148,2.877,2.877,0,0,1,2.426-1.172,2.589,2.589,0,0,1,2.039.922V-12h2.266V0H69.633l-.109-.9A2.657,2.657,0,0,1,67.352.156,2.869,2.869,0,0,1,64.957-1.02,5.258,5.258,0,0,1,64.055-4.289Zm2.258.168A3.337,3.337,0,0,0,66.727-2.3a1.349,1.349,0,0,0,1.2.634,1.511,1.511,0,0,0,1.477-.884V-5.889a1.489,1.489,0,0,0-1.461-.884Q66.313-6.773,66.313-4.121ZM78.32,0a2.507,2.507,0,0,1-.227-.758,2.732,2.732,0,0,1-2.133.914A3,3,0,0,1,73.9-.562a2.312,2.312,0,0,1-.816-1.812,2.389,2.389,0,0,1,1-2.062,4.915,4.915,0,0,1,2.879-.727H78v-.484a1.393,1.393,0,0,0-.3-.937,1.183,1.183,0,0,0-.949-.352,1.345,1.345,0,0,0-.895.273.929.929,0,0,0-.324.75H73.273a2.268,2.268,0,0,1,.453-1.359,3,3,0,0,1,1.281-.98,4.669,4.669,0,0,1,1.859-.355,3.689,3.689,0,0,1,2.48.785,2.747,2.747,0,0,1,.918,2.207v3.664A4.041,4.041,0,0,0,80.6-.133V0ZM76.453-1.57a1.945,1.945,0,0,0,.922-.223,1.462,1.462,0,0,0,.625-.6V-3.844h-.844q-1.7,0-1.8,1.172l-.008.133a.9.9,0,0,0,.3.7A1.153,1.153,0,0,0,76.453-1.57Zm5.2-2.719a5.094,5.094,0,0,1,.887-3.148,2.877,2.877,0,0,1,2.426-1.172A2.589,2.589,0,0,1,87-7.687V-12h2.266V0H87.227l-.109-.9A2.657,2.657,0,0,1,84.945.156,2.869,2.869,0,0,1,82.551-1.02,5.258,5.258,0,0,1,81.648-4.289Zm2.258.168A3.337,3.337,0,0,0,84.32-2.3a1.349,1.349,0,0,0,1.2.634A1.511,1.511,0,0,0,87-2.548V-5.889a1.489,1.489,0,0,0-1.461-.884Q83.906-6.773,83.906-4.121Z" transform="translate(532.279 3862)" fill="#12263f"/>
        </g>
        <g id="Grupo_1066691" data-name="Grupo 1066691" transform="translate(0 -56.055)">
          <path id="Rectángulo_347657" data-name="Rectángulo 347657" d="M0,0H295a0,0,0,0,1,0,0V125a25,25,0,0,1-25,25H0a0,0,0,0,1,0,0V0A0,0,0,0,1,0,0Z" transform="translate(810 3786)" fill="#e1e6dd"/>
          <path id="Trazado_819765" data-name="Trazado 819765" d="M-57.586-1.883h4.977V0h-7.32V-11.375h2.344ZM-49.031,0H-51.3V-8.453h2.266Zm-2.4-10.641a1.112,1.112,0,0,1,.34-.836,1.277,1.277,0,0,1,.926-.328,1.28,1.28,0,0,1,.922.328,1.105,1.105,0,0,1,.344.836,1.108,1.108,0,0,1-.348.844,1.283,1.283,0,0,1-.918.328,1.283,1.283,0,0,1-.918-.328A1.108,1.108,0,0,1-51.43-10.641ZM-47.523-4.3a5.053,5.053,0,0,1,.887-3.148A2.9,2.9,0,0,1-44.2-8.609,2.6,2.6,0,0,1-42.039-7.57l.148-.883h1.984V3.25h-2.266V-.727a2.6,2.6,0,0,1-2.047.883,2.878,2.878,0,0,1-2.406-1.172A5.3,5.3,0,0,1-47.523-4.3Zm2.258.16A3.314,3.314,0,0,0-44.84-2.3a1.363,1.363,0,0,0,1.2.634,1.518,1.518,0,0,0,1.469-.829v-3.5a1.506,1.506,0,0,0-1.453-.8,1.38,1.38,0,0,0-1.211.634A3.661,3.661,0,0,0-45.266-4.144Zm12.2,3.285A2.831,2.831,0,0,1-35.383.156a2.67,2.67,0,0,1-2.074-.781,3.335,3.335,0,0,1-.73-2.289V-8.453h2.258v5.467q0,1.322,1.2,1.322a1.63,1.63,0,0,0,1.578-.8V-8.453h2.266V0h-2.125ZM-26.8,0h-2.266V-8.453H-26.8Zm-2.4-10.641a1.112,1.112,0,0,1,.34-.836,1.277,1.277,0,0,1,.926-.328,1.28,1.28,0,0,1,.922.328,1.105,1.105,0,0,1,.344.836,1.108,1.108,0,0,1-.348.844,1.283,1.283,0,0,1-.918.328,1.283,1.283,0,0,1-.918-.328A1.108,1.108,0,0,1-29.2-10.641Zm3.906,6.352A5.094,5.094,0,0,1-24.4-7.437a2.877,2.877,0,0,1,2.426-1.172,2.589,2.589,0,0,1,2.039.922V-12h2.266V0h-2.039l-.109-.9A2.657,2.657,0,0,1-21.992.156,2.869,2.869,0,0,1-24.387-1.02,5.258,5.258,0,0,1-25.289-4.289Zm2.258.168A3.337,3.337,0,0,0-22.617-2.3a1.349,1.349,0,0,0,1.2.634,1.511,1.511,0,0,0,1.477-.884V-5.889A1.489,1.489,0,0,0-21.4-6.773Q-23.031-6.773-23.031-4.121Zm11,4.277A4.15,4.15,0,0,1-15.059-.984a4.054,4.054,0,0,1-1.168-3.039v-.219a5.106,5.106,0,0,1,.492-2.277A3.612,3.612,0,0,1-14.34-8.066a3.914,3.914,0,0,1,2.059-.543,3.508,3.508,0,0,1,2.73,1.094,4.444,4.444,0,0,1,1,3.1v.922h-5.383a2.1,2.1,0,0,0,.66,1.328,2,2,0,0,0,1.395.5,2.437,2.437,0,0,0,2.039-.945l1.109,1.242A3.389,3.389,0,0,1-10.109-.246,4.511,4.511,0,0,1-12.031.156Zm-.258-6.945a1.411,1.411,0,0,0-1.09.455,2.357,2.357,0,0,0-.535,1.3h3.141v-.181a1.681,1.681,0,0,0-.406-1.165A1.456,1.456,0,0,0-12.289-6.789ZM-4.68-1.82H-.547V0H-7.562V-1.375l3.977-5.258H-7.445v-1.82H-.672v1.33Z" transform="translate(1051.279 3865.591)" fill="#12263f"/>
        </g>
      </g>
      <path id="Trazado_615586" data-name="Trazado 615586" d="M85.908,0A85.908,85.908,0,1,1,0,85.908,85.908,85.908,0,0,1,85.908,0Z" transform="translate(714.583 11627.256)" fill="#3b5620"/>
      <path id="Trazado_819763" data-name="Trazado 819763" d="M14.793,15H12.449V3.625h2.344Zm4.1-8.453.07.977a2.951,2.951,0,0,1,2.43-1.133,2.453,2.453,0,0,1,2,.789,3.682,3.682,0,0,1,.672,2.359V15H21.809V9.594A1.465,1.465,0,0,0,21.5,8.551a1.4,1.4,0,0,0-1.039-.324,1.553,1.553,0,0,0-1.43.813V15H16.77V6.547Zm6.531,4.164a5.094,5.094,0,0,1,.887-3.148,2.877,2.877,0,0,1,2.426-1.172,2.589,2.589,0,0,1,2.039.922V3h2.266V15H31l-.109-.9a2.657,2.657,0,0,1-2.172,1.055,2.869,2.869,0,0,1-2.395-1.176A5.258,5.258,0,0,1,25.426,10.711Zm2.258.168A3.337,3.337,0,0,0,28.1,12.7a1.349,1.349,0,0,0,1.2.634,1.511,1.511,0,0,0,1.477-.884V9.111a1.489,1.489,0,0,0-1.461-.884Q27.684,8.227,27.684,10.879ZM37.176,15H34.91V6.547h2.266Zm-2.4-10.641a1.112,1.112,0,0,1,.34-.836,1.465,1.465,0,0,1,1.848,0,1.105,1.105,0,0,1,.344.836,1.108,1.108,0,0,1-.348.844,1.448,1.448,0,0,1-1.836,0A1.108,1.108,0,0,1,34.777,4.359Zm7.773,8.977a1.481,1.481,0,0,0,1.016-.344,1.2,1.2,0,0,0,.406-.914H46.09a2.9,2.9,0,0,1-.469,1.574,3.093,3.093,0,0,1-1.262,1.109,3.949,3.949,0,0,1-1.77.395A3.67,3.67,0,0,1,39.73,14a4.56,4.56,0,0,1-1.047-3.184v-.148a4.508,4.508,0,0,1,1.039-3.117,3.627,3.627,0,0,1,2.852-1.164,3.555,3.555,0,0,1,2.543.9,3.2,3.2,0,0,1,.973,2.4H43.973a1.551,1.551,0,0,0-.406-1.072,1.51,1.51,0,0,0-2.223.163,3.333,3.333,0,0,0-.4,1.866v.235a3.375,3.375,0,0,0,.4,1.878A1.377,1.377,0,0,0,42.551,13.336ZM52.277,15a2.507,2.507,0,0,1-.227-.758,2.732,2.732,0,0,1-2.133.914,3,3,0,0,1-2.059-.719,2.312,2.312,0,0,1-.816-1.812,2.389,2.389,0,0,1,1-2.062,4.915,4.915,0,0,1,2.879-.727h1.039V9.352a1.393,1.393,0,0,0-.3-.937,1.183,1.183,0,0,0-.949-.352,1.345,1.345,0,0,0-.895.273.929.929,0,0,0-.324.75H47.23a2.268,2.268,0,0,1,.453-1.359,3,3,0,0,1,1.281-.98,4.669,4.669,0,0,1,1.859-.355,3.689,3.689,0,0,1,2.48.785,2.747,2.747,0,0,1,.918,2.207v3.664a4.041,4.041,0,0,0,.336,1.82V15ZM50.41,13.43a1.945,1.945,0,0,0,.922-.223,1.462,1.462,0,0,0,.625-.6V11.156h-.844q-1.7,0-1.8,1.172l-.008.133a.9.9,0,0,0,.3.7A1.153,1.153,0,0,0,50.41,13.43Zm5.2-2.719a5.094,5.094,0,0,1,.887-3.148,2.877,2.877,0,0,1,2.426-1.172,2.589,2.589,0,0,1,2.039.922V3h2.266V15H61.184l-.109-.9A2.657,2.657,0,0,1,58.9,15.156a2.869,2.869,0,0,1-2.395-1.176A5.258,5.258,0,0,1,55.605,10.711Zm2.258.168a3.337,3.337,0,0,0,.414,1.823,1.349,1.349,0,0,0,1.2.634,1.511,1.511,0,0,0,1.477-.884V9.111A1.489,1.489,0,0,0,59.5,8.227Q57.863,8.227,57.863,10.879Zm6.758-.184a5.013,5.013,0,0,1,.484-2.242A3.546,3.546,0,0,1,66.5,6.93a4.069,4.069,0,0,1,2.113-.539,3.849,3.849,0,0,1,2.793,1.047,4.2,4.2,0,0,1,1.207,2.844l.016.578a4.418,4.418,0,0,1-1.086,3.121,4.209,4.209,0,0,1-5.832,0,4.5,4.5,0,0,1-1.09-3.187Zm2.258.16a3.16,3.16,0,0,0,.453,1.843,1.628,1.628,0,0,0,2.578.008,3.457,3.457,0,0,0,.461-2.015A3.128,3.128,0,0,0,69.91,8.86a1.5,1.5,0,0,0-1.3-.649,1.474,1.474,0,0,0-1.281.646A3.516,3.516,0,0,0,66.879,10.856ZM78.77,8.664a6.134,6.134,0,0,0-.812-.062,1.654,1.654,0,0,0-1.68.867V15H74.02V6.547h2.133l.063,1.008A2.092,2.092,0,0,1,78.1,6.391a2.366,2.366,0,0,1,.7.1ZM83.6,15.156a4.15,4.15,0,0,1-3.027-1.141A4.054,4.054,0,0,1,79.4,10.977v-.219a5.106,5.106,0,0,1,.492-2.277,3.612,3.612,0,0,1,1.395-1.547,3.914,3.914,0,0,1,2.059-.543,3.508,3.508,0,0,1,2.73,1.094,4.444,4.444,0,0,1,1,3.1v.922H81.691a2.1,2.1,0,0,0,.66,1.328,2,2,0,0,0,1.395.5,2.437,2.437,0,0,0,2.039-.945l1.109,1.242a3.389,3.389,0,0,1-1.375,1.121A4.511,4.511,0,0,1,83.6,15.156ZM83.34,8.211a1.411,1.411,0,0,0-1.09.455,2.357,2.357,0,0,0-.535,1.3h3.141V9.788a1.681,1.681,0,0,0-.406-1.165A1.456,1.456,0,0,0,83.34,8.211Zm9.594,4.453a.727.727,0,0,0-.41-.652,4.659,4.659,0,0,0-1.316-.426q-3.016-.633-3.016-2.562a2.323,2.323,0,0,1,.934-1.879,3.766,3.766,0,0,1,2.441-.754,4.053,4.053,0,0,1,2.574.758,2.388,2.388,0,0,1,.965,1.969H92.848a1.092,1.092,0,0,0-.312-.8A1.322,1.322,0,0,0,91.559,8a1.351,1.351,0,0,0-.883.258.814.814,0,0,0-.312.656.7.7,0,0,0,.355.605,3.657,3.657,0,0,0,1.2.4,9.8,9.8,0,0,1,1.422.379,2.336,2.336,0,0,1,1.789,2.273,2.2,2.2,0,0,1-.992,1.871,4.28,4.28,0,0,1-2.562.715,4.47,4.47,0,0,1-1.887-.379,3.166,3.166,0,0,1-1.293-1.039,2.414,2.414,0,0,1-.469-1.426h2.141a1.179,1.179,0,0,0,.445.922,1.766,1.766,0,0,0,1.109.32,1.635,1.635,0,0,0,.98-.246A.766.766,0,0,0,92.934,12.664ZM14.766,39V32.2H13.508V30.547h1.258v-.391a3.17,3.17,0,0,1,.98-2.457,3.945,3.945,0,0,1,2.723-.863,9.031,9.031,0,0,1,2.563.461L20.7,29.164a10,10,0,0,0-1.187-.293,5.834,5.834,0,0,0-.906-.066q-1.578,0-1.578,1.4v.344H18.7V32.2H17.031V39Zm7.32,0H19.82V30.547h2.266Zm3.945-8.453.07.977a2.951,2.951,0,0,1,2.43-1.133,2.453,2.453,0,0,1,2,.789,3.682,3.682,0,0,1,.672,2.359V39H28.945V33.594a1.465,1.465,0,0,0-.312-1.043,1.4,1.4,0,0,0-1.039-.324,1.553,1.553,0,0,0-1.43.813V39H23.906V30.547ZM37.813,39a2.507,2.507,0,0,1-.227-.758,2.732,2.732,0,0,1-2.133.914,3,3,0,0,1-2.059-.719,2.312,2.312,0,0,1-.816-1.812,2.389,2.389,0,0,1,1-2.062,4.915,4.915,0,0,1,2.879-.727h1.039v-.484a1.393,1.393,0,0,0-.3-.937,1.183,1.183,0,0,0-.949-.352,1.345,1.345,0,0,0-.895.273.929.929,0,0,0-.324.75H32.766a2.268,2.268,0,0,1,.453-1.359,3,3,0,0,1,1.281-.98,4.669,4.669,0,0,1,1.859-.355,3.689,3.689,0,0,1,2.48.785,2.747,2.747,0,0,1,.918,2.207v3.664a4.041,4.041,0,0,0,.336,1.82V39Zm-1.867-1.57a1.945,1.945,0,0,0,.922-.223,1.462,1.462,0,0,0,.625-.6V35.156h-.844q-1.7,0-1.8,1.172l-.008.133a.9.9,0,0,0,.3.7A1.153,1.153,0,0,0,35.945,37.43Zm7.625-6.883.07.977a2.951,2.951,0,0,1,2.43-1.133,2.453,2.453,0,0,1,2,.789,3.682,3.682,0,0,1,.672,2.359V39H46.484V33.594a1.465,1.465,0,0,0-.312-1.043,1.4,1.4,0,0,0-1.039-.324,1.553,1.553,0,0,0-1.43.813V39H41.445V30.547Zm10.4,6.789a1.481,1.481,0,0,0,1.016-.344,1.2,1.2,0,0,0,.406-.914h2.117a2.9,2.9,0,0,1-.469,1.574,3.093,3.093,0,0,1-1.262,1.109,3.949,3.949,0,0,1-1.77.395A3.67,3.67,0,0,1,51.148,38,4.56,4.56,0,0,1,50.1,34.82v-.148a4.508,4.508,0,0,1,1.039-3.117,3.627,3.627,0,0,1,2.852-1.164,3.555,3.555,0,0,1,2.543.9,3.2,3.2,0,0,1,.973,2.4H55.391a1.551,1.551,0,0,0-.406-1.072,1.51,1.51,0,0,0-2.223.163,3.333,3.333,0,0,0-.4,1.866v.235a3.375,3.375,0,0,0,.4,1.878A1.377,1.377,0,0,0,53.969,37.336ZM61.18,39H58.914V30.547H61.18Zm-2.4-10.641a1.112,1.112,0,0,1,.34-.836,1.465,1.465,0,0,1,1.848,0,1.193,1.193,0,0,1,0,1.68,1.448,1.448,0,0,1-1.836,0A1.108,1.108,0,0,1,58.781,28.359Zm8.148,10.8A4.15,4.15,0,0,1,63.9,38.016a4.054,4.054,0,0,1-1.168-3.039v-.219a5.106,5.106,0,0,1,.492-2.277,3.612,3.612,0,0,1,1.395-1.547,3.914,3.914,0,0,1,2.059-.543,3.508,3.508,0,0,1,2.73,1.094,4.444,4.444,0,0,1,1,3.1v.922H65.023a2.1,2.1,0,0,0,.66,1.328,2,2,0,0,0,1.395.5,2.437,2.437,0,0,0,2.039-.945l1.109,1.242a3.389,3.389,0,0,1-1.375,1.121A4.511,4.511,0,0,1,66.93,39.156Zm-.258-6.945a1.411,1.411,0,0,0-1.09.455,2.357,2.357,0,0,0-.535,1.3h3.141v-.181a1.681,1.681,0,0,0-.406-1.165A1.456,1.456,0,0,0,66.672,32.211Zm9.766.453a6.134,6.134,0,0,0-.812-.062,1.654,1.654,0,0,0-1.68.867V39H71.688V30.547H73.82l.063,1.008a2.092,2.092,0,0,1,1.883-1.164,2.366,2.366,0,0,1,.7.1Zm.453,2.031a5.013,5.013,0,0,1,.484-2.242A3.546,3.546,0,0,1,78.77,30.93a4.069,4.069,0,0,1,2.113-.539,3.849,3.849,0,0,1,2.793,1.047,4.2,4.2,0,0,1,1.207,2.844l.016.578a4.418,4.418,0,0,1-1.086,3.121,4.209,4.209,0,0,1-5.832,0,4.5,4.5,0,0,1-1.09-3.187Zm2.258.16A3.16,3.16,0,0,0,79.6,36.7a1.628,1.628,0,0,0,2.578.008,3.457,3.457,0,0,0,.461-2.015,3.128,3.128,0,0,0-.461-1.831,1.5,1.5,0,0,0-1.3-.649,1.474,1.474,0,0,0-1.281.646A3.516,3.516,0,0,0,79.148,34.856Zm11.719,1.808a.727.727,0,0,0-.41-.652,4.659,4.659,0,0,0-1.316-.426q-3.016-.633-3.016-2.562a2.323,2.323,0,0,1,.934-1.879,3.766,3.766,0,0,1,2.441-.754,4.053,4.053,0,0,1,2.574.758,2.388,2.388,0,0,1,.965,1.969H90.781a1.092,1.092,0,0,0-.312-.8A1.322,1.322,0,0,0,89.492,32a1.351,1.351,0,0,0-.883.258.814.814,0,0,0-.312.656.7.7,0,0,0,.355.605,3.657,3.657,0,0,0,1.2.4,9.8,9.8,0,0,1,1.422.379,2.336,2.336,0,0,1,1.789,2.273,2.2,2.2,0,0,1-.992,1.871,4.28,4.28,0,0,1-2.562.715,4.47,4.47,0,0,1-1.887-.379,3.166,3.166,0,0,1-1.293-1.039,2.414,2.414,0,0,1-.469-1.426H88a1.179,1.179,0,0,0,.445.922,1.766,1.766,0,0,0,1.109.32,1.635,1.635,0,0,0,.98-.246A.766.766,0,0,0,90.867,36.664Z" transform="translate(746.991 11716.147)" fill="#fff"/>
      <g id="Grupo_1071054" data-name="Grupo 1071054" transform="translate(659 11602.217)">
        <path id="Trazado_816521" data-name="Trazado 816521" d="M13,3H42a1,1,0,0,1,1,1V60a1,1,0,0,1-1,1H4a1,1,0,0,1-1-1V13Z" fill="#c9dfff"/>
        <path id="Trazado_816522" data-name="Trazado 816522" d="M10,41H30v5H10Z" fill="#f0be59"/>
        <path id="Trazado_816523" data-name="Trazado 816523" d="M7,46H27v5H7Z" fill="#e39d10"/>
        <path id="Trazado_816524" data-name="Trazado 816524" d="M10,51H30v5H10Z" fill="#f0be59"/>
        <path id="Trazado_816525" data-name="Trazado 816525" d="M7,56H27v5H7Z" fill="#f0be59"/>
        <path id="Trazado_816526" data-name="Trazado 816526" d="M49,3h4V7H49Z" fill="#10bde0"/>
        <path id="Trazado_816527" data-name="Trazado 816527" d="M13,12V3L3,13h9A1,1,0,0,0,13,12Z" fill="#10bde0"/>
        <path id="Trazado_816528" data-name="Trazado 816528" d="M59,29H39a2,2,0,0,0-2,2V41H61V31A2,2,0,0,0,59,29Zm-2,8H41V33H57Z" fill="#7d7d7d"/>
        <path id="Trazado_816529" data-name="Trazado 816529" d="M49,41H37V59a2,2,0,0,0,2,2H59a2,2,0,0,0,2-2V41Z" fill="#ebebeb"/>
        <path id="Trazado_816530" data-name="Trazado 816530" d="M41,33H57v4H41Z" fill="#10bde0"/>
        <circle id="Elipse_5778" data-name="Elipse 5778" cx="9" cy="9" r="9" transform="translate(15 23)" fill="#e39d10"/>
        <path id="Trazado_816531" data-name="Trazado 816531" d="M47,7h8V26H47Z" fill="#c9dfff"/>
        <path id="Trazado_816532" data-name="Trazado 816532" d="M54,57.5h2v1H54Z"/>
        <path id="Trazado_816533" data-name="Trazado 816533" d="M54,53.5h2v1H54Z"/>
        <path id="Trazado_816534" data-name="Trazado 816534" d="M59,28H39a3,3,0,0,0-3,3V59a3,3,0,0,0,3,3H59a3,3,0,0,0,3-3V31a3,3,0,0,0-3-3ZM39,30H59a1,1,0,0,1,1,1v9H38V31A1,1,0,0,1,39,30ZM50,42H60v8H50Zm-2,8H38V42H48ZM38,59V52H48v8H39A1,1,0,0,1,38,59Zm21,1H50V52H60v7A1,1,0,0,1,59,60Z"/>
        <path id="Trazado_816535" data-name="Trazado 816535" d="M41,38H57a1,1,0,0,0,1-1V33a1,1,0,0,0-1-1H41a1,1,0,0,0-1,1v4A1,1,0,0,0,41,38Zm1-4H56v2H42Z"/>
        <path id="Trazado_816536" data-name="Trazado 816536" d="M40,47h2v2h2V47h2V45H44V43H42v2H40Z"/>
        <path id="Trazado_816537" data-name="Trazado 816537" d="M52,45h6v2H52Z"/>
        <path id="Trazado_816538" data-name="Trazado 816538" d="M45.828,54.707l-1.414-1.414L43,54.707l-1.414-1.414-1.414,1.414,1.414,1.414-1.414,1.414,1.414,1.414L43,57.535l1.414,1.414,1.414-1.414-1.414-1.414Z"/>
        <path id="Trazado_816539" data-name="Trazado 816539" d="M52,55h6v2H52Z"/>
        <path id="Trazado_816540" data-name="Trazado 816540" d="M34,32a10,10,0,1,0-15.974,8H10a1,1,0,0,0-1,1v4H7a1,1,0,0,0-1,1v5a1,1,0,0,0,1,1H9v3H7a1,1,0,0,0-1,1v4H4V14h8a2,2,0,0,0,2-2V4H42V26h2V4a2,2,0,0,0-2-2H13v.009a.993.993,0,0,0-.707.284l-10,10A.991.991,0,0,0,2.009,13H2V60a2,2,0,0,0,2,2H34V60H28V57h2a1,1,0,0,0,1-1V51a1,1,0,0,0-1-1H28V47h2a1,1,0,0,0,1-1V41a1,1,0,0,0-1-1h-.026A9.98,9.98,0,0,0,34,32ZM12,5.414V12H5.414ZM8,60V57H26v3Zm21-5H11V52H29ZM10,50H8V47H26v3Zm19-8v3H11V42ZM16,32a8,8,0,1,1,8,8,8,8,0,0,1-8-8Z"/>
        <path id="Trazado_816541" data-name="Trazado 816541" d="M25,26H23v1.184A2.993,2.993,0,0,0,24,33a1,1,0,0,1,0,2H21v2h2v1h2V36.816A2.993,2.993,0,0,0,24,31a1,1,0,0,1,0-2h3V27H25Z"/>
        <path id="Trazado_816542" data-name="Trazado 816542" d="M53,2H49a1,1,0,0,0-1,1V6H47a1,1,0,0,0-1,1V26h2V8h6V26h2V9h2V22h2V9a2,2,0,0,0-2-2H56a1,1,0,0,0-1-1H54V3A1,1,0,0,0,53,2ZM50,4h2V6H50Z"/>
        <path id="Trazado_816543" data-name="Trazado 816543" d="M17,10H34v2H17Z"/>
        <path id="Trazado_816544" data-name="Trazado 816544" d="M6,16H40v2H6Z"/>
        <path id="Trazado_816545" data-name="Trazado 816545" d="M6,20H18v2H6Z"/>
        <path id="Trazado_816546" data-name="Trazado 816546" d="M31,20h9v2H31Z"/>
      </g>
      <g id="Layer_3" transform="translate(661 11759.601)">
        <g id="Grupo_1071093" data-name="Grupo 1071093" transform="translate(0 23.509)">
          <g id="Grupo_1071056" data-name="Grupo 1071056" transform="translate(4.379 2.052)">
            <g id="Grupo_1071055" data-name="Grupo 1071055">
              <path id="Trazado_816547" data-name="Trazado 816547" d="M33.819,90.9a1,1,0,0,1-1-1V39.89a1,1,0,1,1,2,0V89.9A1,1,0,0,1,33.819,90.9Z" transform="translate(-32.818 -38.889)" fill="#625ac5"/>
            </g>
          </g>
          <path id="Trazado_816548" data-name="Trazado 816548" d="M0,0H5.963V10.852H0Z" transform="translate(19.016 49.675) rotate(180)" fill="#f9475e"/>
          <path id="Trazado_816549" data-name="Trazado 816549" d="M0,0H5.963V22.343H0Z" transform="translate(32.654 49.675) rotate(180)" fill="#00c755"/>
          <path id="Trazado_816550" data-name="Trazado 816550" d="M0,0H5.963V5.107H0Z" transform="translate(46.291 49.673) rotate(180)" fill="#f9475e"/>
          <path id="Trazado_816551" data-name="Trazado 816551" d="M0,0H5.963V14.683H0Z" transform="translate(59.928 49.675) rotate(180)" fill="#00c755"/>
          <g id="Grupo_1071057" data-name="Grupo 1071057" transform="translate(10.135 48.674)">
            <path id="Trazado_816552" data-name="Trazado 816552" d="M76.961,393.712a1,1,0,0,1-1-1v-3.386a1,1,0,1,1,2,0v3.386A1,1,0,0,1,76.961,393.712Z" transform="translate(-75.96 -388.325)" fill="#625ac5"/>
          </g>
          <g id="Grupo_1071059" data-name="Grupo 1071059" transform="translate(0 42.929)">
            <g id="Grupo_1071058" data-name="Grupo 1071058">
              <path id="Trazado_816553" data-name="Trazado 816553" d="M5.379,347.263H1a1,1,0,0,1,0-2H5.379a1,1,0,0,1,0,2Z" transform="translate(0 -345.262)" fill="#625ac5"/>
            </g>
          </g>
          <g id="Grupo_1071061" data-name="Grupo 1071061" transform="translate(0 37.183)">
            <g id="Grupo_1071060" data-name="Grupo 1071060">
              <path id="Trazado_816554" data-name="Trazado 816554" d="M5.379,304.2H1a1,1,0,1,1,0-2H5.379a1,1,0,1,1,0,2Z" transform="translate(0 -302.2)" fill="#625ac5"/>
            </g>
          </g>
          <g id="Grupo_1071063" data-name="Grupo 1071063" transform="translate(0 31.438)">
            <g id="Grupo_1071062" data-name="Grupo 1071062">
              <path id="Trazado_816555" data-name="Trazado 816555" d="M5.379,261.139H1a1,1,0,0,1,0-2H5.379a1,1,0,0,1,0,2Z" transform="translate(0 -259.138)" fill="#625ac5"/>
            </g>
          </g>
          <g id="Grupo_1071065" data-name="Grupo 1071065" transform="translate(0 25.692)">
            <g id="Grupo_1071064" data-name="Grupo 1071064">
              <path id="Trazado_816556" data-name="Trazado 816556" d="M5.379,218.076H1a1,1,0,0,1,0-2H5.379a1,1,0,0,1,0,2Z" transform="translate(0 -216.075)" fill="#625ac5"/>
            </g>
          </g>
          <g id="Grupo_1071067" data-name="Grupo 1071067" transform="translate(0 19.947)">
            <g id="Grupo_1071066" data-name="Grupo 1071066">
              <path id="Trazado_816557" data-name="Trazado 816557" d="M5.379,175.014H1a1,1,0,0,1,0-2H5.379a1,1,0,0,1,0,2Z" transform="translate(0 -173.013)" fill="#625ac5"/>
            </g>
          </g>
          <g id="Grupo_1071069" data-name="Grupo 1071069" transform="translate(0 13.943)">
            <g id="Grupo_1071068" data-name="Grupo 1071068">
              <path id="Trazado_816558" data-name="Trazado 816558" d="M5.379,130.014H1a1,1,0,0,1,0-2H5.379a1,1,0,0,1,0,2Z" transform="translate(0 -128.013)" fill="#625ac5"/>
            </g>
          </g>
          <g id="Grupo_1071070" data-name="Grupo 1071070" transform="translate(15.891 48.674)">
            <path id="Trazado_816559" data-name="Trazado 816559" d="M120.1,393.712a1,1,0,0,1-1-1v-3.386a1,1,0,1,1,2,0v3.386A1,1,0,0,1,120.1,393.712Z" transform="translate(-119.101 -388.325)" fill="#625ac5"/>
          </g>
          <g id="Grupo_1071071" data-name="Grupo 1071071" transform="translate(21.647 48.674)">
            <path id="Trazado_816560" data-name="Trazado 816560" d="M163.244,393.712a1,1,0,0,1-1-1v-3.386a1,1,0,1,1,2,0v3.386A1,1,0,0,1,163.244,393.712Z" transform="translate(-162.243 -388.325)" fill="#625ac5"/>
          </g>
          <g id="Grupo_1071072" data-name="Grupo 1071072" transform="translate(27.402 48.674)">
            <path id="Trazado_816561" data-name="Trazado 816561" d="M206.385,393.712a1,1,0,0,1-1-1v-3.386a1,1,0,1,1,2,0v3.386A1,1,0,0,1,206.385,393.712Z" transform="translate(-205.384 -388.325)" fill="#625ac5"/>
          </g>
          <g id="Grupo_1071073" data-name="Grupo 1071073" transform="translate(33.159 48.674)">
            <path id="Trazado_816562" data-name="Trazado 816562" d="M249.527,393.712a1,1,0,0,1-1-1v-3.386a1,1,0,1,1,2,0v3.386A1,1,0,0,1,249.527,393.712Z" transform="translate(-248.526 -388.325)" fill="#625ac5"/>
          </g>
          <g id="Grupo_1071074" data-name="Grupo 1071074" transform="translate(38.914 48.674)">
            <path id="Trazado_816563" data-name="Trazado 816563" d="M292.668,393.712a1,1,0,0,1-1-1v-3.386a1,1,0,1,1,2,0v3.386A1,1,0,0,1,292.668,393.712Z" transform="translate(-291.667 -388.325)" fill="#625ac5"/>
          </g>
          <g id="Grupo_1071075" data-name="Grupo 1071075" transform="translate(44.67 48.674)">
            <path id="Trazado_816564" data-name="Trazado 816564" d="M335.81,393.712a1,1,0,0,1-1-1v-3.386a1,1,0,1,1,2,0v3.386A1,1,0,0,1,335.81,393.712Z" transform="translate(-334.809 -388.325)" fill="#625ac5"/>
          </g>
          <g id="Grupo_1071076" data-name="Grupo 1071076" transform="translate(50.426 48.674)">
            <path id="Trazado_816565" data-name="Trazado 816565" d="M378.951,393.712a1,1,0,0,1-1-1v-3.386a1,1,0,1,1,2,0v3.386A1,1,0,0,1,378.951,393.712Z" transform="translate(-377.95 -388.325)" fill="#625ac5"/>
          </g>
          <g id="Grupo_1071077" data-name="Grupo 1071077" transform="translate(56.182 48.674)">
            <path id="Trazado_816566" data-name="Trazado 816566" d="M422.093,393.712a1,1,0,0,1-1-1v-3.386a1,1,0,1,1,2,0v3.386A1,1,0,0,1,422.093,393.712Z" transform="translate(-421.092 -388.325)" fill="#625ac5"/>
          </g>
          <g id="Grupo_1071079" data-name="Grupo 1071079" transform="translate(4.379 0)">
            <g id="Grupo_1071078" data-name="Grupo 1071078">
              <path id="Trazado_816567" data-name="Trazado 816567" d="M37.656,30.185a1,1,0,0,1-.774-.366l-3.837-4.675a1,1,0,0,1,1.547-1.27L38.43,28.55a1,1,0,0,1-.773,1.635Z" transform="translate(-32.818 -23.509)" fill="#625ac5"/>
            </g>
          </g>
          <g id="Grupo_1071081" data-name="Grupo 1071081" transform="translate(0.541 0)">
            <g id="Grupo_1071080" data-name="Grupo 1071080">
              <path id="Trazado_816568" data-name="Trazado 816568" d="M5.057,30.185a1,1,0,0,1-.773-1.635l3.837-4.675a1,1,0,1,1,1.547,1.27L5.831,29.82a1,1,0,0,1-.774.366Z" transform="translate(-4.057 -23.509)" fill="#625ac5"/>
            </g>
          </g>
          <g id="Grupo_1071082" data-name="Grupo 1071082" transform="translate(61.626 44.844)">
            <path id="Trazado_816569" data-name="Trazado 816569" d="M467.579,365.447a1,1,0,0,1-.633-.226l-4.684-3.83a1,1,0,1,1,1.267-1.549l4.684,3.83a1,1,0,0,1-.634,1.775Z" transform="translate(-461.896 -359.616)" fill="#625ac5"/>
          </g>
          <g id="Grupo_1071083" data-name="Grupo 1071083" transform="translate(61.626 48.674)">
            <path id="Trazado_816570" data-name="Trazado 816570" d="M462.9,394.156a1,1,0,0,1-.634-1.775l4.684-3.83a1,1,0,1,1,1.267,1.549l-4.684,3.83A1,1,0,0,1,462.9,394.156Z" transform="translate(-461.895 -388.324)" fill="#625ac5"/>
          </g>
          <g id="Grupo_1071084" data-name="Grupo 1071084" transform="translate(49.333 23.129)">
            <path id="Trazado_816571" data-name="Trazado 816571" d="M376.713,199.961a1.013,1.013,0,0,1-.182-.017l-5.954-1.1a1,1,0,1,1,.362-1.968l5.954,1.1a1,1,0,0,1-.18,1.985Z" transform="translate(-369.757 -196.863)" fill="#625ac5"/>
          </g>
          <g id="Grupo_1071085" data-name="Grupo 1071085" transform="translate(53.039 24.225)">
            <path id="Trazado_816572" data-name="Trazado 816572" d="M398.534,212.693a1,1,0,0,1-.928-1.373l2.249-5.612a1,1,0,1,1,1.858.744l-2.249,5.612A1,1,0,0,1,398.534,212.693Z" transform="translate(-397.534 -205.08)" fill="#625ac5"/>
          </g>
          <g id="Grupo_1071086" data-name="Grupo 1071086" transform="translate(15.035 14.701)">
            <path id="Trazado_816573" data-name="Trazado 816573" d="M113.685,153.806a1,1,0,0,1-.8-1.6L126.313,134.1a1,1,0,1,1,1.608,1.192L114.489,153.4A1,1,0,0,1,113.685,153.806Z" transform="translate(-112.685 -133.692)" fill="#625ac5"/>
          </g>
          <g id="Grupo_1071087" data-name="Grupo 1071087" transform="translate(28.465 14.701)">
            <path id="Trazado_816574" data-name="Trazado 816574" d="M227.78,153.805a1,1,0,0,1-.8-.4l-13.431-18.112a1,1,0,0,1,1.608-1.192l13.431,18.112a1,1,0,0,1-.8,1.6Z" transform="translate(-213.348 -133.692)" fill="#625ac5"/>
          </g>
          <g id="Grupo_1071088" data-name="Grupo 1071088" transform="translate(41.896 24.276)">
            <path id="Trazado_816575" data-name="Trazado 816575" d="M315.014,216a1,1,0,0,1-.538-1.845l13.431-8.536a1,1,0,1,1,1.074,1.689l-13.431,8.536A1,1,0,0,1,315.014,216Z" transform="translate(-314.012 -205.461)" fill="#625ac5"/>
          </g>
          <ellipse id="Elipse_5779" data-name="Elipse 5779" cx="9.9" cy="9.794" rx="9.9" ry="9.794" transform="translate(36.098 3.338)" fill="#625ac5"/>
          <g id="Grupo_1071089" data-name="Grupo 1071089" transform="translate(44.924 5.116)">
            <path id="Trazado_816576" data-name="Trazado 816576" d="M337.71,77.886a1,1,0,0,1-1-1V62.853a1,1,0,1,1,2,0V76.885A1,1,0,0,1,337.71,77.886Z" transform="translate(-336.709 -61.852)" fill="#a29cde"/>
          </g>
          <g id="Grupo_1071090" data-name="Grupo 1071090" transform="translate(41.862 6.591)">
            <path id="Trazado_816577" data-name="Trazado 816577" d="M317.662,85.871a5.512,5.512,0,0,1-3.427-.926,1,1,0,0,1,1.05-1.7,3.725,3.725,0,0,0,2.531.628,2.134,2.134,0,0,0,2.193-1.746,1.554,1.554,0,0,0-1.231-1.788,12.76,12.76,0,0,1-3.562-1.609,2.925,2.925,0,0,1-1.061-2.921,3.417,3.417,0,0,1,2.438-2.7,4.72,4.72,0,0,1,4.263.773,1.181,1.181,0,0,1-.063,1.046,1.144,1.144,0,0,1-1.25.465l.01.009a2.727,2.727,0,0,0-2.414-.367,1.432,1.432,0,0,0-1.016,1.131.967.967,0,0,0,.281.954,12.09,12.09,0,0,0,3.005,1.32,3.541,3.541,0,0,1,2.575,4,4.154,4.154,0,0,1-4.157,3.433Z" transform="translate(-313.759 -72.907)" fill="#a29cde"/>
          </g>
          <g id="Grupo_1071092" data-name="Grupo 1071092" transform="translate(0 48.674)">
            <g id="Grupo_1071091" data-name="Grupo 1071091">
              <path id="Trazado_816578" data-name="Trazado 816578" d="M1,390.326a1,1,0,1,1,0-2h66.31a1,1,0,1,1,0,2Z" transform="translate(0 -388.325)" fill="#625ac5"/>
            </g>
          </g>
        </g>
        <g id="Grupo_1071094" data-name="Grupo 1071094" transform="translate(0 23.509)">
          <path id="Trazado_816579" data-name="Trazado 816579" d="M68.311,73.183c0-.014,0-.027,0-.041s0-.036,0-.054v0c0-.012,0-.023-.005-.034s0-.039-.009-.058v0c0-.014-.007-.027-.01-.041s-.007-.033-.012-.049v0c0-.015-.01-.029-.015-.043s-.009-.029-.015-.043l0-.006c-.006-.015-.013-.028-.02-.043l-.006-.013c0-.008-.007-.017-.012-.025l0-.008c-.006-.011-.013-.022-.02-.034s-.02-.034-.031-.05l-.02-.027c-.012-.017-.024-.034-.038-.051l-.028-.031c-.012-.014-.024-.028-.037-.041h0c-.014-.014-.028-.026-.043-.039l-.029-.026-.007-.006L63.26,68.58a1,1,0,1,0-1.267,1.549l2.513,2.055H60.929V66.775a1,1,0,1,0-2,0v5.409H54.966V59.5h3.961v2.6a1,1,0,1,0,2,0V58.5a1,1,0,0,0-1-1H53.965a1,1,0,0,0-1,1V72.184H47.292V68.076a1,1,0,0,0-1-1H40.328a1,1,0,0,0-1,1v4.107H33.654V50.841a1,1,0,0,0-1-1H26.691a1,1,0,0,0-1,1V72.184H20.017V62.332a1,1,0,0,0-1-1H13.054a1,1,0,0,0-1,1v9.852H6.38V27.307l2.063,2.514a1,1,0,0,0,1.547-1.27L6.159,23.883l0-.005,0,0-.015-.016c-.017-.019-.033-.039-.052-.057s-.037-.034-.056-.051l-.017-.015h0a1.01,1.01,0,0,0-.437-.207h0c-.024,0-.048-.008-.072-.011l-.024,0-.053,0-.044,0H5.346l-.064,0-.011,0a.994.994,0,0,0-.307.085l-.051.024h0a.992.992,0,0,0-.167.111h0l-.017.015c-.019.016-.038.033-.056.051s-.035.037-.052.057l-.015.016,0,0,0,.005L.768,28.551a1,1,0,1,0,1.547,1.27l2.063-2.514V37.453H1a1,1,0,0,0,0,2H4.378v4H1a1,1,0,0,0,0,2H4.378V49.2H1a1,1,0,1,0,0,2H4.378v3.744H1a1,1,0,1,0,0,2H4.378v3.744H1a1,1,0,0,0,0,2H4.378v3.744H1a1,1,0,0,0,0,2H4.378v3.744H1a1,1,0,1,0,0,2H4.378V76.57a1,1,0,1,0,2,0V74.185h3.755V76.57a1,1,0,1,0,2,0V74.185h3.755V76.57a1,1,0,1,0,2,0V74.185h3.755V76.57a1,1,0,1,0,2,0V74.185H27.4V76.57a1,1,0,1,0,2,0V74.185h3.755V76.57a1,1,0,1,0,2,0V74.185h3.755V76.57a1,1,0,1,0,2,0V74.185h3.755V76.57a1,1,0,1,0,2,0V74.185h3.755V76.57a1,1,0,1,0,2,0V74.185h3.755V76.57a1,1,0,1,0,2,0V74.185h6.323L61.994,76.24a1,1,0,0,0,1.267,1.549l4.684-3.83h0c.013-.011.026-.023.039-.035l.028-.026.006-.006c.013-.013.025-.027.037-.041s.019-.02.028-.031.026-.034.038-.051l.02-.027c.011-.016.021-.033.031-.05s.014-.022.02-.034l0-.008.012-.025.006-.013c.007-.014.014-.028.02-.043l0-.006c.006-.014.01-.028.015-.043s.011-.029.015-.043v0c0-.016.008-.033.012-.049s.007-.027.01-.041v0c0-.019.006-.039.009-.058s0-.023.005-.034v0c0-.018,0-.036,0-.054s0-.027,0-.041h0v0Zm-50.3-1H14.054V63.333h3.961Zm13.637,0H27.692V51.842h3.961V72.184Zm13.637,0H41.329V69.077H45.29Z" transform="translate(0 -23.51)"/>
          <path id="Trazado_816580" data-name="Trazado 816580" d="M113.089,153.613a1,1,0,0,0,1.4-.208l12.627-17.028L139.742,153.4l.02.024c.012.016.025.031.038.045s.03.032.045.048l.042.039c.017.015.034.029.052.042l.044.032c.019.013.039.025.059.037l.044.025c.021.011.043.021.065.03l.044.019c.023.009.047.016.071.023l.043.013c.026.006.052.01.078.015l.039.007a1.006,1.006,0,0,0,.108.007h.011a1,1,0,0,0,.147-.012c.015,0,.03-.007.046-.01a.992.992,0,0,0,.1-.024c.019-.006.037-.014.056-.021s.056-.022.084-.035.039-.02.058-.031.031-.015.046-.025l10.731-6.82-1.053,2.628a1,1,0,1,0,1.858.744l2.115-5.279a1,1,0,0,0,.021-1.282l-.01-.013c-.013-.018-.026-.036-.041-.053l-.015-.016c-.016-.019-.033-.037-.051-.055l-.017-.016c-.018-.017-.035-.033-.055-.049s-.038-.028-.057-.042l-.021-.015a.99.99,0,0,0-.179-.094h0q-.046-.018-.093-.032c-.031-.009-.062-.016-.094-.022h-.011l-5.947-1.1a1,1,0,1,0-.362,1.968l3.54.652-10.547,6.7L127.926,134.11l-.006-.008h0l-.006-.007c-.018-.024-.036-.047-.057-.069l-.034-.035-.035-.034c-.022-.02-.045-.039-.069-.057l-.007-.006h0a1,1,0,0,0-.173-.1c-.021-.01-.043-.018-.065-.027l-.024-.01c-.027-.01-.055-.018-.083-.025l-.009,0c-.024-.006-.049-.01-.073-.014l-.022,0-.058-.006-.039,0h-.1l-.021,0c-.025,0-.051,0-.076.008h0a1,1,0,0,0-.286.088c-.026.013-.052.026-.077.041h0a.959.959,0,0,0-.083.055h0l-.012.01c-.022.017-.043.034-.063.052s-.025.025-.037.037l-.032.032c-.02.022-.039.046-.057.069l-.006.007h0l-.006.008-13.424,18.1a1,1,0,0,0,.208,1.4Z" transform="translate(-97.65 -118.996)"/>
          <path id="Trazado_816581" data-name="Trazado 816581" d="M273.961,62.62a10.86,10.86,0,0,0,10.9-10.795c0-.237-.008-.478-.023-.713a1,1,0,1,0-2,.132c.013.192.019.388.019.581a8.825,8.825,0,1,1-1.274-4.537,1,1,0,1,0,1.708-1.043,10.867,10.867,0,1,0-9.333,16.375Z" transform="translate(-227.963 -38.692)"/>
          <path id="Trazado_816582" data-name="Trazado 816582" d="M317.822,77.886a1,1,0,0,0,1-1v-.708a4.127,4.127,0,0,0,3.162-3.32,3.54,3.54,0,0,0-2.575-4c-.193-.064-.39-.131-.588-.2v-3.2a2.323,2.323,0,0,1,.731.365l-.01-.009a1.1,1.1,0,0,0,1.313-1.511,4.233,4.233,0,0,0-.572-.382,4.765,4.765,0,0,0-1.462-.517v-.548a1,1,0,1,0-2,0v.614q-.113.027-.228.059a3.416,3.416,0,0,0-2.438,2.7,2.925,2.925,0,0,0,1.061,2.921,7.934,7.934,0,0,0,1.605.882v4.227a3.39,3.39,0,0,1-1.536-.593,1,1,0,0,0-1.05,1.7,5.258,5.258,0,0,0,2.586.9v.62A1,1,0,0,0,317.822,77.886Zm1-7.114a1.546,1.546,0,0,1,1.186,1.772,2.07,2.07,0,0,1-1.186,1.532ZM316.4,67.537a.967.967,0,0,1-.281-.954,1.454,1.454,0,0,1,.7-1V67.8A4.2,4.2,0,0,1,316.4,67.537Z" transform="translate(-271.897 -56.736)"/>
        </g>
      </g>
      <path id="Trazado_816585" data-name="Trazado 816585" d="M8.383,49.043V63.894H2V49A29.8,29.8,0,0,0,8.383,49.043Z" transform="translate(895.128 11599.26)" fill="#ffaf04"/>
      <g id="Grupo_1072546" data-name="Grupo 1072546">
        <path id="Trazado_816583" data-name="Trazado 816583" d="M52.383,36.064v2.617a10.652,10.652,0,0,0-6.383,0V36.064A1.067,1.067,0,0,1,47.064,35h4.255A1.067,1.067,0,0,1,52.383,36.064Z" transform="translate(897.936 11598.366)" fill="#ffaf04"/>
        <path id="Trazado_816584" data-name="Trazado 816584" d="M52.83,38.489a10.637,10.637,0,1,1-11.7,16.521,10.636,10.636,0,0,1,11.7-16.521Zm4.255,10.149a7.447,7.447,0,1,0-7.447,7.447A7.441,7.441,0,0,0,57.085,48.638Z" transform="translate(897.489 11598.558)" fill="#6871d8"/>
        <circle id="Elipse_5780" data-name="Elipse 5780" cx="7.5" cy="7.5" r="7.5" transform="translate(940 11640.132)" fill="#d9d8ef"/>
        <path id="Trazado_816586" data-name="Trazado 816586" d="M19.383,46.71V64.04H13v-15.6A50.6,50.6,0,0,0,19.383,46.71Z" transform="translate(895.83 11599.113)" fill="#ff5b00"/>
        <path id="Trazado_816587" data-name="Trazado 816587" d="M30.383,41.51V64.372H24V44.925a58.106,58.106,0,0,0,6.383-3.415Z" transform="translate(896.532 11598.781)" fill="#6871d8"/>
        <path id="Trazado_816588" data-name="Trazado 816588" d="M41.383,55.33v9.585H35v-26.5A70.894,70.894,0,0,0,41.383,33v9.585a10.606,10.606,0,0,0,0,12.745Z" transform="translate(897.234 11598.238)" fill="#ffaf04"/>
        <path id="Trazado_816589" data-name="Trazado 816589" d="M41.425,13l2.128,18.117L39.3,28.851C29.723,49.17,1,48.106,1,48.106S25.468,37.915,29.723,24.319l-4.255-2.255Z" transform="translate(895.063 11596.962)" fill="#6871d8"/>
        <path id="Trazado_816590" data-name="Trazado 816590" d="M21.142,25.11v3.011l-1.489.532c-.362.872-.553,1.319-.9,2.191l.681,1.436L17.3,34.408l-1.436-.681c-.872.372-1.319.553-2.191.915l-.532,1.5H10.131L9.6,34.653c-.872-.362-1.319-.553-2.191-.9l-1.436.681L3.844,32.3l.681-1.436c-.362-.872-.553-1.319-.915-2.191l-1.489-.532c-.011-1.5-.011-1.5-.011-3.011l1.5-.532c.362-.872.543-1.319.9-2.191l-.691-1.436C4.887,19.908,4.9,19.908,5.95,18.844l1.436.681c.872-.362,1.319-.553,2.191-.915l.532-1.489c1.5-.011,1.511-.011,3.011-.011l.532,1.5c.872.362,1.319.543,2.191.9l1.436-.691c1.064,1.064,1.064,1.074,2.128,2.128l-.681,1.436c.372.872.553,1.319.915,2.191Zm-7.606,6.1a4.96,4.96,0,1,0-6.489-2.67A4.96,4.96,0,0,0,13.535,31.206Z" transform="translate(895.135 11597.224)" fill="#ffaf04"/>
        <circle id="Elipse_5781" data-name="Elipse 5781" cx="9.5" cy="9.5" r="9.5" transform="translate(943 11597.132)" fill="#ffaf04"/>
        <path id="Trazado_816591" data-name="Trazado 816591" d="M21.563,29.184a1.061,1.061,0,0,0,.706-1l0-3.012a1.06,1.06,0,0,0-.709-1l-1.05-.372-.548-1.317.477-1.006a1.063,1.063,0,0,0-.211-1.209l-2.132-2.127a1.063,1.063,0,0,0-1.209-.206l-1.005.479-1.319-.545-.376-1.05a1.094,1.094,0,0,0-1.023-.705h0l-2.991.005a1.065,1.065,0,0,0-1,.709L8.8,17.874l-1.317.549-1.006-.477a1.059,1.059,0,0,0-1.209.21L3.138,20.289A1.066,1.066,0,0,0,2.93,21.5l.48,1-.545,1.319L1.816,24.2a1.064,1.064,0,0,0-.705,1l0,3.012a1.061,1.061,0,0,0,.71,1l1.049.372L3.422,30.9l-.477,1.006a1.063,1.063,0,0,0,.211,1.209l2.133,2.127a1.064,1.064,0,0,0,1.21.206l1.005-.48,1.318.545L9.2,36.562a1.063,1.063,0,0,0,1,.707h0l3.012,0a1.065,1.065,0,0,0,1-.709l.371-1.049,1.318-.549,1.006.477a1.067,1.067,0,0,0,1.209-.211l2.127-2.133a1.066,1.066,0,0,0,.207-1.21l-.48-1,.544-1.319Zm-2.209-1.469a1.062,1.062,0,0,0-.626.6l-.9,2.193a1.067,1.067,0,0,0,.022.864l.36.754L17.14,33.192l-.754-.357a1.071,1.071,0,0,0-.864-.021l-2.191.911a1.068,1.068,0,0,0-.595.628l-.279.787-1.51,0-.281-.786a1.066,1.066,0,0,0-.6-.627l-2.193-.9a1.061,1.061,0,0,0-.865.023l-.753.36L5.19,32.141l.357-.755a1.067,1.067,0,0,0,.021-.864l-.911-2.193a1.063,1.063,0,0,0-.628-.594l-.787-.279,0-1.511.787-.282a1.064,1.064,0,0,0,.624-.6l.905-2.194a1.067,1.067,0,0,0-.022-.864l-.361-.752L6.241,20.19,7,20.547a1.067,1.067,0,0,0,.864.022l2.19-.912a1.063,1.063,0,0,0,.595-.627l.279-.787,1.511,0,.281.787a1.064,1.064,0,0,0,.6.624l2.194.906a1.067,1.067,0,0,0,.864-.023l.754-.36,1.069,1.067L17.833,22a1.063,1.063,0,0,0-.02.864l.911,2.189a1.063,1.063,0,0,0,.627.595l.788.28,0,1.51Z" transform="translate(895.071 11597.16)" fill="#12263f"/>
        <path id="Trazado_816592" data-name="Trazado 816592" d="M13.714,20.85a6.031,6.031,0,0,0-6.249,1.021,1.064,1.064,0,0,0,1.4,1.606,3.82,3.82,0,0,1,1.061-.655,3.89,3.89,0,1,1-2.382,3.222,1.064,1.064,0,0,0-2.117-.206,6.022,6.022,0,0,0,6,6.6A6.021,6.021,0,0,0,13.714,20.85Z" transform="translate(895.345 11597.434)" fill="#12263f"/>
        <path id="Trazado_816593" data-name="Trazado 816593" d="M54.191,9.319a1.064,1.064,0,1,1,.922-1.595,1.064,1.064,0,0,0,1.841-1.066,3.192,3.192,0,0,0-1.7-1.387V5.064a1.064,1.064,0,1,0-2.128,0v.2a3.184,3.184,0,0,0,1.064,6.187,1.064,1.064,0,1,1-.922,1.595,1.064,1.064,0,0,0-1.841,1.066,3.188,3.188,0,0,0,1.7,1.387V15.7a1.064,1.064,0,1,0,2.128,0v-.2a3.184,3.184,0,0,0-1.064-6.187Z" transform="translate(898.255 11596.387)" fill="#12263f"/>
        <path id="Trazado_816594" data-name="Trazado 816594" d="M54.638,0A10.638,10.638,0,1,0,65.277,10.638,10.65,10.65,0,0,0,54.638,0Zm0,19.149a8.511,8.511,0,1,1,8.511-8.511A8.521,8.521,0,0,1,54.638,19.149Z" transform="translate(897.809 11596.132)" fill="#12263f"/>
        <path id="Trazado_816595" data-name="Trazado 816595" d="M54.213,38.132V36.255a2.13,2.13,0,0,0-2.128-2.128H47.83A2.13,2.13,0,0,0,45.7,36.255v1.877A11.725,11.725,0,0,0,42.511,40V33.064a1.063,1.063,0,0,0-1.8-.771,70.338,70.338,0,0,1-6.287,5.334,1.063,1.063,0,0,0-.428.852v26.5a1.064,1.064,0,0,0,1.064,1.064h6.383a1.064,1.064,0,0,0,1.064-1.064V58.041a11.7,11.7,0,1,0,11.7-19.91ZM47.83,36.255h4.255v1.267a11.241,11.241,0,0,0-4.255,0Zm-11.7,27.659V39.009c1.418-1.079,2.843-2.255,4.255-3.518v6.823a11.636,11.636,0,0,0,0,13.415v8.186ZM49.957,58.6a9.574,9.574,0,1,1,9.574-9.574A9.585,9.585,0,0,1,49.957,58.6Z" transform="translate(897.17 11598.174)" fill="#12263f"/>
        <path id="Trazado_816596" data-name="Trazado 816596" d="M49.511,40a8.511,8.511,0,1,0,8.511,8.511A8.521,8.521,0,0,0,49.511,40Zm1.064,14.8V53.83a1.064,1.064,0,0,0-2.128,0V54.8a6.39,6.39,0,0,1-5.223-5.223h.968a1.064,1.064,0,0,0,0-2.128h-.968a6.39,6.39,0,0,1,5.223-5.223v.968a1.064,1.064,0,1,0,2.128,0v-.968A6.39,6.39,0,0,1,55.8,47.447H54.83a1.064,1.064,0,0,0,0,2.128H55.8A6.392,6.392,0,0,1,50.574,54.8Z" transform="translate(897.617 11598.685)" fill="#12263f"/>
        <path id="Trazado_816597" data-name="Trazado 816597" d="M51.191,47.128H50.128V46.064a1.064,1.064,0,0,0-2.128,0v2.128a1.064,1.064,0,0,0,1.064,1.064h2.128a1.064,1.064,0,0,0,0-2.128Z" transform="translate(898.063 11599.004)" fill="#12263f"/>
        <path id="Trazado_816598" data-name="Trazado 816598" d="M35.93,34.467a1.062,1.062,0,0,0-1.5.111C26.5,43.769,13.51,46.237,6.314,46.886,13.8,43.1,27.6,34.928,30.8,24.705a1.065,1.065,0,0,0-.515-1.257l-2.548-1.355,12.88-7.312,1.7,14.508-2.462-1.31a1.064,1.064,0,0,0-1.462.485,26.962,26.962,0,0,1-1.578,2.881,1.064,1.064,0,0,0,1.8,1.135c.428-.68.832-1.385,1.206-2.107l3.288,1.751a1.064,1.064,0,0,0,1.556-1.063L42.546,12.942a1.064,1.064,0,0,0-.577-.826,1.078,1.078,0,0,0-1.005.023L25.006,21.2a1.065,1.065,0,0,0,.026,1.865L28.484,24.9C23.7,37.454.889,47.088.654,47.187a1.064,1.064,0,0,0,.37,2.045c.1,0,.417.014.929.014,4.447,0,23.289-.767,34.087-13.278a1.064,1.064,0,0,0-.111-1.5Z" transform="translate(895 11596.898)" fill="#12263f"/>
        <path id="Trazado_816599" data-name="Trazado 816599" d="M20.066,45.908a1.067,1.067,0,0,0-.964-.141,49.932,49.932,0,0,1-6.249,1.7A1.065,1.065,0,0,0,12,48.508V64.1a1.064,1.064,0,0,0,1.064,1.064h6.383A1.064,1.064,0,0,0,20.511,64.1V46.774A1.066,1.066,0,0,0,20.066,45.908ZM18.383,63.04H14.128V49.37c1.426-.314,2.849-.691,4.255-1.13Z" transform="translate(895.766 11599.049)" fill="#12263f"/>
        <path id="Trazado_816600" data-name="Trazado 816600" d="M30.965,40.645a1.066,1.066,0,0,0-1.077.022,56.809,56.809,0,0,1-6.266,3.352,1.068,1.068,0,0,0-.622.969V64.435A1.064,1.064,0,0,0,24.064,65.5h6.383a1.064,1.064,0,0,0,1.064-1.064V41.574A1.061,1.061,0,0,0,30.965,40.645ZM29.383,63.372H25.128v-17.7c1.429-.672,2.853-1.416,4.255-2.222Z" transform="translate(896.468 11598.718)" fill="#12263f"/>
        <path id="Trazado_816601" data-name="Trazado 816601" d="M8.36,48.046a29.149,29.149,0,0,1-6.133-.033A1.064,1.064,0,0,0,1,49.064V63.957a1.064,1.064,0,0,0,1.064,1.064H8.447a1.064,1.064,0,0,0,1.064-1.064V49.106a1.062,1.062,0,0,0-.344-.782A1.074,1.074,0,0,0,8.36,48.046ZM7.383,62.894H3.128V50.238a35.305,35.305,0,0,0,4.255.007Z" transform="translate(895.063 11599.195)" fill="#12263f"/>
      </g>
      <g id="Grupo_1071097" data-name="Grupo 1071097" transform="translate(893 11769.896)">
        <rect id="Rectángulo_376218" data-name="Rectángulo 376218" width="23.68" height="36.597" rx="1" transform="translate(22.451 16.068)" fill="#c2daf2"/>
        <circle id="Elipse_5782" data-name="Elipse 5782" cx="7.535" cy="7.535" r="7.535" transform="translate(26.757 26.832)" fill="#72a6e4"/>
        <path id="Trazado_816602" data-name="Trazado 816602" d="M35.743,39.1h0a2.777,2.777,0,0,0-3.927-.526l-7.456,5.8-2.153-3.229V25L14.452,35.663a6.458,6.458,0,0,0-1.125,2.608L10.448,53.63a2.152,2.152,0,0,1-.325.8l-6.215,10.4H18.978L20.054,61.6l4.329-3.463a5.381,5.381,0,0,0,1.585-2.083l2.7-6.295,6.7-6.913A2.777,2.777,0,0,0,35.743,39.1Z" transform="translate(0.146 1.832)" fill="#e6ccab"/>
        <path id="Trazado_816603" data-name="Trazado 816603" d="M43.382,44H42.306A4.306,4.306,0,0,0,38,48.306v1.076h4.306a1.076,1.076,0,0,0,1.076-1.076Z" transform="translate(2.75 3.283)" fill="#72a6e4"/>
        <path id="Trazado_816604" data-name="Trazado 816604" d="M38,15v1.076a4.306,4.306,0,0,0,4.306,4.306h1.076V16.076A1.076,1.076,0,0,0,42.306,15Z" transform="translate(2.75 1.068)" fill="#72a6e4"/>
        <path id="Trazado_816605" data-name="Trazado 816605" d="M26.382,15v1.076a4.306,4.306,0,0,1-4.306,4.306H21V16.076A1.076,1.076,0,0,1,22.076,15Z" transform="translate(1.451 1.068)" fill="#72a6e4"/>
        <circle id="Elipse_5783" data-name="Elipse 5783" cx="3.229" cy="3.229" r="3.229" transform="translate(42.902 60.2)" fill="#f2d891"/>
        <circle id="Elipse_5784" data-name="Elipse 5784" cx="3.229" cy="3.229" r="3.229" transform="translate(19.222 2.075)" fill="#d97777"/>
        <path id="Trazado_816606" data-name="Trazado 816606" d="M12.432,11.343,6.343,12.865l4.567,4.567Z" transform="translate(0.332 0.789)" fill="#f2d891"/>
        <path id="Trazado_816607" data-name="Trazado 816607" d="M52,53.089l6.089-1.522L53.522,47Z" transform="translate(3.819 3.512)" fill="#d97777"/>
        <path id="Trazado_816608" data-name="Trazado 816608" d="M44.968,14H23.44a2.155,2.155,0,0,0-2.153,2.153V25.49L13.738,35.87a7.583,7.583,0,0,0-1.311,3.043L9.547,54.272a1.166,1.166,0,0,1-.191.444l-6.214,10.4,1.848,1.1,6.186-10.353a3.22,3.22,0,0,0,.487-1.2l2.88-15.359a5.412,5.412,0,0,1,.937-2.173l5.808-7.986V41.986a1.077,1.077,0,0,0,.181.6l2.153,3.229a1.076,1.076,0,0,0,1.556.253l7.456-5.8a1.7,1.7,0,0,1,2.406.322,1.737,1.737,0,0,1-.289,2.347l-6.7,6.913a1.08,1.08,0,0,0-.216.325l-2.7,6.295a4.32,4.32,0,0,1-1.268,1.666L19.539,61.6a1.074,1.074,0,0,0-.349.5l-1.076,3.229,2.042.681.976-2.928,4.08-3.264a6.477,6.477,0,0,0,1.9-2.5l1.957-4.566h15.9A2.155,2.155,0,0,0,47.121,50.6V16.153A2.155,2.155,0,0,0,44.968,14ZM23.44,16.153H26.67a3.233,3.233,0,0,1-3.229,3.229ZM34.19,37.788a3.821,3.821,0,0,0-2.878.778l-.428.333a6.459,6.459,0,1,1,5.871.392,3.825,3.825,0,0,0-2.566-1.5ZM44.968,50.6H41.739a3.233,3.233,0,0,1,3.229-3.229Zm0-5.382A5.388,5.388,0,0,0,39.586,50.6H30.321l5.918-6.109a3.867,3.867,0,0,0,1.273-3.19,8.61,8.61,0,1,0-8.41-1.013L24.77,43.655,23.44,41.66V21.535a5.388,5.388,0,0,0,5.382-5.382H39.586a5.388,5.388,0,0,0,5.382,5.382Zm0-25.833a3.233,3.233,0,0,1-3.229-3.229h3.229Z" transform="translate(0.087 0.992)"/>
        <path id="Trazado_816609" data-name="Trazado 816609" d="M34,33.017V35.17a2.688,2.688,0,0,0,2.477-1.884h1.288V31.134H36.476A2.688,2.688,0,0,0,34,29.25a2.827,2.827,0,0,0-2.666,2.96c0,.462-.271.807-.513.807s-.513-.345-.513-.807.271-.807.513-.807V29.25a2.688,2.688,0,0,0-2.477,1.884H27v2.153h1.344A2.688,2.688,0,0,0,30.82,35.17a2.827,2.827,0,0,0,2.666-2.96c0-.462.271-.807.513-.807s.513.345.513.807S34.241,33.017,34,33.017Z" transform="translate(1.91 2.157)"/>
        <path id="Trazado_816610" data-name="Trazado 816610" d="M44.551,55a4.31,4.31,0,0,0-4.306,4.306c0,.036.01.069.011.1a30.452,30.452,0,0,1-16.9-.507l-.667,2.047a32.24,32.24,0,0,0,18.166.531A4.3,4.3,0,1,0,44.551,55Zm0,6.458A2.153,2.153,0,1,1,46.7,59.306a2.153,2.153,0,0,1-2.153,2.153Z" transform="translate(1.58 4.124)"/>
        <path id="Trazado_816611" data-name="Trazado 816611" d="M21.306,9.61A4.31,4.31,0,0,0,25.611,5.3c0-.036-.01-.07-.011-.106A30.11,30.11,0,0,1,58.235,51.03l-1.279-1.279a1.076,1.076,0,0,0-1.805.5L53.629,56.34a1.077,1.077,0,0,0,1.306,1.306l6.089-1.522a1.076,1.076,0,0,0,.5-1.805l-1.737-1.737A32.259,32.259,0,0,0,25,3.13a4.3,4.3,0,1,0-3.695,6.48ZM56.153,55.122l.626-2.5L58.657,54.5ZM21.306,3.152A2.153,2.153,0,1,1,19.153,5.3a2.153,2.153,0,0,1,2.153-2.153Z" transform="translate(1.146)"/>
        <path id="Trazado_816612" data-name="Trazado 816612" d="M7.356,51.471,9.15,50.282A30.09,30.09,0,0,1,9.2,16.991l1.279,1.279a1.076,1.076,0,0,0,1.805-.5l1.522-6.089A1.077,1.077,0,0,0,12.5,10.375L6.414,11.9a1.076,1.076,0,0,0-.5,1.805L7.651,15.44a32.245,32.245,0,0,0-.295,36.031ZM11.284,12.9l-.626,2.5L8.78,13.525Z" transform="translate(0 0.713)"/>
      </g>
      <g id="Grupo_1071127" data-name="Grupo 1071127" transform="translate(759.938 11632.496)">
        <g id="Grupo_1071125" data-name="Grupo 1071125" transform="translate(9.038 12.99)">
          <g id="Grupo_1071117" data-name="Grupo 1071117" transform="translate(0 20.699)">
            <g id="Grupo_1071100" data-name="Grupo 1071100" transform="translate(5.971 5.14)">
              <g id="Grupo_1071098" data-name="Grupo 1071098">
                <path id="Trazado_816613" data-name="Trazado 816613" d="M62.248,241.634h50v-3.8a25.006,25.006,0,0,0-50,0Z" transform="translate(-62.248 -213.235)" fill="#eceff1" fill-rule="evenodd"/>
              </g>
              <g id="Grupo_1071099" data-name="Grupo 1071099" transform="translate(0 0)">
                <path id="Trazado_816614" data-name="Trazado 816614" d="M62.248,241.634h1.364v-3.8a24.786,24.786,0,0,1,24.32-24.585q-.34-.009-.682-.009a24.8,24.8,0,0,0-25,24.595Z" transform="translate(-62.248 -213.235)" fill="#d1d1d6" fill-rule="evenodd"/>
              </g>
            </g>
            <g id="Grupo_1071116" data-name="Grupo 1071116">
              <g id="Grupo_1071101" data-name="Grupo 1071101" transform="translate(0.012 29.702)">
                <path id="Trazado_816615" data-name="Trazado 816615" d="M23.369,404.456h-.029l-7.277-.877Z" transform="translate(-16.064 -403.58)" fill="#6cf5c2" fill-rule="evenodd"/>
              </g>
              <g id="Grupo_1071102" data-name="Grupo 1071102" transform="translate(0 0)">
                <path id="Trazado_816616" data-name="Trazado 816616" d="M31.073,177.7a31.352,31.352,0,0,1,15.868-4.3,31.037,31.037,0,0,1,27.431,16.317l-6.292,3.7,6.3-3.684A29.918,29.918,0,0,1,77.9,203.1l-7.277.877L77.9,203.1c.036,1.445.01,2.909.01,4.356H70.593v-3.6A23.174,23.174,0,0,0,59.261,184l3.515-6.237L59.26,184a23.834,23.834,0,0,0-12.319-3.4,23.46,23.46,0,0,0-23.652,23.266v3.6H15.972v-3.6a29.932,29.932,0,0,1,3.538-14.148l6.279,3.726-6.279-3.726A30.7,30.7,0,0,1,31.073,177.7Z" transform="translate(-15.972 -173.398)" fill="#8ac9fe" fill-rule="evenodd"/>
              </g>
              <g id="Grupo_1071103" data-name="Grupo 1071103" transform="translate(15.1 4.3)">
                <path id="Trazado_816617" data-name="Trazado 816617" d="M132.994,206.721l3.55,6.3-1.775-3.149Z" transform="translate(-132.994 -206.721)" fill="#8ac9fe" fill-rule="evenodd"/>
              </g>
              <g id="Grupo_1071115" data-name="Grupo 1071115" transform="translate(0.009)">
                <g id="Grupo_1071105" data-name="Grupo 1071105" transform="translate(0 16.316)">
                  <g id="Grupo_1071104" data-name="Grupo 1071104">
                    <path id="Trazado_816618" data-name="Trazado 816618" d="M16.041,313.25a29.919,29.919,0,0,1,3.529-13.411l6.279,3.726a23.038,23.038,0,0,0-2.514,10.48Zm0,0,7.28.853Zm9.808-9.685-6.279-3.726Z" transform="translate(-16.041 -299.839)" fill="#6cf5c2" fill-rule="evenodd"/>
                  </g>
                </g>
                <g id="Grupo_1071106" data-name="Grupo 1071106" transform="translate(52.1 16.333)">
                  <path id="Trazado_816619" data-name="Trazado 816619" d="M422.348,314.237a23.212,23.212,0,0,0-2.552-10.563l6.3-3.7a29.965,29.965,0,0,1,3.528,13.385Z" transform="translate(-419.796 -299.974)" fill="#fd4755" fill-rule="evenodd"/>
                </g>
                <g id="Grupo_1071108" data-name="Grupo 1071108" transform="translate(43.28 4.301)">
                  <g id="Grupo_1071107" data-name="Grupo 1071107" transform="translate(0)">
                    <path id="Trazado_816620" data-name="Trazado 816620" d="M355,206.735l-3.556,6.3Zm11.556,12.013-6.29,3.7a23.521,23.521,0,0,0-8.821-9.421l3.55-6.3A30.826,30.826,0,0,1,366.558,218.748Z" transform="translate(-351.446 -206.732)" fill="#fe646f" fill-rule="evenodd"/>
                  </g>
                </g>
                <g id="Grupo_1071110" data-name="Grupo 1071110" transform="translate(30.96)">
                  <g id="Grupo_1071109" data-name="Grupo 1071109">
                    <path id="Trazado_816621" data-name="Trazado 816621" d="M268.291,184l3.551-6.3Zm0,0a23.834,23.834,0,0,0-12.319-3.4v-7.2h.037a31.2,31.2,0,0,1,15.834,4.3Z" transform="translate(-255.972 -173.398)" fill="#ffd064" fill-rule="evenodd"/>
                  </g>
                </g>
                <g id="Grupo_1071112" data-name="Grupo 1071112" transform="translate(15.091 0)">
                  <g id="Grupo_1071111" data-name="Grupo 1071111">
                    <path id="Trazado_816622" data-name="Trazado 816622" d="M132.994,177.7a31.352,31.352,0,0,1,15.868-4.3v7.2a23.877,23.877,0,0,0-12.318,3.4Zm0,0,3.55,6.3Z" transform="translate(-132.994 -173.398)" fill="#ffe177" fill-rule="evenodd"/>
                  </g>
                </g>
                <g id="Grupo_1071114" data-name="Grupo 1071114" transform="translate(3.529 4.3)">
                  <g id="Grupo_1071113" data-name="Grupo 1071113">
                    <path id="Trazado_816623" data-name="Trazado 816623" d="M58.5,213.022l-3.551-6.3Zm-3.551-6.3,3.551,6.3a23.7,23.7,0,0,0-8.834,9.442l-6.279-3.727,6.28,3.726-6.28-3.726a30.683,30.683,0,0,1,11.562-12.016Zm0,0h0Z" transform="translate(-43.391 -206.722)" fill="#00e499" fill-rule="evenodd"/>
                  </g>
                </g>
              </g>
            </g>
          </g>
          <g id="Grupo_1071120" data-name="Grupo 1071120" transform="translate(25.496 31.739)">
            <g id="Grupo_1071118" data-name="Grupo 1071118">
              <path id="Trazado_816624" data-name="Trazado 816624" d="M214.19,266.37a.627.627,0,0,1-.493-1.016l4.848-6.158a.628.628,0,0,1,.986,0l4.848,6.158a.627.627,0,0,1-.493,1.016h-2.013V281.98H216.2V266.37Z" transform="translate(-213.56 -258.957)" fill="#a79ba7" fill-rule="evenodd"/>
            </g>
            <g id="Grupo_1071119" data-name="Grupo 1071119" transform="translate(4.832)">
              <path id="Trazado_816625" data-name="Trazado 816625" d="M251.008,259.39l.152-.193a.628.628,0,0,1,.986,0l4.848,6.158a.627.627,0,0,1-.493,1.016h-1.29a.627.627,0,0,0,.493-1.016Zm3.48,6.981H253.2V281.98h1.29Z" transform="translate(-251.008 -258.957)" fill="#837683" fill-rule="evenodd"/>
            </g>
          </g>
          <g id="Grupo_1071123" data-name="Grupo 1071123" transform="translate(17.299 0)">
            <g id="Grupo_1071121" data-name="Grupo 1071121">
              <circle id="Elipse_5785" data-name="Elipse 5785" cx="9.836" cy="9.836" r="9.836" transform="translate(0 13.908) rotate(-45)" fill="#8ac9fe"/>
            </g>
            <g id="Grupo_1071122" data-name="Grupo 1071122" transform="translate(13.268 4.07)">
              <path id="Trazado_816626" data-name="Trazado 816626" d="M253.5,44.531c-.217,0-.432.008-.645.022a9.835,9.835,0,0,1,0,19.628c.213.014.428.022.645.022a9.836,9.836,0,0,0,0-19.671Z" transform="translate(-252.856 -44.531)" fill="#60b7ff" fill-rule="evenodd"/>
            </g>
          </g>
          <g id="Grupo_1071124" data-name="Grupo 1071124" transform="translate(24.995 9.199)">
            <path id="Trazado_816627" data-name="Trazado 816627" d="M210.179,87.785a1.74,1.74,0,0,1,2.454,0l1.758,1.758,4.757-4.757a1.735,1.735,0,0,1,2.454,2.454l-5.95,5.95a1.9,1.9,0,0,1-2.774-.252l-2.7-2.7A1.74,1.74,0,0,1,210.179,87.785Z" transform="translate(-209.672 -84.281)" fill="#eceff1" fill-rule="evenodd"/>
          </g>
        </g>
        <g id="Grupo_1071126" data-name="Grupo 1071126" transform="translate(8.011 16.027)">
          <path id="Trazado_816628" data-name="Trazado 816628" d="M35.269,47.915l2.7,2.7c.183.183.822.745,1.314.252l5.95-5.95a.7.7,0,1,0-.993-.994L39.482,48.68a1.034,1.034,0,0,1-1.461,0l-1.757-1.759a.7.7,0,1,0-.995.993Zm1.24,4.159-2.7-2.7a2.767,2.767,0,1,1,3.914-3.914l1.028,1.028,4.027-4.027a2.767,2.767,0,0,1,3.914,3.914l-5.95,5.95a2.655,2.655,0,0,1-1.9.8A3.334,3.334,0,0,1,36.509,52.074ZM13.99,70.138,18.472,72.8a24.63,24.63,0,0,1,7.846-8.351L23.773,59.93A29.9,29.9,0,0,0,13.99,70.138ZM31.448,47.394a8.8,8.8,0,1,1,8.8,8.8,8.813,8.813,0,0,1-8.8-8.8Zm24.8,12.546-2.54,4.5a24.626,24.626,0,0,1,7.833,8.332l4.476-2.632a30.032,30.032,0,0,0-9.768-10.2ZM64.7,87.217h5.254V85.051l-5.254.633Zm5.2-4.239-5.223.63a23.865,23.865,0,0,0-2.183-9l4.5-2.647A28.858,28.858,0,0,1,69.9,82.979ZM41.044,58.229v2.146a24.814,24.814,0,0,1,10.893,3.006l2.533-4.493A29.769,29.769,0,0,0,46.878,56a10.812,10.812,0,0,1-5.834,2.231Zm-7.526-2.315a10.8,10.8,0,0,0,5.462,2.27v2.191a24.791,24.791,0,0,0-10.892,3.006l-2.537-4.5a29.929,29.929,0,0,1,7.967-2.965ZM17.524,74.635a23.852,23.852,0,0,0-2.172,8.973l-5.226-.631A28.855,28.855,0,0,1,13.02,71.963ZM10.075,87.217h5.253V85.685l-5.253-.633Zm33.8,0V73.672h.98a1.659,1.659,0,0,0,1.3-2.687l-4.848-6.159a1.661,1.661,0,0,0-2.609,0L33.86,70.985a1.66,1.66,0,0,0,1.3,2.688h.98V87.217H17.393V84.651a22.623,22.623,0,0,1,45.238,0v2.567H43.88ZM38.209,72.64V87.217h3.606V72.64a1.032,1.032,0,0,1,1.032-1.032h1.18l-4.014-5.1L36,71.608h1.18A1.032,1.032,0,0,1,38.209,72.64Zm33.8,12.011v3.6a1.033,1.033,0,0,1-1.033,1.032H9.043A1.032,1.032,0,0,1,8.011,88.25v-3.6A31.241,31.241,0,0,1,15.328,64.6a32.188,32.188,0,0,1,16.463-10.4,10.867,10.867,0,1,1,16.836.1A32.189,32.189,0,0,1,64.819,64.755a31.237,31.237,0,0,1,7.191,19.9ZM55.4,92.134a1.033,1.033,0,0,1-1.033,1.032H25.657a1.032,1.032,0,1,1,0-2.065H54.367A1.032,1.032,0,0,1,55.4,92.134Z" transform="translate(-8.011 -36.525)" fill="#242222" fill-rule="evenodd"/>
        </g>
      </g>
    </g>
  </g>
</svg>
