<svg xmlns="http://www.w3.org/2000/svg" xmlns:xlink="http://www.w3.org/1999/xlink" width="302" height="264" viewBox="0 0 302 264">
  <defs>
    <clipPath id="clip-path">
      <rect id="Rectángulo_377192" data-name="Rectángulo 377192" width="302" height="264" transform="translate(-3.164 -7.246)" fill="#fff" stroke="#707070" stroke-width="1"/>
    </clipPath>
    <clipPath id="clip-path-2">
      <rect id="Rectángulo_375539" data-name="Rectángulo 375539" width="291.686" height="259.352" fill="none"/>
    </clipPath>
    <clipPath id="clip-path-6">
      <rect id="Rectángulo_375521" data-name="Rectángulo 375521" width="12.374" height="13.344" fill="none"/>
    </clipPath>
    <clipPath id="clip-path-7">
      <rect id="Rectángulo_375522" data-name="Rectángulo 375522" width="5.713" height="6.67" fill="#632059"/>
    </clipPath>
    <clipPath id="clip-path-8">
      <rect id="Rectángulo_375523" data-name="Rectángulo 375523" width="6.878" height="6.67" fill="none"/>
    </clipPath>
    <clipPath id="clip-path-9">
      <rect id="Rectángulo_375524" data-name="Rectángulo 375524" width="8.837" height="5.441" fill="none"/>
    </clipPath>
    <clipPath id="clip-path-10">
      <rect id="Rectángulo_375525" data-name="Rectángulo 375525" width="6.323" height="25.199" fill="none"/>
    </clipPath>
    <clipPath id="clip-path-11">
      <rect id="Rectángulo_375526" data-name="Rectángulo 375526" width="7.764" height="8.695" fill="none"/>
    </clipPath>
    <clipPath id="clip-path-12">
      <rect id="Rectángulo_375527" data-name="Rectángulo 375527" width="5.555" height="43.444" fill="none"/>
    </clipPath>
    <clipPath id="clip-path-14">
      <rect id="Rectángulo_375531" data-name="Rectángulo 375531" width="93.37" height="45.274" fill="none"/>
    </clipPath>
    <clipPath id="clip-path-16">
      <rect id="Rectángulo_375533" data-name="Rectángulo 375533" width="2.43" height="9.771" fill="none"/>
    </clipPath>
    <clipPath id="clip-path-17">
      <rect id="Rectángulo_375534" data-name="Rectángulo 375534" width="5.358" height="16.774" fill="none"/>
    </clipPath>
    <clipPath id="clip-path-18">
      <rect id="Rectángulo_375535" data-name="Rectángulo 375535" width="33.104" height="18.452" fill="none"/>
    </clipPath>
    <clipPath id="clip-path-19">
      <rect id="Rectángulo_375536" data-name="Rectángulo 375536" width="15.3" height="7.61" fill="none"/>
    </clipPath>
  </defs>
  <g id="Grupo_1070252" data-name="Grupo 1070252" transform="translate(3.164 7.246)">
    <g id="Enmascarar_grupo_89" data-name="Enmascarar grupo 89" clip-path="url(#clip-path)">
      <g id="Grupo_1070251" data-name="Grupo 1070251" transform="translate(0 -4)" clip-path="url(#clip-path-2)">
        <rect id="Rectángulo_375490" data-name="Rectángulo 375490" width="134.864" height="46.972" transform="translate(24.484)" fill="#f0f0f0"/>
        <rect id="Rectángulo_375491" data-name="Rectángulo 375491" width="129.734" height="41.842" transform="translate(27.049 2.565)" fill="#e6e6e6"/>
        <rect id="Rectángulo_375492" data-name="Rectángulo 375492" width="2.565" height="45.917" transform="translate(68.553 0.528)" fill="#f0f0f0"/>
        <rect id="Rectángulo_375493" data-name="Rectángulo 375493" width="14.208" height="41.842" transform="translate(54.345 2.566)" fill="#e0e0e0"/>
        <rect id="Rectángulo_375494" data-name="Rectángulo 375494" width="14.208" height="41.842" transform="translate(98.406 2.566)" fill="#e0e0e0"/>
        <rect id="Rectángulo_375495" data-name="Rectángulo 375495" width="14.208" height="41.842" transform="translate(142.576 2.566)" fill="#e0e0e0"/>
        <rect id="Rectángulo_375496" data-name="Rectángulo 375496" width="2.565" height="45.917" transform="translate(112.621 0.528)" fill="#f0f0f0"/>
        <rect id="Rectángulo_375497" data-name="Rectángulo 375497" width="12.769" height="46.972" transform="translate(11.715)" fill="#e6e6e6"/>
        <path id="Trazado_814779" data-name="Trazado 814779" d="M71.635,47.282H47.988L53.542,11.6H77.189Z" transform="translate(-11.891 -2.874)" fill="#ebebeb"/>
        <path id="Trazado_814780" data-name="Trazado 814780" d="M133.082,47.282H109.434l4.1-35.682h23.648Z" transform="translate(-27.118 -2.874)" fill="#f5f5f5"/>
        <path id="Trazado_814781" data-name="Trazado 814781" d="M118.759,48.344H97.249L106.3,15.887h21.511Z" transform="translate(-24.099 -3.937)" fill="#e0e0e0"/>
        <rect id="Rectángulo_375498" data-name="Rectángulo 375498" width="23.648" height="38.564" transform="translate(27.049 5.844)" fill="#f5f5f5"/>
        <rect id="Rectángulo_375499" data-name="Rectángulo 375499" width="23.648" height="38.564" transform="translate(127.949 5.844)" fill="#f5f5f5"/>
        <path id="Trazado_814782" data-name="Trazado 814782" d="M173.24,48.344H154.915l6.37-32.457H179.61Z" transform="translate(-38.388 -3.937)" fill="#e0e0e0"/>
        <path id="Trazado_814783" data-name="Trazado 814783" d="M163.679,49.121H153.133v-30.1h20.618Z" transform="translate(-37.947 -4.714)" fill="#f5f5f5"/>
        <rect id="Rectángulo_375500" data-name="Rectángulo 375500" width="5.387" height="38.564" transform="translate(146.209 5.844)" fill="#fafafa"/>
        <g id="Grupo_1070203" data-name="Grupo 1070203">
          <g id="Grupo_1070202" data-name="Grupo 1070202" clip-path="url(#clip-path-2)">
            <path id="Trazado_814784" data-name="Trazado 814784" d="M58.107,44.4h0a.712.712,0,0,1-.712-.712V12.311a.712.712,0,0,1,1.425,0V43.687a.712.712,0,0,1-.712.712" transform="translate(-14.223 -2.874)" fill="#f0f0f0"/>
            <rect id="Rectángulo_375501" data-name="Rectángulo 375501" width="134.864" height="46.972" transform="translate(68.647 46.972)" fill="#f0f0f0"/>
            <rect id="Rectángulo_375502" data-name="Rectángulo 375502" width="129.734" height="41.842" transform="translate(71.212 49.537)" fill="#e6e6e6"/>
            <rect id="Rectángulo_375503" data-name="Rectángulo 375503" width="2.565" height="45.918" transform="translate(112.715 47.5)" fill="#f0f0f0"/>
            <rect id="Rectángulo_375504" data-name="Rectángulo 375504" width="14.208" height="41.842" transform="translate(98.508 49.537)" fill="#e0e0e0"/>
            <rect id="Rectángulo_375505" data-name="Rectángulo 375505" width="14.208" height="41.842" transform="translate(142.568 49.537)" fill="#e0e0e0"/>
            <rect id="Rectángulo_375506" data-name="Rectángulo 375506" width="14.208" height="41.842" transform="translate(186.738 49.537)" fill="#e0e0e0"/>
            <rect id="Rectángulo_375507" data-name="Rectángulo 375507" width="2.565" height="45.918" transform="translate(156.783 47.5)" fill="#f0f0f0"/>
            <rect id="Rectángulo_375508" data-name="Rectángulo 375508" width="12.769" height="46.972" transform="translate(55.878 46.972)" fill="#e6e6e6"/>
            <path id="Trazado_814785" data-name="Trazado 814785" d="M188.808,109.728H165.16l5.554-35.682h23.648Z" transform="translate(-40.927 -18.349)" fill="#ebebeb"/>
            <path id="Trazado_814786" data-name="Trazado 814786" d="M250.507,109.728H226.859l4.1-35.682h23.648Z" transform="translate(-56.216 -18.349)" fill="#f5f5f5"/>
            <path id="Trazado_814787" data-name="Trazado 814787" d="M236.185,110.791H214.674l9.051-32.457h21.511Z" transform="translate(-53.197 -19.411)" fill="#e0e0e0"/>
            <rect id="Rectángulo_375509" data-name="Rectángulo 375509" width="23.648" height="38.564" transform="translate(115.186 52.816)" fill="#f5f5f5"/>
            <rect id="Rectángulo_375510" data-name="Rectángulo 375510" width="23.648" height="38.564" transform="translate(83.974 52.816)" fill="#f5f5f5"/>
            <path id="Trazado_814788" data-name="Trazado 814788" d="M114.779,110.791H96.453l6.37-32.457h18.325Z" transform="translate(-23.901 -19.411)" fill="#e0e0e0"/>
            <path id="Trazado_814789" data-name="Trazado 814789" d="M105.217,111.568H94.672v-30.1H115.29Z" transform="translate(-23.46 -20.188)" fill="#f5f5f5"/>
            <rect id="Rectángulo_375511" data-name="Rectángulo 375511" width="5.387" height="38.564" transform="translate(102.234 52.816)" fill="#fafafa"/>
            <path id="Trazado_814790" data-name="Trazado 814790" d="M175.28,106.846h0a.712.712,0,0,1-.712-.712V74.758a.712.712,0,0,1,1.425,0v31.376a.712.712,0,0,1-.712.712" transform="translate(-43.258 -18.349)" fill="#f0f0f0"/>
            <path id="Trazado_814791" data-name="Trazado 814791" d="M224.647,35.448v9.579a10.73,10.73,0,0,0,21.459,0V35.448Z" transform="translate(-55.668 -8.784)" fill="#ebebeb"/>
            <rect id="Rectángulo_375512" data-name="Rectángulo 375512" width="67.06" height="7.815" transform="translate(34.608 153.909)" fill="#e6e6e6"/>
            <rect id="Rectángulo_375513" data-name="Rectángulo 375513" width="62.605" height="51.186" transform="translate(39.062 161.725)" fill="#ebebeb"/>
            <rect id="Rectángulo_375514" data-name="Rectángulo 375514" width="150.955" height="51.186" transform="translate(101.668 161.725)" fill="#f5f5f5"/>
            <rect id="Rectángulo_375515" data-name="Rectángulo 375515" width="213.56" height="2.891" transform="translate(39.062 161.724)" fill="#e0e0e0"/>
            <rect id="Rectángulo_375516" data-name="Rectángulo 375516" width="155.409" height="7.815" transform="translate(101.668 153.909)" fill="#f0f0f0"/>
            <path id="Trazado_814792" data-name="Trazado 814792" d="M51.931,283.051v12.471L64.4,283.051Z" transform="translate(-12.869 -70.141)" fill="#ebebeb"/>
            <path id="Trazado_814793" data-name="Trazado 814793" d="M135.161,283.051v12.471l12.471-12.471Z" transform="translate(-33.493 -70.141)" fill="#f5f5f5"/>
            <path id="Trazado_814794" data-name="Trazado 814794" d="M331.738,283.051v12.471l-12.471-12.471Z" transform="translate(-79.115 -70.141)" fill="#f5f5f5"/>
            <path id="Trazado_814795" data-name="Trazado 814795" d="M131.053,283.051v12.471l-12.471-12.471Z" transform="translate(-29.385 -70.141)" fill="#ebebeb"/>
            <path id="Trazado_814796" data-name="Trazado 814796" d="M248.508,283.051v12.471l-12.471-12.471Z" transform="translate(-58.491 -70.141)" fill="#e0e0e0"/>
            <path id="Trazado_814797" data-name="Trazado 814797" d="M252.617,283.051v12.471l12.471-12.471Z" transform="translate(-62.599 -70.141)" fill="#e0e0e0"/>
            <path id="Trazado_814798" data-name="Trazado 814798" d="M180.763,167.758l-4.552,25.826H156.53l-.706,1.9h65.613l4.886-27.722Z" transform="translate(-38.613 -41.571)" fill="#e0e0e0"/>
            <rect id="Rectángulo_375517" data-name="Rectángulo 375517" width="53.229" height="88.007" transform="translate(225.195 14.918)" fill="#e0e0e0"/>
            <rect id="Rectángulo_375518" data-name="Rectángulo 375518" width="53.229" height="88.007" transform="translate(226.821 14.918)" fill="#f0f0f0"/>
            <path id="Trazado_814799" data-name="Trazado 814799" d="M335.587,90.568h-4.752l4.415-36.489H340Z" transform="translate(-81.982 -13.401)" fill="#fafafa"/>
            <path id="Trazado_814800" data-name="Trazado 814800" d="M352.3,90.568H347.55l4.415-36.489h4.752Z" transform="translate(-86.124 -13.401)" fill="#fafafa"/>
            <path id="Trazado_814801" data-name="Trazado 814801" d="M318.871,90.568h-4.752l4.415-36.489h4.752Z" transform="translate(-77.839 -13.401)" fill="#fafafa"/>
          </g>
        </g>
        <g id="Grupo_1070205" data-name="Grupo 1070205">
          <g id="Grupo_1070204" data-name="Grupo 1070204" clip-path="url(#clip-path-2)">
            <path id="Trazado_814802" data-name="Trazado 814802" d="M291.686,330.664c0,4.7-65.3,8.517-145.843,8.517S0,335.368,0,330.664s65.3-8.517,145.843-8.517,145.843,3.814,145.843,8.517" transform="translate(0 -79.829)" fill="#f5f5f5"/>
          </g>
        </g>
        <path id="Trazado_814803" data-name="Trazado 814803" d="M92.47,319.855h5.588l.239-12.941H92.709Z" transform="translate(-22.914 -76.054)" fill="#b55b52"/>
        <path id="Trazado_814804" data-name="Trazado 814804" d="M47.864,319.855h5.588l2.492-12.941H50.356Z" transform="translate(-11.861 -76.054)" fill="#b55b52"/>
        <g id="Grupo_1070228" data-name="Grupo 1070228">
          <g id="Grupo_1070227" data-name="Grupo 1070227" clip-path="url(#clip-path-2)">
            <path id="Trazado_814805" data-name="Trazado 814805" d="M53.25,323.258H46.972a.472.472,0,0,0-.466.381l-.982,4.967a.844.844,0,0,0,.842.994c2.191-.038,3.252-.166,6.014-.166,1.7,0,5.2.177,7.548.177,2.294,0,2.6-2.32,1.63-2.53-4.329-.942-5.983-2.241-7.392-3.48a1.387,1.387,0,0,0-.915-.344" transform="translate(-11.277 -80.104)" fill="#263238"/>
            <path id="Trazado_814806" data-name="Trazado 814806" d="M97.336,323.258h-6.1a.472.472,0,0,0-.466.381l-.982,4.967a.835.835,0,0,0,.828.994c2.2-.037,5.379-.166,8.146-.166,3.235,0,3.574.177,7.368.177,2.294,0,2.873-2.32,1.908-2.53-4.4-.956-5.507-1.059-9.342-3.388a2.639,2.639,0,0,0-1.357-.436" transform="translate(-22.245 -80.104)" fill="#263238"/>
            <path id="Trazado_814807" data-name="Trazado 814807" d="M97.9,88.334l7.626-2.446s7.879,18.251,10.519,19.384c3.592,1.541,8.61,6.418,12.172,9.387a8.158,8.158,0,0,1-.882,4.067c-6.438-1.534-14.451-5.19-17.08-7.623C104.259,105.557,97.9,88.334,97.9,88.334" transform="translate(-24.26 -21.283)" fill="#b55b52"/>
            <path id="Trazado_814808" data-name="Trazado 814808" d="M95.415,82.363c-2.145,4.893,6.464,20.417,6.464,20.417l11.4-5.279a70.721,70.721,0,0,0-5.652-13.645c-3.582-6.224-9.859-6.862-12.213-1.493" transform="translate(-23.559 -19.508)" fill="#b7a0b4"/>
            <g id="Grupo_1070208" data-name="Grupo 1070208" transform="translate(72.457 69.926)" opacity="0.2">
              <g id="Grupo_1070207" data-name="Grupo 1070207">
                <g id="Grupo_1070206" data-name="Grupo 1070206" clip-path="url(#clip-path-6)">
                  <path id="Trazado_814809" data-name="Trazado 814809" d="M106.451,97.55c-2.49-3.438-6.529-4.408-10.125-4.588a82.707,82.707,0,0,0,5.867,13.344l6.507-3.016a11.6,11.6,0,0,0-2.249-5.739" transform="translate(-96.326 -92.962)"/>
                </g>
              </g>
            </g>
            <path id="Trazado_814810" data-name="Trazado 814810" d="M136.7,123.423l6.644,1.062-1.72,7.015a24.8,24.8,0,0,1-6.4-3.983Z" transform="translate(-33.508 -30.585)" fill="#b55b52"/>
            <path id="Trazado_814811" data-name="Trazado 814811" d="M151.215,127.8l-2.427,3.87-5.053.18,1.72-7.016Z" transform="translate(-35.618 -30.934)" fill="#b55b52"/>
            <g id="Grupo_1070211" data-name="Grupo 1070211" transform="translate(69.669 230.863)" opacity="0.2">
              <g id="Grupo_1070210" data-name="Grupo 1070210">
                <g id="Grupo_1070209" data-name="Grupo 1070209" clip-path="url(#clip-path-7)">
                  <path id="Trazado_814812" data-name="Trazado 814812" d="M98.334,306.919l-.123,6.67h-5.59l.123-6.67Z" transform="translate(-92.621 -306.919)" fill="#632059"/>
                </g>
              </g>
            </g>
            <g id="Grupo_1070214" data-name="Grupo 1070214" transform="translate(37.206 230.863)" opacity="0.2">
              <g id="Grupo_1070213" data-name="Grupo 1070213">
                <g id="Grupo_1070212" data-name="Grupo 1070212" clip-path="url(#clip-path-8)">
                  <path id="Trazado_814813" data-name="Trazado 814813" d="M50.75,306.919h5.59l-1.287,6.67h-5.59Z" transform="translate(-49.463 -306.919)"/>
                </g>
              </g>
            </g>
            <path id="Trazado_814814" data-name="Trazado 814814" d="M94.919,78.773S101.1,96.3,96.434,129.4H66.545c-.318-4.588,2.016-29.3-2.94-50.917a77.22,77.22,0,0,1,9.975-1.264,109.9,109.9,0,0,1,12.705,0,56.849,56.849,0,0,1,8.634,1.551" transform="translate(-15.761 -19.089)" fill="#b7a0b4"/>
            <g id="Grupo_1070217" data-name="Grupo 1070217" transform="translate(56.862 74.857)" opacity="0.2">
              <g id="Grupo_1070216" data-name="Grupo 1070216">
                <g id="Grupo_1070215" data-name="Grupo 1070215" clip-path="url(#clip-path-9)">
                  <path id="Trazado_814815" data-name="Trazado 814815" d="M84.432,104.96H75.8l-.2-5.441H84.23Z" transform="translate(-75.595 -99.518)"/>
                </g>
              </g>
            </g>
            <path id="Trazado_814816" data-name="Trazado 814816" d="M84.633,104.742H76l-.4-5.223h8.636Z" transform="translate(-18.733 -24.661)" fill="#fff"/>
            <path id="Trazado_814817" data-name="Trazado 814817" d="M79.214,103.033H76.856l-.182-2.358h2.358Z" transform="translate(-19 -24.947)" fill="#3b5620"/>
            <path id="Trazado_814818" data-name="Trazado 814818" d="M85.021,102.038H80.779l-.036-.472h4.242Z" transform="translate(-20.008 -25.168)" fill="#e0e0e0"/>
            <path id="Trazado_814819" data-name="Trazado 814819" d="M84.221,103.255H80.873l-.037-.472h3.349Z" transform="translate(-20.031 -25.47)" fill="#e0e0e0"/>
            <path id="Trazado_814820" data-name="Trazado 814820" d="M79.369,105.047H77.011l-.037-.472h2.359Z" transform="translate(-19.074 -25.914)" fill="#e0e0e0"/>
            <path id="Trazado_814821" data-name="Trazado 814821" d="M81.011,105.047h4.242l-.037-.472H80.975Z" transform="translate(-20.066 -25.914)" fill="#e0e0e0"/>
            <path id="Trazado_814822" data-name="Trazado 814822" d="M81.256,100.17H81.23a.5.5,0,0,1-.489-.454l-.08-1.034a.414.414,0,0,1,.419-.454h.026a.5.5,0,0,1,.49.454l.08,1.034a.415.415,0,0,1-.42.454" transform="translate(-19.988 -24.341)" fill="#263238"/>
            <g id="Grupo_1070220" data-name="Grupo 1070220" transform="translate(48.311 61.441)" opacity="0.2">
              <g id="Grupo_1070219" data-name="Grupo 1070219">
                <g id="Grupo_1070218" data-name="Grupo 1070218" clip-path="url(#clip-path-10)">
                  <path id="Trazado_814823" data-name="Trazado 814823" d="M70.383,84.973c.585,3.557-.329,12.071-3.476,21.907a143.177,143.177,0,0,0-2.68-25.094v-.042c1.965-.2,5.6-.106,6.157,3.229" transform="translate(-64.226 -81.682)"/>
                </g>
              </g>
            </g>
            <path id="Trazado_814824" data-name="Trazado 814824" d="M78.236,61.485c.9,4.088,1.424,9.155-1.369,11.883,0,0,1.744,4.147,9.341,4.147,6.941,0,3.365-4.147,3.365-4.147-4.585-1.088-4.486-6.726-3.77-9.9Z" transform="translate(-19.048 -15.236)" fill="#b55b52"/>
            <path id="Trazado_814825" data-name="Trazado 814825" d="M88.518,81.824l2.193,2.426a.015.015,0,0,1,0,.016l-.557,1.7a.709.709,0,0,1-.641.487l-1.471.071a.726.726,0,0,1-.635-.317l-1.2-1.759Z" transform="translate(-21.364 -20.276)" fill="#1b3f5e"/>
            <path id="Trazado_814826" data-name="Trazado 814826" d="M85.549,80.154a38.183,38.183,0,0,0-2.522,4.706s-9.11-3.222-8.786-8.139a23.257,23.257,0,0,0,2.852-1.636s.4,3.1,8.456,5.069" transform="translate(-18.395 -18.606)" fill="#fff"/>
            <path id="Trazado_814827" data-name="Trazado 814827" d="M89.277,80.444a18.951,18.951,0,0,1,2.832,4.362,7.644,7.644,0,0,0,1.956-7.777,16.487,16.487,0,0,0-2.455-.775,3.668,3.668,0,0,1-2.333,4.19" transform="translate(-22.123 -18.896)" fill="#fff"/>
            <path id="Trazado_814828" data-name="Trazado 814828" d="M89.918,86.855c.224-.09,3.959,18.973,4.491,23.645,1.088,6.221-1.841,13.088-1.844,13.072a48.307,48.307,0,0,1-2.685-13.4c-.43-7.944-.618-18.742-1.343-23.3.287-.006,1.1-.011,1.382-.017" transform="translate(-21.939 -21.523)" fill="#1b3f5e"/>
            <g id="Grupo_1070223" data-name="Grupo 1070223" transform="translate(59.19 46.25)" opacity="0.2">
              <g id="Grupo_1070222" data-name="Grupo 1070222">
                <g id="Grupo_1070221" data-name="Grupo 1070221" clip-path="url(#clip-path-11)">
                  <path id="Trazado_814829" data-name="Trazado 814829" d="M86.258,63.469a12.255,12.255,0,0,0,.195,6.713,7.435,7.435,0,0,1-2.051-.625c-2.6-1.213-3.914-3.119-5.3-5.949-.117-.725-.257-1.435-.41-2.12Z" transform="translate(-78.689 -61.486)"/>
                </g>
              </g>
            </g>
            <path id="Trazado_814830" data-name="Trazado 814830" d="M90.849,45.012l2.071,6.644a4.031,4.031,0,0,0-2.071-6.644" transform="translate(-22.513 -11.154)" fill="#263238"/>
            <path id="Trazado_814831" data-name="Trazado 814831" d="M74,51.657c1.616,5.359,2.293,8.572,5.663,10.77,5.07,3.307,11.1-.621,11.1-6.321,0-5.13-2.645-13.032-8.41-14.051A7.393,7.393,0,0,0,74,51.657" transform="translate(-18.253 -10.391)" fill="#b55b52"/>
            <path id="Trazado_814832" data-name="Trazado 814832" d="M74.54,54.629c1.5-.982,2.13-6.048.752-7.778,4.827-.226,7.208-1.855,7.334-2.733,1.692.752,5.924,1.034,5.391-1.1a4.709,4.709,0,0,0-3.761-3.354c-1.662-1.755-5.83-3.228-8.776-.846-5.14-.031-7.866,4.137-6.425,5.767a4.031,4.031,0,0,0,0,6.959c-1.379,2.067,4.576,6.7,5.485,3.081" transform="translate(-16.617 -9.313)" fill="#263238"/>
            <path id="Trazado_814833" data-name="Trazado 814833" d="M72.511,62.167a5.361,5.361,0,0,0,3.726,1.591c1.842.009,2.236-1.768,1.283-3.263-.858-1.345-2.851-2.97-4.488-2.262a2.367,2.367,0,0,0-.521,3.934" transform="translate(-17.767 -14.388)" fill="#b55b52"/>
            <path id="Trazado_814834" data-name="Trazado 814834" d="M81.133,146.653s.595,7.025,1.35,16.551c.862,10.792,1.922,24.8,2.555,35.48,0,.054.008.1.008.145.122,2.029.229,3.928.313,5.667.846,17.413,2.593,68.087,2.593,68.087h9.466s4.767-51.712,4.965-69.438c.19-17.039-1.6-56.494-1.6-56.494Z" transform="translate(-20.105 -36.341)" fill="#1b3f5e"/>
            <path id="Trazado_814835" data-name="Trazado 814835" d="M89.267,310.088c-.044,0,.076,3.093.076,3.093h10.911l.374-3.474Z" transform="translate(-22.118 -76.746)" fill="#632059"/>
            <g id="Grupo_1070226" data-name="Grupo 1070226" transform="translate(62.378 119.045)" opacity="0.2">
              <g id="Grupo_1070225" data-name="Grupo 1070225">
                <g id="Grupo_1070224" data-name="Grupo 1070224" clip-path="url(#clip-path-12)">
                  <path id="Trazado_814836" data-name="Trazado 814836" d="M82.927,166.081c.862,10.793,1.922,24.8,2.555,35.481,0,.053.008.1.008.145,2.318-10.122,3.257-22.714,2.929-43.444Z" transform="translate(-82.927 -158.263)"/>
                </g>
              </g>
            </g>
            <path id="Trazado_814837" data-name="Trazado 814837" d="M81.645,146.653s-5.295,40.378-8.384,56.377c-3.383,17.52-16.317,69.553-16.317,69.553H46.709s8.076-50.618,9.826-67.964c1.9-18.828,5.824-57.966,5.824-57.966Z" transform="translate(-11.575 -36.341)" fill="#1b3f5e"/>
            <path id="Trazado_814838" data-name="Trazado 814838" d="M46.477,310.384c-.044,0-.44,2.861-.44,2.861h11.25l.915-3.284Z" transform="translate(-11.408 -76.809)" fill="#632059"/>
            <path id="Trazado_814839" data-name="Trazado 814839" d="M85.4,54.223c.1.442.421.75.707.688s.432-.471.327-.913-.421-.75-.707-.688-.432.471-.327.913" transform="translate(-21.155 -13.208)" fill="#263238"/>
            <path id="Trazado_814840" data-name="Trazado 814840" d="M91.969,52.795c.1.442.421.75.707.688s.432-.471.327-.913-.421-.75-.707-.688-.432.471-.327.913" transform="translate(-22.782 -12.854)" fill="#263238"/>
            <path id="Trazado_814841" data-name="Trazado 814841" d="M89.962,53.844a16.707,16.707,0,0,0,2.982,3.328,2.522,2.522,0,0,1-1.993.851Z" transform="translate(-22.293 -13.343)" fill="#a02724"/>
            <path id="Trazado_814842" data-name="Trazado 814842" d="M89.041,61.366a.129.129,0,0,0,.093-.161.136.136,0,0,0-.162-.1,3.6,3.6,0,0,1-3.167-.66.131.131,0,0,0-.187.007.133.133,0,0,0,.011.187,3.817,3.817,0,0,0,3.412.724" transform="translate(-21.208 -14.97)" fill="#263238"/>
            <path id="Trazado_814843" data-name="Trazado 814843" d="M82.821,52.187a.253.253,0,0,0,.18-.147,2.037,2.037,0,0,1,1.439-1.225.259.259,0,0,0,.217-.3.27.27,0,0,0-.3-.226,2.532,2.532,0,0,0-1.835,1.526.271.271,0,0,0,.135.353.262.262,0,0,0,.168.019" transform="translate(-20.443 -12.461)" fill="#263238"/>
            <path id="Trazado_814844" data-name="Trazado 814844" d="M93.6,49.652a.245.245,0,0,0,.1-.058.265.265,0,0,0,.013-.375,2.659,2.659,0,0,0-2.248-.921.257.257,0,0,0-.214.3.272.272,0,0,0,.3.223,2.125,2.125,0,0,1,1.774.748.267.267,0,0,0,.27.079" transform="translate(-22.61 -11.965)" fill="#263238"/>
            <path id="Trazado_814845" data-name="Trazado 814845" d="M57,87.4l7.548,3.116s-5.554,16.02-5.961,18.568c3.05,1.128,6.394,5.664,10.457,8.625-.1.921-1.868,3.174-2.574,3.665-6.062-2.942-15.355-7.013-15.822-10.494C49.582,102.948,57,87.4,57,87.4" transform="translate(-12.525 -21.659)" fill="#b55b52"/>
            <path id="Trazado_814846" data-name="Trazado 814846" d="M72.146,127.264l6.291.023-1.8,6.194a9.448,9.448,0,0,1-6.187-3.081Z" transform="translate(-17.458 -31.536)" fill="#b55b52"/>
            <path id="Trazado_814847" data-name="Trazado 814847" d="M84.244,128.49l-1.909,5.524-3.659-.527,1.8-6.194Z" transform="translate(-19.496 -31.544)" fill="#b55b52"/>
            <path id="Trazado_814848" data-name="Trazado 814848" d="M60.024,78.928c-5.268.769-10.875,19.089-10.875,19.089l12.135,4.594a108.981,108.981,0,0,0,6.053-13.506c2.361-6.78-1.663-11-7.314-10.177" transform="translate(-12.179 -19.533)" fill="#b7a0b4"/>
            <path id="Trazado_814849" data-name="Trazado 814849" d="M57.771,324.089a1.663,1.663,0,0,0,1.069-.284.78.78,0,0,0,.256-.7.433.433,0,0,0-.236-.375c-.619-.316-2.4.791-2.6.918a.133.133,0,0,0-.057.134.137.137,0,0,0,.1.107,6.623,6.623,0,0,0,1.467.2m.8-1.156a.387.387,0,0,1,.172.033.167.167,0,0,1,.087.155.525.525,0,0,1-.168.481,2.669,2.669,0,0,1-1.981.1,5.209,5.209,0,0,1,1.89-.769" transform="translate(-13.926 -79.959)" fill="#407bff"/>
            <path id="Trazado_814850" data-name="Trazado 814850" d="M56.335,323.46a.13.13,0,0,0,.062-.016c.571-.314,1.659-1.538,1.525-2.162a.444.444,0,0,0-.43-.347.708.708,0,0,0-.56.17c-.636.53-.73,2.143-.733,2.211a.138.138,0,0,0,.135.143m1.072-2.266c.02,0,.039,0,.06,0,.172.021.19.1.2.134.08.368-.61,1.293-1.174,1.73a3.108,3.108,0,0,1,.617-1.752.459.459,0,0,1,.3-.116" transform="translate(-13.926 -79.527)" fill="#407bff"/>
            <path id="Trazado_814851" data-name="Trazado 814851" d="M102.335,324.089a2.081,2.081,0,0,0,1.349-.343.724.724,0,0,0,.232-.645.431.431,0,0,0-.226-.351c-.687-.381-2.906.76-3.157.891a.128.128,0,0,0-.067.136.136.136,0,0,0,.108.112,9.6,9.6,0,0,0,1.762.2m.983-1.157a.527.527,0,0,1,.248.049.162.162,0,0,1,.087.141.474.474,0,0,1-.149.426,3.558,3.558,0,0,1-2.494.152,7.154,7.154,0,0,1,2.308-.768" transform="translate(-24.895 -79.959)" fill="#407bff"/>
            <path id="Trazado_814852" data-name="Trazado 814852" d="M100.6,323.46a.149.149,0,0,0,.054-.011c.667-.3,1.974-1.511,1.856-2.144-.027-.147-.137-.333-.5-.369a.935.935,0,0,0-.728.226,3.7,3.7,0,0,0-.815,2.153.138.138,0,0,0,.058.12.134.134,0,0,0,.077.025m1.308-2.266c.026,0,.053,0,.08,0,.239.025.257.118.263.15.07.379-.815,1.328-1.492,1.742a3.02,3.02,0,0,1,.7-1.723.686.686,0,0,1,.455-.173" transform="translate(-24.895 -79.527)" fill="#407bff"/>
          </g>
        </g>
        <rect id="Rectángulo_375529" data-name="Rectángulo 375529" width="3.511" height="0.752" transform="translate(170.277 42.841)" fill="#3b5620"/>
        <rect id="Rectángulo_375530" data-name="Rectángulo 375530" width="14.48" height="0.752" transform="translate(152.663 42.841)" fill="#3b5620"/>
        <g id="Grupo_1070233" data-name="Grupo 1070233">
          <g id="Grupo_1070232" data-name="Grupo 1070232" clip-path="url(#clip-path-2)">
            <path id="Trazado_814853" data-name="Trazado 814853" d="M228.024,192.4H137.077a8.088,8.088,0,0,1-7.924-7.414L121.1,67.869a6.852,6.852,0,0,1,6.9-7.414h90.947a8.089,8.089,0,0,1,7.924,7.414l8.053,117.113a6.852,6.852,0,0,1-6.9,7.414" transform="translate(-30.005 -14.981)" fill="#3b5620"/>
            <path id="Trazado_814854" data-name="Trazado 814854" d="M137.723,190.738a5.383,5.383,0,0,1-5.283-4.943L124.388,68.683a4.56,4.56,0,0,1,4.6-4.943h90.947a5.382,5.382,0,0,1,5.283,4.943L233.273,185.8a4.56,4.56,0,0,1-4.6,4.943Z" transform="translate(-30.821 -15.795)" fill="#fff"/>
            <g id="Grupo_1070231" data-name="Grupo 1070231" transform="translate(99.492 60.644)" opacity="0.2">
              <g id="Grupo_1070230" data-name="Grupo 1070230">
                <g id="Grupo_1070229" data-name="Grupo 1070229" clip-path="url(#clip-path-14)">
                  <path id="Trazado_814855" data-name="Trazado 814855" d="M228.133,125.9H145.447l-3.113-45.273H225.02Zm-82.111-.618h81.451L224.445,81.24h-81.45Z" transform="translate(-134.763 -80.622)" fill="#407bff"/>
                  <path id="Trazado_814856" data-name="Trazado 814856" d="M225.439,89.721H143.37l-.043-.618H225.4Z" transform="translate(-135.009 -82.724)" fill="#407bff"/>
                  <path id="Trazado_814857" data-name="Trazado 814857" d="M226.022,98.2H143.953l-.043-.618H225.98Z" transform="translate(-135.154 -84.825)" fill="#407bff"/>
                  <path id="Trazado_814858" data-name="Trazado 814858" d="M226.605,106.683H144.537l-.043-.618h82.068Z" transform="translate(-135.298 -86.927)" fill="#407bff"/>
                  <path id="Trazado_814859" data-name="Trazado 814859" d="M227.188,115.164H145.12l-.043-.618h82.068Z" transform="translate(-135.443 -89.029)" fill="#407bff"/>
                  <path id="Trazado_814860" data-name="Trazado 814860" d="M227.771,123.645H145.7l-.043-.618h82.069Z" transform="translate(-135.587 -91.13)" fill="#407bff"/>
                  <path id="Trazado_814861" data-name="Trazado 814861" d="M228.355,132.126H146.286l-.043-.618h82.068Z" transform="translate(-135.732 -93.232)" fill="#407bff"/>
                  <path id="Trazado_814862" data-name="Trazado 814862" d="M138.662,85.481h-6.349l-.043-.618h6.35Z" transform="translate(-132.269 -81.673)" fill="#407bff"/>
                  <path id="Trazado_814863" data-name="Trazado 814863" d="M139.245,93.962H132.9l-.043-.618H139.2Z" transform="translate(-132.414 -83.775)" fill="#407bff"/>
                  <path id="Trazado_814864" data-name="Trazado 814864" d="M139.828,102.443h-6.349l-.043-.618h6.349Z" transform="translate(-132.558 -85.876)" fill="#407bff"/>
                  <path id="Trazado_814865" data-name="Trazado 814865" d="M140.411,110.924h-6.35l-.042-.618h6.349Z" transform="translate(-132.703 -87.978)" fill="#407bff"/>
                  <path id="Trazado_814866" data-name="Trazado 814866" d="M140.994,119.4h-6.35l-.042-.618h6.349Z" transform="translate(-132.847 -90.079)" fill="#407bff"/>
                  <path id="Trazado_814867" data-name="Trazado 814867" d="M141.577,127.886h-6.35l-.042-.618h6.35Z" transform="translate(-132.992 -92.181)" fill="#407bff"/>
                  <path id="Trazado_814868" data-name="Trazado 814868" d="M142.16,136.367h-6.349l-.043-.618h6.349Z" transform="translate(-133.136 -94.283)" fill="#407bff"/>
                </g>
              </g>
            </g>
            <path id="Trazado_814869" data-name="Trazado 814869" d="M146.971,129.017l-.347-.535,9.791-5.92,3.026-3.031,6.681-5.894,6.913,2.585,7.007-11.7,9.663,2.54,12.4-8.185,6.207,2.618,16.271-8.115.306.556-16.517,8.238-6.166-2.6-12.355,8.154-9.493-2.5-7.033,11.738-7.039-2.632-6.406,5.65-3.09,3.085Z" transform="translate(-36.334 -23.141)" fill="#e0e0e0"/>
            <path id="Trazado_814870" data-name="Trazado 814870" d="M147.015,126.47l-.477-.426L156,115.3l2.7-6.125,9.105,5.247,4.084-9.988,7.906-7.262,10.065,5.674,11.891-11.331,8.482,5.045,13.746-13.23.445.458L210.346,97.33l-8.483-5.046-11.882,11.323-10.073-5.678-7.545,6.93-4.24,10.444L159,110.046l-2.5,5.647Z" transform="translate(-36.313 -20.649)" fill="#632059"/>
            <path id="Trazado_814871" data-name="Trazado 814871" d="M179.868,176.422l6.751-22.868A26.605,26.605,0,0,1,204.2,176.422a22.441,22.441,0,0,1-18.462,23.966Z" transform="translate(-44.572 -38.051)" fill="#cacfc6"/>
            <path id="Trazado_814872" data-name="Trazado 814872" d="M171.832,175.939l5.874,23.966a23.909,23.909,0,0,1-4.2.37c-13.351,0-25.091-10.986-26.009-24.336A22.528,22.528,0,0,1,170.158,151.6a25.193,25.193,0,0,1,8.425,1.468Z" transform="translate(-36.536 -37.568)" fill="#3b5620"/>
            <path id="Trazado_814873" data-name="Trazado 814873" d="M232.052,181.286h-7.226l1.811,26.343h7.226Z" transform="translate(-55.713 -44.923)" fill="#e0e0e0"/>
            <path id="Trazado_814874" data-name="Trazado 814874" d="M231.688,175.994h-7.226l-1.1-16.064h7.226Z" transform="translate(-55.349 -39.631)" fill="#a9b3a0"/>
            <path id="Trazado_814875" data-name="Trazado 814875" d="M248.822,187.663H241.6l1.482,21.547H250.3Z" transform="translate(-59.868 -46.503)" fill="#e0e0e0"/>
            <path id="Trazado_814876" data-name="Trazado 814876" d="M248.6,184.409h-7.226l-.679-9.877h7.226Z" transform="translate(-59.644 -43.25)" fill="#a9b3a0"/>
          </g>
        </g>
        <g id="Grupo_1070250" data-name="Grupo 1070250">
          <g id="Grupo_1070249" data-name="Grupo 1070249" clip-path="url(#clip-path-2)">
            <path id="Trazado_814877" data-name="Trazado 814877" d="M302.671,75.3c-.723,3.689-1.445,10.448,1.136,12.909a18.771,18.771,0,0,1-8.889,7.508c-4.934-3.091-2.575-7.507-2.575-7.507,4.113-.982,4.007-4.035,3.291-6.9Z" transform="translate(-72.304 -18.659)" fill="#ff8b7b"/>
            <path id="Trazado_814878" data-name="Trazado 814878" d="M304.1,93.1a7.563,7.563,0,0,0,2.883-5.359s-9.809-2.507-15.106-1c-1.63,1.253-4.231,3.573-4.231,3.573s.658,1.5,3.667,2.457S304.1,93.1,304.1,93.1" transform="translate(-71.28 -21.375)" fill="#1b3f5e"/>
            <path id="Trazado_814879" data-name="Trazado 814879" d="M322.91,99.152c1.841,2.644,3.487,5.28,5.053,8.039A89.789,89.789,0,0,1,332.3,115.7c.312.746.636,1.48.921,2.248l.22.569.11.284.055.143.092.266a6,6,0,0,1,.275,2.138,8.527,8.527,0,0,1-.9,3.232,14.148,14.148,0,0,1-1.458,2.351,30.713,30.713,0,0,1-7.265,6.692l-2.052-2.387a46.525,46.525,0,0,0,5.1-7.05,11.863,11.863,0,0,0,.763-1.709,2.944,2.944,0,0,0,.2-1.241c-.019-.111-.047-.153-.066-.141,0,0,0,.01-.007-.006l-.058-.124-.116-.248-.232-.5c-.3-.663-.642-1.322-.97-1.983q-1-1.981-2.123-3.938c-.727-1.31-1.492-2.609-2.271-3.9-1.571-2.563-3.206-5.165-4.834-7.634Z" transform="translate(-78.721 -24.57)" fill="#ff8b7b"/>
            <path id="Trazado_814880" data-name="Trazado 814880" d="M323.057,140.792l-6.7-.5,3.7,5.124s3.962-.488,4.895-2.9Z" transform="translate(-78.395 -34.765)" fill="#ff8b7b"/>
            <path id="Trazado_814881" data-name="Trazado 814881" d="M310.584,143.2l3.332,4.122,5.709-2.1-4.7-4.925Z" transform="translate(-76.963 -34.765)" fill="#ff8b7b"/>
            <path id="Trazado_814882" data-name="Trazado 814882" d="M319.97,94.2l-4.258,5.8.3,7.172,7.232,6.556s3.708-2.639,6.937-5.311c-4.047-9.248-7.7-13.479-10.214-14.22" transform="translate(-78.234 -23.344)" fill="#632059"/>
            <g id="Grupo_1070236" data-name="Grupo 1070236" transform="translate(237.912 76.387)" opacity="0.2">
              <g id="Grupo_1070235" data-name="Grupo 1070235">
                <g id="Grupo_1070234" data-name="Grupo 1070234" clip-path="url(#clip-path-16)">
                  <path id="Trazado_814883" data-name="Trazado 814883" d="M318.568,101.552l-2.279,7.567,2.43,2.2c-.331-5.3-.151-9.771-.151-9.771" transform="translate(-316.29 -101.552)"/>
                </g>
              </g>
            </g>
            <path id="Trazado_814884" data-name="Trazado 814884" d="M277.585,98.145c-.1,4.507.533,13.882,3.7,33.36h25.247c-.423-10.276-.924-16.713,3.987-37.8a69.578,69.578,0,0,0-10.232-1.311,80.248,80.248,0,0,0-11.465,0c-2.469.226-5.1.625-7.117.967a4.958,4.958,0,0,0-4.121,4.785" transform="translate(-68.784 -22.844)" fill="#632059"/>
            <g id="Grupo_1070239" data-name="Grupo 1070239" transform="translate(209.239 77.057)" opacity="0.2">
              <g id="Grupo_1070238" data-name="Grupo 1070238">
                <g id="Grupo_1070237" data-name="Grupo 1070237" clip-path="url(#clip-path-17)">
                  <path id="Trazado_814885" data-name="Trazado 814885" d="M282.668,102.442l-4.5,7.319c.233,2.6.579,5.724,1.068,9.455l3.681-2.181c1.5-11.072-.251-14.593-.251-14.593" transform="translate(-278.17 -102.442)"/>
                </g>
              </g>
            </g>
            <path id="Trazado_814886" data-name="Trazado 814886" d="M276.311,104.435c-1.014,3.5-2.1,6.973-3.219,10.437-1.1,3.471-2.248,6.925-3.424,10.368l-.222.649-.363.839a12.965,12.965,0,0,1-.821,1.5A14.779,14.779,0,0,1,266.2,130.8a20.077,20.077,0,0,1-5,3.622,31.476,31.476,0,0,1-11.129,3.2l-.519-3.106a40.609,40.609,0,0,0,4.8-1.819,27.33,27.33,0,0,0,4.4-2.431,16.528,16.528,0,0,0,3.5-3.093,9.31,9.31,0,0,0,1.186-1.78,7.541,7.541,0,0,0,.42-.915l.153-.419.177-.651c.938-3.492,1.9-6.974,2.916-10.437,1-3.47,2.023-6.929,3.123-10.367Z" transform="translate(-61.84 -25.425)" fill="#ff8b7b"/>
            <path id="Trazado_814887" data-name="Trazado 814887" d="M282.244,99.1c-1.064-2.545-4.4-4.187-4.4-4.187-3.591,2.338-5.072,4.782-7.454,16.664,3.823,1.716,9.5,1.7,9.5,1.7l3.1-8a15.668,15.668,0,0,0-.752-6.183" transform="translate(-67.003 -23.52)" fill="#632059"/>
            <path id="Trazado_814888" data-name="Trazado 814888" d="M249.2,144.557l-6.278-.1,4,4.9s3.926-.721,4.715-3.182Z" transform="translate(-60.197 -35.797)" fill="#ff8b7b"/>
            <path id="Trazado_814889" data-name="Trazado 814889" d="M237.387,147.616l3.569,3.918,4.6-2.178-4-4.9Z" transform="translate(-58.825 -35.797)" fill="#ff8b7b"/>
            <path id="Trazado_814890" data-name="Trazado 814890" d="M288.409,64.746c-.087.493-.42.848-.742.791s-.514-.5-.426-1,.42-.848.743-.791.513.5.426,1" transform="translate(-71.174 -15.796)" fill="#263238"/>
            <path id="Trazado_814891" data-name="Trazado 814891" d="M288.047,63.639l-1.125-.552s.445,1.034,1.125.552" transform="translate(-71.1 -15.633)" fill="#263238"/>
            <path id="Trazado_814892" data-name="Trazado 814892" d="M288.455,60.689a.294.294,0,0,1-.029-.541,2.919,2.919,0,0,1,2.688-.008.295.295,0,0,1-.3.507,2.33,2.33,0,0,0-2.128.029.3.3,0,0,1-.231.012" transform="translate(-71.432 -14.824)" fill="#263238"/>
            <path id="Trazado_814893" data-name="Trazado 814893" d="M287.986,67.226a13.379,13.379,0,0,1-2.318,2.84,2.156,2.156,0,0,0,1.7.642Z" transform="translate(-70.789 -16.659)" fill="#ff5652"/>
            <path id="Trazado_814894" data-name="Trazado 814894" d="M305.357,62.848c-1.447,6-1.931,8.568-5.544,11.137-5.436,3.866-12.486.779-12.861-5.531-.338-5.678,2.084-14.533,8.447-15.895a8.414,8.414,0,0,1,9.958,10.289" transform="translate(-71.1 -12.975)" fill="#ff8b7b"/>
            <path id="Trazado_814895" data-name="Trazado 814895" d="M294.834,63.13a9.259,9.259,0,1,0,11.4-6.444,9.258,9.258,0,0,0-11.4,6.444" transform="translate(-72.976 -13.963)" fill="#263238"/>
            <path id="Trazado_814896" data-name="Trazado 814896" d="M296.189,60.52c6.789-4.457,17.148-6.88,14.894-13.8-1.818-5.579-10.149-5.839-16.577-3.23-8.752,3.551-5.08,21.465,1.683,17.025" transform="translate(-71.705 -10.382)" fill="#263238"/>
            <path id="Trazado_814897" data-name="Trazado 814897" d="M307.4,49.991a.375.375,0,0,1-.305-.156L299.97,39.91a.376.376,0,1,1,.612-.439l7.125,9.924a.376.376,0,0,1-.086.525.373.373,0,0,1-.22.071" transform="translate(-74.316 -9.742)" fill="#407bff"/>
            <path id="Trazado_814898" data-name="Trazado 814898" d="M315.553,53.328a.373.373,0,0,1-.22-.071.376.376,0,0,1-.086-.525l7.125-9.924a.376.376,0,1,1,.612.439l-7.126,9.924a.373.373,0,0,1-.305.157" transform="translate(-78.102 -10.569)" fill="#407bff"/>
            <path id="Trazado_814899" data-name="Trazado 814899" d="M306.536,50.588c-5.037,3.13-7.076,8.959-4.552,13.021s8.652,4.816,13.69,1.686,7.076-8.959,4.552-13.021-8.653-4.816-13.69-1.686" transform="translate(-74.564 -12.057)" fill="#263238"/>
            <path id="Trazado_814900" data-name="Trazado 814900" d="M282.507,144.459s2.133,46.81,2.541,65.768c.423,19.718.612,65.768.612,65.768h4.977s7.938-38.271,5.59-65.768c3.554-21.114,5.955-65.768,5.955-65.768Z" transform="translate(-70.006 -35.797)" fill="#ff8b7b"/>
            <path id="Trazado_814901" data-name="Trazado 814901" d="M291.279,144.459s11.856,49.021,16.7,67.352c5.091,19.252,11.967,62.756,12.007,64.183h4.3s1.356-50.259-5.456-67.352c-.028-21.411-8.909-64.183-8.909-64.183Z" transform="translate(-72.18 -35.797)" fill="#ff8b7b"/>
            <path id="Trazado_814902" data-name="Trazado 814902" d="M329.866,317.69c3.668-.61,3.661,1.18,3.971,3.107a5.215,5.215,0,0,1-.49,3.4c-1.225,2.152,0,5.334-4.141,5.334s-4.549-.9-3.5-2.826a20.533,20.533,0,0,0,1.968-6.182c.212-1.116.56-2.559,2.19-2.831" transform="translate(-80.59 -78.694)" fill="#263238"/>
            <path id="Trazado_814903" data-name="Trazado 814903" d="M335.878,322.548c.09,2.481.329,8.215.329,8.215l-.655-.019s-.776-6.109-1.193-7.754Z" transform="translate(-82.855 -79.928)" fill="#263238"/>
            <path id="Trazado_814904" data-name="Trazado 814904" d="M295.916,68.165a4.511,4.511,0,0,1-2.442,2.428c-1.468.59-2.373-.68-2.11-2.155.236-1.327,1.284-3.234,2.827-3.2a2.026,2.026,0,0,1,1.726,2.922" transform="translate(-72.19 -16.167)" fill="#ff8b7b"/>
            <g id="Grupo_1070242" data-name="Grupo 1070242" transform="translate(214.992 166.725)" opacity="0.2">
              <g id="Grupo_1070241" data-name="Grupo 1070241">
                <g id="Grupo_1070240" data-name="Grupo 1070240" clip-path="url(#clip-path-18)">
                  <path id="Trazado_814905" data-name="Trazado 814905" d="M285.819,228.13c.015.812.038,1.587.053,2.324.068,3.046.128,6.717.181,10.749l11.4-2.708c-.053-2.746-.188-5.446-.406-8.041.226-1.361.451-2.821.677-4.363Z" transform="translate(-285.819 -222.751)"/>
                  <path id="Trazado_814906" data-name="Trazado 814906" d="M323.732,227.775c0-1.888-.075-3.942-.2-6.123l-12.509,2.136c.692,2.693,1.316,5.115,1.858,7.153q.5,1.873,1.008,4.032l11.283-2.678a38.794,38.794,0,0,0-1.437-4.521" transform="translate(-292.064 -221.651)"/>
                </g>
              </g>
            </g>
            <path id="Trazado_814907" data-name="Trazado 814907" d="M282.507,144.459l.77,74.542,35.322-7.517c.556-42.541-2.758-57.25-10.844-67.025Z" transform="translate(-70.006 -35.797)" fill="#1b3f5e"/>
            <g id="Grupo_1070245" data-name="Grupo 1070245" transform="translate(221.009 127.063)" opacity="0.2">
              <g id="Grupo_1070244" data-name="Grupo 1070244">
                <g id="Grupo_1070243" data-name="Grupo 1070243" clip-path="url(#clip-path-19)">
                  <path id="Trazado_814908" data-name="Trazado 814908" d="M309.118,168.923s-6.877,5.715-15.3,7.61c8.775-.665,13.228-3.137,15.3-7.61" transform="translate(-293.818 -168.923)"/>
                </g>
              </g>
            </g>
            <path id="Trazado_814909" data-name="Trazado 814909" d="M281.234,137.964a45.1,45.1,0,0,0,.477,4.793c.042.451.168,3.891.317,4.672s29.012.326,28.433-.867-2.424-3.641-2.424-4.166a29.79,29.79,0,0,0-.438-4.746c-.237-.323-26.219-.882-26.366.314" transform="translate(-69.688 -34.007)" fill="#c8b1c5"/>
            <path id="Trazado_814911" data-name="Trazado 814911" d="M285.007,316.918a88.316,88.316,0,0,1-5.037,10.359l7.109-1.96,3.492-5.482-.772-1.451Z" transform="translate(-69.377 -78.533)" fill="#ff8b7b"/>
            <path id="Trazado_814912" data-name="Trazado 814912" d="M289.3,318.072a4.375,4.375,0,0,1,.418,2.032c-.044,2.556-.329,9.332-.329,9.332h-.6a58.93,58.93,0,0,0-.317-6.246c-.3-1.683-1.027,1.285-2.153,2.96s-3.345,3.192-7.238,3.286c-4.558.111-6.4-.089-5.082-1.2a13.582,13.582,0,0,1,4.348-1.817,7.072,7.072,0,0,0,5.99-3.677c1.355-2.442,2.992-4.876,4.132-5.446a1.255,1.255,0,0,1,.829.771" transform="translate(-67.793 -78.628)" fill="#263238"/>
          </g>
        </g>
      </g>
    </g>
  </g>
</svg>
