<svg xmlns="http://www.w3.org/2000/svg" xmlns:xlink="http://www.w3.org/1999/xlink" width="302" height="264" viewBox="0 0 302 264">
  <defs>
    <clipPath id="clip-path">
      <rect id="Rectángulo_377193" data-name="Rectángulo 377193" width="302" height="264" transform="translate(5.433 -9.871)" fill="#fff" stroke="#707070" stroke-width="1"/>
    </clipPath>
    <clipPath id="clip-path-2">
      <rect id="Rectángulo_375601" data-name="Rectángulo 375601" width="300.433" height="264.129" fill="none"/>
    </clipPath>
    <clipPath id="clip-path-6">
      <rect id="Rectángulo_375570" data-name="Rectángulo 375570" width="115.173" height="90.584" fill="none"/>
    </clipPath>
    <clipPath id="clip-path-7">
      <rect id="Rectángulo_375571" data-name="Rectángulo 375571" width="90.741" height="91.057" fill="none"/>
    </clipPath>
    <clipPath id="clip-path-10">
      <rect id="Rectángulo_375575" data-name="Rectángulo 375575" width="28.889" height="31.698" fill="none"/>
    </clipPath>
    <clipPath id="clip-path-11">
      <rect id="Rectángulo_375576" data-name="Rectángulo 375576" width="4.72" height="4.108" fill="none"/>
    </clipPath>
    <clipPath id="clip-path-12">
      <rect id="Rectángulo_375577" data-name="Rectángulo 375577" width="9.644" height="7.81" fill="none"/>
    </clipPath>
    <clipPath id="clip-path-13">
      <rect id="Rectángulo_375578" data-name="Rectángulo 375578" width="24.152" height="24.763" fill="none"/>
    </clipPath>
    <clipPath id="clip-path-14">
      <rect id="Rectángulo_375579" data-name="Rectángulo 375579" width="14.911" height="14.808" fill="none"/>
    </clipPath>
    <clipPath id="clip-path-15">
      <rect id="Rectángulo_375580" data-name="Rectángulo 375580" width="9.994" height="9.085" fill="none"/>
    </clipPath>
    <clipPath id="clip-path-17">
      <rect id="Rectángulo_375582" data-name="Rectángulo 375582" width="57.15" height="29.051" fill="none"/>
    </clipPath>
    <clipPath id="clip-path-19">
      <rect id="Rectángulo_375584" data-name="Rectángulo 375584" width="8.621" height="11.911" fill="none"/>
    </clipPath>
    <clipPath id="clip-path-20">
      <rect id="Rectángulo_375586" data-name="Rectángulo 375586" width="14.154" height="3.812" fill="none"/>
    </clipPath>
    <clipPath id="clip-path-21">
      <rect id="Rectángulo_375587" data-name="Rectángulo 375587" width="4.998" height="4.933" fill="none"/>
    </clipPath>
    <clipPath id="clip-path-22">
      <rect id="Rectángulo_375588" data-name="Rectángulo 375588" width="4.387" height="17.394" fill="none"/>
    </clipPath>
    <clipPath id="clip-path-24">
      <rect id="Rectángulo_375590" data-name="Rectángulo 375590" width="19.109" height="51.021" fill="#2f4419"/>
    </clipPath>
    <clipPath id="clip-path-25">
      <rect id="Rectángulo_375591" data-name="Rectángulo 375591" width="5.554" height="44.74" fill="none"/>
    </clipPath>
    <clipPath id="clip-path-26">
      <rect id="Rectángulo_375592" data-name="Rectángulo 375592" width="36.998" height="45.111" fill="none"/>
    </clipPath>
    <clipPath id="clip-path-27">
      <rect id="Rectángulo_375593" data-name="Rectángulo 375593" width="7.741" height="4.732" fill="none"/>
    </clipPath>
    <clipPath id="clip-path-28">
      <rect id="Rectángulo_375594" data-name="Rectángulo 375594" width="11.903" height="3.361" fill="none"/>
    </clipPath>
    <clipPath id="clip-path-29">
      <rect id="Rectángulo_375595" data-name="Rectángulo 375595" width="4.668" height="3.433" fill="none"/>
    </clipPath>
    <clipPath id="clip-path-30">
      <rect id="Rectángulo_375596" data-name="Rectángulo 375596" width="13.651" height="35.883" fill="none"/>
    </clipPath>
    <clipPath id="clip-path-31">
      <rect id="Rectángulo_375597" data-name="Rectángulo 375597" width="10.281" height="35.06" fill="none"/>
    </clipPath>
    <clipPath id="clip-path-32">
      <rect id="Rectángulo_375598" data-name="Rectángulo 375598" width="21.585" height="23.368" fill="none"/>
    </clipPath>
    <clipPath id="clip-path-33">
      <rect id="Rectángulo_375599" data-name="Rectángulo 375599" width="1.442" height="1.432" fill="none"/>
    </clipPath>
  </defs>
  <g id="Grupo_1072685" data-name="Grupo 1072685" transform="translate(-5.433 9.871)">
    <g id="Enmascarar_grupo_90" data-name="Enmascarar grupo 90" clip-path="url(#clip-path)">
      <g id="Grupo_1070344" data-name="Grupo 1070344" transform="translate(7 -9.871)" clip-path="url(#clip-path-2)">
        <g id="Grupo_1070254" data-name="Grupo 1070254">
          <g id="Grupo_1070253" data-name="Grupo 1070253" clip-path="url(#clip-path-2)">
            <path id="Trazado_814913" data-name="Trazado 814913" d="M345.016,239.365h19.563a6.343,6.343,0,0,0,6.364-6.321v-28.4a1.162,1.162,0,0,0-2.324,0v28.4a4.026,4.026,0,0,1-4.04,4.012H345.016Z" transform="translate(-77.713 -46.922)" fill="#e0e0e0"/>
            <path id="Trazado_814914" data-name="Trazado 814914" d="M334.227,276.225v-26.45l-1.563-.489a4.2,4.2,0,0,1-2.956-4h14.757a4.2,4.2,0,0,1-2.956,4l-1.563.489v26.45l12.271,5.477v2.308l-15.131-5.253-15.13,5.253V281.7Z" transform="translate(-72.519 -56.56)" fill="#e0e0e0"/>
            <path id="Trazado_814915" data-name="Trazado 814915" d="M315.362,244.623h38.594a4.158,4.158,0,1,0,0-8.316H315.362a4.158,4.158,0,1,0,0,8.316" transform="translate(-70.091 -54.49)" fill="#f0f0f0"/>
            <path id="Trazado_814916" data-name="Trazado 814916" d="M372.75,207.783l2.083-29.575a4.187,4.187,0,0,0-8.353-.58L364.4,207.2a4.186,4.186,0,0,0,8.353.58" transform="translate(-82.077 -40.067)" fill="#ebebeb"/>
            <path id="Trazado_814917" data-name="Trazado 814917" d="M357.6,296.936a2.647,2.647,0,1,0,2.647-2.629,2.638,2.638,0,0,0-2.647,2.629" transform="translate(-80.548 -67.864)" fill="#e0e0e0"/>
            <path id="Trazado_814918" data-name="Trazado 814918" d="M318.54,296.936a2.647,2.647,0,1,0,2.647-2.629,2.638,2.638,0,0,0-2.647,2.629" transform="translate(-71.75 -67.864)" fill="#e0e0e0"/>
            <path id="Trazado_814919" data-name="Trazado 814919" d="M41.429,239.365H21.867a6.342,6.342,0,0,1-6.364-6.321v-28.4a1.162,1.162,0,0,1,2.324,0v28.4a4.026,4.026,0,0,0,4.04,4.012H41.429Z" transform="translate(-3.492 -46.922)" fill="#e0e0e0"/>
            <path id="Trazado_814920" data-name="Trazado 814920" d="M50.957,276.225v-26.45l1.563-.489a4.2,4.2,0,0,0,2.956-4H40.719a4.2,4.2,0,0,0,2.956,4l1.563.489v26.45L32.967,281.7v2.308L48.1,278.758l15.13,5.253V281.7Z" transform="translate(-7.426 -56.56)" fill="#e0e0e0"/>
            <path id="Trazado_814921" data-name="Trazado 814921" d="M64.966,244.623H26.373a4.158,4.158,0,1,1,0-8.316H64.966a4.158,4.158,0,1,1,0,8.316" transform="translate(-4.997 -54.49)" fill="#f0f0f0"/>
            <path id="Trazado_814922" data-name="Trazado 814922" d="M18.194,207.783l-2.083-29.575a4.187,4.187,0,0,1,8.353-.58L26.547,207.2a4.187,4.187,0,0,1-8.353.58" transform="translate(-3.627 -40.067)" fill="#ebebeb"/>
            <path id="Trazado_814923" data-name="Trazado 814923" d="M34.845,296.936a2.647,2.647,0,1,1-2.647-2.629,2.638,2.638,0,0,1,2.647,2.629" transform="translate(-6.656 -67.864)" fill="#e0e0e0"/>
            <path id="Trazado_814924" data-name="Trazado 814924" d="M73.9,296.936a2.647,2.647,0,1,1-2.647-2.629,2.638,2.638,0,0,1,2.647,2.629" transform="translate(-15.454 -67.864)" fill="#e0e0e0"/>
            <path id="Trazado_814925" data-name="Trazado 814925" d="M151.436,293.738H136.324l-1.549-28.454h18.211Z" transform="translate(-30.357 -61.172)" fill="#ebebeb"/>
            <path id="Trazado_814926" data-name="Trazado 814926" d="M139.473,301.655h-6.2v-1.268l6.2-.769Z" transform="translate(-30.02 -69.089)" fill="#e0e0e0"/>
            <path id="Trazado_814927" data-name="Trazado 814927" d="M152.986,264.592H134.775v-.019a2.3,2.3,0,0,1,2.3-2.289h13.6a2.3,2.3,0,0,1,2.3,2.289Z" transform="translate(-30.358 -60.48)" fill="#e0e0e0"/>
            <path id="Trazado_814928" data-name="Trazado 814928" d="M109.244,205.036H85.063v-2.879l24.181-1.539Z" transform="translate(-19.16 -46.26)" fill="#e0e0e0"/>
            <rect id="Rectángulo_375540" data-name="Rectángulo 375540" width="71.535" height="9.833" transform="translate(54.316 161.708)" fill="#f0f0f0"/>
            <rect id="Rectángulo_375541" data-name="Rectángulo 375541" width="100.937" height="5.864" transform="translate(39.743 158.776)" fill="#fafafa"/>
            <path id="Trazado_814929" data-name="Trazado 814929" d="M166.955,281.908h4.561l-7.891-67.927H158.28Z" transform="translate(-35.652 -49.342)" fill="#e6e6e6"/>
            <path id="Trazado_814930" data-name="Trazado 814930" d="M70.749,213.981H65.4l-7.89,67.927h4.56Z" transform="translate(-12.955 -49.342)" fill="#e6e6e6"/>
            <path id="Trazado_814931" data-name="Trazado 814931" d="M143.1,195.048q-3.1-15.289-6.2-30.578c-.3-1.455-2.536-.839-2.241.613q2.951,14.559,5.9,29.118H127.783a1.155,1.155,0,0,0,0,2.308h14.2a1.172,1.172,0,0,0,1.12-1.461" transform="translate(-28.53 -37.733)" fill="#e0e0e0"/>
            <path id="Trazado_814932" data-name="Trazado 814932" d="M129.213,176.856h0l3.981-56.542a10.481,10.481,0,0,1,4.394,9.277l-2.723,38.686a10.506,10.506,0,0,1-5.653,8.579" transform="translate(-29.105 -27.743)" fill="#fafafa"/>
            <path id="Trazado_814933" data-name="Trazado 814933" d="M166.723,201.434h-6.475A2.241,2.241,0,0,1,158,199.2v-11.97A2.241,2.241,0,0,1,160.248,185h6.475a2.241,2.241,0,0,1,2.248,2.233V199.2a2.24,2.24,0,0,1-2.248,2.233" transform="translate(-35.589 -42.659)" fill="#f5f5f5"/>
            <path id="Trazado_814934" data-name="Trazado 814934" d="M162.7,177.045c-1.715,0-3.1.422-3.1.942s1.389-.183,3.1-.183c.225,0,.445.013.658.034v3.729h.98v-3.585c.877.166,1.465.342,1.465.005,0-.52-1.39-.942-3.1-.942" transform="translate(-35.948 -40.825)" fill="#e0e0e0"/>
            <rect id="Rectángulo_375542" data-name="Rectángulo 375542" width="3.496" height="3.472" transform="translate(126.149 139.527)" fill="#f0f0f0"/>
            <rect id="Rectángulo_375543" data-name="Rectángulo 375543" width="71.535" height="9.833" transform="translate(179.388 161.708)" fill="#f0f0f0"/>
            <rect id="Rectángulo_375544" data-name="Rectángulo 375544" width="100.937" height="5.864" transform="translate(164.559 158.776)" fill="#fafafa"/>
            <path id="Trazado_814935" data-name="Trazado 814935" d="M223.179,281.908h-4.561l7.891-67.927h5.345Z" transform="translate(-49.243 -49.342)" fill="#e6e6e6"/>
            <path id="Trazado_814936" data-name="Trazado 814936" d="M319.386,213.981h5.345l7.89,67.927h-4.56Z" transform="translate(-71.94 -49.342)" fill="#e6e6e6"/>
            <path id="Trazado_814937" data-name="Trazado 814937" d="M297.23,205.036h24.181v-2.879l-24.181-1.539Z" transform="translate(-66.95 -46.26)" fill="#e0e0e0"/>
            <path id="Trazado_814938" data-name="Trazado 814938" d="M234.441,139.284v51.609H237.8l.8-4.583a3.5,3.5,0,0,1,3.459-2.892h31.258a3.5,3.5,0,0,1,3.459,2.892l.8,4.583h3.357V139.284Z" transform="translate(-52.807 -32.117)" fill="#f5f5f5"/>
            <path id="Trazado_814939" data-name="Trazado 814939" d="M253.838,195.048q3.1-15.289,6.2-30.578c.3-1.455,2.536-.839,2.241.613q-2.951,14.559-5.9,29.118H269.16a1.155,1.155,0,0,1,0,2.308h-14.2a1.171,1.171,0,0,1-1.12-1.461" transform="translate(-57.17 -37.733)" fill="#e0e0e0"/>
            <path id="Trazado_814940" data-name="Trazado 814940" d="M270.076,176.856h0l-3.981-56.542a10.481,10.481,0,0,0-4.394,9.277l2.723,38.686a10.506,10.506,0,0,0,5.653,8.579" transform="translate(-58.941 -27.743)" fill="#e0e0e0"/>
            <rect id="Rectángulo_375545" data-name="Rectángulo 375545" width="126.93" height="76.81" transform="translate(1.967 51.943)" fill="#ebebeb"/>
            <rect id="Rectángulo_375546" data-name="Rectángulo 375546" width="0.93" height="76.81" transform="translate(128.91 51.912)" fill="#e0e0e0"/>
            <rect id="Rectángulo_375547" data-name="Rectángulo 375547" width="0.767" height="69.116" transform="translate(5.81 55.279)" fill="#e0e0e0"/>
            <rect id="Rectángulo_375548" data-name="Rectángulo 375548" width="119.028" height="69.116" transform="translate(5.733 55.279)" fill="#fff"/>
            <rect id="Rectángulo_375549" data-name="Rectángulo 375549" width="7.732" height="3.291" transform="translate(47.893 85.722)" fill="#f5f5f5"/>
            <rect id="Rectángulo_375550" data-name="Rectángulo 375550" width="7.732" height="2.56" transform="translate(49.405 110.504)" fill="#f5f5f5"/>
            <rect id="Rectángulo_375551" data-name="Rectángulo 375551" width="25.118" height="35.054" transform="translate(25.541 84.643)" fill="#f0f0f0"/>
            <rect id="Rectángulo_375552" data-name="Rectángulo 375552" width="7.732" height="2.56" transform="translate(47.671 116.171)" fill="#f5f5f5"/>
            <rect id="Rectángulo_375553" data-name="Rectángulo 375553" width="7.732" height="2.56" transform="translate(48.96 92.738)" fill="#f5f5f5"/>
            <rect id="Rectángulo_375554" data-name="Rectángulo 375554" width="7.732" height="2.56" transform="translate(47.265 99.099)" fill="#f5f5f5"/>
            <rect id="Rectángulo_375555" data-name="Rectángulo 375555" width="17.121" height="3.017" transform="translate(28.502 88.952)" fill="#e6e6e6"/>
            <path id="Trazado_814941" data-name="Trazado 814941" d="M54.185,131.952H37.064l-.276-1.371H53.909Z" transform="translate(-8.286 -30.111)" fill="#e6e6e6"/>
            <rect id="Rectángulo_375556" data-name="Rectángulo 375556" width="6.076" height="3.017" transform="translate(28.501 94.985)" fill="#e6e6e6"/>
            <rect id="Rectángulo_375557" data-name="Rectángulo 375557" width="9.808" height="13.992" transform="translate(76.5 78.312)" fill="#f5f5f5"/>
            <rect id="Rectángulo_375558" data-name="Rectángulo 375558" width="9.808" height="13.992" transform="translate(11.467 100.48)" fill="#f5f5f5"/>
            <rect id="Rectángulo_375559" data-name="Rectángulo 375559" width="9.808" height="9.741" transform="translate(12.798 60.287)" fill="#f5f5f5"/>
            <rect id="Rectángulo_375560" data-name="Rectángulo 375560" width="9.808" height="9.741" transform="translate(59.302 104.94)" fill="#f5f5f5"/>
            <rect id="Rectángulo_375561" data-name="Rectángulo 375561" width="25.118" height="35.054" transform="translate(92.165 79.517)" fill="#f5f5f5"/>
            <rect id="Rectángulo_375562" data-name="Rectángulo 375562" width="18.042" height="0.385" transform="translate(95.605 84.593)" fill="#e0e0e0"/>
            <rect id="Rectángulo_375563" data-name="Rectángulo 375563" width="0.387" height="25.962" transform="translate(104.431 84.968)" fill="#e0e0e0"/>
            <rect id="Rectángulo_375564" data-name="Rectángulo 375564" width="0.387" height="25.962" transform="translate(112.717 84.968)" fill="#e0e0e0"/>
            <rect id="Rectángulo_375565" data-name="Rectángulo 375565" width="0.387" height="25.962" transform="translate(97.067 84.968)" fill="#e0e0e0"/>
            <rect id="Rectángulo_375566" data-name="Rectángulo 375566" width="0.387" height="25.962" transform="translate(95.779 84.968)" fill="#e0e0e0"/>
            <rect id="Rectángulo_375567" data-name="Rectángulo 375567" width="16.753" height="0.385" transform="translate(95.973 86.337)" fill="#e0e0e0"/>
          </g>
        </g>
        <g id="Grupo_1070256" data-name="Grupo 1070256">
          <g id="Grupo_1070255" data-name="Grupo 1070255" clip-path="url(#clip-path-2)">
            <path id="Trazado_814942" data-name="Trazado 814942" d="M300.433,329.353c0,4.812-67.254,8.712-150.216,8.712S0,334.165,0,329.353s67.254-8.712,150.216-8.712,150.216,3.9,150.216,8.712" transform="translate(0 -73.936)" fill="#f5f5f5"/>
          </g>
        </g>
        <g id="Grupo_1070264" data-name="Grupo 1070264">
          <g id="Grupo_1070263" data-name="Grupo 1070263" clip-path="url(#clip-path-2)">
            <path id="Trazado_814943" data-name="Trazado 814943" d="M190.428,114.631A17.167,17.167,0,0,1,173.2,131.738h-6.256v16.3H149.987v6.682a17.222,17.222,0,0,1-34.443,0v-6.682H99.687v-16.3H92.48a17.1,17.1,0,1,1,0-34.206h7.207v-16.3H116.1v7.156a17.219,17.219,0,0,0,34.436,0V81.233h16.412v16.3H173.2a17.165,17.165,0,0,1,17.226,17.1" transform="translate(-16.951 -18.731)" fill="#632059"/>
            <g id="Grupo_1070259" data-name="Grupo 1070259" transform="translate(58.304 62.502)" opacity="0.5">
              <g id="Grupo_1070258" data-name="Grupo 1070258">
                <g id="Grupo_1070257" data-name="Grupo 1070257" clip-path="url(#clip-path-6)">
                  <path id="Trazado_814944" data-name="Trazado 814944" d="M190.428,114.631A17.167,17.167,0,0,1,173.2,131.738h-6.256v16.3H149.987v6.682a17.222,17.222,0,0,1-34.443,0v-6.682H99.687v-16.3H92.48a17.1,17.1,0,1,1,0-34.206h7.207v-16.3H116.1v7.156a17.219,17.219,0,0,0,34.436,0V81.233h16.412v16.3H173.2a17.165,17.165,0,0,1,17.226,17.1" transform="translate(-75.255 -81.233)" fill="#fff"/>
                </g>
              </g>
            </g>
            <path id="Trazado_814945" data-name="Trazado 814945" d="M199.7,124.357h-7.2v16.3h67.264v-16.3h6.255a17.1,17.1,0,1,0,0-34.2h-6.255v-16.3H243.345V66.7a17.222,17.222,0,0,0-34.442,0v7.156H192.492v16.3h7.2a17.1,17.1,0,1,1,0,34.2" transform="translate(-43.358 -11.437)" fill="#3b5620"/>
            <g id="Grupo_1070262" data-name="Grupo 1070262" transform="translate(149.133 41.008)" opacity="0.3">
              <g id="Grupo_1070261" data-name="Grupo 1070261" transform="translate(0 0)">
                <g id="Grupo_1070260" data-name="Grupo 1070260" clip-path="url(#clip-path-7)">
                  <path id="Trazado_814946" data-name="Trazado 814946" d="M199.7,124.357h-7.2v16.3h67.264v-16.3h6.255a17.1,17.1,0,1,0,0-34.2h-6.255v-16.3H243.345V66.7a17.222,17.222,0,0,0-34.442,0v7.156H192.492v16.3h7.2a17.1,17.1,0,1,1,0,34.2" transform="translate(-192.491 -49.597)" fill="#fff"/>
                </g>
              </g>
            </g>
          </g>
        </g>
        <g id="Grupo_1070266" data-name="Grupo 1070266">
          <g id="Grupo_1070265" data-name="Grupo 1070265" clip-path="url(#clip-path-2)">
            <path id="Trazado_814947" data-name="Trazado 814947" d="M198.847,60.04l-1.453-.355a22.39,22.39,0,0,1-4.532-1.456l-.19-.092c-1.429-.685-3.207-1.54-3.586-4.519a.809.809,0,0,0-.7-.8c-13.278-.636-17.9-7.619-17.911-15.361-.007-7.614,5.048-14.806,19.377-14.98,13.282-.162,19.929,7.959,19.523,16.325a16.022,16.022,0,0,1-12.494,14.319c-.986.327-2.738.385-3.347,1.269a1.3,1.3,0,0,0,0,1.418,5.274,5.274,0,0,0,1.042,1.166c1.419,1.213,4.267,3.065,4.267,3.065" transform="translate(-38.4 -5.183)" fill="#fff"/>
            <path id="Trazado_814948" data-name="Trazado 814948" d="M198.734,60.31a.383.383,0,0,1-.092-.012l-1.453-.355a22.7,22.7,0,0,1-4.609-1.483l-.19-.092c-1.433-.687-3.4-1.628-3.8-4.817-.009-.075-.07-.452-.329-.465-15.893-.76-18.275-10.191-18.28-15.744,0-4.548,1.912-15.148,19.759-15.366,8.42-.082,13.171,2.99,15.707,5.6a14.785,14.785,0,0,1,4.207,11.127,16.339,16.339,0,0,1-12.8,14.677,9.4,9.4,0,0,1-.992.241c-.829.172-1.768.366-2.114.868a.916.916,0,0,0,.009,1,4.919,4.919,0,0,0,.967,1.079c1.383,1.182,4.2,3.015,4.226,3.034a.384.384,0,0,1-.212.707m-8.592-37.564-.394,0c-17.155.209-19,10.276-18.994,14.6,0,5.28,2.29,14.246,17.542,14.977a1.172,1.172,0,0,1,1.061,1.136c.353,2.773,1.956,3.542,3.371,4.22l.191.092a19.446,19.446,0,0,0,3.814,1.27c-.857-.6-1.84-1.309-2.517-1.888A5.686,5.686,0,0,1,193.1,55.9a1.666,1.666,0,0,1,.009-1.84,4.038,4.038,0,0,1,2.6-1.187,9,9,0,0,0,.948-.229A15.565,15.565,0,0,0,208.88,38.67a14.023,14.023,0,0,0-3.99-10.556c-2.392-2.462-6.884-5.369-14.747-5.369" transform="translate(-38.287 -5.068)" fill="#3b5620"/>
            <path id="Trazado_814949" data-name="Trazado 814949" d="M182.365,56.763a3.5,3.5,0,0,0,1.126-3.032c-.483-2-2.272-1.975-3.431-2.359-8.016-1.668-12.234-7.44-12.494-12.781-.406-8.367,6.241-16.487,19.523-16.325,14.329.175,19.384,7.366,19.377,14.98-.007,7.742-4.633,14.725-17.911,15.361a.809.809,0,0,0-.695.8c-.379,2.979-2.158,3.833-3.586,4.519l-.191.092a22.439,22.439,0,0,1-4.532,1.456l-1.453.354a20.663,20.663,0,0,0,4.267-3.065" transform="translate(-37.74 -5.134)" fill="#fff"/>
            <path id="Trazado_814950" data-name="Trazado 814950" d="M177.986,60.1a.384.384,0,0,1-.187-.721,20.426,20.426,0,0,0,4.163-2.981A3.125,3.125,0,0,0,183,53.7c-.333-1.385-1.343-1.626-2.413-1.879-.27-.065-.529-.126-.763-.2-8.446-1.754-12.5-7.86-12.759-13.127a14.784,14.784,0,0,1,4.207-11.126c2.537-2.611,7.294-5.71,15.708-5.6,17.846.217,19.764,10.818,19.759,15.365,0,5.554-2.387,14.984-18.28,15.745-.26.012-.32.389-.33.463-.405,3.188-2.368,4.13-3.8,4.817l-.19.092a22.822,22.822,0,0,1-4.608,1.483l-1.453.355a.413.413,0,0,1-.092.01m8.593-37.563c-7.865,0-12.356,2.907-14.747,5.368a14.024,14.024,0,0,0-3.991,10.556c.242,4.971,4.1,10.742,12.187,12.424.257.082.494.138.741.2,1.073.255,2.543.6,2.987,2.451a3.813,3.813,0,0,1-1.211,3.374,12.491,12.491,0,0,1-2.258,1.851,18.4,18.4,0,0,0,3.516-1.195l.191-.092c1.415-.678,3.018-1.447,3.371-4.221a1.172,1.172,0,0,1,1.061-1.136c15.251-.73,17.537-9.7,17.542-14.977,0-4.318-1.839-14.386-18.994-14.595l-.394,0m-4.326,34.114h0Z" transform="translate(-37.627 -5.018)" fill="#3b5620"/>
            <path id="Trazado_814951" data-name="Trazado 814951" d="M187.1,41.891l3.379,3.355,7.634-6.141" transform="translate(-42.143 -9.017)" fill="#fff"/>
            <path id="Trazado_814952" data-name="Trazado 814952" d="M190.253,45.785a.776.776,0,0,1-.548-.225L186.326,42.2a.766.766,0,0,1,0-1.088.778.778,0,0,1,1.1,0l2.885,2.865,7.091-5.705a.776.776,0,0,1,1.089.114.765.765,0,0,1-.114,1.082l-7.634,6.141a.777.777,0,0,1-.487.172" transform="translate(-41.918 -8.786)" fill="#632059"/>
          </g>
        </g>
        <g id="Grupo_1070289" data-name="Grupo 1070289">
          <g id="Grupo_1070288" data-name="Grupo 1070288" clip-path="url(#clip-path-2)">
            <path id="Trazado_814953" data-name="Trazado 814953" d="M318.644,16a.979.979,0,0,0,1.134-.342l5.873-8.138a.963.963,0,0,0-.224-1.349.978.978,0,0,0-1.36.222L318.2,14.53A.967.967,0,0,0,318.644,16" transform="translate(-71.631 -1.381)" fill="#ffd165"/>
            <path id="Trazado_814954" data-name="Trazado 814954" d="M327.6,31.888a.98.98,0,0,0,.5.048l9.734-1.6a.967.967,0,1,0-.318-1.907l-9.734,1.6a.966.966,0,0,0-.184,1.86" transform="translate(-73.649 -6.553)" fill="#ffd165"/>
            <path id="Trazado_814955" data-name="Trazado 814955" d="M286.53,21.819a.979.979,0,0,0,1.134-.342.963.963,0,0,0-.225-1.349l-8.446-6.011a.976.976,0,0,0-1.359.222.962.962,0,0,0,.224,1.349l8.446,6.011a.971.971,0,0,0,.225.119" transform="translate(-62.495 -3.213)" fill="#ffd165"/>
            <path id="Trazado_814956" data-name="Trazado 814956" d="M331.863,54.307A.979.979,0,0,0,333,53.965a.963.963,0,0,0-.225-1.349l-7.944-5.654a.977.977,0,0,0-1.359.223.963.963,0,0,0,.225,1.349l7.944,5.653a.974.974,0,0,0,.225.12" transform="translate(-72.819 -10.787)" fill="#ffd165"/>
            <path id="Trazado_814957" data-name="Trazado 814957" d="M302.186,11.958a.98.98,0,0,0,.5.048.968.968,0,0,0,.8-1.112L301.813.81a.973.973,0,0,0-1.921.315l1.676,10.085a.969.969,0,0,0,.618.748" transform="translate(-67.547 0)" fill="#ffd165"/>
            <path id="Trazado_814963" data-name="Trazado 814963" d="M290.465,26.144a13.21,13.21,0,0,1,18.365-2.919,13,13,0,0,1,2.939,18.238c-3.09,4.239-8.577,4.666-13.171,6.477-1.422.561-4.182,4.5-4.182,4.5l-9.036-6.5s2.907-3.833,3-5.35c.3-4.9-1-10.21,2.086-14.448" transform="translate(-64.281 -4.783)" fill="#ffe358"/>
            <g id="Grupo_1070272" data-name="Grupo 1070272" transform="translate(221.099 17.874)" opacity="0.4">
              <g id="Grupo_1070271" data-name="Grupo 1070271">
                <g id="Grupo_1070270" data-name="Grupo 1070270" clip-path="url(#clip-path-10)">
                  <path id="Trazado_814964" data-name="Trazado 814964" d="M290.465,26.144a13.21,13.21,0,0,1,18.365-2.919,13,13,0,0,1,2.939,18.238c-3.09,4.239-8.577,4.666-13.171,6.477-1.422.561-4.182,4.5-4.182,4.5l-9.036-6.5s2.907-3.833,3-5.35c.3-4.9-1-10.21,2.086-14.448" transform="translate(-285.38 -20.742)" fill="#fff"/>
                </g>
              </g>
            </g>
            <path id="Trazado_814965" data-name="Trazado 814965" d="M285.352,58.71l3.858,2.774a3.21,3.21,0,0,0,4.463-.709l-9.036-6.5a3.161,3.161,0,0,0,.714,4.433" transform="translate(-63.977 -12.516)" fill="#263238"/>
            <path id="Trazado_814966" data-name="Trazado 814966" d="M285.371,64.266h0a2.619,2.619,0,0,0,3.641-.579l-4.223-3.037a2.577,2.577,0,0,0,.583,3.615" transform="translate(-64.036 -13.985)" fill="#263238"/>
            <g id="Grupo_1070275" data-name="Grupo 1070275" transform="translate(220.257 46.666)" opacity="0.5">
              <g id="Grupo_1070274" data-name="Grupo 1070274">
                <g id="Grupo_1070273" data-name="Grupo 1070273" clip-path="url(#clip-path-11)">
                  <path id="Trazado_814967" data-name="Trazado 814967" d="M285.371,64.266h0a2.619,2.619,0,0,0,3.641-.579l-4.223-3.037a2.577,2.577,0,0,0,.583,3.615" transform="translate(-284.293 -60.651)" fill="#fff"/>
                </g>
              </g>
            </g>
            <g id="Grupo_1070278" data-name="Grupo 1070278" transform="translate(220.053 41.762)" opacity="0.7">
              <g id="Grupo_1070277" data-name="Grupo 1070277">
                <g id="Grupo_1070276" data-name="Grupo 1070276" clip-path="url(#clip-path-12)">
                  <path id="Trazado_814968" data-name="Trazado 814968" d="M285.352,58.71l3.858,2.774a3.21,3.21,0,0,0,4.463-.709l-9.036-6.5a3.161,3.161,0,0,0,.714,4.433" transform="translate(-284.029 -54.278)" fill="#fff"/>
                </g>
              </g>
            </g>
            <g id="Grupo_1070281" data-name="Grupo 1070281" transform="translate(224.631 17.696)" opacity="0.3">
              <g id="Grupo_1070280" data-name="Grupo 1070280">
                <g id="Grupo_1070279" data-name="Grupo 1070279" clip-path="url(#clip-path-13)">
                  <path id="Trazado_814969" data-name="Trazado 814969" d="M294.175,25.6c-4.821,6.683-6.073,17.256-.875,20.953S308.824,44.786,313,39c2.572-3.565.443-9.453-4.755-13.153s-11.5-3.808-14.069-.243" transform="translate(-289.939 -22.999)" fill="#fff"/>
                </g>
              </g>
            </g>
            <g id="Grupo_1070284" data-name="Grupo 1070284" transform="translate(226.092 26.074)" opacity="0.4">
              <g id="Grupo_1070283" data-name="Grupo 1070283">
                <g id="Grupo_1070282" data-name="Grupo 1070282" clip-path="url(#clip-path-14)">
                  <path id="Trazado_814970" data-name="Trazado 814970" d="M293.22,36.979a7.37,7.37,0,0,0,1.718,10.33,7.488,7.488,0,0,0,10.4-1.705,7.372,7.372,0,0,0-1.718-10.331,7.488,7.488,0,0,0-10.4,1.706" transform="translate(-291.824 -33.888)" fill="#fff"/>
                </g>
              </g>
            </g>
            <g id="Grupo_1070287" data-name="Grupo 1070287" transform="translate(227.499 30.497)" opacity="0.4">
              <g id="Grupo_1070286" data-name="Grupo 1070286">
                <g id="Grupo_1070285" data-name="Grupo 1070285" clip-path="url(#clip-path-15)">
                  <path id="Trazado_814971" data-name="Trazado 814971" d="M294.382,41.144c-1.685,2.335-.291,4.4,2.06,6.074s4.769,2.319,6.454-.015.269-4.37-2.083-6.044-4.747-2.351-6.431-.015" transform="translate(-293.64 -39.637)" fill="#fff"/>
                </g>
              </g>
            </g>
          </g>
        </g>
        <path id="Trazado_814972" data-name="Trazado 814972" d="M55.371,54.773l2.64,2.181L73.294,43.989,92.8,47.906l14.87-13.926L109,35.793l3.519-7.891-8.641.919,1.333,1.814L92.162,44.987,72.634,41.213Z" transform="translate(-12.472 -6.434)" fill="#632059"/>
        <g id="Grupo_1070294" data-name="Grupo 1070294">
          <g id="Grupo_1070293" data-name="Grupo 1070293" clip-path="url(#clip-path-2)">
            <g id="Grupo_1070292" data-name="Grupo 1070292" transform="translate(42.899 31.856)" opacity="0.3">
              <g id="Grupo_1070291" data-name="Grupo 1070291">
                <g id="Grupo_1070290" data-name="Grupo 1070290" clip-path="url(#clip-path-17)">
                  <path id="Trazado_814973" data-name="Trazado 814973" d="M55.371,54.773l2.64,2.181L73.294,43.989,92.8,47.906l14.87-13.926L109,35.793l3.519-7.891-8.641.919,1.333,1.814L92.162,44.987,72.634,41.213Z" transform="translate(-55.371 -27.902)" fill="#fff"/>
                </g>
              </g>
            </g>
          </g>
        </g>
        <g id="Grupo_1070311" data-name="Grupo 1070311">
          <g id="Grupo_1070310" data-name="Grupo 1070310" clip-path="url(#clip-path-2)">
            <path id="Trazado_814974" data-name="Trazado 814974" d="M236.974,203.5c.445,6.974-1.286,15.945-2.946,22.631-1.372,5.527-2.346,7.051-2.689,9.5-.4,2.787.452,6.9.242,10.426-.834,13.869-6.5,41.854-6.5,41.854l-4.758-.3.123-54.227,3.094-52.531,18.806,4.969c1.847,10.193-5.37,17.678-5.37,17.678" transform="translate(-49.626 -41.703)" fill="#dd8c6a"/>
            <path id="Trazado_814975" data-name="Trazado 814975" d="M264.719,289.819l-4.325-.126-12-52.934-12.134-51.223,19.453-.572c4.692,9.249-.07,18.467-.07,18.467,2.431,6.563,3.351,15.65,3.686,22.531.273,5.681-.226,7.423.148,9.861.428,2.787,1.8,6.486,2.607,9.922,3.219,13.654,2.637,44.074,2.637,44.074" transform="translate(-53.216 -42.651)" fill="#dd8c6a"/>
            <path id="Trazado_814976" data-name="Trazado 814976" d="M190.032,124.141,192.3,127.1c2.248.7,2.2,4.027,2.2,4.027.487.374,5.08,3.257,6.149,4.183l-2.709,2.892c-1.17-1.774-5.234-4.786-5.234-4.786s-5.532-3.362-6.436-4.56.6-4.77.6-4.77Z" transform="translate(-41.892 -28.612)" fill="#dd8c6a"/>
            <path id="Trazado_814977" data-name="Trazado 814977" d="M198.38,131.52c3.715,2.685,9.193,6.795,9.193,6.795s2.93-3.382,9.217-9.182a26.168,26.168,0,0,1,6.781-4.643l-.958,11.07c-2.936,2.511-12.138,10.1-15.735,9.792-2.966-.253-8.473-6.572-11.614-10.484Z" transform="translate(-43.983 -28.706)" fill="#3b1335"/>
            <g id="Grupo_1070297" data-name="Grupo 1070297" transform="translate(169.562 101.875)" opacity="0.2">
              <g id="Grupo_1070296" data-name="Grupo 1070296">
                <g id="Grupo_1070295" data-name="Grupo 1070295" clip-path="url(#clip-path-19)">
                  <path id="Trazado_814978" data-name="Trazado 814978" d="M218.859,144.317c1.966-3.289,7.341-11.91,7.341-11.91l1.28,2.9-.863,3.188c-1.367,1.134-5.789,4.4-7.758,5.826" transform="translate(-218.859 -132.406)"/>
                </g>
              </g>
            </g>
            <path id="Trazado_814979" data-name="Trazado 814979" d="M254.161,129.486a228.622,228.622,0,0,1-4.385,30.156s11.346,9.271,7.669,47.165c0,0-11.483,5.04-38.586-.96l5.15-46.373s-1.186-30.134,2.035-33.5c2.853-2.983,15.288-6.891,24.807-2.241a5.936,5.936,0,0,1,3.311,5.754" transform="translate(-49.297 -28.036)" fill="#b7a0b4"/>
            <g id="Grupo_1070303" data-name="Grupo 1070303" transform="translate(177.509 130.596)" opacity="0.3">
              <g id="Grupo_1070302" data-name="Grupo 1070302">
                <g id="Grupo_1070301" data-name="Grupo 1070301" clip-path="url(#clip-path-20)">
                  <path id="Trazado_814981" data-name="Trazado 814981" d="M243.271,169.735s-8.306,1.431-14.155,0v3.535s4.347.622,14.155,0Z" transform="translate(-229.117 -169.735)"/>
                </g>
              </g>
            </g>
            <path id="Trazado_814982" data-name="Trazado 814982" d="M249.579,107.559c-1.1,3.115-2.538,8.584-1.353,11.745a1.725,1.725,0,0,1-.679,2.054c-2.391,1.713-6.287,3.1-9.219,2.79-3.758-.4-2.777-3.05-1.818-4.5.257-.389.655-.935,1.117-1.013,3.694-.623,4.4-3.382,4.111-6.163Z" transform="translate(-53.076 -24.802)" fill="#dd8c6a"/>
            <g id="Grupo_1070306" data-name="Grupo 1070306" transform="translate(188.661 84.776)" opacity="0.3" style="isolation: isolate">
              <g id="Grupo_1070305" data-name="Grupo 1070305">
                <g id="Grupo_1070304" data-name="Grupo 1070304" clip-path="url(#clip-path-21)">
                  <path id="Trazado_814983" data-name="Trazado 814983" d="M248.158,110.183l-4.647,2.885a12.051,12.051,0,0,1,0,2.048,5.719,5.719,0,0,0,4.647-2.625c.546-.98.383-2.129,0-2.307" transform="translate(-243.511 -110.183)"/>
                </g>
              </g>
            </g>
            <path id="Trazado_814984" data-name="Trazado 814984" d="M237.272,109.624l-2.1,3.749c.647.055,1.237.264,1.885.319.327-.5.712-1.007,1.04-1.51-.127.52-.552,1.079-.679,1.6a20.726,20.726,0,0,0,3.5.325,1.323,1.323,0,0,0-.09-1.049,6.509,6.509,0,0,0-3.079-3.189Z" transform="translate(-52.972 -25.278)" fill="#263238"/>
            <path id="Trazado_814985" data-name="Trazado 814985" d="M251.12,98.389c-1.353,4.8-1.905,7.673-4.92,9.634-4.531,2.959-10.09-.577-10.2-5.665-.1-4.615,2.138-11.664,7.349-12.57a6.834,6.834,0,0,1,7.943,5.476,6.751,6.751,0,0,1-.17,3.125" transform="translate(-53.157 -20.679)" fill="#dd8c6a"/>
            <path id="Trazado_814986" data-name="Trazado 814986" d="M240.3,101a11.682,11.682,0,0,1-2.093,2.437,1.925,1.925,0,0,0,1.489.595Z" transform="translate(-53.656 -23.29)" fill="#ff5652"/>
            <path id="Trazado_814987" data-name="Trazado 814987" d="M247.253,98.206a.3.3,0,0,0,.122,0,.246.246,0,0,0,.116-.317,2.4,2.4,0,0,0-1.7-1.367.239.239,0,1,0-.07.472,1.9,1.9,0,0,1,1.33,1.1.239.239,0,0,0,.2.115" transform="translate(-55.302 -22.256)" fill="#263238"/>
            <path id="Trazado_814988" data-name="Trazado 814988" d="M237.89,95.544a.233.233,0,0,0,.229-.007,1.919,1.919,0,0,1,1.712-.134.24.24,0,0,0,.322-.1.236.236,0,0,0-.1-.319,2.4,2.4,0,0,0-2.186.141.231.231,0,0,0-.091.314l0,.006a.228.228,0,0,0,.115.1" transform="translate(-53.551 -21.856)" fill="#263238"/>
            <path id="Trazado_814989" data-name="Trazado 814989" d="M247.88,120.8l-5.438,4.17a1.919,1.919,0,0,1-2.926-.755L238.3,121.4l-1.443.37a.891.891,0,0,0-.672.678c-.287,1.318-1.34,4.533-1.282,7.416,0,0,3.323-4.416,5.2-1.239,0,0,2.453-2.868,4.427,2.094a41.71,41.71,0,0,0,3.348-5.686c1.017-2.357,1.7-3.632,1.7-3.632Z" transform="translate(-52.911 -27.854)" fill="#fff"/>
            <path id="Trazado_814990" data-name="Trazado 814990" d="M250.911,121.1a211.756,211.756,0,0,0-4.844,30.968c-1.09,15.6-1.316,20.314,4.9,19.641s11.3-1.459,10.4-3.7-4.294-7.295-4.069-9.876,2.369-22.667,2.615-25.71,2.076-9.411-9-11.319" transform="translate(-55.291 -27.924)" fill="#3b1335"/>
            <path id="Trazado_814991" data-name="Trazado 814991" d="M253.857,173.417c-.076-.417,1.412-1.917,3.111-2.965a17.771,17.771,0,0,1,3.564-1.621s3.471-4.059,4.431-5.156l2.68,2.294a69.446,69.446,0,0,0-4.986,5.042l-1.438,3.028a5.3,5.3,0,0,1-2.022,1.709,15.979,15.979,0,0,1-2.823.989.921.921,0,0,1-1.007-.387,11.41,11.41,0,0,1-1.509-2.931" transform="translate(-57.18 -37.742)" fill="#dd8c6a"/>
            <path id="Trazado_814992" data-name="Trazado 814992" d="M235.033,121.786s-5.086,9.508-5.426,25.361.363,24.292-2.6,24.78-3.616-1.52-3.616-1.52.875-8.614.875-10.719-.931-14.813,0-23.9,0-8.526,1.539-9.545,5.074-3.619,9.226-4.452" transform="translate(-50.318 -28.083)" fill="#3b1335"/>
            <g id="Grupo_1070309" data-name="Grupo 1070309" transform="translate(199.823 104.221)" opacity="0.2">
              <g id="Grupo_1070308" data-name="Grupo 1070308">
                <g id="Grupo_1070307" data-name="Grupo 1070307" clip-path="url(#clip-path-22)">
                  <path id="Trazado_814993" data-name="Trazado 814993" d="M260.974,152.85l-3.056-17.394s2.521,2.548,4.387,4.5c-.359,3.554-.882,8.572-1.332,12.9" transform="translate(-257.918 -135.456)"/>
                </g>
              </g>
            </g>
            <path id="Trazado_814994" data-name="Trazado 814994" d="M259.573,123.7s-2.073,5.239-1.67,9.049c.17,1.609,11.735,13.923,11.735,13.923l-8.716,11.48,4.49,3.879s12.359-12.186,12.5-15.489-13.68-21.454-18.335-22.842" transform="translate(-58.08 -28.523)" fill="#3b1335"/>
            <path id="Trazado_814995" data-name="Trazado 814995" d="M245.208,100.015c-.078.4-.356.681-.624.631s-.413-.415-.329-.819.357-.68.619-.63.412.415.334.819" transform="translate(-55.012 -22.872)" fill="#263238"/>
            <path id="Trazado_814996" data-name="Trazado 814996" d="M239.32,98.857c-.078.4-.356.681-.618.631s-.412-.415-.335-.819.357-.681.619-.631.418.415.334.819" transform="translate(-53.687 -22.605)" fill="#263238"/>
            <path id="Trazado_814997" data-name="Trazado 814997" d="M239.049,97.958l-.913-.465s.351.846.913.465" transform="translate(-53.639 -22.481)" fill="#263238"/>
            <path id="Trazado_814998" data-name="Trazado 814998" d="M244.939,99.116l-.913-.465s.351.846.913.465" transform="translate(-54.966 -22.748)" fill="#263238"/>
            <path id="Trazado_814999" data-name="Trazado 814999" d="M241.587,107.393a4.175,4.175,0,0,1-.753.018.13.13,0,0,1-.124-.136v0a.132.132,0,0,1,.136-.122,3.583,3.583,0,0,0,2.976-1.193.135.135,0,0,1,.186-.029.131.131,0,0,1,.029.184,3.711,3.711,0,0,1-2.451,1.284" transform="translate(-54.219 -24.419)" fill="#263238"/>
            <path id="Trazado_815000" data-name="Trazado 815000" d="M251.531,88.823a27.64,27.64,0,0,1-.946,20.672c.668-.2,1.39-.351,2.057-.548.325-.85.584-1.727.909-2.577-.11.806-.315,1.728-.425,2.534l1.818-.327c.32-.829.581-1.747.9-2.577-.143.735-.3,1.756-.444,2.491a10.133,10.133,0,0,0,4.18-6.071,12.34,12.34,0,0,0-1.03-8.1c-1.5-2.606-4.126-3.683-7.019-5.5" transform="translate(-56.443 -20.482)" fill="#263238"/>
            <path id="Trazado_815001" data-name="Trazado 815001" d="M256.311,105.238a4.766,4.766,0,0,1-2.295,2.8c-1.48.775-2.574-.446-2.461-2.017.1-1.409.99-3.518,2.614-3.649a2.122,2.122,0,0,1,2.142,2.863" transform="translate(-56.66 -23.605)" fill="#dd8c6a"/>
            <path id="Trazado_815002" data-name="Trazado 815002" d="M237.982,136.1a1.517,1.517,0,0,1-.676-.165,1.708,1.708,0,0,1-.935-1.238,2.343,2.343,0,0,1,1.18-2.246,6.283,6.283,0,0,1,2.265-.742.418.418,0,0,1,.093-.006l.628.033a.385.385,0,0,1-.01.769c-.377.01-.836.787-.933,1.393l-.015.091a2.431,2.431,0,0,1-.985,1.959,1.305,1.305,0,0,1-.613.151m1.295-3.5a4.131,4.131,0,0,0-1.309.5,1.623,1.623,0,0,0-.831,1.485.936.936,0,0,0,.515.663.63.63,0,0,0,.575.025c.4-.214.5-.817.587-1.4l.015-.092a3.341,3.341,0,0,1,.448-1.176" transform="translate(-53.237 -30.369)" fill="#fff"/>
            <path id="Trazado_815003" data-name="Trazado 815003" d="M243.812,136.361a1.308,1.308,0,0,1-.742-.225,2.423,2.423,0,0,1-.767-2.052l0-.093c-.03-.612-.4-1.434-.776-1.484a.385.385,0,0,1-.334-.417.389.389,0,0,1,.406-.349l.629.034a.368.368,0,0,1,.091.016,6.273,6.273,0,0,1,2.172.979,2.34,2.34,0,0,1,.929,2.359,1.708,1.708,0,0,1-1.064,1.131,1.556,1.556,0,0,1-.541.1m-1.057-3.624a3.316,3.316,0,0,1,.317,1.216l0,.095c.028.589.057,1.2.432,1.454a.637.637,0,0,0,.574.038.944.944,0,0,0,.585-.606A1.619,1.619,0,0,0,244,133.37a4.1,4.1,0,0,0-1.247-.633" transform="translate(-54.326 -30.378)" fill="#fff"/>
            <path id="Trazado_815004" data-name="Trazado 815004" d="M238.623,140.361a.368.368,0,0,1-.118-.018.385.385,0,0,1-.252-.483,35.8,35.8,0,0,0,1.529-7.322.387.387,0,0,1,.771.078,36.684,36.684,0,0,1-1.561,7.479.388.388,0,0,1-.37.267" transform="translate(-53.662 -30.482)" fill="#fff"/>
            <path id="Trazado_815005" data-name="Trazado 815005" d="M242.38,142.2a.387.387,0,0,1-.361-.245,7.3,7.3,0,0,1-.5-2.414,14.169,14.169,0,0,1,.208-2.505c.06-.416.12-.833.16-1.25a5,5,0,0,0-.6-3.345.382.382,0,0,1,.105-.533.389.389,0,0,1,.538.1,5.717,5.717,0,0,1,.724,3.846c-.041.429-.1.859-.163,1.286a13.5,13.5,0,0,0-.2,2.371,6.538,6.538,0,0,0,.448,2.162.386.386,0,0,1-.361.524" transform="translate(-54.335 -30.402)" fill="#fff"/>
            <path id="Trazado_815006" data-name="Trazado 815006" d="M247.843,97.136c-.419-.382-1.007-.848-1.426-1.23a8.291,8.291,0,0,0,.2-2.559c-.2.676-.253,1.37-.449,2.046l-1.429-.936a2.1,2.1,0,0,0-1.194-.475c.081-.7.113-1.417.194-2.121-.159.627-.344,1.316-.5,1.944-.554-.077-1.2-.208-1.749-.285.064-.751.158-1.478.222-2.229-.24.586-.411,1.59-.652,2.174l-.162-.226a13.4,13.4,0,0,0-4.848-.267c-.538-2.117.112-5.107,2.2-5.8,7.091-2.346,12.893,3.154,13.059,3.607,1.06,2.9-.9,4.818-3.462,6.354" transform="translate(-53.128 -19.968)" fill="#263238"/>
            <path id="Trazado_815007" data-name="Trazado 815007" d="M254.3,107.769a.674.674,0,1,1-.674-.669.672.672,0,0,1,.674.669" transform="translate(-56.976 -24.696)" fill="#632059"/>
            <path id="Trazado_815008" data-name="Trazado 815008" d="M215.679,318.252c-3.739,2.038-4.157,2.076-8.289,2.848-.909.169-.59,2.306,1.523,2.356,3.49.112,3.193-.016,6.177.06,2.541.067,5.6.28,7.625.365.022,0,.046,0,.068,0a.839.839,0,0,0,.789-.886l-.445-4.568a.406.406,0,0,0-.4-.36l-5.765-.163a2.511,2.511,0,0,0-1.287.349" transform="translate(-46.606 -73.305)" fill="#263238"/>
            <path id="Trazado_815009" data-name="Trazado 815009" d="M217.464,318.757a.111.111,0,0,0-.017-.125.127.127,0,0,0-.138-.033c-.243.088-2.4.929-2.565,1.617a.393.393,0,0,0,.105.366.689.689,0,0,0,.6.225c.752-.081,1.589-1.306,2.017-2.028Zm-2.471,1.463a5.15,5.15,0,0,1,2.066-1.263c-.618.966-1.224,1.558-1.644,1.6a.425.425,0,0,1-.391-.149.141.141,0,0,1-.043-.14Z" transform="translate(-48.368 -73.464)" fill="#407bff"/>
            <path id="Trazado_815010" data-name="Trazado 815010" d="M217.45,318.544l.02-.022a.118.118,0,0,0-.05-.114,3.467,3.467,0,0,0-2.005-.729.905.905,0,0,0-.609.361c-.2.27-.138.455-.05.562.38.47,2.021.287,2.645.018a.115.115,0,0,0,.05-.075m-2.522-.256.082-.094a.647.647,0,0,1,.447-.265,2.9,2.9,0,0,1,1.637.552c-.712.217-1.915.252-2.141-.022a.134.134,0,0,1-.011-.159Z" transform="translate(-48.354 -73.25)" fill="#407bff"/>
            <path id="Trazado_815011" data-name="Trazado 815011" d="M262.57,318.594a18.036,18.036,0,0,1-7.258,3.561c-1.1.307-.406,2.336,2.225,2.277,4.362-.067,2.627-.142,6.355-.219,3.183-.065,4.027-.089,6.555-.105.029,0,.057,0,.084-.005a.946.946,0,0,0,.928-1l-.841-4.91a.494.494,0,0,0-.517-.368l-6.655.178c-.577-.034-.434.27-.877.59" transform="translate(-57.395 -73.287)" fill="#263238"/>
            <path id="Trazado_815012" data-name="Trazado 815012" d="M263.658,319.256a.121.121,0,0,0,.029-.139.145.145,0,0,0-.131-.1c-.328.005-3.224.092-3.676.762a.361.361,0,0,0-.029.407.863.863,0,0,0,.61.442c.917.179,2.406-.769,3.221-1.361Zm-3.532.615a6.9,6.9,0,0,1,2.955-.564,4.637,4.637,0,0,1-2.6,1.062.545.545,0,0,1-.4-.29.142.142,0,0,1,.005-.164Z" transform="translate(-58.519 -73.563)" fill="#407bff"/>
            <path id="Trazado_815013" data-name="Trazado 815013" d="M263.837,318.837l.029-.029a.114.114,0,0,0-.013-.127,4.371,4.371,0,0,0-2.062-1.456,1.232,1.232,0,0,0-.868.159c-.346.2-.357.412-.29.553.243.6,2.261,1.006,3.108.949a.153.153,0,0,0,.1-.048m-2.87-1.162.1-.1a.911.911,0,0,1,.635-.11,3.552,3.552,0,0,1,1.7,1.142c-.935-.042-2.368-.42-2.515-.778.035-.025.013-.083.1-.171Z" transform="translate(-58.699 -73.144)" fill="#407bff"/>
          </g>
        </g>
        <g id="Grupo_1070343" data-name="Grupo 1070343">
          <g id="Grupo_1070342" data-name="Grupo 1070342" clip-path="url(#clip-path-2)">
            <path id="Trazado_815014" data-name="Trazado 815014" d="M176.73,160.341c-1.089,2.141,2.544,4.765,2.544,4.765l1.721,1.749a1.7,1.7,0,0,0,2.248.212l1.7-1.2c.018-.012.035-.024.051-.037a1.671,1.671,0,0,0,.345-2.351l-1.136-1.54a5.44,5.44,0,0,0-1.732-1.518l-3.268-1.808Z" transform="translate(-39.762 -36.575)" fill="#ffc3bd"/>
            <path id="Trazado_815015" data-name="Trazado 815015" d="M158.191,99.062a5.1,5.1,0,0,1,9.351.215l.106.275a14.1,14.1,0,0,1,.768,5.866c-.046,1.964-.109,3.958-.077,5.858s-.026,8.764.064,10.622c.061,1.727,3.568,9.521,6.942,20.776a3.9,3.9,0,0,0,.253.632l.628,1.236s-.937.6-1.9,1.165a11.02,11.02,0,0,1-2.535,1.417,5.591,5.591,0,0,1-1.228-1.6c-2.716-4.251-11.572-20.028-12.039-22.338-.457-2.136-.752-9.214-.976-11.386-.229-2.124-.356-4.253-.413-6.377a19.11,19.11,0,0,1,.119-3.192,11.334,11.334,0,0,1,.895-3.2Z" transform="translate(-35.39 -22.16)" fill="#263238"/>
            <g id="Grupo_1070314" data-name="Grupo 1070314" transform="translate(121.727 73.942)" opacity="0.3">
              <g id="Grupo_1070313" data-name="Grupo 1070313">
                <g id="Grupo_1070312" data-name="Grupo 1070312" clip-path="url(#clip-path-24)">
                  <path id="Trazado_815016" data-name="Trazado 815016" d="M158.191,99.062a5.1,5.1,0,0,1,9.351.215l.106.275a14.1,14.1,0,0,1,.768,5.866c-.046,1.964-.109,3.958-.077,5.858s-.026,8.764.064,10.622c.061,1.727,3.568,9.521,6.942,20.776a3.9,3.9,0,0,0,.253.632l.628,1.236s-.937.6-1.9,1.165a11.02,11.02,0,0,1-2.535,1.417,5.591,5.591,0,0,1-1.228-1.6c-2.716-4.251-11.572-20.028-12.039-22.338-.457-2.136-.752-9.214-.976-11.386-.229-2.124-.356-4.253-.413-6.377a19.11,19.11,0,0,1,.119-3.192,11.334,11.334,0,0,1,.895-3.2Z" transform="translate(-157.117 -96.102)" fill="#2f4419"/>
                </g>
              </g>
            </g>
            <path id="Trazado_815017" data-name="Trazado 815017" d="M122.58,100.778c1.329,15.154,6.395,23.693,5.714,35.808,0,0,27.505.535,28.447.535.4-22.324,3.609-20.614,2.63-34.738.169-4.656-2.489-7.5-5.174-7.964l-11.72-2.408-15.1,2.577a5.775,5.775,0,0,0-4.8,6.191" transform="translate(-27.606 -21.217)" fill="#407bff"/>
            <path id="Trazado_815018" data-name="Trazado 815018" d="M150.473,283.775l3.56,27.965,6.944-.492L159.1,283.775Z" transform="translate(-33.893 -65.435)" fill="#ffc3bd"/>
            <path id="Trazado_815019" data-name="Trazado 815019" d="M159.663,225.058c.622,26.375-.91,48.982-.91,48.982l-9.364.626s-5.281-34.22-3.152-48.2c-.1-2.939-3.525-39.7-4.7-46.646-2.124-12.472-4.408-21.028-4.408-21.028l22.046-1.223s.1,50.886.49,67.489" transform="translate(-30.887 -36.334)" fill="#a9b3a0"/>
            <g id="Grupo_1070317" data-name="Grupo 1070317" transform="translate(110.647 132.046)" opacity="0.2" style="isolation: isolate">
              <g id="Grupo_1070316" data-name="Grupo 1070316">
                <g id="Grupo_1070315" data-name="Grupo 1070315" clip-path="url(#clip-path-25)">
                  <path id="Trazado_815020" data-name="Trazado 815020" d="M148.37,171.619s-.715,28.9-1.99,44.739c-.657-8.564-2.386-26.35-3.565-33.3Z" transform="translate(-142.816 -171.619)"/>
                </g>
              </g>
            </g>
            <path id="Trazado_815021" data-name="Trazado 815021" d="M111.787,284.341l-2.856,26.506,6.921-.745,5.02-26.091Z" transform="translate(-24.536 -65.49)" fill="#ffc3bd"/>
            <path id="Trazado_815022" data-name="Trazado 815022" d="M107.809,273.483l10.623-.385s9.053-32.385,12.867-49.5c3.7-19.071,10.617-66.678,10.617-66.678l-17.656-1.37c-9.409,16.876-6.023,57.27-7.689,68.582-7.982,14.149-8.762,49.352-8.762,49.352" transform="translate(-24.284 -35.868)" fill="#a9b3a0"/>
            <path id="Trazado_815023" data-name="Trazado 815023" d="M156.61,146.542H130.754s-4.238,14.861-4.2,14.715,30.353,1.466,30.353,1.466Z" transform="translate(-28.505 -33.791)" fill="#3b5620"/>
            <path id="Trazado_815024" data-name="Trazado 815024" d="M162.749,316.4c4.58,2.328,5.086,2.359,10.1,3.146,1.1.172.793,2.76-1.753,2.894-4.205.255-3.851.092-7.447.288-3.063.169-7.5.532-9.932.706-.027,0-.054,0-.082,0a1.011,1.011,0,0,1-.982-1.04l.374-5.525a.489.489,0,0,1,.466-.448l7.695-.4a3.022,3.022,0,0,1,1.564.376" transform="translate(-34.384 -72.872)" fill="#263238"/>
            <path id="Trazado_815025" data-name="Trazado 815025" d="M165.664,317.026c.542.856,1.594,2.3,2.5,2.375a.83.83,0,0,0,.71-.291.475.475,0,0,0,.114-.445c-.226-.824-2.854-1.762-3.151-1.86a.152.152,0,0,0-.165.044.137.137,0,0,0-.016.152Zm3.045,1.714a.17.17,0,0,1-.048.17.511.511,0,0,1-.466.195c-.508-.041-1.261-.733-2.04-1.877a6.22,6.22,0,0,1,2.536,1.451Z" transform="translate(-37.311 -73.05)" fill="#407bff"/>
            <path id="Trazado_815026" data-name="Trazado 815026" d="M165.719,316.814c.763.3,2.749.467,3.19-.112.1-.132.167-.358-.081-.676a1.1,1.1,0,0,0-.748-.414,4.185,4.185,0,0,0-2.392.948.143.143,0,0,0-.057.14l.024.026a.137.137,0,0,0,.063.088m2.954-.471a.159.159,0,0,1-.008.192c-.263.339-1.715.338-2.582.1a3.5,3.5,0,0,1,1.955-.723.778.778,0,0,1,.549.305l.1.11Z" transform="translate(-37.308 -72.774)" fill="#407bff"/>
            <path id="Trazado_815027" data-name="Trazado 815027" d="M116.945,315.922a21.75,21.75,0,0,0,8.756,4.3c1.324.37.49,2.818-2.685,2.748-5.263-.081-3.17-.171-7.666-.265-3.84-.078-4.858-.108-7.909-.128-.034,0-.068,0-.1-.006a1.143,1.143,0,0,1-1.12-1.2l1.015-5.925a.594.594,0,0,1,.624-.443l8.029.215c.7-.042.524.325,1.058.712" transform="translate(-23.924 -72.634)" fill="#263238"/>
            <path id="Trazado_815028" data-name="Trazado 815028" d="M120.081,316.74c.983.713,2.78,1.858,3.886,1.642a1.045,1.045,0,0,0,.735-.534.437.437,0,0,0-.035-.491c-.547-.808-4.04-.913-4.435-.919a.175.175,0,0,0-.158.115.145.145,0,0,0,.034.167Zm4.341.775a.17.17,0,0,1,.006.2.659.659,0,0,1-.481.35,5.6,5.6,0,0,1-3.142-1.282c1.36.065,3.165.273,3.565.681Z" transform="translate(-27.043 -72.967)" fill="#407bff"/>
            <path id="Trazado_815029" data-name="Trazado 815029" d="M120.223,316.272c1.021.068,3.456-.425,3.75-1.145.081-.169.067-.423-.349-.667a1.487,1.487,0,0,0-1.047-.191,5.278,5.278,0,0,0-2.489,1.757.136.136,0,0,0-.015.152l.035.035a.185.185,0,0,0,.115.058m3.324-1.483c.1.106.078.176.12.206-.176.432-1.906.889-3.034.939a4.284,4.284,0,0,1,2.049-1.377,1.1,1.1,0,0,1,.766.132l.122.124Z" transform="translate(-27.042 -72.461)" fill="#407bff"/>
            <g id="Grupo_1070320" data-name="Grupo 1070320" transform="translate(94.952 70.794)" opacity="0.8">
              <g id="Grupo_1070319" data-name="Grupo 1070319">
                <g id="Grupo_1070318" data-name="Grupo 1070318" clip-path="url(#clip-path-26)">
                  <path id="Trazado_815030" data-name="Trazado 815030" d="M122.58,100.778c1.329,15.154,6.395,23.693,5.714,35.808,0,0,27.505.535,28.447.535.4-22.324,3.609-20.614,2.63-34.738.169-4.656-2.615-7.533-5.3-7.995l-11.595-2.377-15.1,2.577a5.775,5.775,0,0,0-4.8,6.191" transform="translate(-122.558 -92.011)" fill="#fff"/>
                </g>
              </g>
            </g>
            <path id="Trazado_815031" data-name="Trazado 815031" d="M156.918,125.037l-3.118,5.481-5.614-5.93c-.025-.152,2.4-25.045,2.4-25.045l1.45-.106c-.116,3.018,4.876,25.6,4.876,25.6" transform="translate(-33.378 -22.929)" fill="#1b3f5e"/>
            <path id="Trazado_815032" data-name="Trazado 815032" d="M157.326,97.128a71.11,71.11,0,0,1-3.2,31.606l2.32,24.879c.459,3.613,2.794,4.32,4.878,4.51l4.273-.335-1.528-23.744s3.495-26.162,2.691-32.087c-.531-3.906-1.835-5.43-2.768-6.225a3.1,3.1,0,0,0-1.38-.661c-1.629-.342-6.418-1.621-6.2-1.537.266.1.916,3.593.916,3.593" transform="translate(-34.715 -21.567)" fill="#2f4419"/>
            <path id="Trazado_815033" data-name="Trazado 815033" d="M152.3,82.483c-.59,2.781-1.5,6.563,1.525,7.859,1.321.566,1.953,2.41.678,3.008-1.243.583-9.492.026-10.217-.344-1.78-.906-3.038-1.561-2.075-3.3,1.673-3.025.611-9.35.389-12.387Z" transform="translate(-31.958 -17.828)" fill="#ffc3bd"/>
            <path id="Trazado_815034" data-name="Trazado 815034" d="M153.2,97.581l-.377,1.19a.707.707,0,0,1-.561.557l-1.45.106a.546.546,0,0,1-.524-.376l-.7-1.059,1.8-1.053Z" transform="translate(-33.693 -22.355)" fill="#1b3f5e"/>
            <g id="Grupo_1070323" data-name="Grupo 1070323" transform="translate(112.592 63.878)" opacity="0.2" style="isolation: isolate">
              <g id="Grupo_1070322" data-name="Grupo 1070322">
                <g id="Grupo_1070321" data-name="Grupo 1070321" clip-path="url(#clip-path-27)">
                  <path id="Trazado_815035" data-name="Trazado 815035" d="M145.326,83.022a9.473,9.473,0,0,0,1.857,2.893c1.12,1.276,3.238,1.838,5.28,1.838a20.507,20.507,0,0,1,.6-3.986l-.426-.222Z" transform="translate(-145.326 -83.022)"/>
                </g>
              </g>
            </g>
            <path id="Trazado_815036" data-name="Trazado 815036" d="M136.479,157.739c6.974.469,8.906-.241,9.881-5.641,0,0,1.84-19.371,1.479-23.654,0,0-4.68-9.007-5.566-15.26-.992-7-5.318-20.993-6.561-20.907-2.392.165-11.328,3.272-12.773,5.173-1.925,2.532-.675,5.457-.221,8.6,1.453,10.053,2.55,13.514,3.113,23.655,0,0-4.68,26.161-3.933,26.252.5.061,8.995,1.409,14.579,1.785" transform="translate(-27.439 -21.278)" fill="#2f4419"/>
            <g id="Grupo_1070326" data-name="Grupo 1070326" transform="translate(100.689 115.37)" opacity="0.2">
              <g id="Grupo_1070325" data-name="Grupo 1070325">
                <g id="Grupo_1070324" data-name="Grupo 1070324" clip-path="url(#clip-path-28)">
                  <path id="Trazado_815037" data-name="Trazado 815037" d="M129.963,149.946h11.9v.528a2.843,2.843,0,0,1-2.853,2.833h-6.2a2.843,2.843,0,0,1-2.853-2.833Z" transform="translate(-129.963 -149.946)" fill="#fff"/>
                </g>
              </g>
            </g>
            <g id="Grupo_1070329" data-name="Grupo 1070329" transform="translate(124.934 115.427)" opacity="0.2">
              <g id="Grupo_1070328" data-name="Grupo 1070328">
                <g id="Grupo_1070327" data-name="Grupo 1070327" clip-path="url(#clip-path-29)">
                  <path id="Trazado_815038" data-name="Trazado 815038" d="M165.924,153.453l-1.676,0a2.846,2.846,0,0,1-2.97-2.713l-.022-.527,4.607-.191Z" transform="translate(-161.256 -150.02)" fill="#fff"/>
                </g>
              </g>
            </g>
            <path id="Trazado_815039" data-name="Trazado 815039" d="M156.756,74.572c-.757,5.5-7.194,8.667-11.71,4.959-2.607-2.135-3.129-4.8-3.778-8.964-.1-.632-.2-1.295-.318-2a7.472,7.472,0,0,1,.185-3.291,6.717,6.717,0,0,1,.508-1.289,7.5,7.5,0,0,1,8.752-3.822c5.521,1.573,7.048,9.463,6.361,14.409" transform="translate(-31.725 -13.806)" fill="#ffc3bd"/>
            <path id="Trazado_815040" data-name="Trazado 815040" d="M142.625,65.793a22.071,22.071,0,0,1,1.9,3.831,5.033,5.033,0,0,0-1.406.55c-.408.251.019,1.453.207,1.9a21.489,21.489,0,0,0,1.312,2.61,9.344,9.344,0,0,1-2.238.646,4.025,4.025,0,0,0-1.008-1.509,2.069,2.069,0,0,0-2.225-.656c-.138-.688-4.19-3.777-.817-5.851a7.474,7.474,0,0,1,1.622-.963c.249-.093.5-.189.748-.282a5.743,5.743,0,0,1,1.905-.275" transform="translate(-30.861 -15.171)" fill="#263238"/>
            <path id="Trazado_815041" data-name="Trazado 815041" d="M139.519,73.59c1.73-.4,3.333,1.491,3.893,2.918.635,1.586-.128,3.215-1.908,2.893a5.09,5.09,0,0,1-3.289-2.154,2.306,2.306,0,0,1,1.3-3.658" transform="translate(-31.03 -16.957)" fill="#ffc3bd"/>
            <path id="Trazado_815042" data-name="Trazado 815042" d="M153.275,70.61c.287-.032.553.3.6.739s-.115.815-.439.846-.591-.3-.636-.739c-.038-.461.191-.815.477-.846" transform="translate(-34.416 -16.282)" fill="#263238"/>
            <path id="Trazado_815043" data-name="Trazado 815043" d="M159.694,70.157c.286-.032.553.3.6.732s-.146.815-.439.846-.559-.3-.6-.732.16-.815.445-.846" transform="translate(-35.869 -16.177)" fill="#263238"/>
            <path id="Trazado_815044" data-name="Trazado 815044" d="M157.956,76.058a2.555,2.555,0,0,0,1.991-.839,15.4,15.4,0,0,1-2.826-3.241Z" transform="translate(-35.391 -16.597)" fill="#f98c8c"/>
            <path id="Trazado_815045" data-name="Trazado 815045" d="M151.744,69.163a2.1,2.1,0,0,1,1.577-1.036.288.288,0,0,0,.081,0,.259.259,0,1,0-.081-.512,2.589,2.589,0,0,0-2,1.263.257.257,0,0,0,.083.353.228.228,0,0,0,.127.038.269.269,0,0,0,.21-.108" transform="translate(-34.076 -15.591)" fill="#263238"/>
            <path id="Trazado_815046" data-name="Trazado 815046" d="M160.414,68.644l0,0a.258.258,0,0,0,.041-.364,2.548,2.548,0,0,0-2.131-1.011h-.009a.254.254,0,0,0-.227.277l0,.022a.247.247,0,0,0,.278.212,2.059,2.059,0,0,1,1.679.823.259.259,0,0,0,.222.1.3.3,0,0,0,.14-.058" transform="translate(-35.609 -15.511)" fill="#263238"/>
            <path id="Trazado_815047" data-name="Trazado 815047" d="M147.067,124.015a31.923,31.923,0,0,0-4.1-9.687c-.732-1.045-1.574-2.009-2.316-3.047a41.721,41.721,0,0,1-2.865-4.263c.856-.742,1.979-1.576,2.894-2.245l-3.456-2.841a35.729,35.729,0,0,0,1.188-10.008,1.8,1.8,0,0,1,1.3-.309,27.279,27.279,0,0,1,2.581,5.114,26.009,26.009,0,0,1,.975,3.187,136.666,136.666,0,0,1,3.8,24.1" transform="translate(-30.908 -21.12)" fill="#3b5620"/>
            <g id="Grupo_1070332" data-name="Grupo 1070332" transform="translate(106.314 70.207)" opacity="0.2">
              <g id="Grupo_1070331" data-name="Grupo 1070331">
                <g id="Grupo_1070330" data-name="Grupo 1070330" clip-path="url(#clip-path-30)">
                  <path id="Trazado_815048" data-name="Trazado 815048" d="M150.874,127.441a.135.135,0,0,0-.031.038c-.054-.069-.1-.154-.155-.239-2.2-3.4-12.21-18.928-12.907-20.22.86-.746,1.983-1.577,2.9-2.247-1.154-.946-2.3-1.893-3.455-2.839a35.78,35.78,0,0,0,1.185-10.01,1.782,1.782,0,0,1,1.3-.308,26.852,26.852,0,0,1,2.588,5.109,25.687,25.687,0,0,1,.968,3.193c1.96,7.648,4.005,20.112,7.453,27.214.054.108.1.208.155.308" transform="translate(-137.223 -91.596)" fill="#fff"/>
                </g>
              </g>
            </g>
            <path id="Trazado_815049" data-name="Trazado 815049" d="M160.416,126.067a31.812,31.812,0,0,1,1.111-10.451c.4-1.21.923-2.374,1.33-3.581.528-1.562,2.134-3.449,2.457-5.065-1.035-.465-2.354-.941-3.424-1.32l2.483-3.711c-1.777-2.871-4.5-5.208-5.4-8.457a1.8,1.8,0,0,0-1.339.079c-.553,1.8.315,7.071.365,8.181.366,8.169.611,16.347,2.42,24.324" transform="translate(-35.464 -21.534)" fill="#3b5620"/>
            <g id="Grupo_1070335" data-name="Grupo 1070335" transform="translate(119.57 71.446)" opacity="0.2">
              <g id="Grupo_1070334" data-name="Grupo 1070334" transform="translate(0 0)">
                <g id="Grupo_1070333" data-name="Grupo 1070333" clip-path="url(#clip-path-31)">
                  <path id="Trazado_815050" data-name="Trazado 815050" d="M164.614,106.93c-1.929,5.247-5.95,16.127-9.886,20.882a.136.136,0,0,0-.031.038c-.124.146-.24.285-.364.415.07-.223.139-.439.209-.654a.787.787,0,0,1,.031-.108c3.587-11.557,3.084-17.812,2.719-25.806-.046-1.108-.914-6.517-.364-8.317a1.763,1.763,0,0,1,1.34-.077c.906,3.247,3.626,5.724,5.4,8.594-.821,1.239-1.65,2.47-2.479,3.709,1.069.377,2.386.854,3.424,1.323" transform="translate(-154.333 -93.206)" fill="#fff"/>
                </g>
              </g>
            </g>
            <g id="Grupo_1070338" data-name="Grupo 1070338" transform="translate(94.573 80.804)" opacity="0.3">
              <g id="Grupo_1070337" data-name="Grupo 1070337">
                <g id="Grupo_1070336" data-name="Grupo 1070336" clip-path="url(#clip-path-32)">
                  <path id="Trazado_815051" data-name="Trazado 815051" d="M122.151,106a80.64,80.64,0,0,0,8.113,13.15c5.833,7.961,9.113,7.961,9.113,7.961l4.276,1.277s-1.1-20.079-13.526-23.1c-3.71-.9-8.771.729-7.975.708" transform="translate(-122.068 -105.02)"/>
                </g>
              </g>
            </g>
            <path id="Trazado_815052" data-name="Trazado 815052" d="M183.054,123.282l-6.393.291v3.5l6.393-.893Z" transform="translate(-39.792 -28.428)" fill="#ffc3bd"/>
            <path id="Trazado_815053" data-name="Trazado 815053" d="M182.535,125.584c-.13,3.068,3.655,3.776,3.655,3.776l1.964,1.6a1.742,1.742,0,0,0,2.263-.025l1.625-1.374.05-.043a1.712,1.712,0,0,0,.1-2.431l-1.32-1.449a5.475,5.475,0,0,0-1.931-1.362l-4.569-1Z" transform="translate(-41.115 -28.427)" fill="#ffc3bd"/>
            <path id="Trazado_815054" data-name="Trazado 815054" d="M122.77,99.883a7.813,7.813,0,0,0,.853,7.906c3.592,5.434,15.444,12.652,17.8,14.246,5.364,3.632,27.089-.606,27.089-.606l.315-5.33-23.219-1.154s-7.8-12.9-13.165-16.84c-2.687-1.974-7.829-1.8-9.672,1.777" transform="translate(-27.49 -22.332)" fill="#2f4419"/>
            <path id="Trazado_815055" data-name="Trazado 815055" d="M143.7,58.236a2.556,2.556,0,0,0-2.007.636,8.069,8.069,0,0,0-3.037,4.679,2.351,2.351,0,0,0-.029,1.163,1,1,0,0,0,.82.748,4.692,4.692,0,0,1,1.971-1.22,27.56,27.56,0,0,1,4.661-1.068,59.431,59.431,0,0,0,8.463-1.92c.549-.162,1.182-.408,1.326-.959.155-.6-1.041-1.433-.846-1.617.3-.285.72-.553.727-.969a1.039,1.039,0,0,0-.137-.467,2.2,2.2,0,0,0-1.224-1.19,1.126,1.126,0,0,0-1.419.668,12.1,12.1,0,0,0-.339-1.474,1.049,1.049,0,0,0-.6-.467,2.48,2.48,0,0,0-2.257.479,7.263,7.263,0,0,0-1.539,1.824c-.8,1.194-3.126,1.478-4.534,1.155" transform="translate(-31.212 -12.607)" fill="#263238"/>
            <path id="Trazado_815056" data-name="Trazado 815056" d="M154.521,78.312l0,0a.121.121,0,0,1,.025-.17.122.122,0,0,1,.166.017,3.289,3.289,0,0,0,2.79.992.122.122,0,1,1,.026.242,3.491,3.491,0,0,1-3-1.079" transform="translate(-34.8 -18.012)" fill="#263238"/>
            <path id="Trazado_815057" data-name="Trazado 815057" d="M140.419,91.731l1.973-.615a19.212,19.212,0,0,0,7.279,4.947,7.369,7.369,0,0,0-2.881,3.182c-6.586-2.586-6.37-7.515-6.37-7.515" transform="translate(-31.629 -21.01)" fill="#fff"/>
            <path id="Trazado_815058" data-name="Trazado 815058" d="M156.018,92.212l-1.79-.465s-.915,3.7-2.8,4.132c3.183,1.409,3.641,3.025,3.641,3.025,4.743-1.269.949-6.693.949-6.693" transform="translate(-34.109 -21.156)" fill="#fff"/>
            <g id="Grupo_1070341" data-name="Grupo 1070341" transform="translate(116.748 107.325)" opacity="0.3">
              <g id="Grupo_1070340" data-name="Grupo 1070340">
                <g id="Grupo_1070339" data-name="Grupo 1070339" clip-path="url(#clip-path-33)">
                  <path id="Trazado_815059" data-name="Trazado 815059" d="M152.132,140.245a.721.721,0,1,1-.68-.754.719.719,0,0,1,.68.754" transform="translate(-150.691 -139.49)" fill="#fff"/>
                </g>
              </g>
            </g>
          </g>
        </g>
      </g>
    </g>
  </g>
</svg>
