<svg xmlns="http://www.w3.org/2000/svg" width="130" height="130" viewBox="0 0 130 130">
  <g id="Grupo_1072510" data-name="Grupo 1072510" transform="translate(-1080.855 -4694.697)">
    <circle id="Elipse_5779" data-name="Elipse 5779" cx="65" cy="65" r="65" transform="translate(1080.855 4694.697)" fill="#3b5620"/>
    <g id="Grupo_1069914" data-name="Grupo 1069914" transform="translate(4593.855 2842.742)">
      <circle id="Elipse_5755" data-name="Elipse 5755" cx="59.894" cy="59.894" r="59.894" transform="translate(-3508 1857.955)" fill="#fff"/>
    </g>
    <g id="Grupo_1072511" data-name="Grupo 1072511" transform="translate(1117.229 4717.171)">
      <path id="Trazado_817750" data-name="Trazado 817750" d="M115.127,42.316H63.971a3.048,3.048,0,0,0-3.048,3.048v63.473a3.048,3.048,0,0,0,3.048,3.048h51.156a3.048,3.048,0,0,0,3.048-3.048V45.364A3.048,3.048,0,0,0,115.127,42.316Z" transform="translate(-60.923 -35.762)" fill="#afafaf"/>
      <rect id="Rectángulo_376609" data-name="Rectángulo 376609" width="50.544" height="62.349" transform="translate(3.355 10.559)" fill="#ebf0f3"/>
      <rect id="Rectángulo_376610" data-name="Rectángulo 376610" width="50.544" height="62.349" transform="translate(3.355 9.03)" fill="#fff"/>
      <rect id="Rectángulo_376611" data-name="Rectángulo 376611" width="31.579" height="2.476" transform="translate(12.838 6.554)" fill="#3a556a"/>
      <rect id="Rectángulo_376612" data-name="Rectángulo 376612" width="31.579" height="5.443" transform="translate(12.838 9.03)" fill="#e1e6e9"/>
      <path id="Trazado_817751" data-name="Trazado 817751" d="M184.1,4.53h-7.632a4.655,4.655,0,0,0-9.307,0H159.53A1.265,1.265,0,0,0,158.265,5.8v6.438h27.1V5.8A1.265,1.265,0,0,0,184.1,4.53Z" transform="translate(-143.19 0)" fill="#fdc129"/>
      <rect id="Rectángulo_376613" data-name="Rectángulo 376613" width="4.829" height="6.665" transform="translate(6.677 33.129)" fill="#632059"/>
      <rect id="Rectángulo_376614" data-name="Rectángulo 376614" width="4.829" height="14.191" transform="translate(13.183 25.604)" fill="#1b3f5e"/>
      <rect id="Rectángulo_376615" data-name="Rectángulo 376615" width="4.829" height="21.799" transform="translate(19.69 17.996)" fill="#90c859"/>
      <rect id="Rectángulo_376616" data-name="Rectángulo 376616" width="4.829" height="11.593" transform="translate(26.196 28.202)" fill="#fcd462"/>
      <rect id="Rectángulo_376617" data-name="Rectángulo 376617" width="4.829" height="2.093" transform="translate(6.677 37.703)" fill="#d15241"/>
      <rect id="Rectángulo_376618" data-name="Rectángulo 376618" width="4.829" height="2.093" transform="translate(13.183 37.703)" fill="#2d93ba"/>
      <rect id="Rectángulo_376619" data-name="Rectángulo 376619" width="4.829" height="2.093" transform="translate(19.69 37.703)" fill="#3ea69b"/>
      <rect id="Rectángulo_376620" data-name="Rectángulo 376620" width="4.829" height="2.093" transform="translate(26.196 37.703)" fill="#f6c358"/>
      <g id="Grupo_1071800" data-name="Grupo 1071800" transform="translate(6.677 19.642)">
        <rect id="Rectángulo_376621" data-name="Rectángulo 376621" width="43.897" height="1.492" transform="translate(0 23.565)" fill="#d5d6db"/>
        <rect id="Rectángulo_376622" data-name="Rectángulo 376622" width="14.875" height="1.492" transform="translate(29.021)" fill="#d5d6db"/>
        <rect id="Rectángulo_376623" data-name="Rectángulo 376623" width="14.875" height="1.492" transform="translate(29.021 5.891)" fill="#d5d6db"/>
        <rect id="Rectángulo_376624" data-name="Rectángulo 376624" width="14.875" height="1.492" transform="translate(29.021 11.785)" fill="#d5d6db"/>
        <rect id="Rectángulo_376625" data-name="Rectángulo 376625" width="14.875" height="1.492" transform="translate(29.021 17.674)" fill="#d5d6db"/>
        <rect id="Rectángulo_376626" data-name="Rectángulo 376626" width="43.897" height="1.492" transform="translate(0 29.461)" fill="#d5d6db"/>
        <rect id="Rectángulo_376627" data-name="Rectángulo 376627" width="43.897" height="14.769" transform="translate(0 35.198)" fill="#d5d6db"/>
      </g>
      <rect id="Rectángulo_376628" data-name="Rectángulo 376628" width="43.897" height="14.769" transform="translate(6.677 54.237)" fill="#ebf0f3"/>
      <path id="Trazado_817752" data-name="Trazado 817752" d="M106.983,372.929a.416.416,0,0,1-.315-.687l5.589-6.494a.415.415,0,0,1,.52-.091l6.192,3.488,5.476-5.668a.416.416,0,0,1,.51-.07l6.6,3.873,5.117-5.649a.413.413,0,0,1,.5-.09l5.939,3.053,5.12-4.4a.416.416,0,1,1,.542.63l-5.333,4.58a.418.418,0,0,1-.461.054l-5.9-3.035-5.13,5.663a.419.419,0,0,1-.52.08l-6.611-3.878-5.471,5.664a.418.418,0,0,1-.5.073l-6.176-3.478-5.367,6.236A.414.414,0,0,1,106.983,372.929Z" transform="translate(-99.498 -304.327)" fill="#90c859"/>
      <path id="Trazado_817753" data-name="Trazado 817753" d="M106.979,408.032a.416.416,0,0,1-.172-.794l6.856-3.115a.406.406,0,0,1,.333,0l4.891,2.044,4.93-2.624a.415.415,0,0,1,.305-.034l6.587,1.808,6.056-3.622a.422.422,0,0,1,.309-.048l7.334,1.749,2.06-1.42a.416.416,0,1,1,.471.685l-2.212,1.524a.424.424,0,0,1-.331.062l-7.349-1.753-6.062,3.627a.42.42,0,0,1-.323.045l-6.6-1.811-4.958,2.639a.411.411,0,0,1-.356.016l-4.906-2.051-6.691,3.04A.417.417,0,0,1,106.979,408.032Z" transform="translate(-99.494 -339.43)" fill="#632059"/>
    </g>
  </g>
</svg>
