<svg xmlns="http://www.w3.org/2000/svg" width="130" height="130" viewBox="0 0 130 130">
  <g id="Grupo_1072682" data-name="Grupo 1072682" transform="translate(-735 -1300)">
    <g id="Grupo_1072554" data-name="Grupo 1072554" transform="translate(399 -13)">
      <circle id="Elipse_5779" data-name="Elipse 5779" cx="65" cy="65" r="65" transform="translate(336 1313)" fill="#3b5620"/>
      <circle id="Elipse_5755" data-name="Elipse 5755" cx="59.894" cy="59.894" r="59.894" transform="translate(341 1318)" fill="#fff"/>
    </g>
    <g id="Grupo_1072282" data-name="Grupo 1072282" transform="translate(764.342 1329.341)">
      <path id="Trazado_819164" data-name="Trazado 819164" d="M93.82,15A10.451,10.451,0,0,1,83.374,25.447H41.447A10.451,10.451,0,0,1,31,15Zm0,0" transform="translate(-26.682 -12.911)" fill="#e8e8e8"/>
      <path id="Trazado_819165" data-name="Trazado 819165" d="M287.48,15a10.451,10.451,0,0,1-10.447,10.447H256V15Zm0,0" transform="translate(-220.341 -12.911)" fill="#839571"/>
      <path id="Trazado_819166" data-name="Trazado 819166" d="M113.736,37.514,108.3,42.444,94.013,56.416l-9.611-7.9L101.493,26.4Zm0,0" transform="translate(-72.646 -22.721)" fill="#632059"/>
      <path id="Trazado_819167" data-name="Trazado 819167" d="M160.837,171.211v8.357H121l1.421-12.369Zm0,0" transform="translate(-104.146 -143.91)" fill="#c8b1c5"/>
      <path id="Trazado_819168" data-name="Trazado 819168" d="M392,271h4.179v21.033H392Zm0,0" transform="translate(-337.398 -233.252)" fill="#ffd400"/>
      <path id="Trazado_819169" data-name="Trazado 819169" d="M88.536,172.268a6.173,6.173,0,0,1-1.755,4.3.5.5,0,0,1-.209.209,6.173,6.173,0,0,1-4.3,1.755A6.26,6.26,0,0,1,76,172.268a5.8,5.8,0,0,1,1.087-3.469c0-.041.042-.084.084-.125A6.2,6.2,0,0,1,82.184,166h.126l1.379.167a6.24,6.24,0,0,1,4.847,6.1Zm0,0" transform="translate(-65.414 -142.878)" fill="#3b5620"/>
      <path id="Trazado_819170" data-name="Trazado 819170" d="M372.447,404.536h-8.357A2.089,2.089,0,0,1,362,402.447v-8.357A2.089,2.089,0,0,1,364.089,392h8.357a2.089,2.089,0,0,1,2.089,2.089v8.357A2.089,2.089,0,0,1,372.447,404.536Zm0,0" transform="translate(-311.577 -337.398)" fill="#ff9f00"/>
      <path id="Trazado_819171" data-name="Trazado 819171" d="M221.447,392h-8.357A2.069,2.069,0,0,0,211,394.089v8.357a2.069,2.069,0,0,0,2.089,2.089h8.357a2.069,2.069,0,0,0,2.089-2.089v-8.357A2.069,2.069,0,0,0,221.447,392Zm0,0" transform="translate(-181.61 -337.398)" fill="#fdbf00"/>
      <path id="Trazado_819172" data-name="Trazado 819172" d="M71.447,404.536H63.089A2.089,2.089,0,0,1,61,402.447v-8.357A2.089,2.089,0,0,1,63.089,392h8.357a2.088,2.088,0,0,1,2.089,2.089v8.357A2.088,2.088,0,0,1,71.447,404.536Zm0,0" transform="translate(-52.503 -337.398)" fill="#fdbf00"/>
      <path id="Trazado_819173" data-name="Trazado 819173" d="M71.317,2.089a2.069,2.069,0,0,1-2.089,2.089H2.089A2.069,2.069,0,0,1,0,2.089,2.069,2.069,0,0,1,2.089,0H69.228A2.069,2.069,0,0,1,71.317,2.089Zm0,0" fill="#3b5620"/>
      <path id="Trazado_819174" data-name="Trazado 819174" d="M291.659,2.089a2.069,2.069,0,0,1-2.089,2.089H256V0h33.569A2.069,2.069,0,0,1,291.659,2.089Zm0,0" transform="translate(-220.341)" fill="#3b5620"/>
      <path id="Trazado_819175" data-name="Trazado 819175" d="M381.179,236.447A4.178,4.178,0,0,1,377,232.268V226h8.357v6.268A4.178,4.178,0,0,1,381.179,236.447Zm0,0" transform="translate(-324.487 -194.52)" fill="#839571"/>
      <path id="Trazado_819176" data-name="Trazado 819176" d="M262.268,394.089v8.357a2.069,2.069,0,0,1-2.089,2.089H256V392h4.179A2.069,2.069,0,0,1,262.268,394.089Zm0,0" transform="translate(-220.341 -337.398)" fill="#ff9f00"/>
      <path id="Trazado_819177" data-name="Trazado 819177" d="M71.317,456.179a4.191,4.191,0,0,1-4.179,4.179H4.318a4.181,4.181,0,1,1,0-8.357h62.82A4.191,4.191,0,0,1,71.317,456.179Zm0,0" transform="translate(0 -389.04)" fill="#3b5620"/>
      <path id="Trazado_819178" data-name="Trazado 819178" d="M291.659,456.179a4.191,4.191,0,0,1-4.179,4.179H256V452h31.48A4.191,4.191,0,0,1,291.659,456.179Zm0,0" transform="translate(-220.341 -389.04)" fill="#839571"/>
      <path id="Trazado_819179" data-name="Trazado 819179" d="M385.357,200.179A4.179,4.179,0,1,1,381.179,196a5.193,5.193,0,0,1,.836.083A4.17,4.17,0,0,1,385.357,200.179Zm0,0" transform="translate(-324.487 -168.699)" fill="#3b5620"/>
      <path id="Trazado_819180" data-name="Trazado 819180" d="M213.617,8.357a8.349,8.349,0,0,1-3.051,6.435,8.266,8.266,0,0,1-5.307,1.922h-.126A8.384,8.384,0,0,1,196.9,8.357a8.247,8.247,0,0,1,1.421-4.68c1.8-2.256,3.844-3.635,6.811-3.677h.126a8.382,8.382,0,0,1,8.357,8.357Zm0,0" transform="translate(-169.475)" fill="#3b5620"/>
      <path id="Trazado_819181" data-name="Trazado 819181" d="M256.125,16.715H256V0h.126a8.343,8.343,0,0,1,5.307,14.793A8.266,8.266,0,0,1,256.125,16.715Zm0,0" transform="translate(-220.341)" fill="#839571"/>
      <path id="Trazado_819182" data-name="Trazado 819182" d="M245.179,47.089A2.089,2.089,0,1,1,243.089,45,2.069,2.069,0,0,1,245.179,47.089Zm0,0" transform="translate(-207.431 -38.732)" fill="#c8b1c5"/>
      <path id="Trazado_819183" data-name="Trazado 819183" d="M258.089,47.089A2.069,2.069,0,0,1,256,49.179V45A2.069,2.069,0,0,1,258.089,47.089Zm0,0" transform="translate(-220.341 -38.732)" fill="#c8b1c5"/>
    </g>
  </g>
</svg>
