<svg xmlns="http://www.w3.org/2000/svg" xmlns:xlink="http://www.w3.org/1999/xlink" width="335" height="123.913" viewBox="0 0 335 123.913">
  <defs>
    <clipPath id="clip-path">
      <rect id="Rectángulo_376937" data-name="Rectángulo 376937" width="335" height="123.913" fill="none"/>
    </clipPath>
  </defs>
  <g id="Grupo_1072074" data-name="Grupo 1072074" clip-path="url(#clip-path)">
    <path id="Trazado_818487" data-name="Trazado 818487" d="M477.07,228.883h2.024v-12.1l12.189,12.771V212.644h-2.022v12l-12.19-12.77ZM464.5,227.332a6.521,6.521,0,0,1-6.484-6.559v-.01a6.482,6.482,0,1,1,6.5,6.569H464.5m0-15.03A8.423,8.423,0,1,0,473,220.763,8.53,8.53,0,0,0,464.5,212.3m-12.4.344H450.07v16.238h2.024Zm-9.562,1.852h3.855v-1.854h-9.736V214.5h3.855v14.387h2.026Zm-12.9,8.463h-5.772l2.887-6.568Zm.841,1.853,1.852,4.07h2.173l-7.751-16.927-7.751,16.927h2.174l1.854-4.07Zm-14.795-12.168h-2.022v16.238h2.022Zm-6.064.753a7.828,7.828,0,0,0-4.091-1.1,8.533,8.533,0,0,0-8.634,8.431c0,.039,0,.078,0,.118a8.406,8.406,0,0,0,8.434,8.378h.031a8.775,8.775,0,0,0,4.261-1.142v-2.393a6.568,6.568,0,1,1,0-9.946Zm-24.6,13.933a6.523,6.523,0,0,1-6.483-6.562v-.007a6.484,6.484,0,1,1,6.494,6.569h-.011m0-15.03a8.423,8.423,0,1,0,8.508,8.461,8.527,8.527,0,0,0-8.508-8.461m-12.252,2.454a4.633,4.633,0,0,0-4.179-2.454,4.427,4.427,0,0,0-4.771,4.054c0,.048-.007.1-.009.146,0,2.262,1.678,3.315,3.531,4.113l1.121.474c1.4.58,2.8,1.335,2.8,3.08a3.07,3.07,0,1,1-6.136.2c0-.038,0-.078,0-.117l-2.047.431a5.062,5.062,0,0,0,5.018,4.544,5.008,5.008,0,0,0,5.187-4.821c0-.08,0-.16,0-.239,0-2.715-1.723-3.984-4.027-4.889l-1.163-.455c-1.013-.386-2.262-1.054-2.262-2.323a2.562,2.562,0,0,1,2.715-2.3,2.781,2.781,0,0,1,2.6,1.53Zm-13.718,0a4.629,4.629,0,0,0-4.177-2.454,4.429,4.429,0,0,0-4.773,4.055c0,.048-.007.1-.009.144,0,2.262,1.681,3.315,3.533,4.113l1.12.474c1.4.58,2.8,1.335,2.8,3.08a3.07,3.07,0,1,1-6.136.2c0-.038,0-.078,0-.117l-2.046.431a5.061,5.061,0,0,0,5.018,4.544,5.005,5.005,0,0,0,5.186-4.818c0-.081,0-.162,0-.243,0-2.715-1.723-3.984-4.027-4.889l-1.163-.455c-1.011-.386-2.26-1.054-2.26-2.323a2.56,2.56,0,0,1,2.713-2.3,2.782,2.782,0,0,1,2.606,1.53Zm-19.213,5.66h-8.244l4.122-9.383Zm1.206,2.646,2.646,5.815h3.1L335.709,204.7l-11.076,24.182h3.1l2.646-5.815Z" transform="translate(-187.838 -118.44)" fill="#231f20"/>
    <path id="Trazado_818488" data-name="Trazado 818488" d="M522.935,127.961h-2.023V144.2h6.954v-1.853h-4.931Zm-10.4,10.316h-5.772l2.886-6.568Zm.839,1.85,1.853,4.072H517.4l-7.752-16.929L501.9,144.2h2.172l1.852-4.072Zm-14.321-11.414a7.836,7.836,0,0,0-4.091-1.1,8.534,8.534,0,0,0-8.636,8.433c0,.038,0,.077,0,.116a8.407,8.407,0,0,0,8.434,8.379h.032a8.792,8.792,0,0,0,4.263-1.142v-2.389a6.57,6.57,0,1,1,0-9.949Zm-17.013-.753H480.01V144.2h2.022Zm-12.247,8.055v1.852h4.2a5.449,5.449,0,0,1-5.317,4.823,6.631,6.631,0,0,1-6.31-6.633,6.4,6.4,0,0,1,11.585-3.941l1.421-1.357a8.46,8.46,0,1,0-6.826,13.783,7.544,7.544,0,0,0,7.7-7.391c0-.164,0-.327-.005-.491v-.646ZM448.2,142.65a6.522,6.522,0,0,1-6.483-6.559v-.009a6.482,6.482,0,1,1,6.488,6.568H448.2m0-15.032a8.485,8.485,0,1,0,8.5,8.464,8.528,8.528,0,0,0-8.5-8.464m-15.785.344H430.4V144.2h6.955v-1.853h-4.93ZM417.777,142.65a6.523,6.523,0,0,1-6.483-6.563v-.005a6.483,6.483,0,1,1,12.965-.211q0,.106,0,.211a6.521,6.521,0,0,1-6.475,6.568h-.007m0-15.032a8.425,8.425,0,1,0,8.506,8.464,8.528,8.528,0,0,0-8.506-8.464m-22.2,6.89v-6.546H393.54V144.2h2.024v-7.8h7.729v7.8h2.025V127.961h-2.025v6.546Zm-6.416-5.794a7.85,7.85,0,0,0-4.092-1.1,8.534,8.534,0,0,0-8.638,8.431c0,.04,0,.078,0,.118a8.406,8.406,0,0,0,8.433,8.379h.032a8.809,8.809,0,0,0,4.265-1.142v-2.387a6.57,6.57,0,1,1,0-9.949ZM366.3,137.134V144.2h2.026v-7.062l5.3-9.174H371.3l-3.984,6.933-3.984-6.933h-2.326Zm-8.506-7.062a4.63,4.63,0,0,0-4.177-2.453,4.43,4.43,0,0,0-4.773,4.059c0,.047-.007.094-.009.14,0,2.262,1.68,3.316,3.533,4.113l1.12.472c1.4.584,2.8,1.337,2.8,3.08a3.07,3.07,0,1,1-6.136.2c0-.038,0-.077,0-.115l-2.046.431a5.06,5.06,0,0,0,5.018,4.544,5.006,5.006,0,0,0,5.187-4.818c0-.082,0-.164,0-.245,0-2.711-1.723-3.982-4.027-4.888l-1.163-.451c-1.011-.388-2.259-1.056-2.259-2.325a2.561,2.561,0,0,1,2.712-2.308,2.784,2.784,0,0,1,2.606,1.531Zm-21.581-6.482h.769c2.861,0,6.306.431,6.306,4.061,0,3.692-3.2,4.246-6.153,4.246h-.923Zm0,10.891h1.66c4.4,0,8.124-1.876,8.124-6.769,0-4.246-2.215-6.706-9.353-6.706h-3.323V144.2h2.892Z" transform="translate(-192.867 -70.016)" fill="#231f20"/>
    <path id="Trazado_818489" data-name="Trazado 818489" d="M439.014,59.4h2.026V47.3l12.189,12.77v-16.9h-2.016v12l-12.19-12.772ZM430.83,53.48h-5.77l2.883-6.57Zm.84,1.853,1.85,4.068H435.7l-7.751-16.925L420.2,59.4h2.176l1.852-4.068ZM417.5,43.918a7.84,7.84,0,0,0-4.091-1.1,8.533,8.533,0,0,0-8.634,8.431c0,.04,0,.08,0,.119a8.4,8.4,0,0,0,8.43,8.379h.033a8.784,8.784,0,0,0,4.263-1.142V56.211a6.566,6.566,0,1,1,0-9.949Zm-17.167-.753h-2.024V59.4h2.024Zm-13.628,1.807h.537c2,0,4.417.369,4.417,2.91,0,2.584-2.239,2.971-4.306,2.971h-.646Zm2.949,7.367a4.422,4.422,0,0,0,3.9-4.544,4.5,4.5,0,0,0-2.133-3.877,8.57,8.57,0,0,0-4.286-.753h-2.455V59.4h2.024V52.532h.84l4.78,6.869h2.453ZM371.309,59.4h8.724V57.55h-6.7V51.412h6.5V49.561h-6.5V45.015h6.7v-1.85h-8.724Zm-12.855.345,4.868-11.071h.043L365.259,59.4h2.09l-3.316-16.925-5.579,12.792-5.579-12.79L349.56,59.4h2.091l1.895-10.724h.043Zm-18.618-8.8h-8.244l4.122-9.383Zm1.206,2.644,2.646,5.815h3.1l-11.074-24.18L324.637,59.4h3.1l2.646-5.815Z" transform="translate(-187.84 -20.379)" fill="#231f20"/>
    <path id="Trazado_818490" data-name="Trazado 818490" d="M25.834,230.284a62.251,62.251,0,0,0,9.061,10.459h83.921a62.359,62.359,0,0,0,9.06-10.459Z" transform="translate(-14.948 -133.246)" fill="#002f87"/>
    <path id="Trazado_818491" data-name="Trazado 818491" d="M9.234,198.386A61.576,61.576,0,0,0,14.3,208.838H120.2a61.725,61.725,0,0,0,5.057-10.459Z" transform="translate(-5.343 -114.785)" fill="#002f87"/>
    <path id="Trazado_818492" data-name="Trazado 818492" d="M25.834,49.418H127.871a62.336,62.336,0,0,0-9.055-10.457H34.892a62.41,62.41,0,0,0-9.058,10.457" transform="translate(-14.948 -22.543)" fill="#002f87"/>
    <path id="Trazado_818493" data-name="Trazado 818493" d="M132.547,13.439a61.8,61.8,0,0,0-76.954,0Z" transform="translate(-32.167 0)" fill="#002f87"/>
    <path id="Trazado_818494" data-name="Trazado 818494" d="M0,139.84c0,1.764.091,3.5.236,5.224H123.568c.145-1.722.236-3.467.236-5.231s-.091-3.505-.236-5.231H.236C.091,136.335,0,138.075,0,139.84" transform="translate(0 -77.883)" fill="#002f87"/>
    <path id="Trazado_818495" data-name="Trazado 818495" d="M55.594,262.169a61.8,61.8,0,0,0,76.951,0Z" transform="translate(-32.168 -151.695)" fill="#002f87"/>
    <path id="Trazado_818496" data-name="Trazado 818496" d="M14.3,70.84A61.686,61.686,0,0,0,9.234,81.3H125.263A61.7,61.7,0,0,0,120.2,70.837Z" transform="translate(-5.343 -40.987)" fill="#002f87"/>
    <path id="Trazado_818497" data-name="Trazado 818497" d="M1.324,166.5a61.86,61.86,0,0,0,2.307,10.454H121.712a61.5,61.5,0,0,0,2.306-10.461Z" transform="translate(-0.766 -96.334)" fill="#002f87"/>
    <path id="Trazado_818498" data-name="Trazado 818498" d="M3.631,102.729a61.7,61.7,0,0,0-2.307,10.456h122.7a61.827,61.827,0,0,0-2.308-10.459Z" transform="translate(-0.766 -59.439)" fill="#002f87"/>
    <path id="Trazado_818499" data-name="Trazado 818499" d="M127.506,66.661H104.768L87.888,104.135h22.737ZM66.012,147.348H84.442V66.661H66.012ZM62.6,104.024s-3.822-.455-9.052-18.626c-.1-.3-.205-.586-.312-.889C48.807,71.675,40.817,57.477,23.488,66.768c0,0,3.822.458,9.052,18.629.1.295.205.579.31.885,4.435,12.833,12.426,27.044,29.755,17.742" transform="translate(-13.591 -36.905)" fill="#d1d3d4"/>
  </g>
</svg>
