<svg id="Grupo_1072311" data-name="Grupo 1072311" xmlns="http://www.w3.org/2000/svg" width="125" height="122.882" viewBox="0 0 125 122.882">
  <path id="Trazado_819206" data-name="Trazado 819206" d="M377.187,368.814l18.553,18.553a8.988,8.988,0,0,1,2.634,6.356h0a8.987,8.987,0,0,1-8.985,8.99h0a8.988,8.988,0,0,1-6.356-2.634l-18.553-18.553Z" transform="translate(-275.492 -279.831)" fill="#3b5620"/>
  <rect id="Rectángulo_377099" data-name="Rectángulo 377099" width="17.977" height="14.979" transform="translate(101.697 88.978) rotate(135)" fill="#dbf9bd"/>
  <path id="Trazado_819207" data-name="Trazado 819207" d="M400.16,373.05a60.507,60.507,0,0,1,7.953.538l-4.775-4.775-4.265,4.265C399.436,373.072,399.8,373.05,400.16,373.05Z" transform="translate(-301.643 -279.83)" fill="#3b5620"/>
  <path id="Trazado_819208" data-name="Trazado 819208" d="M344.389,336.017,333.8,325.424l-12.712,12.712,4.237,4.237a60.529,60.529,0,0,1,14.8-2.1Z" transform="translate(-242.694 -247.034)" fill="#dbf9bd"/>
  <path id="Trazado_819216" data-name="Trazado 819216" d="M42.373,0A42.373,42.373,0,1,1,0,42.373,42.373,42.373,0,0,1,42.373,0Z" transform="translate(8.475 8.475)" fill="#f2fde8"/>
  <g id="Grupo_1072308" data-name="Grupo 1072308" transform="translate(8.475 8.475)">
    <rect id="Rectángulo_377100" data-name="Rectángulo 377100" width="4.237" height="17.977" transform="translate(37.515 51.466) rotate(135)" fill="#b7a0b4"/>
    <rect id="Rectángulo_377101" data-name="Rectángulo 377101" width="23.97" height="4.237" transform="translate(62.939 37.515) rotate(135)" fill="#b7a0b4"/>
    <rect id="Rectángulo_377102" data-name="Rectángulo 377102" width="14.831" height="4.237" transform="translate(101.695)" fill="#b7a0b4"/>
    <rect id="Rectángulo_377103" data-name="Rectángulo 377103" width="12.712" height="4.237" transform="translate(0 33.898)" fill="#b7a0b4"/>
    <rect id="Rectángulo_377104" data-name="Rectángulo 377104" width="11.985" height="4.237" transform="translate(92.598 7.858) rotate(135)" fill="#b7a0b4"/>
  </g>
  <g id="Grupo_1072309" data-name="Grupo 1072309" transform="translate(19.068 2.119)">
    <path id="Trazado_819209" data-name="Trazado 819209" d="M86.577,168.813a8.475,8.475,0,1,1,8.475-8.475A8.475,8.475,0,0,1,86.577,168.813Zm0-12.712a4.237,4.237,0,1,0,4.237,4.237A4.236,4.236,0,0,0,86.577,156.1Z" transform="translate(-78.102 -117.966)" fill="#632059"/>
    <path id="Trazado_819210" data-name="Trazado 819210" d="M173.356,255.593a8.475,8.475,0,1,1,8.475-8.475A8.475,8.475,0,0,1,173.356,255.593Zm0-12.712a4.237,4.237,0,1,0,4.237,4.237A4.236,4.236,0,0,0,173.356,242.881Z" transform="translate(-143.695 -183.559)" fill="#632059"/>
    <path id="Trazado_819211" data-name="Trazado 819211" d="M398.983,29.966a8.475,8.475,0,1,1,8.475-8.475A8.475,8.475,0,0,1,398.983,29.966Zm0-12.712a4.237,4.237,0,1,0,4.237,4.237A4.236,4.236,0,0,0,398.983,17.254Z" transform="translate(-314.237 -13.017)" fill="#632059"/>
  </g>
  <path id="Trazado_819212" data-name="Trazado 819212" d="M141.4,52.337a42.373,42.373,0,0,1-43.11,71.9,42.373,42.373,0,1,0,43.11-71.9Z" transform="translate(-74.291 -40.619)" fill="#dbf9bd"/>
  <rect id="Rectángulo_377105" data-name="Rectángulo 377105" width="11.985" height="4.237" transform="translate(88.361 29.049) rotate(135)" fill="#b7a0b4"/>
  <path id="Trazado_819213" data-name="Trazado 819213" d="M334.225,111.486l-4.835,4.835a42.117,42.117,0,0,1,1.271,4.71l5.915-5.915A42.536,42.536,0,0,0,334.225,111.486Z" transform="translate(-248.973 -85.327)" fill="#c8b1c5"/>
  <g id="Grupo_1072310" data-name="Grupo 1072310">
    <path id="Trazado_819214" data-name="Trazado 819214" d="M50.847,4.339a50.847,50.847,0,1,0,50.847,50.847A50.847,50.847,0,0,0,50.847,4.339Zm0,93.22A42.373,42.373,0,1,1,93.22,55.186,42.372,42.372,0,0,1,50.847,97.559Z" transform="translate(0 -4.339)" fill="#3b5620"/>
    <path id="Trazado_819215" data-name="Trazado 819215" d="M277.492,151.457a8.475,8.475,0,1,1,8.475-8.475A8.475,8.475,0,0,1,277.492,151.457Zm0-12.712a4.237,4.237,0,1,0,4.237,4.237A4.236,4.236,0,0,0,277.492,138.745Z" transform="translate(-203.339 -102.728)" fill="#632059"/>
  </g>
</svg>
