<svg xmlns="http://www.w3.org/2000/svg" width="128.414" height="162.597" viewBox="0 0 128.414 162.597">
  <g id="Grupo_1072333" data-name="Grupo 1072333" transform="translate(0)">
    <path id="Trazado_819260" data-name="Trazado 819260" d="M128.414,6.544V156.055a6.836,6.836,0,0,1-7.1,6.543H7.1A6.837,6.837,0,0,1,0,156.055V6.544A6.837,6.837,0,0,1,7.1,0H121.314a6.836,6.836,0,0,1,7.1,6.544Zm0,0" transform="translate(0 0)" fill="#f2fde8"/>
    <path id="Trazado_819261" data-name="Trazado 819261" d="M235.3,6.544V156.055a6.333,6.333,0,0,1-6.1,6.542H177.461C218.811,112.071,218.5,27.569,217.171,0h12.022a6.333,6.333,0,0,1,6.1,6.544Zm0,0" transform="translate(-106.883 0)" fill="#3b5620" opacity="0.22"/>
    <path id="Trazado_819262" data-name="Trazado 819262" d="M68.253,70.312a8.727,8.727,0,1,1-8.717-9.171A8.952,8.952,0,0,1,68.253,70.312Zm0,0" transform="translate(-34.852 -43.023)" fill="#b7a0b4"/>
    <path id="Trazado_819263" data-name="Trazado 819263" d="M83.94,70.313A9.176,9.176,0,0,1,71.821,79a9.174,9.174,0,0,0,0-17.371A9.176,9.176,0,0,1,83.94,70.313Zm0,0" transform="translate(-48.181 -43.026)" fill="#632059"/>
    <path id="Trazado_819264" data-name="Trazado 819264" d="M186.369,117.6a2.289,2.289,0,0,1-2.29,2.29H128.363a2.29,2.29,0,0,1,0-4.579h55.716A2.29,2.29,0,0,1,186.369,117.6Zm0,0" transform="translate(-70.723 -78.613)" fill="#afc797"/>
    <path id="Trazado_819265" data-name="Trazado 819265" d="M68.253,179.585a8.727,8.727,0,1,1-8.717-9.171A8.952,8.952,0,0,1,68.253,179.585Zm0,0" transform="translate(-34.852 -115.797)" fill="#dbf9bd"/>
    <path id="Trazado_819266" data-name="Trazado 819266" d="M83.94,179.586a9.176,9.176,0,0,1-12.119,8.687,9.174,9.174,0,0,0,0-17.371,9.176,9.176,0,0,1,12.119,8.684Zm0,0" transform="translate(-48.181 -115.8)" fill="#3b5620"/>
    <path id="Trazado_819267" data-name="Trazado 819267" d="M186.369,226.879a2.291,2.291,0,0,1-2.29,2.29H128.363a2.29,2.29,0,0,1,0-4.579h55.716A2.288,2.288,0,0,1,186.369,226.879Zm0,0" transform="translate(-70.723 -153.118)" fill="#afc797"/>
    <path id="Trazado_819268" data-name="Trazado 819268" d="M68.253,288.859a8.727,8.727,0,1,1-8.717-9.171A8.952,8.952,0,0,1,68.253,288.859Zm0,0" transform="translate(-34.852 -190.05)" fill="#839571"/>
    <path id="Trazado_819269" data-name="Trazado 819269" d="M83.94,288.86a9.176,9.176,0,0,1-12.119,8.687,9.174,9.174,0,0,0,0-17.371A9.176,9.176,0,0,1,83.94,288.86Zm0,0" transform="translate(-48.181 -190.052)" fill="#233313"/>
    <path id="Trazado_819270" data-name="Trazado 819270" d="M186.369,336.153a2.291,2.291,0,0,1-2.29,2.288H128.363a2.289,2.289,0,1,1,0-4.578h55.716A2.289,2.289,0,0,1,186.369,336.153Zm0,0" transform="translate(-70.723 -227.617)" fill="#afc797"/>
    <path id="Trazado_819271" data-name="Trazado 819271" d="M68.253,398.132a8.727,8.727,0,1,1-8.717-9.171A8.952,8.952,0,0,1,68.253,398.132Zm0,0" transform="translate(-34.852 -262.824)" fill="#ffb800"/>
    <path id="Trazado_819272" data-name="Trazado 819272" d="M83.94,398.133a9.176,9.176,0,0,1-12.119,8.687,9.173,9.173,0,0,0,0-17.37,9.173,9.173,0,0,1,12.119,8.683Zm0,0" transform="translate(-48.181 -262.826)" fill="#ff9700"/>
    <path id="Trazado_819273" data-name="Trazado 819273" d="M186.369,445.422a2.291,2.291,0,0,1-2.29,2.29H128.363a2.29,2.29,0,0,1,0-4.579h55.716A2.29,2.29,0,0,1,186.369,445.422Zm0,0" transform="translate(-70.723 -300.943)" fill="#afc797"/>
    <g id="Grupo_1072332" data-name="Grupo 1072332" transform="translate(82.291 36.695)">
      <path id="Trazado_819274" data-name="Trazado 819274" d="M250.343,445.422a2.291,2.291,0,0,1-2.29,2.29H216.988q1.41-2.262,2.732-4.579h28.333a2.29,2.29,0,0,1,2.29,2.29Zm0,0" transform="translate(-216.988 -337.638)" fill="#3b5620"/>
      <path id="Trazado_819275" data-name="Trazado 819275" d="M286.392,336.15a2.291,2.291,0,0,1-2.29,2.288H268.219q.788-2.28,1.518-4.579H284.1A2.29,2.29,0,0,1,286.392,336.15Zm0,0" transform="translate(-253.038 -263.529)" fill="#3b5620"/>
      <path id="Trazado_819276" data-name="Trazado 819276" d="M306.29,226.879a2.291,2.291,0,0,1-2.29,2.29h-7.5q.427-2.3.8-4.579H304a2.288,2.288,0,0,1,2.29,2.29Zm0,0" transform="translate(-272.936 -189.423)" fill="#3b5620"/>
      <path id="Trazado_819277" data-name="Trazado 819277" d="M313.577,119.888h-3.471q.165-2.327.287-4.579h3.184a2.29,2.29,0,1,1,0,4.579Zm0,0" transform="translate(-282.512 -115.309)" fill="#3b5620"/>
    </g>
  </g>
</svg>
