<svg xmlns="http://www.w3.org/2000/svg" width="87.315" height="80.396" viewBox="0 0 87.315 80.396">
  <g id="Grupo_1072684" data-name="Grupo 1072684" transform="translate(-529.343 -4200.642)">
    <circle id="Elipse_5811" data-name="Elipse 5811" cx="39" cy="39" r="39" transform="translate(531 4200.642)" fill="#fff"/>
    <g id="Grupo_1072669" data-name="Grupo 1072669" transform="translate(529.343 4199)">
      <path id="Trazado_819290" data-name="Trazado 819290" d="M52.283,56.1a10.909,10.909,0,0,1-15.433,0L21.388,40.64A10.913,10.913,0,1,1,36.821,25.207l7.745,7.745L65.947,11.568a39.813,39.813,0,1,0,12.3,18.572Z" transform="translate(0 0)" fill="#dbf9bd"/>
      <path id="Trazado_819291" data-name="Trazado 819291" d="M26.1,49.386a3.628,3.628,0,0,1-2.572-1.066L8.067,32.858a3.638,3.638,0,0,1,5.144-5.144L26.1,40.6,62.638,4.067a3.638,3.638,0,1,1,5.144,5.144L28.673,48.32A3.628,3.628,0,0,1,26.1,49.386Z" transform="translate(18.466 2.637)" fill="#632059"/>
      <path id="Trazado_819292" data-name="Trazado 819292" d="M40.019,2a40.019,40.019,0,1,0,0,80.038c1.226,0,2.441-.055,3.638-.164V59.263A10.836,10.836,0,0,1,36.85,56.1L21.388,40.64A10.913,10.913,0,1,1,36.821,25.207l6.836,6.836V2.164C42.46,2.055,41.245,2,40.019,2Z" transform="translate(0 0)" fill="#afc797"/>
      <path id="Trazado_819293" data-name="Trazado 819293" d="M10.639,9.5a3.638,3.638,0,0,0-2.572,6.21L23.528,31.172a3.626,3.626,0,0,0,1.663.95V22.542L13.211,10.566A3.628,3.628,0,0,0,10.639,9.5Z" transform="translate(18.466 19.786)" fill="#4f1947"/>
    </g>
  </g>
</svg>
