<svg xmlns="http://www.w3.org/2000/svg" xmlns:xlink="http://www.w3.org/1999/xlink" width="400" height="372.913" viewBox="0 0 400 372.913">
  <defs>
    <clipPath id="clip-path">
      <rect id="Rectángulo_377012" data-name="Rectángulo 377012" width="238.585" height="317.848" fill="none"/>
    </clipPath>
    <clipPath id="clip-path-2">
      <rect id="Rectángulo_377015" data-name="Rectángulo 377015" width="23.8" height="6.233" fill="none"/>
    </clipPath>
    <clipPath id="clip-path-3">
      <rect id="Rectángulo_377016" data-name="Rectángulo 377016" width="8.16" height="9.612" fill="none"/>
    </clipPath>
    <clipPath id="clip-path-4">
      <rect id="Rectángulo_377017" data-name="Rectángulo 377017" width="9.779" height="9.612" fill="none"/>
    </clipPath>
    <clipPath id="clip-path-5">
      <rect id="Rectángulo_377022" data-name="Rectángulo 377022" width="6.38" height="24.045" fill="none"/>
    </clipPath>
    <clipPath id="clip-path-6">
      <rect id="Rectángulo_377023" data-name="Rectángulo 377023" width="12.237" height="34.309" fill="none"/>
    </clipPath>
    <clipPath id="clip-path-7">
      <rect id="Rectángulo_377025" data-name="Rectángulo 377025" width="9.817" height="57.334" fill="none"/>
    </clipPath>
  </defs>
  <g id="Grupo_1072513" data-name="Grupo 1072513" transform="translate(-937.366 -6709.065)">
    <g id="Grupo_1072512" data-name="Grupo 1072512" transform="translate(937.366 6759.147)">
      <path id="Trazado_818714" data-name="Trazado 818714" d="M40.313,165.136H18.3a2.933,2.933,0,0,1,0-5.861H40.313a2.933,2.933,0,0,1,0,5.861" transform="translate(-5.439 -34.3)" fill="#fff"/>
      <rect id="Rectángulo_376994" data-name="Rectángulo 376994" width="1.648" height="277.423" transform="translate(0)" fill="#f0f0f0"/>
      <rect id="Rectángulo_376995" data-name="Rectángulo 376995" width="18.854" height="84.847" transform="translate(179.607 193.66)" fill="#f0f0f0"/>
      <rect id="Rectángulo_376996" data-name="Rectángulo 376996" width="92.981" height="5.376" transform="translate(101.859 278.508)" fill="#f0f0f0"/>
      <rect id="Rectángulo_376997" data-name="Rectángulo 376997" width="81.367" height="84.847" transform="translate(98.24 193.66)" fill="#f5f5f5"/>
      <rect id="Rectángulo_376998" data-name="Rectángulo 376998" width="66.542" height="27.827" transform="translate(105.653 204.104)" fill="#f0f0f0"/>
      <rect id="Rectángulo_376999" data-name="Rectángulo 376999" width="66.542" height="27.827" transform="translate(105.653 240.237)" fill="#f0f0f0"/>
      <path id="Trazado_818715" data-name="Trazado 818715" d="M130.206,233.748h14.94a1.909,1.909,0,0,0,0-3.816h-14.94a1.909,1.909,0,0,0,0,3.816" transform="translate(1.247 -27.299)" fill="#f5f5f5"/>
      <path id="Trazado_818716" data-name="Trazado 818716" d="M130.206,266.624h14.94a1.909,1.909,0,0,0,0-3.816h-14.94a1.909,1.909,0,0,0,0,3.816" transform="translate(1.247 -24.041)" fill="#f5f5f5"/>
      <path id="Trazado_818717" data-name="Trazado 818717" d="M143.087,224.485h0a1.427,1.427,0,0,1-1.4-1.449V178.949a1.4,1.4,0,1,1,2.792,0v44.088a1.427,1.427,0,0,1-1.4,1.449" transform="translate(2.036 -32.494)" fill="#f5f5f5"/>
      <rect id="Rectángulo_377000" data-name="Rectángulo 377000" width="26.162" height="3.42" transform="translate(132.043 190.281)" fill="#f0f0f0"/>
      <path id="Trazado_818718" data-name="Trazado 818718" d="M149.891,198.373h0a.714.714,0,0,1-.7-.724V175.6a.7.7,0,1,1,1.4,0v22.044a.714.714,0,0,1-.7.724" transform="translate(2.481 -32.753)" fill="#f0f0f0"/>
      <path id="Trazado_818719" data-name="Trazado 818719" d="M123.805,184.349s.517-20.75,20.341-20.75,20.342,20.75,20.342,20.75Z" transform="translate(0.977 -33.871)" fill="#f0f0f0"/>
      <path id="Trazado_818720" data-name="Trazado 818720" d="M290.5,209.186v.008c.564,0,1.131.012,1.7.053,12.042.853,21.779,11.01,22.548,23.508a26.253,26.253,0,0,1-.783,8.208,130.749,130.749,0,0,0-3.81,32.851v32.254a4.16,4.16,0,0,1-4.081,4.235H207.408V209.186Z" transform="translate(5.929 -29.354)" fill="#f0f0f0"/>
      <path id="Trazado_818721" data-name="Trazado 818721" d="M184.464,234.4c0-14.512,11.815-26.162,26.008-25.157,12.041.853,21.779,11.011,22.546,23.509a26.193,26.193,0,0,1-.782,8.208,130.785,130.785,0,0,0-3.81,32.85v32.255a4.159,4.159,0,0,1-4.081,4.234H193.188a4.159,4.159,0,0,1-4.081-4.234V271.92a119.225,119.225,0,0,0-3.763-30.778,26.074,26.074,0,0,1-.879-6.738" transform="translate(4.57 -29.354)" fill="#f5f5f5"/>
      <rect id="Rectángulo_377001" data-name="Rectángulo 377001" width="88.564" height="61.394" transform="translate(246.824 219.554)" fill="#f0f0f0"/>
      <path id="Trazado_818723" data-name="Trazado 818723" d="M275.473,154.914H359c9.669,0,17.507,8.133,17.507,18.166v95.087H257.966V173.08c0-10.032,7.838-18.166,17.507-18.166" transform="translate(8.923 -34.732)" fill="#f5f5f5"/>
      <path id="Trazado_818724" data-name="Trazado 818724" d="M240.394,240.227h81.632a1.625,1.625,0,0,1,1.594,1.654v21.694a1.625,1.625,0,0,1-1.594,1.654H240.394a5.441,5.441,0,0,1-5.337-5.538V245.765a5.441,5.441,0,0,1,5.337-5.538" transform="translate(7.566 -26.278)" fill="#e0e0e0"/>
      <path id="Trazado_818726" data-name="Trazado 818726" d="M298.6,234.4c0-14.512,11.815-26.162,26.008-25.157,12.041.853,21.779,11.011,22.546,23.509a26.193,26.193,0,0,1-.782,8.208,130.784,130.784,0,0,0-3.81,32.85v32.255a4.159,4.159,0,0,1-4.081,4.234H307.322a4.159,4.159,0,0,1-4.081-4.234V271.92a119.224,119.224,0,0,0-3.763-30.778,26.073,26.073,0,0,1-.879-6.738" transform="translate(11.329 -29.354)" fill="#f5f5f5"/>
      <path id="Trazado_818727" data-name="Trazado 818727" d="M209.21,304.256H409.726a3.015,3.015,0,0,0,2.958-3.07H206.252a3.015,3.015,0,0,0,2.958,3.07" transform="translate(-12.685 -20.238)" fill="#e0e0e0"/>
      <rect id="Rectángulo_377005" data-name="Rectángulo 377005" width="64.496" height="72.995" transform="translate(243.355 17.847)" fill="#e0e0e0"/>
      <path id="Trazado_818729" data-name="Trazado 818729" d="M257.4,107.14,250.868,95.4c-3-5.384.749-12.115,6.741-12.115h13.07c5.992,0,9.737,6.731,6.741,12.115l-6.534,11.745a7.646,7.646,0,0,1-13.483,0" transform="translate(8.44 -41.83)" fill="#f5f5f5"/>
    </g>
    <path id="Trazado_818731" data-name="Trazado 818731" d="M277.69,20.877H33.521l16.074,345.05h244.17Z" transform="translate(932.996 6711.134)" fill="#407bff"/>
    <path id="Trazado_818733" data-name="Trazado 818733" d="M279.823,20.877H35.654l16.074,345.05H295.9Z" transform="translate(933.122 6711.134)" fill="#3b5620"/>
    <g id="Grupo_1072145" data-name="Grupo 1072145" transform="translate(979.94 6743.617)">
      <g id="Grupo_1072144" data-name="Grupo 1072144" transform="translate(0)" clip-path="url(#clip-path)">
        <path id="Trazado_818734" data-name="Trazado 818734" d="M266.3,31.437H46.194L61.573,349.285l191.4-.264,31.806-29.262Z" transform="translate(-46.194 -31.437)"/>
      </g>
    </g>
    <path id="Trazado_818735" data-name="Trazado 818735" d="M267.995,31.435a2683.607,2683.607,0,0,0,22.134,284.5q-26.162,18.674-52.061,37.338H73.5a2688,2688,0,0,1-27.3-321.842Z" transform="translate(933.746 6712.18)" fill="#fff"/>
    <path id="Trazado_818736" data-name="Trazado 818736" d="M279.4,291.383q-26.162,18.674-52.061,37.337,5.667-24.723,11.793-49.468,20.119,6.067,40.268,12.131" transform="translate(944.475 6736.735)" fill="#ebebeb"/>
    <path id="Trazado_818737" data-name="Trazado 818737" d="M104.641,58.224q.615,17.459,1.46,34.925H72.442Q71.6,75.683,70.981,58.224Zm3.428-3.683H67.3q.717,21.139,1.768,42.292h40.769q-1.052-21.15-1.767-42.292" transform="translate(934.996 6714.469)" fill="#632059"/>
    <path id="Trazado_818738" data-name="Trazado 818738" d="M238.822,70.532H123.552q-.16-3.947-.306-7.891,57.637,0,115.271,0,.146,3.947.305,7.891" transform="translate(938.31 6715.272)" fill="#e0e0e0"/>
    <path id="Trazado_818739" data-name="Trazado 818739" d="M214.432,85.631h-90.2q-.184-3.947-.355-7.894h90.2q.172,3.947.355,7.894" transform="translate(938.347 6716.768)" fill="#e0e0e0"/>
    <path id="Trazado_818740" data-name="Trazado 818740" d="M107.752,120.465q1.066,17.472,2.36,34.948H76.453q-1.295-17.475-2.36-34.948h33.659m3.333-3.685H70.317q1.26,21.155,2.858,42.319h40.769q-1.6-21.162-2.858-42.319" transform="translate(935.175 6720.637)" fill="#632059"/>
    <path id="Trazado_818741" data-name="Trazado 818741" d="M169.335,132.782H126.988q-.261-3.948-.508-7.9h42.347q.248,3.95.508,7.9" transform="translate(938.501 6721.439)" fill="#e0e0e0"/>
    <path id="Trazado_818742" data-name="Trazado 818742" d="M206.577,132.782H175.428q-.261-3.948-.509-7.9h31.15q.248,3.95.508,7.9" transform="translate(941.37 6721.439)" fill="#e0e0e0"/>
    <path id="Trazado_818743" data-name="Trazado 818743" d="M228.942,147.89H128.072q-.284-3.948-.558-7.9h100.87q.273,3.948.558,7.9" transform="translate(938.563 6722.937)" fill="#e0e0e0"/>
    <path id="Trazado_818744" data-name="Trazado 818744" d="M112.528,182.738q1.516,17.475,3.26,34.951H82.128q-1.743-17.477-3.258-34.951Zm3.239-3.687H75q1.807,21.163,3.949,42.324h40.769q-2.142-21.16-3.947-42.324" transform="translate(935.452 6726.807)" fill="#632059"/>
    <path id="Trazado_818745" data-name="Trazado 818745" d="M248.086,202.267H132.816q.375,3.95.761,7.9H248.848q-.386-3.948-.762-7.9" transform="translate(938.877 6729.107)" fill="#e0e0e0"/>
    <path id="Trazado_818746" data-name="Trazado 818746" d="M221.577,187.158h-90.2q.351,3.948.712,7.9h90.2q-.362-3.948-.712-7.9" transform="translate(938.791 6727.61)" fill="#e0e0e0"/>
    <path id="Trazado_818747" data-name="Trazado 818747" d="M118.967,245.007q1.964,17.471,4.159,34.936H89.466q-2.2-17.466-4.16-34.936h33.66m3.143-3.685H81.34q2.35,21.157,5.037,42.3h40.769q-2.687-21.147-5.036-42.3" transform="translate(935.828 6732.977)" fill="#632059"/>
    <path id="Trazado_818748" data-name="Trazado 818748" d="M254.124,257.322H138.853q-.464-3.947-.916-7.9H253.208q.451,3.948.915,7.9" transform="translate(939.18 6733.78)" fill="#e0e0e0"/>
    <path id="Trazado_818749" data-name="Trazado 818749" d="M193.217,272.423H140.744q-.489-3.945-.965-7.895h52.474q.475,3.947.964,7.895" transform="translate(939.289 6735.276)" fill="#e0e0e0"/>
    <path id="Trazado_818750" data-name="Trazado 818750" d="M221.136,272.423H198.477q-.488-3.945-.964-7.895h22.659q.477,3.947.964,7.895" transform="translate(942.708 6735.276)" fill="#e0e0e0"/>
    <path id="Trazado_818751" data-name="Trazado 818751" d="M89.275,87.781q-.747-1.235-1.492-2.467c-3.256-5.381-9.916-10.19-12.208-11.591l1.706-3.153A48.545,48.545,0,0,1,89.218,81.2c5.127-7.251,12.7-14.728,23.083-22.781q1.1,1.487,2.2,2.976C103.414,70,95.659,77.882,90.769,85.462q-.747,1.161-1.494,2.319" transform="translate(935.486 6714.854)" fill="#632059"/>
    <path id="Trazado_818752" data-name="Trazado 818752" d="M93.13,150.041q-.78-1.235-1.556-2.469c-3.392-5.386-10.177-10.2-12.506-11.6q.812-1.578,1.625-3.155A50.432,50.432,0,0,1,92.9,143.453c4.938-7.255,12.322-14.731,22.495-22.8l2.274,2.98c-10.859,8.618-18.417,16.5-23.108,24.084q-.718,1.161-1.434,2.32" transform="translate(935.693 6721.021)" fill="#632059"/>
    <path id="Trazado_818753" data-name="Trazado 818753" d="M98.664,212.466q-.809-1.233-1.62-2.469c-3.53-5.383-10.442-10.2-12.806-11.6q.771-1.576,1.544-3.155a52.48,52.48,0,0,1,12.485,10.636c4.753-7.254,11.942-14.734,21.906-22.8q1.174,1.49,2.351,2.98c-10.638,8.617-17.991,16.5-22.487,24.087q-.686,1.161-1.374,2.32" transform="translate(935.999 6727.206)" fill="#632059"/>
    <path id="Trazado_818754" data-name="Trazado 818754" d="M205.2,308.084c-6.25,0-9.853-2.4-13.028-4.507-3.036-2.023-5.9-3.926-11.181-3.929s-7.631,1.908-10.115,3.929c-2.6,2.11-5.543,4.512-11.789,4.507s-9.854-2.4-13.025-4.507c-3.039-2.023-5.9-3.926-11.181-3.929s-7.629,1.908-10.112,3.929c-2.6,2.11-5.54,4.512-11.786,4.507s-9.849-2.4-13.025-4.507c-3.038-2.023-5.9-3.926-11.18-3.929q-.216-1.581-.426-3.164c6.246,0,9.84,2.393,13.014,4.508,3.034,2.017,5.9,3.931,11.182,3.928s7.623-1.91,10.11-3.928c2.6-2.112,5.548-4.507,11.8-4.508s9.837,2.393,13.015,4.508c3.032,2.017,5.905,3.931,11.183,3.928s7.624-1.91,10.112-3.928c2.6-2.112,5.551-4.507,11.8-4.508s9.841,2.393,13.015,4.508c3.034,2.017,5.9,3.931,11.185,3.928q.216,1.583.436,3.164" transform="translate(936.243 6738.443)" fill="#ebebeb"/>
    <path id="Trazado_818755" data-name="Trazado 818755" d="M213.8,31.484C210.229,21.634,201.955,15.1,193.05,15.1H174.923a6.9,6.9,0,0,1-6.306-4.347A16.931,16.931,0,0,0,153.188,0a15.068,15.068,0,0,0-14.427,10.757,6.143,6.143,0,0,1-5.9,4.347H114.732c-8.9,0-16.569,6.531-19.225,16.381l-1.061,3.934H215.23Z" transform="translate(936.604 6709.065)" fill="#263238"/>
    <path id="Trazado_818756" data-name="Trazado 818756" d="M214.609,36.436H95.735a4.027,4.027,0,0,1-3.9-3.862,3.6,3.6,0,0,1,3.542-3.863H214.249a4.028,4.028,0,0,1,3.9,3.863,3.6,3.6,0,0,1-3.542,3.862" transform="translate(936.449 6711.91)" fill="#3b5620"/>
    <path id="Trazado_818758" data-name="Trazado 818758" d="M308.935,333.494h-7.761l-.772-18.648h7.76Z" transform="translate(948.802 6740.263)" fill="#ffc3bd"/>
    <path id="Trazado_818759" data-name="Trazado 818759" d="M353.1,333.494h-7.761l-3.9-18.648h7.76Z" transform="translate(951.232 6740.263)" fill="#ffc3bd"/>
    <path id="Trazado_818760" data-name="Trazado 818760" d="M345.277,330.964H354a.683.683,0,0,1,.661.55l1.533,7.158a1.173,1.173,0,0,1-1.136,1.432c-3.044-.055-4.523-.24-8.357-.24-2.359,0-7.219.254-10.476.254-3.186,0-3.683-3.342-2.349-3.645,5.979-1.357,8.231-3.229,10.146-5.015a1.848,1.848,0,0,1,1.259-.495" transform="translate(950.743 6741.859)" fill="#263238"/>
    <path id="Trazado_818761" data-name="Trazado 818761" d="M302.227,330.964H310.7a.683.683,0,0,1,.661.55l1.533,7.158a1.16,1.16,0,0,1-1.116,1.432c-3.057-.054-7.475-.24-11.317-.24-4.493,0-8.374.254-13.643.254-3.186,0-4.071-3.342-2.737-3.645,6.072-1.378,11.029-1.526,16.275-4.882a3.5,3.5,0,0,1,1.87-.628" transform="translate(947.8 6741.859)" fill="#263238"/>
    <path id="Trazado_818762" data-name="Trazado 818762" d="M316.423,64.5c-1.113,5.891-1.666,13.192,2.306,17.124,0,0-2.282,5.976-12.83,5.976-9.64,0-4.814-5.976-4.814-5.976,6.331-1.568,6-9.692,4.9-14.269Z" transform="translate(948.771 6715.457)" fill="#ffc3bd"/>
    <path id="Trazado_818763" data-name="Trazado 818763" d="M298.2,81.286c.22-1.465,2.693-3.16,5.516-3.8s13.638-2.061,16.948-.642-.573,5.623-.573,5.623Z" transform="translate(948.672 6716.619)" fill="#632059"/>
    <g id="Grupo_1072154" data-name="Grupo 1072154" transform="translate(1246.898 6792.853)" opacity="0.4">
      <g id="Grupo_1072153" data-name="Grupo 1072153">
        <g id="Grupo_1072152" data-name="Grupo 1072152" clip-path="url(#clip-path-2)">
          <path id="Trazado_818764" data-name="Trazado 818764" d="M298.2,81.286c.22-1.465,2.693-3.16,5.516-3.8s13.638-2.061,16.948-.642-.573,5.623-.573,5.623Z" transform="translate(-298.197 -76.234)" fill="#fff"/>
        </g>
      </g>
    </g>
    <g id="Grupo_1072157" data-name="Grupo 1072157" transform="translate(1249.205 7055.113)" opacity="0.2">
      <g id="Grupo_1072156" data-name="Grupo 1072156">
        <g id="Grupo_1072155" data-name="Grupo 1072155" clip-path="url(#clip-path-3)">
          <path id="Trazado_818765" data-name="Trazado 818765" d="M300.4,314.85l.4,9.613h7.764l-.4-9.613Z" transform="translate(-300.403 -314.85)"/>
        </g>
      </g>
    </g>
    <g id="Grupo_1072160" data-name="Grupo 1072160" transform="translate(1292.67 7055.113)" opacity="0.2">
      <g id="Grupo_1072159" data-name="Grupo 1072159" transform="translate(0)">
        <g id="Grupo_1072158" data-name="Grupo 1072158" clip-path="url(#clip-path-4)">
          <path id="Trazado_818766" data-name="Trazado 818766" d="M349.2,314.85h-7.764l2.015,9.613h7.764Z" transform="translate(-341.438 -314.85)"/>
        </g>
      </g>
    </g>
    <path id="Trazado_818767" data-name="Trazado 818767" d="M333.415,86.683l-9.351,6.506s13.432,24.779,12.3,28.75c-1.535,5.405-3.676,17.229-6.587,23.226.379,1.293,2.317,4.25,3.4,4.763,7.4-5.854,14.91-24.2,14.627-29.314-.643-11.661-14.39-33.931-14.39-33.931" transform="translate(950.203 6717.654)" fill="#ffc3bd"/>
    <path id="Trazado_818768" data-name="Trazado 818768" d="M329.874,139.945l-7.382-.594,3.884,8.476s6.47.3,7.551-4.835Z" transform="translate(950.11 6722.873)" fill="#b55b52"/>
    <path id="Trazado_818769" data-name="Trazado 818769" d="M372.657,184.857l-.627,1.217-4.2,8.234-148.9-81.7,4.811-9.447Z" transform="translate(943.977 6719.287)" fill="#c8b1c5"/>
    <path id="Trazado_818770" data-name="Trazado 818770" d="M381.751,167.686l-3.075,6.03-1.738,3.4-148.913-81.7,4.81-9.448Z" transform="translate(944.515 6717.584)" fill="#c8b1c5"/>
    <path id="Trazado_819631" data-name="Trazado 819631" d="M2.622.16,13.221,0,10.6,169.834l-10.6.16Z" transform="translate(1166.379 6824.638) rotate(-62.093)" fill="#632059"/>
    <path id="Trazado_818771" data-name="Trazado 818771" d="M213.115,87.225l-4.332,8.5,10.749,18.59,14.441-28.339Z" transform="translate(943.376 6717.584)" fill="#e8dde6"/>
    <path id="Trazado_818773" data-name="Trazado 818773" d="M204.434,87.648l4.607,7.967,4.332-8.5Z" transform="translate(943.118 6717.697)" fill="#632059"/>
    <path id="Trazado_818774" data-name="Trazado 818774" d="M316.827,143.212l3.88,7.5,6-2.882-3.884-8.476Z" transform="translate(949.775 6722.873)" fill="#b55b52"/>
    <path id="Trazado_818775" data-name="Trazado 818775" d="M331.4,81.752c7.343,1.108,15.752,27.509,15.752,27.509L331.733,118.3s-6.792-12.557-10.141-21.881c-3.509-9.77,1.935-15.854,9.811-14.666" transform="translate(949.993 6717.151)" fill="#12263f"/>
    <g id="Grupo_1072169" data-name="Grupo 1072169" transform="translate(1275.329 6807.48)" opacity="0.2">
      <g id="Grupo_1072168" data-name="Grupo 1072168" transform="translate(0)">
        <g id="Grupo_1072167" data-name="Grupo 1072167" clip-path="url(#clip-path-5)">
          <path id="Trazado_818776" data-name="Trazado 818776" d="M326.861,90.013c-3.337-3.165-1.292,10.386.3,19.058.816,1.693,1.589,3.231,2.246,4.517,3.718-6.814,2.055-19.212-2.542-23.575" transform="translate(-325.066 -89.543)"/>
        </g>
      </g>
    </g>
    <path id="Trazado_818777" data-name="Trazado 818777" d="M289.982,82.343s-9.159,24.317-.46,69.6h41.509c.286-6.612-3.717-38.865,2.429-70.019a104.532,104.532,0,0,0-13.9-1.82,147.1,147.1,0,0,0-17.645,0,75.4,75.4,0,0,0-11.937,2.236" transform="translate(947.936 6716.976)" fill="#12263f"/>
    <path id="Trazado_818778" data-name="Trazado 818778" d="M298.6,92.789l-10.468-4.3s-12.05,25.532-15.842,26.821c-5.159,1.755-15.758,6.63-22.171,7.544-.81,1.056-2.059,4.39-1.854,5.6,8.841,3,27.665-.983,31.564-4.126,8.89-7.164,18.771-31.543,18.771-31.543" transform="translate(945.713 6717.833)" fill="#ffc3bd"/>
    <g id="Grupo_1072172" data-name="Grupo 1072172" transform="translate(1233.709 6802.349)" opacity="0.2">
      <g id="Grupo_1072171" data-name="Grupo 1072171">
        <g id="Grupo_1072170" data-name="Grupo 1072170" clip-path="url(#clip-path-6)">
          <path id="Trazado_818779" data-name="Trazado 818779" d="M297.549,90.245c-1.727-4.133-5.031-5.858-8.516-5.254-1.335,5.067-3.591,16.2-3.22,32.962l2.468,1.231s12.224-21.872,9.268-28.939" transform="translate(-285.773 -84.874)"/>
        </g>
      </g>
    </g>
    <path id="Trazado_818780" data-name="Trazado 818780" d="M299.909,87.649c2.615,7.2-10.635,28.421-10.635,28.421l-15.521-8.747a99.935,99.935,0,0,1,8.969-18.852c5.493-8.49,14.316-8.73,17.187-.823" transform="translate(947.224 6717.181)" fill="#12263f"/>
    <path id="Trazado_818781" data-name="Trazado 818781" d="M250.852,119.734l-9.245,2.075,4.685,8.87s2.847-1.207,6.935-5.249Z" transform="translate(945.32 6720.929)" fill="#ffc3bd"/>
    <path id="Trazado_818782" data-name="Trazado 818782" d="M237.494,123.589l3.686,5.3,5.355,1.607-4.686-8.87Z" transform="translate(945.076 6721.116)" fill="#ffc3bd"/>
    <path id="Trazado_818783" data-name="Trazado 818783" d="M299.007,56.9c-.036.648-.4,1.154-.8,1.13s-.711-.57-.675-1.219.4-1.154.8-1.13.711.57.675,1.219" transform="translate(948.632 6714.583)" fill="#263238"/>
    <path id="Trazado_818784" data-name="Trazado 818784" d="M299.628,56.84a23.424,23.424,0,0,1-3.293,5.367,3.5,3.5,0,0,0,2.953.761Z" transform="translate(948.561 6714.697)" fill="#ed847e"/>
    <path id="Trazado_818785" data-name="Trazado 818785" d="M298.186,54.962a.347.347,0,0,1-.156-.058.391.391,0,0,1-.109-.528,3.614,3.614,0,0,1,2.872-1.8.382.382,0,0,1,0,.764,2.889,2.889,0,0,0-2.259,1.452.363.363,0,0,1-.352.171" transform="translate(948.652 6714.274)" fill="#263238"/>
    <path id="Trazado_818786" data-name="Trazado 818786" d="M320.053,57.388c-.914,7.935-1.06,12.629-5.164,16.484-6.172,5.8-15.444,1.586-16.833-6.474-1.25-7.254.454-19.012,8.143-21.732,7.575-2.68,14.768,3.786,13.854,11.722" transform="translate(948.641 6713.529)" fill="#ffc3bd"/>
    <path id="Trazado_818787" data-name="Trazado 818787" d="M305.016,59.454c-2.679.55-6.957-5.624-3.469-10.869-1.768-.916-7.535,2.687-9.712-.672s3.853-5.159,2.706-8c4.091.87-2.648,6.165,1.236,5.647s8.37-7.974,12.754-4.914c7.679,5.358,18.139-3.572,13.871,7.6,5.237-1.1,8.815,5.327,3.828,9.769-9.941,8.855-3.828,10.015-10.122,10.472-3.2.233-10.537-3.694-11.092-9.037" transform="translate(948.266 6713.02)" fill="#263238"/>
    <path id="Trazado_818788" data-name="Trazado 818788" d="M308.377,59.96a6.547,6.547,0,0,1-3.7,3.4c-2.149.751-3.342-1.214-2.843-3.383.448-1.952,2.108-4.694,4.312-4.505,2.172.187,3.131,2.526,2.229,4.491" transform="translate(948.88 6714.561)" fill="#ffc3bd"/>
    <path id="Trazado_818789" data-name="Trazado 818789" d="M303.215,145.445s8.806,61.54,13.642,84.6c5.294,25.247,25.243,109.347,25.243,109.347h14.213s-13.153-82.061-16.174-107.059C336.859,205.2,330,145.445,330,145.445Z" transform="translate(948.969 6723.477)" fill="#632059"/>
    <g id="Grupo_1072178" data-name="Grupo 1072178" transform="translate(1257.019 6889.267)" opacity="0.2">
      <g id="Grupo_1072177" data-name="Grupo 1072177" transform="translate(0)">
        <g id="Grupo_1072176" data-name="Grupo 1072176" clip-path="url(#clip-path-7)">
          <path id="Trazado_818791" data-name="Trazado 818791" d="M313.4,165.126c-.654-.964-1.254-1.295-1.8-1.13a1.1,1.1,0,0,0-.113.043,1.354,1.354,0,0,0-.348.215,2.314,2.314,0,0,0-.3.32c-.056.069-.112.143-.168.225-.076.111-.153.232-.227.363a8.664,8.664,0,0,0-.477,1c-.083.2-.163.421-.243.648-.1.273-.189.559-.28.863q-.181.607-.351,1.286c-.03.118-.058.236-.087.355-.059.248-.118.5-.175.758-.047.215-.093.433-.14.656-.09.435-.177.883-.262,1.345q-.135.735-.261,1.509c-.03.179-.059.362-.088.544q-.156.991-.3,2.021v0c2.351,15.319,5.148,32.88,7.446,45.134.112-.4.219-.818.324-1.258a59.811,59.811,0,0,0,1.062-6.209c1.964-15.8,1.037-42.4-3.208-48.7" transform="translate(-307.78 -163.956)"/>
        </g>
      </g>
    </g>
    <path id="Trazado_818792" data-name="Trazado 818792" d="M289.344,145.445s-1.069,60.208-.225,84.765c.878,25.543,9.476,109.178,9.476,109.178h13.147s.482-82.143,1.068-107.228c.638-27.348,3.82-86.715,3.82-86.715Z" transform="translate(948.115 6723.477)" fill="#632059"/>
    <path id="Trazado_818794" data-name="Trazado 818794" d="M312.161,318.15c.06,0,0,4.458,0,4.458H297.008l-.638-5.007Z" transform="translate(948.563 6740.535)" fill="#263238"/>
    <path id="Trazado_818795" data-name="Trazado 818795" d="M354.256,318.46c.06,0,.709,4.122.709,4.122H339.341l-1.383-4.733Z" transform="translate(951.026 6740.56)" fill="#263238"/>
    <path id="Trazado_818796" data-name="Trazado 818796" d="M342.283,332.428a2.291,2.291,0,0,1-1.495-.41,1.171,1.171,0,0,1-.38-1.009.608.608,0,0,1,.315-.54c.85-.456,3.361,1.139,3.645,1.322a.2.2,0,0,1,.084.193.19.19,0,0,1-.138.154,8.833,8.833,0,0,1-2.031.289m-1.154-1.666a.52.52,0,0,0-.238.047c-.05.027-.107.077-.115.224a.792.792,0,0,0,.249.692c.424.371,1.437.42,2.755.145a7.265,7.265,0,0,0-2.65-1.109" transform="translate(951.171 6741.803)" fill="#407bff"/>
    <path id="Trazado_818797" data-name="Trazado 818797" d="M344.182,332.315a.174.174,0,0,1-.087-.022c-.8-.453-2.356-2.217-2.191-3.116a.606.606,0,0,1,.585-.5.976.976,0,0,1,.783.244c.9.765,1.087,3.09,1.094,3.187a.19.19,0,0,1-.083.175.175.175,0,0,1-.1.031m-1.566-3.264c-.028,0-.055,0-.084.005-.238.031-.259.145-.268.192-.1.531.892,1.864,1.689,2.493a4.7,4.7,0,0,0-.915-2.523.639.639,0,0,0-.423-.167" transform="translate(951.259 6741.632)" fill="#407bff"/>
    <path id="Trazado_818798" data-name="Trazado 818798" d="M298.257,332.429a2.863,2.863,0,0,1-1.885-.495,1.092,1.092,0,0,1-.344-.929.609.609,0,0,1,.3-.507c.942-.55,4.062,1.1,4.415,1.285a.193.193,0,0,1,.1.2.188.188,0,0,1-.146.16,12.685,12.685,0,0,1-2.439.288m-1.4-1.667a.694.694,0,0,0-.343.07.23.23,0,0,0-.115.2.714.714,0,0,0,.221.614c.478.44,1.755.514,3.468.219a9.893,9.893,0,0,0-3.231-1.107" transform="translate(948.543 6741.802)" fill="#407bff"/>
    <path id="Trazado_818799" data-name="Trazado 818799" d="M300.554,332.315a.183.183,0,0,1-.075-.016c-.936-.436-2.792-2.176-2.65-3.088.034-.213.18-.479.684-.532a1.294,1.294,0,0,1,1.02.326c.987.842,1.2,3.009,1.2,3.1a.193.193,0,0,1-.076.173.179.179,0,0,1-.107.035m-1.893-3.264c-.036,0-.073,0-.11.005-.332.036-.353.17-.359.215-.085.546,1.176,1.915,2.131,2.51A4.561,4.561,0,0,0,299.3,329.3a.962.962,0,0,0-.639-.248" transform="translate(948.649 6741.632)" fill="#407bff"/>
  </g>
</svg>
